<svg width="39" height="47" viewBox="0 0 39 47" fill="none" xmlns="http://www.w3.org/2000/svg">
<path d="M11.2009 12.8738C11.2294 12.5046 11.7706 12.5046 11.7991 12.8738L12.7838 25.6263C12.794 25.7591 12.8907 25.8693 13.021 25.8968L21.6072 27.7064C21.9247 27.7734 21.9247 28.2266 21.6072 28.2936L13.021 30.1033C12.8907 30.1307 12.794 30.2409 12.7838 30.3737L11.7991 43.1262C11.7706 43.4954 11.2294 43.4954 11.2009 43.1262L10.2162 30.3737C10.206 30.2409 10.1093 30.1307 9.97899 30.1032L1.39277 28.2936C1.07526 28.2266 1.07526 27.7734 1.39277 27.7064L9.97899 25.8967C10.1093 25.8693 10.206 25.7591 10.2162 25.6263L11.2009 12.8738Z" fill="#EBAF4B"/>
<path d="M26.2008 4.00047C26.2285 3.6303 26.7715 3.6303 26.7992 4.00047L27.445 12.6363C27.4549 12.7687 27.5506 12.8789 27.6803 12.9071L33.653 14.2069C33.9679 14.2754 33.9679 14.7246 33.653 14.7931L27.6803 16.0929C27.5506 16.1211 27.4549 16.2313 27.445 16.3637L26.7992 24.9995C26.7715 25.3697 26.2285 25.3697 26.2008 24.9995L25.555 16.3637C25.5451 16.2313 25.4494 16.1211 25.3197 16.0929L19.347 14.7931C19.0321 14.7246 19.0321 14.2754 19.347 14.2069L25.3197 12.9071C25.4494 12.8789 25.5451 12.7687 25.555 12.6363L26.2008 4.00047Z" fill="#FFC850"/>
<path d="M32.7009 30.908C32.7292 30.5385 33.2708 30.5385 33.2991 30.908L33.6617 35.6448C33.6718 35.7775 33.7682 35.8876 33.8984 35.9153L37.6199 36.7066C37.9367 36.7739 37.9367 37.2261 37.6199 37.2934L33.8984 38.0847C33.7682 38.1124 33.6718 38.2225 33.6617 38.3552L33.2991 43.092C33.2708 43.4615 32.7292 43.4615 32.7009 43.092L32.3383 38.3552C32.3282 38.2225 32.2318 38.1124 32.1016 38.0847L28.3801 37.2934C28.0633 37.2261 28.0633 36.7739 28.3801 36.7066L32.1016 35.9153C32.2318 35.8876 32.3282 35.7775 32.3383 35.6448L32.7009 30.908Z" fill="#EBAF4B"/>
</svg>
