<svg width="45" height="109" viewBox="0 0 45 109" fill="none" xmlns="http://www.w3.org/2000/svg">
<g clip-path="url(#clip0)">
<path d="M12.3735 107.338C11.9876 107.446 11.5901 107.508 11.1894 107.521C10.7577 107.532 10.3342 107.402 9.98228 107.152C9.63031 106.902 9.36879 106.544 9.2368 106.133C9.22419 106.099 9.21434 106.063 9.20737 106.027C8.98311 105.299 8.9281 104.53 9.04652 103.778C9.16494 103.025 9.45367 102.31 9.89067 101.686L14.334 95.2629L13.345 90.9917C13.2253 91.1454 13.0852 91.2821 12.9286 91.398C12.8116 91.4653 12.6866 91.5175 12.5565 91.5532L12.4602 91.58L12.1904 91.6549C11.6811 91.7311 11.1621 91.608 10.7413 91.3111C10.3205 91.0143 10.0305 90.5665 9.93157 90.0612L9.85665 89.7914C9.84847 89.641 9.86255 89.4902 9.89843 89.3439C10.06 88.9369 10.2744 88.5528 10.536 88.2016L12.209 85.817L12.0002 85.0655L11.9419 85.1543C11.7345 85.4544 11.4255 85.6692 11.072 85.7592L10.9853 85.7832L10.7155 85.8582C10.2062 85.9344 9.68719 85.8113 9.26643 85.5144C8.84567 85.2175 8.55563 84.7698 8.45669 84.2645L8.38177 83.9947C8.3566 83.7961 8.37117 83.5945 8.42463 83.4016C8.46536 83.187 8.55013 82.9833 8.67358 82.8031L10.7758 79.7596L9.89982 76.0072C9.82938 75.6994 9.82425 75.3801 9.88475 75.0702C9.94525 74.7602 10.07 74.4664 10.2511 74.2076L10.7051 73.5626C10.8852 73.3056 11.1486 73.1187 11.4507 73.0338C11.7613 72.952 12.0909 72.9844 12.3796 73.1253C12.6682 73.2661 12.8967 73.5058 13.0234 73.801C14.234 76.516 17.3565 82.9761 21.0101 86.5279C21.9084 85.2406 24.1124 82.3764 27.0133 79.0696L26.0239 73.3768C25.9431 72.9175 26.0468 72.4448 26.3125 72.0616L26.5818 71.6858C26.7164 71.4927 26.8938 71.3333 27.1001 71.2199C27.3065 71.1065 27.5362 71.0423 27.7714 71.0322C28.0066 71.0221 28.241 71.0664 28.4562 71.1617C28.6715 71.257 28.8619 71.4007 29.0126 71.5816L31.7509 74.8272C32.0969 75.2344 32.5408 75.5468 33.0409 75.7352L37.0217 77.2139C37.2422 77.294 37.4415 77.4235 37.6044 77.5924C37.7672 77.7613 37.8893 77.9652 37.9613 78.1885C38.0334 78.4118 38.0534 78.6486 38.02 78.8809C37.9865 79.1131 37.9004 79.3346 37.7683 79.5285L37.499 79.9043C37.2643 80.2385 36.9206 80.4807 36.5269 80.5894L36.3631 80.6349L30.6702 81.6243C28.5262 85.4889 26.5352 88.5222 25.6728 89.7892C30.1851 92.0233 37.3858 92.7635 40.3512 92.9778C40.5848 92.9904 40.8109 93.0643 41.0067 93.1921C41.2026 93.3199 41.3612 93.4971 41.4667 93.7059C41.5854 93.9287 41.6396 94.1802 41.6235 94.4321C41.6073 94.6841 41.5213 94.9265 41.3751 95.1324L40.9211 95.7774C40.6231 96.2009 40.188 96.5087 39.6894 96.6488L39.3618 96.7397L35.5109 97.1864L33.3744 100.219C33.1676 100.519 32.8584 100.734 32.5045 100.824L32.36 100.864L32.0902 100.939C31.5809 101.015 31.0619 100.892 30.6411 100.595C30.2203 100.298 29.9303 99.8502 29.8314 99.3449L29.7564 99.0751C29.7263 98.8958 29.7281 98.7126 29.7618 98.5339C29.8028 98.3195 29.8876 98.1158 30.0108 97.9355L30.0622 97.859L29.2469 97.9504L27.6323 100.246C27.42 100.607 27.1638 100.939 26.8695 101.236C26.7526 101.304 26.6276 101.356 26.4975 101.392L26.3529 101.432L26.0831 101.507C25.5739 101.583 25.0548 101.46 24.6341 101.163C24.2133 100.866 23.9233 100.418 23.8243 99.913L23.7494 99.6432C23.7192 99.4639 23.7211 99.2807 23.7548 99.102C23.8116 98.9131 23.8943 98.733 24.0005 98.5667L19.6491 99.0798L15.2058 105.503C14.5029 106.424 13.5017 107.073 12.3735 107.338Z" fill="#99CEE1"/>
<path d="M11.6382 73.7084C11.7889 73.6675 11.9493 73.6822 12.09 73.7499C12.2308 73.8175 12.3425 73.9335 12.4047 74.0768C13.6127 76.7822 17.0348 83.9478 21.0252 87.4788C21.0419 87.4927 21.0617 87.5025 21.0829 87.5074C21.104 87.5123 21.1261 87.5122 21.1472 87.5072C21.1746 87.5091 21.2018 87.5015 21.2243 87.4858C21.6949 86.8258 24.1499 83.4456 27.6354 79.4783C27.682 79.4289 27.7165 79.3695 27.7363 79.3046C27.7561 79.2396 27.7606 79.171 27.7495 79.1041L26.7269 73.2544C26.702 73.1169 26.7045 72.9759 26.7343 72.8394C26.764 72.7029 26.8205 72.5736 26.9004 72.459L27.1724 72.0929C27.2831 71.9343 27.4457 71.8194 27.6322 71.768C27.7867 71.7258 27.9502 71.7286 28.1031 71.7763C28.2561 71.8239 28.3923 71.9143 28.4956 72.0367L31.2339 75.2824C31.6579 75.7847 32.2044 76.1692 32.8204 76.3985L36.8013 77.8773C36.9203 77.9257 37.0265 78.0007 37.112 78.0966C37.1974 78.1926 37.2597 78.3068 37.2941 78.4306C37.3285 78.5543 37.334 78.6843 37.3103 78.8106C37.2865 78.9368 37.2341 79.0559 37.1572 79.1588L36.8879 79.5345C36.7472 79.7343 36.5418 79.8793 36.3065 79.9451L36.2102 79.9718L30.399 80.9837C30.3412 81 30.2874 81.028 30.2408 81.0659C30.1942 81.1038 30.1559 81.1509 30.1282 81.2042C27.5719 85.8268 25.2207 89.2819 24.7651 89.9585C24.7558 89.9737 24.7497 89.9906 24.7473 90.0083C24.7448 90.0259 24.746 90.0439 24.7508 90.061C24.7555 90.0782 24.7638 90.0942 24.775 90.1081C24.7862 90.1219 24.8001 90.1333 24.8159 90.1415C29.492 92.7037 37.3928 93.4986 40.3417 93.7279C40.4573 93.7359 40.5686 93.7746 40.6642 93.84C40.7598 93.9055 40.8362 93.9953 40.8854 94.1001C40.9346 94.205 40.9549 94.3211 40.9442 94.4365C40.9335 94.5518 40.8922 94.6622 40.8245 94.7562L40.3705 95.4012C40.1612 95.6994 39.853 95.9137 39.5006 96.006L39.2694 96.0703L35.2467 96.5336C35.1831 96.5487 35.1272 96.5863 35.0893 96.6395L32.8596 99.8222C32.7912 99.9177 32.7042 99.9984 32.6037 100.059L32.4014 100.116L32.3243 100.137L32.0545 100.212C31.8864 100.251 31.712 100.255 31.5423 100.224C31.3726 100.193 31.2111 100.127 31.0682 100.03C30.9253 99.9329 30.804 99.8075 30.7119 99.6615C30.6199 99.5155 30.559 99.352 30.5333 99.1813L30.4584 98.9115C30.4423 98.8151 30.4431 98.7165 30.4605 98.6203C30.4851 98.5057 30.5326 98.3971 30.6003 98.3013L31.566 96.9953L29.2027 97.2676L29.116 97.2917C28.9684 97.3286 28.8384 97.4161 28.7487 97.5389L27.0828 99.9112C26.8894 100.185 26.6773 100.445 26.4479 100.689L26.2455 100.746L26.1684 100.767L25.8987 100.842C25.7362 100.872 25.5695 100.869 25.4082 100.833C25.2469 100.798 25.0941 100.731 24.9588 100.637C24.8235 100.542 24.7083 100.421 24.6198 100.282C24.5313 100.143 24.4713 99.9871 24.4433 99.8243L24.3684 99.5545C24.3525 99.4581 24.3532 99.3596 24.3705 99.2634C24.5233 98.965 24.6966 98.6775 24.8893 98.4032L25.3668 97.7309L19.334 98.4307C19.2708 98.4504 19.2162 98.4912 19.1793 98.5463L14.5476 105.001C14.1652 105.546 13.6609 105.994 13.0748 106.31C12.4887 106.626 11.837 106.801 11.1714 106.821C10.8948 106.832 10.6219 106.753 10.3945 106.595C10.167 106.437 9.99737 106.209 9.91143 105.946C9.70661 105.308 9.65443 104.631 9.75906 103.969C9.8637 103.307 10.1222 102.68 10.5139 102.136L15.1119 95.5971C15.1346 95.564 15.1499 95.5265 15.1569 95.4869C15.1638 95.4474 15.1622 95.4068 15.152 95.368L13.773 89.4305L13.2955 90.1028C13.1022 90.3767 12.8901 90.6368 12.6606 90.8811L12.4582 90.9373L12.3522 90.9667L12.0824 91.0416C11.7546 91.0985 11.4176 91.0234 11.145 90.8328C10.8723 90.6421 10.6861 90.3514 10.6271 90.0239L10.5521 89.7541C10.5361 89.6577 10.5368 89.5592 10.5543 89.463C10.707 89.1645 10.8804 88.8771 11.073 88.6028L12.739 86.2305C12.7892 86.1558 12.8236 86.0717 12.8401 85.9832C12.8566 85.8947 12.8548 85.8038 12.8349 85.7161L12.2944 83.3961L11.4009 84.7755C11.3325 84.871 11.2454 84.9517 11.145 85.0126L10.9427 85.0688L10.8656 85.0902L10.5958 85.1651C10.4333 85.1947 10.2666 85.1917 10.1053 85.1564C9.94401 85.1212 9.79128 85.0543 9.65596 84.9597C9.52064 84.8651 9.4054 84.7446 9.31692 84.6052C9.22843 84.4657 9.16844 84.3102 9.14041 84.1475L9.06549 83.8777C9.04945 83.7812 9.05018 83.6827 9.06765 83.5865C9.09224 83.4718 9.13977 83.3633 9.20738 83.2674L11.4371 80.0848C11.4586 80.0548 11.4737 80.0207 11.4816 79.9846C11.4894 79.9485 11.4897 79.9112 11.4826 79.8749L10.5573 75.9079C10.5078 75.6963 10.5034 75.4767 10.5442 75.2633C10.5851 75.0499 10.6704 74.8475 10.7945 74.6692L11.2485 74.0242C11.3359 73.8983 11.465 73.8073 11.613 73.7673L11.6382 73.7084ZM11.2384 72.4184C10.7818 72.5475 10.3838 72.8304 10.1116 73.2191L9.69081 73.8341C9.45708 74.1699 9.29451 74.55 9.21311 74.951C9.13171 75.352 9.13319 75.7654 9.21747 76.1658L10.0352 79.6334L8.07637 82.4088C7.9083 82.6473 7.78912 82.9167 7.7257 83.2015C7.66229 83.4863 7.65591 83.7809 7.70691 84.0681L7.78184 84.3379C7.84136 84.6813 7.96803 85.0095 8.15457 85.3038C8.34111 85.5982 8.58388 85.8528 8.86896 86.0532C9.15405 86.2536 9.47586 86.3958 9.81597 86.4717C10.1561 86.5475 10.5078 86.5556 10.851 86.4953L9.94311 87.7853C9.61849 88.2036 9.36657 88.6735 9.1979 89.1754C9.14512 89.4435 9.14075 89.7189 9.185 89.9885L9.25992 90.2583C9.38261 90.9505 9.77431 91.566 10.3494 91.9702C10.9245 92.3745 11.6363 92.5346 12.3291 92.4157L12.5989 92.3408L12.9554 92.2418L13.6329 95.1672L9.31541 101.296C8.81059 102.019 8.47991 102.848 8.34928 103.72C8.21865 104.592 8.29162 105.482 8.56248 106.321C8.56248 106.321 8.57853 106.378 8.58656 106.407C8.76503 106.948 9.11223 107.417 9.57711 107.746C10.042 108.074 10.6 108.245 11.1692 108.233L11.2752 108.203C12.1447 108.168 12.9945 107.934 13.759 107.518C14.5235 107.103 15.1823 106.517 15.6845 105.806L20.002 99.6774L23.0157 99.3179C23.0152 99.4436 23.0258 99.5692 23.0473 99.6931L23.1222 99.9629C23.1817 100.306 23.3084 100.634 23.4949 100.929C23.6815 101.223 23.9242 101.478 24.2093 101.678C24.4944 101.879 24.8162 102.021 25.1563 102.097C25.4964 102.173 25.8482 102.181 26.1914 102.12L26.4612 102.045L26.6731 101.987C26.8586 101.936 27.0369 101.862 27.2036 101.767C27.6453 101.454 28.0146 101.051 28.2866 100.584L29.1945 99.2936C29.2541 99.637 29.3807 99.9652 29.5673 100.26C29.7538 100.554 29.9966 100.809 30.2816 101.009C30.5667 101.209 30.8885 101.352 31.2287 101.427C31.5688 101.503 31.9205 101.511 32.2637 101.451L32.5335 101.376L32.7359 101.32C32.9213 101.269 33.0996 101.196 33.2663 101.1C33.543 100.934 33.7819 100.712 33.9676 100.449L35.9264 97.6732L39.4652 97.2613C39.8581 97.2166 40.2383 97.0946 40.5839 96.9025C40.9295 96.7103 41.2337 96.4517 41.479 96.1416L41.933 95.4966C42.1378 95.2003 42.2609 94.8552 42.2899 94.4962C42.319 94.1372 42.2529 93.7768 42.0983 93.4515C41.9438 93.1261 41.7063 92.8472 41.4096 92.6429C41.113 92.4385 40.7678 92.3159 40.4087 92.2874C37.6424 92.0801 31.1445 91.4042 26.7178 89.4784C27.6959 87.9925 29.3512 85.3949 31.1205 82.2363L36.4874 81.3063L36.7186 81.2421C37.2668 81.0892 37.7451 80.751 38.0719 80.2851L38.3412 79.9093C38.5333 79.6299 38.6595 79.3105 38.7102 78.9752C38.7609 78.6399 38.7348 78.2974 38.6339 77.9737C38.533 77.6499 38.3599 77.3533 38.1277 77.1062C37.8955 76.8591 37.6102 76.6679 37.2933 76.5471L33.3055 75.0807C32.9154 74.9348 32.5692 74.6916 32.2997 74.3741L29.571 71.1258C29.3514 70.863 29.0741 70.6544 28.7608 70.5161C28.4474 70.3777 28.1065 70.3135 27.7643 70.3282C27.4221 70.3429 27.0879 70.4363 26.7876 70.601C26.4874 70.7657 26.2291 70.9974 26.0328 71.2781L25.7635 71.6538C25.404 72.1938 25.2705 72.8531 25.3914 73.4904L26.3213 78.8572C23.9659 81.5871 22.0521 84.0386 20.9895 85.4441C17.6757 81.9951 14.8187 76.0425 13.6878 73.5025C13.4988 73.0506 13.1505 72.6838 12.709 72.4716C12.2675 72.2594 11.7634 72.2167 11.2925 72.3515L11.2384 72.4184Z" fill="#0A0A0A"/>
<path d="M30.4842 98.5932L32.5353 100.037C32.4473 100.079 32.3528 100.105 32.2559 100.115L31.9861 100.189C31.8245 100.219 31.6587 100.216 31.4983 100.181C31.3378 100.146 31.1858 100.08 31.0509 99.9864C30.916 99.8928 30.8008 99.7736 30.712 99.6354C30.6232 99.4973 30.5625 99.343 30.5334 99.1814L30.4585 98.9117C30.4468 98.8048 30.4555 98.6967 30.4842 98.5932Z" fill="#131313"/>
<path d="M9.08568 83.5397L11.1368 84.9835C11.0488 85.0252 10.9543 85.0514 10.8574 85.0611L10.5876 85.136C10.4251 85.1655 10.2584 85.1626 10.0971 85.1273C9.93581 85.0921 9.78308 85.0252 9.64776 84.9306C9.51244 84.8359 9.39721 84.7154 9.30872 84.576C9.22023 84.4366 9.16024 84.2811 9.13221 84.1183L9.05729 83.8485C9.04773 83.7447 9.05735 83.64 9.08568 83.5397Z" fill="#131313"/>
<path d="M24.407 99.1701L26.4581 100.614C26.3701 100.656 26.2756 100.682 26.1787 100.691L25.9089 100.766C25.7464 100.796 25.5797 100.793 25.4184 100.758C25.2571 100.722 25.1044 100.656 24.969 100.561C24.8337 100.466 24.7185 100.346 24.63 100.206C24.5415 100.067 24.4815 99.9114 24.4535 99.7487L24.3786 99.4789C24.369 99.3751 24.3786 99.2704 24.407 99.1701Z" fill="#131313"/>
<path d="M10.5954 89.462L12.6466 90.9059C12.5586 90.9475 12.464 90.9738 12.3671 90.9835L12.0974 91.0584C11.9349 91.0879 11.7682 91.0849 11.6069 91.0497C11.4456 91.0144 11.2928 90.9475 11.1575 90.8529C11.0222 90.7583 10.907 90.6378 10.8185 90.4984C10.73 90.359 10.67 90.2034 10.642 90.0407L10.5671 89.7709C10.5575 89.6671 10.5671 89.5624 10.5954 89.462Z" fill="#131313"/>
</g>
<path d="M19.5674 1C31.5674 8.33333 51.9674 31.5 37.5674 65.5" stroke="#131313" stroke-width="2" stroke-linecap="round" stroke-dasharray="6 6"/>
<defs>
<clipPath id="clip0">
<rect width="36.57" height="34.71" fill="white" transform="translate(0 75.4873) rotate(-15.5204)"/>
</clipPath>
</defs>
</svg>
