<svg width="54" height="118" viewBox="0 0 54 118" fill="none" xmlns="http://www.w3.org/2000/svg">
<path d="M24.5 1C36.5 8.33333 56.9 31.5 42.5 65.5" stroke="#131313" stroke-width="2" stroke-linecap="round" stroke-dasharray="6 6"/>
<g clip-path="url(#clip0)">
<path d="M37.4905 76.0341C38.2517 76.5856 39.021 77.143 39.7037 77.7858L41.1728 79.0477C41.3849 79.2301 41.5564 79.4549 41.6762 79.7076C41.796 79.9604 41.8614 80.2355 41.8683 80.5151C41.8752 80.7947 41.8234 81.0727 41.7161 81.331C41.6089 81.5894 41.4487 81.8224 41.2458 82.0149L40.3027 82.9246C40.07 83.1354 39.7846 83.2793 39.4768 83.3411C39.169 83.4029 38.8502 83.3802 38.5542 83.2755L35.2061 82.0847C35.1876 82.0771 35.1668 82.0768 35.1481 82.0838C35.1293 82.0908 35.1138 82.1045 35.1047 82.1223L29.8369 90.6545C33.5143 93.6203 37.0231 96.7891 40.3471 100.146C40.7234 100.529 40.9534 101.031 40.997 101.566C41.0405 102.101 40.8949 102.634 40.5854 103.073L39.1597 105.041C38.9264 105.384 38.5722 105.627 38.1678 105.721C37.7634 105.814 37.3384 105.752 36.9778 105.547L24.5439 98.2669L22.1224 101.711C22.0649 101.796 22.0429 101.9 22.0612 102C22.1481 102.484 22.0399 102.983 21.7601 103.388L21.279 104.052C21.0826 104.331 20.8119 104.549 20.4975 104.681C20.1832 104.814 19.8379 104.855 19.5011 104.801L19.1782 104.752L18.9905 105.012C18.8038 105.281 18.5493 105.497 18.2527 105.638C17.943 105.798 17.595 105.869 17.2472 105.844C16.8994 105.819 16.5654 105.698 16.2821 105.494L16.1525 105.4C15.8624 105.2 15.6329 104.924 15.4893 104.602C15.3457 104.28 15.2934 103.925 15.3383 103.576C15.3718 103.265 15.4847 102.968 15.6661 102.714L15.848 102.463L15.685 102.16C15.5308 101.861 15.4624 101.526 15.4872 101.191C15.5121 100.856 15.6292 100.534 15.8256 100.261L16.3009 99.6052C16.5575 99.1895 16.9683 98.8923 17.4434 98.7783C17.4967 98.7703 17.5479 98.7516 17.5938 98.7234C17.6398 98.6951 17.6795 98.6578 17.7107 98.6138L20.1321 95.1694L9.07392 85.9227C8.75006 85.6567 8.53956 85.2775 8.48514 84.8619C8.43073 84.4464 8.53648 84.0257 8.78093 83.6853L10.2066 81.7174C10.5132 81.2766 10.9649 80.9574 11.4828 80.8158C12.0007 80.6741 12.552 80.719 13.0402 80.9425C17.3115 82.9349 21.4686 85.1634 25.4922 87.6178L31.7155 79.778C31.7296 79.7638 31.7379 79.7448 31.7387 79.7248C31.7395 79.7048 31.7327 79.6852 31.7198 79.6699L29.4797 76.8985C29.2813 76.6518 29.154 76.3557 29.1114 76.042C29.0689 75.7283 29.1127 75.4089 29.2382 75.1183L29.7765 73.9152C29.8889 73.6593 30.0538 73.4298 30.2604 73.2415C30.467 73.0533 30.7108 72.9104 30.976 72.8221C31.2413 72.7339 31.5221 72.7022 31.8003 72.7292C32.0785 72.7561 32.348 72.8411 32.5914 72.9786L34.2348 73.8976C35.3594 74.5479 36.4464 75.2612 37.4905 76.0341Z" fill="#9CCE80"/>
<path d="M16.5388 104.816C16.3599 104.693 16.2172 104.524 16.1253 104.327C16.0334 104.13 15.9958 103.913 16.0162 103.696C16.0357 103.493 16.1084 103.299 16.2269 103.133L16.491 102.769C16.542 102.696 16.5716 102.611 16.5765 102.523C16.5814 102.435 16.5614 102.347 16.5187 102.27L16.2937 101.848C16.194 101.663 16.1476 101.455 16.1597 101.245C16.1718 101.036 16.2419 100.834 16.3622 100.662L16.8374 100.006C17.0106 99.7593 17.2747 99.5909 17.5718 99.5382C17.8551 99.4894 18.1077 99.3307 18.2746 99.0965L20.9402 95.298C20.9728 95.2492 20.9863 95.1902 20.9784 95.1322C20.9704 95.0741 20.9415 95.0209 20.897 94.9827L9.49057 85.4837C9.30472 85.3184 9.18718 85.0897 9.16091 84.8423C9.13463 84.5949 9.2015 84.3466 9.34846 84.1459L10.7742 82.1781C10.9744 81.8603 11.2807 81.6237 11.6387 81.5101C11.9967 81.3966 12.3834 81.4134 12.7302 81.5577C17.1193 83.6186 21.3875 85.9276 25.5141 88.4736C25.5507 88.4969 25.5949 88.5054 25.6375 88.4972C25.6801 88.4891 25.718 88.465 25.7434 88.4298L32.2646 80.213C32.3787 80.0735 32.441 79.8989 32.4409 79.7188C32.4408 79.5387 32.3785 79.3642 32.2643 79.2248L30.0243 76.4534C29.9016 76.3077 29.8231 76.13 29.798 75.9412C29.7729 75.7524 29.8023 75.5603 29.8826 75.3876L30.415 74.1927C30.4888 74.0271 30.5961 73.8787 30.7303 73.7567C30.8644 73.6348 31.0224 73.542 31.1942 73.4843C31.366 73.4266 31.548 73.4051 31.7285 73.4213C31.9091 73.4375 32.0843 73.491 32.2431 73.5784L33.927 74.5267C35.0201 75.1458 36.0778 75.8255 37.095 76.5627C37.84 77.1025 38.5662 77.6739 39.2736 78.2769L40.7427 79.5389C40.8811 79.6577 40.993 79.8043 41.071 79.9691C41.1491 80.134 41.1915 80.3135 41.1957 80.4958C41.1998 80.6782 41.1655 80.8594 41.0951 81.0276C41.0246 81.1959 40.9195 81.3474 40.7866 81.4724L39.8435 82.3821C39.7078 82.5161 39.5367 82.6085 39.3502 82.6485C39.1637 82.6884 38.9697 82.6742 38.7911 82.6075L35.4429 81.4166C35.2725 81.3553 35.0859 81.3552 34.9154 81.4164C34.7448 81.4777 34.6009 81.5963 34.5084 81.7521L28.9949 90.6744C28.9716 90.711 28.9631 90.7551 28.9713 90.7977C28.9794 90.8404 29.0035 90.8783 29.0387 90.9037C32.8296 93.9285 36.4454 97.1666 39.8684 100.602C40.1309 100.868 40.2916 101.217 40.3222 101.589C40.3529 101.962 40.2516 102.333 40.036 102.638L38.6103 104.605C38.4687 104.804 38.2593 104.945 38.0214 105C37.7836 105.055 37.5337 105.021 37.3191 104.905L24.5313 97.517C24.4813 97.4895 24.4231 97.4808 24.3672 97.4923C24.3113 97.5039 24.2614 97.535 24.2263 97.5801L21.5607 101.379C21.397 101.614 21.3328 101.905 21.382 102.188C21.4318 102.485 21.362 102.789 21.188 103.035L20.7304 103.667C20.6087 103.834 20.4437 103.964 20.2532 104.044C20.0626 104.123 19.8539 104.149 19.6497 104.119L19.1665 104.052C19.0788 104.038 18.9887 104.049 18.9068 104.083C18.8248 104.118 18.7544 104.175 18.7037 104.248L18.4338 104.621C18.319 104.787 18.1626 104.921 17.9802 105.008C17.7794 105.116 17.5524 105.166 17.3248 105.152C17.0973 105.138 16.8783 105.06 16.6926 104.927L16.5469 104.822L16.5388 104.816ZM15.7255 105.956L15.8713 106.061C16.2605 106.338 16.7186 106.503 17.1951 106.536C17.6717 106.57 18.1484 106.472 18.5728 106.253C18.9277 106.079 19.2378 105.826 19.4787 105.514C19.9324 105.567 20.3921 105.496 20.8086 105.309C21.2251 105.121 21.5828 104.824 21.8434 104.448L22.3187 103.792C22.6808 103.274 22.8372 102.639 22.7573 102.011L24.7351 99.1959L36.6295 106.146C37.141 106.451 37.7492 106.551 38.3311 106.425C38.9131 106.298 39.4255 105.956 39.7647 105.467L41.1904 103.499C41.5924 102.925 41.7807 102.228 41.7228 101.53C41.6649 100.831 41.3643 100.175 40.8732 99.6754C37.6628 96.4473 34.2804 93.3949 30.7408 90.5315L35.4281 82.9371L38.331 83.9413C38.7566 84.0885 39.2148 84.1145 39.6543 84.0165C40.0938 83.9185 40.4975 83.7002 40.8202 83.3861L41.7831 82.4661C42.0556 82.2065 42.2707 81.8929 42.4148 81.5453C42.5589 81.1978 42.6288 80.8239 42.6199 80.4478C42.6111 80.0716 42.5237 79.7015 42.3634 79.3611C42.2031 79.0207 41.9735 78.7175 41.6892 78.4711L40.2201 77.2092C39.4573 76.5577 38.7276 75.9796 37.9583 75.4223C36.8937 74.6641 35.7876 73.9658 34.6453 73.3307L32.8966 72.3354C32.5645 72.1533 32.1977 72.043 31.8201 72.0119C31.4425 71.9808 31.0627 72.0295 30.7051 72.1548C30.3476 72.2801 30.0205 72.4793 29.745 72.7393C29.4695 72.9994 29.2518 73.3145 29.1061 73.6642L28.6134 74.8385C28.4333 75.2471 28.3688 75.6973 28.4269 76.1401C28.485 76.5828 28.6635 77.0011 28.9429 77.3494L30.9029 79.7574L25.3537 86.752C21.4666 84.4014 17.4557 82.2621 13.3382 80.3435C12.6989 80.0535 11.9782 79.9969 11.3015 80.1835C10.6247 80.3701 10.0349 80.7882 9.63457 81.3648L8.20888 83.3326C7.86228 83.8178 7.71311 84.4167 7.79159 85.0078C7.87006 85.5989 8.17031 86.1381 8.6315 86.5161L19.1985 95.3328L17.2208 98.1478C16.6034 98.2865 16.0593 98.649 15.6933 99.1652L15.2298 99.8049C14.9657 100.178 14.8079 100.616 14.7735 101.072C14.7391 101.527 14.8294 101.984 15.0346 102.393C14.8216 102.724 14.6881 103.101 14.6447 103.493C14.5846 103.961 14.6527 104.437 14.8416 104.87C15.0305 105.302 15.3331 105.676 15.7174 105.95L15.7255 105.956Z" fill="#0A0A0A"/>
<path d="M16.0165 103.696L17.9114 105.069C17.7139 105.155 17.4971 105.187 17.2831 105.162C17.069 105.138 16.8654 105.056 16.6929 104.927L16.5634 104.833C16.3772 104.712 16.2279 104.541 16.1315 104.341C16.0351 104.141 15.9954 103.918 16.0165 103.696Z" fill="#0A0A0A"/>
</g>
<defs>
<clipPath id="clip0">
<rect width="38.6" height="37.74" fill="white" transform="translate(31.2578 117.208) rotate(-144.076)"/>
</clipPath>
</defs>
</svg>
