<svg width="917" height="335" viewBox="0 0 917 335" fill="none" xmlns="http://www.w3.org/2000/svg">
<rect width="917" height="335" rx="22" fill="#FCFCFC"/>
<path d="M336.5 69L340.725 51.875H346.25L350.5 69H347.7L346.775 65.325H340.2L339.275 69H336.5ZM342.875 54.2L340.75 62.875H346.225L344.125 54.2H342.875ZM363.346 70.7C363.346 73.4333 361.371 74.8 357.421 74.8C355.521 74.8 354.112 74.5417 353.196 74.025C352.279 73.5083 351.821 72.5667 351.821 71.2C351.821 70.5833 351.971 70.05 352.271 69.6C352.571 69.1667 353.054 68.6917 353.721 68.175C353.171 67.8083 352.896 67.2 352.896 66.35C352.896 66.0167 353.121 65.475 353.571 64.725L353.796 64.35C352.596 63.6333 351.996 62.3833 351.996 60.6C351.996 59.1 352.446 58 353.346 57.3C354.246 56.6 355.462 56.25 356.996 56.25C357.729 56.25 358.454 56.3333 359.171 56.5L359.546 56.575L363.421 56.475V58.675L361.346 58.55C361.796 59.1333 362.021 59.8167 362.021 60.6C362.021 62.2333 361.604 63.3667 360.771 64C359.954 64.6167 358.671 64.925 356.921 64.925C356.487 64.925 356.121 64.8917 355.821 64.825C355.587 65.3917 355.471 65.8333 355.471 66.15C355.471 66.45 355.621 66.6583 355.921 66.775C356.237 66.8917 356.987 66.9583 358.171 66.975C360.154 66.9917 361.512 67.2583 362.246 67.775C362.979 68.2917 363.346 69.2667 363.346 70.7ZM354.496 70.95C354.496 71.5333 354.729 71.95 355.196 72.2C355.662 72.45 356.462 72.575 357.596 72.575C359.612 72.575 360.621 72 360.621 70.85C360.621 70.2 360.437 69.7833 360.071 69.6C359.721 69.4333 359.012 69.3417 357.946 69.325L355.496 69.175C355.129 69.475 354.871 69.75 354.721 70C354.571 70.2667 354.496 70.5833 354.496 70.95ZM354.696 60.6C354.696 61.3667 354.879 61.9333 355.246 62.3C355.612 62.65 356.204 62.825 357.021 62.825C357.837 62.825 358.421 62.65 358.771 62.3C359.137 61.9333 359.321 61.3667 359.321 60.6C359.321 59.8333 359.137 59.275 358.771 58.925C358.404 58.5583 357.812 58.375 356.996 58.375C355.462 58.375 354.696 59.1167 354.696 60.6ZM374.455 66.75L375.155 66.675L375.205 68.7C373.305 69.0833 371.622 69.275 370.155 69.275C368.305 69.275 366.972 68.7667 366.155 67.75C365.355 66.7333 364.955 65.1083 364.955 62.875C364.955 58.4417 366.764 56.225 370.38 56.225C373.88 56.225 375.63 58.1333 375.63 61.95L375.455 63.9H367.705C367.722 64.9333 367.947 65.6917 368.38 66.175C368.814 66.6583 369.622 66.9 370.805 66.9C371.989 66.9 373.205 66.85 374.455 66.75ZM372.955 61.8C372.955 60.5667 372.755 59.7083 372.355 59.225C371.972 58.725 371.314 58.475 370.38 58.475C369.447 58.475 368.764 58.7333 368.33 59.25C367.914 59.7667 367.697 60.6167 367.68 61.8H372.955Z" fill="#3F3939"/>
<path d="M334.316 107H323.766V105.375L328.591 100.3C329.424 99.4333 330.032 98.775 330.416 98.325C330.799 97.875 331.141 97.3417 331.441 96.725C331.757 96.1083 331.916 95.4917 331.916 94.875C331.916 93.8083 331.624 93.0583 331.041 92.625C330.457 92.1917 329.549 91.975 328.316 91.975C327.232 91.975 326.024 92.1167 324.691 92.4L324.041 92.525L323.891 90.925C325.474 90.475 327.107 90.25 328.791 90.25C330.474 90.25 331.741 90.6083 332.591 91.325C333.457 92.025 333.891 93.1417 333.891 94.675C333.891 95.8417 333.632 96.8583 333.116 97.725C332.599 98.5917 331.707 99.6333 330.441 100.85L326.041 105.325H334.316V107ZM343.005 90.225C344.371 90.225 345.48 90.4833 346.33 91C348.13 92.0667 349.03 94.7333 349.03 99C349.03 102.017 348.53 104.15 347.53 105.4C346.53 106.633 345.03 107.25 343.03 107.25C341.03 107.25 339.521 106.642 338.505 105.425C337.505 104.192 337.005 102.008 337.005 98.875C337.005 95.725 337.496 93.5 338.48 92.2C339.48 90.8833 340.988 90.225 343.005 90.225ZM343.03 91.95C342.08 91.95 341.33 92.15 340.78 92.55C339.596 93.3667 339.005 95.525 339.005 99.025C339.005 101.492 339.33 103.2 339.98 104.15C340.63 105.083 341.646 105.55 343.03 105.55C344.413 105.55 345.43 105.075 346.08 104.125C346.73 103.175 347.055 101.417 347.055 98.85C347.055 96.2667 346.738 94.475 346.105 93.475C345.488 92.4583 344.463 91.95 343.03 91.95ZM351.719 101V99.25H359.294V101H351.719ZM373.256 107H362.706V105.375L367.531 100.3C368.364 99.4333 368.973 98.775 369.356 98.325C369.739 97.875 370.081 97.3417 370.381 96.725C370.698 96.1083 370.856 95.4917 370.856 94.875C370.856 93.8083 370.564 93.0583 369.981 92.625C369.398 92.1917 368.489 91.975 367.256 91.975C366.173 91.975 364.964 92.1167 363.631 92.4L362.981 92.525L362.831 90.925C364.414 90.475 366.048 90.25 367.731 90.25C369.414 90.25 370.681 90.6083 371.531 91.325C372.398 92.025 372.831 93.1417 372.831 94.675C372.831 95.8417 372.573 96.8583 372.056 97.725C371.539 98.5917 370.648 99.6333 369.381 100.85L364.981 105.325H373.256V107ZM387.245 107H376.695V105.375L381.52 100.3C382.354 99.4333 382.962 98.775 383.345 98.325C383.729 97.875 384.07 97.3417 384.37 96.725C384.687 96.1083 384.845 95.4917 384.845 94.875C384.845 93.8083 384.554 93.0583 383.97 92.625C383.387 92.1917 382.479 91.975 381.245 91.975C380.162 91.975 378.954 92.1167 377.62 92.4L376.97 92.525L376.82 90.925C378.404 90.475 380.037 90.25 381.72 90.25C383.404 90.25 384.67 90.6083 385.52 91.325C386.387 92.025 386.82 93.1417 386.82 94.675C386.82 95.8417 386.562 96.8583 386.045 97.725C385.529 98.5917 384.637 99.6333 383.37 100.85L378.97 105.325H387.245V107Z" fill="#3F3939"/>
<path d="M467.898 69H458.298V51.875H461.073V66.525H467.898V69ZM478.738 66.75L479.438 66.675L479.488 68.7C477.588 69.0833 475.905 69.275 474.438 69.275C472.588 69.275 471.255 68.7667 470.438 67.75C469.638 66.7333 469.238 65.1083 469.238 62.875C469.238 58.4417 471.046 56.225 474.663 56.225C478.163 56.225 479.913 58.1333 479.913 61.95L479.738 63.9H471.988C472.005 64.9333 472.23 65.6917 472.663 66.175C473.096 66.6583 473.905 66.9 475.088 66.9C476.271 66.9 477.488 66.85 478.738 66.75ZM477.238 61.8C477.238 60.5667 477.038 59.7083 476.638 59.225C476.255 58.725 475.596 58.475 474.663 58.475C473.73 58.475 473.046 58.7333 472.613 59.25C472.196 59.7667 471.98 60.6167 471.963 61.8H477.238ZM481.187 56.5H484.037L486.437 66.675H487.237L489.737 56.5H492.512L489.262 69H484.412L481.187 56.5ZM503.347 66.75L504.047 66.675L504.097 68.7C502.197 69.0833 500.514 69.275 499.047 69.275C497.197 69.275 495.864 68.7667 495.047 67.75C494.247 66.7333 493.847 65.1083 493.847 62.875C493.847 58.4417 495.656 56.225 499.272 56.225C502.772 56.225 504.522 58.1333 504.522 61.95L504.347 63.9H496.597C496.614 64.9333 496.839 65.6917 497.272 66.175C497.706 66.6583 498.514 66.9 499.697 66.9C500.881 66.9 502.097 66.85 503.347 66.75ZM501.847 61.8C501.847 60.5667 501.647 59.7083 501.247 59.225C500.864 58.725 500.206 58.475 499.272 58.475C498.339 58.475 497.656 58.7333 497.222 59.25C496.806 59.7667 496.589 60.6167 496.572 61.8H501.847ZM507.293 69V51.3H510.018V69H507.293ZM519.634 57.85C520.501 56.7667 521.934 56.225 523.934 56.225C525.934 56.225 527.359 56.7667 528.209 57.85C529.076 58.9333 529.509 60.5583 529.509 62.725C529.509 64.8917 529.092 66.525 528.259 67.625C527.426 68.725 525.984 69.275 523.934 69.275C521.884 69.275 520.442 68.725 519.609 67.625C518.776 66.525 518.359 64.8917 518.359 62.725C518.359 60.5583 518.784 58.9333 519.634 57.85ZM521.684 65.975C522.067 66.6417 522.817 66.975 523.934 66.975C525.051 66.975 525.801 66.6417 526.184 65.975C526.567 65.3083 526.759 64.2167 526.759 62.7C526.759 61.1833 526.551 60.1083 526.134 59.475C525.734 58.8417 525.001 58.525 523.934 58.525C522.867 58.525 522.126 58.8417 521.709 59.475C521.309 60.1083 521.109 61.1833 521.109 62.7C521.109 64.2167 521.301 65.3083 521.684 65.975ZM535.491 58.825V69H532.791V58.825H531.341V56.5H532.791V55.7C532.791 53.9167 533.049 52.6917 533.566 52.025C534.083 51.3583 534.999 51.025 536.316 51.025L539.016 51.275L538.991 53.5C538.174 53.4667 537.491 53.45 536.941 53.45C536.408 53.45 536.033 53.6167 535.816 53.95C535.599 54.2667 535.491 54.8583 535.491 55.725V56.5H538.791V58.825H535.491ZM546.677 69V51.875H557.477V54.3H549.452V59.15H555.977V61.55H549.452V66.55H557.477V69H546.677ZM558.97 56.5H561.87L564.32 60.825L566.795 56.5H569.695L565.97 62.65L569.695 69H566.795L564.32 64.725L561.87 69H558.97L562.595 62.725L558.97 56.5ZM571.767 74.375V56.5H574.467V57.275C575.617 56.575 576.692 56.225 577.692 56.225C579.342 56.225 580.55 56.7333 581.317 57.75C582.083 58.75 582.467 60.4417 582.467 62.825C582.467 65.1917 582.025 66.8583 581.142 67.825C580.275 68.7917 578.85 69.275 576.867 69.275C576.183 69.275 575.392 69.2 574.492 69.05V74.375H571.767ZM577.217 58.65C576.433 58.65 575.65 58.825 574.867 59.175L574.492 59.35V66.725C575.158 66.8583 575.892 66.925 576.692 66.925C577.825 66.925 578.608 66.6 579.042 65.95C579.475 65.3 579.692 64.1917 579.692 62.625C579.692 59.975 578.867 58.65 577.217 58.65ZM594.094 66.75L594.794 66.675L594.844 68.7C592.944 69.0833 591.261 69.275 589.794 69.275C587.944 69.275 586.611 68.7667 585.794 67.75C584.994 66.7333 584.594 65.1083 584.594 62.875C584.594 58.4417 586.403 56.225 590.019 56.225C593.519 56.225 595.269 58.1333 595.269 61.95L595.094 63.9H587.344C587.361 64.9333 587.586 65.6917 588.019 66.175C588.453 66.6583 589.261 66.9 590.444 66.9C591.628 66.9 592.844 66.85 594.094 66.75ZM592.594 61.8C592.594 60.5667 592.394 59.7083 591.994 59.225C591.611 58.725 590.953 58.475 590.019 58.475C589.086 58.475 588.403 58.7333 587.969 59.25C587.553 59.7667 587.336 60.6167 587.319 61.8H592.594ZM597.89 69V56.5H600.59V58C602.006 57.0833 603.423 56.4917 604.84 56.225V58.95C603.406 59.2333 602.181 59.6 601.165 60.05L600.615 60.275V69H597.89ZM613.648 58.825H610.198V64.325C610.198 65.3417 610.273 66.0167 610.423 66.35C610.573 66.6833 610.956 66.85 611.573 66.85L613.623 66.775L613.748 68.95C612.631 69.1667 611.781 69.275 611.198 69.275C609.781 69.275 608.806 68.95 608.273 68.3C607.756 67.65 607.498 66.425 607.498 64.625V58.825H605.898V56.5H607.498V52.875H610.198V56.5H613.648V58.825ZM615.883 69V56.5H618.608V69H615.883ZM615.883 54.375V51.5H618.608V54.375H615.883ZM630.588 59.075C628.622 58.8083 627.197 58.675 626.313 58.675C625.43 58.675 624.813 58.7833 624.463 59C624.13 59.2 623.963 59.525 623.963 59.975C623.963 60.425 624.147 60.7417 624.513 60.925C624.897 61.1083 625.78 61.325 627.163 61.575C628.563 61.8083 629.555 62.1833 630.138 62.7C630.722 63.2167 631.013 64.1333 631.013 65.45C631.013 66.7667 630.588 67.7333 629.738 68.35C628.905 68.9667 627.68 69.275 626.063 69.275C625.047 69.275 623.763 69.1333 622.213 68.85L621.438 68.725L621.538 66.45C623.538 66.7167 624.98 66.85 625.863 66.85C626.747 66.85 627.372 66.7417 627.738 66.525C628.122 66.3083 628.313 65.95 628.313 65.45C628.313 64.95 628.13 64.6083 627.763 64.425C627.413 64.225 626.555 64.0167 625.188 63.8C623.838 63.5667 622.847 63.2083 622.213 62.725C621.58 62.2417 621.263 61.3583 621.263 60.075C621.263 58.7917 621.697 57.8333 622.563 57.2C623.447 56.5667 624.572 56.25 625.938 56.25C627.005 56.25 628.313 56.3833 629.863 56.65L630.638 56.8L630.588 59.075ZM642.532 66.75L643.232 66.675L643.282 68.7C641.382 69.0833 639.699 69.275 638.232 69.275C636.382 69.275 635.049 68.7667 634.232 67.75C633.432 66.7333 633.032 65.1083 633.032 62.875C633.032 58.4417 634.84 56.225 638.457 56.225C641.957 56.225 643.707 58.1333 643.707 61.95L643.532 63.9H635.782C635.799 64.9333 636.024 65.6917 636.457 66.175C636.89 66.6583 637.699 66.9 638.882 66.9C640.065 66.9 641.282 66.85 642.532 66.75ZM641.032 61.8C641.032 60.5667 640.832 59.7083 640.432 59.225C640.049 58.725 639.39 58.475 638.457 58.475C637.524 58.475 636.84 58.7333 636.407 59.25C635.99 59.7667 635.774 60.6167 635.757 61.8H641.032Z" fill="#3F3939"/>
<path d="M539.046 107V99.175H530.246V107H528.321V89.7H530.246V97.45H539.046V89.7H540.946V107H539.046ZM544.866 107V94.5H546.741V107H544.866ZM544.866 91.675V89.5H546.741V91.675H544.866ZM555.16 112.875C553.16 112.875 551.76 112.6 550.96 112.05C550.176 111.517 549.785 110.533 549.785 109.1C549.785 108.417 549.935 107.858 550.235 107.425C550.535 107.008 551.043 106.533 551.76 106C551.293 105.683 551.06 105.108 551.06 104.275C551.06 103.992 551.268 103.467 551.685 102.7L551.91 102.3C550.593 101.7 549.935 100.442 549.935 98.525C549.935 95.675 551.493 94.25 554.61 94.25C555.41 94.25 556.151 94.3333 556.835 94.5L557.21 94.575L560.91 94.475V96.075L558.535 96.025C559.085 96.575 559.36 97.4083 559.36 98.525C559.36 100.092 558.968 101.192 558.185 101.825C557.418 102.442 556.201 102.75 554.535 102.75C554.085 102.75 553.676 102.717 553.31 102.65C553.01 103.383 552.86 103.858 552.86 104.075C552.86 104.592 553.018 104.917 553.335 105.05C553.651 105.167 554.61 105.225 556.21 105.225C557.81 105.225 558.96 105.475 559.66 105.975C560.36 106.475 560.71 107.45 560.71 108.9C560.71 111.55 558.86 112.875 555.16 112.875ZM551.635 108.95C551.635 109.833 551.876 110.442 552.36 110.775C552.86 111.125 553.768 111.3 555.085 111.3C556.418 111.3 557.368 111.117 557.935 110.75C558.518 110.383 558.81 109.767 558.81 108.9C558.81 108.05 558.601 107.5 558.185 107.25C557.768 107 556.951 106.875 555.735 106.875L553.035 106.75C552.485 107.15 552.11 107.5 551.91 107.8C551.726 108.1 551.635 108.483 551.635 108.95ZM551.81 98.525C551.81 99.5083 552.026 100.208 552.46 100.625C552.91 101.042 553.643 101.25 554.66 101.25C555.676 101.25 556.401 101.042 556.835 100.625C557.268 100.208 557.485 99.5083 557.485 98.525C557.485 97.525 557.268 96.8167 556.835 96.4C556.401 95.9833 555.676 95.775 554.66 95.775C553.643 95.775 552.91 95.9917 552.46 96.425C552.026 96.8417 551.81 97.5417 551.81 98.525ZM565.051 107H563.176V89.05H565.051V95.2C566.385 94.5667 567.668 94.25 568.901 94.25C570.568 94.25 571.685 94.7 572.251 95.6C572.835 96.5 573.126 98.1 573.126 100.4V107H571.251V100.45C571.251 98.7167 571.076 97.5333 570.726 96.9C570.393 96.25 569.676 95.925 568.576 95.925C567.526 95.925 566.51 96.1167 565.526 96.5L565.051 96.675V107Z" fill="#1FAB1D"/>
<path d="M66.6168 199.35V192.2H72.8668V199.35H66.6168ZM91.9 193.425C91.9 195.958 92.2333 197.783 92.9 198.9C93.5667 200 94.85 200.55 96.75 200.55C98.6667 200.55 99.95 200.008 100.6 198.925C101.267 197.842 101.6 196.025 101.6 193.475C101.6 190.925 101.258 189.067 100.575 187.9C99.8917 186.733 98.6083 186.15 96.725 186.15C94.8583 186.15 93.5833 186.733 92.9 187.9C92.2333 189.05 91.9 190.892 91.9 193.425ZM103.6 193.475C103.6 196.558 103.108 198.792 102.125 200.175C101.142 201.558 99.35 202.25 96.75 202.25C94.1667 202.25 92.3833 201.542 91.4 200.125C90.4167 198.708 89.925 196.483 89.925 193.45C89.925 190.4 90.425 188.142 91.425 186.675C92.425 185.192 94.2 184.45 96.75 184.45C99.3 184.45 101.075 185.183 102.075 186.65C103.092 188.117 103.6 190.392 103.6 193.475ZM105.629 189.5H107.629L110.554 200.375H111.479L114.504 189.5H116.429L112.904 202H109.154L105.629 189.5ZM127.12 200.45L127.845 200.375L127.895 201.85C125.995 202.117 124.37 202.25 123.02 202.25C121.22 202.25 119.945 201.733 119.195 200.7C118.445 199.65 118.07 198.025 118.07 195.825C118.07 191.442 119.812 189.25 123.295 189.25C124.979 189.25 126.237 189.725 127.07 190.675C127.904 191.608 128.32 193.083 128.32 195.1L128.22 196.525H119.97C119.97 197.908 120.22 198.933 120.72 199.6C121.22 200.267 122.087 200.6 123.32 200.6C124.57 200.6 125.837 200.55 127.12 200.45ZM126.445 195.025C126.445 193.492 126.195 192.408 125.695 191.775C125.212 191.142 124.412 190.825 123.295 190.825C122.195 190.825 121.362 191.158 120.795 191.825C120.245 192.492 119.962 193.558 119.945 195.025H126.445ZM131.242 202V189.5H133.092V191.2C134.542 190.2 136.067 189.542 137.667 189.225V191.125C136.967 191.258 136.234 191.467 135.467 191.75C134.717 192.033 134.142 192.283 133.742 192.5L133.117 192.825V202H131.242ZM143.81 190.925C141.993 190.925 141.085 191.558 141.085 192.825C141.085 193.408 141.293 193.825 141.71 194.075C142.127 194.308 143.077 194.558 144.56 194.825C146.043 195.075 147.093 195.433 147.71 195.9C148.327 196.367 148.635 197.242 148.635 198.525C148.635 199.808 148.218 200.75 147.385 201.35C146.568 201.95 145.368 202.25 143.785 202.25C142.752 202.25 141.535 202.133 140.135 201.9L139.385 201.775L139.485 200.15C141.385 200.433 142.818 200.575 143.785 200.575C144.752 200.575 145.485 200.425 145.985 200.125C146.502 199.808 146.76 199.292 146.76 198.575C146.76 197.842 146.543 197.35 146.11 197.1C145.677 196.833 144.727 196.583 143.26 196.35C141.793 196.117 140.752 195.775 140.135 195.325C139.518 194.875 139.21 194.042 139.21 192.825C139.21 191.608 139.635 190.708 140.485 190.125C141.352 189.542 142.427 189.25 143.71 189.25C144.727 189.25 146.002 189.367 147.535 189.6L148.235 189.725L148.185 191.325C146.335 191.058 144.877 190.925 143.81 190.925ZM160.006 200.45L160.731 200.375L160.781 201.85C158.881 202.117 157.256 202.25 155.906 202.25C154.106 202.25 152.831 201.733 152.081 200.7C151.331 199.65 150.956 198.025 150.956 195.825C150.956 191.442 152.698 189.25 156.181 189.25C157.864 189.25 159.123 189.725 159.956 190.675C160.789 191.608 161.206 193.083 161.206 195.1L161.106 196.525H152.856C152.856 197.908 153.106 198.933 153.606 199.6C154.106 200.267 154.973 200.6 156.206 200.6C157.456 200.6 158.723 200.55 160.006 200.45ZM159.331 195.025C159.331 193.492 159.081 192.408 158.581 191.775C158.098 191.142 157.298 190.825 156.181 190.825C155.081 190.825 154.248 191.158 153.681 191.825C153.131 192.492 152.848 193.558 152.831 195.025H159.331ZM172.628 200.45L173.353 200.375L173.403 201.85C171.503 202.117 169.878 202.25 168.528 202.25C166.728 202.25 165.453 201.733 164.703 200.7C163.953 199.65 163.578 198.025 163.578 195.825C163.578 191.442 165.32 189.25 168.803 189.25C170.486 189.25 171.745 189.725 172.578 190.675C173.411 191.608 173.828 193.083 173.828 195.1L173.728 196.525H165.478C165.478 197.908 165.728 198.933 166.228 199.6C166.728 200.267 167.595 200.6 168.828 200.6C170.078 200.6 171.345 200.55 172.628 200.45ZM171.953 195.025C171.953 193.492 171.703 192.408 171.203 191.775C170.72 191.142 169.92 190.825 168.803 190.825C167.703 190.825 166.87 191.158 166.303 191.825C165.753 192.492 165.47 193.558 165.453 195.025H171.953ZM180.675 190.925C178.859 190.925 177.95 191.558 177.95 192.825C177.95 193.408 178.159 193.825 178.575 194.075C178.992 194.308 179.942 194.558 181.425 194.825C182.909 195.075 183.959 195.433 184.575 195.9C185.192 196.367 185.5 197.242 185.5 198.525C185.5 199.808 185.084 200.75 184.25 201.35C183.434 201.95 182.234 202.25 180.65 202.25C179.617 202.25 178.4 202.133 177 201.9L176.25 201.775L176.35 200.15C178.25 200.433 179.684 200.575 180.65 200.575C181.617 200.575 182.35 200.425 182.85 200.125C183.367 199.808 183.625 199.292 183.625 198.575C183.625 197.842 183.409 197.35 182.975 197.1C182.542 196.833 181.592 196.583 180.125 196.35C178.659 196.117 177.617 195.775 177 195.325C176.384 194.875 176.075 194.042 176.075 192.825C176.075 191.608 176.5 190.708 177.35 190.125C178.217 189.542 179.292 189.25 180.575 189.25C181.592 189.25 182.867 189.367 184.4 189.6L185.1 189.725L185.05 191.325C183.2 191.058 181.742 190.925 180.675 190.925ZM200.339 191.125H196.364V197.1C196.364 198.533 196.464 199.475 196.664 199.925C196.881 200.375 197.381 200.6 198.164 200.6L200.389 200.45L200.514 202C199.398 202.183 198.548 202.275 197.964 202.275C196.664 202.275 195.764 201.958 195.264 201.325C194.764 200.692 194.514 199.483 194.514 197.7V191.125H192.739V189.5H194.514V185.675H196.364V189.5H200.339V191.125ZM204.504 202H202.629V184.05H204.504V190.2C205.837 189.567 207.121 189.25 208.354 189.25C210.021 189.25 211.137 189.7 211.704 190.6C212.287 191.5 212.579 193.1 212.579 195.4V202H210.704V195.45C210.704 193.717 210.529 192.533 210.179 191.9C209.846 191.25 209.129 190.925 208.029 190.925C206.979 190.925 205.962 191.117 204.979 191.5L204.504 191.675V202ZM224.557 200.45L225.282 200.375L225.332 201.85C223.432 202.117 221.807 202.25 220.457 202.25C218.657 202.25 217.382 201.733 216.632 200.7C215.882 199.65 215.507 198.025 215.507 195.825C215.507 191.442 217.249 189.25 220.732 189.25C222.415 189.25 223.674 189.725 224.507 190.675C225.34 191.608 225.757 193.083 225.757 195.1L225.657 196.525H217.407C217.407 197.908 217.657 198.933 218.157 199.6C218.657 200.267 219.524 200.6 220.757 200.6C222.007 200.6 223.274 200.55 224.557 200.45ZM223.882 195.025C223.882 193.492 223.632 192.408 223.132 191.775C222.649 191.142 221.849 190.825 220.732 190.825C219.632 190.825 218.799 191.158 218.232 191.825C217.682 192.492 217.399 193.558 217.382 195.025H223.882ZM233.147 189.5H235.022L237.547 200.375H237.947L240.922 189.75H242.872L245.847 200.375H246.272L248.772 189.5H250.647L247.672 202H244.547L241.897 192.225L239.247 202H236.122L233.147 189.5ZM252.543 195.725C252.543 193.442 252.951 191.792 253.768 190.775C254.585 189.758 255.96 189.25 257.893 189.25C259.843 189.25 261.218 189.758 262.018 190.775C262.835 191.792 263.243 193.442 263.243 195.725C263.243 198.008 262.86 199.667 262.093 200.7C261.326 201.733 259.926 202.25 257.893 202.25C255.86 202.25 254.46 201.733 253.693 200.7C252.926 199.667 252.543 198.008 252.543 195.725ZM254.468 195.7C254.468 197.517 254.685 198.792 255.118 199.525C255.568 200.258 256.493 200.625 257.893 200.625C259.31 200.625 260.235 200.267 260.668 199.55C261.101 198.817 261.318 197.533 261.318 195.7C261.318 193.867 261.076 192.608 260.593 191.925C260.11 191.225 259.21 190.875 257.893 190.875C256.593 190.875 255.693 191.225 255.193 191.925C254.71 192.608 254.468 193.867 254.468 195.7ZM266.301 202V189.5H268.151V191.2C269.601 190.2 271.126 189.542 272.726 189.225V191.125C272.026 191.258 271.293 191.467 270.526 191.75C269.776 192.033 269.201 192.283 268.801 192.5L268.176 192.825V202H266.301ZM276.819 202H274.944V184.05H276.819V194.65L278.769 194.55L282.344 189.5H284.469L280.394 195.25L284.644 202H282.519L278.794 196.2L276.819 196.275V202ZM291.85 195.725C291.85 193.442 292.258 191.792 293.075 190.775C293.891 189.758 295.266 189.25 297.2 189.25C299.15 189.25 300.525 189.758 301.325 190.775C302.141 191.792 302.55 193.442 302.55 195.725C302.55 198.008 302.166 199.667 301.4 200.7C300.633 201.733 299.233 202.25 297.2 202.25C295.166 202.25 293.766 201.733 293 200.7C292.233 199.667 291.85 198.008 291.85 195.725ZM293.775 195.7C293.775 197.517 293.991 198.792 294.425 199.525C294.875 200.258 295.8 200.625 297.2 200.625C298.616 200.625 299.541 200.267 299.975 199.55C300.408 198.817 300.625 197.533 300.625 195.7C300.625 193.867 300.383 192.608 299.9 191.925C299.416 191.225 298.516 190.875 297.2 190.875C295.9 190.875 295 191.225 294.5 191.925C294.016 192.608 293.775 193.867 293.775 195.7ZM308.008 191.125V202H306.133V191.125H304.558V189.5H306.133V188.375C306.133 186.608 306.383 185.408 306.883 184.775C307.383 184.125 308.258 183.8 309.508 183.8L312.033 183.975L312.008 185.525C311.074 185.492 310.299 185.475 309.683 185.475C309.083 185.475 308.649 185.675 308.383 186.075C308.133 186.475 308.008 187.25 308.008 188.4V189.5H311.633V191.125H308.008ZM328.202 193.275V199.675C328.252 200.292 328.735 200.658 329.652 200.775L329.577 202.25C328.26 202.25 327.269 201.917 326.602 201.25C325.102 201.917 323.602 202.25 322.102 202.25C320.952 202.25 320.077 201.925 319.477 201.275C318.877 200.625 318.577 199.692 318.577 198.475C318.577 197.258 318.885 196.367 319.502 195.8C320.119 195.217 321.085 194.858 322.402 194.725L326.327 194.35V193.275C326.327 192.425 326.144 191.817 325.777 191.45C325.41 191.083 324.91 190.9 324.277 190.9C322.944 190.9 321.56 190.983 320.127 191.15L319.352 191.225L319.277 189.8C321.11 189.433 322.735 189.25 324.152 189.25C325.569 189.25 326.594 189.575 327.227 190.225C327.877 190.875 328.202 191.892 328.202 193.275ZM320.502 198.375C320.502 199.908 321.135 200.675 322.402 200.675C323.535 200.675 324.652 200.483 325.752 200.1L326.327 199.9V195.775L322.627 196.125C321.877 196.192 321.335 196.408 321.002 196.775C320.669 197.142 320.502 197.675 320.502 198.375ZM332.052 202V184.05H333.927V202H332.052ZM337.838 202V184.05H339.713V202H337.838ZM355.442 191.125H351.467V197.1C351.467 198.533 351.567 199.475 351.767 199.925C351.984 200.375 352.484 200.6 353.267 200.6L355.492 200.45L355.617 202C354.5 202.183 353.65 202.275 353.067 202.275C351.767 202.275 350.867 201.958 350.367 201.325C349.867 200.692 349.617 199.483 349.617 197.7V191.125H347.842V189.5H349.617V185.675H351.467V189.5H355.442V191.125ZM359.607 202H357.732V184.05H359.607V190.2C360.94 189.567 362.223 189.25 363.457 189.25C365.123 189.25 366.24 189.7 366.807 190.6C367.39 191.5 367.682 193.1 367.682 195.4V202H365.807V195.45C365.807 193.717 365.632 192.533 365.282 191.9C364.948 191.25 364.232 190.925 363.132 190.925C362.082 190.925 361.065 191.117 360.082 191.5L359.607 191.675V202ZM379.659 200.45L380.384 200.375L380.434 201.85C378.534 202.117 376.909 202.25 375.559 202.25C373.759 202.25 372.484 201.733 371.734 200.7C370.984 199.65 370.609 198.025 370.609 195.825C370.609 191.442 372.351 189.25 375.834 189.25C377.518 189.25 378.776 189.725 379.609 190.675C380.443 191.608 380.859 193.083 380.859 195.1L380.759 196.525H372.509C372.509 197.908 372.759 198.933 373.259 199.6C373.759 200.267 374.626 200.6 375.859 200.6C377.109 200.6 378.376 200.55 379.659 200.45ZM378.984 195.025C378.984 193.492 378.734 192.408 378.234 191.775C377.751 191.142 376.951 190.825 375.834 190.825C374.734 190.825 373.901 191.158 373.334 191.825C372.784 192.492 372.501 193.558 372.484 195.025H378.984ZM393.95 189.25C394.5 189.25 395.433 189.35 396.75 189.55L397.35 189.625L397.275 191.15C395.941 191 394.958 190.925 394.325 190.925C392.908 190.925 391.941 191.267 391.425 191.95C390.925 192.617 390.675 193.867 390.675 195.7C390.675 197.517 390.908 198.783 391.375 199.5C391.858 200.217 392.85 200.575 394.35 200.575L397.3 200.35L397.375 201.9C395.825 202.133 394.666 202.25 393.9 202.25C391.95 202.25 390.6 201.75 389.85 200.75C389.116 199.75 388.75 198.067 388.75 195.7C388.75 193.317 389.15 191.65 389.95 190.7C390.75 189.733 392.083 189.25 393.95 189.25ZM399.467 195.725C399.467 193.442 399.875 191.792 400.692 190.775C401.508 189.758 402.883 189.25 404.817 189.25C406.767 189.25 408.142 189.758 408.942 190.775C409.758 191.792 410.167 193.442 410.167 195.725C410.167 198.008 409.783 199.667 409.017 200.7C408.25 201.733 406.85 202.25 404.817 202.25C402.783 202.25 401.383 201.733 400.617 200.7C399.85 199.667 399.467 198.008 399.467 195.725ZM401.392 195.7C401.392 197.517 401.608 198.792 402.042 199.525C402.492 200.258 403.417 200.625 404.817 200.625C406.233 200.625 407.158 200.267 407.592 199.55C408.025 198.817 408.242 197.533 408.242 195.7C408.242 193.867 408 192.608 407.517 191.925C407.033 191.225 406.133 190.875 404.817 190.875C403.517 190.875 402.617 191.225 402.117 191.925C401.633 192.608 401.392 193.867 401.392 195.7ZM412.675 195.725C412.675 193.442 413.083 191.792 413.9 190.775C414.716 189.758 416.091 189.25 418.025 189.25C419.975 189.25 421.35 189.758 422.15 190.775C422.966 191.792 423.375 193.442 423.375 195.725C423.375 198.008 422.991 199.667 422.225 200.7C421.458 201.733 420.058 202.25 418.025 202.25C415.991 202.25 414.591 201.733 413.825 200.7C413.058 199.667 412.675 198.008 412.675 195.725ZM414.6 195.7C414.6 197.517 414.816 198.792 415.25 199.525C415.7 200.258 416.625 200.625 418.025 200.625C419.441 200.625 420.366 200.267 420.8 199.55C421.233 198.817 421.45 197.533 421.45 195.7C421.45 193.867 421.208 192.608 420.725 191.925C420.241 191.225 419.341 190.875 418.025 190.875C416.725 190.875 415.825 191.225 415.325 191.925C414.841 192.608 414.6 193.867 414.6 195.7ZM426.433 202V189.5H428.283V191.2C429.733 190.2 431.258 189.542 432.858 189.225V191.125C432.158 191.258 431.424 191.467 430.658 191.75C429.908 192.033 429.333 192.283 428.933 192.5L428.308 192.825V202H426.433ZM444.358 184.05V202H442.508V201.15C441.225 201.883 439.958 202.25 438.708 202.25C438.041 202.25 437.458 202.167 436.958 202C436.458 201.833 435.991 201.533 435.558 201.1C434.658 200.2 434.208 198.542 434.208 196.125C434.208 193.692 434.608 191.942 435.408 190.875C436.225 189.792 437.566 189.25 439.433 189.25C440.4 189.25 441.425 189.358 442.508 189.575V184.05H444.358ZM437.008 199.75C437.275 200.067 437.558 200.283 437.858 200.4C438.158 200.517 438.541 200.575 439.008 200.575C439.491 200.575 440.025 200.5 440.608 200.35C441.208 200.183 441.675 200.025 442.008 199.875L442.508 199.65V191.175C441.441 190.975 440.45 190.875 439.533 190.875C438.266 190.875 437.383 191.283 436.883 192.1C436.383 192.9 436.133 194.15 436.133 195.85C436.133 197.783 436.425 199.083 437.008 199.75ZM447.99 202V189.5H449.865V202H447.99ZM447.99 186.675V184.5H449.865V186.675H447.99ZM455.334 202H453.459V189.5H455.309V190.375C456.659 189.625 457.951 189.25 459.184 189.25C460.851 189.25 461.968 189.7 462.534 190.6C463.118 191.5 463.409 193.1 463.409 195.4V202H461.559V195.45C461.559 193.717 461.384 192.533 461.034 191.9C460.701 191.25 459.976 190.925 458.859 190.925C458.326 190.925 457.759 191.008 457.159 191.175C456.576 191.325 456.126 191.475 455.809 191.625L455.334 191.85V202ZM475.712 193.275V199.675C475.762 200.292 476.245 200.658 477.162 200.775L477.087 202.25C475.77 202.25 474.779 201.917 474.112 201.25C472.612 201.917 471.112 202.25 469.612 202.25C468.462 202.25 467.587 201.925 466.987 201.275C466.387 200.625 466.087 199.692 466.087 198.475C466.087 197.258 466.395 196.367 467.012 195.8C467.629 195.217 468.595 194.858 469.912 194.725L473.837 194.35V193.275C473.837 192.425 473.654 191.817 473.287 191.45C472.92 191.083 472.42 190.9 471.787 190.9C470.454 190.9 469.07 190.983 467.637 191.15L466.862 191.225L466.787 189.8C468.62 189.433 470.245 189.25 471.662 189.25C473.079 189.25 474.104 189.575 474.737 190.225C475.387 190.875 475.712 191.892 475.712 193.275ZM468.012 198.375C468.012 199.908 468.645 200.675 469.912 200.675C471.045 200.675 472.162 200.483 473.262 200.1L473.837 199.9V195.775L470.137 196.125C469.387 196.192 468.845 196.408 468.512 196.775C468.179 197.142 468.012 197.675 468.012 198.375ZM485.886 191.125H481.911V197.1C481.911 198.533 482.011 199.475 482.211 199.925C482.428 200.375 482.928 200.6 483.711 200.6L485.936 200.45L486.061 202C484.945 202.183 484.095 202.275 483.511 202.275C482.211 202.275 481.311 201.958 480.811 201.325C480.311 200.692 480.061 199.483 480.061 197.7V191.125H478.286V189.5H480.061V185.675H481.911V189.5H485.886V191.125ZM487.626 195.725C487.626 193.442 488.034 191.792 488.851 190.775C489.668 189.758 491.043 189.25 492.976 189.25C494.926 189.25 496.301 189.758 497.101 190.775C497.918 191.792 498.326 193.442 498.326 195.725C498.326 198.008 497.943 199.667 497.176 200.7C496.409 201.733 495.009 202.25 492.976 202.25C490.943 202.25 489.543 201.733 488.776 200.7C488.009 199.667 487.626 198.008 487.626 195.725ZM489.551 195.7C489.551 197.517 489.768 198.792 490.201 199.525C490.651 200.258 491.576 200.625 492.976 200.625C494.393 200.625 495.318 200.267 495.751 199.55C496.184 198.817 496.401 197.533 496.401 195.7C496.401 193.867 496.159 192.608 495.676 191.925C495.193 191.225 494.293 190.875 492.976 190.875C491.676 190.875 490.776 191.225 490.276 191.925C489.793 192.608 489.551 193.867 489.551 195.7ZM501.384 202V189.5H503.234V191.2C504.684 190.2 506.209 189.542 507.809 189.225V191.125C507.109 191.258 506.376 191.467 505.609 191.75C504.859 192.033 504.284 192.283 503.884 192.5L503.259 192.825V202H501.384ZM513.952 190.925C512.135 190.925 511.227 191.558 511.227 192.825C511.227 193.408 511.435 193.825 511.852 194.075C512.268 194.308 513.218 194.558 514.702 194.825C516.185 195.075 517.235 195.433 517.852 195.9C518.468 196.367 518.777 197.242 518.777 198.525C518.777 199.808 518.36 200.75 517.527 201.35C516.71 201.95 515.51 202.25 513.927 202.25C512.893 202.25 511.677 202.133 510.277 201.9L509.527 201.775L509.627 200.15C511.527 200.433 512.96 200.575 513.927 200.575C514.893 200.575 515.627 200.425 516.127 200.125C516.643 199.808 516.902 199.292 516.902 198.575C516.902 197.842 516.685 197.35 516.252 197.1C515.818 196.833 514.868 196.583 513.402 196.35C511.935 196.117 510.893 195.775 510.277 195.325C509.66 194.875 509.352 194.042 509.352 192.825C509.352 191.608 509.777 190.708 510.627 190.125C511.493 189.542 512.568 189.25 513.852 189.25C514.868 189.25 516.143 189.367 517.677 189.6L518.377 189.725L518.327 191.325C516.477 191.058 515.018 190.925 513.952 190.925ZM521.523 202V199.15H523.573V202H521.523ZM66.6168 237.35V230.2H72.8668V237.35H66.6168ZM90.625 240V222.7H94.1L99 237.325L103.9 222.7H107.375V240H105.45V224.75H105.1L100.075 239.375H97.925L92.9 224.75H92.55V240H90.625ZM120.121 231.275V237.675C120.171 238.292 120.654 238.658 121.571 238.775L121.496 240.25C120.179 240.25 119.188 239.917 118.521 239.25C117.021 239.917 115.521 240.25 114.021 240.25C112.871 240.25 111.996 239.925 111.396 239.275C110.796 238.625 110.496 237.692 110.496 236.475C110.496 235.258 110.804 234.367 111.421 233.8C112.038 233.217 113.004 232.858 114.321 232.725L118.246 232.35V231.275C118.246 230.425 118.063 229.817 117.696 229.45C117.329 229.083 116.829 228.9 116.196 228.9C114.863 228.9 113.479 228.983 112.046 229.15L111.271 229.225L111.196 227.8C113.029 227.433 114.654 227.25 116.071 227.25C117.488 227.25 118.513 227.575 119.146 228.225C119.796 228.875 120.121 229.892 120.121 231.275ZM112.421 236.375C112.421 237.908 113.054 238.675 114.321 238.675C115.454 238.675 116.571 238.483 117.671 238.1L118.246 237.9V233.775L114.546 234.125C113.796 234.192 113.254 234.408 112.921 234.775C112.588 235.142 112.421 235.675 112.421 236.375ZM123.821 240V227.5H125.696V240H123.821ZM123.821 224.675V222.5H125.696V224.675H123.821ZM131.164 240H129.289V227.5H131.139V228.375C132.489 227.625 133.781 227.25 135.014 227.25C136.681 227.25 137.798 227.7 138.364 228.6C138.948 229.5 139.239 231.1 139.239 233.4V240H137.389V233.45C137.389 231.717 137.214 230.533 136.864 229.9C136.531 229.25 135.806 228.925 134.689 228.925C134.156 228.925 133.589 229.008 132.989 229.175C132.406 229.325 131.956 229.475 131.639 229.625L131.164 229.85V240ZM149.119 229.125H145.144V235.1C145.144 236.533 145.244 237.475 145.444 237.925C145.66 238.375 146.16 238.6 146.944 238.6L149.169 238.45L149.294 240C148.177 240.183 147.327 240.275 146.744 240.275C145.444 240.275 144.544 239.958 144.044 239.325C143.544 238.692 143.294 237.483 143.294 235.7V229.125H141.519V227.5H143.294V223.675H145.144V227.5H149.119V229.125ZM160.233 231.275V237.675C160.283 238.292 160.767 238.658 161.683 238.775L161.608 240.25C160.292 240.25 159.3 239.917 158.633 239.25C157.133 239.917 155.633 240.25 154.133 240.25C152.983 240.25 152.108 239.925 151.508 239.275C150.908 238.625 150.608 237.692 150.608 236.475C150.608 235.258 150.917 234.367 151.533 233.8C152.15 233.217 153.117 232.858 154.433 232.725L158.358 232.35V231.275C158.358 230.425 158.175 229.817 157.808 229.45C157.442 229.083 156.942 228.9 156.308 228.9C154.975 228.9 153.592 228.983 152.158 229.15L151.383 229.225L151.308 227.8C153.142 227.433 154.767 227.25 156.183 227.25C157.6 227.25 158.625 227.575 159.258 228.225C159.908 228.875 160.233 229.892 160.233 231.275ZM152.533 236.375C152.533 237.908 153.167 238.675 154.433 238.675C155.567 238.675 156.683 238.483 157.783 238.1L158.358 237.9V233.775L154.658 234.125C153.908 234.192 153.367 234.408 153.033 234.775C152.7 235.142 152.533 235.675 152.533 236.375ZM163.933 240V227.5H165.808V240H163.933ZM163.933 224.675V222.5H165.808V224.675H163.933ZM171.277 240H169.402V227.5H171.252V228.375C172.602 227.625 173.893 227.25 175.127 227.25C176.793 227.25 177.91 227.7 178.477 228.6C179.06 229.5 179.352 231.1 179.352 233.4V240H177.502V233.45C177.502 231.717 177.327 230.533 176.977 229.9C176.643 229.25 175.918 228.925 174.802 228.925C174.268 228.925 173.702 229.008 173.102 229.175C172.518 229.325 172.068 229.475 171.752 229.625L171.277 229.85V240ZM186.754 228.925C184.938 228.925 184.029 229.558 184.029 230.825C184.029 231.408 184.238 231.825 184.654 232.075C185.071 232.308 186.021 232.558 187.504 232.825C188.988 233.075 190.038 233.433 190.654 233.9C191.271 234.367 191.579 235.242 191.579 236.525C191.579 237.808 191.163 238.75 190.329 239.35C189.513 239.95 188.313 240.25 186.729 240.25C185.696 240.25 184.479 240.133 183.079 239.9L182.329 239.775L182.429 238.15C184.329 238.433 185.763 238.575 186.729 238.575C187.696 238.575 188.429 238.425 188.929 238.125C189.446 237.808 189.704 237.292 189.704 236.575C189.704 235.842 189.488 235.35 189.054 235.1C188.621 234.833 187.671 234.583 186.204 234.35C184.738 234.117 183.696 233.775 183.079 233.325C182.463 232.875 182.154 232.042 182.154 230.825C182.154 229.608 182.579 228.708 183.429 228.125C184.296 227.542 185.371 227.25 186.654 227.25C187.671 227.25 188.946 227.367 190.479 227.6L191.179 227.725L191.129 229.325C189.279 229.058 187.821 228.925 186.754 228.925ZM199.944 245.55V227.5H201.794V228.4C203.06 227.633 204.31 227.25 205.544 227.25C207.127 227.25 208.277 227.758 208.994 228.775C209.71 229.775 210.069 231.433 210.069 233.75C210.069 236.067 209.644 237.733 208.794 238.75C207.96 239.75 206.569 240.25 204.619 240.25C203.602 240.25 202.669 240.158 201.819 239.975V245.55H199.944ZM205.269 228.925C204.769 228.925 204.227 229.008 203.644 229.175C203.077 229.342 202.627 229.508 202.294 229.675L201.819 229.925V238.35C203.002 238.533 203.902 238.625 204.519 238.625C205.869 238.625 206.81 238.242 207.344 237.475C207.894 236.708 208.169 235.458 208.169 233.725C208.169 231.992 207.919 230.758 207.419 230.025C206.935 229.292 206.219 228.925 205.269 228.925ZM213.127 240V227.5H214.977V229.2C216.427 228.2 217.952 227.542 219.552 227.225V229.125C218.852 229.258 218.119 229.467 217.352 229.75C216.602 230.033 216.027 230.283 215.627 230.5L215.002 230.825V240H213.127ZM230.026 238.45L230.751 238.375L230.801 239.85C228.901 240.117 227.276 240.25 225.926 240.25C224.126 240.25 222.851 239.733 222.101 238.7C221.351 237.65 220.976 236.025 220.976 233.825C220.976 229.442 222.717 227.25 226.201 227.25C227.884 227.25 229.142 227.725 229.976 228.675C230.809 229.608 231.226 231.083 231.226 233.1L231.126 234.525H222.876C222.876 235.908 223.126 236.933 223.626 237.6C224.126 238.267 224.992 238.6 226.226 238.6C227.476 238.6 228.742 238.55 230.026 238.45ZM229.351 233.025C229.351 231.492 229.101 230.408 228.601 229.775C228.117 229.142 227.317 228.825 226.201 228.825C225.101 228.825 224.267 229.158 223.701 229.825C223.151 230.492 222.867 231.558 222.851 233.025H229.351ZM238.823 227.25C239.373 227.25 240.306 227.35 241.623 227.55L242.223 227.625L242.148 229.15C240.814 229 239.831 228.925 239.198 228.925C237.781 228.925 236.814 229.267 236.298 229.95C235.798 230.617 235.548 231.867 235.548 233.7C235.548 235.517 235.781 236.783 236.248 237.5C236.731 238.217 237.723 238.575 239.223 238.575L242.173 238.35L242.248 239.9C240.698 240.133 239.539 240.25 238.773 240.25C236.823 240.25 235.473 239.75 234.723 238.75C233.989 237.75 233.623 236.067 233.623 233.7C233.623 231.317 234.023 229.65 234.823 228.7C235.623 227.733 236.956 227.25 238.823 227.25ZM245.036 240V227.5H246.911V240H245.036ZM245.036 224.675V222.5H246.911V224.675H245.036ZM254.43 228.925C252.613 228.925 251.705 229.558 251.705 230.825C251.705 231.408 251.913 231.825 252.33 232.075C252.747 232.308 253.697 232.558 255.18 232.825C256.663 233.075 257.713 233.433 258.33 233.9C258.947 234.367 259.255 235.242 259.255 236.525C259.255 237.808 258.838 238.75 258.005 239.35C257.188 239.95 255.988 240.25 254.405 240.25C253.372 240.25 252.155 240.133 250.755 239.9L250.005 239.775L250.105 238.15C252.005 238.433 253.438 238.575 254.405 238.575C255.372 238.575 256.105 238.425 256.605 238.125C257.122 237.808 257.38 237.292 257.38 236.575C257.38 235.842 257.163 235.35 256.73 235.1C256.297 234.833 255.347 234.583 253.88 234.35C252.413 234.117 251.372 233.775 250.755 233.325C250.138 232.875 249.83 232.042 249.83 230.825C249.83 229.608 250.255 228.708 251.105 228.125C251.972 227.542 253.047 227.25 254.33 227.25C255.347 227.25 256.622 227.367 258.155 227.6L258.855 227.725L258.805 229.325C256.955 229.058 255.497 228.925 254.43 228.925ZM270.626 238.45L271.351 238.375L271.401 239.85C269.501 240.117 267.876 240.25 266.526 240.25C264.726 240.25 263.451 239.733 262.701 238.7C261.951 237.65 261.576 236.025 261.576 233.825C261.576 229.442 263.318 227.25 266.801 227.25C268.485 227.25 269.743 227.725 270.576 228.675C271.41 229.608 271.826 231.083 271.826 233.1L271.726 234.525H263.476C263.476 235.908 263.726 236.933 264.226 237.6C264.726 238.267 265.593 238.6 266.826 238.6C268.076 238.6 269.343 238.55 270.626 238.45ZM269.951 233.025C269.951 231.492 269.701 230.408 269.201 229.775C268.718 229.142 267.918 228.825 266.801 228.825C265.701 228.825 264.868 229.158 264.301 229.825C263.751 230.492 263.468 231.558 263.451 233.025H269.951ZM284.166 228.925C282.35 228.925 281.441 229.558 281.441 230.825C281.441 231.408 281.65 231.825 282.066 232.075C282.483 232.308 283.433 232.558 284.916 232.825C286.4 233.075 287.45 233.433 288.066 233.9C288.683 234.367 288.991 235.242 288.991 236.525C288.991 237.808 288.575 238.75 287.741 239.35C286.925 239.95 285.725 240.25 284.141 240.25C283.108 240.25 281.891 240.133 280.491 239.9L279.741 239.775L279.841 238.15C281.741 238.433 283.175 238.575 284.141 238.575C285.108 238.575 285.841 238.425 286.341 238.125C286.858 237.808 287.116 237.292 287.116 236.575C287.116 235.842 286.9 235.35 286.466 235.1C286.033 234.833 285.083 234.583 283.616 234.35C282.15 234.117 281.108 233.775 280.491 233.325C279.875 232.875 279.566 232.042 279.566 230.825C279.566 229.608 279.991 228.708 280.841 228.125C281.708 227.542 282.783 227.25 284.066 227.25C285.083 227.25 286.358 227.367 287.891 227.6L288.591 227.725L288.541 229.325C286.691 229.058 285.233 228.925 284.166 228.925ZM298.338 229.125H294.363V235.1C294.363 236.533 294.463 237.475 294.663 237.925C294.879 238.375 295.379 238.6 296.163 238.6L298.388 238.45L298.513 240C297.396 240.183 296.546 240.275 295.963 240.275C294.663 240.275 293.763 239.958 293.263 239.325C292.763 238.692 292.513 237.483 292.513 235.7V229.125H290.738V227.5H292.513V223.675H294.363V227.5H298.338V229.125ZM309.452 231.275V237.675C309.502 238.292 309.985 238.658 310.902 238.775L310.827 240.25C309.51 240.25 308.519 239.917 307.852 239.25C306.352 239.917 304.852 240.25 303.352 240.25C302.202 240.25 301.327 239.925 300.727 239.275C300.127 238.625 299.827 237.692 299.827 236.475C299.827 235.258 300.135 234.367 300.752 233.8C301.369 233.217 302.335 232.858 303.652 232.725L307.577 232.35V231.275C307.577 230.425 307.394 229.817 307.027 229.45C306.66 229.083 306.16 228.9 305.527 228.9C304.194 228.9 302.81 228.983 301.377 229.15L300.602 229.225L300.527 227.8C302.36 227.433 303.985 227.25 305.402 227.25C306.819 227.25 307.844 227.575 308.477 228.225C309.127 228.875 309.452 229.892 309.452 231.275ZM301.752 236.375C301.752 237.908 302.385 238.675 303.652 238.675C304.785 238.675 305.902 238.483 307.002 238.1L307.577 237.9V233.775L303.877 234.125C303.127 234.192 302.585 234.408 302.252 234.775C301.919 235.142 301.752 235.675 301.752 236.375ZM319.627 229.125H315.652V235.1C315.652 236.533 315.752 237.475 315.952 237.925C316.168 238.375 316.668 238.6 317.452 238.6L319.677 238.45L319.802 240C318.685 240.183 317.835 240.275 317.252 240.275C315.952 240.275 315.052 239.958 314.552 239.325C314.052 238.692 313.802 237.483 313.802 235.7V229.125H312.027V227.5H313.802V223.675H315.652V227.5H319.627V229.125ZM329.716 227.5H331.591V240H329.716V239.125C328.466 239.875 327.233 240.25 326.016 240.25C324.316 240.25 323.183 239.808 322.616 238.925C322.066 238.042 321.791 236.408 321.791 234.025V227.5H323.666V234C323.666 235.817 323.825 237.033 324.141 237.65C324.458 238.267 325.175 238.575 326.291 238.575C326.841 238.575 327.4 238.5 327.966 238.35C328.533 238.183 328.966 238.025 329.266 237.875L329.716 237.65V227.5ZM339.122 228.925C337.306 228.925 336.397 229.558 336.397 230.825C336.397 231.408 336.606 231.825 337.022 232.075C337.439 232.308 338.389 232.558 339.872 232.825C341.356 233.075 342.406 233.433 343.022 233.9C343.639 234.367 343.947 235.242 343.947 236.525C343.947 237.808 343.531 238.75 342.697 239.35C341.881 239.95 340.681 240.25 339.097 240.25C338.064 240.25 336.847 240.133 335.447 239.9L334.697 239.775L334.797 238.15C336.697 238.433 338.131 238.575 339.097 238.575C340.064 238.575 340.797 238.425 341.297 238.125C341.814 237.808 342.072 237.292 342.072 236.575C342.072 235.842 341.856 235.35 341.422 235.1C340.989 234.833 340.039 234.583 338.572 234.35C337.106 234.117 336.064 233.775 335.447 233.325C334.831 232.875 334.522 232.042 334.522 230.825C334.522 229.608 334.947 228.708 335.797 228.125C336.664 227.542 337.739 227.25 339.022 227.25C340.039 227.25 341.314 227.367 342.847 227.6L343.547 227.725L343.497 229.325C341.647 229.058 340.189 228.925 339.122 228.925ZM351.762 233.725C351.762 231.442 352.17 229.792 352.987 228.775C353.803 227.758 355.178 227.25 357.112 227.25C359.062 227.25 360.437 227.758 361.237 228.775C362.053 229.792 362.462 231.442 362.462 233.725C362.462 236.008 362.078 237.667 361.312 238.7C360.545 239.733 359.145 240.25 357.112 240.25C355.078 240.25 353.678 239.733 352.912 238.7C352.145 237.667 351.762 236.008 351.762 233.725ZM353.687 233.7C353.687 235.517 353.903 236.792 354.337 237.525C354.787 238.258 355.712 238.625 357.112 238.625C358.528 238.625 359.453 238.267 359.887 237.55C360.32 236.817 360.537 235.533 360.537 233.7C360.537 231.867 360.295 230.608 359.812 229.925C359.328 229.225 358.428 228.875 357.112 228.875C355.812 228.875 354.912 229.225 354.412 229.925C353.928 230.608 353.687 231.867 353.687 233.7ZM367.92 229.125V240H366.045V229.125H364.47V227.5H366.045V226.375C366.045 224.608 366.295 223.408 366.795 222.775C367.295 222.125 368.17 221.8 369.42 221.8L371.945 221.975L371.92 223.525C370.986 223.492 370.211 223.475 369.595 223.475C368.995 223.475 368.561 223.675 368.295 224.075C368.045 224.475 367.92 225.25 367.92 226.4V227.5H371.545V229.125H367.92ZM385.764 229.125H381.789V235.1C381.789 236.533 381.889 237.475 382.089 237.925C382.306 238.375 382.806 238.6 383.589 238.6L385.814 238.45L385.939 240C384.823 240.183 383.973 240.275 383.389 240.275C382.089 240.275 381.189 239.958 380.689 239.325C380.189 238.692 379.939 237.483 379.939 235.7V229.125H378.164V227.5H379.939V223.675H381.789V227.5H385.764V229.125ZM389.929 240H388.054V222.05H389.929V228.2C391.262 227.567 392.546 227.25 393.779 227.25C395.446 227.25 396.562 227.7 397.129 228.6C397.712 229.5 398.004 231.1 398.004 233.4V240H396.129V233.45C396.129 231.717 395.954 230.533 395.604 229.9C395.271 229.25 394.554 228.925 393.454 228.925C392.404 228.925 391.387 229.117 390.404 229.5L389.929 229.675V240ZM409.982 238.45L410.707 238.375L410.757 239.85C408.857 240.117 407.232 240.25 405.882 240.25C404.082 240.25 402.807 239.733 402.057 238.7C401.307 237.65 400.932 236.025 400.932 233.825C400.932 229.442 402.673 227.25 406.157 227.25C407.84 227.25 409.098 227.725 409.932 228.675C410.765 229.608 411.182 231.083 411.182 233.1L411.082 234.525H402.832C402.832 235.908 403.082 236.933 403.582 237.6C404.082 238.267 404.948 238.6 406.182 238.6C407.432 238.6 408.698 238.55 409.982 238.45ZM409.307 233.025C409.307 231.492 409.057 230.408 408.557 229.775C408.073 229.142 407.273 228.825 406.157 228.825C405.057 228.825 404.223 229.158 403.657 229.825C403.107 230.492 402.823 231.558 402.807 233.025H409.307ZM428.422 231.275V237.675C428.472 238.292 428.955 238.658 429.872 238.775L429.797 240.25C428.48 240.25 427.489 239.917 426.822 239.25C425.322 239.917 423.822 240.25 422.322 240.25C421.172 240.25 420.297 239.925 419.697 239.275C419.097 238.625 418.797 237.692 418.797 236.475C418.797 235.258 419.105 234.367 419.722 233.8C420.339 233.217 421.305 232.858 422.622 232.725L426.547 232.35V231.275C426.547 230.425 426.364 229.817 425.997 229.45C425.63 229.083 425.13 228.9 424.497 228.9C423.164 228.9 421.78 228.983 420.347 229.15L419.572 229.225L419.497 227.8C421.33 227.433 422.955 227.25 424.372 227.25C425.789 227.25 426.814 227.575 427.447 228.225C428.097 228.875 428.422 229.892 428.422 231.275ZM420.722 236.375C420.722 237.908 421.355 238.675 422.622 238.675C423.755 238.675 424.872 238.483 425.972 238.1L426.547 237.9V233.775L422.847 234.125C422.097 234.192 421.555 234.408 421.222 234.775C420.889 235.142 420.722 235.675 420.722 236.375ZM432.121 240V227.5H433.996V240H432.121ZM432.121 224.675V222.5H433.996V224.675H432.121ZM437.59 240V227.5H439.44V229.2C440.89 228.2 442.415 227.542 444.015 227.225V229.125C443.315 229.258 442.582 229.467 441.815 229.75C441.065 230.033 440.49 230.283 440.09 230.5L439.465 230.825V240H437.59ZM450.158 228.925C448.341 228.925 447.433 229.558 447.433 230.825C447.433 231.408 447.641 231.825 448.058 232.075C448.474 232.308 449.424 232.558 450.908 232.825C452.391 233.075 453.441 233.433 454.058 233.9C454.674 234.367 454.983 235.242 454.983 236.525C454.983 237.808 454.566 238.75 453.733 239.35C452.916 239.95 451.716 240.25 450.133 240.25C449.099 240.25 447.883 240.133 446.483 239.9L445.733 239.775L445.833 238.15C447.733 238.433 449.166 238.575 450.133 238.575C451.099 238.575 451.833 238.425 452.333 238.125C452.849 237.808 453.108 237.292 453.108 236.575C453.108 235.842 452.891 235.35 452.458 235.1C452.024 234.833 451.074 234.583 449.608 234.35C448.141 234.117 447.099 233.775 446.483 233.325C445.866 232.875 445.558 232.042 445.558 230.825C445.558 229.608 445.983 228.708 446.833 228.125C447.699 227.542 448.774 227.25 450.058 227.25C451.074 227.25 452.349 227.367 453.883 227.6L454.583 227.725L454.533 229.325C452.683 229.058 451.224 228.925 450.158 228.925ZM457.854 245.55V227.5H459.704V228.4C460.97 227.633 462.22 227.25 463.454 227.25C465.037 227.25 466.187 227.758 466.904 228.775C467.62 229.775 467.979 231.433 467.979 233.75C467.979 236.067 467.554 237.733 466.704 238.75C465.87 239.75 464.479 240.25 462.529 240.25C461.512 240.25 460.579 240.158 459.729 239.975V245.55H457.854ZM463.179 228.925C462.679 228.925 462.137 229.008 461.554 229.175C460.987 229.342 460.537 229.508 460.204 229.675L459.729 229.925V238.35C460.912 238.533 461.812 238.625 462.429 238.625C463.779 238.625 464.72 238.242 465.254 237.475C465.804 236.708 466.079 235.458 466.079 233.725C466.079 231.992 465.829 230.758 465.329 230.025C464.845 229.292 464.129 228.925 463.179 228.925ZM479.862 231.275V237.675C479.912 238.292 480.396 238.658 481.312 238.775L481.237 240.25C479.921 240.25 478.929 239.917 478.262 239.25C476.762 239.917 475.262 240.25 473.762 240.25C472.612 240.25 471.737 239.925 471.137 239.275C470.537 238.625 470.237 237.692 470.237 236.475C470.237 235.258 470.546 234.367 471.162 233.8C471.779 233.217 472.746 232.858 474.062 232.725L477.987 232.35V231.275C477.987 230.425 477.804 229.817 477.437 229.45C477.071 229.083 476.571 228.9 475.937 228.9C474.604 228.9 473.221 228.983 471.787 229.15L471.012 229.225L470.937 227.8C472.771 227.433 474.396 227.25 475.812 227.25C477.229 227.25 478.254 227.575 478.887 228.225C479.537 228.875 479.862 229.892 479.862 231.275ZM472.162 236.375C472.162 237.908 472.796 238.675 474.062 238.675C475.196 238.675 476.312 238.483 477.412 238.1L477.987 237.9V233.775L474.287 234.125C473.537 234.192 472.996 234.408 472.662 234.775C472.329 235.142 472.162 235.675 472.162 236.375ZM488.237 227.25C488.787 227.25 489.72 227.35 491.037 227.55L491.637 227.625L491.562 229.15C490.228 229 489.245 228.925 488.612 228.925C487.195 228.925 486.228 229.267 485.712 229.95C485.212 230.617 484.962 231.867 484.962 233.7C484.962 235.517 485.195 236.783 485.662 237.5C486.145 238.217 487.137 238.575 488.637 238.575L491.587 238.35L491.662 239.9C490.112 240.133 488.953 240.25 488.187 240.25C486.237 240.25 484.887 239.75 484.137 238.75C483.403 237.75 483.037 236.067 483.037 233.7C483.037 231.317 483.437 229.65 484.237 228.7C485.037 227.733 486.37 227.25 488.237 227.25ZM502.804 238.45L503.529 238.375L503.579 239.85C501.679 240.117 500.054 240.25 498.704 240.25C496.904 240.25 495.629 239.733 494.879 238.7C494.129 237.65 493.754 236.025 493.754 233.825C493.754 229.442 495.496 227.25 498.979 227.25C500.662 227.25 501.921 227.725 502.754 228.675C503.587 229.608 504.004 231.083 504.004 233.1L503.904 234.525H495.654C495.654 235.908 495.904 236.933 496.404 237.6C496.904 238.267 497.771 238.6 499.004 238.6C500.254 238.6 501.521 238.55 502.804 238.45ZM502.129 233.025C502.129 231.492 501.879 230.408 501.379 229.775C500.896 229.142 500.096 228.825 498.979 228.825C497.879 228.825 497.046 229.158 496.479 229.825C495.929 230.492 495.646 231.558 495.629 233.025H502.129ZM506.801 240V237.15H508.851V240H506.801ZM66.6168 275.35V268.2H72.8668V275.35H66.6168ZM97.475 270.875V269.15H102.25V277.65C100.15 278.05 98.275 278.25 96.625 278.25C94.1083 278.25 92.3583 277.525 91.375 276.075C90.4083 274.625 89.925 272.392 89.925 269.375C89.925 266.342 90.4083 264.1 91.375 262.65C92.3583 261.183 94.0917 260.45 96.575 260.45C98.125 260.45 99.7333 260.617 101.4 260.95L102.25 261.1L102.175 262.7C100.108 262.35 98.3167 262.175 96.8 262.175C94.8833 262.175 93.5917 262.733 92.925 263.85C92.2583 264.95 91.925 266.792 91.925 269.375C91.925 271.942 92.2583 273.783 92.925 274.9C93.5917 276 94.875 276.55 96.775 276.55C97.9417 276.55 99.1333 276.433 100.35 276.2V270.875H97.475ZM114.205 276.45L114.93 276.375L114.98 277.85C113.08 278.117 111.455 278.25 110.105 278.25C108.305 278.25 107.03 277.733 106.28 276.7C105.53 275.65 105.155 274.025 105.155 271.825C105.155 267.442 106.897 265.25 110.38 265.25C112.064 265.25 113.322 265.725 114.155 266.675C114.989 267.608 115.405 269.083 115.405 271.1L115.305 272.525H107.055C107.055 273.908 107.305 274.933 107.805 275.6C108.305 276.267 109.172 276.6 110.405 276.6C111.655 276.6 112.922 276.55 114.205 276.45ZM113.53 271.025C113.53 269.492 113.28 268.408 112.78 267.775C112.297 267.142 111.497 266.825 110.38 266.825C109.28 266.825 108.447 267.158 107.88 267.825C107.33 268.492 107.047 269.558 107.03 271.025H113.53ZM124.729 267.125H120.754V273.1C120.754 274.533 120.854 275.475 121.054 275.925C121.271 276.375 121.771 276.6 122.554 276.6L124.779 276.45L124.904 278C123.787 278.183 122.937 278.275 122.354 278.275C121.054 278.275 120.154 277.958 119.654 277.325C119.154 276.692 118.904 275.483 118.904 273.7V267.125H117.129V265.5H118.904V261.675H120.754V265.5H124.729V267.125ZM130.944 266.925C129.127 266.925 128.219 267.558 128.219 268.825C128.219 269.408 128.427 269.825 128.844 270.075C129.26 270.308 130.21 270.558 131.694 270.825C133.177 271.075 134.227 271.433 134.844 271.9C135.46 272.367 135.769 273.242 135.769 274.525C135.769 275.808 135.352 276.75 134.519 277.35C133.702 277.95 132.502 278.25 130.919 278.25C129.885 278.25 128.669 278.133 127.269 277.9L126.519 277.775L126.619 276.15C128.519 276.433 129.952 276.575 130.919 276.575C131.885 276.575 132.619 276.425 133.119 276.125C133.635 275.808 133.894 275.292 133.894 274.575C133.894 273.842 133.677 273.35 133.244 273.1C132.81 272.833 131.86 272.583 130.394 272.35C128.927 272.117 127.885 271.775 127.269 271.325C126.652 270.875 126.344 270.042 126.344 268.825C126.344 267.608 126.769 266.708 127.619 266.125C128.485 265.542 129.56 265.25 130.844 265.25C131.86 265.25 133.135 265.367 134.669 265.6L135.369 265.725L135.319 267.325C133.469 267.058 132.01 266.925 130.944 266.925ZM148.808 265.25C149.358 265.25 150.291 265.35 151.608 265.55L152.208 265.625L152.133 267.15C150.8 267 149.816 266.925 149.183 266.925C147.766 266.925 146.8 267.267 146.283 267.95C145.783 268.617 145.533 269.867 145.533 271.7C145.533 273.517 145.766 274.783 146.233 275.5C146.716 276.217 147.708 276.575 149.208 276.575L152.158 276.35L152.233 277.9C150.683 278.133 149.525 278.25 148.758 278.25C146.808 278.25 145.458 277.75 144.708 276.75C143.975 275.75 143.608 274.067 143.608 271.7C143.608 269.317 144.008 267.65 144.808 266.7C145.608 265.733 146.941 265.25 148.808 265.25ZM155.022 278V265.5H156.872V267.2C158.322 266.2 159.847 265.542 161.447 265.225V267.125C160.747 267.258 160.013 267.467 159.247 267.75C158.497 268.033 157.922 268.283 157.522 268.5L156.897 268.825V278H155.022ZM163.664 278V265.5H165.539V278H163.664ZM163.664 262.675V260.5H165.539V262.675H163.664ZM175.608 267.125H171.633V273.1C171.633 274.533 171.733 275.475 171.933 275.925C172.15 276.375 172.65 276.6 173.433 276.6L175.658 276.45L175.783 278C174.666 278.183 173.816 278.275 173.233 278.275C171.933 278.275 171.033 277.958 170.533 277.325C170.033 276.692 169.783 275.483 169.783 273.7V267.125H168.008V265.5H169.783V261.675H171.633V265.5H175.608V267.125ZM177.898 278V265.5H179.773V278H177.898ZM177.898 262.675V260.5H179.773V262.675H177.898ZM188.041 265.25C188.591 265.25 189.525 265.35 190.841 265.55L191.441 265.625L191.366 267.15C190.033 267 189.05 266.925 188.416 266.925C187 266.925 186.033 267.267 185.516 267.95C185.016 268.617 184.766 269.867 184.766 271.7C184.766 273.517 185 274.783 185.466 275.5C185.95 276.217 186.941 276.575 188.441 276.575L191.391 276.35L191.466 277.9C189.916 278.133 188.758 278.25 187.991 278.25C186.041 278.25 184.691 277.75 183.941 276.75C183.208 275.75 182.841 274.067 182.841 271.7C182.841 269.317 183.241 267.65 184.041 266.7C184.841 265.733 186.175 265.25 188.041 265.25ZM203.08 269.275V275.675C203.13 276.292 203.613 276.658 204.53 276.775L204.455 278.25C203.138 278.25 202.147 277.917 201.48 277.25C199.98 277.917 198.48 278.25 196.98 278.25C195.83 278.25 194.955 277.925 194.355 277.275C193.755 276.625 193.455 275.692 193.455 274.475C193.455 273.258 193.763 272.367 194.38 271.8C194.997 271.217 195.963 270.858 197.28 270.725L201.205 270.35V269.275C201.205 268.425 201.022 267.817 200.655 267.45C200.288 267.083 199.788 266.9 199.155 266.9C197.822 266.9 196.438 266.983 195.005 267.15L194.23 267.225L194.155 265.8C195.988 265.433 197.613 265.25 199.03 265.25C200.447 265.25 201.472 265.575 202.105 266.225C202.755 266.875 203.08 267.892 203.08 269.275ZM195.38 274.375C195.38 275.908 196.013 276.675 197.28 276.675C198.413 276.675 199.53 276.483 200.63 276.1L201.205 275.9V271.775L197.505 272.125C196.755 272.192 196.213 272.408 195.88 272.775C195.547 273.142 195.38 273.675 195.38 274.375ZM206.929 278V260.05H208.804V278H206.929ZM225.859 265.5H227.734V278H225.859V277.125C224.609 277.875 223.375 278.25 222.159 278.25C220.459 278.25 219.325 277.808 218.759 276.925C218.209 276.042 217.934 274.408 217.934 272.025V265.5H219.809V272C219.809 273.817 219.967 275.033 220.284 275.65C220.6 276.267 221.317 276.575 222.434 276.575C222.984 276.575 223.542 276.5 224.109 276.35C224.675 276.183 225.109 276.025 225.409 275.875L225.859 275.65V265.5ZM231.34 283.55V265.5H233.19V266.4C234.457 265.633 235.707 265.25 236.94 265.25C238.523 265.25 239.673 265.758 240.39 266.775C241.107 267.775 241.465 269.433 241.465 271.75C241.465 274.067 241.04 275.733 240.19 276.75C239.357 277.75 237.965 278.25 236.015 278.25C234.998 278.25 234.065 278.158 233.215 277.975V283.55H231.34ZM236.665 266.925C236.165 266.925 235.623 267.008 235.04 267.175C234.473 267.342 234.023 267.508 233.69 267.675L233.215 267.925V276.35C234.398 276.533 235.298 276.625 235.915 276.625C237.265 276.625 238.207 276.242 238.74 275.475C239.29 274.708 239.565 273.458 239.565 271.725C239.565 269.992 239.315 268.758 238.815 268.025C238.332 267.292 237.615 266.925 236.665 266.925ZM254.124 260.05V278H252.274V277.15C250.99 277.883 249.724 278.25 248.474 278.25C247.807 278.25 247.224 278.167 246.724 278C246.224 277.833 245.757 277.533 245.324 277.1C244.424 276.2 243.974 274.542 243.974 272.125C243.974 269.692 244.374 267.942 245.174 266.875C245.99 265.792 247.332 265.25 249.199 265.25C250.165 265.25 251.19 265.358 252.274 265.575V260.05H254.124ZM246.774 275.75C247.04 276.067 247.324 276.283 247.624 276.4C247.924 276.517 248.307 276.575 248.774 276.575C249.257 276.575 249.79 276.5 250.374 276.35C250.974 276.183 251.44 276.025 251.774 275.875L252.274 275.65V267.175C251.207 266.975 250.215 266.875 249.299 266.875C248.032 266.875 247.149 267.283 246.649 268.1C246.149 268.9 245.899 270.15 245.899 271.85C245.899 273.783 246.19 275.083 246.774 275.75ZM266.581 269.275V275.675C266.631 276.292 267.114 276.658 268.031 276.775L267.956 278.25C266.639 278.25 265.648 277.917 264.981 277.25C263.481 277.917 261.981 278.25 260.481 278.25C259.331 278.25 258.456 277.925 257.856 277.275C257.256 276.625 256.956 275.692 256.956 274.475C256.956 273.258 257.264 272.367 257.881 271.8C258.498 271.217 259.464 270.858 260.781 270.725L264.706 270.35V269.275C264.706 268.425 264.523 267.817 264.156 267.45C263.789 267.083 263.289 266.9 262.656 266.9C261.323 266.9 259.939 266.983 258.506 267.15L257.731 267.225L257.656 265.8C259.489 265.433 261.114 265.25 262.531 265.25C263.948 265.25 264.973 265.575 265.606 266.225C266.256 266.875 266.581 267.892 266.581 269.275ZM258.881 274.375C258.881 275.908 259.514 276.675 260.781 276.675C261.914 276.675 263.031 276.483 264.131 276.1L264.706 275.9V271.775L261.006 272.125C260.256 272.192 259.714 272.408 259.381 272.775C259.048 273.142 258.881 273.675 258.881 274.375ZM276.755 267.125H272.78V273.1C272.78 274.533 272.88 275.475 273.08 275.925C273.297 276.375 273.797 276.6 274.58 276.6L276.805 276.45L276.93 278C275.814 278.183 274.964 278.275 274.38 278.275C273.08 278.275 272.18 277.958 271.68 277.325C271.18 276.692 270.93 275.483 270.93 273.7V267.125H269.155V265.5H270.93V261.675H272.78V265.5H276.755V267.125ZM287.545 276.45L288.27 276.375L288.32 277.85C286.42 278.117 284.795 278.25 283.445 278.25C281.645 278.25 280.37 277.733 279.62 276.7C278.87 275.65 278.495 274.025 278.495 271.825C278.495 267.442 280.237 265.25 283.72 265.25C285.403 265.25 286.662 265.725 287.495 266.675C288.328 267.608 288.745 269.083 288.745 271.1L288.645 272.525H280.395C280.395 273.908 280.645 274.933 281.145 275.6C281.645 276.267 282.512 276.6 283.745 276.6C284.995 276.6 286.262 276.55 287.545 276.45ZM286.87 271.025C286.87 269.492 286.62 268.408 286.12 267.775C285.637 267.142 284.837 266.825 283.72 266.825C282.62 266.825 281.787 267.158 281.22 267.825C280.67 268.492 280.387 269.558 280.37 271.025H286.87ZM295.592 266.925C293.776 266.925 292.867 267.558 292.867 268.825C292.867 269.408 293.076 269.825 293.492 270.075C293.909 270.308 294.859 270.558 296.342 270.825C297.826 271.075 298.876 271.433 299.492 271.9C300.109 272.367 300.417 273.242 300.417 274.525C300.417 275.808 300.001 276.75 299.167 277.35C298.351 277.95 297.151 278.25 295.567 278.25C294.534 278.25 293.317 278.133 291.917 277.9L291.167 277.775L291.267 276.15C293.167 276.433 294.601 276.575 295.567 276.575C296.534 276.575 297.267 276.425 297.767 276.125C298.284 275.808 298.542 275.292 298.542 274.575C298.542 273.842 298.326 273.35 297.892 273.1C297.459 272.833 296.509 272.583 295.042 272.35C293.576 272.117 292.534 271.775 291.917 271.325C291.301 270.875 290.992 270.042 290.992 268.825C290.992 267.608 291.417 266.708 292.267 266.125C293.134 265.542 294.209 265.25 295.492 265.25C296.509 265.25 297.784 265.367 299.317 265.6L300.017 265.725L299.967 267.325C298.117 267.058 296.659 266.925 295.592 266.925ZM311.181 267.125V278H309.306V267.125H307.731V265.5H309.306V264.375C309.306 262.608 309.556 261.408 310.056 260.775C310.556 260.125 311.431 259.8 312.681 259.8L315.206 259.975L315.181 261.525C314.248 261.492 313.473 261.475 312.856 261.475C312.256 261.475 311.823 261.675 311.556 262.075C311.306 262.475 311.181 263.25 311.181 264.4V265.5H314.806V267.125H311.181ZM317.058 278V265.5H318.908V267.2C320.358 266.2 321.883 265.542 323.483 265.225V267.125C322.783 267.258 322.049 267.467 321.283 267.75C320.533 268.033 319.958 268.283 319.558 268.5L318.933 268.825V278H317.058ZM324.906 271.725C324.906 269.442 325.315 267.792 326.131 266.775C326.948 265.758 328.323 265.25 330.256 265.25C332.206 265.25 333.581 265.758 334.381 266.775C335.198 267.792 335.606 269.442 335.606 271.725C335.606 274.008 335.223 275.667 334.456 276.7C333.69 277.733 332.29 278.25 330.256 278.25C328.223 278.25 326.823 277.733 326.056 276.7C325.29 275.667 324.906 274.008 324.906 271.725ZM326.831 271.7C326.831 273.517 327.048 274.792 327.481 275.525C327.931 276.258 328.856 276.625 330.256 276.625C331.673 276.625 332.598 276.267 333.031 275.55C333.465 274.817 333.681 273.533 333.681 271.7C333.681 269.867 333.44 268.608 332.956 267.925C332.473 267.225 331.573 266.875 330.256 266.875C328.956 266.875 328.056 267.225 327.556 267.925C327.073 268.608 326.831 269.867 326.831 271.7ZM340.539 278H338.664V265.5H340.514V266.375C341.764 265.625 342.981 265.25 344.164 265.25C345.714 265.25 346.798 265.675 347.414 266.525C347.964 266.192 348.673 265.9 349.539 265.65C350.423 265.383 351.198 265.25 351.864 265.25C353.531 265.25 354.648 265.7 355.214 266.6C355.798 267.483 356.089 269.083 356.089 271.4V278H354.214V271.45C354.214 269.717 354.048 268.533 353.714 267.9C353.381 267.25 352.673 266.925 351.589 266.925C351.039 266.925 350.473 267.008 349.889 267.175C349.306 267.325 348.856 267.475 348.539 267.625L348.064 267.85C348.281 268.4 348.389 269.617 348.389 271.5V278H346.514V271.55C346.514 269.75 346.348 268.533 346.014 267.9C345.698 267.25 344.989 266.925 343.889 266.925C343.356 266.925 342.806 267.008 342.239 267.175C341.689 267.325 341.264 267.475 340.964 267.625L340.539 267.85V278ZM371.531 267.125H367.556V273.1C367.556 274.533 367.656 275.475 367.856 275.925C368.073 276.375 368.573 276.6 369.356 276.6L371.581 276.45L371.706 278C370.589 278.183 369.739 278.275 369.156 278.275C367.856 278.275 366.956 277.958 366.456 277.325C365.956 276.692 365.706 275.483 365.706 273.7V267.125H363.931V265.5H365.706V261.675H367.556V265.5H371.531V267.125ZM375.696 278H373.821V260.05H375.696V266.2C377.029 265.567 378.312 265.25 379.546 265.25C381.212 265.25 382.329 265.7 382.896 266.6C383.479 267.5 383.771 269.1 383.771 271.4V278H381.896V271.45C381.896 269.717 381.721 268.533 381.371 267.9C381.037 267.25 380.321 266.925 379.221 266.925C378.171 266.925 377.154 267.117 376.171 267.5L375.696 267.675V278ZM395.748 276.45L396.473 276.375L396.523 277.85C394.623 278.117 392.998 278.25 391.648 278.25C389.848 278.25 388.573 277.733 387.823 276.7C387.073 275.65 386.698 274.025 386.698 271.825C386.698 267.442 388.44 265.25 391.923 265.25C393.607 265.25 394.865 265.725 395.698 266.675C396.532 267.608 396.948 269.083 396.948 271.1L396.848 272.525H388.598C388.598 273.908 388.848 274.933 389.348 275.6C389.848 276.267 390.715 276.6 391.948 276.6C393.198 276.6 394.465 276.55 395.748 276.45ZM395.073 271.025C395.073 269.492 394.823 268.408 394.323 267.775C393.84 267.142 393.04 266.825 391.923 266.825C390.823 266.825 389.99 267.158 389.423 267.825C388.873 268.492 388.59 269.558 388.573 271.025H395.073ZM410.038 265.25C410.588 265.25 411.522 265.35 412.838 265.55L413.438 265.625L413.363 267.15C412.03 267 411.047 266.925 410.413 266.925C408.997 266.925 408.03 267.267 407.513 267.95C407.013 268.617 406.763 269.867 406.763 271.7C406.763 273.517 406.997 274.783 407.463 275.5C407.947 276.217 408.938 276.575 410.438 276.575L413.388 276.35L413.463 277.9C411.913 278.133 410.755 278.25 409.988 278.25C408.038 278.25 406.688 277.75 405.938 276.75C405.205 275.75 404.838 274.067 404.838 271.7C404.838 269.317 405.238 267.65 406.038 266.7C406.838 265.733 408.172 265.25 410.038 265.25ZM415.556 271.725C415.556 269.442 415.964 267.792 416.781 266.775C417.597 265.758 418.972 265.25 420.906 265.25C422.856 265.25 424.231 265.758 425.031 266.775C425.847 267.792 426.256 269.442 426.256 271.725C426.256 274.008 425.872 275.667 425.106 276.7C424.339 277.733 422.939 278.25 420.906 278.25C418.872 278.25 417.472 277.733 416.706 276.7C415.939 275.667 415.556 274.008 415.556 271.725ZM417.481 271.7C417.481 273.517 417.697 274.792 418.131 275.525C418.581 276.258 419.506 276.625 420.906 276.625C422.322 276.625 423.247 276.267 423.681 275.55C424.114 274.817 424.331 273.533 424.331 271.7C424.331 269.867 424.089 268.608 423.606 267.925C423.122 267.225 422.222 266.875 420.906 266.875C419.606 266.875 418.706 267.225 418.206 267.925C417.722 268.608 417.481 269.867 417.481 271.7ZM428.764 271.725C428.764 269.442 429.172 267.792 429.989 266.775C430.805 265.758 432.18 265.25 434.114 265.25C436.064 265.25 437.439 265.758 438.239 266.775C439.055 267.792 439.464 269.442 439.464 271.725C439.464 274.008 439.08 275.667 438.314 276.7C437.547 277.733 436.147 278.25 434.114 278.25C432.08 278.25 430.68 277.733 429.914 276.7C429.147 275.667 428.764 274.008 428.764 271.725ZM430.689 271.7C430.689 273.517 430.905 274.792 431.339 275.525C431.789 276.258 432.714 276.625 434.114 276.625C435.53 276.625 436.455 276.267 436.889 275.55C437.322 274.817 437.539 273.533 437.539 271.7C437.539 269.867 437.297 268.608 436.814 267.925C436.33 267.225 435.43 266.875 434.114 266.875C432.814 266.875 431.914 267.225 431.414 267.925C430.93 268.608 430.689 269.867 430.689 271.7ZM442.522 278V265.5H444.372V267.2C445.822 266.2 447.347 265.542 448.947 265.225V267.125C448.247 267.258 447.513 267.467 446.747 267.75C445.997 268.033 445.422 268.283 445.022 268.5L444.397 268.825V278H442.522ZM460.447 260.05V278H458.597V277.15C457.314 277.883 456.047 278.25 454.797 278.25C454.13 278.25 453.547 278.167 453.047 278C452.547 277.833 452.08 277.533 451.647 277.1C450.747 276.2 450.297 274.542 450.297 272.125C450.297 269.692 450.697 267.942 451.497 266.875C452.314 265.792 453.655 265.25 455.522 265.25C456.489 265.25 457.514 265.358 458.597 265.575V260.05H460.447ZM453.097 275.75C453.364 276.067 453.647 276.283 453.947 276.4C454.247 276.517 454.63 276.575 455.097 276.575C455.58 276.575 456.114 276.5 456.697 276.35C457.297 276.183 457.764 276.025 458.097 275.875L458.597 275.65V267.175C457.53 266.975 456.539 266.875 455.622 266.875C454.355 266.875 453.472 267.283 452.972 268.1C452.472 268.9 452.222 270.15 452.222 271.85C452.222 273.783 452.514 275.083 453.097 275.75ZM464.079 278V265.5H465.954V278H464.079ZM464.079 262.675V260.5H465.954V262.675H464.079ZM471.423 278H469.548V265.5H471.398V266.375C472.748 265.625 474.04 265.25 475.273 265.25C476.94 265.25 478.056 265.7 478.623 266.6C479.206 267.5 479.498 269.1 479.498 271.4V278H477.648V271.45C477.648 269.717 477.473 268.533 477.123 267.9C476.79 267.25 476.065 266.925 474.948 266.925C474.415 266.925 473.848 267.008 473.248 267.175C472.665 267.325 472.215 267.475 471.898 267.625L471.423 267.85V278ZM491.801 269.275V275.675C491.851 276.292 492.334 276.658 493.251 276.775L493.176 278.25C491.859 278.25 490.867 277.917 490.201 277.25C488.701 277.917 487.201 278.25 485.701 278.25C484.551 278.25 483.676 277.925 483.076 277.275C482.476 276.625 482.176 275.692 482.176 274.475C482.176 273.258 482.484 272.367 483.101 271.8C483.717 271.217 484.684 270.858 486.001 270.725L489.926 270.35V269.275C489.926 268.425 489.742 267.817 489.376 267.45C489.009 267.083 488.509 266.9 487.876 266.9C486.542 266.9 485.159 266.983 483.726 267.15L482.951 267.225L482.876 265.8C484.709 265.433 486.334 265.25 487.751 265.25C489.167 265.25 490.192 265.575 490.826 266.225C491.476 266.875 491.801 267.892 491.801 269.275ZM484.101 274.375C484.101 275.908 484.734 276.675 486.001 276.675C487.134 276.675 488.251 276.483 489.351 276.1L489.926 275.9V271.775L486.226 272.125C485.476 272.192 484.934 272.408 484.601 272.775C484.267 273.142 484.101 273.675 484.101 274.375ZM501.975 267.125H498V273.1C498 274.533 498.1 275.475 498.3 275.925C498.517 276.375 499.017 276.6 499.8 276.6L502.025 276.45L502.15 278C501.034 278.183 500.184 278.275 499.6 278.275C498.3 278.275 497.4 277.958 496.9 277.325C496.4 276.692 496.15 275.483 496.15 273.7V267.125H494.375V265.5H496.15V261.675H498V265.5H501.975V267.125ZM503.715 271.725C503.715 269.442 504.123 267.792 504.94 266.775C505.757 265.758 507.132 265.25 509.065 265.25C511.015 265.25 512.39 265.758 513.19 266.775C514.007 267.792 514.415 269.442 514.415 271.725C514.415 274.008 514.032 275.667 513.265 276.7C512.498 277.733 511.098 278.25 509.065 278.25C507.032 278.25 505.632 277.733 504.865 276.7C504.098 275.667 503.715 274.008 503.715 271.725ZM505.64 271.7C505.64 273.517 505.857 274.792 506.29 275.525C506.74 276.258 507.665 276.625 509.065 276.625C510.482 276.625 511.407 276.267 511.84 275.55C512.273 274.817 512.49 273.533 512.49 271.7C512.49 269.867 512.248 268.608 511.765 267.925C511.282 267.225 510.382 266.875 509.065 266.875C507.765 266.875 506.865 267.225 506.365 267.925C505.882 268.608 505.64 269.867 505.64 271.7ZM517.473 278V265.5H519.323V267.2C520.773 266.2 522.298 265.542 523.898 265.225V267.125C523.198 267.258 522.465 267.467 521.698 267.75C520.948 268.033 520.373 268.283 519.973 268.5L519.348 268.825V278H517.473ZM530.04 266.925C528.224 266.925 527.315 267.558 527.315 268.825C527.315 269.408 527.524 269.825 527.94 270.075C528.357 270.308 529.307 270.558 530.79 270.825C532.274 271.075 533.324 271.433 533.94 271.9C534.557 272.367 534.865 273.242 534.865 274.525C534.865 275.808 534.449 276.75 533.615 277.35C532.799 277.95 531.599 278.25 530.015 278.25C528.982 278.25 527.765 278.133 526.365 277.9L525.615 277.775L525.715 276.15C527.615 276.433 529.049 276.575 530.015 276.575C530.982 276.575 531.715 276.425 532.215 276.125C532.732 275.808 532.99 275.292 532.99 274.575C532.99 273.842 532.774 273.35 532.34 273.1C531.907 272.833 530.957 272.583 529.49 272.35C528.024 272.117 526.982 271.775 526.365 271.325C525.749 270.875 525.44 270.042 525.44 268.825C525.44 267.608 525.865 266.708 526.715 266.125C527.582 265.542 528.657 265.25 529.94 265.25C530.957 265.25 532.232 265.367 533.765 265.6L534.465 265.725L534.415 267.325C532.565 267.058 531.107 266.925 530.04 266.925ZM552.055 269.275V275.675C552.105 276.292 552.588 276.658 553.505 276.775L553.43 278.25C552.113 278.25 551.121 277.917 550.455 277.25C548.955 277.917 547.455 278.25 545.955 278.25C544.805 278.25 543.93 277.925 543.33 277.275C542.73 276.625 542.43 275.692 542.43 274.475C542.43 273.258 542.738 272.367 543.355 271.8C543.971 271.217 544.938 270.858 546.255 270.725L550.18 270.35V269.275C550.18 268.425 549.996 267.817 549.63 267.45C549.263 267.083 548.763 266.9 548.13 266.9C546.796 266.9 545.413 266.983 543.98 267.15L543.205 267.225L543.13 265.8C544.963 265.433 546.588 265.25 548.005 265.25C549.421 265.25 550.446 265.575 551.08 266.225C551.73 266.875 552.055 267.892 552.055 269.275ZM544.355 274.375C544.355 275.908 544.988 276.675 546.255 276.675C547.388 276.675 548.505 276.483 549.605 276.1L550.18 275.9V271.775L546.48 272.125C545.73 272.192 545.188 272.408 544.855 272.775C544.521 273.142 544.355 273.675 544.355 274.375ZM557.629 278H555.754V265.5H557.604V266.375C558.954 265.625 560.246 265.25 561.479 265.25C563.146 265.25 564.262 265.7 564.829 266.6C565.412 267.5 565.704 269.1 565.704 271.4V278H563.854V271.45C563.854 269.717 563.679 268.533 563.329 267.9C562.996 267.25 562.271 266.925 561.154 266.925C560.621 266.925 560.054 267.008 559.454 267.175C558.871 267.325 558.421 267.475 558.104 267.625L557.629 267.85V278ZM578.782 260.05V278H576.932V277.15C575.649 277.883 574.382 278.25 573.132 278.25C572.465 278.25 571.882 278.167 571.382 278C570.882 277.833 570.415 277.533 569.982 277.1C569.082 276.2 568.632 274.542 568.632 272.125C568.632 269.692 569.032 267.942 569.832 266.875C570.649 265.792 571.99 265.25 573.857 265.25C574.824 265.25 575.849 265.358 576.932 265.575V260.05H578.782ZM571.432 275.75C571.699 276.067 571.982 276.283 572.282 276.4C572.582 276.517 572.965 276.575 573.432 276.575C573.915 276.575 574.449 276.5 575.032 276.35C575.632 276.183 576.099 276.025 576.432 275.875L576.932 275.65V267.175C575.865 266.975 574.874 266.875 573.957 266.875C572.69 266.875 571.807 267.283 571.307 268.1C570.807 268.9 570.557 270.15 570.557 271.85C570.557 273.783 570.849 275.083 571.432 275.75ZM587.907 283.55V265.5H589.757V266.4C591.024 265.633 592.274 265.25 593.507 265.25C595.091 265.25 596.241 265.758 596.957 266.775C597.674 267.775 598.032 269.433 598.032 271.75C598.032 274.067 597.607 275.733 596.757 276.75C595.924 277.75 594.532 278.25 592.582 278.25C591.566 278.25 590.632 278.158 589.782 277.975V283.55H587.907ZM593.232 266.925C592.732 266.925 592.191 267.008 591.607 267.175C591.041 267.342 590.591 267.508 590.257 267.675L589.782 267.925V276.35C590.966 276.533 591.866 276.625 592.482 276.625C593.832 276.625 594.774 276.242 595.307 275.475C595.857 274.708 596.132 273.458 596.132 271.725C596.132 269.992 595.882 268.758 595.382 268.025C594.899 267.292 594.182 266.925 593.232 266.925ZM609.916 269.275V275.675C609.966 276.292 610.449 276.658 611.366 276.775L611.291 278.25C609.974 278.25 608.983 277.917 608.316 277.25C606.816 277.917 605.316 278.25 603.816 278.25C602.666 278.25 601.791 277.925 601.191 277.275C600.591 276.625 600.291 275.692 600.291 274.475C600.291 273.258 600.599 272.367 601.216 271.8C601.833 271.217 602.799 270.858 604.116 270.725L608.041 270.35V269.275C608.041 268.425 607.858 267.817 607.491 267.45C607.124 267.083 606.624 266.9 605.991 266.9C604.658 266.9 603.274 266.983 601.841 267.15L601.066 267.225L600.991 265.8C602.824 265.433 604.449 265.25 605.866 265.25C607.283 265.25 608.308 265.575 608.941 266.225C609.591 266.875 609.916 267.892 609.916 269.275ZM602.216 274.375C602.216 275.908 602.849 276.675 604.116 276.675C605.249 276.675 606.366 276.483 607.466 276.1L608.041 275.9V271.775L604.341 272.125C603.591 272.192 603.049 272.408 602.716 272.775C602.383 273.142 602.216 273.675 602.216 274.375ZM617.54 266.925C615.724 266.925 614.815 267.558 614.815 268.825C614.815 269.408 615.024 269.825 615.44 270.075C615.857 270.308 616.807 270.558 618.29 270.825C619.774 271.075 620.824 271.433 621.44 271.9C622.057 272.367 622.365 273.242 622.365 274.525C622.365 275.808 621.949 276.75 621.115 277.35C620.299 277.95 619.099 278.25 617.515 278.25C616.482 278.25 615.265 278.133 613.865 277.9L613.115 277.775L613.215 276.15C615.115 276.433 616.549 276.575 617.515 276.575C618.482 276.575 619.215 276.425 619.715 276.125C620.232 275.808 620.49 275.292 620.49 274.575C620.49 273.842 620.274 273.35 619.84 273.1C619.407 272.833 618.457 272.583 616.99 272.35C615.524 272.117 614.482 271.775 613.865 271.325C613.249 270.875 612.94 270.042 612.94 268.825C612.94 267.608 613.365 266.708 614.215 266.125C615.082 265.542 616.157 265.25 617.44 265.25C618.457 265.25 619.732 265.367 621.265 265.6L621.965 265.725L621.915 267.325C620.065 267.058 618.607 266.925 617.54 266.925ZM629.162 266.925C627.345 266.925 626.437 267.558 626.437 268.825C626.437 269.408 626.645 269.825 627.062 270.075C627.478 270.308 628.428 270.558 629.912 270.825C631.395 271.075 632.445 271.433 633.062 271.9C633.678 272.367 633.987 273.242 633.987 274.525C633.987 275.808 633.57 276.75 632.737 277.35C631.92 277.95 630.72 278.25 629.137 278.25C628.103 278.25 626.887 278.133 625.487 277.9L624.737 277.775L624.837 276.15C626.737 276.433 628.17 276.575 629.137 276.575C630.103 276.575 630.837 276.425 631.337 276.125C631.853 275.808 632.112 275.292 632.112 274.575C632.112 273.842 631.895 273.35 631.462 273.1C631.028 272.833 630.078 272.583 628.612 272.35C627.145 272.117 626.103 271.775 625.487 271.325C624.87 270.875 624.562 270.042 624.562 268.825C624.562 267.608 624.987 266.708 625.837 266.125C626.703 265.542 627.778 265.25 629.062 265.25C630.078 265.25 631.353 265.367 632.887 265.6L633.587 265.725L633.537 267.325C631.687 267.058 630.228 266.925 629.162 266.925ZM645.358 276.45L646.083 276.375L646.133 277.85C644.233 278.117 642.608 278.25 641.258 278.25C639.458 278.25 638.183 277.733 637.433 276.7C636.683 275.65 636.308 274.025 636.308 271.825C636.308 267.442 638.049 265.25 641.533 265.25C643.216 265.25 644.474 265.725 645.308 266.675C646.141 267.608 646.558 269.083 646.558 271.1L646.458 272.525H638.208C638.208 273.908 638.458 274.933 638.958 275.6C639.458 276.267 640.324 276.6 641.558 276.6C642.808 276.6 644.074 276.55 645.358 276.45ZM644.683 271.025C644.683 269.492 644.433 268.408 643.933 267.775C643.449 267.142 642.649 266.825 641.533 266.825C640.433 266.825 639.599 267.158 639.033 267.825C638.483 268.492 638.199 269.558 638.183 271.025H644.683ZM653.405 266.925C651.588 266.925 650.68 267.558 650.68 268.825C650.68 269.408 650.888 269.825 651.305 270.075C651.721 270.308 652.671 270.558 654.155 270.825C655.638 271.075 656.688 271.433 657.305 271.9C657.921 272.367 658.23 273.242 658.23 274.525C658.23 275.808 657.813 276.75 656.98 277.35C656.163 277.95 654.963 278.25 653.38 278.25C652.346 278.25 651.13 278.133 649.73 277.9L648.98 277.775L649.08 276.15C650.98 276.433 652.413 276.575 653.38 276.575C654.346 276.575 655.08 276.425 655.58 276.125C656.096 275.808 656.355 275.292 656.355 274.575C656.355 273.842 656.138 273.35 655.705 273.1C655.271 272.833 654.321 272.583 652.855 272.35C651.388 272.117 650.346 271.775 649.73 271.325C649.113 270.875 648.805 270.042 648.805 268.825C648.805 267.608 649.23 266.708 650.08 266.125C650.946 265.542 652.021 265.25 653.305 265.25C654.321 265.25 655.596 265.367 657.13 265.6L657.83 265.725L657.78 267.325C655.93 267.058 654.471 266.925 653.405 266.925ZM666.594 278V265.5H668.469V278H666.594ZM666.594 262.675V260.5H668.469V262.675H666.594ZM678.538 267.125H674.563V273.1C674.563 274.533 674.663 275.475 674.863 275.925C675.079 276.375 675.579 276.6 676.363 276.6L678.588 276.45L678.713 278C677.596 278.183 676.746 278.275 676.163 278.275C674.863 278.275 673.963 277.958 673.463 277.325C672.963 276.692 672.713 275.483 672.713 273.7V267.125H670.938V265.5H672.713V261.675H674.563V265.5H678.538V267.125ZM695.146 269.275V275.675C695.196 276.292 695.679 276.658 696.596 276.775L696.521 278.25C695.204 278.25 694.212 277.917 693.546 277.25C692.046 277.917 690.546 278.25 689.046 278.25C687.896 278.25 687.021 277.925 686.421 277.275C685.821 276.625 685.521 275.692 685.521 274.475C685.521 273.258 685.829 272.367 686.446 271.8C687.062 271.217 688.029 270.858 689.346 270.725L693.271 270.35V269.275C693.271 268.425 693.087 267.817 692.721 267.45C692.354 267.083 691.854 266.9 691.221 266.9C689.887 266.9 688.504 266.983 687.071 267.15L686.296 267.225L686.221 265.8C688.054 265.433 689.679 265.25 691.096 265.25C692.512 265.25 693.537 265.575 694.171 266.225C694.821 266.875 695.146 267.892 695.146 269.275ZM687.446 274.375C687.446 275.908 688.079 276.675 689.346 276.675C690.479 276.675 691.596 276.483 692.696 276.1L693.271 275.9V271.775L689.571 272.125C688.821 272.192 688.279 272.408 687.946 272.775C687.612 273.142 687.446 273.675 687.446 274.375ZM698.995 278V260.05H700.87V278H698.995ZM704.081 271.725C704.081 269.442 704.489 267.792 705.306 266.775C706.123 265.758 707.498 265.25 709.431 265.25C711.381 265.25 712.756 265.758 713.556 266.775C714.373 267.792 714.781 269.442 714.781 271.725C714.781 274.008 714.398 275.667 713.631 276.7C712.864 277.733 711.464 278.25 709.431 278.25C707.398 278.25 705.998 277.733 705.231 276.7C704.464 275.667 704.081 274.008 704.081 271.725ZM706.006 271.7C706.006 273.517 706.223 274.792 706.656 275.525C707.106 276.258 708.031 276.625 709.431 276.625C710.848 276.625 711.773 276.267 712.206 275.55C712.639 274.817 712.856 273.533 712.856 271.7C712.856 269.867 712.614 268.608 712.131 267.925C711.648 267.225 710.748 266.875 709.431 266.875C708.131 266.875 707.231 267.225 706.731 267.925C706.248 268.608 706.006 269.867 706.006 271.7ZM719.714 278H717.839V265.5H719.689V266.375C721.039 265.625 722.331 265.25 723.564 265.25C725.231 265.25 726.347 265.7 726.914 266.6C727.497 267.5 727.789 269.1 727.789 271.4V278H725.939V271.45C725.939 269.717 725.764 268.533 725.414 267.9C725.081 267.25 724.356 266.925 723.239 266.925C722.706 266.925 722.139 267.008 721.539 267.175C720.956 267.325 720.506 267.475 720.189 267.625L719.714 267.85V278ZM736.092 283.875C734.092 283.875 732.692 283.6 731.892 283.05C731.108 282.517 730.717 281.533 730.717 280.1C730.717 279.417 730.867 278.858 731.167 278.425C731.467 278.008 731.975 277.533 732.692 277C732.225 276.683 731.992 276.108 731.992 275.275C731.992 274.992 732.2 274.467 732.617 273.7L732.842 273.3C731.525 272.7 730.867 271.442 730.867 269.525C730.867 266.675 732.425 265.25 735.542 265.25C736.342 265.25 737.083 265.333 737.767 265.5L738.142 265.575L741.842 265.475V267.075L739.467 267.025C740.017 267.575 740.292 268.408 740.292 269.525C740.292 271.092 739.9 272.192 739.117 272.825C738.35 273.442 737.133 273.75 735.467 273.75C735.017 273.75 734.608 273.717 734.242 273.65C733.942 274.383 733.792 274.858 733.792 275.075C733.792 275.592 733.95 275.917 734.267 276.05C734.583 276.167 735.542 276.225 737.142 276.225C738.742 276.225 739.892 276.475 740.592 276.975C741.292 277.475 741.642 278.45 741.642 279.9C741.642 282.55 739.792 283.875 736.092 283.875ZM732.567 279.95C732.567 280.833 732.808 281.442 733.292 281.775C733.792 282.125 734.7 282.3 736.017 282.3C737.35 282.3 738.3 282.117 738.867 281.75C739.45 281.383 739.742 280.767 739.742 279.9C739.742 279.05 739.533 278.5 739.117 278.25C738.7 278 737.883 277.875 736.667 277.875L733.967 277.75C733.417 278.15 733.042 278.5 732.842 278.8C732.658 279.1 732.567 279.483 732.567 279.95ZM732.742 269.525C732.742 270.508 732.958 271.208 733.392 271.625C733.842 272.042 734.575 272.25 735.592 272.25C736.608 272.25 737.333 272.042 737.767 271.625C738.2 271.208 738.417 270.508 738.417 269.525C738.417 268.525 738.2 267.817 737.767 267.4C737.333 266.983 736.608 266.775 735.592 266.775C734.575 266.775 733.842 266.992 733.392 267.425C732.958 267.842 732.742 268.542 732.742 269.525ZM749.602 278V265.5H751.477V278H749.602ZM749.602 262.675V260.5H751.477V262.675H749.602ZM757.471 267.125V278H755.596V267.125H754.021V265.5H755.596V264.375C755.596 262.608 755.846 261.408 756.346 260.775C756.846 260.125 757.721 259.8 758.971 259.8L761.496 259.975L761.471 261.525C760.537 261.492 759.762 261.475 759.146 261.475C758.546 261.475 758.112 261.675 757.846 262.075C757.596 262.475 757.471 263.25 757.471 264.4V265.5H761.096V267.125H757.471ZM770.715 278H768.84V265.5H770.69V266.375C772.04 265.625 773.332 265.25 774.565 265.25C776.232 265.25 777.348 265.7 777.915 266.6C778.498 267.5 778.79 269.1 778.79 271.4V278H776.94V271.45C776.94 269.717 776.765 268.533 776.415 267.9C776.082 267.25 775.357 266.925 774.24 266.925C773.707 266.925 773.14 267.008 772.54 267.175C771.957 267.325 771.507 267.475 771.19 267.625L770.715 267.85V278ZM790.768 276.45L791.493 276.375L791.543 277.85C789.643 278.117 788.018 278.25 786.668 278.25C784.868 278.25 783.593 277.733 782.843 276.7C782.093 275.65 781.718 274.025 781.718 271.825C781.718 267.442 783.459 265.25 786.943 265.25C788.626 265.25 789.884 265.725 790.718 266.675C791.551 267.608 791.968 269.083 791.968 271.1L791.868 272.525H783.618C783.618 273.908 783.868 274.933 784.368 275.6C784.868 276.267 785.734 276.6 786.968 276.6C788.218 276.6 789.484 276.55 790.768 276.45ZM790.093 271.025C790.093 269.492 789.843 268.408 789.343 267.775C788.859 267.142 788.059 266.825 786.943 266.825C785.843 266.825 785.009 267.158 784.443 267.825C783.893 268.492 783.609 269.558 783.593 271.025H790.093ZM799.565 265.25C800.115 265.25 801.048 265.35 802.365 265.55L802.965 265.625L802.89 267.15C801.557 267 800.573 266.925 799.94 266.925C798.523 266.925 797.557 267.267 797.04 267.95C796.54 268.617 796.29 269.867 796.29 271.7C796.29 273.517 796.523 274.783 796.99 275.5C797.473 276.217 798.465 276.575 799.965 276.575L802.915 276.35L802.99 277.9C801.44 278.133 800.282 278.25 799.515 278.25C797.565 278.25 796.215 277.75 795.465 276.75C794.732 275.75 794.365 274.067 794.365 271.7C794.365 269.317 794.765 267.65 795.565 266.7C796.365 265.733 797.698 265.25 799.565 265.25ZM814.132 276.45L814.857 276.375L814.907 277.85C813.007 278.117 811.382 278.25 810.032 278.25C808.232 278.25 806.957 277.733 806.207 276.7C805.457 275.65 805.082 274.025 805.082 271.825C805.082 267.442 806.824 265.25 810.307 265.25C811.99 265.25 813.249 265.725 814.082 266.675C814.915 267.608 815.332 269.083 815.332 271.1L815.232 272.525H806.982C806.982 273.908 807.232 274.933 807.732 275.6C808.232 276.267 809.099 276.6 810.332 276.6C811.582 276.6 812.849 276.55 814.132 276.45ZM813.457 271.025C813.457 269.492 813.207 268.408 812.707 267.775C812.224 267.142 811.424 266.825 810.307 266.825C809.207 266.825 808.374 267.158 807.807 267.825C807.257 268.492 806.974 269.558 806.957 271.025H813.457ZM822.179 266.925C820.362 266.925 819.454 267.558 819.454 268.825C819.454 269.408 819.662 269.825 820.079 270.075C820.496 270.308 821.446 270.558 822.929 270.825C824.412 271.075 825.462 271.433 826.079 271.9C826.696 272.367 827.004 273.242 827.004 274.525C827.004 275.808 826.587 276.75 825.754 277.35C824.937 277.95 823.737 278.25 822.154 278.25C821.121 278.25 819.904 278.133 818.504 277.9L817.754 277.775L817.854 276.15C819.754 276.433 821.187 276.575 822.154 276.575C823.121 276.575 823.854 276.425 824.354 276.125C824.871 275.808 825.129 275.292 825.129 274.575C825.129 273.842 824.912 273.35 824.479 273.1C824.046 272.833 823.096 272.583 821.629 272.35C820.162 272.117 819.121 271.775 818.504 271.325C817.887 270.875 817.579 270.042 817.579 268.825C817.579 267.608 818.004 266.708 818.854 266.125C819.721 265.542 820.796 265.25 822.079 265.25C823.096 265.25 824.371 265.367 825.904 265.6L826.604 265.725L826.554 267.325C824.704 267.058 823.246 266.925 822.179 266.925ZM833.8 266.925C831.984 266.925 831.075 267.558 831.075 268.825C831.075 269.408 831.284 269.825 831.7 270.075C832.117 270.308 833.067 270.558 834.55 270.825C836.034 271.075 837.084 271.433 837.7 271.9C838.317 272.367 838.625 273.242 838.625 274.525C838.625 275.808 838.209 276.75 837.375 277.35C836.559 277.95 835.359 278.25 833.775 278.25C832.742 278.25 831.525 278.133 830.125 277.9L829.375 277.775L829.475 276.15C831.375 276.433 832.809 276.575 833.775 276.575C834.742 276.575 835.475 276.425 835.975 276.125C836.492 275.808 836.75 275.292 836.75 274.575C836.75 273.842 836.534 273.35 836.1 273.1C835.667 272.833 834.717 272.583 833.25 272.35C831.784 272.117 830.742 271.775 830.125 271.325C829.509 270.875 829.2 270.042 829.2 268.825C829.2 267.608 829.625 266.708 830.475 266.125C831.342 265.542 832.417 265.25 833.7 265.25C834.717 265.25 835.992 265.367 837.525 265.6L838.225 265.725L838.175 267.325C836.325 267.058 834.867 266.925 833.8 266.925ZM850.321 269.275V275.675C850.371 276.292 850.855 276.658 851.771 276.775L851.696 278.25C850.38 278.25 849.388 277.917 848.721 277.25C847.221 277.917 845.721 278.25 844.221 278.25C843.071 278.25 842.196 277.925 841.596 277.275C840.996 276.625 840.696 275.692 840.696 274.475C840.696 273.258 841.005 272.367 841.621 271.8C842.238 271.217 843.205 270.858 844.521 270.725L848.446 270.35V269.275C848.446 268.425 848.263 267.817 847.896 267.45C847.53 267.083 847.03 266.9 846.396 266.9C845.063 266.9 843.68 266.983 842.246 267.15L841.471 267.225L841.396 265.8C843.23 265.433 844.855 265.25 846.271 265.25C847.688 265.25 848.713 265.575 849.346 266.225C849.996 266.875 850.321 267.892 850.321 269.275ZM842.621 274.375C842.621 275.908 843.255 276.675 844.521 276.675C845.655 276.675 846.771 276.483 847.871 276.1L848.446 275.9V271.775L844.746 272.125C843.996 272.192 843.455 272.408 843.121 272.775C842.788 273.142 842.621 273.675 842.621 274.375ZM854.021 278V265.5H855.871V267.2C857.321 266.2 858.846 265.542 860.446 265.225V267.125C859.746 267.258 859.012 267.467 858.246 267.75C857.496 268.033 856.921 268.283 856.521 268.5L855.896 268.825V278H854.021ZM861.488 265.5H863.363L866.488 276.375H867.313L870.463 265.5H872.338L867.138 283.55H865.263L866.888 278H865.038L861.488 265.5ZM873.72 278V275.15H875.77V278H873.72Z" fill="#3F3939"/>
<rect x="51" y="56" width="207" height="51" rx="25.5" fill="#F69193"/>
<path d="M94.4 73.03C91.86 73.03 90.59 73.92 90.59 75.7C90.59 76.62 90.89 77.28 91.49 77.68C92.09 78.06 93.41 78.54 95.45 79.12C97.51 79.68 98.96 80.36 99.8 81.16C100.64 81.94 101.06 83.18 101.06 84.88C101.06 87.04 100.44 88.66 99.2 89.74C97.98 90.8 96.31 91.33 94.19 91.33C92.49 91.33 90.61 91.13 88.55 90.73L87.47 90.52L87.8 87.85C90.5 88.21 92.56 88.39 93.98 88.39C96.46 88.39 97.7 87.29 97.7 85.09C97.7 84.23 97.42 83.6 96.86 83.2C96.3 82.78 95.04 82.33 93.08 81.85C91.12 81.35 89.66 80.67 88.7 79.81C87.74 78.95 87.26 77.59 87.26 75.73C87.26 73.87 87.86 72.47 89.06 71.53C90.28 70.57 91.96 70.09 94.1 70.09C95.64 70.09 97.46 70.27 99.56 70.63L100.61 70.81L100.34 73.51C97.54 73.19 95.56 73.03 94.4 73.03ZM113.359 76H116.599V91H113.359V90.07C111.899 90.91 110.549 91.33 109.309 91.33C107.249 91.33 105.869 90.78 105.169 89.68C104.469 88.56 104.119 86.61 104.119 83.83V76H107.389V83.86C107.389 85.66 107.539 86.87 107.839 87.49C108.139 88.11 108.839 88.42 109.939 88.42C111.019 88.42 112.009 88.22 112.909 87.82L113.359 87.64V76ZM120.558 97.45V76H123.798V76.93C125.178 76.09 126.468 75.67 127.668 75.67C129.648 75.67 131.098 76.28 132.018 77.5C132.938 78.7 133.398 80.73 133.398 83.59C133.398 86.43 132.868 88.43 131.808 89.59C130.768 90.75 129.058 91.33 126.678 91.33C125.858 91.33 124.908 91.24 123.828 91.06V97.45H120.558ZM127.098 78.58C126.158 78.58 125.218 78.79 124.278 79.21L123.828 79.42V88.27C124.628 88.43 125.508 88.51 126.468 88.51C127.828 88.51 128.768 88.12 129.288 87.34C129.808 86.56 130.068 85.23 130.068 83.35C130.068 80.17 129.078 78.58 127.098 78.58ZM147.351 88.3L148.191 88.21L148.251 90.64C145.971 91.1 143.951 91.33 142.191 91.33C139.971 91.33 138.371 90.72 137.391 89.5C136.431 88.28 135.951 86.33 135.951 83.65C135.951 78.33 138.121 75.67 142.461 75.67C146.661 75.67 148.761 77.96 148.761 82.54L148.551 84.88H139.251C139.271 86.12 139.541 87.03 140.061 87.61C140.581 88.19 141.551 88.48 142.971 88.48C144.391 88.48 145.851 88.42 147.351 88.3ZM145.551 82.36C145.551 80.88 145.311 79.85 144.831 79.27C144.371 78.67 143.581 78.37 142.461 78.37C141.341 78.37 140.521 78.68 140.001 79.3C139.501 79.92 139.241 80.94 139.221 82.36H145.551ZM151.906 91V76H155.146V77.8C156.846 76.7 158.546 75.99 160.246 75.67V78.94C158.526 79.28 157.056 79.72 155.836 80.26L155.176 80.53V91H151.906ZM161.336 76H164.756L167.636 88.21H168.596L171.596 76H174.926L171.026 91H165.206L161.336 76ZM177.482 91V76H180.752V91H177.482ZM177.482 73.45V70H180.752V73.45H177.482ZM195.128 79.09C192.768 78.77 191.058 78.61 189.998 78.61C188.938 78.61 188.198 78.74 187.778 79C187.378 79.24 187.178 79.63 187.178 80.17C187.178 80.71 187.398 81.09 187.838 81.31C188.298 81.53 189.358 81.79 191.018 82.09C192.698 82.37 193.888 82.82 194.588 83.44C195.288 84.06 195.638 85.16 195.638 86.74C195.638 88.32 195.128 89.48 194.108 90.22C193.108 90.96 191.638 91.33 189.698 91.33C188.478 91.33 186.938 91.16 185.078 90.82L184.148 90.67L184.268 87.94C186.668 88.26 188.398 88.42 189.458 88.42C190.518 88.42 191.268 88.29 191.708 88.03C192.168 87.77 192.398 87.34 192.398 86.74C192.398 86.14 192.178 85.73 191.738 85.51C191.318 85.27 190.288 85.02 188.648 84.76C187.028 84.48 185.838 84.05 185.078 83.47C184.318 82.89 183.938 81.83 183.938 80.29C183.938 78.75 184.458 77.6 185.498 76.84C186.558 76.08 187.908 75.7 189.548 75.7C190.828 75.7 192.398 75.86 194.258 76.18L195.188 76.36L195.128 79.09ZM199.591 77.62C200.631 76.32 202.351 75.67 204.751 75.67C207.151 75.67 208.861 76.32 209.881 77.62C210.921 78.92 211.441 80.87 211.441 83.47C211.441 86.07 210.941 88.03 209.941 89.35C208.941 90.67 207.211 91.33 204.751 91.33C202.291 91.33 200.561 90.67 199.561 89.35C198.561 88.03 198.061 86.07 198.061 83.47C198.061 80.87 198.571 78.92 199.591 77.62ZM202.051 87.37C202.511 88.17 203.411 88.57 204.751 88.57C206.091 88.57 206.991 88.17 207.451 87.37C207.911 86.57 208.141 85.26 208.141 83.44C208.141 81.62 207.891 80.33 207.391 79.57C206.911 78.81 206.031 78.43 204.751 78.43C203.471 78.43 202.581 78.81 202.081 79.57C201.601 80.33 201.361 81.62 201.361 83.44C201.361 85.26 201.591 86.57 202.051 87.37ZM214.689 91V76H217.929V77.8C219.629 76.7 221.329 75.99 223.029 75.67V78.94C221.309 79.28 219.839 79.72 218.619 80.26L217.959 80.53V91H214.689Z" fill="#3F3939"/>
</svg>
