<svg width="917" height="335" viewBox="0 0 917 335" fill="none" xmlns="http://www.w3.org/2000/svg">
<rect width="917" height="335" rx="22" fill="#FCFCFC"/>
<path d="M336.5 69L340.725 51.875H346.25L350.5 69H347.7L346.775 65.325H340.2L339.275 69H336.5ZM342.875 54.2L340.75 62.875H346.225L344.125 54.2H342.875ZM363.346 70.7C363.346 73.4333 361.371 74.8 357.421 74.8C355.521 74.8 354.112 74.5417 353.196 74.025C352.279 73.5083 351.821 72.5667 351.821 71.2C351.821 70.5833 351.971 70.05 352.271 69.6C352.571 69.1667 353.054 68.6917 353.721 68.175C353.171 67.8083 352.896 67.2 352.896 66.35C352.896 66.0167 353.121 65.475 353.571 64.725L353.796 64.35C352.596 63.6333 351.996 62.3833 351.996 60.6C351.996 59.1 352.446 58 353.346 57.3C354.246 56.6 355.462 56.25 356.996 56.25C357.729 56.25 358.454 56.3333 359.171 56.5L359.546 56.575L363.421 56.475V58.675L361.346 58.55C361.796 59.1333 362.021 59.8167 362.021 60.6C362.021 62.2333 361.604 63.3667 360.771 64C359.954 64.6167 358.671 64.925 356.921 64.925C356.487 64.925 356.121 64.8917 355.821 64.825C355.587 65.3917 355.471 65.8333 355.471 66.15C355.471 66.45 355.621 66.6583 355.921 66.775C356.237 66.8917 356.987 66.9583 358.171 66.975C360.154 66.9917 361.512 67.2583 362.246 67.775C362.979 68.2917 363.346 69.2667 363.346 70.7ZM354.496 70.95C354.496 71.5333 354.729 71.95 355.196 72.2C355.662 72.45 356.462 72.575 357.596 72.575C359.612 72.575 360.621 72 360.621 70.85C360.621 70.2 360.437 69.7833 360.071 69.6C359.721 69.4333 359.012 69.3417 357.946 69.325L355.496 69.175C355.129 69.475 354.871 69.75 354.721 70C354.571 70.2667 354.496 70.5833 354.496 70.95ZM354.696 60.6C354.696 61.3667 354.879 61.9333 355.246 62.3C355.612 62.65 356.204 62.825 357.021 62.825C357.837 62.825 358.421 62.65 358.771 62.3C359.137 61.9333 359.321 61.3667 359.321 60.6C359.321 59.8333 359.137 59.275 358.771 58.925C358.404 58.5583 357.812 58.375 356.996 58.375C355.462 58.375 354.696 59.1167 354.696 60.6ZM374.455 66.75L375.155 66.675L375.205 68.7C373.305 69.0833 371.622 69.275 370.155 69.275C368.305 69.275 366.972 68.7667 366.155 67.75C365.355 66.7333 364.955 65.1083 364.955 62.875C364.955 58.4417 366.764 56.225 370.38 56.225C373.88 56.225 375.63 58.1333 375.63 61.95L375.455 63.9H367.705C367.722 64.9333 367.947 65.6917 368.38 66.175C368.814 66.6583 369.622 66.9 370.805 66.9C371.989 66.9 373.205 66.85 374.455 66.75ZM372.955 61.8C372.955 60.5667 372.755 59.7083 372.355 59.225C371.972 58.725 371.314 58.475 370.38 58.475C369.447 58.475 368.764 58.7333 368.33 59.25C367.914 59.7667 367.697 60.6167 367.68 61.8H372.955Z" fill="#3F3939"/>
<path d="M331.766 90.5V107H329.841V92.65L325.591 95.45L324.716 94L329.966 90.5H331.766ZM342.205 105.55C345.221 105.55 346.738 103.633 346.755 99.8C345.088 100.433 343.655 100.75 342.455 100.75C338.855 100.75 337.055 99.075 337.055 95.725C337.055 94.0417 337.571 92.7083 338.605 91.725C339.638 90.7417 341.03 90.25 342.78 90.25C344.796 90.25 346.296 91 347.28 92.5C348.263 93.9833 348.755 96.175 348.755 99.075C348.755 101.958 348.196 104.042 347.08 105.325C345.98 106.608 344.355 107.25 342.205 107.25C340.955 107.25 339.663 107.133 338.33 106.9L337.68 106.8L337.855 105.25C339.355 105.45 340.805 105.55 342.205 105.55ZM342.605 99.05C343.621 99.05 344.796 98.825 346.13 98.375L346.78 98.15C346.73 94.0167 345.396 91.95 342.78 91.95C341.613 91.95 340.696 92.2917 340.03 92.975C339.38 93.6417 339.055 94.5583 339.055 95.725C339.055 97.9417 340.238 99.05 342.605 99.05ZM351.719 101V99.25H359.294V101H351.719ZM373.256 107H362.706V105.375L367.531 100.3C368.364 99.4333 368.973 98.775 369.356 98.325C369.739 97.875 370.081 97.3417 370.381 96.725C370.698 96.1083 370.856 95.4917 370.856 94.875C370.856 93.8083 370.564 93.0583 369.981 92.625C369.398 92.1917 368.489 91.975 367.256 91.975C366.173 91.975 364.964 92.1167 363.631 92.4L362.981 92.525L362.831 90.925C364.414 90.475 366.048 90.25 367.731 90.25C369.414 90.25 370.681 90.6083 371.531 91.325C372.398 92.025 372.831 93.1417 372.831 94.675C372.831 95.8417 372.573 96.8583 372.056 97.725C371.539 98.5917 370.648 99.6333 369.381 100.85L364.981 105.325H373.256V107ZM384.695 90.5V107H382.77V92.65L378.52 95.45L377.645 94L382.895 90.5H384.695Z" fill="#3F3939"/>
<path d="M467.898 69H458.298V51.875H461.073V66.525H467.898V69ZM478.738 66.75L479.438 66.675L479.488 68.7C477.588 69.0833 475.905 69.275 474.438 69.275C472.588 69.275 471.255 68.7667 470.438 67.75C469.638 66.7333 469.238 65.1083 469.238 62.875C469.238 58.4417 471.046 56.225 474.663 56.225C478.163 56.225 479.913 58.1333 479.913 61.95L479.738 63.9H471.988C472.005 64.9333 472.23 65.6917 472.663 66.175C473.096 66.6583 473.905 66.9 475.088 66.9C476.271 66.9 477.488 66.85 478.738 66.75ZM477.238 61.8C477.238 60.5667 477.038 59.7083 476.638 59.225C476.255 58.725 475.596 58.475 474.663 58.475C473.73 58.475 473.046 58.7333 472.613 59.25C472.196 59.7667 471.98 60.6167 471.963 61.8H477.238ZM481.187 56.5H484.037L486.437 66.675H487.237L489.737 56.5H492.512L489.262 69H484.412L481.187 56.5ZM503.347 66.75L504.047 66.675L504.097 68.7C502.197 69.0833 500.514 69.275 499.047 69.275C497.197 69.275 495.864 68.7667 495.047 67.75C494.247 66.7333 493.847 65.1083 493.847 62.875C493.847 58.4417 495.656 56.225 499.272 56.225C502.772 56.225 504.522 58.1333 504.522 61.95L504.347 63.9H496.597C496.614 64.9333 496.839 65.6917 497.272 66.175C497.706 66.6583 498.514 66.9 499.697 66.9C500.881 66.9 502.097 66.85 503.347 66.75ZM501.847 61.8C501.847 60.5667 501.647 59.7083 501.247 59.225C500.864 58.725 500.206 58.475 499.272 58.475C498.339 58.475 497.656 58.7333 497.222 59.25C496.806 59.7667 496.589 60.6167 496.572 61.8H501.847ZM507.293 69V51.3H510.018V69H507.293ZM519.634 57.85C520.501 56.7667 521.934 56.225 523.934 56.225C525.934 56.225 527.359 56.7667 528.209 57.85C529.076 58.9333 529.509 60.5583 529.509 62.725C529.509 64.8917 529.092 66.525 528.259 67.625C527.426 68.725 525.984 69.275 523.934 69.275C521.884 69.275 520.442 68.725 519.609 67.625C518.776 66.525 518.359 64.8917 518.359 62.725C518.359 60.5583 518.784 58.9333 519.634 57.85ZM521.684 65.975C522.067 66.6417 522.817 66.975 523.934 66.975C525.051 66.975 525.801 66.6417 526.184 65.975C526.567 65.3083 526.759 64.2167 526.759 62.7C526.759 61.1833 526.551 60.1083 526.134 59.475C525.734 58.8417 525.001 58.525 523.934 58.525C522.867 58.525 522.126 58.8417 521.709 59.475C521.309 60.1083 521.109 61.1833 521.109 62.7C521.109 64.2167 521.301 65.3083 521.684 65.975ZM535.491 58.825V69H532.791V58.825H531.341V56.5H532.791V55.7C532.791 53.9167 533.049 52.6917 533.566 52.025C534.083 51.3583 534.999 51.025 536.316 51.025L539.016 51.275L538.991 53.5C538.174 53.4667 537.491 53.45 536.941 53.45C536.408 53.45 536.033 53.6167 535.816 53.95C535.599 54.2667 535.491 54.8583 535.491 55.725V56.5H538.791V58.825H535.491ZM546.677 69V51.875H557.477V54.3H549.452V59.15H555.977V61.55H549.452V66.55H557.477V69H546.677ZM558.97 56.5H561.87L564.32 60.825L566.795 56.5H569.695L565.97 62.65L569.695 69H566.795L564.32 64.725L561.87 69H558.97L562.595 62.725L558.97 56.5ZM571.767 74.375V56.5H574.467V57.275C575.617 56.575 576.692 56.225 577.692 56.225C579.342 56.225 580.55 56.7333 581.317 57.75C582.083 58.75 582.467 60.4417 582.467 62.825C582.467 65.1917 582.025 66.8583 581.142 67.825C580.275 68.7917 578.85 69.275 576.867 69.275C576.183 69.275 575.392 69.2 574.492 69.05V74.375H571.767ZM577.217 58.65C576.433 58.65 575.65 58.825 574.867 59.175L574.492 59.35V66.725C575.158 66.8583 575.892 66.925 576.692 66.925C577.825 66.925 578.608 66.6 579.042 65.95C579.475 65.3 579.692 64.1917 579.692 62.625C579.692 59.975 578.867 58.65 577.217 58.65ZM594.094 66.75L594.794 66.675L594.844 68.7C592.944 69.0833 591.261 69.275 589.794 69.275C587.944 69.275 586.611 68.7667 585.794 67.75C584.994 66.7333 584.594 65.1083 584.594 62.875C584.594 58.4417 586.403 56.225 590.019 56.225C593.519 56.225 595.269 58.1333 595.269 61.95L595.094 63.9H587.344C587.361 64.9333 587.586 65.6917 588.019 66.175C588.453 66.6583 589.261 66.9 590.444 66.9C591.628 66.9 592.844 66.85 594.094 66.75ZM592.594 61.8C592.594 60.5667 592.394 59.7083 591.994 59.225C591.611 58.725 590.953 58.475 590.019 58.475C589.086 58.475 588.403 58.7333 587.969 59.25C587.553 59.7667 587.336 60.6167 587.319 61.8H592.594ZM597.89 69V56.5H600.59V58C602.006 57.0833 603.423 56.4917 604.84 56.225V58.95C603.406 59.2333 602.181 59.6 601.165 60.05L600.615 60.275V69H597.89ZM613.648 58.825H610.198V64.325C610.198 65.3417 610.273 66.0167 610.423 66.35C610.573 66.6833 610.956 66.85 611.573 66.85L613.623 66.775L613.748 68.95C612.631 69.1667 611.781 69.275 611.198 69.275C609.781 69.275 608.806 68.95 608.273 68.3C607.756 67.65 607.498 66.425 607.498 64.625V58.825H605.898V56.5H607.498V52.875H610.198V56.5H613.648V58.825ZM615.883 69V56.5H618.608V69H615.883ZM615.883 54.375V51.5H618.608V54.375H615.883ZM630.588 59.075C628.622 58.8083 627.197 58.675 626.313 58.675C625.43 58.675 624.813 58.7833 624.463 59C624.13 59.2 623.963 59.525 623.963 59.975C623.963 60.425 624.147 60.7417 624.513 60.925C624.897 61.1083 625.78 61.325 627.163 61.575C628.563 61.8083 629.555 62.1833 630.138 62.7C630.722 63.2167 631.013 64.1333 631.013 65.45C631.013 66.7667 630.588 67.7333 629.738 68.35C628.905 68.9667 627.68 69.275 626.063 69.275C625.047 69.275 623.763 69.1333 622.213 68.85L621.438 68.725L621.538 66.45C623.538 66.7167 624.98 66.85 625.863 66.85C626.747 66.85 627.372 66.7417 627.738 66.525C628.122 66.3083 628.313 65.95 628.313 65.45C628.313 64.95 628.13 64.6083 627.763 64.425C627.413 64.225 626.555 64.0167 625.188 63.8C623.838 63.5667 622.847 63.2083 622.213 62.725C621.58 62.2417 621.263 61.3583 621.263 60.075C621.263 58.7917 621.697 57.8333 622.563 57.2C623.447 56.5667 624.572 56.25 625.938 56.25C627.005 56.25 628.313 56.3833 629.863 56.65L630.638 56.8L630.588 59.075ZM642.532 66.75L643.232 66.675L643.282 68.7C641.382 69.0833 639.699 69.275 638.232 69.275C636.382 69.275 635.049 68.7667 634.232 67.75C633.432 66.7333 633.032 65.1083 633.032 62.875C633.032 58.4417 634.84 56.225 638.457 56.225C641.957 56.225 643.707 58.1333 643.707 61.95L643.532 63.9H635.782C635.799 64.9333 636.024 65.6917 636.457 66.175C636.89 66.6583 637.699 66.9 638.882 66.9C640.065 66.9 641.282 66.85 642.532 66.75ZM641.032 61.8C641.032 60.5667 640.832 59.7083 640.432 59.225C640.049 58.725 639.39 58.475 638.457 58.475C637.524 58.475 636.84 58.7333 636.407 59.25C635.99 59.7667 635.774 60.6167 635.757 61.8H641.032Z" fill="#3F3939"/>
<path d="M484.291 107V89.7H486.216V107H484.291ZM491.993 107H490.118V94.5H491.968V95.375C493.318 94.625 494.61 94.25 495.843 94.25C497.51 94.25 498.626 94.7 499.193 95.6C499.776 96.5 500.068 98.1 500.068 100.4V107H498.218V100.45C498.218 98.7167 498.043 97.5333 497.693 96.9C497.36 96.25 496.635 95.925 495.518 95.925C494.985 95.925 494.418 96.0083 493.818 96.175C493.235 96.325 492.785 96.475 492.468 96.625L491.993 96.85V107ZM509.947 96.125H505.972V102.1C505.972 103.533 506.072 104.475 506.272 104.925C506.489 105.375 506.989 105.6 507.772 105.6L509.997 105.45L510.122 107C509.006 107.183 508.156 107.275 507.572 107.275C506.272 107.275 505.372 106.958 504.872 106.325C504.372 105.692 504.122 104.483 504.122 102.7V96.125H502.347V94.5H504.122V90.675H505.972V94.5H509.947V96.125ZM520.737 105.45L521.462 105.375L521.512 106.85C519.612 107.117 517.987 107.25 516.637 107.25C514.837 107.25 513.562 106.733 512.812 105.7C512.062 104.65 511.687 103.025 511.687 100.825C511.687 96.4417 513.429 94.25 516.912 94.25C518.595 94.25 519.854 94.725 520.687 95.675C521.52 96.6083 521.937 98.0833 521.937 100.1L521.837 101.525H513.587C513.587 102.908 513.837 103.933 514.337 104.6C514.837 105.267 515.704 105.6 516.937 105.6C518.187 105.6 519.454 105.55 520.737 105.45ZM520.062 100.025C520.062 98.4917 519.812 97.4083 519.312 96.775C518.829 96.1417 518.029 95.825 516.912 95.825C515.812 95.825 514.979 96.1583 514.412 96.825C513.862 97.4917 513.579 98.5583 513.562 100.025H520.062ZM524.859 107V94.5H526.709V96.2C528.159 95.2 529.684 94.5417 531.284 94.225V96.125C530.584 96.2583 529.851 96.4667 529.084 96.75C528.334 97.0333 527.759 97.2833 527.359 97.5L526.734 97.825V107H524.859ZM535.377 107H533.502V94.5H535.352V95.375C536.602 94.625 537.818 94.25 539.002 94.25C540.552 94.25 541.635 94.675 542.252 95.525C542.802 95.1917 543.51 94.9 544.377 94.65C545.26 94.3833 546.035 94.25 546.702 94.25C548.368 94.25 549.485 94.7 550.052 95.6C550.635 96.4833 550.927 98.0833 550.927 100.4V107H549.052V100.45C549.052 98.7167 548.885 97.5333 548.552 96.9C548.218 96.25 547.51 95.925 546.427 95.925C545.877 95.925 545.31 96.0083 544.727 96.175C544.143 96.325 543.693 96.475 543.377 96.625L542.902 96.85C543.118 97.4 543.227 98.6167 543.227 100.5V107H541.352V100.55C541.352 98.75 541.185 97.5333 540.852 96.9C540.535 96.25 539.827 95.925 538.727 95.925C538.193 95.925 537.643 96.0083 537.077 96.175C536.527 96.325 536.102 96.475 535.802 96.625L535.377 96.85V107ZM562.9 105.45L563.625 105.375L563.675 106.85C561.775 107.117 560.15 107.25 558.8 107.25C557 107.25 555.725 106.733 554.975 105.7C554.225 104.65 553.85 103.025 553.85 100.825C553.85 96.4417 555.592 94.25 559.075 94.25C560.758 94.25 562.017 94.725 562.85 95.675C563.683 96.6083 564.1 98.0833 564.1 100.1L564 101.525H555.75C555.75 102.908 556 103.933 556.5 104.6C557 105.267 557.867 105.6 559.1 105.6C560.35 105.6 561.617 105.55 562.9 105.45ZM562.225 100.025C562.225 98.4917 561.975 97.4083 561.475 96.775C560.992 96.1417 560.192 95.825 559.075 95.825C557.975 95.825 557.142 96.1583 556.575 96.825C556.025 97.4917 555.742 98.5583 555.725 100.025H562.225ZM576.622 89.05V107H574.772V106.15C573.489 106.883 572.222 107.25 570.972 107.25C570.306 107.25 569.722 107.167 569.222 107C568.722 106.833 568.256 106.533 567.822 106.1C566.922 105.2 566.472 103.542 566.472 101.125C566.472 98.6917 566.872 96.9417 567.672 95.875C568.489 94.7917 569.831 94.25 571.697 94.25C572.664 94.25 573.689 94.3583 574.772 94.575V89.05H576.622ZM569.272 104.75C569.539 105.067 569.822 105.283 570.122 105.4C570.422 105.517 570.806 105.575 571.272 105.575C571.756 105.575 572.289 105.5 572.872 105.35C573.472 105.183 573.939 105.025 574.272 104.875L574.772 104.65V96.175C573.706 95.975 572.714 95.875 571.797 95.875C570.531 95.875 569.647 96.2833 569.147 97.1C568.647 97.9 568.397 99.15 568.397 100.85C568.397 102.783 568.689 104.083 569.272 104.75ZM580.255 107V94.5H582.13V107H580.255ZM580.255 91.675V89.5H582.13V91.675H580.255ZM594.548 98.275V104.675C594.598 105.292 595.082 105.658 595.998 105.775L595.923 107.25C594.607 107.25 593.615 106.917 592.948 106.25C591.448 106.917 589.948 107.25 588.448 107.25C587.298 107.25 586.423 106.925 585.823 106.275C585.223 105.625 584.923 104.692 584.923 103.475C584.923 102.258 585.232 101.367 585.848 100.8C586.465 100.217 587.432 99.8583 588.748 99.725L592.673 99.35V98.275C592.673 97.425 592.49 96.8167 592.123 96.45C591.757 96.0833 591.257 95.9 590.623 95.9C589.29 95.9 587.907 95.9833 586.473 96.15L585.698 96.225L585.623 94.8C587.457 94.4333 589.082 94.25 590.498 94.25C591.915 94.25 592.94 94.575 593.573 95.225C594.223 95.875 594.548 96.8917 594.548 98.275ZM586.848 103.375C586.848 104.908 587.482 105.675 588.748 105.675C589.882 105.675 590.998 105.483 592.098 105.1L592.673 104.9V100.775L588.973 101.125C588.223 101.192 587.682 101.408 587.348 101.775C587.015 102.142 586.848 102.675 586.848 103.375ZM604.723 96.125H600.748V102.1C600.748 103.533 600.848 104.475 601.048 104.925C601.264 105.375 601.764 105.6 602.548 105.6L604.773 105.45L604.898 107C603.781 107.183 602.931 107.275 602.348 107.275C601.048 107.275 600.148 106.958 599.648 106.325C599.148 105.692 598.898 104.483 598.898 102.7V96.125H597.123V94.5H598.898V90.675H600.748V94.5H604.723V96.125ZM615.512 105.45L616.237 105.375L616.287 106.85C614.387 107.117 612.762 107.25 611.412 107.25C609.612 107.25 608.337 106.733 607.587 105.7C606.837 104.65 606.462 103.025 606.462 100.825C606.462 96.4417 608.204 94.25 611.687 94.25C613.371 94.25 614.629 94.725 615.462 95.675C616.296 96.6083 616.712 98.0833 616.712 100.1L616.612 101.525H608.362C608.362 102.908 608.612 103.933 609.112 104.6C609.612 105.267 610.479 105.6 611.712 105.6C612.962 105.6 614.229 105.55 615.512 105.45ZM614.837 100.025C614.837 98.4917 614.587 97.4083 614.087 96.775C613.604 96.1417 612.804 95.825 611.687 95.825C610.587 95.825 609.754 96.1583 609.187 96.825C608.637 97.4917 608.354 98.5583 608.337 100.025H614.837Z" fill="#FFA234"/>
<path d="M66.6168 199.35V192.2H72.8668V199.35H66.6168ZM97.475 194.875V193.15H102.25V201.65C100.15 202.05 98.275 202.25 96.625 202.25C94.1083 202.25 92.3583 201.525 91.375 200.075C90.4083 198.625 89.925 196.392 89.925 193.375C89.925 190.342 90.4083 188.1 91.375 186.65C92.3583 185.183 94.0917 184.45 96.575 184.45C98.125 184.45 99.7333 184.617 101.4 184.95L102.25 185.1L102.175 186.7C100.108 186.35 98.3167 186.175 96.8 186.175C94.8833 186.175 93.5917 186.733 92.925 187.85C92.2583 188.95 91.925 190.792 91.925 193.375C91.925 195.942 92.2583 197.783 92.925 198.9C93.5917 200 94.875 200.55 96.775 200.55C97.9417 200.55 99.1333 200.433 100.35 200.2V194.875H97.475ZM114.53 193.275V199.675C114.58 200.292 115.064 200.658 115.98 200.775L115.905 202.25C114.589 202.25 113.597 201.917 112.93 201.25C111.43 201.917 109.93 202.25 108.43 202.25C107.28 202.25 106.405 201.925 105.805 201.275C105.205 200.625 104.905 199.692 104.905 198.475C104.905 197.258 105.214 196.367 105.83 195.8C106.447 195.217 107.414 194.858 108.73 194.725L112.655 194.35V193.275C112.655 192.425 112.472 191.817 112.105 191.45C111.739 191.083 111.239 190.9 110.605 190.9C109.272 190.9 107.889 190.983 106.455 191.15L105.68 191.225L105.605 189.8C107.439 189.433 109.064 189.25 110.48 189.25C111.897 189.25 112.922 189.575 113.555 190.225C114.205 190.875 114.53 191.892 114.53 193.275ZM106.83 198.375C106.83 199.908 107.464 200.675 108.73 200.675C109.864 200.675 110.98 200.483 112.08 200.1L112.655 199.9V195.775L108.955 196.125C108.205 196.192 107.664 196.408 107.33 196.775C106.997 197.142 106.83 197.675 106.83 198.375ZM124.705 191.125H120.73V197.1C120.73 198.533 120.83 199.475 121.03 199.925C121.246 200.375 121.746 200.6 122.53 200.6L124.755 200.45L124.88 202C123.763 202.183 122.913 202.275 122.33 202.275C121.03 202.275 120.13 201.958 119.63 201.325C119.13 200.692 118.88 199.483 118.88 197.7V191.125H117.105V189.5H118.88V185.675H120.73V189.5H124.705V191.125ZM128.869 202H126.994V184.05H128.869V190.2C130.203 189.567 131.486 189.25 132.719 189.25C134.386 189.25 135.503 189.7 136.069 190.6C136.653 191.5 136.944 193.1 136.944 195.4V202H135.069V195.45C135.069 193.717 134.894 192.533 134.544 191.9C134.211 191.25 133.494 190.925 132.394 190.925C131.344 190.925 130.328 191.117 129.344 191.5L128.869 191.675V202ZM148.922 200.45L149.647 200.375L149.697 201.85C147.797 202.117 146.172 202.25 144.822 202.25C143.022 202.25 141.747 201.733 140.997 200.7C140.247 199.65 139.872 198.025 139.872 195.825C139.872 191.442 141.614 189.25 145.097 189.25C146.78 189.25 148.039 189.725 148.872 190.675C149.705 191.608 150.122 193.083 150.122 195.1L150.022 196.525H141.772C141.772 197.908 142.022 198.933 142.522 199.6C143.022 200.267 143.889 200.6 145.122 200.6C146.372 200.6 147.639 200.55 148.922 200.45ZM148.247 195.025C148.247 193.492 147.997 192.408 147.497 191.775C147.014 191.142 146.214 190.825 145.097 190.825C143.997 190.825 143.164 191.158 142.597 191.825C142.047 192.492 141.764 193.558 141.747 195.025H148.247ZM153.044 202V189.5H154.894V191.2C156.344 190.2 157.869 189.542 159.469 189.225V191.125C158.769 191.258 158.036 191.467 157.269 191.75C156.519 192.033 155.944 192.283 155.544 192.5L154.919 192.825V202H153.044ZM165.612 190.925C163.795 190.925 162.887 191.558 162.887 192.825C162.887 193.408 163.095 193.825 163.512 194.075C163.928 194.308 164.878 194.558 166.362 194.825C167.845 195.075 168.895 195.433 169.512 195.9C170.128 196.367 170.437 197.242 170.437 198.525C170.437 199.808 170.02 200.75 169.187 201.35C168.37 201.95 167.17 202.25 165.587 202.25C164.553 202.25 163.337 202.133 161.937 201.9L161.187 201.775L161.287 200.15C163.187 200.433 164.62 200.575 165.587 200.575C166.553 200.575 167.287 200.425 167.787 200.125C168.303 199.808 168.562 199.292 168.562 198.575C168.562 197.842 168.345 197.35 167.912 197.1C167.478 196.833 166.528 196.583 165.062 196.35C163.595 196.117 162.553 195.775 161.937 195.325C161.32 194.875 161.012 194.042 161.012 192.825C161.012 191.608 161.437 190.708 162.287 190.125C163.153 189.542 164.228 189.25 165.512 189.25C166.528 189.25 167.803 189.367 169.337 189.6L170.037 189.725L169.987 191.325C168.137 191.058 166.678 190.925 165.612 190.925ZM178.801 202V189.5H180.676V202H178.801ZM178.801 186.675V184.5H180.676V186.675H178.801ZM186.145 202H184.27V189.5H186.12V190.375C187.47 189.625 188.761 189.25 189.995 189.25C191.661 189.25 192.778 189.7 193.345 190.6C193.928 191.5 194.22 193.1 194.22 195.4V202H192.37V195.45C192.37 193.717 192.195 192.533 191.845 191.9C191.511 191.25 190.786 190.925 189.67 190.925C189.136 190.925 188.57 191.008 187.97 191.175C187.386 191.325 186.936 191.475 186.62 191.625L186.145 191.85V202ZM200.097 191.125V202H198.222V191.125H196.647V189.5H198.222V188.375C198.222 186.608 198.472 185.408 198.972 184.775C199.472 184.125 200.347 183.8 201.597 183.8L204.122 183.975L204.097 185.525C203.164 185.492 202.389 185.475 201.772 185.475C201.172 185.475 200.739 185.675 200.472 186.075C200.222 186.475 200.097 187.25 200.097 188.4V189.5H203.722V191.125H200.097ZM205.204 195.725C205.204 193.442 205.612 191.792 206.429 190.775C207.246 189.758 208.621 189.25 210.554 189.25C212.504 189.25 213.879 189.758 214.679 190.775C215.496 191.792 215.904 193.442 215.904 195.725C215.904 198.008 215.521 199.667 214.754 200.7C213.987 201.733 212.587 202.25 210.554 202.25C208.521 202.25 207.121 201.733 206.354 200.7C205.587 199.667 205.204 198.008 205.204 195.725ZM207.129 195.7C207.129 197.517 207.346 198.792 207.779 199.525C208.229 200.258 209.154 200.625 210.554 200.625C211.971 200.625 212.896 200.267 213.329 199.55C213.762 198.817 213.979 197.533 213.979 195.7C213.979 193.867 213.737 192.608 213.254 191.925C212.771 191.225 211.871 190.875 210.554 190.875C209.254 190.875 208.354 191.225 207.854 191.925C207.371 192.608 207.129 193.867 207.129 195.7ZM218.962 202V189.5H220.812V191.2C222.262 190.2 223.787 189.542 225.387 189.225V191.125C224.687 191.258 223.954 191.467 223.187 191.75C222.437 192.033 221.862 192.283 221.462 192.5L220.837 192.825V202H218.962ZM229.48 202H227.605V189.5H229.455V190.375C230.705 189.625 231.921 189.25 233.105 189.25C234.655 189.25 235.738 189.675 236.355 190.525C236.905 190.192 237.613 189.9 238.48 189.65C239.363 189.383 240.138 189.25 240.805 189.25C242.471 189.25 243.588 189.7 244.155 190.6C244.738 191.483 245.03 193.083 245.03 195.4V202H243.155V195.45C243.155 193.717 242.988 192.533 242.655 191.9C242.321 191.25 241.613 190.925 240.53 190.925C239.98 190.925 239.413 191.008 238.83 191.175C238.246 191.325 237.796 191.475 237.48 191.625L237.005 191.85C237.221 192.4 237.33 193.617 237.33 195.5V202H235.455V195.55C235.455 193.75 235.288 192.533 234.955 191.9C234.638 191.25 233.93 190.925 232.83 190.925C232.296 190.925 231.746 191.008 231.18 191.175C230.63 191.325 230.205 191.475 229.905 191.625L229.48 191.85V202ZM257.328 193.275V199.675C257.378 200.292 257.861 200.658 258.778 200.775L258.703 202.25C257.386 202.25 256.395 201.917 255.728 201.25C254.228 201.917 252.728 202.25 251.228 202.25C250.078 202.25 249.203 201.925 248.603 201.275C248.003 200.625 247.703 199.692 247.703 198.475C247.703 197.258 248.011 196.367 248.628 195.8C249.245 195.217 250.211 194.858 251.528 194.725L255.453 194.35V193.275C255.453 192.425 255.27 191.817 254.903 191.45C254.536 191.083 254.036 190.9 253.403 190.9C252.07 190.9 250.686 190.983 249.253 191.15L248.478 191.225L248.403 189.8C250.236 189.433 251.861 189.25 253.278 189.25C254.695 189.25 255.72 189.575 256.353 190.225C257.003 190.875 257.328 191.892 257.328 193.275ZM249.628 198.375C249.628 199.908 250.261 200.675 251.528 200.675C252.661 200.675 253.778 200.483 254.878 200.1L255.453 199.9V195.775L251.753 196.125C251.003 196.192 250.461 196.408 250.128 196.775C249.795 197.142 249.628 197.675 249.628 198.375ZM267.503 191.125H263.528V197.1C263.528 198.533 263.628 199.475 263.828 199.925C264.044 200.375 264.544 200.6 265.328 200.6L267.553 200.45L267.678 202C266.561 202.183 265.711 202.275 265.128 202.275C263.828 202.275 262.928 201.958 262.428 201.325C261.928 200.692 261.678 199.483 261.678 197.7V191.125H259.903V189.5H261.678V185.675H263.528V189.5H267.503V191.125ZM269.792 202V189.5H271.667V202H269.792ZM269.792 186.675V184.5H271.667V186.675H269.792ZM274.711 195.725C274.711 193.442 275.119 191.792 275.936 190.775C276.753 189.758 278.128 189.25 280.061 189.25C282.011 189.25 283.386 189.758 284.186 190.775C285.003 191.792 285.411 193.442 285.411 195.725C285.411 198.008 285.028 199.667 284.261 200.7C283.494 201.733 282.094 202.25 280.061 202.25C278.028 202.25 276.628 201.733 275.861 200.7C275.094 199.667 274.711 198.008 274.711 195.725ZM276.636 195.7C276.636 197.517 276.853 198.792 277.286 199.525C277.736 200.258 278.661 200.625 280.061 200.625C281.478 200.625 282.403 200.267 282.836 199.55C283.269 198.817 283.486 197.533 283.486 195.7C283.486 193.867 283.244 192.608 282.761 191.925C282.278 191.225 281.378 190.875 280.061 190.875C278.761 190.875 277.861 191.225 277.361 191.925C276.878 192.608 276.636 193.867 276.636 195.7ZM290.344 202H288.469V189.5H290.319V190.375C291.669 189.625 292.961 189.25 294.194 189.25C295.861 189.25 296.977 189.7 297.544 190.6C298.127 191.5 298.419 193.1 298.419 195.4V202H296.569V195.45C296.569 193.717 296.394 192.533 296.044 191.9C295.711 191.25 294.986 190.925 293.869 190.925C293.336 190.925 292.769 191.008 292.169 191.175C291.586 191.325 291.136 191.475 290.819 191.625L290.344 191.85V202ZM306.84 195.725C306.84 193.442 307.248 191.792 308.065 190.775C308.882 189.758 310.257 189.25 312.19 189.25C314.14 189.25 315.515 189.758 316.315 190.775C317.132 191.792 317.54 193.442 317.54 195.725C317.54 198.008 317.157 199.667 316.39 200.7C315.623 201.733 314.223 202.25 312.19 202.25C310.157 202.25 308.757 201.733 307.99 200.7C307.223 199.667 306.84 198.008 306.84 195.725ZM308.765 195.7C308.765 197.517 308.982 198.792 309.415 199.525C309.865 200.258 310.79 200.625 312.19 200.625C313.607 200.625 314.532 200.267 314.965 199.55C315.398 198.817 315.615 197.533 315.615 195.7C315.615 193.867 315.373 192.608 314.89 191.925C314.407 191.225 313.507 190.875 312.19 190.875C310.89 190.875 309.99 191.225 309.49 191.925C309.007 192.608 308.765 193.867 308.765 195.7ZM322.473 202H320.598V189.5H322.448V190.375C323.798 189.625 325.09 189.25 326.323 189.25C327.99 189.25 329.106 189.7 329.673 190.6C330.256 191.5 330.548 193.1 330.548 195.4V202H328.698V195.45C328.698 193.717 328.523 192.533 328.173 191.9C327.84 191.25 327.115 190.925 325.998 190.925C325.465 190.925 324.898 191.008 324.298 191.175C323.715 191.325 323.265 191.475 322.948 191.625L322.473 191.85V202ZM348.019 200.45L348.744 200.375L348.794 201.85C346.894 202.117 345.269 202.25 343.919 202.25C342.119 202.25 340.844 201.733 340.094 200.7C339.344 199.65 338.969 198.025 338.969 195.825C338.969 191.442 340.71 189.25 344.194 189.25C345.877 189.25 347.135 189.725 347.969 190.675C348.802 191.608 349.219 193.083 349.219 195.1L349.119 196.525H340.869C340.869 197.908 341.119 198.933 341.619 199.6C342.119 200.267 342.985 200.6 344.219 200.6C345.469 200.6 346.735 200.55 348.019 200.45ZM347.344 195.025C347.344 193.492 347.094 192.408 346.594 191.775C346.11 191.142 345.31 190.825 344.194 190.825C343.094 190.825 342.26 191.158 341.694 191.825C341.144 192.492 340.86 193.558 340.844 195.025H347.344ZM360.966 193.275V199.675C361.016 200.292 361.499 200.658 362.416 200.775L362.341 202.25C361.024 202.25 360.032 201.917 359.366 201.25C357.866 201.917 356.366 202.25 354.866 202.25C353.716 202.25 352.841 201.925 352.241 201.275C351.641 200.625 351.341 199.692 351.341 198.475C351.341 197.258 351.649 196.367 352.266 195.8C352.882 195.217 353.849 194.858 355.166 194.725L359.091 194.35V193.275C359.091 192.425 358.907 191.817 358.541 191.45C358.174 191.083 357.674 190.9 357.041 190.9C355.707 190.9 354.324 190.983 352.891 191.15L352.116 191.225L352.041 189.8C353.874 189.433 355.499 189.25 356.916 189.25C358.332 189.25 359.357 189.575 359.991 190.225C360.641 190.875 360.966 191.892 360.966 193.275ZM353.266 198.375C353.266 199.908 353.899 200.675 355.166 200.675C356.299 200.675 357.416 200.483 358.516 200.1L359.091 199.9V195.775L355.391 196.125C354.641 196.192 354.099 196.408 353.766 196.775C353.432 197.142 353.266 197.675 353.266 198.375ZM369.34 189.25C369.89 189.25 370.824 189.35 372.14 189.55L372.74 189.625L372.665 191.15C371.332 191 370.349 190.925 369.715 190.925C368.299 190.925 367.332 191.267 366.815 191.95C366.315 192.617 366.065 193.867 366.065 195.7C366.065 197.517 366.299 198.783 366.765 199.5C367.249 200.217 368.24 200.575 369.74 200.575L372.69 200.35L372.765 201.9C371.215 202.133 370.057 202.25 369.29 202.25C367.34 202.25 365.99 201.75 365.24 200.75C364.507 199.75 364.14 198.067 364.14 195.7C364.14 193.317 364.54 191.65 365.34 190.7C366.14 189.733 367.474 189.25 369.34 189.25ZM377.429 202H375.554V184.05H377.429V190.2C378.762 189.567 380.046 189.25 381.279 189.25C382.946 189.25 384.062 189.7 384.629 190.6C385.212 191.5 385.504 193.1 385.504 195.4V202H383.629V195.45C383.629 193.717 383.454 192.533 383.104 191.9C382.771 191.25 382.054 190.925 380.954 190.925C379.904 190.925 378.887 191.117 377.904 191.5L377.429 191.675V202ZM400.95 191.125H396.975V197.1C396.975 198.533 397.075 199.475 397.275 199.925C397.491 200.375 397.991 200.6 398.775 200.6L401 200.45L401.125 202C400.008 202.183 399.158 202.275 398.575 202.275C397.275 202.275 396.375 201.958 395.875 201.325C395.375 200.692 395.125 199.483 395.125 197.7V191.125H393.35V189.5H395.125V185.675H396.975V189.5H400.95V191.125ZM403.239 202V189.5H405.089V191.2C406.539 190.2 408.064 189.542 409.664 189.225V191.125C408.964 191.258 408.231 191.467 407.464 191.75C406.714 192.033 406.139 192.283 405.739 192.5L405.114 192.825V202H403.239ZM420.707 193.275V199.675C420.757 200.292 421.24 200.658 422.157 200.775L422.082 202.25C420.765 202.25 419.774 201.917 419.107 201.25C417.607 201.917 416.107 202.25 414.607 202.25C413.457 202.25 412.582 201.925 411.982 201.275C411.382 200.625 411.082 199.692 411.082 198.475C411.082 197.258 411.39 196.367 412.007 195.8C412.624 195.217 413.59 194.858 414.907 194.725L418.832 194.35V193.275C418.832 192.425 418.649 191.817 418.282 191.45C417.915 191.083 417.415 190.9 416.782 190.9C415.449 190.9 414.065 190.983 412.632 191.15L411.857 191.225L411.782 189.8C413.615 189.433 415.24 189.25 416.657 189.25C418.074 189.25 419.099 189.575 419.732 190.225C420.382 190.875 420.707 191.892 420.707 193.275ZM413.007 198.375C413.007 199.908 413.64 200.675 414.907 200.675C416.04 200.675 417.157 200.483 418.257 200.1L418.832 199.9V195.775L415.132 196.125C414.382 196.192 413.84 196.408 413.507 196.775C413.174 197.142 413.007 197.675 413.007 198.375ZM429.081 189.25C429.631 189.25 430.565 189.35 431.881 189.55L432.481 189.625L432.406 191.15C431.073 191 430.09 190.925 429.456 190.925C428.04 190.925 427.073 191.267 426.556 191.95C426.056 192.617 425.806 193.867 425.806 195.7C425.806 197.517 426.04 198.783 426.506 199.5C426.99 200.217 427.981 200.575 429.481 200.575L432.431 200.35L432.506 201.9C430.956 202.133 429.798 202.25 429.031 202.25C427.081 202.25 425.731 201.75 424.981 200.75C424.248 199.75 423.881 198.067 423.881 195.7C423.881 193.317 424.281 191.65 425.081 190.7C425.881 189.733 427.215 189.25 429.081 189.25ZM437.17 202H435.295V184.05H437.17V194.65L439.12 194.55L442.695 189.5H444.82L440.745 195.25L444.995 202H442.87L439.145 196.2L437.17 196.275V202ZM452.751 202V189.5H454.626V202H452.751ZM452.751 186.675V184.5H454.626V186.675H452.751ZM460.095 202H458.22V189.5H460.07V190.375C461.42 189.625 462.712 189.25 463.945 189.25C465.612 189.25 466.728 189.7 467.295 190.6C467.878 191.5 468.17 193.1 468.17 195.4V202H466.32V195.45C466.32 193.717 466.145 192.533 465.795 191.9C465.462 191.25 464.737 190.925 463.62 190.925C463.087 190.925 462.52 191.008 461.92 191.175C461.337 191.325 460.887 191.475 460.57 191.625L460.095 191.85V202ZM483.616 191.125H479.641V197.1C479.641 198.533 479.741 199.475 479.941 199.925C480.157 200.375 480.657 200.6 481.441 200.6L483.666 200.45L483.791 202C482.674 202.183 481.824 202.275 481.241 202.275C479.941 202.275 479.041 201.958 478.541 201.325C478.041 200.692 477.791 199.483 477.791 197.7V191.125H476.016V189.5H477.791V185.675H479.641V189.5H483.616V191.125ZM487.78 202H485.905V184.05H487.78V190.2C489.114 189.567 490.397 189.25 491.63 189.25C493.297 189.25 494.414 189.7 494.98 190.6C495.564 191.5 495.855 193.1 495.855 195.4V202H493.98V195.45C493.98 193.717 493.805 192.533 493.455 191.9C493.122 191.25 492.405 190.925 491.305 190.925C490.255 190.925 489.239 191.117 488.255 191.5L487.78 191.675V202ZM507.833 200.45L508.558 200.375L508.608 201.85C506.708 202.117 505.083 202.25 503.733 202.25C501.933 202.25 500.658 201.733 499.908 200.7C499.158 199.65 498.783 198.025 498.783 195.825C498.783 191.442 500.525 189.25 504.008 189.25C505.692 189.25 506.95 189.725 507.783 190.675C508.617 191.608 509.033 193.083 509.033 195.1L508.933 196.525H500.683C500.683 197.908 500.933 198.933 501.433 199.6C501.933 200.267 502.8 200.6 504.033 200.6C505.283 200.6 506.55 200.55 507.833 200.45ZM507.158 195.025C507.158 193.492 506.908 192.408 506.408 191.775C505.925 191.142 505.125 190.825 504.008 190.825C502.908 190.825 502.075 191.158 501.508 191.825C500.958 192.492 500.675 193.558 500.658 195.025H507.158ZM527.048 184.05V202H525.198V201.15C523.915 201.883 522.648 202.25 521.398 202.25C520.732 202.25 520.148 202.167 519.648 202C519.148 201.833 518.682 201.533 518.248 201.1C517.348 200.2 516.898 198.542 516.898 196.125C516.898 193.692 517.298 191.942 518.098 190.875C518.915 189.792 520.257 189.25 522.123 189.25C523.09 189.25 524.115 189.358 525.198 189.575V184.05H527.048ZM519.698 199.75C519.965 200.067 520.248 200.283 520.548 200.4C520.848 200.517 521.232 200.575 521.698 200.575C522.182 200.575 522.715 200.5 523.298 200.35C523.898 200.183 524.365 200.025 524.698 199.875L525.198 199.65V191.175C524.132 190.975 523.14 190.875 522.223 190.875C520.957 190.875 520.073 191.283 519.573 192.1C519.073 192.9 518.823 194.15 518.823 195.85C518.823 197.783 519.115 199.083 519.698 199.75ZM539.181 200.45L539.906 200.375L539.956 201.85C538.056 202.117 536.431 202.25 535.081 202.25C533.281 202.25 532.006 201.733 531.256 200.7C530.506 199.65 530.131 198.025 530.131 195.825C530.131 191.442 531.873 189.25 535.356 189.25C537.039 189.25 538.298 189.725 539.131 190.675C539.964 191.608 540.381 193.083 540.381 195.1L540.281 196.525H532.031C532.031 197.908 532.281 198.933 532.781 199.6C533.281 200.267 534.148 200.6 535.381 200.6C536.631 200.6 537.898 200.55 539.181 200.45ZM538.506 195.025C538.506 193.492 538.256 192.408 537.756 191.775C537.273 191.142 536.473 190.825 535.356 190.825C534.256 190.825 533.423 191.158 532.856 191.825C532.306 192.492 532.023 193.558 532.006 195.025H538.506ZM547.228 190.925C545.411 190.925 544.503 191.558 544.503 192.825C544.503 193.408 544.711 193.825 545.128 194.075C545.545 194.308 546.495 194.558 547.978 194.825C549.461 195.075 550.511 195.433 551.128 195.9C551.745 196.367 552.053 197.242 552.053 198.525C552.053 199.808 551.636 200.75 550.803 201.35C549.986 201.95 548.786 202.25 547.203 202.25C546.17 202.25 544.953 202.133 543.553 201.9L542.803 201.775L542.903 200.15C544.803 200.433 546.236 200.575 547.203 200.575C548.17 200.575 548.903 200.425 549.403 200.125C549.92 199.808 550.178 199.292 550.178 198.575C550.178 197.842 549.961 197.35 549.528 197.1C549.095 196.833 548.145 196.583 546.678 196.35C545.211 196.117 544.17 195.775 543.553 195.325C542.936 194.875 542.628 194.042 542.628 192.825C542.628 191.608 543.053 190.708 543.903 190.125C544.77 189.542 545.845 189.25 547.128 189.25C548.145 189.25 549.42 189.367 550.953 189.6L551.653 189.725L551.603 191.325C549.753 191.058 548.295 190.925 547.228 190.925ZM554.924 202V189.5H556.799V202H554.924ZM554.924 186.675V184.5H556.799V186.675H554.924ZM565.218 207.875C563.218 207.875 561.818 207.6 561.018 207.05C560.234 206.517 559.843 205.533 559.843 204.1C559.843 203.417 559.993 202.858 560.293 202.425C560.593 202.008 561.101 201.533 561.818 201C561.351 200.683 561.118 200.108 561.118 199.275C561.118 198.992 561.326 198.467 561.743 197.7L561.968 197.3C560.651 196.7 559.993 195.442 559.993 193.525C559.993 190.675 561.551 189.25 564.668 189.25C565.468 189.25 566.209 189.333 566.893 189.5L567.268 189.575L570.968 189.475V191.075L568.593 191.025C569.143 191.575 569.418 192.408 569.418 193.525C569.418 195.092 569.026 196.192 568.243 196.825C567.476 197.442 566.259 197.75 564.593 197.75C564.143 197.75 563.734 197.717 563.368 197.65C563.068 198.383 562.918 198.858 562.918 199.075C562.918 199.592 563.076 199.917 563.393 200.05C563.709 200.167 564.668 200.225 566.268 200.225C567.868 200.225 569.018 200.475 569.718 200.975C570.418 201.475 570.768 202.45 570.768 203.9C570.768 206.55 568.918 207.875 565.218 207.875ZM561.693 203.95C561.693 204.833 561.934 205.442 562.418 205.775C562.918 206.125 563.826 206.3 565.143 206.3C566.476 206.3 567.426 206.117 567.993 205.75C568.576 205.383 568.868 204.767 568.868 203.9C568.868 203.05 568.659 202.5 568.243 202.25C567.826 202 567.009 201.875 565.793 201.875L563.093 201.75C562.543 202.15 562.168 202.5 561.968 202.8C561.784 203.1 561.693 203.483 561.693 203.95ZM561.868 193.525C561.868 194.508 562.084 195.208 562.518 195.625C562.968 196.042 563.701 196.25 564.718 196.25C565.734 196.25 566.459 196.042 566.893 195.625C567.326 195.208 567.543 194.508 567.543 193.525C567.543 192.525 567.326 191.817 566.893 191.4C566.459 190.983 565.734 190.775 564.718 190.775C563.701 190.775 562.968 190.992 562.518 191.425C562.084 191.842 561.868 192.542 561.868 193.525ZM575.11 202H573.235V189.5H575.085V190.375C576.435 189.625 577.726 189.25 578.96 189.25C580.626 189.25 581.743 189.7 582.31 190.6C582.893 191.5 583.185 193.1 583.185 195.4V202H581.335V195.45C581.335 193.717 581.16 192.533 580.81 191.9C580.476 191.25 579.751 190.925 578.635 190.925C578.101 190.925 577.535 191.008 576.935 191.175C576.351 191.325 575.901 191.475 575.585 191.625L575.11 191.85V202ZM595.487 193.275V199.675C595.537 200.292 596.021 200.658 596.937 200.775L596.862 202.25C595.546 202.25 594.554 201.917 593.887 201.25C592.387 201.917 590.887 202.25 589.387 202.25C588.237 202.25 587.362 201.925 586.762 201.275C586.162 200.625 585.862 199.692 585.862 198.475C585.862 197.258 586.171 196.367 586.787 195.8C587.404 195.217 588.371 194.858 589.687 194.725L593.612 194.35V193.275C593.612 192.425 593.429 191.817 593.062 191.45C592.696 191.083 592.196 190.9 591.562 190.9C590.229 190.9 588.846 190.983 587.412 191.15L586.637 191.225L586.562 189.8C588.396 189.433 590.021 189.25 591.437 189.25C592.854 189.25 593.879 189.575 594.512 190.225C595.162 190.875 595.487 191.892 595.487 193.275ZM587.787 198.375C587.787 199.908 588.421 200.675 589.687 200.675C590.821 200.675 591.937 200.483 593.037 200.1L593.612 199.9V195.775L589.912 196.125C589.162 196.192 588.621 196.408 588.287 196.775C587.954 197.142 587.787 197.675 587.787 198.375ZM605.662 191.125H601.687V197.1C601.687 198.533 601.787 199.475 601.987 199.925C602.203 200.375 602.703 200.6 603.487 200.6L605.712 200.45L605.837 202C604.72 202.183 603.87 202.275 603.287 202.275C601.987 202.275 601.087 201.958 600.587 201.325C600.087 200.692 599.837 199.483 599.837 197.7V191.125H598.062V189.5H599.837V185.675H601.687V189.5H605.662V191.125ZM616.451 200.45L617.176 200.375L617.226 201.85C615.326 202.117 613.701 202.25 612.351 202.25C610.551 202.25 609.276 201.733 608.526 200.7C607.776 199.65 607.401 198.025 607.401 195.825C607.401 191.442 609.143 189.25 612.626 189.25C614.31 189.25 615.568 189.725 616.401 190.675C617.235 191.608 617.651 193.083 617.651 195.1L617.551 196.525H609.301C609.301 197.908 609.551 198.933 610.051 199.6C610.551 200.267 611.418 200.6 612.651 200.6C613.901 200.6 615.168 200.55 616.451 200.45ZM615.776 195.025C615.776 193.492 615.526 192.408 615.026 191.775C614.543 191.142 613.743 190.825 612.626 190.825C611.526 190.825 610.693 191.158 610.126 191.825C609.576 192.492 609.293 193.558 609.276 195.025H615.776ZM630.173 184.05V202H628.323V201.15C627.04 201.883 625.773 202.25 624.523 202.25C623.857 202.25 623.273 202.167 622.773 202C622.273 201.833 621.807 201.533 621.373 201.1C620.473 200.2 620.023 198.542 620.023 196.125C620.023 193.692 620.423 191.942 621.223 190.875C622.04 189.792 623.382 189.25 625.248 189.25C626.215 189.25 627.24 189.358 628.323 189.575V184.05H630.173ZM622.823 199.75C623.09 200.067 623.373 200.283 623.673 200.4C623.973 200.517 624.357 200.575 624.823 200.575C625.307 200.575 625.84 200.5 626.423 200.35C627.023 200.183 627.49 200.025 627.823 199.875L628.323 199.65V191.175C627.257 190.975 626.265 190.875 625.348 190.875C624.082 190.875 623.198 191.283 622.698 192.1C622.198 192.9 621.948 194.15 621.948 195.85C621.948 197.783 622.24 199.083 622.823 199.75ZM648.124 193.275V199.675C648.174 200.292 648.657 200.658 649.574 200.775L649.499 202.25C648.182 202.25 647.191 201.917 646.524 201.25C645.024 201.917 643.524 202.25 642.024 202.25C640.874 202.25 639.999 201.925 639.399 201.275C638.799 200.625 638.499 199.692 638.499 198.475C638.499 197.258 638.807 196.367 639.424 195.8C640.041 195.217 641.007 194.858 642.324 194.725L646.249 194.35V193.275C646.249 192.425 646.066 191.817 645.699 191.45C645.332 191.083 644.832 190.9 644.199 190.9C642.866 190.9 641.482 190.983 640.049 191.15L639.274 191.225L639.199 189.8C641.032 189.433 642.657 189.25 644.074 189.25C645.491 189.25 646.516 189.575 647.149 190.225C647.799 190.875 648.124 191.892 648.124 193.275ZM640.424 198.375C640.424 199.908 641.057 200.675 642.324 200.675C643.457 200.675 644.574 200.483 645.674 200.1L646.249 199.9V195.775L642.549 196.125C641.799 196.192 641.257 196.408 640.924 196.775C640.591 197.142 640.424 197.675 640.424 198.375ZM651.823 202V189.5H653.673V191.2C655.123 190.2 656.648 189.542 658.248 189.225V191.125C657.548 191.258 656.815 191.467 656.048 191.75C655.298 192.033 654.723 192.283 654.323 192.5L653.698 192.825V202H651.823ZM668.722 200.45L669.447 200.375L669.497 201.85C667.597 202.117 665.972 202.25 664.622 202.25C662.822 202.25 661.547 201.733 660.797 200.7C660.047 199.65 659.672 198.025 659.672 195.825C659.672 191.442 661.414 189.25 664.897 189.25C666.58 189.25 667.839 189.725 668.672 190.675C669.505 191.608 669.922 193.083 669.922 195.1L669.822 196.525H661.572C661.572 197.908 661.822 198.933 662.322 199.6C662.822 200.267 663.689 200.6 664.922 200.6C666.172 200.6 667.439 200.55 668.722 200.45ZM668.047 195.025C668.047 193.492 667.797 192.408 667.297 191.775C666.814 191.142 666.014 190.825 664.897 190.825C663.797 190.825 662.964 191.158 662.397 191.825C661.847 192.492 661.564 193.558 661.547 195.025H668.047ZM681.669 193.275V199.675C681.719 200.292 682.202 200.658 683.119 200.775L683.044 202.25C681.727 202.25 680.736 201.917 680.069 201.25C678.569 201.917 677.069 202.25 675.569 202.25C674.419 202.25 673.544 201.925 672.944 201.275C672.344 200.625 672.044 199.692 672.044 198.475C672.044 197.258 672.352 196.367 672.969 195.8C673.586 195.217 674.552 194.858 675.869 194.725L679.794 194.35V193.275C679.794 192.425 679.611 191.817 679.244 191.45C678.877 191.083 678.377 190.9 677.744 190.9C676.411 190.9 675.027 190.983 673.594 191.15L672.819 191.225L672.744 189.8C674.577 189.433 676.202 189.25 677.619 189.25C679.036 189.25 680.061 189.575 680.694 190.225C681.344 190.875 681.669 191.892 681.669 193.275ZM673.969 198.375C673.969 199.908 674.602 200.675 675.869 200.675C677.002 200.675 678.119 200.483 679.219 200.1L679.794 199.9V195.775L676.094 196.125C675.344 196.192 674.802 196.408 674.469 196.775C674.136 197.142 673.969 197.675 673.969 198.375ZM685.243 202V199.15H687.293V202H685.243ZM66.6168 237.35V230.2H72.8668V237.35H66.6168ZM90.625 240V222.7H92.55V240H90.625ZM98.3273 240H96.4523V227.5H98.3023V228.375C99.6523 227.625 100.944 227.25 102.177 227.25C103.844 227.25 104.961 227.7 105.527 228.6C106.111 229.5 106.402 231.1 106.402 233.4V240H104.552V233.45C104.552 231.717 104.377 230.533 104.027 229.9C103.694 229.25 102.969 228.925 101.852 228.925C101.319 228.925 100.752 229.008 100.152 229.175C99.569 229.325 99.119 229.475 98.8023 229.625L98.3273 229.85V240ZM114.03 240.25C112.347 240.25 111.138 239.758 110.405 238.775C109.688 237.792 109.33 236.125 109.33 233.775C109.33 231.425 109.763 229.75 110.63 228.75C111.497 227.75 113.03 227.25 115.23 227.25L119.405 227.5V245.55H117.555V239.425C116.388 239.975 115.213 240.25 114.03 240.25ZM115.255 228.875C113.688 228.875 112.622 229.267 112.055 230.05C111.505 230.833 111.23 232.083 111.23 233.8C111.23 235.5 111.455 236.725 111.905 237.475C112.372 238.208 113.147 238.575 114.23 238.575C115.197 238.575 116.155 238.392 117.105 238.025L117.555 237.85V229.025C116.522 228.925 115.755 228.875 115.255 228.875ZM130.839 227.5H132.714V240H130.839V239.125C129.589 239.875 128.356 240.25 127.139 240.25C125.439 240.25 124.306 239.808 123.739 238.925C123.189 238.042 122.914 236.408 122.914 234.025V227.5H124.789V234C124.789 235.817 124.948 237.033 125.264 237.65C125.581 238.267 126.298 238.575 127.414 238.575C127.964 238.575 128.523 238.5 129.089 238.35C129.656 238.183 130.089 238.025 130.389 237.875L130.839 237.65V227.5ZM136.321 240V227.5H138.196V240H136.321ZM136.321 224.675V222.5H138.196V224.675H136.321ZM141.789 240V227.5H143.639V229.2C145.089 228.2 146.614 227.542 148.214 227.225V229.125C147.514 229.258 146.781 229.467 146.014 229.75C145.264 230.033 144.689 230.283 144.289 230.5L143.664 230.825V240H141.789ZM158.688 238.45L159.413 238.375L159.463 239.85C157.563 240.117 155.938 240.25 154.588 240.25C152.788 240.25 151.513 239.733 150.763 238.7C150.013 237.65 149.638 236.025 149.638 233.825C149.638 229.442 151.379 227.25 154.863 227.25C156.546 227.25 157.804 227.725 158.638 228.675C159.471 229.608 159.888 231.083 159.888 233.1L159.788 234.525H151.538C151.538 235.908 151.788 236.933 152.288 237.6C152.788 238.267 153.654 238.6 154.888 238.6C156.138 238.6 157.404 238.55 158.688 238.45ZM158.013 233.025C158.013 231.492 157.763 230.408 157.263 229.775C156.779 229.142 155.979 228.825 154.863 228.825C153.763 228.825 152.929 229.158 152.363 229.825C151.813 230.492 151.529 231.558 151.513 233.025H158.013ZM166.735 228.925C164.918 228.925 164.01 229.558 164.01 230.825C164.01 231.408 164.218 231.825 164.635 232.075C165.051 232.308 166.001 232.558 167.485 232.825C168.968 233.075 170.018 233.433 170.635 233.9C171.251 234.367 171.56 235.242 171.56 236.525C171.56 237.808 171.143 238.75 170.31 239.35C169.493 239.95 168.293 240.25 166.71 240.25C165.676 240.25 164.46 240.133 163.06 239.9L162.31 239.775L162.41 238.15C164.31 238.433 165.743 238.575 166.71 238.575C167.676 238.575 168.41 238.425 168.91 238.125C169.426 237.808 169.685 237.292 169.685 236.575C169.685 235.842 169.468 235.35 169.035 235.1C168.601 234.833 167.651 234.583 166.185 234.35C164.718 234.117 163.676 233.775 163.06 233.325C162.443 232.875 162.135 232.042 162.135 230.825C162.135 229.608 162.56 228.708 163.41 228.125C164.276 227.542 165.351 227.25 166.635 227.25C167.651 227.25 168.926 227.367 170.46 227.6L171.16 227.725L171.11 229.325C169.26 229.058 167.801 228.925 166.735 228.925ZM188.424 238.45L189.149 238.375L189.199 239.85C187.299 240.117 185.674 240.25 184.324 240.25C182.524 240.25 181.249 239.733 180.499 238.7C179.749 237.65 179.374 236.025 179.374 233.825C179.374 229.442 181.116 227.25 184.599 227.25C186.282 227.25 187.541 227.725 188.374 228.675C189.207 229.608 189.624 231.083 189.624 233.1L189.524 234.525H181.274C181.274 235.908 181.524 236.933 182.024 237.6C182.524 238.267 183.391 238.6 184.624 238.6C185.874 238.6 187.141 238.55 188.424 238.45ZM187.749 233.025C187.749 231.492 187.499 230.408 186.999 229.775C186.516 229.142 185.716 228.825 184.599 228.825C183.499 228.825 182.666 229.158 182.099 229.825C181.549 230.492 181.266 231.558 181.249 233.025H187.749ZM191.198 227.5H193.248L196.298 232.4L199.348 227.5H201.398L197.423 233.7L201.373 240H199.323L196.298 235.125L193.248 240H191.198L195.123 233.75L191.198 227.5ZM210.227 229.125H206.252V235.1C206.252 236.533 206.352 237.475 206.552 237.925C206.769 238.375 207.269 238.6 208.052 238.6L210.277 238.45L210.402 240C209.285 240.183 208.435 240.275 207.852 240.275C206.552 240.275 205.652 239.958 205.152 239.325C204.652 238.692 204.402 237.483 204.402 235.7V229.125H202.627V227.5H204.402V223.675H206.252V227.5H210.227V229.125ZM221.017 238.45L221.742 238.375L221.792 239.85C219.892 240.117 218.267 240.25 216.917 240.25C215.117 240.25 213.842 239.733 213.092 238.7C212.342 237.65 211.967 236.025 211.967 233.825C211.967 229.442 213.708 227.25 217.192 227.25C218.875 227.25 220.133 227.725 220.967 228.675C221.8 229.608 222.217 231.083 222.217 233.1L222.117 234.525H213.867C213.867 235.908 214.117 236.933 214.617 237.6C215.117 238.267 215.983 238.6 217.217 238.6C218.467 238.6 219.733 238.55 221.017 238.45ZM220.342 233.025C220.342 231.492 220.092 230.408 219.592 229.775C219.108 229.142 218.308 228.825 217.192 228.825C216.092 228.825 215.258 229.158 214.692 229.825C214.142 230.492 213.858 231.558 213.842 233.025H220.342ZM225.139 240V227.5H226.989V229.2C228.439 228.2 229.964 227.542 231.564 227.225V229.125C230.864 229.258 230.131 229.467 229.364 229.75C228.614 230.033 228.039 230.283 227.639 230.5L227.014 230.825V240H225.139ZM235.656 240H233.781V227.5H235.631V228.375C236.981 227.625 238.273 227.25 239.506 227.25C241.173 227.25 242.29 227.7 242.856 228.6C243.44 229.5 243.731 231.1 243.731 233.4V240H241.881V233.45C241.881 231.717 241.706 230.533 241.356 229.9C241.023 229.25 240.298 228.925 239.181 228.925C238.648 228.925 238.081 229.008 237.481 229.175C236.898 229.325 236.448 229.475 236.131 229.625L235.656 229.85V240ZM256.034 231.275V237.675C256.084 238.292 256.568 238.658 257.484 238.775L257.409 240.25C256.093 240.25 255.101 239.917 254.434 239.25C252.934 239.917 251.434 240.25 249.934 240.25C248.784 240.25 247.909 239.925 247.309 239.275C246.709 238.625 246.409 237.692 246.409 236.475C246.409 235.258 246.718 234.367 247.334 233.8C247.951 233.217 248.918 232.858 250.234 232.725L254.159 232.35V231.275C254.159 230.425 253.976 229.817 253.609 229.45C253.243 229.083 252.743 228.9 252.109 228.9C250.776 228.9 249.393 228.983 247.959 229.15L247.184 229.225L247.109 227.8C248.943 227.433 250.568 227.25 251.984 227.25C253.401 227.25 254.426 227.575 255.059 228.225C255.709 228.875 256.034 229.892 256.034 231.275ZM248.334 236.375C248.334 237.908 248.968 238.675 250.234 238.675C251.368 238.675 252.484 238.483 253.584 238.1L254.159 237.9V233.775L250.459 234.125C249.709 234.192 249.168 234.408 248.834 234.775C248.501 235.142 248.334 235.675 248.334 236.375ZM259.884 240V222.05H261.759V240H259.884ZM273.413 229.125V240H271.538V229.125H269.963V227.5H271.538V226.375C271.538 224.608 271.788 223.408 272.288 222.775C272.788 222.125 273.663 221.8 274.913 221.8L277.438 221.975L277.413 223.525C276.48 223.492 275.705 223.475 275.088 223.475C274.488 223.475 274.055 223.675 273.788 224.075C273.538 224.475 273.413 225.25 273.413 226.4V227.5H277.038V229.125H273.413ZM288.114 231.275V237.675C288.164 238.292 288.648 238.658 289.564 238.775L289.489 240.25C288.173 240.25 287.181 239.917 286.514 239.25C285.014 239.917 283.514 240.25 282.014 240.25C280.864 240.25 279.989 239.925 279.389 239.275C278.789 238.625 278.489 237.692 278.489 236.475C278.489 235.258 278.798 234.367 279.414 233.8C280.031 233.217 280.998 232.858 282.314 232.725L286.239 232.35V231.275C286.239 230.425 286.056 229.817 285.689 229.45C285.323 229.083 284.823 228.9 284.189 228.9C282.856 228.9 281.473 228.983 280.039 229.15L279.264 229.225L279.189 227.8C281.023 227.433 282.648 227.25 284.064 227.25C285.481 227.25 286.506 227.575 287.139 228.225C287.789 228.875 288.114 229.892 288.114 231.275ZM280.414 236.375C280.414 237.908 281.048 238.675 282.314 238.675C283.448 238.675 284.564 238.483 285.664 238.1L286.239 237.9V233.775L282.539 234.125C281.789 234.192 281.248 234.408 280.914 234.775C280.581 235.142 280.414 235.675 280.414 236.375ZM296.489 227.25C297.039 227.25 297.972 227.35 299.289 227.55L299.889 227.625L299.814 229.15C298.48 229 297.497 228.925 296.864 228.925C295.447 228.925 294.48 229.267 293.964 229.95C293.464 230.617 293.214 231.867 293.214 233.7C293.214 235.517 293.447 236.783 293.914 237.5C294.397 238.217 295.389 238.575 296.889 238.575L299.839 238.35L299.914 239.9C298.364 240.133 297.205 240.25 296.439 240.25C294.489 240.25 293.139 239.75 292.389 238.75C291.655 237.75 291.289 236.067 291.289 233.7C291.289 231.317 291.689 229.65 292.489 228.7C293.289 227.733 294.622 227.25 296.489 227.25ZM309.177 229.125H305.202V235.1C305.202 236.533 305.302 237.475 305.502 237.925C305.719 238.375 306.219 238.6 307.002 238.6L309.227 238.45L309.352 240C308.236 240.183 307.386 240.275 306.802 240.275C305.502 240.275 304.602 239.958 304.102 239.325C303.602 238.692 303.352 237.483 303.352 235.7V229.125H301.577V227.5H303.352V223.675H305.202V227.5H309.177V229.125ZM310.917 233.725C310.917 231.442 311.325 229.792 312.142 228.775C312.959 227.758 314.334 227.25 316.267 227.25C318.217 227.25 319.592 227.758 320.392 228.775C321.209 229.792 321.617 231.442 321.617 233.725C321.617 236.008 321.234 237.667 320.467 238.7C319.7 239.733 318.3 240.25 316.267 240.25C314.234 240.25 312.834 239.733 312.067 238.7C311.3 237.667 310.917 236.008 310.917 233.725ZM312.842 233.7C312.842 235.517 313.059 236.792 313.492 237.525C313.942 238.258 314.867 238.625 316.267 238.625C317.684 238.625 318.609 238.267 319.042 237.55C319.475 236.817 319.692 235.533 319.692 233.7C319.692 231.867 319.45 230.608 318.967 229.925C318.484 229.225 317.584 228.875 316.267 228.875C314.967 228.875 314.067 229.225 313.567 229.925C313.084 230.608 312.842 231.867 312.842 233.7ZM324.675 240V227.5H326.525V229.2C327.975 228.2 329.5 227.542 331.1 227.225V229.125C330.4 229.258 329.667 229.467 328.9 229.75C328.15 230.033 327.575 230.283 327.175 230.5L326.55 230.825V240H324.675ZM337.243 228.925C335.426 228.925 334.518 229.558 334.518 230.825C334.518 231.408 334.726 231.825 335.143 232.075C335.559 232.308 336.509 232.558 337.993 232.825C339.476 233.075 340.526 233.433 341.143 233.9C341.759 234.367 342.068 235.242 342.068 236.525C342.068 237.808 341.651 238.75 340.818 239.35C340.001 239.95 338.801 240.25 337.218 240.25C336.184 240.25 334.968 240.133 333.568 239.9L332.818 239.775L332.918 238.15C334.818 238.433 336.251 238.575 337.218 238.575C338.184 238.575 338.918 238.425 339.418 238.125C339.934 237.808 340.193 237.292 340.193 236.575C340.193 235.842 339.976 235.35 339.543 235.1C339.109 234.833 338.159 234.583 336.693 234.35C335.226 234.117 334.184 233.775 333.568 233.325C332.951 232.875 332.643 232.042 332.643 230.825C332.643 229.608 333.068 228.708 333.918 228.125C334.784 227.542 335.859 227.25 337.143 227.25C338.159 227.25 339.434 227.367 340.968 227.6L341.668 227.725L341.618 229.325C339.768 229.058 338.309 228.925 337.243 228.925ZM352.832 229.125V240H350.957V229.125H349.382V227.5H350.957V226.375C350.957 224.608 351.207 223.408 351.707 222.775C352.207 222.125 353.082 221.8 354.332 221.8L356.857 221.975L356.832 223.525C355.899 223.492 355.124 223.475 354.507 223.475C353.907 223.475 353.474 223.675 353.207 224.075C352.957 224.475 352.832 225.25 352.832 226.4V227.5H356.457V229.125H352.832ZM357.938 233.725C357.938 231.442 358.347 229.792 359.163 228.775C359.98 227.758 361.355 227.25 363.288 227.25C365.238 227.25 366.613 227.758 367.413 228.775C368.23 229.792 368.638 231.442 368.638 233.725C368.638 236.008 368.255 237.667 367.488 238.7C366.722 239.733 365.322 240.25 363.288 240.25C361.255 240.25 359.855 239.733 359.088 238.7C358.322 237.667 357.938 236.008 357.938 233.725ZM359.863 233.7C359.863 235.517 360.08 236.792 360.513 237.525C360.963 238.258 361.888 238.625 363.288 238.625C364.705 238.625 365.63 238.267 366.063 237.55C366.497 236.817 366.713 235.533 366.713 233.7C366.713 231.867 366.472 230.608 365.988 229.925C365.505 229.225 364.605 228.875 363.288 228.875C361.988 228.875 361.088 229.225 360.588 229.925C360.105 230.608 359.863 231.867 359.863 233.7ZM371.696 240V227.5H373.546V229.2C374.996 228.2 376.521 227.542 378.121 227.225V229.125C377.421 229.258 376.688 229.467 375.921 229.75C375.171 230.033 374.596 230.283 374.196 230.5L373.571 230.825V240H371.696ZM388.232 229.125V240H386.357V229.125H384.782V227.5H386.357V226.375C386.357 224.608 386.607 223.408 387.107 222.775C387.607 222.125 388.482 221.8 389.732 221.8L392.257 221.975L392.232 223.525C391.299 223.492 390.524 223.475 389.907 223.475C389.307 223.475 388.874 223.675 388.607 224.075C388.357 224.475 388.232 225.25 388.232 226.4V227.5H391.857V229.125H388.232ZM401.909 227.5H403.784V240H401.909V239.125C400.659 239.875 399.425 240.25 398.209 240.25C396.509 240.25 395.375 239.808 394.809 238.925C394.259 238.042 393.984 236.408 393.984 234.025V227.5H395.859V234C395.859 235.817 396.017 237.033 396.334 237.65C396.65 238.267 397.367 238.575 398.484 238.575C399.034 238.575 399.592 238.5 400.159 238.35C400.725 238.183 401.159 238.025 401.459 237.875L401.909 237.65V227.5ZM407.39 240V227.5H409.24V229.2C410.69 228.2 412.215 227.542 413.815 227.225V229.125C413.115 229.258 412.382 229.467 411.615 229.75C410.865 230.033 410.29 230.283 409.89 230.5L409.265 230.825V240H407.39ZM422.507 229.125H418.532V235.1C418.532 236.533 418.632 237.475 418.832 237.925C419.049 238.375 419.549 238.6 420.332 238.6L422.557 238.45L422.682 240C421.566 240.183 420.716 240.275 420.132 240.275C418.832 240.275 417.932 239.958 417.432 239.325C416.932 238.692 416.682 237.483 416.682 235.7V229.125H414.907V227.5H416.682V223.675H418.532V227.5H422.507V229.125ZM426.672 240H424.797V222.05H426.672V228.2C428.005 227.567 429.289 227.25 430.522 227.25C432.189 227.25 433.305 227.7 433.872 228.6C434.455 229.5 434.747 231.1 434.747 233.4V240H432.872V233.45C432.872 231.717 432.697 230.533 432.347 229.9C432.014 229.25 431.297 228.925 430.197 228.925C429.147 228.925 428.13 229.117 427.147 229.5L426.672 229.675V240ZM446.725 238.45L447.45 238.375L447.5 239.85C445.6 240.117 443.975 240.25 442.625 240.25C440.825 240.25 439.55 239.733 438.8 238.7C438.05 237.65 437.675 236.025 437.675 233.825C437.675 229.442 439.416 227.25 442.9 227.25C444.583 227.25 445.841 227.725 446.675 228.675C447.508 229.608 447.925 231.083 447.925 233.1L447.825 234.525H439.575C439.575 235.908 439.825 236.933 440.325 237.6C440.825 238.267 441.691 238.6 442.925 238.6C444.175 238.6 445.441 238.55 446.725 238.45ZM446.05 233.025C446.05 231.492 445.8 230.408 445.3 229.775C444.816 229.142 444.016 228.825 442.9 228.825C441.8 228.825 440.966 229.158 440.4 229.825C439.85 230.492 439.566 231.558 439.55 233.025H446.05ZM450.847 240V227.5H452.697V229.2C454.147 228.2 455.672 227.542 457.272 227.225V229.125C456.572 229.258 455.839 229.467 455.072 229.75C454.322 230.033 453.747 230.283 453.347 230.5L452.722 230.825V240H450.847ZM464.983 240V227.5H466.833V229.2C468.283 228.2 469.808 227.542 471.408 227.225V229.125C470.708 229.258 469.974 229.467 469.208 229.75C468.458 230.033 467.883 230.283 467.483 230.5L466.858 230.825V240H464.983ZM481.881 238.45L482.606 238.375L482.656 239.85C480.756 240.117 479.131 240.25 477.781 240.25C475.981 240.25 474.706 239.733 473.956 238.7C473.206 237.65 472.831 236.025 472.831 233.825C472.831 229.442 474.573 227.25 478.056 227.25C479.739 227.25 480.998 227.725 481.831 228.675C482.664 229.608 483.081 231.083 483.081 233.1L482.981 234.525H474.731C474.731 235.908 474.981 236.933 475.481 237.6C475.981 238.267 476.848 238.6 478.081 238.6C479.331 238.6 480.598 238.55 481.881 238.45ZM481.206 233.025C481.206 231.492 480.956 230.408 480.456 229.775C479.973 229.142 479.173 228.825 478.056 228.825C476.956 228.825 476.123 229.158 475.556 229.825C475.006 230.492 474.723 231.558 474.706 233.025H481.206ZM489.928 228.925C488.111 228.925 487.203 229.558 487.203 230.825C487.203 231.408 487.411 231.825 487.828 232.075C488.245 232.308 489.195 232.558 490.678 232.825C492.161 233.075 493.211 233.433 493.828 233.9C494.445 234.367 494.753 235.242 494.753 236.525C494.753 237.808 494.336 238.75 493.503 239.35C492.686 239.95 491.486 240.25 489.903 240.25C488.87 240.25 487.653 240.133 486.253 239.9L485.503 239.775L485.603 238.15C487.503 238.433 488.936 238.575 489.903 238.575C490.87 238.575 491.603 238.425 492.103 238.125C492.62 237.808 492.878 237.292 492.878 236.575C492.878 235.842 492.661 235.35 492.228 235.1C491.795 234.833 490.845 234.583 489.378 234.35C487.911 234.117 486.87 233.775 486.253 233.325C485.636 232.875 485.328 232.042 485.328 230.825C485.328 229.608 485.753 228.708 486.603 228.125C487.47 227.542 488.545 227.25 489.828 227.25C490.845 227.25 492.12 227.367 493.653 227.6L494.353 227.725L494.303 229.325C492.453 229.058 490.995 228.925 489.928 228.925ZM506.124 238.45L506.849 238.375L506.899 239.85C504.999 240.117 503.374 240.25 502.024 240.25C500.224 240.25 498.949 239.733 498.199 238.7C497.449 237.65 497.074 236.025 497.074 233.825C497.074 229.442 498.816 227.25 502.299 227.25C503.983 227.25 505.241 227.725 506.074 228.675C506.908 229.608 507.324 231.083 507.324 233.1L507.224 234.525H498.974C498.974 235.908 499.224 236.933 499.724 237.6C500.224 238.267 501.091 238.6 502.324 238.6C503.574 238.6 504.841 238.55 506.124 238.45ZM505.449 233.025C505.449 231.492 505.199 230.408 504.699 229.775C504.216 229.142 503.416 228.825 502.299 228.825C501.199 228.825 500.366 229.158 499.799 229.825C499.249 230.492 498.966 231.558 498.949 233.025H505.449ZM519.071 231.275V237.675C519.121 238.292 519.605 238.658 520.521 238.775L520.446 240.25C519.13 240.25 518.138 239.917 517.471 239.25C515.971 239.917 514.471 240.25 512.971 240.25C511.821 240.25 510.946 239.925 510.346 239.275C509.746 238.625 509.446 237.692 509.446 236.475C509.446 235.258 509.755 234.367 510.371 233.8C510.988 233.217 511.955 232.858 513.271 232.725L517.196 232.35V231.275C517.196 230.425 517.013 229.817 516.646 229.45C516.28 229.083 515.78 228.9 515.146 228.9C513.813 228.9 512.43 228.983 510.996 229.15L510.221 229.225L510.146 227.8C511.98 227.433 513.605 227.25 515.021 227.25C516.438 227.25 517.463 227.575 518.096 228.225C518.746 228.875 519.071 229.892 519.071 231.275ZM511.371 236.375C511.371 237.908 512.005 238.675 513.271 238.675C514.405 238.675 515.521 238.483 516.621 238.1L517.196 237.9V233.775L513.496 234.125C512.746 234.192 512.205 234.408 511.871 234.775C511.538 235.142 511.371 235.675 511.371 236.375ZM522.771 240V227.5H524.621V229.2C526.071 228.2 527.596 227.542 529.196 227.225V229.125C528.496 229.258 527.762 229.467 526.996 229.75C526.246 230.033 525.671 230.283 525.271 230.5L524.646 230.825V240H522.771ZM535.844 227.25C536.394 227.25 537.327 227.35 538.644 227.55L539.244 227.625L539.169 229.15C537.836 229 536.852 228.925 536.219 228.925C534.802 228.925 533.836 229.267 533.319 229.95C532.819 230.617 532.569 231.867 532.569 233.7C532.569 235.517 532.802 236.783 533.269 237.5C533.752 238.217 534.744 238.575 536.244 238.575L539.194 238.35L539.269 239.9C537.719 240.133 536.561 240.25 535.794 240.25C533.844 240.25 532.494 239.75 531.744 238.75C531.011 237.75 530.644 236.067 530.644 233.7C530.644 231.317 531.044 229.65 531.844 228.7C532.644 227.733 533.977 227.25 535.844 227.25ZM543.933 240H542.058V222.05H543.933V228.2C545.266 227.567 546.549 227.25 547.783 227.25C549.449 227.25 550.566 227.7 551.133 228.6C551.716 229.5 552.008 231.1 552.008 233.4V240H550.133V233.45C550.133 231.717 549.958 230.533 549.608 229.9C549.274 229.25 548.558 228.925 547.458 228.925C546.408 228.925 545.391 229.117 544.408 229.5L543.933 229.675V240ZM555.361 240V237.15H557.411V240H555.361ZM66.6168 275.35V268.2H72.8668V275.35H66.6168ZM90.625 278V260.7H94.1L99 275.325L103.9 260.7H107.375V278H105.45V262.75H105.1L100.075 277.375H97.925L92.9 262.75H92.55V278H90.625ZM119.096 265.5H120.971V278H119.096V277.125C117.846 277.875 116.613 278.25 115.396 278.25C113.696 278.25 112.563 277.808 111.996 276.925C111.446 276.042 111.171 274.408 111.171 272.025V265.5H113.046V272C113.046 273.817 113.204 275.033 113.521 275.65C113.838 276.267 114.554 276.575 115.671 276.575C116.221 276.575 116.779 276.5 117.346 276.35C117.913 276.183 118.346 276.025 118.646 275.875L119.096 275.65V265.5ZM128.502 266.925C126.686 266.925 125.777 267.558 125.777 268.825C125.777 269.408 125.986 269.825 126.402 270.075C126.819 270.308 127.769 270.558 129.252 270.825C130.736 271.075 131.786 271.433 132.402 271.9C133.019 272.367 133.327 273.242 133.327 274.525C133.327 275.808 132.911 276.75 132.077 277.35C131.261 277.95 130.061 278.25 128.477 278.25C127.444 278.25 126.227 278.133 124.827 277.9L124.077 277.775L124.177 276.15C126.077 276.433 127.511 276.575 128.477 276.575C129.444 276.575 130.177 276.425 130.677 276.125C131.194 275.808 131.452 275.292 131.452 274.575C131.452 273.842 131.236 273.35 130.802 273.1C130.369 272.833 129.419 272.583 127.952 272.35C126.486 272.117 125.444 271.775 124.827 271.325C124.211 270.875 123.902 270.042 123.902 268.825C123.902 267.608 124.327 266.708 125.177 266.125C126.044 265.542 127.119 265.25 128.402 265.25C129.419 265.25 130.694 265.367 132.227 265.6L132.927 265.725L132.877 267.325C131.027 267.058 129.569 266.925 128.502 266.925ZM142.673 267.125H138.698V273.1C138.698 274.533 138.798 275.475 138.998 275.925C139.215 276.375 139.715 276.6 140.498 276.6L142.723 276.45L142.848 278C141.732 278.183 140.882 278.275 140.298 278.275C138.998 278.275 138.098 277.958 137.598 277.325C137.098 276.692 136.848 275.483 136.848 273.7V267.125H135.073V265.5H136.848V261.675H138.698V265.5H142.673V267.125ZM152.331 278H150.456V260.05H152.331V270.65L154.281 270.55L157.856 265.5H159.981L155.906 271.25L160.156 278H158.031L154.306 272.2L152.331 272.275V278ZM164.294 278H162.419V265.5H164.269V266.375C165.619 265.625 166.911 265.25 168.144 265.25C169.811 265.25 170.927 265.7 171.494 266.6C172.077 267.5 172.369 269.1 172.369 271.4V278H170.519V271.45C170.519 269.717 170.344 268.533 169.994 267.9C169.661 267.25 168.936 266.925 167.819 266.925C167.286 266.925 166.719 267.008 166.119 267.175C165.536 267.325 165.086 267.475 164.769 267.625L164.294 267.85V278ZM175.297 271.725C175.297 269.442 175.705 267.792 176.522 266.775C177.339 265.758 178.714 265.25 180.647 265.25C182.597 265.25 183.972 265.758 184.772 266.775C185.589 267.792 185.997 269.442 185.997 271.725C185.997 274.008 185.614 275.667 184.847 276.7C184.08 277.733 182.68 278.25 180.647 278.25C178.614 278.25 177.214 277.733 176.447 276.7C175.68 275.667 175.297 274.008 175.297 271.725ZM177.222 271.7C177.222 273.517 177.439 274.792 177.872 275.525C178.322 276.258 179.247 276.625 180.647 276.625C182.064 276.625 182.989 276.267 183.422 275.55C183.855 274.817 184.072 273.533 184.072 271.7C184.072 269.867 183.83 268.608 183.347 267.925C182.864 267.225 181.964 266.875 180.647 266.875C179.347 266.875 178.447 267.225 177.947 267.925C177.464 268.608 177.222 269.867 177.222 271.7ZM187.908 265.5H189.783L192.308 276.375H192.708L195.683 265.75H197.633L200.608 276.375H201.033L203.533 265.5H205.408L202.433 278H199.308L196.658 268.225L194.008 278H190.883L187.908 265.5ZM221.969 276.45L222.694 276.375L222.744 277.85C220.844 278.117 219.219 278.25 217.869 278.25C216.069 278.25 214.794 277.733 214.044 276.7C213.294 275.65 212.919 274.025 212.919 271.825C212.919 267.442 214.661 265.25 218.144 265.25C219.827 265.25 221.086 265.725 221.919 266.675C222.752 267.608 223.169 269.083 223.169 271.1L223.069 272.525H214.819C214.819 273.908 215.069 274.933 215.569 275.6C216.069 276.267 216.936 276.6 218.169 276.6C219.419 276.6 220.686 276.55 221.969 276.45ZM221.294 271.025C221.294 269.492 221.044 268.408 220.544 267.775C220.061 267.142 219.261 266.825 218.144 266.825C217.044 266.825 216.211 267.158 215.644 267.825C215.094 268.492 214.811 269.558 214.794 271.025H221.294ZM224.721 265.5H226.721L229.646 276.375H230.571L233.596 265.5H235.521L231.996 278H228.246L224.721 265.5ZM246.212 276.45L246.937 276.375L246.987 277.85C245.087 278.117 243.462 278.25 242.112 278.25C240.312 278.25 239.037 277.733 238.287 276.7C237.537 275.65 237.162 274.025 237.162 271.825C237.162 267.442 238.904 265.25 242.387 265.25C244.07 265.25 245.329 265.725 246.162 266.675C246.995 267.608 247.412 269.083 247.412 271.1L247.312 272.525H239.062C239.062 273.908 239.312 274.933 239.812 275.6C240.312 276.267 241.179 276.6 242.412 276.6C243.662 276.6 244.929 276.55 246.212 276.45ZM245.537 271.025C245.537 269.492 245.287 268.408 244.787 267.775C244.304 267.142 243.504 266.825 242.387 266.825C241.287 266.825 240.454 267.158 239.887 267.825C239.337 268.492 239.054 269.558 239.037 271.025H245.537ZM250.334 278V265.5H252.184V267.2C253.634 266.2 255.159 265.542 256.759 265.225V267.125C256.059 267.258 255.326 267.467 254.559 267.75C253.809 268.033 253.234 268.283 252.834 268.5L252.209 268.825V278H250.334ZM257.802 265.5H259.677L262.802 276.375H263.627L266.777 265.5H268.652L263.452 283.55H261.577L263.202 278H261.352L257.802 265.5ZM280.48 266.925C278.663 266.925 277.755 267.558 277.755 268.825C277.755 269.408 277.963 269.825 278.38 270.075C278.797 270.308 279.747 270.558 281.23 270.825C282.713 271.075 283.763 271.433 284.38 271.9C284.997 272.367 285.305 273.242 285.305 274.525C285.305 275.808 284.888 276.75 284.055 277.35C283.238 277.95 282.038 278.25 280.455 278.25C279.422 278.25 278.205 278.133 276.805 277.9L276.055 277.775L276.155 276.15C278.055 276.433 279.488 276.575 280.455 276.575C281.422 276.575 282.155 276.425 282.655 276.125C283.172 275.808 283.43 275.292 283.43 274.575C283.43 273.842 283.213 273.35 282.78 273.1C282.347 272.833 281.397 272.583 279.93 272.35C278.463 272.117 277.422 271.775 276.805 271.325C276.188 270.875 275.88 270.042 275.88 268.825C275.88 267.608 276.305 266.708 277.155 266.125C278.022 265.542 279.097 265.25 280.38 265.25C281.397 265.25 282.672 265.367 284.205 265.6L284.905 265.725L284.855 267.325C283.005 267.058 281.547 266.925 280.48 266.925ZM288.176 278V265.5H290.051V278H288.176ZM288.176 262.675V260.5H290.051V262.675H288.176ZM295.52 278H293.645V265.5H295.495V266.375C296.845 265.625 298.136 265.25 299.37 265.25C301.036 265.25 302.153 265.7 302.72 266.6C303.303 267.5 303.595 269.1 303.595 271.4V278H301.745V271.45C301.745 269.717 301.57 268.533 301.22 267.9C300.886 267.25 300.161 266.925 299.045 266.925C298.511 266.925 297.945 267.008 297.345 267.175C296.761 267.325 296.311 267.475 295.995 267.625L295.52 267.85V278ZM311.897 283.875C309.897 283.875 308.497 283.6 307.697 283.05C306.914 282.517 306.522 281.533 306.522 280.1C306.522 279.417 306.672 278.858 306.972 278.425C307.272 278.008 307.781 277.533 308.497 277C308.031 276.683 307.797 276.108 307.797 275.275C307.797 274.992 308.006 274.467 308.422 273.7L308.647 273.3C307.331 272.7 306.672 271.442 306.672 269.525C306.672 266.675 308.231 265.25 311.347 265.25C312.147 265.25 312.889 265.333 313.572 265.5L313.947 265.575L317.647 265.475V267.075L315.272 267.025C315.822 267.575 316.097 268.408 316.097 269.525C316.097 271.092 315.706 272.192 314.922 272.825C314.156 273.442 312.939 273.75 311.272 273.75C310.822 273.75 310.414 273.717 310.047 273.65C309.747 274.383 309.597 274.858 309.597 275.075C309.597 275.592 309.756 275.917 310.072 276.05C310.389 276.167 311.347 276.225 312.947 276.225C314.547 276.225 315.697 276.475 316.397 276.975C317.097 277.475 317.447 278.45 317.447 279.9C317.447 282.55 315.597 283.875 311.897 283.875ZM308.372 279.95C308.372 280.833 308.614 281.442 309.097 281.775C309.597 282.125 310.506 282.3 311.822 282.3C313.156 282.3 314.106 282.117 314.672 281.75C315.256 281.383 315.547 280.767 315.547 279.9C315.547 279.05 315.339 278.5 314.922 278.25C314.506 278 313.689 277.875 312.472 277.875L309.772 277.75C309.222 278.15 308.847 278.5 308.647 278.8C308.464 279.1 308.372 279.483 308.372 279.95ZM308.547 269.525C308.547 270.508 308.764 271.208 309.197 271.625C309.647 272.042 310.381 272.25 311.397 272.25C312.414 272.25 313.139 272.042 313.572 271.625C314.006 271.208 314.222 270.508 314.222 269.525C314.222 268.525 314.006 267.817 313.572 267.4C313.139 266.983 312.414 266.775 311.397 266.775C310.381 266.775 309.647 266.992 309.197 267.425C308.764 267.842 308.547 268.542 308.547 269.525ZM320.064 278V260.05H321.939V278H320.064ZM334.2 276.45L334.925 276.375L334.975 277.85C333.075 278.117 331.45 278.25 330.1 278.25C328.3 278.25 327.025 277.733 326.275 276.7C325.525 275.65 325.15 274.025 325.15 271.825C325.15 267.442 326.892 265.25 330.375 265.25C332.059 265.25 333.317 265.725 334.15 266.675C334.984 267.608 335.4 269.083 335.4 271.1L335.3 272.525H327.05C327.05 273.908 327.3 274.933 327.8 275.6C328.3 276.267 329.167 276.6 330.4 276.6C331.65 276.6 332.917 276.55 334.2 276.45ZM333.525 271.025C333.525 269.492 333.275 268.408 332.775 267.775C332.292 267.142 331.492 266.825 330.375 266.825C329.275 266.825 328.442 267.158 327.875 267.825C327.325 268.492 327.042 269.558 327.025 271.025H333.525ZM353.416 260.05V278H351.566V277.15C350.282 277.883 349.016 278.25 347.766 278.25C347.099 278.25 346.516 278.167 346.016 278C345.516 277.833 345.049 277.533 344.616 277.1C343.716 276.2 343.266 274.542 343.266 272.125C343.266 269.692 343.666 267.942 344.466 266.875C345.282 265.792 346.624 265.25 348.491 265.25C349.457 265.25 350.482 265.358 351.566 265.575V260.05H353.416ZM346.066 275.75C346.332 276.067 346.616 276.283 346.916 276.4C347.216 276.517 347.599 276.575 348.066 276.575C348.549 276.575 349.082 276.5 349.666 276.35C350.266 276.183 350.732 276.025 351.066 275.875L351.566 275.65V267.175C350.499 266.975 349.507 266.875 348.591 266.875C347.324 266.875 346.441 267.283 345.941 268.1C345.441 268.9 345.191 270.15 345.191 271.85C345.191 273.783 345.482 275.083 346.066 275.75ZM365.548 276.45L366.273 276.375L366.323 277.85C364.423 278.117 362.798 278.25 361.448 278.25C359.648 278.25 358.373 277.733 357.623 276.7C356.873 275.65 356.498 274.025 356.498 271.825C356.498 267.442 358.24 265.25 361.723 265.25C363.406 265.25 364.665 265.725 365.498 266.675C366.331 267.608 366.748 269.083 366.748 271.1L366.648 272.525H358.398C358.398 273.908 358.648 274.933 359.148 275.6C359.648 276.267 360.515 276.6 361.748 276.6C362.998 276.6 364.265 276.55 365.548 276.45ZM364.873 271.025C364.873 269.492 364.623 268.408 364.123 267.775C363.64 267.142 362.84 266.825 361.723 266.825C360.623 266.825 359.79 267.158 359.223 267.825C358.673 268.492 358.39 269.558 358.373 271.025H364.873ZM376.072 267.125H372.097V273.1C372.097 274.533 372.197 275.475 372.397 275.925C372.614 276.375 373.114 276.6 373.897 276.6L376.122 276.45L376.247 278C375.13 278.183 374.28 278.275 373.697 278.275C372.397 278.275 371.497 277.958 370.997 277.325C370.497 276.692 370.247 275.483 370.247 273.7V267.125H368.472V265.5H370.247V261.675H372.097V265.5H376.072V267.125ZM387.187 269.275V275.675C387.237 276.292 387.72 276.658 388.637 276.775L388.562 278.25C387.245 278.25 386.253 277.917 385.587 277.25C384.087 277.917 382.587 278.25 381.087 278.25C379.937 278.25 379.062 277.925 378.462 277.275C377.862 276.625 377.562 275.692 377.562 274.475C377.562 273.258 377.87 272.367 378.487 271.8C379.103 271.217 380.07 270.858 381.387 270.725L385.312 270.35V269.275C385.312 268.425 385.128 267.817 384.762 267.45C384.395 267.083 383.895 266.9 383.262 266.9C381.928 266.9 380.545 266.983 379.112 267.15L378.337 267.225L378.262 265.8C380.095 265.433 381.72 265.25 383.137 265.25C384.553 265.25 385.578 265.575 386.212 266.225C386.862 266.875 387.187 267.892 387.187 269.275ZM379.487 274.375C379.487 275.908 380.12 276.675 381.387 276.675C382.52 276.675 383.637 276.483 384.737 276.1L385.312 275.9V271.775L381.612 272.125C380.862 272.192 380.32 272.408 379.987 272.775C379.653 273.142 379.487 273.675 379.487 274.375ZM390.886 278V265.5H392.761V278H390.886ZM390.886 262.675V260.5H392.761V262.675H390.886ZM396.505 278V260.05H398.38V278H396.505ZM407.084 271.725C407.084 269.442 407.492 267.792 408.309 266.775C409.126 265.758 410.501 265.25 412.434 265.25C414.384 265.25 415.759 265.758 416.559 266.775C417.376 267.792 417.784 269.442 417.784 271.725C417.784 274.008 417.401 275.667 416.634 276.7C415.867 277.733 414.467 278.25 412.434 278.25C410.401 278.25 409.001 277.733 408.234 276.7C407.467 275.667 407.084 274.008 407.084 271.725ZM409.009 271.7C409.009 273.517 409.226 274.792 409.659 275.525C410.109 276.258 411.034 276.625 412.434 276.625C413.851 276.625 414.776 276.267 415.209 275.55C415.642 274.817 415.859 273.533 415.859 271.7C415.859 269.867 415.617 268.608 415.134 267.925C414.651 267.225 413.751 266.875 412.434 266.875C411.134 266.875 410.234 267.225 409.734 267.925C409.251 268.608 409.009 269.867 409.009 271.7ZM422.717 278H420.842V265.5H422.692V266.375C424.042 265.625 425.334 265.25 426.567 265.25C428.234 265.25 429.35 265.7 429.917 266.6C430.5 267.5 430.792 269.1 430.792 271.4V278H428.942V271.45C428.942 269.717 428.767 268.533 428.417 267.9C428.084 267.25 427.359 266.925 426.242 266.925C425.709 266.925 425.142 267.008 424.542 267.175C423.959 267.325 423.509 267.475 423.192 267.625L422.717 267.85V278ZM446.238 267.125H442.263V273.1C442.263 274.533 442.363 275.475 442.563 275.925C442.78 276.375 443.28 276.6 444.063 276.6L446.288 276.45L446.413 278C445.296 278.183 444.446 278.275 443.863 278.275C442.563 278.275 441.663 277.958 441.163 277.325C440.663 276.692 440.413 275.483 440.413 273.7V267.125H438.638V265.5H440.413V261.675H442.263V265.5H446.238V267.125ZM450.403 278H448.528V260.05H450.403V266.2C451.736 265.567 453.019 265.25 454.253 265.25C455.919 265.25 457.036 265.7 457.603 266.6C458.186 267.5 458.478 269.1 458.478 271.4V278H456.603V271.45C456.603 269.717 456.428 268.533 456.078 267.9C455.744 267.25 455.028 266.925 453.928 266.925C452.878 266.925 451.861 267.117 450.878 267.5L450.403 267.675V278ZM470.455 276.45L471.18 276.375L471.23 277.85C469.33 278.117 467.705 278.25 466.355 278.25C464.555 278.25 463.28 277.733 462.53 276.7C461.78 275.65 461.405 274.025 461.405 271.825C461.405 267.442 463.147 265.25 466.63 265.25C468.314 265.25 469.572 265.725 470.405 266.675C471.239 267.608 471.655 269.083 471.655 271.1L471.555 272.525H463.305C463.305 273.908 463.555 274.933 464.055 275.6C464.555 276.267 465.422 276.6 466.655 276.6C467.905 276.6 469.172 276.55 470.455 276.45ZM469.78 271.025C469.78 269.492 469.53 268.408 469.03 267.775C468.547 267.142 467.747 266.825 466.63 266.825C465.53 266.825 464.697 267.158 464.13 267.825C463.58 268.492 463.297 269.558 463.28 271.025H469.78ZM481.946 278H480.071V265.5H481.921V266.375C483.171 265.625 484.387 265.25 485.571 265.25C487.121 265.25 488.204 265.675 488.821 266.525C489.371 266.192 490.079 265.9 490.946 265.65C491.829 265.383 492.604 265.25 493.271 265.25C494.937 265.25 496.054 265.7 496.621 266.6C497.204 267.483 497.496 269.083 497.496 271.4V278H495.621V271.45C495.621 269.717 495.454 268.533 495.121 267.9C494.787 267.25 494.079 266.925 492.996 266.925C492.446 266.925 491.879 267.008 491.296 267.175C490.712 267.325 490.262 267.475 489.946 267.625L489.471 267.85C489.687 268.4 489.796 269.617 489.796 271.5V278H487.921V271.55C487.921 269.75 487.754 268.533 487.421 267.9C487.104 267.25 486.396 266.925 485.296 266.925C484.762 266.925 484.212 267.008 483.646 267.175C483.096 267.325 482.671 267.475 482.371 267.625L481.946 267.85V278ZM509.794 269.275V275.675C509.844 276.292 510.327 276.658 511.244 276.775L511.169 278.25C509.852 278.25 508.861 277.917 508.194 277.25C506.694 277.917 505.194 278.25 503.694 278.25C502.544 278.25 501.669 277.925 501.069 277.275C500.469 276.625 500.169 275.692 500.169 274.475C500.169 273.258 500.477 272.367 501.094 271.8C501.711 271.217 502.677 270.858 503.994 270.725L507.919 270.35V269.275C507.919 268.425 507.736 267.817 507.369 267.45C507.002 267.083 506.502 266.9 505.869 266.9C504.536 266.9 503.152 266.983 501.719 267.15L500.944 267.225L500.869 265.8C502.702 265.433 504.327 265.25 505.744 265.25C507.161 265.25 508.186 265.575 508.819 266.225C509.469 266.875 509.794 267.892 509.794 269.275ZM502.094 274.375C502.094 275.908 502.727 276.675 503.994 276.675C505.127 276.675 506.244 276.483 507.344 276.1L507.919 275.9V271.775L504.219 272.125C503.469 272.192 502.927 272.408 502.594 272.775C502.261 273.142 502.094 273.675 502.094 274.375ZM513.493 283.55V265.5H515.343V266.4C516.61 265.633 517.86 265.25 519.093 265.25C520.677 265.25 521.827 265.758 522.543 266.775C523.26 267.775 523.618 269.433 523.618 271.75C523.618 274.067 523.193 275.733 522.343 276.75C521.51 277.75 520.118 278.25 518.168 278.25C517.152 278.25 516.218 278.158 515.368 277.975V283.55H513.493ZM518.818 266.925C518.318 266.925 517.777 267.008 517.193 267.175C516.627 267.342 516.177 267.508 515.843 267.675L515.368 267.925V276.35C516.552 276.533 517.452 276.625 518.068 276.625C519.418 276.625 520.36 276.242 520.893 275.475C521.443 274.708 521.718 273.458 521.718 271.725C521.718 269.992 521.468 268.758 520.968 268.025C520.485 267.292 519.768 266.925 518.818 266.925ZM540.995 269.275V275.675C541.045 276.292 541.528 276.658 542.445 276.775L542.37 278.25C541.053 278.25 540.062 277.917 539.395 277.25C537.895 277.917 536.395 278.25 534.895 278.25C533.745 278.25 532.87 277.925 532.27 277.275C531.67 276.625 531.37 275.692 531.37 274.475C531.37 273.258 531.678 272.367 532.295 271.8C532.912 271.217 533.878 270.858 535.195 270.725L539.12 270.35V269.275C539.12 268.425 538.937 267.817 538.57 267.45C538.203 267.083 537.703 266.9 537.07 266.9C535.737 266.9 534.353 266.983 532.92 267.15L532.145 267.225L532.07 265.8C533.903 265.433 535.528 265.25 536.945 265.25C538.362 265.25 539.387 265.575 540.02 266.225C540.67 266.875 540.995 267.892 540.995 269.275ZM533.295 274.375C533.295 275.908 533.928 276.675 535.195 276.675C536.328 276.675 537.445 276.483 538.545 276.1L539.12 275.9V271.775L535.42 272.125C534.67 272.192 534.128 272.408 533.795 272.775C533.462 273.142 533.295 273.675 533.295 274.375ZM546.57 278H544.695V265.5H546.545V266.375C547.895 265.625 549.186 265.25 550.42 265.25C552.086 265.25 553.203 265.7 553.77 266.6C554.353 267.5 554.645 269.1 554.645 271.4V278H552.795V271.45C552.795 269.717 552.62 268.533 552.27 267.9C551.936 267.25 551.211 266.925 550.095 266.925C549.561 266.925 548.995 267.008 548.395 267.175C547.811 267.325 547.361 267.475 547.045 267.625L546.57 267.85V278ZM567.722 260.05V278H565.872V277.15C564.589 277.883 563.322 278.25 562.072 278.25C561.406 278.25 560.822 278.167 560.322 278C559.822 277.833 559.356 277.533 558.922 277.1C558.022 276.2 557.572 274.542 557.572 272.125C557.572 269.692 557.972 267.942 558.772 266.875C559.589 265.792 560.931 265.25 562.797 265.25C563.764 265.25 564.789 265.358 565.872 265.575V260.05H567.722ZM560.372 275.75C560.639 276.067 560.922 276.283 561.222 276.4C561.522 276.517 561.906 276.575 562.372 276.575C562.856 276.575 563.389 276.5 563.972 276.35C564.572 276.183 565.039 276.025 565.372 275.875L565.872 275.65V267.175C564.806 266.975 563.814 266.875 562.897 266.875C561.631 266.875 560.747 267.283 560.247 268.1C559.747 268.9 559.497 270.15 559.497 271.85C559.497 273.783 559.789 275.083 560.372 275.75ZM579.248 267.125V278H577.373V267.125H575.798V265.5H577.373V264.375C577.373 262.608 577.623 261.408 578.123 260.775C578.623 260.125 579.498 259.8 580.748 259.8L583.273 259.975L583.248 261.525C582.315 261.492 581.54 261.475 580.923 261.475C580.323 261.475 579.89 261.675 579.623 262.075C579.373 262.475 579.248 263.25 579.248 264.4V265.5H582.873V267.125H579.248ZM593.404 276.45L594.129 276.375L594.179 277.85C592.279 278.117 590.654 278.25 589.304 278.25C587.504 278.25 586.229 277.733 585.479 276.7C584.729 275.65 584.354 274.025 584.354 271.825C584.354 267.442 586.096 265.25 589.579 265.25C591.263 265.25 592.521 265.725 593.354 266.675C594.188 267.608 594.604 269.083 594.604 271.1L594.504 272.525H586.254C586.254 273.908 586.504 274.933 587.004 275.6C587.504 276.267 588.371 276.6 589.604 276.6C590.854 276.6 592.121 276.55 593.404 276.45ZM592.729 271.025C592.729 269.492 592.479 268.408 591.979 267.775C591.496 267.142 590.696 266.825 589.579 266.825C588.479 266.825 587.646 267.158 587.079 267.825C586.529 268.492 586.246 269.558 586.229 271.025H592.729ZM603.928 267.125H599.953V273.1C599.953 274.533 600.053 275.475 600.253 275.925C600.47 276.375 600.97 276.6 601.753 276.6L603.978 276.45L604.103 278C602.987 278.183 602.137 278.275 601.553 278.275C600.253 278.275 599.353 277.958 598.853 277.325C598.353 276.692 598.103 275.483 598.103 273.7V267.125H596.328V265.5H598.103V261.675H599.953V265.5H603.928V267.125ZM610.893 265.25C611.443 265.25 612.376 265.35 613.693 265.55L614.293 265.625L614.218 267.15C612.885 267 611.901 266.925 611.268 266.925C609.851 266.925 608.885 267.267 608.368 267.95C607.868 268.617 607.618 269.867 607.618 271.7C607.618 273.517 607.851 274.783 608.318 275.5C608.801 276.217 609.793 276.575 611.293 276.575L614.243 276.35L614.318 277.9C612.768 278.133 611.61 278.25 610.843 278.25C608.893 278.25 607.543 277.75 606.793 276.75C606.06 275.75 605.693 274.067 605.693 271.7C605.693 269.317 606.093 267.65 606.893 266.7C607.693 265.733 609.026 265.25 610.893 265.25ZM618.982 278H617.107V260.05H618.982V266.2C620.315 265.567 621.598 265.25 622.832 265.25C624.498 265.25 625.615 265.7 626.182 266.6C626.765 267.5 627.057 269.1 627.057 271.4V278H625.182V271.45C625.182 269.717 625.007 268.533 624.657 267.9C624.323 267.25 623.607 266.925 622.507 266.925C621.457 266.925 620.44 267.117 619.457 267.5L618.982 267.675V278ZM636.028 278V265.5H637.903V278H636.028ZM636.028 262.675V260.5H637.903V262.675H636.028ZM643.371 278H641.496V265.5H643.346V266.375C644.696 265.625 645.988 265.25 647.221 265.25C648.888 265.25 650.005 265.7 650.571 266.6C651.155 267.5 651.446 269.1 651.446 271.4V278H649.596V271.45C649.596 269.717 649.421 268.533 649.071 267.9C648.738 267.25 648.013 266.925 646.896 266.925C646.363 266.925 645.796 267.008 645.196 267.175C644.613 267.325 644.163 267.475 643.846 267.625L643.371 267.85V278ZM657.324 267.125V278H655.449V267.125H653.874V265.5H655.449V264.375C655.449 262.608 655.699 261.408 656.199 260.775C656.699 260.125 657.574 259.8 658.824 259.8L661.349 259.975L661.324 261.525C660.391 261.492 659.616 261.475 658.999 261.475C658.399 261.475 657.966 261.675 657.699 262.075C657.449 262.475 657.324 263.25 657.324 264.4V265.5H660.949V267.125H657.324ZM662.431 271.725C662.431 269.442 662.839 267.792 663.656 266.775C664.472 265.758 665.847 265.25 667.781 265.25C669.731 265.25 671.106 265.758 671.906 266.775C672.722 267.792 673.131 269.442 673.131 271.725C673.131 274.008 672.747 275.667 671.981 276.7C671.214 277.733 669.814 278.25 667.781 278.25C665.747 278.25 664.347 277.733 663.581 276.7C662.814 275.667 662.431 274.008 662.431 271.725ZM664.356 271.7C664.356 273.517 664.572 274.792 665.006 275.525C665.456 276.258 666.381 276.625 667.781 276.625C669.197 276.625 670.122 276.267 670.556 275.55C670.989 274.817 671.206 273.533 671.206 271.7C671.206 269.867 670.964 268.608 670.481 267.925C669.997 267.225 669.097 266.875 667.781 266.875C666.481 266.875 665.581 267.225 665.081 267.925C664.597 268.608 664.356 269.867 664.356 271.7ZM676.189 278V265.5H678.039V267.2C679.489 266.2 681.014 265.542 682.614 265.225V267.125C681.914 267.258 681.18 267.467 680.414 267.75C679.664 268.033 679.089 268.283 678.689 268.5L678.064 268.825V278H676.189ZM686.706 278H684.831V265.5H686.681V266.375C687.931 265.625 689.148 265.25 690.331 265.25C691.881 265.25 692.965 265.675 693.581 266.525C694.131 266.192 694.84 265.9 695.706 265.65C696.59 265.383 697.365 265.25 698.031 265.25C699.698 265.25 700.815 265.7 701.381 266.6C701.965 267.483 702.256 269.083 702.256 271.4V278H700.381V271.45C700.381 269.717 700.215 268.533 699.881 267.9C699.548 267.25 698.84 266.925 697.756 266.925C697.206 266.925 696.64 267.008 696.056 267.175C695.473 267.325 695.023 267.475 694.706 267.625L694.231 267.85C694.448 268.4 694.556 269.617 694.556 271.5V278H692.681V271.55C692.681 269.75 692.515 268.533 692.181 267.9C691.865 267.25 691.156 266.925 690.056 266.925C689.523 266.925 688.973 267.008 688.406 267.175C687.856 267.325 687.431 267.475 687.131 267.625L686.706 267.85V278ZM714.555 269.275V275.675C714.605 276.292 715.088 276.658 716.005 276.775L715.93 278.25C714.613 278.25 713.621 277.917 712.955 277.25C711.455 277.917 709.955 278.25 708.455 278.25C707.305 278.25 706.43 277.925 705.83 277.275C705.23 276.625 704.93 275.692 704.93 274.475C704.93 273.258 705.238 272.367 705.855 271.8C706.471 271.217 707.438 270.858 708.755 270.725L712.68 270.35V269.275C712.68 268.425 712.496 267.817 712.13 267.45C711.763 267.083 711.263 266.9 710.63 266.9C709.296 266.9 707.913 266.983 706.48 267.15L705.705 267.225L705.63 265.8C707.463 265.433 709.088 265.25 710.505 265.25C711.921 265.25 712.946 265.575 713.58 266.225C714.23 266.875 714.555 267.892 714.555 269.275ZM706.855 274.375C706.855 275.908 707.488 276.675 708.755 276.675C709.888 276.675 711.005 276.483 712.105 276.1L712.68 275.9V271.775L708.98 272.125C708.23 272.192 707.688 272.408 707.355 272.775C707.021 273.142 706.855 273.675 706.855 274.375ZM724.729 267.125H720.754V273.1C720.754 274.533 720.854 275.475 721.054 275.925C721.271 276.375 721.771 276.6 722.554 276.6L724.779 276.45L724.904 278C723.787 278.183 722.937 278.275 722.354 278.275C721.054 278.275 720.154 277.958 719.654 277.325C719.154 276.692 718.904 275.483 718.904 273.7V267.125H717.129V265.5H718.904V261.675H720.754V265.5H724.729V267.125ZM727.019 278V265.5H728.894V278H727.019ZM727.019 262.675V260.5H728.894V262.675H727.019ZM731.938 271.725C731.938 269.442 732.346 267.792 733.163 266.775C733.979 265.758 735.354 265.25 737.287 265.25C739.238 265.25 740.613 265.758 741.413 266.775C742.229 267.792 742.638 269.442 742.638 271.725C742.638 274.008 742.254 275.667 741.488 276.7C740.721 277.733 739.321 278.25 737.287 278.25C735.254 278.25 733.854 277.733 733.088 276.7C732.321 275.667 731.938 274.008 731.938 271.725ZM733.863 271.7C733.863 273.517 734.079 274.792 734.513 275.525C734.963 276.258 735.888 276.625 737.287 276.625C738.704 276.625 739.629 276.267 740.063 275.55C740.496 274.817 740.713 273.533 740.713 271.7C740.713 269.867 740.471 268.608 739.988 267.925C739.504 267.225 738.604 266.875 737.287 266.875C735.988 266.875 735.088 267.225 734.588 267.925C734.104 268.608 733.863 269.867 733.863 271.7ZM747.571 278H745.696V265.5H747.546V266.375C748.896 265.625 750.187 265.25 751.421 265.25C753.087 265.25 754.204 265.7 754.771 266.6C755.354 267.5 755.646 269.1 755.646 271.4V278H753.796V271.45C753.796 269.717 753.621 268.533 753.271 267.9C752.937 267.25 752.212 266.925 751.096 266.925C750.562 266.925 749.996 267.008 749.396 267.175C748.812 267.325 748.362 267.475 748.046 267.625L747.571 267.85V278ZM768.766 278.25C767.083 278.25 765.875 277.758 765.141 276.775C764.425 275.792 764.066 274.125 764.066 271.775C764.066 269.425 764.5 267.75 765.366 266.75C766.233 265.75 767.766 265.25 769.966 265.25L774.141 265.5V283.55H772.291V277.425C771.125 277.975 769.95 278.25 768.766 278.25ZM769.991 266.875C768.425 266.875 767.358 267.267 766.791 268.05C766.241 268.833 765.966 270.083 765.966 271.8C765.966 273.5 766.191 274.725 766.641 275.475C767.108 276.208 767.883 276.575 768.966 276.575C769.933 276.575 770.891 276.392 771.841 276.025L772.291 275.85V267.025C771.258 266.925 770.491 266.875 769.991 266.875ZM785.576 265.5H787.451V278H785.576V277.125C784.326 277.875 783.092 278.25 781.876 278.25C780.176 278.25 779.042 277.808 778.476 276.925C777.926 276.042 777.651 274.408 777.651 272.025V265.5H779.526V272C779.526 273.817 779.684 275.033 780.001 275.65C780.317 276.267 781.034 276.575 782.151 276.575C782.701 276.575 783.259 276.5 783.826 276.35C784.392 276.183 784.826 276.025 785.126 275.875L785.576 275.65V265.5ZM791.057 278V265.5H792.932V278H791.057ZM791.057 262.675V260.5H792.932V262.675H791.057ZM801.201 265.25C801.751 265.25 802.684 265.35 804.001 265.55L804.601 265.625L804.526 267.15C803.192 267 802.209 266.925 801.576 266.925C800.159 266.925 799.192 267.267 798.676 267.95C798.176 268.617 797.926 269.867 797.926 271.7C797.926 273.517 798.159 274.783 798.626 275.5C799.109 276.217 800.101 276.575 801.601 276.575L804.551 276.35L804.626 277.9C803.076 278.133 801.917 278.25 801.151 278.25C799.201 278.25 797.851 277.75 797.101 276.75C796.367 275.75 796.001 274.067 796.001 271.7C796.001 269.317 796.401 267.65 797.201 266.7C798.001 265.733 799.334 265.25 801.201 265.25ZM809.289 278H807.414V260.05H809.289V270.65L811.239 270.55L814.814 265.5H816.939L812.864 271.25L817.114 278H814.989L811.264 272.2L809.289 272.275V278ZM819.527 278V260.05H821.402V278H819.527ZM823.988 265.5H825.863L828.988 276.375H829.813L832.963 265.5H834.838L829.638 283.55H827.763L829.388 278H827.538L823.988 265.5ZM836.22 278V275.15H838.27V278H836.22Z" fill="#3F3939"/>
<rect x="51" y="56" width="207" height="51" rx="25.5" fill="#F69193"/>
<path d="M87.27 91.33C84.27 91.33 82.23 90.5 81.15 88.84C80.09 87.18 79.56 84.45 79.56 80.65C79.56 76.85 80.1 74.15 81.18 72.55C82.26 70.93 84.29 70.12 87.27 70.12C89.05 70.12 91.01 70.37 93.15 70.87L93.03 73.57C91.23 73.25 89.43 73.09 87.63 73.09C85.83 73.09 84.61 73.63 83.97 74.71C83.33 75.77 83.01 77.78 83.01 80.74C83.01 83.68 83.32 85.69 83.94 86.77C84.56 87.83 85.77 88.36 87.57 88.36C89.37 88.36 91.19 88.21 93.03 87.91L93.12 90.67C91.06 91.11 89.11 91.33 87.27 91.33ZM96.8447 77.62C97.8847 76.32 99.6047 75.67 102.005 75.67C104.405 75.67 106.115 76.32 107.135 77.62C108.175 78.92 108.695 80.87 108.695 83.47C108.695 86.07 108.195 88.03 107.195 89.35C106.195 90.67 104.465 91.33 102.005 91.33C99.5447 91.33 97.8147 90.67 96.8147 89.35C95.8147 88.03 95.3147 86.07 95.3147 83.47C95.3147 80.87 95.8247 78.92 96.8447 77.62ZM99.3047 87.37C99.7647 88.17 100.665 88.57 102.005 88.57C103.345 88.57 104.245 88.17 104.705 87.37C105.165 86.57 105.395 85.26 105.395 83.44C105.395 81.62 105.145 80.33 104.645 79.57C104.165 78.81 103.285 78.43 102.005 78.43C100.725 78.43 99.8347 78.81 99.3347 79.57C98.8547 80.33 98.6147 81.62 98.6147 83.44C98.6147 85.26 98.8447 86.57 99.3047 87.37ZM112.753 77.62C113.793 76.32 115.513 75.67 117.913 75.67C120.313 75.67 122.023 76.32 123.043 77.62C124.083 78.92 124.603 80.87 124.603 83.47C124.603 86.07 124.103 88.03 123.103 89.35C122.103 90.67 120.373 91.33 117.913 91.33C115.453 91.33 113.723 90.67 112.723 89.35C111.723 88.03 111.223 86.07 111.223 83.47C111.223 80.87 111.733 78.92 112.753 77.62ZM115.213 87.37C115.673 88.17 116.573 88.57 117.913 88.57C119.253 88.57 120.153 88.17 120.613 87.37C121.073 86.57 121.303 85.26 121.303 83.44C121.303 81.62 121.053 80.33 120.553 79.57C120.073 78.81 119.193 78.43 117.913 78.43C116.633 78.43 115.743 78.81 115.243 79.57C114.763 80.33 114.523 81.62 114.523 83.44C114.523 85.26 114.753 86.57 115.213 87.37ZM127.851 91V76H131.091V77.8C132.791 76.7 134.491 75.99 136.191 75.67V78.94C134.471 79.28 133.001 79.72 131.781 80.26L131.121 80.53V91H127.851ZM150.784 69.76V91H147.544V90.22C146.084 90.96 144.744 91.33 143.524 91.33C141.564 91.33 140.124 90.74 139.204 89.56C138.304 88.38 137.854 86.4 137.854 83.62C137.854 80.84 138.354 78.82 139.354 77.56C140.374 76.3 141.954 75.67 144.094 75.67C144.814 75.67 145.954 75.8 147.514 76.06V69.76H150.784ZM147.004 87.88L147.514 87.67V78.79C146.314 78.59 145.204 78.49 144.184 78.49C142.164 78.49 141.154 80.17 141.154 83.53C141.154 85.37 141.384 86.65 141.844 87.37C142.324 88.07 143.074 88.42 144.094 88.42C145.114 88.42 146.084 88.24 147.004 87.88ZM154.746 91V76H158.016V91H154.746ZM154.746 73.45V70H158.016V73.45H154.746ZM165.252 91H161.982V76H165.222V76.93C166.682 76.09 168.062 75.67 169.362 75.67C171.362 75.67 172.722 76.24 173.442 77.38C174.182 78.5 174.552 80.36 174.552 82.96V91H171.312V83.05C171.312 81.43 171.132 80.28 170.772 79.6C170.432 78.92 169.722 78.58 168.642 78.58C167.622 78.58 166.642 78.78 165.702 79.18L165.252 79.36V91ZM189.459 80.62V87.46C189.479 87.9 189.589 88.23 189.789 88.45C190.009 88.65 190.339 88.78 190.779 88.84L190.689 91.33C188.969 91.33 187.639 90.96 186.699 90.22C185.099 90.96 183.489 91.33 181.869 91.33C178.889 91.33 177.399 89.74 177.399 86.56C177.399 85.04 177.799 83.94 178.599 83.26C179.419 82.58 180.669 82.17 182.349 82.03L186.219 81.7V80.62C186.219 79.82 186.039 79.26 185.679 78.94C185.339 78.62 184.829 78.46 184.149 78.46C182.869 78.46 181.269 78.54 179.349 78.7L178.389 78.76L178.269 76.45C180.449 75.93 182.449 75.67 184.269 75.67C186.109 75.67 187.429 76.07 188.229 76.87C189.049 77.65 189.459 78.9 189.459 80.62ZM182.739 84.34C181.359 84.46 180.669 85.21 180.669 86.59C180.669 87.97 181.279 88.66 182.499 88.66C183.499 88.66 184.559 88.5 185.679 88.18L186.219 88V84.01L182.739 84.34ZM201.634 78.79H197.494V85.39C197.494 86.61 197.584 87.42 197.764 87.82C197.944 88.22 198.404 88.42 199.144 88.42L201.604 88.33L201.754 90.94C200.414 91.2 199.394 91.33 198.694 91.33C196.994 91.33 195.824 90.94 195.184 90.16C194.564 89.38 194.254 87.91 194.254 85.75V78.79H192.334V76H194.254V71.65H197.494V76H201.634V78.79ZM205.126 77.62C206.166 76.32 207.886 75.67 210.286 75.67C212.686 75.67 214.396 76.32 215.416 77.62C216.456 78.92 216.976 80.87 216.976 83.47C216.976 86.07 216.476 88.03 215.476 89.35C214.476 90.67 212.746 91.33 210.286 91.33C207.826 91.33 206.096 90.67 205.096 89.35C204.096 88.03 203.596 86.07 203.596 83.47C203.596 80.87 204.106 78.92 205.126 77.62ZM207.586 87.37C208.046 88.17 208.946 88.57 210.286 88.57C211.626 88.57 212.526 88.17 212.986 87.37C213.446 86.57 213.676 85.26 213.676 83.44C213.676 81.62 213.426 80.33 212.926 79.57C212.446 78.81 211.566 78.43 210.286 78.43C209.006 78.43 208.116 78.81 207.616 79.57C207.136 80.33 206.896 81.62 206.896 83.44C206.896 85.26 207.126 86.57 207.586 87.37ZM220.224 91V76H223.464V77.8C225.164 76.7 226.864 75.99 228.564 75.67V78.94C226.844 79.28 225.374 79.72 224.154 80.26L223.494 80.53V91H220.224Z" fill="#3F3939"/>
</svg>
