<svg width="328" height="424" viewBox="0 0 328 424" fill="none" xmlns="http://www.w3.org/2000/svg">
<g filter="url(#filter0_d)">
<rect x="4" width="320" height="416" rx="22" fill="#FCFCFC"/>
</g>
<path d="M64.5358 132L67.4088 120.355H71.1658L74.0558 132H72.1518L71.5228 129.501H67.0518L66.4228 132H64.5358ZM68.8708 121.936L67.4258 127.835H71.1488L69.7208 121.936H68.8708ZM82.7907 133.156C82.7907 135.015 81.4477 135.944 78.7617 135.944C77.4697 135.944 76.5121 135.768 75.8887 135.417C75.2654 135.066 74.9537 134.425 74.9537 133.496C74.9537 133.077 75.0557 132.714 75.2597 132.408C75.4637 132.113 75.7924 131.79 76.2457 131.439C75.8717 131.19 75.6847 130.776 75.6847 130.198C75.6847 129.971 75.8377 129.603 76.1437 129.093L76.2967 128.838C75.4807 128.351 75.0727 127.501 75.0727 126.288C75.0727 125.268 75.3787 124.52 75.9907 124.044C76.6027 123.568 77.4301 123.33 78.4727 123.33C78.9714 123.33 79.4644 123.387 79.9517 123.5L80.2067 123.551L82.8417 123.483V124.979L81.4307 124.894C81.7367 125.291 81.8897 125.755 81.8897 126.288C81.8897 127.399 81.6064 128.169 81.0397 128.6C80.4844 129.019 79.6117 129.229 78.4217 129.229C78.1271 129.229 77.8777 129.206 77.6737 129.161C77.5151 129.546 77.4357 129.847 77.4357 130.062C77.4357 130.266 77.5377 130.408 77.7417 130.487C77.9571 130.566 78.4671 130.612 79.2717 130.623C80.6204 130.634 81.5441 130.816 82.0427 131.167C82.5414 131.518 82.7907 132.181 82.7907 133.156ZM76.7727 133.326C76.7727 133.723 76.9314 134.006 77.2487 134.176C77.5661 134.346 78.1101 134.431 78.8807 134.431C80.2521 134.431 80.9377 134.04 80.9377 133.258C80.9377 132.816 80.8131 132.533 80.5637 132.408C80.3257 132.295 79.8441 132.232 79.1187 132.221L77.4527 132.119C77.2034 132.323 77.0277 132.51 76.9257 132.68C76.8237 132.861 76.7727 133.077 76.7727 133.326ZM76.9087 126.288C76.9087 126.809 77.0334 127.195 77.2827 127.444C77.5321 127.682 77.9344 127.801 78.4897 127.801C79.0451 127.801 79.4417 127.682 79.6797 127.444C79.9291 127.195 80.0537 126.809 80.0537 126.288C80.0537 125.767 79.9291 125.387 79.6797 125.149C79.4304 124.9 79.0281 124.775 78.4727 124.775C77.4301 124.775 76.9087 125.279 76.9087 126.288ZM90.3454 130.47L90.8214 130.419L90.8554 131.796C89.5634 132.057 88.4187 132.187 87.4214 132.187C86.1634 132.187 85.2567 131.841 84.7014 131.15C84.1574 130.459 83.8854 129.354 83.8854 127.835C83.8854 124.82 85.1151 123.313 87.5744 123.313C89.9544 123.313 91.1444 124.611 91.1444 127.206L91.0254 128.532H85.7554C85.7667 129.235 85.9197 129.75 86.2144 130.079C86.5091 130.408 87.0587 130.572 87.8634 130.572C88.6681 130.572 89.4954 130.538 90.3454 130.47ZM89.3254 127.104C89.3254 126.265 89.1894 125.682 88.9174 125.353C88.6567 125.013 88.2091 124.843 87.5744 124.843C86.9397 124.843 86.4751 125.019 86.1804 125.37C85.8971 125.721 85.7497 126.299 85.7384 127.104H89.3254Z" fill="#3F3939"/>
<path d="M63.5946 161H56.4206V159.895L59.7016 156.444C60.2682 155.855 60.6819 155.407 60.9426 155.101C61.2032 154.795 61.4356 154.432 61.6396 154.013C61.8549 153.594 61.9626 153.174 61.9626 152.755C61.9626 152.03 61.7642 151.52 61.3676 151.225C60.9709 150.93 60.3532 150.783 59.5146 150.783C58.7779 150.783 57.9562 150.879 57.0496 151.072L56.6076 151.157L56.5056 150.069C57.5822 149.763 58.6929 149.61 59.8376 149.61C60.9822 149.61 61.8436 149.854 62.4216 150.341C63.0109 150.817 63.3056 151.576 63.3056 152.619C63.3056 153.412 63.1299 154.104 62.7786 154.693C62.4272 155.282 61.8209 155.991 60.9596 156.818L57.9676 159.861H63.5946V161ZM69.5033 149.593C70.4326 149.593 71.1863 149.769 71.7643 150.12C72.9883 150.845 73.6003 152.659 73.6003 155.56C73.6003 157.611 73.2603 159.062 72.5803 159.912C71.9003 160.751 70.8803 161.17 69.5203 161.17C68.1603 161.17 67.1346 160.756 66.4433 159.929C65.7633 159.09 65.4233 157.606 65.4233 155.475C65.4233 153.333 65.7576 151.82 66.4263 150.936C67.1063 150.041 68.1319 149.593 69.5033 149.593ZM69.5203 150.766C68.8743 150.766 68.3643 150.902 67.9903 151.174C67.1856 151.729 66.7833 153.197 66.7833 155.577C66.7833 157.254 67.0043 158.416 67.4463 159.062C67.8883 159.697 68.5796 160.014 69.5203 160.014C70.4609 160.014 71.1523 159.691 71.5943 159.045C72.0363 158.399 72.2573 157.203 72.2573 155.458C72.2573 153.701 72.0419 152.483 71.6113 151.803C71.1919 151.112 70.4949 150.766 69.5203 150.766ZM75.4289 156.92V155.73H80.5799V156.92H75.4289ZM90.0741 161H82.9001V159.895L86.1811 156.444C86.7477 155.855 87.1614 155.407 87.4221 155.101C87.6827 154.795 87.9151 154.432 88.1191 154.013C88.3344 153.594 88.4421 153.174 88.4421 152.755C88.4421 152.03 88.2437 151.52 87.8471 151.225C87.4504 150.93 86.8327 150.783 85.9941 150.783C85.2574 150.783 84.4357 150.879 83.5291 151.072L83.0871 151.157L82.9851 150.069C84.0617 149.763 85.1724 149.61 86.3171 149.61C87.4617 149.61 88.3231 149.854 88.9011 150.341C89.4904 150.817 89.7851 151.576 89.7851 152.619C89.7851 153.412 89.6094 154.104 89.2581 154.693C88.9067 155.282 88.3004 155.991 87.4391 156.818L84.4471 159.861H90.0741V161ZM99.5867 161H92.4127V159.895L95.6937 156.444C96.2604 155.855 96.6741 155.407 96.9347 155.101C97.1954 154.795 97.4277 154.432 97.6317 154.013C97.8471 153.594 97.9547 153.174 97.9547 152.755C97.9547 152.03 97.7564 151.52 97.3597 151.225C96.9631 150.93 96.3454 150.783 95.5067 150.783C94.7701 150.783 93.9484 150.879 93.0417 151.072L92.5997 151.157L92.4977 150.069C93.5744 149.763 94.6851 149.61 95.8297 149.61C96.9744 149.61 97.8357 149.854 98.4137 150.341C99.0031 150.817 99.2977 151.576 99.2977 152.619C99.2977 153.412 99.1221 154.104 98.7707 154.693C98.4194 155.282 97.8131 155.991 96.9517 156.818L93.9597 159.861H99.5867V161Z" fill="#3F3939"/>
<path d="M162.33 131H155.802V119.355H157.689V129.317H162.33V131ZM169.702 129.47L170.178 129.419L170.212 130.796C168.92 131.057 167.775 131.187 166.778 131.187C165.52 131.187 164.613 130.841 164.058 130.15C163.514 129.459 163.242 128.354 163.242 126.835C163.242 123.82 164.471 122.313 166.931 122.313C169.311 122.313 170.501 123.611 170.501 126.206L170.382 127.532H165.112C165.123 128.235 165.276 128.75 165.571 129.079C165.865 129.408 166.415 129.572 167.22 129.572C168.024 129.572 168.852 129.538 169.702 129.47ZM168.682 126.104C168.682 125.265 168.546 124.682 168.274 124.353C168.013 124.013 167.565 123.843 166.931 123.843C166.296 123.843 165.831 124.019 165.537 124.37C165.253 124.721 165.106 125.299 165.095 126.104H168.682ZM171.367 122.5H173.305L174.937 129.419H175.481L177.181 122.5H179.068L176.858 131H173.56L171.367 122.5ZM186.436 129.47L186.912 129.419L186.946 130.796C185.654 131.057 184.51 131.187 183.512 131.187C182.254 131.187 181.348 130.841 180.792 130.15C180.248 129.459 179.976 128.354 179.976 126.835C179.976 123.82 181.206 122.313 183.665 122.313C186.045 122.313 187.235 123.611 187.235 126.206L187.116 127.532H181.846C181.858 128.235 182.011 128.75 182.305 129.079C182.6 129.408 183.15 129.572 183.954 129.572C184.759 129.572 185.586 129.538 186.436 129.47ZM185.416 126.104C185.416 125.265 185.28 124.682 185.008 124.353C184.748 124.013 184.3 123.843 183.665 123.843C183.031 123.843 182.566 124.019 182.271 124.37C181.988 124.721 181.841 125.299 181.829 126.104H185.416ZM189.119 131V118.964H190.972V131H189.119ZM197.511 123.418C198.101 122.681 199.075 122.313 200.435 122.313C201.795 122.313 202.764 122.681 203.342 123.418C203.932 124.155 204.226 125.26 204.226 126.733C204.226 128.206 203.943 129.317 203.376 130.065C202.81 130.813 201.829 131.187 200.435 131.187C199.041 131.187 198.061 130.813 197.494 130.065C196.928 129.317 196.644 128.206 196.644 126.733C196.644 125.26 196.933 124.155 197.511 123.418ZM198.905 128.943C199.166 129.396 199.676 129.623 200.435 129.623C201.195 129.623 201.705 129.396 201.965 128.943C202.226 128.49 202.356 127.747 202.356 126.716C202.356 125.685 202.215 124.954 201.931 124.523C201.659 124.092 201.161 123.877 200.435 123.877C199.71 123.877 199.206 124.092 198.922 124.523C198.65 124.954 198.514 125.685 198.514 126.716C198.514 127.747 198.645 128.49 198.905 128.943ZM208.294 124.081V131H206.458V124.081H205.472V122.5H206.458V121.956C206.458 120.743 206.633 119.91 206.985 119.457C207.336 119.004 207.959 118.777 208.855 118.777L210.691 118.947L210.674 120.46C210.118 120.437 209.654 120.426 209.28 120.426C208.917 120.426 208.662 120.539 208.515 120.766C208.367 120.981 208.294 121.384 208.294 121.973V122.5H210.538V124.081H208.294ZM215.9 131V119.355H223.244V121.004H217.787V124.302H222.224V125.934H217.787V129.334H223.244V131H215.9ZM224.26 122.5H226.232L227.898 125.441L229.581 122.5H231.553L229.02 126.682L231.553 131H229.581L227.898 128.093L226.232 131H224.26L226.725 126.733L224.26 122.5ZM232.961 134.655V122.5H234.797V123.027C235.579 122.551 236.31 122.313 236.99 122.313C238.112 122.313 238.934 122.659 239.455 123.35C239.977 124.03 240.237 125.18 240.237 126.801C240.237 128.41 239.937 129.544 239.336 130.201C238.747 130.858 237.778 131.187 236.429 131.187C235.965 131.187 235.426 131.136 234.814 131.034V134.655H232.961ZM236.667 123.962C236.135 123.962 235.602 124.081 235.069 124.319L234.814 124.438V129.453C235.268 129.544 235.766 129.589 236.31 129.589C237.081 129.589 237.614 129.368 237.908 128.926C238.203 128.484 238.35 127.73 238.35 126.665C238.35 124.863 237.789 123.962 236.667 123.962ZM248.144 129.47L248.62 129.419L248.654 130.796C247.362 131.057 246.218 131.187 245.22 131.187C243.962 131.187 243.056 130.841 242.5 130.15C241.956 129.459 241.684 128.354 241.684 126.835C241.684 123.82 242.914 122.313 245.373 122.313C247.753 122.313 248.943 123.611 248.943 126.206L248.824 127.532H243.554C243.566 128.235 243.719 128.75 244.013 129.079C244.308 129.408 244.858 129.572 245.662 129.572C246.467 129.572 247.294 129.538 248.144 129.47ZM247.124 126.104C247.124 125.265 246.988 124.682 246.716 124.353C246.456 124.013 246.008 123.843 245.373 123.843C244.739 123.843 244.274 124.019 243.979 124.37C243.696 124.721 243.549 125.299 243.537 126.104H247.124ZM250.725 131V122.5H252.561V123.52C253.524 122.897 254.488 122.494 255.451 122.313V124.166C254.476 124.359 253.643 124.608 252.952 124.914L252.578 125.067V131H250.725ZM261.441 124.081H259.095V127.821C259.095 128.512 259.146 128.971 259.248 129.198C259.35 129.425 259.61 129.538 260.03 129.538L261.424 129.487L261.509 130.966C260.749 131.113 260.171 131.187 259.775 131.187C258.811 131.187 258.148 130.966 257.786 130.524C257.434 130.082 257.259 129.249 257.259 128.025V124.081H256.171V122.5H257.259V120.035H259.095V122.5H261.441V124.081ZM262.96 131V122.5H264.813V131H262.96ZM262.96 121.055V119.1H264.813V121.055H262.96ZM272.96 124.251C271.623 124.07 270.654 123.979 270.053 123.979C269.452 123.979 269.033 124.053 268.795 124.2C268.568 124.336 268.455 124.557 268.455 124.863C268.455 125.169 268.58 125.384 268.829 125.509C269.09 125.634 269.69 125.781 270.631 125.951C271.583 126.11 272.257 126.365 272.654 126.716C273.051 127.067 273.249 127.691 273.249 128.586C273.249 129.481 272.96 130.139 272.382 130.558C271.815 130.977 270.982 131.187 269.883 131.187C269.192 131.187 268.319 131.091 267.265 130.898L266.738 130.813L266.806 129.266C268.166 129.447 269.146 129.538 269.747 129.538C270.348 129.538 270.773 129.464 271.022 129.317C271.283 129.17 271.413 128.926 271.413 128.586C271.413 128.246 271.288 128.014 271.039 127.889C270.801 127.753 270.217 127.611 269.288 127.464C268.37 127.305 267.696 127.062 267.265 126.733C266.834 126.404 266.619 125.804 266.619 124.931C266.619 124.058 266.914 123.407 267.503 122.976C268.104 122.545 268.869 122.33 269.798 122.33C270.523 122.33 271.413 122.421 272.467 122.602L272.994 122.704L272.96 124.251ZM281.082 129.47L281.558 129.419L281.592 130.796C280.3 131.057 279.155 131.187 278.158 131.187C276.9 131.187 275.993 130.841 275.438 130.15C274.894 129.459 274.622 128.354 274.622 126.835C274.622 123.82 275.851 122.313 278.311 122.313C280.691 122.313 281.881 123.611 281.881 126.206L281.762 127.532H276.492C276.503 128.235 276.656 128.75 276.951 129.079C277.245 129.408 277.795 129.572 278.6 129.572C279.404 129.572 280.232 129.538 281.082 129.47ZM280.062 126.104C280.062 125.265 279.926 124.682 279.654 124.353C279.393 124.013 278.945 123.843 278.311 123.843C277.676 123.843 277.211 124.019 276.917 124.37C276.633 124.721 276.486 125.299 276.475 126.104H280.062Z" fill="#3F3939"/>
<path d="M210.211 160V154.679H204.227V160H202.918V148.236H204.227V153.506H210.211V148.236H211.503V160H210.211ZM214.169 160V151.5H215.444V160H214.169ZM214.169 149.579V148.1H215.444V149.579H214.169ZM221.169 163.995C219.809 163.995 218.857 163.808 218.313 163.434C217.78 163.071 217.514 162.403 217.514 161.428C217.514 160.963 217.616 160.584 217.82 160.289C218.024 160.006 218.369 159.683 218.857 159.32C218.539 159.105 218.381 158.714 218.381 158.147C218.381 157.954 218.522 157.597 218.806 157.076L218.959 156.804C218.063 156.396 217.616 155.54 217.616 154.237C217.616 152.299 218.675 151.33 220.795 151.33C221.339 151.33 221.843 151.387 222.308 151.5L222.563 151.551L225.079 151.483V152.571L223.464 152.537C223.838 152.911 224.025 153.478 224.025 154.237C224.025 155.302 223.758 156.05 223.226 156.481C222.704 156.9 221.877 157.11 220.744 157.11C220.438 157.11 220.16 157.087 219.911 157.042C219.707 157.541 219.605 157.864 219.605 158.011C219.605 158.362 219.712 158.583 219.928 158.674C220.143 158.753 220.795 158.793 221.883 158.793C222.971 158.793 223.753 158.963 224.229 159.303C224.705 159.643 224.943 160.306 224.943 161.292C224.943 163.094 223.685 163.995 221.169 163.995ZM218.772 161.326C218.772 161.927 218.936 162.34 219.265 162.567C219.605 162.805 220.222 162.924 221.118 162.924C222.024 162.924 222.67 162.799 223.056 162.55C223.452 162.301 223.651 161.881 223.651 161.292C223.651 160.714 223.509 160.34 223.226 160.17C222.942 160 222.387 159.915 221.56 159.915L219.724 159.83C219.35 160.102 219.095 160.34 218.959 160.544C218.834 160.748 218.772 161.009 218.772 161.326ZM218.891 154.237C218.891 154.906 219.038 155.382 219.333 155.665C219.639 155.948 220.137 156.09 220.829 156.09C221.52 156.09 222.013 155.948 222.308 155.665C222.602 155.382 222.75 154.906 222.75 154.237C222.75 153.557 222.602 153.075 222.308 152.792C222.013 152.509 221.52 152.367 220.829 152.367C220.137 152.367 219.639 152.514 219.333 152.809C219.038 153.092 218.891 153.568 218.891 154.237ZM227.895 160H226.62V147.794H227.895V151.976C228.802 151.545 229.674 151.33 230.513 151.33C231.646 151.33 232.406 151.636 232.791 152.248C233.188 152.86 233.386 153.948 233.386 155.512V160H232.111V155.546C232.111 154.367 231.992 153.563 231.754 153.132C231.527 152.69 231.04 152.469 230.292 152.469C229.578 152.469 228.887 152.599 228.218 152.86L227.895 152.979V160Z" fill="#1FAB1D"/>
<path d="M33.6194 210.198V205.336H37.8694V210.198H33.6194ZM50.812 206.169C50.812 207.892 51.0387 209.133 51.492 209.892C51.9453 210.64 52.818 211.014 54.11 211.014C55.4133 211.014 56.286 210.646 56.728 209.909C57.1813 209.172 57.408 207.937 57.408 206.203C57.408 204.469 57.1757 203.205 56.711 202.412C56.2463 201.619 55.3737 201.222 54.093 201.222C52.8237 201.222 51.9567 201.619 51.492 202.412C51.0387 203.194 50.812 204.446 50.812 206.169ZM58.768 206.203C58.768 208.3 58.4337 209.818 57.765 210.759C57.0963 211.7 55.878 212.17 54.11 212.17C52.3533 212.17 51.1407 211.688 50.472 210.725C49.8033 209.762 49.469 208.249 49.469 206.186C49.469 204.112 49.809 202.576 50.489 201.579C51.169 200.57 52.376 200.066 54.11 200.066C55.844 200.066 57.051 200.565 57.731 201.562C58.4223 202.559 58.768 204.106 58.768 206.203ZM60.1477 203.5H61.5077L63.4967 210.895H64.1257L66.1827 203.5H67.4917L65.0947 212H62.5447L60.1477 203.5ZM74.7618 210.946L75.2548 210.895L75.2888 211.898C73.9968 212.079 72.8918 212.17 71.9738 212.17C70.7498 212.17 69.8828 211.819 69.3728 211.116C68.8628 210.402 68.6078 209.297 68.6078 207.801C68.6078 204.82 69.7921 203.33 72.1608 203.33C73.3055 203.33 74.1611 203.653 74.7278 204.299C75.2945 204.934 75.5778 205.937 75.5778 207.308L75.5098 208.277H69.8998C69.8998 209.218 70.0698 209.915 70.4098 210.368C70.7498 210.821 71.3391 211.048 72.1778 211.048C73.0278 211.048 73.8891 211.014 74.7618 210.946ZM74.3028 207.257C74.3028 206.214 74.1328 205.478 73.7928 205.047C73.4641 204.616 72.9201 204.401 72.1608 204.401C71.4128 204.401 70.8461 204.628 70.4608 205.081C70.0868 205.534 69.8941 206.26 69.8828 207.257H74.3028ZM77.5648 212V203.5H78.8228V204.656C79.8088 203.976 80.8458 203.528 81.9338 203.313V204.605C81.4578 204.696 80.9592 204.837 80.4378 205.03C79.9278 205.223 79.5368 205.393 79.2648 205.54L78.8398 205.761V212H77.5648ZM86.1108 204.469C84.8754 204.469 84.2578 204.9 84.2578 205.761C84.2578 206.158 84.3994 206.441 84.6828 206.611C84.9661 206.77 85.6121 206.94 86.6208 207.121C87.6294 207.291 88.3434 207.535 88.7628 207.852C89.1821 208.169 89.3918 208.764 89.3918 209.637C89.3918 210.51 89.1084 211.15 88.5418 211.558C87.9864 211.966 87.1704 212.17 86.0938 212.17C85.3911 212.17 84.5638 212.091 83.6118 211.932L83.1018 211.847L83.1698 210.742C84.4618 210.935 85.4364 211.031 86.0938 211.031C86.7511 211.031 87.2498 210.929 87.5898 210.725C87.9411 210.51 88.1168 210.158 88.1168 209.671C88.1168 209.172 87.9694 208.838 87.6748 208.668C87.3801 208.487 86.7341 208.317 85.7368 208.158C84.7394 207.999 84.0311 207.767 83.6118 207.461C83.1924 207.155 82.9828 206.588 82.9828 205.761C82.9828 204.934 83.2718 204.322 83.8498 203.925C84.4391 203.528 85.1701 203.33 86.0428 203.33C86.7341 203.33 87.6011 203.409 88.6438 203.568L89.1198 203.653L89.0858 204.741C87.8278 204.56 86.8361 204.469 86.1108 204.469ZM97.1241 210.946L97.6171 210.895L97.6511 211.898C96.3591 212.079 95.2541 212.17 94.3361 212.17C93.1121 212.17 92.2451 211.819 91.7351 211.116C91.2251 210.402 90.9701 209.297 90.9701 207.801C90.9701 204.82 92.1545 203.33 94.5231 203.33C95.6678 203.33 96.5235 203.653 97.0901 204.299C97.6568 204.934 97.9401 205.937 97.9401 207.308L97.8721 208.277H92.2621C92.2621 209.218 92.4321 209.915 92.7721 210.368C93.1121 210.821 93.7015 211.048 94.5401 211.048C95.3901 211.048 96.2515 211.014 97.1241 210.946ZM96.6651 207.257C96.6651 206.214 96.4951 205.478 96.1551 205.047C95.8265 204.616 95.2825 204.401 94.5231 204.401C93.7751 204.401 93.2085 204.628 92.8231 205.081C92.4491 205.534 92.2565 206.26 92.2451 207.257H96.6651ZM105.707 210.946L106.2 210.895L106.234 211.898C104.942 212.079 103.837 212.17 102.919 212.17C101.695 212.17 100.828 211.819 100.318 211.116C99.8081 210.402 99.5531 209.297 99.5531 207.801C99.5531 204.82 100.737 203.33 103.106 203.33C104.251 203.33 105.106 203.653 105.673 204.299C106.24 204.934 106.523 205.937 106.523 207.308L106.455 208.277H100.845C100.845 209.218 101.015 209.915 101.355 210.368C101.695 210.821 102.284 211.048 103.123 211.048C103.973 211.048 104.834 211.014 105.707 210.946ZM105.248 207.257C105.248 206.214 105.078 205.478 104.738 205.047C104.409 204.616 103.865 204.401 103.106 204.401C102.358 204.401 101.791 204.628 101.406 205.081C101.032 205.534 100.839 206.26 100.828 207.257H105.248ZM111.179 204.469C109.944 204.469 109.326 204.9 109.326 205.761C109.326 206.158 109.468 206.441 109.751 206.611C110.034 206.77 110.68 206.94 111.689 207.121C112.698 207.291 113.412 207.535 113.831 207.852C114.25 208.169 114.46 208.764 114.46 209.637C114.46 210.51 114.177 211.15 113.61 211.558C113.055 211.966 112.239 212.17 111.162 212.17C110.459 212.17 109.632 212.091 108.68 211.932L108.17 211.847L108.238 210.742C109.53 210.935 110.505 211.031 111.162 211.031C111.819 211.031 112.318 210.929 112.658 210.725C113.009 210.51 113.185 210.158 113.185 209.671C113.185 209.172 113.038 208.838 112.743 208.668C112.448 208.487 111.802 208.317 110.805 208.158C109.808 207.999 109.099 207.767 108.68 207.461C108.261 207.155 108.051 206.588 108.051 205.761C108.051 204.934 108.34 204.322 108.918 203.925C109.507 203.528 110.238 203.33 111.111 203.33C111.802 203.33 112.669 203.409 113.712 203.568L114.188 203.653L114.154 204.741C112.896 204.56 111.904 204.469 111.179 204.469ZM124.551 204.605H121.848V208.668C121.848 209.643 121.916 210.283 122.052 210.589C122.199 210.895 122.539 211.048 123.072 211.048L124.585 210.946L124.67 212C123.91 212.125 123.332 212.187 122.936 212.187C122.052 212.187 121.44 211.972 121.1 211.541C120.76 211.11 120.59 210.289 120.59 209.076V204.605H119.383V203.5H120.59V200.899H121.848V203.5H124.551V204.605ZM127.383 212H126.108V199.794H127.383V203.976C128.289 203.545 129.162 203.33 130.001 203.33C131.134 203.33 131.893 203.636 132.279 204.248C132.675 204.86 132.874 205.948 132.874 207.512V212H131.599V207.546C131.599 206.367 131.48 205.563 131.242 205.132C131.015 204.69 130.528 204.469 129.78 204.469C129.066 204.469 128.374 204.599 127.706 204.86L127.383 204.979V212ZM141.019 210.946L141.512 210.895L141.546 211.898C140.254 212.079 139.149 212.17 138.231 212.17C137.007 212.17 136.14 211.819 135.63 211.116C135.12 210.402 134.865 209.297 134.865 207.801C134.865 204.82 136.049 203.33 138.418 203.33C139.562 203.33 140.418 203.653 140.985 204.299C141.551 204.934 141.835 205.937 141.835 207.308L141.767 208.277H136.157C136.157 209.218 136.327 209.915 136.667 210.368C137.007 210.821 137.596 211.048 138.435 211.048C139.285 211.048 140.146 211.014 141.019 210.946ZM140.56 207.257C140.56 206.214 140.39 205.478 140.05 205.047C139.721 204.616 139.177 204.401 138.418 204.401C137.67 204.401 137.103 204.628 136.718 205.081C136.344 205.534 136.151 206.26 136.14 207.257H140.56ZM146.86 203.5H148.135L149.852 210.895H150.124L152.147 203.67H153.473L155.496 210.895H155.785L157.485 203.5H158.76L156.737 212H154.612L152.81 205.353L151.008 212H148.883L146.86 203.5ZM160.049 207.733C160.049 206.18 160.327 205.058 160.882 204.367C161.438 203.676 162.373 203.33 163.687 203.33C165.013 203.33 165.948 203.676 166.492 204.367C167.048 205.058 167.325 206.18 167.325 207.733C167.325 209.286 167.065 210.413 166.543 211.116C166.022 211.819 165.07 212.17 163.687 212.17C162.305 212.17 161.353 211.819 160.831 211.116C160.31 210.413 160.049 209.286 160.049 207.733ZM161.358 207.716C161.358 208.951 161.506 209.818 161.8 210.317C162.106 210.816 162.735 211.065 163.687 211.065C164.651 211.065 165.28 210.821 165.574 210.334C165.869 209.835 166.016 208.963 166.016 207.716C166.016 206.469 165.852 205.614 165.523 205.149C165.195 204.673 164.583 204.435 163.687 204.435C162.803 204.435 162.191 204.673 161.851 205.149C161.523 205.614 161.358 206.469 161.358 207.716ZM169.405 212V203.5H170.663V204.656C171.649 203.976 172.686 203.528 173.774 203.313V204.605C173.298 204.696 172.799 204.837 172.278 205.03C171.768 205.223 171.377 205.393 171.105 205.54L170.68 205.761V212H169.405ZM176.557 212H175.282V199.794H176.557V207.002L177.883 206.934L180.314 203.5H181.759L178.988 207.41L181.878 212H180.433L177.9 208.056L176.557 208.107V212ZM186.778 207.733C186.778 206.18 187.055 205.058 187.611 204.367C188.166 203.676 189.101 203.33 190.416 203.33C191.742 203.33 192.677 203.676 193.221 204.367C193.776 205.058 194.054 206.18 194.054 207.733C194.054 209.286 193.793 210.413 193.272 211.116C192.75 211.819 191.798 212.17 190.416 212.17C189.033 212.17 188.081 211.819 187.56 211.116C187.038 210.413 186.778 209.286 186.778 207.733ZM188.087 207.716C188.087 208.951 188.234 209.818 188.529 210.317C188.835 210.816 189.464 211.065 190.416 211.065C191.379 211.065 192.008 210.821 192.303 210.334C192.597 209.835 192.745 208.963 192.745 207.716C192.745 206.469 192.58 205.614 192.252 205.149C191.923 204.673 191.311 204.435 190.416 204.435C189.532 204.435 188.92 204.673 188.58 205.149C188.251 205.614 188.087 206.469 188.087 207.716ZM197.765 204.605V212H196.49V204.605H195.419V203.5H196.49V202.735C196.49 201.534 196.66 200.718 197 200.287C197.34 199.845 197.935 199.624 198.785 199.624L200.502 199.743L200.485 200.797C199.851 200.774 199.324 200.763 198.904 200.763C198.496 200.763 198.202 200.899 198.02 201.171C197.85 201.443 197.765 201.97 197.765 202.752V203.5H200.23V204.605H197.765ZM211.497 206.067V210.419C211.531 210.838 211.86 211.088 212.483 211.167L212.432 212.17C211.537 212.17 210.863 211.943 210.409 211.49C209.389 211.943 208.369 212.17 207.349 212.17C206.567 212.17 205.972 211.949 205.564 211.507C205.156 211.065 204.952 210.43 204.952 209.603C204.952 208.776 205.162 208.169 205.581 207.784C206.001 207.387 206.658 207.144 207.553 207.053L210.222 206.798V206.067C210.222 205.489 210.098 205.075 209.848 204.826C209.599 204.577 209.259 204.452 208.828 204.452C207.922 204.452 206.981 204.509 206.006 204.622L205.479 204.673L205.428 203.704C206.675 203.455 207.78 203.33 208.743 203.33C209.707 203.33 210.404 203.551 210.834 203.993C211.276 204.435 211.497 205.126 211.497 206.067ZM206.261 209.535C206.261 210.578 206.692 211.099 207.553 211.099C208.324 211.099 209.083 210.969 209.831 210.708L210.222 210.572V207.767L207.706 208.005C207.196 208.05 206.828 208.198 206.601 208.447C206.375 208.696 206.261 209.059 206.261 209.535ZM214.115 212V199.794H215.39V212H214.115ZM218.05 212V199.794H219.325V212H218.05ZM230.021 204.605H227.318V208.668C227.318 209.643 227.386 210.283 227.522 210.589C227.669 210.895 228.009 211.048 228.542 211.048L230.055 210.946L230.14 212C229.38 212.125 228.802 212.187 228.406 212.187C227.522 212.187 226.91 211.972 226.57 211.541C226.23 211.11 226.06 210.289 226.06 209.076V204.605H224.853V203.5H226.06V200.899H227.318V203.5H230.021V204.605ZM232.853 212H231.578V199.794H232.853V203.976C233.759 203.545 234.632 203.33 235.471 203.33C236.604 203.33 237.363 203.636 237.749 204.248C238.145 204.86 238.344 205.948 238.344 207.512V212H237.069V207.546C237.069 206.367 236.95 205.563 236.712 205.132C236.485 204.69 235.998 204.469 235.25 204.469C234.536 204.469 233.844 204.599 233.176 204.86L232.853 204.979V212ZM246.488 210.946L246.981 210.895L247.015 211.898C245.723 212.079 244.618 212.17 243.7 212.17C242.476 212.17 241.609 211.819 241.099 211.116C240.589 210.402 240.334 209.297 240.334 207.801C240.334 204.82 241.519 203.33 243.887 203.33C245.032 203.33 245.888 203.653 246.454 204.299C247.021 204.934 247.304 205.937 247.304 207.308L247.236 208.277H241.626C241.626 209.218 241.796 209.915 242.136 210.368C242.476 210.821 243.066 211.048 243.904 211.048C244.754 211.048 245.616 211.014 246.488 210.946ZM246.029 207.257C246.029 206.214 245.859 205.478 245.519 205.047C245.191 204.616 244.647 204.401 243.887 204.401C243.139 204.401 242.573 204.628 242.187 205.081C241.813 205.534 241.621 206.26 241.609 207.257H246.029ZM52.903 229.33C53.277 229.33 53.9117 229.398 54.807 229.534L55.215 229.585L55.164 230.622C54.2573 230.52 53.5887 230.469 53.158 230.469C52.1947 230.469 51.5373 230.701 51.186 231.166C50.846 231.619 50.676 232.469 50.676 233.716C50.676 234.951 50.8347 235.813 51.152 236.3C51.4807 236.787 52.155 237.031 53.175 237.031L55.181 236.878L55.232 237.932C54.178 238.091 53.3903 238.17 52.869 238.17C51.543 238.17 50.625 237.83 50.115 237.15C49.6163 236.47 49.367 235.325 49.367 233.716C49.367 232.095 49.639 230.962 50.183 230.316C50.727 229.659 51.6337 229.33 52.903 229.33ZM56.6547 233.733C56.6547 232.18 56.9324 231.058 57.4877 230.367C58.043 229.676 58.978 229.33 60.2927 229.33C61.6187 229.33 62.5537 229.676 63.0977 230.367C63.653 231.058 63.9307 232.18 63.9307 233.733C63.9307 235.286 63.67 236.413 63.1487 237.116C62.6274 237.819 61.6754 238.17 60.2927 238.17C58.91 238.17 57.958 237.819 57.4367 237.116C56.9154 236.413 56.6547 235.286 56.6547 233.733ZM57.9637 233.716C57.9637 234.951 58.111 235.818 58.4057 236.317C58.7117 236.816 59.3407 237.065 60.2927 237.065C61.256 237.065 61.885 236.821 62.1797 236.334C62.4744 235.835 62.6217 234.963 62.6217 233.716C62.6217 232.469 62.4574 231.614 62.1287 231.149C61.8 230.673 61.188 230.435 60.2927 230.435C59.4087 230.435 58.7967 230.673 58.4567 231.149C58.128 231.614 57.9637 232.469 57.9637 233.716ZM65.6361 233.733C65.6361 232.18 65.9138 231.058 66.4691 230.367C67.0245 229.676 67.9595 229.33 69.2741 229.33C70.6001 229.33 71.5351 229.676 72.0791 230.367C72.6345 231.058 72.9121 232.18 72.9121 233.733C72.9121 235.286 72.6515 236.413 72.1301 237.116C71.6088 237.819 70.6568 238.17 69.2741 238.17C67.8915 238.17 66.9395 237.819 66.4181 237.116C65.8968 236.413 65.6361 235.286 65.6361 233.733ZM66.9451 233.716C66.9451 234.951 67.0925 235.818 67.3871 236.317C67.6931 236.816 68.3221 237.065 69.2741 237.065C70.2375 237.065 70.8665 236.821 71.1611 236.334C71.4558 235.835 71.6031 234.963 71.6031 233.716C71.6031 232.469 71.4388 231.614 71.1101 231.149C70.7815 230.673 70.1695 230.435 69.2741 230.435C68.3901 230.435 67.7781 230.673 67.4381 231.149C67.1095 231.614 66.9451 232.469 66.9451 233.716ZM74.9916 238V229.5H76.2496V230.656C77.2356 229.976 78.2726 229.528 79.3606 229.313V230.605C78.8846 230.696 78.3859 230.837 77.8646 231.03C77.3546 231.223 76.9636 231.393 76.6916 231.54L76.2666 231.761V238H74.9916ZM87.1807 225.794V238H85.9227V237.422C85.05 237.921 84.1887 238.17 83.3387 238.17C82.8854 238.17 82.4887 238.113 82.1487 238C81.8087 237.887 81.4914 237.683 81.1967 237.388C80.5847 236.776 80.2787 235.648 80.2787 234.005C80.2787 232.35 80.5507 231.16 81.0947 230.435C81.65 229.698 82.5624 229.33 83.8317 229.33C84.489 229.33 85.186 229.404 85.9227 229.551V225.794H87.1807ZM82.1827 236.47C82.364 236.685 82.5567 236.833 82.7607 236.912C82.9647 236.991 83.2254 237.031 83.5427 237.031C83.8714 237.031 84.234 236.98 84.6307 236.878C85.0387 236.765 85.356 236.657 85.5827 236.555L85.9227 236.402V230.639C85.1974 230.503 84.523 230.435 83.8997 230.435C83.0384 230.435 82.4377 230.713 82.0977 231.268C81.7577 231.812 81.5877 232.662 81.5877 233.818C81.5877 235.133 81.786 236.017 82.1827 236.47ZM89.6508 238V229.5H90.9258V238H89.6508ZM89.6508 227.579V226.1H90.9258V227.579H89.6508ZM94.6445 238H93.3695V229.5H94.6275V230.095C95.5455 229.585 96.4238 229.33 97.2625 229.33C98.3958 229.33 99.1552 229.636 99.5405 230.248C99.9372 230.86 100.136 231.948 100.136 233.512V238H98.8775V233.546C98.8775 232.367 98.7585 231.563 98.5205 231.132C98.2938 230.69 97.8008 230.469 97.0415 230.469C96.6788 230.469 96.2935 230.526 95.8855 230.639C95.4888 230.741 95.1828 230.843 94.9675 230.945L94.6445 231.098V238ZM108.501 232.067V236.419C108.535 236.838 108.864 237.088 109.487 237.167L109.436 238.17C108.541 238.17 107.867 237.943 107.413 237.49C106.393 237.943 105.373 238.17 104.353 238.17C103.571 238.17 102.976 237.949 102.568 237.507C102.16 237.065 101.956 236.43 101.956 235.603C101.956 234.776 102.166 234.169 102.585 233.784C103.005 233.387 103.662 233.144 104.557 233.053L107.226 232.798V232.067C107.226 231.489 107.102 231.075 106.852 230.826C106.603 230.577 106.263 230.452 105.832 230.452C104.926 230.452 103.985 230.509 103.01 230.622L102.483 230.673L102.432 229.704C103.679 229.455 104.784 229.33 105.747 229.33C106.711 229.33 107.408 229.551 107.838 229.993C108.28 230.435 108.501 231.126 108.501 232.067ZM103.265 235.535C103.265 236.578 103.696 237.099 104.557 237.099C105.328 237.099 106.087 236.969 106.835 236.708L107.226 236.572V233.767L104.71 234.005C104.2 234.05 103.832 234.198 103.605 234.447C103.379 234.696 103.265 235.059 103.265 235.535ZM115.42 230.605H112.717V234.668C112.717 235.643 112.785 236.283 112.921 236.589C113.068 236.895 113.408 237.048 113.941 237.048L115.454 236.946L115.539 238C114.78 238.125 114.202 238.187 113.805 238.187C112.921 238.187 112.309 237.972 111.969 237.541C111.629 237.11 111.459 236.289 111.459 235.076V230.605H110.252V229.5H111.459V226.899H112.717V229.5H115.42V230.605ZM116.603 233.733C116.603 232.18 116.881 231.058 117.436 230.367C117.991 229.676 118.926 229.33 120.241 229.33C121.567 229.33 122.502 229.676 123.046 230.367C123.601 231.058 123.879 232.18 123.879 233.733C123.879 235.286 123.618 236.413 123.097 237.116C122.576 237.819 121.624 238.17 120.241 238.17C118.858 238.17 117.906 237.819 117.385 237.116C116.864 236.413 116.603 235.286 116.603 233.733ZM117.912 233.716C117.912 234.951 118.059 235.818 118.354 236.317C118.66 236.816 119.289 237.065 120.241 237.065C121.204 237.065 121.833 236.821 122.128 236.334C122.423 235.835 122.57 234.963 122.57 233.716C122.57 232.469 122.406 231.614 122.077 231.149C121.748 230.673 121.136 230.435 120.241 230.435C119.357 230.435 118.745 230.673 118.405 231.149C118.076 231.614 117.912 232.469 117.912 233.716ZM125.958 238V229.5H127.216V230.656C128.202 229.976 129.239 229.528 130.327 229.313V230.605C129.851 230.696 129.353 230.837 128.831 231.03C128.321 231.223 127.93 231.393 127.658 231.54L127.233 231.761V238H125.958ZM134.504 230.469C133.269 230.469 132.651 230.9 132.651 231.761C132.651 232.158 132.793 232.441 133.076 232.611C133.36 232.77 134.006 232.94 135.014 233.121C136.023 233.291 136.737 233.535 137.156 233.852C137.576 234.169 137.785 234.764 137.785 235.637C137.785 236.51 137.502 237.15 136.935 237.558C136.38 237.966 135.564 238.17 134.487 238.17C133.785 238.17 132.957 238.091 132.005 237.932L131.495 237.847L131.563 236.742C132.855 236.935 133.83 237.031 134.487 237.031C135.145 237.031 135.643 236.929 135.983 236.725C136.335 236.51 136.51 236.158 136.51 235.671C136.51 235.172 136.363 234.838 136.068 234.668C135.774 234.487 135.128 234.317 134.13 234.158C133.133 233.999 132.425 233.767 132.005 233.461C131.586 233.155 131.376 232.588 131.376 231.761C131.376 230.934 131.665 230.322 132.243 229.925C132.833 229.528 133.564 229.33 134.436 229.33C135.128 229.33 135.995 229.409 137.037 229.568L137.513 229.653L137.479 230.741C136.221 230.56 135.23 230.469 134.504 230.469ZM139.653 238V236.062H141.047V238H139.653ZM33.6194 262.198V257.336H37.8694V262.198H33.6194ZM49.945 264V252.236H52.308L55.64 262.181L58.972 252.236H61.335V264H60.026V253.63H59.788L56.371 263.575H54.909L51.492 253.63H51.254V264H49.945ZM70.0023 258.067V262.419C70.0363 262.838 70.365 263.088 70.9883 263.167L70.9373 264.17C70.042 264.17 69.3677 263.943 68.9143 263.49C67.8943 263.943 66.8743 264.17 65.8543 264.17C65.0723 264.17 64.4773 263.949 64.0693 263.507C63.6613 263.065 63.4573 262.43 63.4573 261.603C63.4573 260.776 63.667 260.169 64.0863 259.784C64.5057 259.387 65.163 259.144 66.0583 259.053L68.7273 258.798V258.067C68.7273 257.489 68.6027 257.075 68.3533 256.826C68.104 256.577 67.764 256.452 67.3333 256.452C66.4267 256.452 65.486 256.509 64.5113 256.622L63.9843 256.673L63.9333 255.704C65.18 255.455 66.285 255.33 67.2483 255.33C68.2117 255.33 68.9087 255.551 69.3393 255.993C69.7813 256.435 70.0023 257.126 70.0023 258.067ZM64.7663 261.535C64.7663 262.578 65.197 263.099 66.0583 263.099C66.829 263.099 67.5883 262.969 68.3363 262.708L68.7273 262.572V259.767L66.2113 260.005C65.7013 260.05 65.333 260.198 65.1063 260.447C64.8797 260.696 64.7663 261.059 64.7663 261.535ZM72.5179 264V255.5H73.7929V264H72.5179ZM72.5179 253.579V252.1H73.7929V253.579H72.5179ZM77.5117 264H76.2367V255.5H77.4947V256.095C78.4127 255.585 79.291 255.33 80.1297 255.33C81.263 255.33 82.0224 255.636 82.4077 256.248C82.8044 256.86 83.0027 257.948 83.0027 259.512V264H81.7447V259.546C81.7447 258.367 81.6257 257.563 81.3877 257.132C81.161 256.69 80.668 256.469 79.9087 256.469C79.546 256.469 79.1607 256.526 78.7527 256.639C78.356 256.741 78.05 256.843 77.8347 256.945L77.5117 257.098V264ZM89.7208 256.605H87.0178V260.668C87.0178 261.643 87.0858 262.283 87.2218 262.589C87.3691 262.895 87.7091 263.048 88.2418 263.048L89.7548 262.946L89.8398 264C89.0804 264.125 88.5024 264.187 88.1058 264.187C87.2218 264.187 86.6098 263.972 86.2698 263.541C85.9298 263.11 85.7598 262.289 85.7598 261.076V256.605H84.5528V255.5H85.7598V252.899H87.0178V255.5H89.7208V256.605ZM97.2787 258.067V262.419C97.3127 262.838 97.6414 263.088 98.2647 263.167L98.2137 264.17C97.3184 264.17 96.644 263.943 96.1907 263.49C95.1707 263.943 94.1507 264.17 93.1307 264.17C92.3487 264.17 91.7537 263.949 91.3457 263.507C90.9377 263.065 90.7337 262.43 90.7337 261.603C90.7337 260.776 90.9434 260.169 91.3627 259.784C91.782 259.387 92.4394 259.144 93.3347 259.053L96.0037 258.798V258.067C96.0037 257.489 95.879 257.075 95.6297 256.826C95.3804 256.577 95.0404 256.452 94.6097 256.452C93.703 256.452 92.7624 256.509 91.7877 256.622L91.2607 256.673L91.2097 255.704C92.4564 255.455 93.5614 255.33 94.5247 255.33C95.488 255.33 96.185 255.551 96.6157 255.993C97.0577 256.435 97.2787 257.126 97.2787 258.067ZM92.0427 261.535C92.0427 262.578 92.4734 263.099 93.3347 263.099C94.1054 263.099 94.8647 262.969 95.6127 262.708L96.0037 262.572V259.767L93.4877 260.005C92.9777 260.05 92.6094 260.198 92.3827 260.447C92.156 260.696 92.0427 261.059 92.0427 261.535ZM99.7943 264V255.5H101.069V264H99.7943ZM99.7943 253.579V252.1H101.069V253.579H99.7943ZM104.788 264H103.513V255.5H104.771V256.095C105.689 255.585 106.567 255.33 107.406 255.33C108.539 255.33 109.299 255.636 109.684 256.248C110.081 256.86 110.279 257.948 110.279 259.512V264H109.021V259.546C109.021 258.367 108.902 257.563 108.664 257.132C108.437 256.69 107.944 256.469 107.185 256.469C106.822 256.469 106.437 256.526 106.029 256.639C105.632 256.741 105.326 256.843 105.111 256.945L104.788 257.098V264ZM115.313 256.469C114.078 256.469 113.46 256.9 113.46 257.761C113.46 258.158 113.602 258.441 113.885 258.611C114.168 258.77 114.814 258.94 115.823 259.121C116.832 259.291 117.546 259.535 117.965 259.852C118.384 260.169 118.594 260.764 118.594 261.637C118.594 262.51 118.311 263.15 117.744 263.558C117.189 263.966 116.373 264.17 115.296 264.17C114.593 264.17 113.766 264.091 112.814 263.932L112.304 263.847L112.372 262.742C113.664 262.935 114.639 263.031 115.296 263.031C115.953 263.031 116.452 262.929 116.792 262.725C117.143 262.51 117.319 262.158 117.319 261.671C117.319 261.172 117.172 260.838 116.877 260.668C116.582 260.487 115.936 260.317 114.939 260.158C113.942 259.999 113.233 259.767 112.814 259.461C112.395 259.155 112.185 258.588 112.185 257.761C112.185 256.934 112.474 256.322 113.052 255.925C113.641 255.528 114.372 255.33 115.245 255.33C115.936 255.33 116.803 255.409 117.846 255.568L118.322 255.653L118.288 256.741C117.03 256.56 116.038 256.469 115.313 256.469ZM124.282 267.774V255.5H125.54V256.112C126.401 255.591 127.251 255.33 128.09 255.33C129.166 255.33 129.948 255.676 130.436 256.367C130.923 257.047 131.167 258.175 131.167 259.75C131.167 261.325 130.878 262.459 130.3 263.15C129.733 263.83 128.787 264.17 127.461 264.17C126.769 264.17 126.135 264.108 125.557 263.983V267.774H124.282ZM127.903 256.469C127.563 256.469 127.194 256.526 126.798 256.639C126.412 256.752 126.106 256.866 125.88 256.979L125.557 257.149V262.878C126.361 263.003 126.973 263.065 127.393 263.065C128.311 263.065 128.951 262.804 129.314 262.283C129.688 261.762 129.875 260.912 129.875 259.733C129.875 258.554 129.705 257.716 129.365 257.217C129.036 256.718 128.549 256.469 127.903 256.469ZM133.246 264V255.5H134.504V256.656C135.49 255.976 136.527 255.528 137.615 255.313V256.605C137.139 256.696 136.641 256.837 136.119 257.03C135.609 257.223 135.218 257.393 134.946 257.54L134.521 257.761V264H133.246ZM144.737 262.946L145.23 262.895L145.264 263.898C143.972 264.079 142.867 264.17 141.949 264.17C140.725 264.17 139.858 263.819 139.348 263.116C138.838 262.402 138.583 261.297 138.583 259.801C138.583 256.82 139.768 255.33 142.136 255.33C143.281 255.33 144.137 255.653 144.703 256.299C145.27 256.934 145.553 257.937 145.553 259.308L145.485 260.277H139.875C139.875 261.218 140.045 261.915 140.385 262.368C140.725 262.821 141.315 263.048 142.153 263.048C143.003 263.048 143.865 263.014 144.737 262.946ZM144.278 259.257C144.278 258.214 144.108 257.478 143.768 257.047C143.44 256.616 142.896 256.401 142.136 256.401C141.388 256.401 140.822 256.628 140.436 257.081C140.062 257.534 139.87 258.26 139.858 259.257H144.278ZM150.719 255.33C151.093 255.33 151.728 255.398 152.623 255.534L153.031 255.585L152.98 256.622C152.074 256.52 151.405 256.469 150.974 256.469C150.011 256.469 149.354 256.701 149.002 257.166C148.662 257.619 148.492 258.469 148.492 259.716C148.492 260.951 148.651 261.813 148.968 262.3C149.297 262.787 149.971 263.031 150.991 263.031L152.997 262.878L153.048 263.932C151.994 264.091 151.207 264.17 150.685 264.17C149.359 264.17 148.441 263.83 147.931 263.15C147.433 262.47 147.183 261.325 147.183 259.716C147.183 258.095 147.455 256.962 147.999 256.316C148.543 255.659 149.45 255.33 150.719 255.33ZM154.945 264V255.5H156.22V264H154.945ZM154.945 253.579V252.1H156.22V253.579H154.945ZM161.332 256.469C160.097 256.469 159.479 256.9 159.479 257.761C159.479 258.158 159.621 258.441 159.904 258.611C160.188 258.77 160.834 258.94 161.842 259.121C162.851 259.291 163.565 259.535 163.984 259.852C164.404 260.169 164.613 260.764 164.613 261.637C164.613 262.51 164.33 263.15 163.763 263.558C163.208 263.966 162.392 264.17 161.315 264.17C160.613 264.17 159.785 264.091 158.833 263.932L158.323 263.847L158.391 262.742C159.683 262.935 160.658 263.031 161.315 263.031C161.973 263.031 162.471 262.929 162.811 262.725C163.163 262.51 163.338 262.158 163.338 261.671C163.338 261.172 163.191 260.838 162.896 260.668C162.602 260.487 161.956 260.317 160.958 260.158C159.961 259.999 159.253 259.767 158.833 259.461C158.414 259.155 158.204 258.588 158.204 257.761C158.204 256.934 158.493 256.322 159.071 255.925C159.661 255.528 160.392 255.33 161.264 255.33C161.956 255.33 162.823 255.409 163.865 255.568L164.341 255.653L164.307 256.741C163.049 256.56 162.058 256.469 161.332 256.469ZM172.346 262.946L172.839 262.895L172.873 263.898C171.581 264.079 170.476 264.17 169.558 264.17C168.334 264.17 167.467 263.819 166.957 263.116C166.447 262.402 166.192 261.297 166.192 259.801C166.192 256.82 167.376 255.33 169.745 255.33C170.889 255.33 171.745 255.653 172.312 256.299C172.878 256.934 173.162 257.937 173.162 259.308L173.094 260.277H167.484C167.484 261.218 167.654 261.915 167.994 262.368C168.334 262.821 168.923 263.048 169.762 263.048C170.612 263.048 171.473 263.014 172.346 262.946ZM171.887 259.257C171.887 258.214 171.717 257.478 171.377 257.047C171.048 256.616 170.504 256.401 169.745 256.401C168.997 256.401 168.43 256.628 168.045 257.081C167.671 257.534 167.478 258.26 167.467 259.257H171.887ZM181.553 256.469C180.318 256.469 179.7 256.9 179.7 257.761C179.7 258.158 179.842 258.441 180.125 258.611C180.408 258.77 181.054 258.94 182.063 259.121C183.072 259.291 183.786 259.535 184.205 259.852C184.624 260.169 184.834 260.764 184.834 261.637C184.834 262.51 184.551 263.15 183.984 263.558C183.429 263.966 182.613 264.17 181.536 264.17C180.833 264.17 180.006 264.091 179.054 263.932L178.544 263.847L178.612 262.742C179.904 262.935 180.879 263.031 181.536 263.031C182.193 263.031 182.692 262.929 183.032 262.725C183.383 262.51 183.559 262.158 183.559 261.671C183.559 261.172 183.412 260.838 183.117 260.668C182.822 260.487 182.176 260.317 181.179 260.158C180.182 259.999 179.473 259.767 179.054 259.461C178.635 259.155 178.425 258.588 178.425 257.761C178.425 256.934 178.714 256.322 179.292 255.925C179.881 255.528 180.612 255.33 181.485 255.33C182.176 255.33 183.043 255.409 184.086 255.568L184.562 255.653L184.528 256.741C183.27 256.56 182.278 256.469 181.553 256.469ZM191.19 256.605H188.487V260.668C188.487 261.643 188.555 262.283 188.691 262.589C188.838 262.895 189.178 263.048 189.711 263.048L191.224 262.946L191.309 264C190.549 264.125 189.971 264.187 189.575 264.187C188.691 264.187 188.079 263.972 187.739 263.541C187.399 263.11 187.229 262.289 187.229 261.076V256.605H186.022V255.5H187.229V252.899H188.487V255.5H191.19V256.605ZM198.747 258.067V262.419C198.781 262.838 199.11 263.088 199.733 263.167L199.682 264.17C198.787 264.17 198.113 263.943 197.659 263.49C196.639 263.943 195.619 264.17 194.599 264.17C193.817 264.17 193.222 263.949 192.814 263.507C192.406 263.065 192.202 262.43 192.202 261.603C192.202 260.776 192.412 260.169 192.831 259.784C193.251 259.387 193.908 259.144 194.803 259.053L197.472 258.798V258.067C197.472 257.489 197.348 257.075 197.098 256.826C196.849 256.577 196.509 256.452 196.078 256.452C195.172 256.452 194.231 256.509 193.256 256.622L192.729 256.673L192.678 255.704C193.925 255.455 195.03 255.33 195.993 255.33C196.957 255.33 197.654 255.551 198.084 255.993C198.526 256.435 198.747 257.126 198.747 258.067ZM193.511 261.535C193.511 262.578 193.942 263.099 194.803 263.099C195.574 263.099 196.333 262.969 197.081 262.708L197.472 262.572V259.767L194.956 260.005C194.446 260.05 194.078 260.198 193.851 260.447C193.625 260.696 193.511 261.059 193.511 261.535ZM205.666 256.605H202.963V260.668C202.963 261.643 203.031 262.283 203.167 262.589C203.314 262.895 203.654 263.048 204.187 263.048L205.7 262.946L205.785 264C205.026 264.125 204.448 264.187 204.051 264.187C203.167 264.187 202.555 263.972 202.215 263.541C201.875 263.11 201.705 262.289 201.705 261.076V256.605H200.498V255.5H201.705V252.899H202.963V255.5H205.666V256.605ZM212.527 255.5H213.802V264H212.527V263.405C211.677 263.915 210.838 264.17 210.011 264.17C208.855 264.17 208.084 263.87 207.699 263.269C207.325 262.668 207.138 261.558 207.138 259.937V255.5H208.413V259.92C208.413 261.155 208.521 261.983 208.736 262.402C208.951 262.821 209.439 263.031 210.198 263.031C210.572 263.031 210.952 262.98 211.337 262.878C211.722 262.765 212.017 262.657 212.221 262.555L212.527 262.402V255.5ZM218.923 256.469C217.688 256.469 217.07 256.9 217.07 257.761C217.07 258.158 217.212 258.441 217.495 258.611C217.779 258.77 218.425 258.94 219.433 259.121C220.442 259.291 221.156 259.535 221.575 259.852C221.995 260.169 222.204 260.764 222.204 261.637C222.204 262.51 221.921 263.15 221.354 263.558C220.799 263.966 219.983 264.17 218.906 264.17C218.204 264.17 217.376 264.091 216.424 263.932L215.914 263.847L215.982 262.742C217.274 262.935 218.249 263.031 218.906 263.031C219.564 263.031 220.062 262.929 220.402 262.725C220.754 262.51 220.929 262.158 220.929 261.671C220.929 261.172 220.782 260.838 220.487 260.668C220.193 260.487 219.547 260.317 218.549 260.158C217.552 259.999 216.844 259.767 216.424 259.461C216.005 259.155 215.795 258.588 215.795 257.761C215.795 256.934 216.084 256.322 216.662 255.925C217.252 255.528 217.983 255.33 218.855 255.33C219.547 255.33 220.414 255.409 221.456 255.568L221.932 255.653L221.898 256.741C220.64 256.56 219.649 256.469 218.923 256.469ZM227.518 259.733C227.518 258.18 227.796 257.058 228.351 256.367C228.906 255.676 229.841 255.33 231.156 255.33C232.482 255.33 233.417 255.676 233.961 256.367C234.516 257.058 234.794 258.18 234.794 259.733C234.794 261.286 234.533 262.413 234.012 263.116C233.491 263.819 232.539 264.17 231.156 264.17C229.773 264.17 228.821 263.819 228.3 263.116C227.779 262.413 227.518 261.286 227.518 259.733ZM228.827 259.716C228.827 260.951 228.974 261.818 229.269 262.317C229.575 262.816 230.204 263.065 231.156 263.065C232.119 263.065 232.748 262.821 233.043 262.334C233.338 261.835 233.485 260.963 233.485 259.716C233.485 258.469 233.321 257.614 232.992 257.149C232.663 256.673 232.051 256.435 231.156 256.435C230.272 256.435 229.66 256.673 229.32 257.149C228.991 257.614 228.827 258.469 228.827 259.716ZM238.505 256.605V264H237.23V256.605H236.159V255.5H237.23V254.735C237.23 253.534 237.4 252.718 237.74 252.287C238.08 251.845 238.675 251.624 239.525 251.624L241.242 251.743L241.225 252.797C240.591 252.774 240.064 252.763 239.644 252.763C239.236 252.763 238.942 252.899 238.76 253.171C238.59 253.443 238.505 253.97 238.505 254.752V255.5H240.97V256.605H238.505ZM250.64 256.605H247.937V260.668C247.937 261.643 248.005 262.283 248.141 262.589C248.288 262.895 248.628 263.048 249.161 263.048L250.674 262.946L250.759 264C249.999 264.125 249.421 264.187 249.025 264.187C248.141 264.187 247.529 263.972 247.189 263.541C246.849 263.11 246.679 262.289 246.679 261.076V256.605H245.472V255.5H246.679V252.899H247.937V255.5H250.64V256.605ZM253.472 264H252.197V251.794H253.472V255.976C254.378 255.545 255.251 255.33 256.09 255.33C257.223 255.33 257.982 255.636 258.368 256.248C258.764 256.86 258.963 257.948 258.963 259.512V264H257.688V259.546C257.688 258.367 257.569 257.563 257.331 257.132C257.104 256.69 256.617 256.469 255.869 256.469C255.155 256.469 254.463 256.599 253.795 256.86L253.472 256.979V264ZM267.108 262.946L267.601 262.895L267.635 263.898C266.343 264.079 265.238 264.17 264.32 264.17C263.096 264.17 262.229 263.819 261.719 263.116C261.209 262.402 260.954 261.297 260.954 259.801C260.954 256.82 262.138 255.33 264.507 255.33C265.651 255.33 266.507 255.653 267.074 256.299C267.64 256.934 267.924 257.937 267.924 259.308L267.856 260.277H262.246C262.246 261.218 262.416 261.915 262.756 262.368C263.096 262.821 263.685 263.048 264.524 263.048C265.374 263.048 266.235 263.014 267.108 262.946ZM266.649 259.257C266.649 258.214 266.479 257.478 266.139 257.047C265.81 256.616 265.266 256.401 264.507 256.401C263.759 256.401 263.192 256.628 262.807 257.081C262.433 257.534 262.24 258.26 262.229 259.257H266.649ZM55.725 284.067V288.419C55.759 288.838 56.0877 289.088 56.711 289.167L56.66 290.17C55.7647 290.17 55.0903 289.943 54.637 289.49C53.617 289.943 52.597 290.17 51.577 290.17C50.795 290.17 50.2 289.949 49.792 289.507C49.384 289.065 49.18 288.43 49.18 287.603C49.18 286.776 49.3897 286.169 49.809 285.784C50.2283 285.387 50.8857 285.144 51.781 285.053L54.45 284.798V284.067C54.45 283.489 54.3253 283.075 54.076 282.826C53.8267 282.577 53.4867 282.452 53.056 282.452C52.1493 282.452 51.2087 282.509 50.234 282.622L49.707 282.673L49.656 281.704C50.9027 281.455 52.0077 281.33 52.971 281.33C53.9343 281.33 54.6313 281.551 55.062 281.993C55.504 282.435 55.725 283.126 55.725 284.067ZM50.489 287.535C50.489 288.578 50.9197 289.099 51.781 289.099C52.5517 289.099 53.311 288.969 54.059 288.708L54.45 288.572V285.767L51.934 286.005C51.424 286.05 51.0557 286.198 50.829 286.447C50.6023 286.696 50.489 287.059 50.489 287.535ZM58.2406 290V281.5H59.5156V290H58.2406ZM58.2406 279.579V278.1H59.5156V279.579H58.2406ZM61.9594 290V281.5H63.2174V282.656C64.2034 281.976 65.2404 281.528 66.3284 281.313V282.605C65.8524 282.696 65.3537 282.837 64.8324 283.03C64.3224 283.223 63.9314 283.393 63.6594 283.54L63.2344 283.761V290H61.9594ZM70.5053 282.469C69.27 282.469 68.6523 282.9 68.6523 283.761C68.6523 284.158 68.794 284.441 69.0773 284.611C69.3606 284.77 70.0066 284.94 71.0153 285.121C72.024 285.291 72.738 285.535 73.1573 285.852C73.5766 286.169 73.7863 286.764 73.7863 287.637C73.7863 288.51 73.503 289.15 72.9363 289.558C72.381 289.966 71.565 290.17 70.4883 290.17C69.7856 290.17 68.9583 290.091 68.0063 289.932L67.4963 289.847L67.5643 288.742C68.8563 288.935 69.831 289.031 70.4883 289.031C71.1456 289.031 71.6443 288.929 71.9843 288.725C72.3356 288.51 72.5113 288.158 72.5113 287.671C72.5113 287.172 72.364 286.838 72.0693 286.668C71.7746 286.487 71.1286 286.317 70.1313 286.158C69.134 285.999 68.4256 285.767 68.0063 285.461C67.587 285.155 67.3773 284.588 67.3773 283.761C67.3773 282.934 67.6663 282.322 68.2443 281.925C68.8336 281.528 69.5646 281.33 70.4373 281.33C71.1286 281.33 71.9956 281.409 73.0383 281.568L73.5143 281.653L73.4803 282.741C72.2223 282.56 71.2306 282.469 70.5053 282.469ZM75.7386 293.774V281.5H76.9966V282.112C77.858 281.591 78.708 281.33 79.5466 281.33C80.6233 281.33 81.4053 281.676 81.8926 282.367C82.38 283.047 82.6236 284.175 82.6236 285.75C82.6236 287.325 82.3346 288.459 81.7566 289.15C81.19 289.83 80.2436 290.17 78.9176 290.17C78.2263 290.17 77.5916 290.108 77.0136 289.983V293.774H75.7386ZM79.3596 282.469C79.0196 282.469 78.6513 282.526 78.2546 282.639C77.8693 282.752 77.5633 282.866 77.3366 282.979L77.0136 283.149V288.878C77.8183 289.003 78.4303 289.065 78.8496 289.065C79.7676 289.065 80.408 288.804 80.7706 288.283C81.1446 287.762 81.3316 286.912 81.3316 285.733C81.3316 284.554 81.1616 283.716 80.8216 283.217C80.493 282.718 80.0056 282.469 79.3596 282.469ZM90.7045 284.067V288.419C90.7385 288.838 91.0672 289.088 91.6905 289.167L91.6395 290.17C90.7442 290.17 90.0698 289.943 89.6165 289.49C88.5965 289.943 87.5765 290.17 86.5565 290.17C85.7745 290.17 85.1795 289.949 84.7715 289.507C84.3635 289.065 84.1595 288.43 84.1595 287.603C84.1595 286.776 84.3692 286.169 84.7885 285.784C85.2078 285.387 85.8652 285.144 86.7605 285.053L89.4295 284.798V284.067C89.4295 283.489 89.3048 283.075 89.0555 282.826C88.8062 282.577 88.4662 282.452 88.0355 282.452C87.1288 282.452 86.1882 282.509 85.2135 282.622L84.6865 282.673L84.6355 281.704C85.8822 281.455 86.9872 281.33 87.9505 281.33C88.9138 281.33 89.6108 281.551 90.0415 281.993C90.4835 282.435 90.7045 283.126 90.7045 284.067ZM85.4685 287.535C85.4685 288.578 85.8992 289.099 86.7605 289.099C87.5312 289.099 88.2905 288.969 89.0385 288.708L89.4295 288.572V285.767L86.9135 286.005C86.4035 286.05 86.0352 286.198 85.8085 286.447C85.5818 286.696 85.4685 287.059 85.4685 287.535ZM96.3991 281.33C96.7731 281.33 97.4078 281.398 98.3031 281.534L98.7111 281.585L98.6601 282.622C97.7534 282.52 97.0848 282.469 96.6541 282.469C95.6908 282.469 95.0334 282.701 94.6821 283.166C94.3421 283.619 94.1721 284.469 94.1721 285.716C94.1721 286.951 94.3308 287.813 94.6481 288.3C94.9768 288.787 95.6511 289.031 96.6711 289.031L98.6771 288.878L98.7281 289.932C97.6741 290.091 96.8864 290.17 96.3651 290.17C95.0391 290.17 94.1211 289.83 93.6111 289.15C93.1124 288.47 92.8631 287.325 92.8631 285.716C92.8631 284.095 93.1351 282.962 93.6791 282.316C94.2231 281.659 95.1298 281.33 96.3991 281.33ZM106.305 288.946L106.798 288.895L106.832 289.898C105.54 290.079 104.435 290.17 103.517 290.17C102.293 290.17 101.426 289.819 100.916 289.116C100.406 288.402 100.151 287.297 100.151 285.801C100.151 282.82 101.335 281.33 103.704 281.33C104.848 281.33 105.704 281.653 106.271 282.299C106.837 282.934 107.121 283.937 107.121 285.308L107.053 286.277H101.443C101.443 287.218 101.613 287.915 101.953 288.368C102.293 288.821 102.882 289.048 103.721 289.048C104.571 289.048 105.432 289.014 106.305 288.946ZM105.846 285.257C105.846 284.214 105.676 283.478 105.336 283.047C105.007 282.616 104.463 282.401 103.704 282.401C102.956 282.401 102.389 282.628 102.004 283.081C101.63 283.534 101.437 284.26 101.426 285.257H105.846ZM109.023 290V288.062H110.417V290H109.023ZM33.6194 314.198V309.336H37.8694V314.198H33.6194ZM54.603 311.155V309.982H57.85V315.762C56.422 316.034 55.147 316.17 54.025 316.17C52.3137 316.17 51.1237 315.677 50.455 314.691C49.7977 313.705 49.469 312.186 49.469 310.135C49.469 308.072 49.7977 306.548 50.455 305.562C51.1237 304.565 52.3023 304.066 53.991 304.066C55.045 304.066 56.1387 304.179 57.272 304.406L57.85 304.508L57.799 305.596C56.3937 305.358 55.1753 305.239 54.144 305.239C52.8407 305.239 51.9623 305.619 51.509 306.378C51.0557 307.126 50.829 308.378 50.829 310.135C50.829 311.88 51.0557 313.133 51.509 313.892C51.9623 314.64 52.835 315.014 54.127 315.014C54.9203 315.014 55.7307 314.935 56.558 314.776V311.155H54.603ZM65.9796 314.946L66.4726 314.895L66.5066 315.898C65.2146 316.079 64.1096 316.17 63.1916 316.17C61.9676 316.17 61.1006 315.819 60.5906 315.116C60.0806 314.402 59.8256 313.297 59.8256 311.801C59.8256 308.82 61.0099 307.33 63.3786 307.33C64.5233 307.33 65.3789 307.653 65.9456 308.299C66.5123 308.934 66.7956 309.937 66.7956 311.308L66.7276 312.277H61.1176C61.1176 313.218 61.2876 313.915 61.6276 314.368C61.9676 314.821 62.5569 315.048 63.3956 315.048C64.2456 315.048 65.1069 315.014 65.9796 314.946ZM65.5206 311.257C65.5206 310.214 65.3506 309.478 65.0106 309.047C64.6819 308.616 64.1379 308.401 63.3786 308.401C62.6306 308.401 62.0639 308.628 61.6786 309.081C61.3046 309.534 61.1119 310.26 61.1006 311.257H65.5206ZM73.1358 308.605H70.4328V312.668C70.4328 313.643 70.5008 314.283 70.6368 314.589C70.7841 314.895 71.1241 315.048 71.6568 315.048L73.1698 314.946L73.2548 316C72.4955 316.125 71.9175 316.187 71.5208 316.187C70.6368 316.187 70.0248 315.972 69.6848 315.541C69.3448 315.11 69.1748 314.289 69.1748 313.076V308.605H67.9678V307.5H69.1748V304.899H70.4328V307.5H73.1358V308.605ZM77.3618 308.469C76.1264 308.469 75.5088 308.9 75.5088 309.761C75.5088 310.158 75.6504 310.441 75.9338 310.611C76.2171 310.77 76.8631 310.94 77.8718 311.121C78.8804 311.291 79.5944 311.535 80.0138 311.852C80.4331 312.169 80.6428 312.764 80.6428 313.637C80.6428 314.51 80.3594 315.15 79.7928 315.558C79.2374 315.966 78.4214 316.17 77.3448 316.17C76.6421 316.17 75.8148 316.091 74.8628 315.932L74.3528 315.847L74.4208 314.742C75.7128 314.935 76.6874 315.031 77.3448 315.031C78.0021 315.031 78.5008 314.929 78.8408 314.725C79.1921 314.51 79.3678 314.158 79.3678 313.671C79.3678 313.172 79.2204 312.838 78.9258 312.668C78.6311 312.487 77.9851 312.317 76.9878 312.158C75.9904 311.999 75.2821 311.767 74.8628 311.461C74.4434 311.155 74.2338 310.588 74.2338 309.761C74.2338 308.934 74.5228 308.322 75.1008 307.925C75.6901 307.528 76.4211 307.33 77.2938 307.33C77.9851 307.33 78.8521 307.409 79.8948 307.568L80.3708 307.653L80.3368 308.741C79.0788 308.56 78.0871 308.469 77.3618 308.469ZM89.5094 307.33C89.8834 307.33 90.5181 307.398 91.4134 307.534L91.8214 307.585L91.7704 308.622C90.8638 308.52 90.1951 308.469 89.7644 308.469C88.8011 308.469 88.1438 308.701 87.7924 309.166C87.4524 309.619 87.2824 310.469 87.2824 311.716C87.2824 312.951 87.4411 313.813 87.7584 314.3C88.0871 314.787 88.7614 315.031 89.7814 315.031L91.7874 314.878L91.8384 315.932C90.7844 316.091 89.9968 316.17 89.4754 316.17C88.1494 316.17 87.2314 315.83 86.7214 315.15C86.2228 314.47 85.9734 313.325 85.9734 311.716C85.9734 310.095 86.2454 308.962 86.7894 308.316C87.3334 307.659 88.2401 307.33 89.5094 307.33ZM93.7347 316V307.5H94.9927V308.656C95.9787 307.976 97.0157 307.528 98.1037 307.313V308.605C97.6277 308.696 97.1291 308.837 96.6077 309.03C96.0977 309.223 95.7067 309.393 95.4347 309.54L95.0097 309.761V316H93.7347ZM99.6117 316V307.5H100.887V316H99.6117ZM99.6117 305.579V304.1H100.887V305.579H99.6117ZM107.733 308.605H105.03V312.668C105.03 313.643 105.098 314.283 105.234 314.589C105.382 314.895 105.722 315.048 106.254 315.048L107.767 314.946L107.852 316C107.093 316.125 106.515 316.187 106.118 316.187C105.234 316.187 104.622 315.972 104.282 315.541C103.942 315.11 103.772 314.289 103.772 313.076V308.605H102.565V307.5H103.772V304.899H105.03V307.5H107.733V308.605ZM109.29 316V307.5H110.565V316H109.29ZM109.29 305.579V304.1H110.565V305.579H109.29ZM116.188 307.33C116.562 307.33 117.197 307.398 118.092 307.534L118.5 307.585L118.449 308.622C117.542 308.52 116.874 308.469 116.443 308.469C115.48 308.469 114.822 308.701 114.471 309.166C114.131 309.619 113.961 310.469 113.961 311.716C113.961 312.951 114.12 313.813 114.437 314.3C114.766 314.787 115.44 315.031 116.46 315.031L118.466 314.878L118.517 315.932C117.463 316.091 116.675 316.17 116.154 316.17C114.828 316.17 113.91 315.83 113.4 315.15C112.901 314.47 112.652 313.325 112.652 311.716C112.652 310.095 112.924 308.962 113.468 308.316C114.012 307.659 114.919 307.33 116.188 307.33ZM126.414 310.067V314.419C126.448 314.838 126.777 315.088 127.4 315.167L127.349 316.17C126.454 316.17 125.78 315.943 125.326 315.49C124.306 315.943 123.286 316.17 122.266 316.17C121.484 316.17 120.889 315.949 120.481 315.507C120.073 315.065 119.869 314.43 119.869 313.603C119.869 312.776 120.079 312.169 120.498 311.784C120.918 311.387 121.575 311.144 122.47 311.053L125.139 310.798V310.067C125.139 309.489 125.015 309.075 124.765 308.826C124.516 308.577 124.176 308.452 123.745 308.452C122.839 308.452 121.898 308.509 120.923 308.622L120.396 308.673L120.345 307.704C121.592 307.455 122.697 307.33 123.66 307.33C124.624 307.33 125.321 307.551 125.751 307.993C126.193 308.435 126.414 309.126 126.414 310.067ZM121.178 313.535C121.178 314.578 121.609 315.099 122.47 315.099C123.241 315.099 124 314.969 124.748 314.708L125.139 314.572V311.767L122.623 312.005C122.113 312.05 121.745 312.198 121.518 312.447C121.292 312.696 121.178 313.059 121.178 313.535ZM129.032 316V303.794H130.307V316H129.032ZM141.904 307.5H143.179V316H141.904V315.405C141.054 315.915 140.215 316.17 139.388 316.17C138.232 316.17 137.461 315.87 137.076 315.269C136.702 314.668 136.515 313.558 136.515 311.937V307.5H137.79V311.92C137.79 313.155 137.898 313.983 138.113 314.402C138.328 314.821 138.816 315.031 139.575 315.031C139.949 315.031 140.329 314.98 140.714 314.878C141.099 314.765 141.394 314.657 141.598 314.555L141.904 314.402V307.5ZM145.631 319.774V307.5H146.889V308.112C147.751 307.591 148.601 307.33 149.439 307.33C150.516 307.33 151.298 307.676 151.785 308.367C152.273 309.047 152.516 310.175 152.516 311.75C152.516 313.325 152.227 314.459 151.649 315.15C151.083 315.83 150.136 316.17 148.81 316.17C148.119 316.17 147.484 316.108 146.906 315.983V319.774H145.631ZM149.252 308.469C148.912 308.469 148.544 308.526 148.147 308.639C147.762 308.752 147.456 308.866 147.229 308.979L146.906 309.149V314.878C147.711 315.003 148.323 315.065 148.742 315.065C149.66 315.065 150.301 314.804 150.663 314.283C151.037 313.762 151.224 312.912 151.224 311.733C151.224 310.554 151.054 309.716 150.714 309.217C150.386 308.718 149.898 308.469 149.252 308.469ZM161.124 303.794V316H159.866V315.422C158.993 315.921 158.132 316.17 157.282 316.17C156.829 316.17 156.432 316.113 156.092 316C155.752 315.887 155.435 315.683 155.14 315.388C154.528 314.776 154.222 313.648 154.222 312.005C154.222 310.35 154.494 309.16 155.038 308.435C155.593 307.698 156.506 307.33 157.775 307.33C158.432 307.33 159.129 307.404 159.866 307.551V303.794H161.124ZM156.126 314.47C156.307 314.685 156.5 314.833 156.704 314.912C156.908 314.991 157.169 315.031 157.486 315.031C157.815 315.031 158.177 314.98 158.574 314.878C158.982 314.765 159.299 314.657 159.526 314.555L159.866 314.402V308.639C159.141 308.503 158.466 308.435 157.843 308.435C156.982 308.435 156.381 308.713 156.041 309.268C155.701 309.812 155.531 310.662 155.531 311.818C155.531 313.133 155.729 314.017 156.126 314.47ZM169.595 310.067V314.419C169.629 314.838 169.958 315.088 170.581 315.167L170.53 316.17C169.635 316.17 168.96 315.943 168.507 315.49C167.487 315.943 166.467 316.17 165.447 316.17C164.665 316.17 164.07 315.949 163.662 315.507C163.254 315.065 163.05 314.43 163.05 313.603C163.05 312.776 163.26 312.169 163.679 311.784C164.098 311.387 164.756 311.144 165.651 311.053L168.32 310.798V310.067C168.32 309.489 168.195 309.075 167.946 308.826C167.697 308.577 167.357 308.452 166.926 308.452C166.019 308.452 165.079 308.509 164.104 308.622L163.577 308.673L163.526 307.704C164.773 307.455 165.878 307.33 166.841 307.33C167.804 307.33 168.501 307.551 168.932 307.993C169.374 308.435 169.595 309.126 169.595 310.067ZM164.359 313.535C164.359 314.578 164.79 315.099 165.651 315.099C166.422 315.099 167.181 314.969 167.929 314.708L168.32 314.572V311.767L165.804 312.005C165.294 312.05 164.926 312.198 164.699 312.447C164.472 312.696 164.359 313.059 164.359 313.535ZM176.514 308.605H173.811V312.668C173.811 313.643 173.879 314.283 174.015 314.589C174.162 314.895 174.502 315.048 175.035 315.048L176.548 314.946L176.633 316C175.873 316.125 175.295 316.187 174.899 316.187C174.015 316.187 173.403 315.972 173.063 315.541C172.723 315.11 172.553 314.289 172.553 313.076V308.605H171.346V307.5H172.553V304.899H173.811V307.5H176.514V308.605ZM183.851 314.946L184.344 314.895L184.378 315.898C183.086 316.079 181.981 316.17 181.063 316.17C179.839 316.17 178.972 315.819 178.462 315.116C177.952 314.402 177.697 313.297 177.697 311.801C177.697 308.82 178.881 307.33 181.25 307.33C182.394 307.33 183.25 307.653 183.817 308.299C184.383 308.934 184.667 309.937 184.667 311.308L184.599 312.277H178.989C178.989 313.218 179.159 313.915 179.499 314.368C179.839 314.821 180.428 315.048 181.267 315.048C182.117 315.048 182.978 315.014 183.851 314.946ZM183.392 311.257C183.392 310.214 183.222 309.478 182.882 309.047C182.553 308.616 182.009 308.401 181.25 308.401C180.502 308.401 179.935 308.628 179.55 309.081C179.176 309.534 178.983 310.26 178.972 311.257H183.392ZM189.323 308.469C188.087 308.469 187.47 308.9 187.47 309.761C187.47 310.158 187.611 310.441 187.895 310.611C188.178 310.77 188.824 310.94 189.833 311.121C190.841 311.291 191.555 311.535 191.975 311.852C192.394 312.169 192.604 312.764 192.604 313.637C192.604 314.51 192.32 315.15 191.754 315.558C191.198 315.966 190.382 316.17 189.306 316.17C188.603 316.17 187.776 316.091 186.824 315.932L186.314 315.847L186.382 314.742C187.674 314.935 188.648 315.031 189.306 315.031C189.963 315.031 190.462 314.929 190.802 314.725C191.153 314.51 191.329 314.158 191.329 313.671C191.329 313.172 191.181 312.838 190.887 312.668C190.592 312.487 189.946 312.317 188.949 312.158C187.951 311.999 187.243 311.767 186.824 311.461C186.404 311.155 186.195 310.588 186.195 309.761C186.195 308.934 186.484 308.322 187.062 307.925C187.651 307.528 188.382 307.33 189.255 307.33C189.946 307.33 190.813 307.409 191.856 307.568L192.332 307.653L192.298 308.741C191.04 308.56 190.048 308.469 189.323 308.469ZM199.923 308.605V316H198.648V308.605H197.577V307.5H198.648V306.735C198.648 305.534 198.818 304.718 199.158 304.287C199.498 303.845 200.093 303.624 200.943 303.624L202.66 303.743L202.643 304.797C202.009 304.774 201.482 304.763 201.062 304.763C200.654 304.763 200.36 304.899 200.178 305.171C200.008 305.443 199.923 305.97 199.923 306.752V307.5H202.388V308.605H199.923ZM203.919 316V307.5H205.177V308.656C206.163 307.976 207.2 307.528 208.288 307.313V308.605C207.812 308.696 207.314 308.837 206.792 309.03C206.282 309.223 205.891 309.393 205.619 309.54L205.194 309.761V316H203.919ZM209.256 311.733C209.256 310.18 209.534 309.058 210.089 308.367C210.645 307.676 211.58 307.33 212.894 307.33C214.22 307.33 215.155 307.676 215.699 308.367C216.255 309.058 216.532 310.18 216.532 311.733C216.532 313.286 216.272 314.413 215.75 315.116C215.229 315.819 214.277 316.17 212.894 316.17C211.512 316.17 210.56 315.819 210.038 315.116C209.517 314.413 209.256 313.286 209.256 311.733ZM210.565 311.716C210.565 312.951 210.713 313.818 211.007 314.317C211.313 314.816 211.942 315.065 212.894 315.065C213.858 315.065 214.487 314.821 214.781 314.334C215.076 313.835 215.223 312.963 215.223 311.716C215.223 310.469 215.059 309.614 214.73 309.149C214.402 308.673 213.79 308.435 212.894 308.435C212.01 308.435 211.398 308.673 211.058 309.149C210.73 309.614 210.565 310.469 210.565 311.716ZM219.887 316H218.612V307.5H219.87V308.095C220.72 307.585 221.547 307.33 222.352 307.33C223.406 307.33 224.142 307.619 224.562 308.197C224.936 307.97 225.417 307.772 226.007 307.602C226.607 307.421 227.134 307.33 227.588 307.33C228.721 307.33 229.48 307.636 229.866 308.248C230.262 308.849 230.461 309.937 230.461 311.512V316H229.186V311.546C229.186 310.367 229.072 309.563 228.846 309.132C228.619 308.69 228.137 308.469 227.401 308.469C227.027 308.469 226.641 308.526 226.245 308.639C225.848 308.741 225.542 308.843 225.327 308.945L225.004 309.098C225.151 309.472 225.225 310.299 225.225 311.58V316H223.95V311.614C223.95 310.39 223.836 309.563 223.61 309.132C223.394 308.69 222.913 308.469 222.165 308.469C221.802 308.469 221.428 308.526 221.043 308.639C220.669 308.741 220.38 308.843 220.176 308.945L219.887 309.098V316ZM240.961 308.605H238.258V312.668C238.258 313.643 238.326 314.283 238.462 314.589C238.609 314.895 238.949 315.048 239.482 315.048L240.995 314.946L241.08 316C240.321 316.125 239.743 316.187 239.346 316.187C238.462 316.187 237.85 315.972 237.51 315.541C237.17 315.11 237 314.289 237 313.076V308.605H235.793V307.5H237V304.899H238.258V307.5H240.961V308.605ZM243.793 316H242.518V303.794H243.793V307.976C244.7 307.545 245.572 307.33 246.411 307.33C247.544 307.33 248.304 307.636 248.689 308.248C249.086 308.86 249.284 309.948 249.284 311.512V316H248.009V311.546C248.009 310.367 247.89 309.563 247.652 309.132C247.425 308.69 246.938 308.469 246.19 308.469C245.476 308.469 244.785 308.599 244.116 308.86L243.793 308.979V316ZM257.429 314.946L257.922 314.895L257.956 315.898C256.664 316.079 255.559 316.17 254.641 316.17C253.417 316.17 252.55 315.819 252.04 315.116C251.53 314.402 251.275 313.297 251.275 311.801C251.275 308.82 252.459 307.33 254.828 307.33C255.972 307.33 256.828 307.653 257.395 308.299C257.961 308.934 258.245 309.937 258.245 311.308L258.177 312.277H252.567C252.567 313.218 252.737 313.915 253.077 314.368C253.417 314.821 254.006 315.048 254.845 315.048C255.695 315.048 256.556 315.014 257.429 314.946ZM256.97 311.257C256.97 310.214 256.8 309.478 256.46 309.047C256.131 308.616 255.587 308.401 254.828 308.401C254.08 308.401 253.513 308.628 253.128 309.081C252.754 309.534 252.561 310.26 252.55 311.257H256.97ZM33.6194 340.198V335.336H37.8694V340.198H33.6194ZM52.903 333.33C53.277 333.33 53.9117 333.398 54.807 333.534L55.215 333.585L55.164 334.622C54.2573 334.52 53.5887 334.469 53.158 334.469C52.1947 334.469 51.5373 334.701 51.186 335.166C50.846 335.619 50.676 336.469 50.676 337.716C50.676 338.951 50.8347 339.813 51.152 340.3C51.4807 340.787 52.155 341.031 53.175 341.031L55.181 340.878L55.232 341.932C54.178 342.091 53.3903 342.17 52.869 342.17C51.543 342.17 50.625 341.83 50.115 341.15C49.6163 340.47 49.367 339.325 49.367 337.716C49.367 336.095 49.639 334.962 50.183 334.316C50.727 333.659 51.6337 333.33 52.903 333.33ZM56.6547 337.733C56.6547 336.18 56.9324 335.058 57.4877 334.367C58.043 333.676 58.978 333.33 60.2927 333.33C61.6187 333.33 62.5537 333.676 63.0977 334.367C63.653 335.058 63.9307 336.18 63.9307 337.733C63.9307 339.286 63.67 340.413 63.1487 341.116C62.6274 341.819 61.6754 342.17 60.2927 342.17C58.91 342.17 57.958 341.819 57.4367 341.116C56.9154 340.413 56.6547 339.286 56.6547 337.733ZM57.9637 337.716C57.9637 338.951 58.111 339.818 58.4057 340.317C58.7117 340.816 59.3407 341.065 60.2927 341.065C61.256 341.065 61.885 340.821 62.1797 340.334C62.4744 339.835 62.6217 338.963 62.6217 337.716C62.6217 336.469 62.4574 335.614 62.1287 335.149C61.8 334.673 61.188 334.435 60.2927 334.435C59.4087 334.435 58.7967 334.673 58.4567 335.149C58.128 335.614 57.9637 336.469 57.9637 337.716ZM65.6361 337.733C65.6361 336.18 65.9138 335.058 66.4691 334.367C67.0245 333.676 67.9595 333.33 69.2741 333.33C70.6001 333.33 71.5351 333.676 72.0791 334.367C72.6345 335.058 72.9121 336.18 72.9121 337.733C72.9121 339.286 72.6515 340.413 72.1301 341.116C71.6088 341.819 70.6568 342.17 69.2741 342.17C67.8915 342.17 66.9395 341.819 66.4181 341.116C65.8968 340.413 65.6361 339.286 65.6361 337.733ZM66.9451 337.716C66.9451 338.951 67.0925 339.818 67.3871 340.317C67.6931 340.816 68.3221 341.065 69.2741 341.065C70.2375 341.065 70.8665 340.821 71.1611 340.334C71.4558 339.835 71.6031 338.963 71.6031 337.716C71.6031 336.469 71.4388 335.614 71.1101 335.149C70.7815 334.673 70.1695 334.435 69.2741 334.435C68.3901 334.435 67.7781 334.673 67.4381 335.149C67.1095 335.614 66.9451 336.469 66.9451 337.716ZM74.9916 342V333.5H76.2496V334.656C77.2356 333.976 78.2726 333.528 79.3606 333.313V334.605C78.8846 334.696 78.3859 334.837 77.8646 335.03C77.3546 335.223 76.9636 335.393 76.6916 335.54L76.2666 335.761V342H74.9916ZM87.1807 329.794V342H85.9227V341.422C85.05 341.921 84.1887 342.17 83.3387 342.17C82.8854 342.17 82.4887 342.113 82.1487 342C81.8087 341.887 81.4914 341.683 81.1967 341.388C80.5847 340.776 80.2787 339.648 80.2787 338.005C80.2787 336.35 80.5507 335.16 81.0947 334.435C81.65 333.698 82.5624 333.33 83.8317 333.33C84.489 333.33 85.186 333.404 85.9227 333.551V329.794H87.1807ZM82.1827 340.47C82.364 340.685 82.5567 340.833 82.7607 340.912C82.9647 340.991 83.2254 341.031 83.5427 341.031C83.8714 341.031 84.234 340.98 84.6307 340.878C85.0387 340.765 85.356 340.657 85.5827 340.555L85.9227 340.402V334.639C85.1974 334.503 84.523 334.435 83.8997 334.435C83.0384 334.435 82.4377 334.713 82.0977 335.268C81.7577 335.812 81.5877 336.662 81.5877 337.818C81.5877 339.133 81.786 340.017 82.1827 340.47ZM89.6508 342V333.5H90.9258V342H89.6508ZM89.6508 331.579V330.1H90.9258V331.579H89.6508ZM94.6445 342H93.3695V333.5H94.6275V334.095C95.5455 333.585 96.4238 333.33 97.2625 333.33C98.3958 333.33 99.1552 333.636 99.5405 334.248C99.9372 334.86 100.136 335.948 100.136 337.512V342H98.8775V337.546C98.8775 336.367 98.7585 335.563 98.5205 335.132C98.2938 334.69 97.8008 334.469 97.0415 334.469C96.6788 334.469 96.2935 334.526 95.8855 334.639C95.4888 334.741 95.1828 334.843 94.9675 334.945L94.6445 335.098V342ZM108.501 336.067V340.419C108.535 340.838 108.864 341.088 109.487 341.167L109.436 342.17C108.541 342.17 107.867 341.943 107.413 341.49C106.393 341.943 105.373 342.17 104.353 342.17C103.571 342.17 102.976 341.949 102.568 341.507C102.16 341.065 101.956 340.43 101.956 339.603C101.956 338.776 102.166 338.169 102.585 337.784C103.005 337.387 103.662 337.144 104.557 337.053L107.226 336.798V336.067C107.226 335.489 107.102 335.075 106.852 334.826C106.603 334.577 106.263 334.452 105.832 334.452C104.926 334.452 103.985 334.509 103.01 334.622L102.483 334.673L102.432 333.704C103.679 333.455 104.784 333.33 105.747 333.33C106.711 333.33 107.408 333.551 107.838 333.993C108.28 334.435 108.501 335.126 108.501 336.067ZM103.265 339.535C103.265 340.578 103.696 341.099 104.557 341.099C105.328 341.099 106.087 340.969 106.835 340.708L107.226 340.572V337.767L104.71 338.005C104.2 338.05 103.832 338.198 103.605 338.447C103.379 338.696 103.265 339.059 103.265 339.535ZM115.42 334.605H112.717V338.668C112.717 339.643 112.785 340.283 112.921 340.589C113.068 340.895 113.408 341.048 113.941 341.048L115.454 340.946L115.539 342C114.78 342.125 114.202 342.187 113.805 342.187C112.921 342.187 112.309 341.972 111.969 341.541C111.629 341.11 111.459 340.289 111.459 339.076V334.605H110.252V333.5H111.459V330.899H112.717V333.5H115.42V334.605ZM116.603 337.733C116.603 336.18 116.881 335.058 117.436 334.367C117.991 333.676 118.926 333.33 120.241 333.33C121.567 333.33 122.502 333.676 123.046 334.367C123.601 335.058 123.879 336.18 123.879 337.733C123.879 339.286 123.618 340.413 123.097 341.116C122.576 341.819 121.624 342.17 120.241 342.17C118.858 342.17 117.906 341.819 117.385 341.116C116.864 340.413 116.603 339.286 116.603 337.733ZM117.912 337.716C117.912 338.951 118.059 339.818 118.354 340.317C118.66 340.816 119.289 341.065 120.241 341.065C121.204 341.065 121.833 340.821 122.128 340.334C122.423 339.835 122.57 338.963 122.57 337.716C122.57 336.469 122.406 335.614 122.077 335.149C121.748 334.673 121.136 334.435 120.241 334.435C119.357 334.435 118.745 334.673 118.405 335.149C118.076 335.614 117.912 336.469 117.912 337.716ZM125.958 342V333.5H127.216V334.656C128.202 333.976 129.239 333.528 130.327 333.313V334.605C129.851 334.696 129.353 334.837 128.831 335.03C128.321 335.223 127.93 335.393 127.658 335.54L127.233 335.761V342H125.958ZM134.504 334.469C133.269 334.469 132.651 334.9 132.651 335.761C132.651 336.158 132.793 336.441 133.076 336.611C133.36 336.77 134.006 336.94 135.014 337.121C136.023 337.291 136.737 337.535 137.156 337.852C137.576 338.169 137.785 338.764 137.785 339.637C137.785 340.51 137.502 341.15 136.935 341.558C136.38 341.966 135.564 342.17 134.487 342.17C133.785 342.17 132.957 342.091 132.005 341.932L131.495 341.847L131.563 340.742C132.855 340.935 133.83 341.031 134.487 341.031C135.145 341.031 135.643 340.929 135.983 340.725C136.335 340.51 136.51 340.158 136.51 339.671C136.51 339.172 136.363 338.838 136.068 338.668C135.774 338.487 135.128 338.317 134.13 338.158C133.133 337.999 132.425 337.767 132.005 337.461C131.586 337.155 131.376 336.588 131.376 335.761C131.376 334.934 131.665 334.322 132.243 333.925C132.833 333.528 133.564 333.33 134.436 333.33C135.128 333.33 135.995 333.409 137.037 333.568L137.513 333.653L137.479 334.741C136.221 334.56 135.23 334.469 134.504 334.469ZM149.474 336.067V340.419C149.508 340.838 149.837 341.088 150.46 341.167L150.409 342.17C149.514 342.17 148.839 341.943 148.386 341.49C147.366 341.943 146.346 342.17 145.326 342.17C144.544 342.17 143.949 341.949 143.541 341.507C143.133 341.065 142.929 340.43 142.929 339.603C142.929 338.776 143.139 338.169 143.558 337.784C143.977 337.387 144.635 337.144 145.53 337.053L148.199 336.798V336.067C148.199 335.489 148.074 335.075 147.825 334.826C147.576 334.577 147.236 334.452 146.805 334.452C145.898 334.452 144.958 334.509 143.983 334.622L143.456 334.673L143.405 333.704C144.652 333.455 145.757 333.33 146.72 333.33C147.683 333.33 148.38 333.551 148.811 333.993C149.253 334.435 149.474 335.126 149.474 336.067ZM144.238 339.535C144.238 340.578 144.669 341.099 145.53 341.099C146.301 341.099 147.06 340.969 147.808 340.708L148.199 340.572V337.767L145.683 338.005C145.173 338.05 144.805 338.198 144.578 338.447C144.351 338.696 144.238 339.059 144.238 339.535ZM153.265 342H151.99V333.5H153.248V334.095C154.166 333.585 155.044 333.33 155.883 333.33C157.016 333.33 157.775 333.636 158.161 334.248C158.557 334.86 158.756 335.948 158.756 337.512V342H157.498V337.546C157.498 336.367 157.379 335.563 157.141 335.132C156.914 334.69 156.421 334.469 155.662 334.469C155.299 334.469 154.914 334.526 154.506 334.639C154.109 334.741 153.803 334.843 153.588 334.945L153.265 335.098V342ZM167.648 329.794V342H166.39V341.422C165.518 341.921 164.656 342.17 163.806 342.17C163.353 342.17 162.956 342.113 162.616 342C162.276 341.887 161.959 341.683 161.664 341.388C161.052 340.776 160.746 339.648 160.746 338.005C160.746 336.35 161.018 335.16 161.562 334.435C162.118 333.698 163.03 333.33 164.299 333.33C164.957 333.33 165.654 333.404 166.39 333.551V329.794H167.648ZM162.65 340.47C162.832 340.685 163.024 340.833 163.228 340.912C163.432 340.991 163.693 341.031 164.01 341.031C164.339 341.031 164.702 340.98 165.098 340.878C165.506 340.765 165.824 340.657 166.05 340.555L166.39 340.402V334.639C165.665 334.503 164.991 334.435 164.367 334.435C163.506 334.435 162.905 334.713 162.565 335.268C162.225 335.812 162.055 336.662 162.055 337.818C162.055 339.133 162.254 340.017 162.65 340.47ZM173.854 345.774V333.5H175.112V334.112C175.973 333.591 176.823 333.33 177.662 333.33C178.739 333.33 179.521 333.676 180.008 334.367C180.495 335.047 180.739 336.175 180.739 337.75C180.739 339.325 180.45 340.459 179.872 341.15C179.305 341.83 178.359 342.17 177.033 342.17C176.342 342.17 175.707 342.108 175.129 341.983V345.774H173.854ZM177.475 334.469C177.135 334.469 176.767 334.526 176.37 334.639C175.985 334.752 175.679 334.866 175.452 334.979L175.129 335.149V340.878C175.934 341.003 176.546 341.065 176.965 341.065C177.883 341.065 178.523 340.804 178.886 340.283C179.26 339.762 179.447 338.912 179.447 337.733C179.447 336.554 179.277 335.716 178.937 335.217C178.608 334.718 178.121 334.469 177.475 334.469ZM188.82 336.067V340.419C188.854 340.838 189.182 341.088 189.806 341.167L189.755 342.17C188.859 342.17 188.185 341.943 187.732 341.49C186.712 341.943 185.692 342.17 184.672 342.17C183.89 342.17 183.295 341.949 182.887 341.507C182.479 341.065 182.275 340.43 182.275 339.603C182.275 338.776 182.484 338.169 182.904 337.784C183.323 337.387 183.98 337.144 184.876 337.053L187.545 336.798V336.067C187.545 335.489 187.42 335.075 187.171 334.826C186.921 334.577 186.581 334.452 186.151 334.452C185.244 334.452 184.303 334.509 183.329 334.622L182.802 334.673L182.751 333.704C183.997 333.455 185.102 333.33 186.066 333.33C187.029 333.33 187.726 333.551 188.157 333.993C188.599 334.435 188.82 335.126 188.82 336.067ZM183.584 339.535C183.584 340.578 184.014 341.099 184.876 341.099C185.646 341.099 186.406 340.969 187.154 340.708L187.545 340.572V337.767L185.029 338.005C184.519 338.05 184.15 338.198 183.924 338.447C183.697 338.696 183.584 339.059 183.584 339.535ZM194.004 334.469C192.769 334.469 192.151 334.9 192.151 335.761C192.151 336.158 192.293 336.441 192.576 336.611C192.86 336.77 193.506 336.94 194.514 337.121C195.523 337.291 196.237 337.535 196.656 337.852C197.076 338.169 197.285 338.764 197.285 339.637C197.285 340.51 197.002 341.15 196.435 341.558C195.88 341.966 195.064 342.17 193.987 342.17C193.285 342.17 192.457 342.091 191.505 341.932L190.995 341.847L191.063 340.742C192.355 340.935 193.33 341.031 193.987 341.031C194.645 341.031 195.143 340.929 195.483 340.725C195.835 340.51 196.01 340.158 196.01 339.671C196.01 339.172 195.863 338.838 195.568 338.668C195.274 338.487 194.628 338.317 193.63 338.158C192.633 337.999 191.925 337.767 191.505 337.461C191.086 337.155 190.876 336.588 190.876 335.761C190.876 334.934 191.165 334.322 191.743 333.925C192.333 333.528 193.064 333.33 193.936 333.33C194.628 333.33 195.495 333.409 196.537 333.568L197.013 333.653L196.979 334.741C195.721 334.56 194.73 334.469 194.004 334.469ZM201.907 334.469C200.671 334.469 200.054 334.9 200.054 335.761C200.054 336.158 200.195 336.441 200.479 336.611C200.762 336.77 201.408 336.94 202.417 337.121C203.425 337.291 204.139 337.535 204.559 337.852C204.978 338.169 205.188 338.764 205.188 339.637C205.188 340.51 204.904 341.15 204.338 341.558C203.782 341.966 202.966 342.17 201.89 342.17C201.187 342.17 200.36 342.091 199.408 341.932L198.898 341.847L198.966 340.742C200.258 340.935 201.232 341.031 201.89 341.031C202.547 341.031 203.046 340.929 203.386 340.725C203.737 340.51 203.913 340.158 203.913 339.671C203.913 339.172 203.765 338.838 203.471 338.668C203.176 338.487 202.53 338.317 201.533 338.158C200.535 337.999 199.827 337.767 199.408 337.461C198.988 337.155 198.779 336.588 198.779 335.761C198.779 334.934 199.068 334.322 199.646 333.925C200.235 333.528 200.966 333.33 201.839 333.33C202.53 333.33 203.397 333.409 204.44 333.568L204.916 333.653L204.882 334.741C203.624 334.56 202.632 334.469 201.907 334.469ZM212.92 340.946L213.413 340.895L213.447 341.898C212.155 342.079 211.05 342.17 210.132 342.17C208.908 342.17 208.041 341.819 207.531 341.116C207.021 340.402 206.766 339.297 206.766 337.801C206.766 334.82 207.95 333.33 210.319 333.33C211.464 333.33 212.319 333.653 212.886 334.299C213.453 334.934 213.736 335.937 213.736 337.308L213.668 338.277H208.058C208.058 339.218 208.228 339.915 208.568 340.368C208.908 340.821 209.497 341.048 210.336 341.048C211.186 341.048 212.047 341.014 212.92 340.946ZM212.461 337.257C212.461 336.214 212.291 335.478 211.951 335.047C211.622 334.616 211.078 334.401 210.319 334.401C209.571 334.401 209.004 334.628 208.619 335.081C208.245 335.534 208.052 336.26 208.041 337.257H212.461ZM218.392 334.469C217.157 334.469 216.539 334.9 216.539 335.761C216.539 336.158 216.681 336.441 216.964 336.611C217.247 336.77 217.893 336.94 218.902 337.121C219.911 337.291 220.625 337.535 221.044 337.852C221.463 338.169 221.673 338.764 221.673 339.637C221.673 340.51 221.39 341.15 220.823 341.558C220.268 341.966 219.452 342.17 218.375 342.17C217.672 342.17 216.845 342.091 215.893 341.932L215.383 341.847L215.451 340.742C216.743 340.935 217.718 341.031 218.375 341.031C219.032 341.031 219.531 340.929 219.871 340.725C220.222 340.51 220.398 340.158 220.398 339.671C220.398 339.172 220.251 338.838 219.956 338.668C219.661 338.487 219.015 338.317 218.018 338.158C217.021 337.999 216.312 337.767 215.893 337.461C215.474 337.155 215.264 336.588 215.264 335.761C215.264 334.934 215.553 334.322 216.131 333.925C216.72 333.528 217.451 333.33 218.324 333.33C219.015 333.33 219.882 333.409 220.925 333.568L221.401 333.653L221.367 334.741C220.109 334.56 219.117 334.469 218.392 334.469ZM227.361 342V333.5H228.636V342H227.361ZM227.361 331.579V330.1H228.636V331.579H227.361ZM235.482 334.605H232.779V338.668C232.779 339.643 232.847 340.283 232.983 340.589C233.131 340.895 233.471 341.048 234.003 341.048L235.516 340.946L235.601 342C234.842 342.125 234.264 342.187 233.867 342.187C232.983 342.187 232.371 341.972 232.031 341.541C231.691 341.11 231.521 340.289 231.521 339.076V334.605H230.314V333.5H231.521V330.899H232.779V333.5H235.482V334.605ZM246.776 336.067V340.419C246.81 340.838 247.138 341.088 247.762 341.167L247.711 342.17C246.815 342.17 246.141 341.943 245.688 341.49C244.668 341.943 243.648 342.17 242.628 342.17C241.846 342.17 241.251 341.949 240.843 341.507C240.435 341.065 240.231 340.43 240.231 339.603C240.231 338.776 240.44 338.169 240.86 337.784C241.279 337.387 241.936 337.144 242.832 337.053L245.501 336.798V336.067C245.501 335.489 245.376 335.075 245.127 334.826C244.877 334.577 244.537 334.452 244.107 334.452C243.2 334.452 242.259 334.509 241.285 334.622L240.758 334.673L240.707 333.704C241.953 333.455 243.058 333.33 244.022 333.33C244.985 333.33 245.682 333.551 246.113 333.993C246.555 334.435 246.776 335.126 246.776 336.067ZM241.54 339.535C241.54 340.578 241.97 341.099 242.832 341.099C243.602 341.099 244.362 340.969 245.11 340.708L245.501 340.572V337.767L242.985 338.005C242.475 338.05 242.106 338.198 241.88 338.447C241.653 338.696 241.54 339.059 241.54 339.535ZM249.393 342V329.794H250.668V342H249.393ZM252.852 337.733C252.852 336.18 253.13 335.058 253.685 334.367C254.24 333.676 255.175 333.33 256.49 333.33C257.816 333.33 258.751 333.676 259.295 334.367C259.85 335.058 260.128 336.18 260.128 337.733C260.128 339.286 259.867 340.413 259.346 341.116C258.825 341.819 257.873 342.17 256.49 342.17C255.107 342.17 254.155 341.819 253.634 341.116C253.113 340.413 252.852 339.286 252.852 337.733ZM254.161 337.716C254.161 338.951 254.308 339.818 254.603 340.317C254.909 340.816 255.538 341.065 256.49 341.065C257.453 341.065 258.082 340.821 258.377 340.334C258.672 339.835 258.819 338.963 258.819 337.716C258.819 336.469 258.655 335.614 258.326 335.149C257.997 334.673 257.385 334.435 256.49 334.435C255.606 334.435 254.994 334.673 254.654 335.149C254.325 335.614 254.161 336.469 254.161 337.716ZM263.482 342H262.207V333.5H263.465V334.095C264.383 333.585 265.262 333.33 266.1 333.33C267.234 333.33 267.993 333.636 268.378 334.248C268.775 334.86 268.973 335.948 268.973 337.512V342H267.715V337.546C267.715 336.367 267.596 335.563 267.358 335.132C267.132 334.69 266.639 334.469 265.879 334.469C265.517 334.469 265.131 334.526 264.723 334.639C264.327 334.741 264.021 334.843 263.805 334.945L263.482 335.098V342ZM274.619 345.995C273.259 345.995 272.307 345.808 271.763 345.434C271.231 345.071 270.964 344.403 270.964 343.428C270.964 342.963 271.066 342.584 271.27 342.289C271.474 342.006 271.82 341.683 272.307 341.32C271.99 341.105 271.831 340.714 271.831 340.147C271.831 339.954 271.973 339.597 272.256 339.076L272.409 338.804C271.514 338.396 271.066 337.54 271.066 336.237C271.066 334.299 272.126 333.33 274.245 333.33C274.789 333.33 275.294 333.387 275.758 333.5L276.013 333.551L278.529 333.483V334.571L276.914 334.537C277.288 334.911 277.475 335.478 277.475 336.237C277.475 337.302 277.209 338.05 276.676 338.481C276.155 338.9 275.328 339.11 274.194 339.11C273.888 339.11 273.611 339.087 273.361 339.042C273.157 339.541 273.055 339.864 273.055 340.011C273.055 340.362 273.163 340.583 273.378 340.674C273.594 340.753 274.245 340.793 275.333 340.793C276.421 340.793 277.203 340.963 277.679 341.303C278.155 341.643 278.393 342.306 278.393 343.292C278.393 345.094 277.135 345.995 274.619 345.995ZM272.222 343.326C272.222 343.927 272.387 344.34 272.715 344.567C273.055 344.805 273.673 344.924 274.568 344.924C275.475 344.924 276.121 344.799 276.506 344.55C276.903 344.301 277.101 343.881 277.101 343.292C277.101 342.714 276.96 342.34 276.676 342.17C276.393 342 275.838 341.915 275.01 341.915L273.174 341.83C272.8 342.102 272.545 342.34 272.409 342.544C272.285 342.748 272.222 343.009 272.222 343.326ZM272.341 336.237C272.341 336.906 272.489 337.382 272.783 337.665C273.089 337.948 273.588 338.09 274.279 338.09C274.971 338.09 275.464 337.948 275.758 337.665C276.053 337.382 276.2 336.906 276.2 336.237C276.2 335.557 276.053 335.075 275.758 334.792C275.464 334.509 274.971 334.367 274.279 334.367C273.588 334.367 273.089 334.514 272.783 334.809C272.489 335.092 272.341 335.568 272.341 336.237ZM283.806 342V333.5H285.081V342H283.806ZM283.806 331.579V330.1H285.081V331.579H283.806ZM289.157 334.605V342H287.882V334.605H286.811V333.5H287.882V332.735C287.882 331.534 288.052 330.718 288.392 330.287C288.732 329.845 289.327 329.624 290.177 329.624L291.894 329.743L291.877 330.797C291.242 330.774 290.715 330.763 290.296 330.763C289.888 330.763 289.593 330.899 289.412 331.171C289.242 331.443 289.157 331.97 289.157 332.752V333.5H291.622V334.605H289.157ZM33.6194 366.198V361.336H37.8694V366.198H33.6194ZM50.999 368H49.724V359.5H50.982V360.095C51.9 359.585 52.7783 359.33 53.617 359.33C54.7503 359.33 55.5097 359.636 55.895 360.248C56.2917 360.86 56.49 361.948 56.49 363.512V368H55.232V363.546C55.232 362.367 55.113 361.563 54.875 361.132C54.6483 360.69 54.1553 360.469 53.396 360.469C53.0333 360.469 52.648 360.526 52.24 360.639C51.8433 360.741 51.5373 360.843 51.322 360.945L50.999 361.098V368ZM64.6349 366.946L65.1279 366.895L65.1619 367.898C63.8699 368.079 62.7649 368.17 61.8469 368.17C60.6229 368.17 59.7559 367.819 59.2459 367.116C58.7359 366.402 58.4809 365.297 58.4809 363.801C58.4809 360.82 59.6652 359.33 62.0339 359.33C63.1785 359.33 64.0342 359.653 64.6009 360.299C65.1675 360.934 65.4509 361.937 65.4509 363.308L65.3829 364.277H59.7729C59.7729 365.218 59.9429 365.915 60.2829 366.368C60.6229 366.821 61.2122 367.048 62.0509 367.048C62.9009 367.048 63.7622 367.014 64.6349 366.946ZM64.1759 363.257C64.1759 362.214 64.0059 361.478 63.6659 361.047C63.3372 360.616 62.7932 360.401 62.0339 360.401C61.2859 360.401 60.7192 360.628 60.3339 361.081C59.9599 361.534 59.7672 362.26 59.7559 363.257H64.1759ZM70.6169 359.33C70.9909 359.33 71.6255 359.398 72.5209 359.534L72.9289 359.585L72.8779 360.622C71.9712 360.52 71.3025 360.469 70.8719 360.469C69.9085 360.469 69.2512 360.701 68.8999 361.166C68.5599 361.619 68.3899 362.469 68.3899 363.716C68.3899 364.951 68.5485 365.813 68.8659 366.3C69.1945 366.787 69.8689 367.031 70.8889 367.031L72.8949 366.878L72.9459 367.932C71.8919 368.091 71.1042 368.17 70.5829 368.17C69.2569 368.17 68.3389 367.83 67.8289 367.15C67.3302 366.47 67.0809 365.325 67.0809 363.716C67.0809 362.095 67.3529 360.962 67.8969 360.316C68.4409 359.659 69.3475 359.33 70.6169 359.33ZM80.5226 366.946L81.0156 366.895L81.0496 367.898C79.7576 368.079 78.6526 368.17 77.7346 368.17C76.5106 368.17 75.6436 367.819 75.1336 367.116C74.6236 366.402 74.3686 365.297 74.3686 363.801C74.3686 360.82 75.5529 359.33 77.9216 359.33C79.0662 359.33 79.9219 359.653 80.4886 360.299C81.0552 360.934 81.3386 361.937 81.3386 363.308L81.2706 364.277H75.6606C75.6606 365.218 75.8306 365.915 76.1706 366.368C76.5106 366.821 77.0999 367.048 77.9386 367.048C78.7886 367.048 79.6499 367.014 80.5226 366.946ZM80.0636 363.257C80.0636 362.214 79.8936 361.478 79.5536 361.047C79.2249 360.616 78.6809 360.401 77.9216 360.401C77.1736 360.401 76.6069 360.628 76.2216 361.081C75.8476 361.534 75.6549 362.26 75.6436 363.257H80.0636ZM85.9946 360.469C84.7592 360.469 84.1416 360.9 84.1416 361.761C84.1416 362.158 84.2832 362.441 84.5666 362.611C84.8499 362.77 85.4959 362.94 86.5046 363.121C87.5132 363.291 88.2272 363.535 88.6466 363.852C89.0659 364.169 89.2756 364.764 89.2756 365.637C89.2756 366.51 88.9922 367.15 88.4256 367.558C87.8702 367.966 87.0542 368.17 85.9776 368.17C85.2749 368.17 84.4476 368.091 83.4956 367.932L82.9856 367.847L83.0536 366.742C84.3456 366.935 85.3202 367.031 85.9776 367.031C86.6349 367.031 87.1336 366.929 87.4736 366.725C87.8249 366.51 88.0006 366.158 88.0006 365.671C88.0006 365.172 87.8532 364.838 87.5586 364.668C87.2639 364.487 86.6179 364.317 85.6206 364.158C84.6232 363.999 83.9149 363.767 83.4956 363.461C83.0762 363.155 82.8666 362.588 82.8666 361.761C82.8666 360.934 83.1556 360.322 83.7336 359.925C84.3229 359.528 85.0539 359.33 85.9266 359.33C86.6179 359.33 87.4849 359.409 88.5276 359.568L89.0036 359.653L88.9696 360.741C87.7116 360.56 86.7199 360.469 85.9946 360.469ZM93.8969 360.469C92.6616 360.469 92.0439 360.9 92.0439 361.761C92.0439 362.158 92.1856 362.441 92.4689 362.611C92.7522 362.77 93.3982 362.94 94.4069 363.121C95.4156 363.291 96.1296 363.535 96.5489 363.852C96.9682 364.169 97.1779 364.764 97.1779 365.637C97.1779 366.51 96.8946 367.15 96.3279 367.558C95.7726 367.966 94.9566 368.17 93.8799 368.17C93.1772 368.17 92.3499 368.091 91.3979 367.932L90.8879 367.847L90.9559 366.742C92.2479 366.935 93.2226 367.031 93.8799 367.031C94.5372 367.031 95.0359 366.929 95.3759 366.725C95.7272 366.51 95.9029 366.158 95.9029 365.671C95.9029 365.172 95.7556 364.838 95.4609 364.668C95.1662 364.487 94.5202 364.317 93.5229 364.158C92.5256 363.999 91.8172 363.767 91.3979 363.461C90.9786 363.155 90.7689 362.588 90.7689 361.761C90.7689 360.934 91.0579 360.322 91.6359 359.925C92.2252 359.528 92.9562 359.33 93.8289 359.33C94.5202 359.33 95.3872 359.409 96.4299 359.568L96.9059 359.653L96.8719 360.741C95.6139 360.56 94.6222 360.469 93.8969 360.469ZM105.131 362.067V366.419C105.165 366.838 105.494 367.088 106.117 367.167L106.066 368.17C105.171 368.17 104.497 367.943 104.043 367.49C103.023 367.943 102.003 368.17 100.983 368.17C100.201 368.17 99.6063 367.949 99.1983 367.507C98.7903 367.065 98.5863 366.43 98.5863 365.603C98.5863 364.776 98.7959 364.169 99.2153 363.784C99.6346 363.387 100.292 363.144 101.187 363.053L103.856 362.798V362.067C103.856 361.489 103.732 361.075 103.482 360.826C103.233 360.577 102.893 360.452 102.462 360.452C101.556 360.452 100.615 360.509 99.6403 360.622L99.1133 360.673L99.0623 359.704C100.309 359.455 101.414 359.33 102.377 359.33C103.341 359.33 104.038 359.551 104.468 359.993C104.91 360.435 105.131 361.126 105.131 362.067ZM99.8953 365.535C99.8953 366.578 100.326 367.099 101.187 367.099C101.958 367.099 102.717 366.969 103.465 366.708L103.856 366.572V363.767L101.34 364.005C100.83 364.05 100.462 364.198 100.235 364.447C100.009 364.696 99.8953 365.059 99.8953 365.535ZM107.647 368V359.5H108.905V360.656C109.891 359.976 110.928 359.528 112.016 359.313V360.605C111.54 360.696 111.041 360.837 110.52 361.03C110.01 361.223 109.619 361.393 109.347 361.54L108.922 361.761V368H107.647ZM112.725 359.5H114L116.125 366.895H116.686L118.828 359.5H120.103L116.567 371.774H115.292L116.397 368H115.139L112.725 359.5ZM121.042 368V366.062H122.436V368H121.042Z" fill="#3F3939"/>
<rect x="91" y="46" width="147" height="42" rx="21" fill="#F69193"/>
<path d="M124.75 61.02C123.057 61.02 122.21 61.6133 122.21 62.8C122.21 63.4133 122.41 63.8533 122.81 64.12C123.21 64.3733 124.09 64.6933 125.45 65.08C126.824 65.4533 127.79 65.9067 128.35 66.44C128.91 66.96 129.19 67.7867 129.19 68.92C129.19 70.36 128.777 71.44 127.95 72.16C127.137 72.8667 126.024 73.22 124.61 73.22C123.477 73.22 122.224 73.0867 120.85 72.82L120.13 72.68L120.35 70.9C122.15 71.14 123.524 71.26 124.47 71.26C126.124 71.26 126.95 70.5267 126.95 69.06C126.95 68.4867 126.764 68.0667 126.39 67.8C126.017 67.52 125.177 67.22 123.87 66.9C122.564 66.5667 121.59 66.1133 120.95 65.54C120.31 64.9667 119.99 64.06 119.99 62.82C119.99 61.58 120.39 60.6467 121.19 60.02C122.004 59.38 123.124 59.06 124.55 59.06C125.577 59.06 126.79 59.18 128.19 59.42L128.89 59.54L128.71 61.34C126.844 61.1267 125.524 61.02 124.75 61.02ZM137.39 63H139.55V73H137.39V72.38C136.416 72.94 135.516 73.22 134.69 73.22C133.316 73.22 132.396 72.8533 131.93 72.12C131.463 71.3733 131.23 70.0733 131.23 68.22V63H133.41V68.24C133.41 69.44 133.51 70.2467 133.71 70.66C133.91 71.0733 134.376 71.28 135.11 71.28C135.83 71.28 136.49 71.1467 137.09 70.88L137.39 70.76V63ZM142.189 77.3V63H144.349V63.62C145.269 63.06 146.129 62.78 146.929 62.78C148.249 62.78 149.216 63.1867 149.829 64C150.442 64.8 150.749 66.1533 150.749 68.06C150.749 69.9533 150.396 71.2867 149.689 72.06C148.996 72.8333 147.856 73.22 146.269 73.22C145.722 73.22 145.089 73.16 144.369 73.04V77.3H142.189ZM146.549 64.72C145.922 64.72 145.296 64.86 144.669 65.14L144.369 65.28V71.18C144.902 71.2867 145.489 71.34 146.129 71.34C147.036 71.34 147.662 71.08 148.009 70.56C148.356 70.04 148.529 69.1533 148.529 67.9C148.529 65.78 147.869 64.72 146.549 64.72ZM160.051 71.2L160.611 71.14L160.651 72.76C159.131 73.0667 157.785 73.22 156.611 73.22C155.131 73.22 154.065 72.8133 153.411 72C152.771 71.1867 152.451 69.8867 152.451 68.1C152.451 64.5533 153.898 62.78 156.791 62.78C159.591 62.78 160.991 64.3067 160.991 67.36L160.851 68.92H154.651C154.665 69.7467 154.845 70.3533 155.191 70.74C155.538 71.1267 156.185 71.32 157.131 71.32C158.078 71.32 159.051 71.28 160.051 71.2ZM158.851 67.24C158.851 66.2533 158.691 65.5667 158.371 65.18C158.065 64.78 157.538 64.58 156.791 64.58C156.045 64.58 155.498 64.7867 155.151 65.2C154.818 65.6133 154.645 66.2933 154.631 67.24H158.851ZM163.088 73V63H165.248V64.2C166.381 63.4667 167.514 62.9933 168.648 62.78V64.96C167.501 65.1867 166.521 65.48 165.708 65.84L165.268 66.02V73H163.088ZM169.374 63H171.654L173.574 71.14H174.214L176.214 63H178.434L175.834 73H171.954L169.374 63ZM180.138 73V63H182.318V73H180.138ZM180.138 61.3V59H182.318V61.3H180.138ZM191.903 65.06C190.329 64.8467 189.189 64.74 188.483 64.74C187.776 64.74 187.283 64.8267 187.003 65C186.736 65.16 186.603 65.42 186.603 65.78C186.603 66.14 186.749 66.3933 187.043 66.54C187.349 66.6867 188.056 66.86 189.163 67.06C190.283 67.2467 191.076 67.5467 191.543 67.96C192.009 68.3733 192.243 69.1067 192.243 70.16C192.243 71.2133 191.903 71.9867 191.223 72.48C190.556 72.9733 189.576 73.22 188.283 73.22C187.469 73.22 186.443 73.1067 185.203 72.88L184.583 72.78L184.663 70.96C186.263 71.1733 187.416 71.28 188.123 71.28C188.829 71.28 189.329 71.1933 189.623 71.02C189.929 70.8467 190.083 70.56 190.083 70.16C190.083 69.76 189.936 69.4867 189.643 69.34C189.363 69.18 188.676 69.0133 187.583 68.84C186.503 68.6533 185.709 68.3667 185.203 67.98C184.696 67.5933 184.443 66.8867 184.443 65.86C184.443 64.8333 184.789 64.0667 185.483 63.56C186.189 63.0533 187.089 62.8 188.183 62.8C189.036 62.8 190.083 62.9067 191.323 63.12L191.943 63.24L191.903 65.06ZM194.878 64.08C195.571 63.2133 196.718 62.78 198.318 62.78C199.918 62.78 201.058 63.2133 201.738 64.08C202.431 64.9467 202.778 66.2467 202.778 67.98C202.778 69.7133 202.444 71.02 201.778 71.9C201.111 72.78 199.958 73.22 198.318 73.22C196.678 73.22 195.524 72.78 194.858 71.9C194.191 71.02 193.858 69.7133 193.858 67.98C193.858 66.2467 194.198 64.9467 194.878 64.08ZM196.518 70.58C196.824 71.1133 197.424 71.38 198.318 71.38C199.211 71.38 199.811 71.1133 200.118 70.58C200.424 70.0467 200.578 69.1733 200.578 67.96C200.578 66.7467 200.411 65.8867 200.078 65.38C199.758 64.8733 199.171 64.62 198.318 64.62C197.464 64.62 196.871 64.8733 196.538 65.38C196.218 65.8867 196.058 66.7467 196.058 67.96C196.058 69.1733 196.211 70.0467 196.518 70.58ZM204.943 73V63H207.103V64.2C208.236 63.4667 209.37 62.9933 210.503 62.78V64.96C209.356 65.1867 208.376 65.48 207.563 65.84L207.123 66.02V73H204.943Z" fill="#3F3939"/>
<defs>
<filter id="filter0_d" x="0" y="0" width="328" height="424" filterUnits="userSpaceOnUse" color-interpolation-filters="sRGB">
<feFlood flood-opacity="0" result="BackgroundImageFix"/>
<feColorMatrix in="SourceAlpha" type="matrix" values="0 0 0 0 0 0 0 0 0 0 0 0 0 0 0 0 0 0 127 0" result="hardAlpha"/>
<feOffset dy="4"/>
<feGaussianBlur stdDeviation="2"/>
<feComposite in2="hardAlpha" operator="out"/>
<feColorMatrix type="matrix" values="0 0 0 0 0 0 0 0 0 0 0 0 0 0 0 0 0 0 0.25 0"/>
<feBlend mode="normal" in2="BackgroundImageFix" result="effect1_dropShadow"/>
<feBlend mode="normal" in="SourceGraphic" in2="effect1_dropShadow" result="shape"/>
</filter>
</defs>
</svg>
