<svg width="917" height="335" viewBox="0 0 917 335" fill="none" xmlns="http://www.w3.org/2000/svg">
<rect width="917" height="335" rx="22" fill="#FCFCFC"/>
<path d="M336.5 69L340.725 51.875H346.25L350.5 69H347.7L346.775 65.325H340.2L339.275 69H336.5ZM342.875 54.2L340.75 62.875H346.225L344.125 54.2H342.875ZM363.346 70.7C363.346 73.4333 361.371 74.8 357.421 74.8C355.521 74.8 354.112 74.5417 353.196 74.025C352.279 73.5083 351.821 72.5667 351.821 71.2C351.821 70.5833 351.971 70.05 352.271 69.6C352.571 69.1667 353.054 68.6917 353.721 68.175C353.171 67.8083 352.896 67.2 352.896 66.35C352.896 66.0167 353.121 65.475 353.571 64.725L353.796 64.35C352.596 63.6333 351.996 62.3833 351.996 60.6C351.996 59.1 352.446 58 353.346 57.3C354.246 56.6 355.462 56.25 356.996 56.25C357.729 56.25 358.454 56.3333 359.171 56.5L359.546 56.575L363.421 56.475V58.675L361.346 58.55C361.796 59.1333 362.021 59.8167 362.021 60.6C362.021 62.2333 361.604 63.3667 360.771 64C359.954 64.6167 358.671 64.925 356.921 64.925C356.487 64.925 356.121 64.8917 355.821 64.825C355.587 65.3917 355.471 65.8333 355.471 66.15C355.471 66.45 355.621 66.6583 355.921 66.775C356.237 66.8917 356.987 66.9583 358.171 66.975C360.154 66.9917 361.512 67.2583 362.246 67.775C362.979 68.2917 363.346 69.2667 363.346 70.7ZM354.496 70.95C354.496 71.5333 354.729 71.95 355.196 72.2C355.662 72.45 356.462 72.575 357.596 72.575C359.612 72.575 360.621 72 360.621 70.85C360.621 70.2 360.437 69.7833 360.071 69.6C359.721 69.4333 359.012 69.3417 357.946 69.325L355.496 69.175C355.129 69.475 354.871 69.75 354.721 70C354.571 70.2667 354.496 70.5833 354.496 70.95ZM354.696 60.6C354.696 61.3667 354.879 61.9333 355.246 62.3C355.612 62.65 356.204 62.825 357.021 62.825C357.837 62.825 358.421 62.65 358.771 62.3C359.137 61.9333 359.321 61.3667 359.321 60.6C359.321 59.8333 359.137 59.275 358.771 58.925C358.404 58.5583 357.812 58.375 356.996 58.375C355.462 58.375 354.696 59.1167 354.696 60.6ZM374.455 66.75L375.155 66.675L375.205 68.7C373.305 69.0833 371.622 69.275 370.155 69.275C368.305 69.275 366.972 68.7667 366.155 67.75C365.355 66.7333 364.955 65.1083 364.955 62.875C364.955 58.4417 366.764 56.225 370.38 56.225C373.88 56.225 375.63 58.1333 375.63 61.95L375.455 63.9H367.705C367.722 64.9333 367.947 65.6917 368.38 66.175C368.814 66.6583 369.622 66.9 370.805 66.9C371.989 66.9 373.205 66.85 374.455 66.75ZM372.955 61.8C372.955 60.5667 372.755 59.7083 372.355 59.225C371.972 58.725 371.314 58.475 370.38 58.475C369.447 58.475 368.764 58.7333 368.33 59.25C367.914 59.7667 367.697 60.6167 367.68 61.8H372.955Z" fill="#3F3939"/>
<path d="M327.321 107H316.771V105.375L321.596 100.3C322.429 99.4333 323.038 98.775 323.421 98.325C323.804 97.875 324.146 97.3417 324.446 96.725C324.763 96.1083 324.921 95.4917 324.921 94.875C324.921 93.8083 324.629 93.0583 324.046 92.625C323.463 92.1917 322.554 91.975 321.321 91.975C320.238 91.975 319.029 92.1167 317.696 92.4L317.046 92.525L316.896 90.925C318.479 90.475 320.113 90.25 321.796 90.25C323.479 90.25 324.746 90.6083 325.596 91.325C326.463 92.025 326.896 93.1417 326.896 94.675C326.896 95.8417 326.638 96.8583 326.121 97.725C325.604 98.5917 324.713 99.6333 323.446 100.85L319.046 105.325H327.321V107ZM341.31 107H330.76V105.375L335.585 100.3C336.418 99.4333 337.027 98.775 337.41 98.325C337.793 97.875 338.135 97.3417 338.435 96.725C338.752 96.1083 338.91 95.4917 338.91 94.875C338.91 93.8083 338.618 93.0583 338.035 92.625C337.452 92.1917 336.543 91.975 335.31 91.975C334.227 91.975 333.018 92.1167 331.685 92.4L331.035 92.525L330.885 90.925C332.468 90.475 334.102 90.25 335.785 90.25C337.468 90.25 338.735 90.6083 339.585 91.325C340.452 92.025 340.885 93.1417 340.885 94.675C340.885 95.8417 340.627 96.8583 340.11 97.725C339.593 98.5917 338.702 99.6333 337.435 100.85L333.035 105.325H341.31V107ZM344.724 101V99.25H352.299V101H344.724ZM365.911 90.5V92.25H357.886L357.436 97.625C358.72 96.9417 360.011 96.6 361.311 96.6C364.811 96.6 366.561 98.225 366.561 101.475C366.561 103.342 366.078 104.767 365.111 105.75C364.145 106.733 362.786 107.225 361.036 107.225C359.636 107.225 358.086 107.042 356.386 106.675L355.561 106.5L355.786 104.975C357.703 105.342 359.311 105.525 360.611 105.525C361.928 105.525 362.92 105.192 363.586 104.525C364.253 103.842 364.586 102.892 364.586 101.675C364.586 100.458 364.278 99.6 363.661 99.1C363.061 98.5833 362.203 98.325 361.086 98.325C360.486 98.325 359.853 98.4083 359.186 98.575C358.536 98.7417 358.036 98.9083 357.686 99.075L357.161 99.325L355.836 99.075L356.286 90.5H365.911ZM374.951 90.225C376.317 90.225 377.426 90.4833 378.276 91C380.076 92.0667 380.976 94.7333 380.976 99C380.976 102.017 380.476 104.15 379.476 105.4C378.476 106.633 376.976 107.25 374.976 107.25C372.976 107.25 371.467 106.642 370.451 105.425C369.451 104.192 368.951 102.008 368.951 98.875C368.951 95.725 369.442 93.5 370.426 92.2C371.426 90.8833 372.934 90.225 374.951 90.225ZM374.976 91.95C374.026 91.95 373.276 92.15 372.726 92.55C371.542 93.3667 370.951 95.525 370.951 99.025C370.951 101.492 371.276 103.2 371.926 104.15C372.576 105.083 373.592 105.55 374.976 105.55C376.359 105.55 377.376 105.075 378.026 104.125C378.676 103.175 379.001 101.417 379.001 98.85C379.001 96.2667 378.684 94.475 378.051 93.475C377.434 92.4583 376.409 91.95 374.976 91.95ZM383.34 101.575V99.875H388.065V95H389.815V99.875H394.59V101.575H389.815V106.5H388.065V101.575H383.34Z" fill="#3F3939"/>
<path d="M467.898 69H458.298V51.875H461.073V66.525H467.898V69ZM478.738 66.75L479.438 66.675L479.488 68.7C477.588 69.0833 475.905 69.275 474.438 69.275C472.588 69.275 471.255 68.7667 470.438 67.75C469.638 66.7333 469.238 65.1083 469.238 62.875C469.238 58.4417 471.046 56.225 474.663 56.225C478.163 56.225 479.913 58.1333 479.913 61.95L479.738 63.9H471.988C472.005 64.9333 472.23 65.6917 472.663 66.175C473.096 66.6583 473.905 66.9 475.088 66.9C476.271 66.9 477.488 66.85 478.738 66.75ZM477.238 61.8C477.238 60.5667 477.038 59.7083 476.638 59.225C476.255 58.725 475.596 58.475 474.663 58.475C473.73 58.475 473.046 58.7333 472.613 59.25C472.196 59.7667 471.98 60.6167 471.963 61.8H477.238ZM481.187 56.5H484.037L486.437 66.675H487.237L489.737 56.5H492.512L489.262 69H484.412L481.187 56.5ZM503.347 66.75L504.047 66.675L504.097 68.7C502.197 69.0833 500.514 69.275 499.047 69.275C497.197 69.275 495.864 68.7667 495.047 67.75C494.247 66.7333 493.847 65.1083 493.847 62.875C493.847 58.4417 495.656 56.225 499.272 56.225C502.772 56.225 504.522 58.1333 504.522 61.95L504.347 63.9H496.597C496.614 64.9333 496.839 65.6917 497.272 66.175C497.706 66.6583 498.514 66.9 499.697 66.9C500.881 66.9 502.097 66.85 503.347 66.75ZM501.847 61.8C501.847 60.5667 501.647 59.7083 501.247 59.225C500.864 58.725 500.206 58.475 499.272 58.475C498.339 58.475 497.656 58.7333 497.222 59.25C496.806 59.7667 496.589 60.6167 496.572 61.8H501.847ZM507.293 69V51.3H510.018V69H507.293ZM519.634 57.85C520.501 56.7667 521.934 56.225 523.934 56.225C525.934 56.225 527.359 56.7667 528.209 57.85C529.076 58.9333 529.509 60.5583 529.509 62.725C529.509 64.8917 529.092 66.525 528.259 67.625C527.426 68.725 525.984 69.275 523.934 69.275C521.884 69.275 520.442 68.725 519.609 67.625C518.776 66.525 518.359 64.8917 518.359 62.725C518.359 60.5583 518.784 58.9333 519.634 57.85ZM521.684 65.975C522.067 66.6417 522.817 66.975 523.934 66.975C525.051 66.975 525.801 66.6417 526.184 65.975C526.567 65.3083 526.759 64.2167 526.759 62.7C526.759 61.1833 526.551 60.1083 526.134 59.475C525.734 58.8417 525.001 58.525 523.934 58.525C522.867 58.525 522.126 58.8417 521.709 59.475C521.309 60.1083 521.109 61.1833 521.109 62.7C521.109 64.2167 521.301 65.3083 521.684 65.975ZM535.491 58.825V69H532.791V58.825H531.341V56.5H532.791V55.7C532.791 53.9167 533.049 52.6917 533.566 52.025C534.083 51.3583 534.999 51.025 536.316 51.025L539.016 51.275L538.991 53.5C538.174 53.4667 537.491 53.45 536.941 53.45C536.408 53.45 536.033 53.6167 535.816 53.95C535.599 54.2667 535.491 54.8583 535.491 55.725V56.5H538.791V58.825H535.491ZM546.677 69V51.875H557.477V54.3H549.452V59.15H555.977V61.55H549.452V66.55H557.477V69H546.677ZM558.97 56.5H561.87L564.32 60.825L566.795 56.5H569.695L565.97 62.65L569.695 69H566.795L564.32 64.725L561.87 69H558.97L562.595 62.725L558.97 56.5ZM571.767 74.375V56.5H574.467V57.275C575.617 56.575 576.692 56.225 577.692 56.225C579.342 56.225 580.55 56.7333 581.317 57.75C582.083 58.75 582.467 60.4417 582.467 62.825C582.467 65.1917 582.025 66.8583 581.142 67.825C580.275 68.7917 578.85 69.275 576.867 69.275C576.183 69.275 575.392 69.2 574.492 69.05V74.375H571.767ZM577.217 58.65C576.433 58.65 575.65 58.825 574.867 59.175L574.492 59.35V66.725C575.158 66.8583 575.892 66.925 576.692 66.925C577.825 66.925 578.608 66.6 579.042 65.95C579.475 65.3 579.692 64.1917 579.692 62.625C579.692 59.975 578.867 58.65 577.217 58.65ZM594.094 66.75L594.794 66.675L594.844 68.7C592.944 69.0833 591.261 69.275 589.794 69.275C587.944 69.275 586.611 68.7667 585.794 67.75C584.994 66.7333 584.594 65.1083 584.594 62.875C584.594 58.4417 586.403 56.225 590.019 56.225C593.519 56.225 595.269 58.1333 595.269 61.95L595.094 63.9H587.344C587.361 64.9333 587.586 65.6917 588.019 66.175C588.453 66.6583 589.261 66.9 590.444 66.9C591.628 66.9 592.844 66.85 594.094 66.75ZM592.594 61.8C592.594 60.5667 592.394 59.7083 591.994 59.225C591.611 58.725 590.953 58.475 590.019 58.475C589.086 58.475 588.403 58.7333 587.969 59.25C587.553 59.7667 587.336 60.6167 587.319 61.8H592.594ZM597.89 69V56.5H600.59V58C602.006 57.0833 603.423 56.4917 604.84 56.225V58.95C603.406 59.2333 602.181 59.6 601.165 60.05L600.615 60.275V69H597.89ZM613.648 58.825H610.198V64.325C610.198 65.3417 610.273 66.0167 610.423 66.35C610.573 66.6833 610.956 66.85 611.573 66.85L613.623 66.775L613.748 68.95C612.631 69.1667 611.781 69.275 611.198 69.275C609.781 69.275 608.806 68.95 608.273 68.3C607.756 67.65 607.498 66.425 607.498 64.625V58.825H605.898V56.5H607.498V52.875H610.198V56.5H613.648V58.825ZM615.883 69V56.5H618.608V69H615.883ZM615.883 54.375V51.5H618.608V54.375H615.883ZM630.588 59.075C628.622 58.8083 627.197 58.675 626.313 58.675C625.43 58.675 624.813 58.7833 624.463 59C624.13 59.2 623.963 59.525 623.963 59.975C623.963 60.425 624.147 60.7417 624.513 60.925C624.897 61.1083 625.78 61.325 627.163 61.575C628.563 61.8083 629.555 62.1833 630.138 62.7C630.722 63.2167 631.013 64.1333 631.013 65.45C631.013 66.7667 630.588 67.7333 629.738 68.35C628.905 68.9667 627.68 69.275 626.063 69.275C625.047 69.275 623.763 69.1333 622.213 68.85L621.438 68.725L621.538 66.45C623.538 66.7167 624.98 66.85 625.863 66.85C626.747 66.85 627.372 66.7417 627.738 66.525C628.122 66.3083 628.313 65.95 628.313 65.45C628.313 64.95 628.13 64.6083 627.763 64.425C627.413 64.225 626.555 64.0167 625.188 63.8C623.838 63.5667 622.847 63.2083 622.213 62.725C621.58 62.2417 621.263 61.3583 621.263 60.075C621.263 58.7917 621.697 57.8333 622.563 57.2C623.447 56.5667 624.572 56.25 625.938 56.25C627.005 56.25 628.313 56.3833 629.863 56.65L630.638 56.8L630.588 59.075ZM642.532 66.75L643.232 66.675L643.282 68.7C641.382 69.0833 639.699 69.275 638.232 69.275C636.382 69.275 635.049 68.7667 634.232 67.75C633.432 66.7333 633.032 65.1083 633.032 62.875C633.032 58.4417 634.84 56.225 638.457 56.225C641.957 56.225 643.707 58.1333 643.707 61.95L643.532 63.9H635.782C635.799 64.9333 636.024 65.6917 636.457 66.175C636.89 66.6583 637.699 66.9 638.882 66.9C640.065 66.9 641.282 66.85 642.532 66.75ZM641.032 61.8C641.032 60.5667 640.832 59.7083 640.432 59.225C640.049 58.725 639.39 58.475 638.457 58.475C637.524 58.475 636.84 58.7333 636.407 59.25C635.99 59.7667 635.774 60.6167 635.757 61.8H641.032Z" fill="#3F3939"/>
<path d="M530.077 89.7H532.077L527.552 107H523.252L518.727 89.7H520.727L524.702 105.3H526.102L530.077 89.7ZM542.619 98.275V104.675C542.669 105.292 543.152 105.658 544.069 105.775L543.994 107.25C542.677 107.25 541.686 106.917 541.019 106.25C539.519 106.917 538.019 107.25 536.519 107.25C535.369 107.25 534.494 106.925 533.894 106.275C533.294 105.625 532.994 104.692 532.994 103.475C532.994 102.258 533.302 101.367 533.919 100.8C534.536 100.217 535.502 99.8583 536.819 99.725L540.744 99.35V98.275C540.744 97.425 540.561 96.8167 540.194 96.45C539.827 96.0833 539.327 95.9 538.694 95.9C537.361 95.9 535.977 95.9833 534.544 96.15L533.769 96.225L533.694 94.8C535.527 94.4333 537.152 94.25 538.569 94.25C539.986 94.25 541.011 94.575 541.644 95.225C542.294 95.875 542.619 96.8917 542.619 98.275ZM534.919 103.375C534.919 104.908 535.552 105.675 536.819 105.675C537.952 105.675 539.069 105.483 540.169 105.1L540.744 104.9V100.775L537.044 101.125C536.294 101.192 535.752 101.408 535.419 101.775C535.086 102.142 534.919 102.675 534.919 103.375ZM546.319 107V94.5H548.169V96.2C549.619 95.2 551.144 94.5417 552.744 94.225V96.125C552.044 96.2583 551.31 96.4667 550.544 96.75C549.794 97.0333 549.219 97.2833 548.819 97.5L548.194 97.825V107H546.319ZM554.961 107V94.5H556.836V107H554.961ZM554.961 91.675V89.5H556.836V91.675H554.961ZM568.93 105.45L569.655 105.375L569.705 106.85C567.805 107.117 566.18 107.25 564.83 107.25C563.03 107.25 561.755 106.733 561.005 105.7C560.255 104.65 559.88 103.025 559.88 100.825C559.88 96.4417 561.622 94.25 565.105 94.25C566.788 94.25 568.047 94.725 568.88 95.675C569.713 96.6083 570.13 98.0833 570.13 100.1L570.03 101.525H561.78C561.78 102.908 562.03 103.933 562.53 104.6C563.03 105.267 563.897 105.6 565.13 105.6C566.38 105.6 567.647 105.55 568.93 105.45ZM568.255 100.025C568.255 98.4917 568.005 97.4083 567.505 96.775C567.022 96.1417 566.222 95.825 565.105 95.825C564.005 95.825 563.172 96.1583 562.605 96.825C562.055 97.4917 561.772 98.5583 561.755 100.025H568.255ZM576.977 95.925C575.16 95.925 574.252 96.5583 574.252 97.825C574.252 98.4083 574.46 98.825 574.877 99.075C575.294 99.3083 576.244 99.5583 577.727 99.825C579.21 100.075 580.26 100.433 580.877 100.9C581.494 101.367 581.802 102.242 581.802 103.525C581.802 104.808 581.385 105.75 580.552 106.35C579.735 106.95 578.535 107.25 576.952 107.25C575.919 107.25 574.702 107.133 573.302 106.9L572.552 106.775L572.652 105.15C574.552 105.433 575.985 105.575 576.952 105.575C577.919 105.575 578.652 105.425 579.152 105.125C579.669 104.808 579.927 104.292 579.927 103.575C579.927 102.842 579.71 102.35 579.277 102.1C578.844 101.833 577.894 101.583 576.427 101.35C574.96 101.117 573.919 100.775 573.302 100.325C572.685 99.875 572.377 99.0417 572.377 97.825C572.377 96.6083 572.802 95.7083 573.652 95.125C574.519 94.5417 575.594 94.25 576.877 94.25C577.894 94.25 579.169 94.3667 580.702 94.6L581.402 94.725L581.352 96.325C579.502 96.0583 578.044 95.925 576.977 95.925Z" fill="#F69193"/>
<path d="M66.6168 199.35V192.2H72.8668V199.35H66.6168ZM96.8 202H90.625V184.7H96.8C99.6167 184.7 101.483 185.817 102.4 188.05C102.933 189.333 103.2 191.017 103.2 193.1C103.2 197.45 102.117 200.192 99.95 201.325C99.0833 201.775 98.0333 202 96.8 202ZM101.225 193.1C101.225 189.783 100.483 187.717 99 186.9C98.4 186.567 97.6667 186.4 96.8 186.4H92.55V200.3H96.8C99.75 200.3 101.225 197.9 101.225 193.1ZM114.913 200.45L115.638 200.375L115.688 201.85C113.788 202.117 112.163 202.25 110.813 202.25C109.013 202.25 107.738 201.733 106.988 200.7C106.238 199.65 105.863 198.025 105.863 195.825C105.863 191.442 107.605 189.25 111.088 189.25C112.772 189.25 114.03 189.725 114.863 190.675C115.697 191.608 116.113 193.083 116.113 195.1L116.013 196.525H107.763C107.763 197.908 108.013 198.933 108.513 199.6C109.013 200.267 109.88 200.6 111.113 200.6C112.363 200.6 113.63 200.55 114.913 200.45ZM114.238 195.025C114.238 193.492 113.988 192.408 113.488 191.775C113.005 191.142 112.205 190.825 111.088 190.825C109.988 190.825 109.155 191.158 108.588 191.825C108.038 192.492 107.755 193.558 107.738 195.025H114.238ZM123.71 189.25C124.26 189.25 125.194 189.35 126.51 189.55L127.11 189.625L127.035 191.15C125.702 191 124.719 190.925 124.085 190.925C122.669 190.925 121.702 191.267 121.185 191.95C120.685 192.617 120.435 193.867 120.435 195.7C120.435 197.517 120.669 198.783 121.135 199.5C121.619 200.217 122.61 200.575 124.11 200.575L127.06 200.35L127.135 201.9C125.585 202.133 124.427 202.25 123.66 202.25C121.71 202.25 120.36 201.75 119.61 200.75C118.877 199.75 118.51 198.067 118.51 195.7C118.51 193.317 118.91 191.65 119.71 190.7C120.51 189.733 121.844 189.25 123.71 189.25ZM129.924 202V189.5H131.799V202H129.924ZM129.924 186.675V184.5H131.799V186.675H129.924ZM144.993 184.05V202H143.143V201.15C141.859 201.883 140.593 202.25 139.343 202.25C138.676 202.25 138.093 202.167 137.593 202C137.093 201.833 136.626 201.533 136.193 201.1C135.293 200.2 134.843 198.542 134.843 196.125C134.843 193.692 135.243 191.942 136.043 190.875C136.859 189.792 138.201 189.25 140.068 189.25C141.034 189.25 142.059 189.358 143.143 189.575V184.05H144.993ZM137.643 199.75C137.909 200.067 138.193 200.283 138.493 200.4C138.793 200.517 139.176 200.575 139.643 200.575C140.126 200.575 140.659 200.5 141.243 200.35C141.843 200.183 142.309 200.025 142.643 199.875L143.143 199.65V191.175C142.076 190.975 141.084 190.875 140.168 190.875C138.901 190.875 138.018 191.283 137.518 192.1C137.018 192.9 136.768 194.15 136.768 195.85C136.768 197.783 137.059 199.083 137.643 199.75ZM157.125 200.45L157.85 200.375L157.9 201.85C156 202.117 154.375 202.25 153.025 202.25C151.225 202.25 149.95 201.733 149.2 200.7C148.45 199.65 148.075 198.025 148.075 195.825C148.075 191.442 149.817 189.25 153.3 189.25C154.984 189.25 156.242 189.725 157.075 190.675C157.909 191.608 158.325 193.083 158.325 195.1L158.225 196.525H149.975C149.975 197.908 150.225 198.933 150.725 199.6C151.225 200.267 152.092 200.6 153.325 200.6C154.575 200.6 155.842 200.55 157.125 200.45ZM156.45 195.025C156.45 193.492 156.2 192.408 155.7 191.775C155.217 191.142 154.417 190.825 153.3 190.825C152.2 190.825 151.367 191.158 150.8 191.825C150.25 192.492 149.967 193.558 149.95 195.025H156.45ZM165.172 190.925C163.356 190.925 162.447 191.558 162.447 192.825C162.447 193.408 162.656 193.825 163.072 194.075C163.489 194.308 164.439 194.558 165.922 194.825C167.406 195.075 168.456 195.433 169.072 195.9C169.689 196.367 169.997 197.242 169.997 198.525C169.997 199.808 169.581 200.75 168.747 201.35C167.931 201.95 166.731 202.25 165.147 202.25C164.114 202.25 162.897 202.133 161.497 201.9L160.747 201.775L160.847 200.15C162.747 200.433 164.181 200.575 165.147 200.575C166.114 200.575 166.847 200.425 167.347 200.125C167.864 199.808 168.122 199.292 168.122 198.575C168.122 197.842 167.906 197.35 167.472 197.1C167.039 196.833 166.089 196.583 164.622 196.35C163.156 196.117 162.114 195.775 161.497 195.325C160.881 194.875 160.572 194.042 160.572 192.825C160.572 191.608 160.997 190.708 161.847 190.125C162.714 189.542 163.789 189.25 165.072 189.25C166.089 189.25 167.364 189.367 168.897 189.6L169.597 189.725L169.547 191.325C167.697 191.058 166.239 190.925 165.172 190.925ZM183.037 189.25C183.587 189.25 184.52 189.35 185.837 189.55L186.437 189.625L186.362 191.15C185.028 191 184.045 190.925 183.412 190.925C181.995 190.925 181.028 191.267 180.512 191.95C180.012 192.617 179.762 193.867 179.762 195.7C179.762 197.517 179.995 198.783 180.462 199.5C180.945 200.217 181.937 200.575 183.437 200.575L186.387 200.35L186.462 201.9C184.912 202.133 183.753 202.25 182.987 202.25C181.037 202.25 179.687 201.75 178.937 200.75C178.203 199.75 177.837 198.067 177.837 195.7C177.837 193.317 178.237 191.65 179.037 190.7C179.837 189.733 181.17 189.25 183.037 189.25ZM188.554 195.725C188.554 193.442 188.962 191.792 189.779 190.775C190.595 189.758 191.97 189.25 193.904 189.25C195.854 189.25 197.229 189.758 198.029 190.775C198.845 191.792 199.254 193.442 199.254 195.725C199.254 198.008 198.87 199.667 198.104 200.7C197.337 201.733 195.937 202.25 193.904 202.25C191.87 202.25 190.47 201.733 189.704 200.7C188.937 199.667 188.554 198.008 188.554 195.725ZM190.479 195.7C190.479 197.517 190.695 198.792 191.129 199.525C191.579 200.258 192.504 200.625 193.904 200.625C195.32 200.625 196.245 200.267 196.679 199.55C197.112 198.817 197.329 197.533 197.329 195.7C197.329 193.867 197.087 192.608 196.604 191.925C196.12 191.225 195.22 190.875 193.904 190.875C192.604 190.875 191.704 191.225 191.204 191.925C190.72 192.608 190.479 193.867 190.479 195.7ZM210.112 189.5H211.987V202H210.112V201.125C208.862 201.875 207.628 202.25 206.412 202.25C204.712 202.25 203.578 201.808 203.012 200.925C202.462 200.042 202.187 198.408 202.187 196.025V189.5H204.062V196C204.062 197.817 204.22 199.033 204.537 199.65C204.853 200.267 205.57 200.575 206.687 200.575C207.237 200.575 207.795 200.5 208.362 200.35C208.928 200.183 209.362 200.025 209.662 199.875L210.112 199.65V189.5ZM215.593 202V189.5H217.443V191.2C218.893 190.2 220.418 189.542 222.018 189.225V191.125C221.318 191.258 220.585 191.467 219.818 191.75C219.068 192.033 218.493 192.283 218.093 192.5L217.468 192.825V202H215.593ZM228.161 190.925C226.344 190.925 225.436 191.558 225.436 192.825C225.436 193.408 225.644 193.825 226.061 194.075C226.477 194.308 227.427 194.558 228.911 194.825C230.394 195.075 231.444 195.433 232.061 195.9C232.677 196.367 232.986 197.242 232.986 198.525C232.986 199.808 232.569 200.75 231.736 201.35C230.919 201.95 229.719 202.25 228.136 202.25C227.102 202.25 225.886 202.133 224.486 201.9L223.736 201.775L223.836 200.15C225.736 200.433 227.169 200.575 228.136 200.575C229.102 200.575 229.836 200.425 230.336 200.125C230.852 199.808 231.111 199.292 231.111 198.575C231.111 197.842 230.894 197.35 230.461 197.1C230.027 196.833 229.077 196.583 227.611 196.35C226.144 196.117 225.102 195.775 224.486 195.325C223.869 194.875 223.561 194.042 223.561 192.825C223.561 191.608 223.986 190.708 224.836 190.125C225.702 189.542 226.777 189.25 228.061 189.25C229.077 189.25 230.352 189.367 231.886 189.6L232.586 189.725L232.536 191.325C230.686 191.058 229.227 190.925 228.161 190.925ZM244.357 200.45L245.082 200.375L245.132 201.85C243.232 202.117 241.607 202.25 240.257 202.25C238.457 202.25 237.182 201.733 236.432 200.7C235.682 199.65 235.307 198.025 235.307 195.825C235.307 191.442 237.048 189.25 240.532 189.25C242.215 189.25 243.473 189.725 244.307 190.675C245.14 191.608 245.557 193.083 245.557 195.1L245.457 196.525H237.207C237.207 197.908 237.457 198.933 237.957 199.6C238.457 200.267 239.323 200.6 240.557 200.6C241.807 200.6 243.073 200.55 244.357 200.45ZM243.682 195.025C243.682 193.492 243.432 192.408 242.932 191.775C242.448 191.142 241.648 190.825 240.532 190.825C239.432 190.825 238.598 191.158 238.032 191.825C237.482 192.492 237.198 193.558 237.182 195.025H243.682ZM253.422 195.725C253.422 193.442 253.83 191.792 254.647 190.775C255.464 189.758 256.839 189.25 258.772 189.25C260.722 189.25 262.097 189.758 262.897 190.775C263.714 191.792 264.122 193.442 264.122 195.725C264.122 198.008 263.739 199.667 262.972 200.7C262.205 201.733 260.805 202.25 258.772 202.25C256.739 202.25 255.339 201.733 254.572 200.7C253.805 199.667 253.422 198.008 253.422 195.725ZM255.347 195.7C255.347 197.517 255.564 198.792 255.997 199.525C256.447 200.258 257.372 200.625 258.772 200.625C260.189 200.625 261.114 200.267 261.547 199.55C261.98 198.817 262.197 197.533 262.197 195.7C262.197 193.867 261.955 192.608 261.472 191.925C260.989 191.225 260.089 190.875 258.772 190.875C257.472 190.875 256.572 191.225 256.072 191.925C255.589 192.608 255.347 193.867 255.347 195.7ZM269.58 191.125V202H267.705V191.125H266.13V189.5H267.705V188.375C267.705 186.608 267.955 185.408 268.455 184.775C268.955 184.125 269.83 183.8 271.08 183.8L273.605 183.975L273.58 185.525C272.647 185.492 271.872 185.475 271.255 185.475C270.655 185.475 270.222 185.675 269.955 186.075C269.705 186.475 269.58 187.25 269.58 188.4V189.5H273.205V191.125H269.58ZM289.774 193.275V199.675C289.824 200.292 290.308 200.658 291.224 200.775L291.149 202.25C289.833 202.25 288.841 201.917 288.174 201.25C286.674 201.917 285.174 202.25 283.674 202.25C282.524 202.25 281.649 201.925 281.049 201.275C280.449 200.625 280.149 199.692 280.149 198.475C280.149 197.258 280.458 196.367 281.074 195.8C281.691 195.217 282.658 194.858 283.974 194.725L287.899 194.35V193.275C287.899 192.425 287.716 191.817 287.349 191.45C286.983 191.083 286.483 190.9 285.849 190.9C284.516 190.9 283.133 190.983 281.699 191.15L280.924 191.225L280.849 189.8C282.683 189.433 284.308 189.25 285.724 189.25C287.141 189.25 288.166 189.575 288.799 190.225C289.449 190.875 289.774 191.892 289.774 193.275ZM282.074 198.375C282.074 199.908 282.708 200.675 283.974 200.675C285.108 200.675 286.224 200.483 287.324 200.1L287.899 199.9V195.775L284.199 196.125C283.449 196.192 282.908 196.408 282.574 196.775C282.241 197.142 282.074 197.675 282.074 198.375ZM298.149 189.25C298.699 189.25 299.632 189.35 300.949 189.55L301.549 189.625L301.474 191.15C300.14 191 299.157 190.925 298.524 190.925C297.107 190.925 296.14 191.267 295.624 191.95C295.124 192.617 294.874 193.867 294.874 195.7C294.874 197.517 295.107 198.783 295.574 199.5C296.057 200.217 297.049 200.575 298.549 200.575L301.499 200.35L301.574 201.9C300.024 202.133 298.865 202.25 298.099 202.25C296.149 202.25 294.799 201.75 294.049 200.75C293.315 199.75 292.949 198.067 292.949 195.7C292.949 193.317 293.349 191.65 294.149 190.7C294.949 189.733 296.282 189.25 298.149 189.25ZM310.838 191.125H306.863V197.1C306.863 198.533 306.963 199.475 307.163 199.925C307.379 200.375 307.879 200.6 308.663 200.6L310.888 200.45L311.013 202C309.896 202.183 309.046 202.275 308.463 202.275C307.163 202.275 306.263 201.958 305.763 201.325C305.263 200.692 305.013 199.483 305.013 197.7V191.125H303.238V189.5H305.013V185.675H306.863V189.5H310.838V191.125ZM313.127 202V189.5H315.002V202H313.127ZM313.127 186.675V184.5H315.002V186.675H313.127ZM318.046 195.725C318.046 193.442 318.454 191.792 319.271 190.775C320.088 189.758 321.463 189.25 323.396 189.25C325.346 189.25 326.721 189.758 327.521 190.775C328.338 191.792 328.746 193.442 328.746 195.725C328.746 198.008 328.363 199.667 327.596 200.7C326.829 201.733 325.429 202.25 323.396 202.25C321.363 202.25 319.963 201.733 319.196 200.7C318.429 199.667 318.046 198.008 318.046 195.725ZM319.971 195.7C319.971 197.517 320.188 198.792 320.621 199.525C321.071 200.258 321.996 200.625 323.396 200.625C324.813 200.625 325.738 200.267 326.171 199.55C326.604 198.817 326.821 197.533 326.821 195.7C326.821 193.867 326.579 192.608 326.096 191.925C325.613 191.225 324.713 190.875 323.396 190.875C322.096 190.875 321.196 191.225 320.696 191.925C320.213 192.608 319.971 193.867 319.971 195.7ZM333.679 202H331.804V189.5H333.654V190.375C335.004 189.625 336.296 189.25 337.529 189.25C339.196 189.25 340.312 189.7 340.879 190.6C341.462 191.5 341.754 193.1 341.754 195.4V202H339.904V195.45C339.904 193.717 339.729 192.533 339.379 191.9C339.046 191.25 338.321 190.925 337.204 190.925C336.671 190.925 336.104 191.008 335.504 191.175C334.921 191.325 334.471 191.475 334.154 191.625L333.679 191.85V202ZM356.25 189.25C357.933 189.25 359.108 189.733 359.775 190.7C360.458 191.65 360.8 193.325 360.8 195.725C360.8 198.125 360.375 199.817 359.525 200.8C358.691 201.767 357.15 202.25 354.9 202.25C354.2 202.25 353.041 202.183 351.425 202.05L350.725 201.975V184.05H352.575V190.125C353.841 189.542 355.066 189.25 356.25 189.25ZM354.875 200.575C356.508 200.575 357.583 200.208 358.1 199.475C358.633 198.725 358.9 197.467 358.9 195.7C358.9 193.933 358.691 192.7 358.275 192C357.858 191.283 357.116 190.925 356.05 190.925C355.083 190.925 354.091 191.108 353.075 191.475L352.575 191.65V200.45C353.658 200.533 354.425 200.575 354.875 200.575ZM372.709 193.275V199.675C372.759 200.292 373.242 200.658 374.159 200.775L374.084 202.25C372.767 202.25 371.776 201.917 371.109 201.25C369.609 201.917 368.109 202.25 366.609 202.25C365.459 202.25 364.584 201.925 363.984 201.275C363.384 200.625 363.084 199.692 363.084 198.475C363.084 197.258 363.392 196.367 364.009 195.8C364.626 195.217 365.592 194.858 366.909 194.725L370.834 194.35V193.275C370.834 192.425 370.651 191.817 370.284 191.45C369.917 191.083 369.417 190.9 368.784 190.9C367.451 190.9 366.067 190.983 364.634 191.15L363.859 191.225L363.784 189.8C365.617 189.433 367.242 189.25 368.659 189.25C370.076 189.25 371.101 189.575 371.734 190.225C372.384 190.875 372.709 191.892 372.709 193.275ZM365.009 198.375C365.009 199.908 365.642 200.675 366.909 200.675C368.042 200.675 369.159 200.483 370.259 200.1L370.834 199.9V195.775L367.134 196.125C366.384 196.192 365.842 196.408 365.509 196.775C365.176 197.142 365.009 197.675 365.009 198.375ZM380.333 190.925C378.517 190.925 377.608 191.558 377.608 192.825C377.608 193.408 377.817 193.825 378.233 194.075C378.65 194.308 379.6 194.558 381.083 194.825C382.567 195.075 383.617 195.433 384.233 195.9C384.85 196.367 385.158 197.242 385.158 198.525C385.158 199.808 384.742 200.75 383.908 201.35C383.092 201.95 381.892 202.25 380.308 202.25C379.275 202.25 378.058 202.133 376.658 201.9L375.908 201.775L376.008 200.15C377.908 200.433 379.342 200.575 380.308 200.575C381.275 200.575 382.008 200.425 382.508 200.125C383.025 199.808 383.283 199.292 383.283 198.575C383.283 197.842 383.067 197.35 382.633 197.1C382.2 196.833 381.25 196.583 379.783 196.35C378.317 196.117 377.275 195.775 376.658 195.325C376.042 194.875 375.733 194.042 375.733 192.825C375.733 191.608 376.158 190.708 377.008 190.125C377.875 189.542 378.95 189.25 380.233 189.25C381.25 189.25 382.525 189.367 384.058 189.6L384.758 189.725L384.708 191.325C382.858 191.058 381.4 190.925 380.333 190.925ZM396.529 200.45L397.254 200.375L397.304 201.85C395.404 202.117 393.779 202.25 392.429 202.25C390.629 202.25 389.354 201.733 388.604 200.7C387.854 199.65 387.479 198.025 387.479 195.825C387.479 191.442 389.221 189.25 392.704 189.25C394.388 189.25 395.646 189.725 396.479 190.675C397.313 191.608 397.729 193.083 397.729 195.1L397.629 196.525H389.379C389.379 197.908 389.629 198.933 390.129 199.6C390.629 200.267 391.496 200.6 392.729 200.6C393.979 200.6 395.246 200.55 396.529 200.45ZM395.854 195.025C395.854 193.492 395.604 192.408 395.104 191.775C394.621 191.142 393.821 190.825 392.704 190.825C391.604 190.825 390.771 191.158 390.204 191.825C389.654 192.492 389.371 193.558 389.354 195.025H395.854ZM410.252 184.05V202H408.402V201.15C407.118 201.883 405.852 202.25 404.602 202.25C403.935 202.25 403.352 202.167 402.852 202C402.352 201.833 401.885 201.533 401.452 201.1C400.552 200.2 400.102 198.542 400.102 196.125C400.102 193.692 400.502 191.942 401.302 190.875C402.118 189.792 403.46 189.25 405.327 189.25C406.293 189.25 407.318 189.358 408.402 189.575V184.05H410.252ZM402.902 199.75C403.168 200.067 403.452 200.283 403.752 200.4C404.052 200.517 404.435 200.575 404.902 200.575C405.385 200.575 405.918 200.5 406.502 200.35C407.102 200.183 407.568 200.025 407.902 199.875L408.402 199.65V191.175C407.335 190.975 406.343 190.875 405.427 190.875C404.16 190.875 403.277 191.283 402.777 192.1C402.277 192.9 402.027 194.15 402.027 195.85C402.027 197.783 402.318 199.083 402.902 199.75ZM418.827 195.725C418.827 193.442 419.235 191.792 420.052 190.775C420.869 189.758 422.244 189.25 424.177 189.25C426.127 189.25 427.502 189.758 428.302 190.775C429.119 191.792 429.527 193.442 429.527 195.725C429.527 198.008 429.144 199.667 428.377 200.7C427.61 201.733 426.21 202.25 424.177 202.25C422.144 202.25 420.744 201.733 419.977 200.7C419.21 199.667 418.827 198.008 418.827 195.725ZM420.752 195.7C420.752 197.517 420.969 198.792 421.402 199.525C421.852 200.258 422.777 200.625 424.177 200.625C425.594 200.625 426.519 200.267 426.952 199.55C427.385 198.817 427.602 197.533 427.602 195.7C427.602 193.867 427.36 192.608 426.877 191.925C426.394 191.225 425.494 190.875 424.177 190.875C422.877 190.875 421.977 191.225 421.477 191.925C420.994 192.608 420.752 193.867 420.752 195.7ZM434.46 202H432.585V189.5H434.435V190.375C435.785 189.625 437.077 189.25 438.31 189.25C439.977 189.25 441.093 189.7 441.66 190.6C442.243 191.5 442.535 193.1 442.535 195.4V202H440.685V195.45C440.685 193.717 440.51 192.533 440.16 191.9C439.827 191.25 439.102 190.925 437.985 190.925C437.452 190.925 436.885 191.008 436.285 191.175C435.702 191.325 435.252 191.475 434.935 191.625L434.46 191.85V202ZM451.506 202V189.5H453.356V191.2C454.806 190.2 456.331 189.542 457.931 189.225V191.125C457.231 191.258 456.498 191.467 455.731 191.75C454.981 192.033 454.406 192.283 454.006 192.5L453.381 192.825V202H451.506ZM468.404 200.45L469.129 200.375L469.179 201.85C467.279 202.117 465.654 202.25 464.304 202.25C462.504 202.25 461.229 201.733 460.479 200.7C459.729 199.65 459.354 198.025 459.354 195.825C459.354 191.442 461.096 189.25 464.579 189.25C466.263 189.25 467.521 189.725 468.354 190.675C469.188 191.608 469.604 193.083 469.604 195.1L469.504 196.525H461.254C461.254 197.908 461.504 198.933 462.004 199.6C462.504 200.267 463.371 200.6 464.604 200.6C465.854 200.6 467.121 200.55 468.404 200.45ZM467.729 195.025C467.729 193.492 467.479 192.408 466.979 191.775C466.496 191.142 465.696 190.825 464.579 190.825C463.479 190.825 462.646 191.158 462.079 191.825C461.529 192.492 461.246 193.558 461.229 195.025H467.729ZM476.452 190.925C474.635 190.925 473.727 191.558 473.727 192.825C473.727 193.408 473.935 193.825 474.352 194.075C474.768 194.308 475.718 194.558 477.202 194.825C478.685 195.075 479.735 195.433 480.352 195.9C480.968 196.367 481.277 197.242 481.277 198.525C481.277 199.808 480.86 200.75 480.027 201.35C479.21 201.95 478.01 202.25 476.427 202.25C475.393 202.25 474.177 202.133 472.777 201.9L472.027 201.775L472.127 200.15C474.027 200.433 475.46 200.575 476.427 200.575C477.393 200.575 478.127 200.425 478.627 200.125C479.143 199.808 479.402 199.292 479.402 198.575C479.402 197.842 479.185 197.35 478.752 197.1C478.318 196.833 477.368 196.583 475.902 196.35C474.435 196.117 473.393 195.775 472.777 195.325C472.16 194.875 471.852 194.042 471.852 192.825C471.852 191.608 472.277 190.708 473.127 190.125C473.993 189.542 475.068 189.25 476.352 189.25C477.368 189.25 478.643 189.367 480.177 189.6L480.877 189.725L480.827 191.325C478.977 191.058 477.518 190.925 476.452 190.925ZM492.648 200.45L493.373 200.375L493.423 201.85C491.523 202.117 489.898 202.25 488.548 202.25C486.748 202.25 485.473 201.733 484.723 200.7C483.973 199.65 483.598 198.025 483.598 195.825C483.598 191.442 485.339 189.25 488.823 189.25C490.506 189.25 491.764 189.725 492.598 190.675C493.431 191.608 493.848 193.083 493.848 195.1L493.748 196.525H485.498C485.498 197.908 485.748 198.933 486.248 199.6C486.748 200.267 487.614 200.6 488.848 200.6C490.098 200.6 491.364 200.55 492.648 200.45ZM491.973 195.025C491.973 193.492 491.723 192.408 491.223 191.775C490.739 191.142 489.939 190.825 488.823 190.825C487.723 190.825 486.889 191.158 486.323 191.825C485.773 192.492 485.489 193.558 485.473 195.025H491.973ZM505.595 193.275V199.675C505.645 200.292 506.128 200.658 507.045 200.775L506.97 202.25C505.653 202.25 504.661 201.917 503.995 201.25C502.495 201.917 500.995 202.25 499.495 202.25C498.345 202.25 497.47 201.925 496.87 201.275C496.27 200.625 495.97 199.692 495.97 198.475C495.97 197.258 496.278 196.367 496.895 195.8C497.511 195.217 498.478 194.858 499.795 194.725L503.72 194.35V193.275C503.72 192.425 503.536 191.817 503.17 191.45C502.803 191.083 502.303 190.9 501.67 190.9C500.336 190.9 498.953 190.983 497.52 191.15L496.745 191.225L496.67 189.8C498.503 189.433 500.128 189.25 501.545 189.25C502.961 189.25 503.986 189.575 504.62 190.225C505.27 190.875 505.595 191.892 505.595 193.275ZM497.895 198.375C497.895 199.908 498.528 200.675 499.795 200.675C500.928 200.675 502.045 200.483 503.145 200.1L503.72 199.9V195.775L500.02 196.125C499.27 196.192 498.728 196.408 498.395 196.775C498.061 197.142 497.895 197.675 497.895 198.375ZM509.294 202V189.5H511.144V191.2C512.594 190.2 514.119 189.542 515.719 189.225V191.125C515.019 191.258 514.286 191.467 513.519 191.75C512.769 192.033 512.194 192.283 511.794 192.5L511.169 192.825V202H509.294ZM522.368 189.25C522.918 189.25 523.851 189.35 525.168 189.55L525.768 189.625L525.693 191.15C524.359 191 523.376 190.925 522.743 190.925C521.326 190.925 520.359 191.267 519.843 191.95C519.343 192.617 519.093 193.867 519.093 195.7C519.093 197.517 519.326 198.783 519.793 199.5C520.276 200.217 521.268 200.575 522.768 200.575L525.718 200.35L525.793 201.9C524.243 202.133 523.084 202.25 522.318 202.25C520.368 202.25 519.018 201.75 518.268 200.75C517.534 199.75 517.168 198.067 517.168 195.7C517.168 193.317 517.568 191.65 518.368 190.7C519.168 189.733 520.501 189.25 522.368 189.25ZM530.456 202H528.581V184.05H530.456V190.2C531.79 189.567 533.073 189.25 534.306 189.25C535.973 189.25 537.09 189.7 537.656 190.6C538.24 191.5 538.531 193.1 538.531 195.4V202H536.656V195.45C536.656 193.717 536.481 192.533 536.131 191.9C535.798 191.25 535.081 190.925 533.981 190.925C532.931 190.925 531.915 191.117 530.931 191.5L530.456 191.675V202ZM557.102 184.05V202H555.252V201.15C553.969 201.883 552.702 202.25 551.452 202.25C550.785 202.25 550.202 202.167 549.702 202C549.202 201.833 548.735 201.533 548.302 201.1C547.402 200.2 546.952 198.542 546.952 196.125C546.952 193.692 547.352 191.942 548.152 190.875C548.969 189.792 550.31 189.25 552.177 189.25C553.144 189.25 554.169 189.358 555.252 189.575V184.05H557.102ZM549.752 199.75C550.019 200.067 550.302 200.283 550.602 200.4C550.902 200.517 551.285 200.575 551.752 200.575C552.235 200.575 552.769 200.5 553.352 200.35C553.952 200.183 554.419 200.025 554.752 199.875L555.252 199.65V191.175C554.185 190.975 553.194 190.875 552.277 190.875C551.01 190.875 550.127 191.283 549.627 192.1C549.127 192.9 548.877 194.15 548.877 195.85C548.877 197.783 549.169 199.083 549.752 199.75ZM560.185 195.725C560.185 193.442 560.593 191.792 561.41 190.775C562.226 189.758 563.601 189.25 565.535 189.25C567.485 189.25 568.86 189.758 569.66 190.775C570.476 191.792 570.885 193.442 570.885 195.725C570.885 198.008 570.501 199.667 569.735 200.7C568.968 201.733 567.568 202.25 565.535 202.25C563.501 202.25 562.101 201.733 561.335 200.7C560.568 199.667 560.185 198.008 560.185 195.725ZM562.11 195.7C562.11 197.517 562.326 198.792 562.76 199.525C563.21 200.258 564.135 200.625 565.535 200.625C566.951 200.625 567.876 200.267 568.31 199.55C568.743 198.817 568.96 197.533 568.96 195.7C568.96 193.867 568.718 192.608 568.235 191.925C567.751 191.225 566.851 190.875 565.535 190.875C564.235 190.875 563.335 191.225 562.835 191.925C562.351 192.608 562.11 193.867 562.11 195.7ZM575.818 202H573.943V189.5H575.793V190.375C577.143 189.625 578.434 189.25 579.668 189.25C581.334 189.25 582.451 189.7 583.018 190.6C583.601 191.5 583.893 193.1 583.893 195.4V202H582.043V195.45C582.043 193.717 581.868 192.533 581.518 191.9C581.184 191.25 580.459 190.925 579.343 190.925C578.809 190.925 578.243 191.008 577.643 191.175C577.059 191.325 576.609 191.475 576.293 191.625L575.818 191.85V202ZM595.87 200.45L596.595 200.375L596.645 201.85C594.745 202.117 593.12 202.25 591.77 202.25C589.97 202.25 588.695 201.733 587.945 200.7C587.195 199.65 586.82 198.025 586.82 195.825C586.82 191.442 588.562 189.25 592.045 189.25C593.729 189.25 594.987 189.725 595.82 190.675C596.654 191.608 597.07 193.083 597.07 195.1L596.97 196.525H588.72C588.72 197.908 588.97 198.933 589.47 199.6C589.97 200.267 590.837 200.6 592.07 200.6C593.32 200.6 594.587 200.55 595.87 200.45ZM595.195 195.025C595.195 193.492 594.945 192.408 594.445 191.775C593.962 191.142 593.162 190.825 592.045 190.825C590.945 190.825 590.112 191.158 589.545 191.825C588.995 192.492 588.712 193.558 588.695 195.025H595.195ZM611.011 189.25C612.694 189.25 613.869 189.733 614.536 190.7C615.219 191.65 615.561 193.325 615.561 195.725C615.561 198.125 615.136 199.817 614.286 200.8C613.452 201.767 611.911 202.25 609.661 202.25C608.961 202.25 607.802 202.183 606.186 202.05L605.486 201.975V184.05H607.336V190.125C608.602 189.542 609.827 189.25 611.011 189.25ZM609.636 200.575C611.269 200.575 612.344 200.208 612.861 199.475C613.394 198.725 613.661 197.467 613.661 195.7C613.661 193.933 613.452 192.7 613.036 192C612.619 191.283 611.877 190.925 610.811 190.925C609.844 190.925 608.852 191.108 607.836 191.475L607.336 191.65V200.45C608.419 200.533 609.186 200.575 609.636 200.575ZM617.25 189.5H619.125L622.25 200.375H623.075L626.225 189.5H628.1L622.9 207.55H621.025L622.65 202H620.8L617.25 189.5ZM644.503 200.45L645.228 200.375L645.278 201.85C643.378 202.117 641.753 202.25 640.403 202.25C638.603 202.25 637.328 201.733 636.578 200.7C635.828 199.65 635.453 198.025 635.453 195.825C635.453 191.442 637.195 189.25 640.678 189.25C642.361 189.25 643.62 189.725 644.453 190.675C645.286 191.608 645.703 193.083 645.703 195.1L645.603 196.525H637.353C637.353 197.908 637.603 198.933 638.103 199.6C638.603 200.267 639.47 200.6 640.703 200.6C641.953 200.6 643.22 200.55 644.503 200.45ZM643.828 195.025C643.828 193.492 643.578 192.408 643.078 191.775C642.595 191.142 641.795 190.825 640.678 190.825C639.578 190.825 638.745 191.158 638.178 191.825C637.628 192.492 637.345 193.558 637.328 195.025H643.828ZM657.45 193.275V199.675C657.5 200.292 657.984 200.658 658.9 200.775L658.825 202.25C657.509 202.25 656.517 201.917 655.85 201.25C654.35 201.917 652.85 202.25 651.35 202.25C650.2 202.25 649.325 201.925 648.725 201.275C648.125 200.625 647.825 199.692 647.825 198.475C647.825 197.258 648.134 196.367 648.75 195.8C649.367 195.217 650.334 194.858 651.65 194.725L655.575 194.35V193.275C655.575 192.425 655.392 191.817 655.025 191.45C654.659 191.083 654.159 190.9 653.525 190.9C652.192 190.9 650.809 190.983 649.375 191.15L648.6 191.225L648.525 189.8C650.359 189.433 651.984 189.25 653.4 189.25C654.817 189.25 655.842 189.575 656.475 190.225C657.125 190.875 657.45 191.892 657.45 193.275ZM649.75 198.375C649.75 199.908 650.384 200.675 651.65 200.675C652.784 200.675 653.9 200.483 655 200.1L655.575 199.9V195.775L651.875 196.125C651.125 196.192 650.584 196.408 650.25 196.775C649.917 197.142 649.75 197.675 649.75 198.375ZM661.15 202V189.5H663V191.2C664.45 190.2 665.975 189.542 667.575 189.225V191.125C666.875 191.258 666.141 191.467 665.375 191.75C664.625 192.033 664.05 192.283 663.65 192.5L663.025 192.825V202H661.15ZM669.942 202V184.05H671.817V202H669.942ZM675.578 202V189.5H677.453V202H675.578ZM675.578 186.675V184.5H677.453V186.675H675.578ZM689.547 200.45L690.272 200.375L690.322 201.85C688.422 202.117 686.797 202.25 685.447 202.25C683.647 202.25 682.372 201.733 681.622 200.7C680.872 199.65 680.497 198.025 680.497 195.825C680.497 191.442 682.239 189.25 685.722 189.25C687.405 189.25 688.664 189.725 689.497 190.675C690.33 191.608 690.747 193.083 690.747 195.1L690.647 196.525H682.397C682.397 197.908 682.647 198.933 683.147 199.6C683.647 200.267 684.514 200.6 685.747 200.6C686.997 200.6 688.264 200.55 689.547 200.45ZM688.872 195.025C688.872 193.492 688.622 192.408 688.122 191.775C687.639 191.142 686.839 190.825 685.722 190.825C684.622 190.825 683.789 191.158 683.222 191.825C682.672 192.492 682.389 193.558 682.372 195.025H688.872ZM693.669 202V189.5H695.519V191.2C696.969 190.2 698.494 189.542 700.094 189.225V191.125C699.394 191.258 698.661 191.467 697.894 191.75C697.144 192.033 696.569 192.283 696.169 192.5L695.544 192.825V202H693.669ZM710.205 191.125V202H708.33V191.125H706.755V189.5H708.33V188.375C708.33 186.608 708.58 185.408 709.08 184.775C709.58 184.125 710.455 183.8 711.705 183.8L714.23 183.975L714.205 185.525C713.272 185.492 712.497 185.475 711.88 185.475C711.28 185.475 710.847 185.675 710.58 186.075C710.33 186.475 710.205 187.25 710.205 188.4V189.5H713.83V191.125H710.205ZM724.906 193.275V199.675C724.956 200.292 725.44 200.658 726.356 200.775L726.281 202.25C724.965 202.25 723.973 201.917 723.306 201.25C721.806 201.917 720.306 202.25 718.806 202.25C717.656 202.25 716.781 201.925 716.181 201.275C715.581 200.625 715.281 199.692 715.281 198.475C715.281 197.258 715.59 196.367 716.206 195.8C716.823 195.217 717.79 194.858 719.106 194.725L723.031 194.35V193.275C723.031 192.425 722.848 191.817 722.481 191.45C722.115 191.083 721.615 190.9 720.981 190.9C719.648 190.9 718.265 190.983 716.831 191.15L716.056 191.225L715.981 189.8C717.815 189.433 719.44 189.25 720.856 189.25C722.273 189.25 723.298 189.575 723.931 190.225C724.581 190.875 724.906 191.892 724.906 193.275ZM717.206 198.375C717.206 199.908 717.84 200.675 719.106 200.675C720.24 200.675 721.356 200.483 722.456 200.1L723.031 199.9V195.775L719.331 196.125C718.581 196.192 718.04 196.408 717.706 196.775C717.373 197.142 717.206 197.675 717.206 198.375ZM733.281 189.25C733.831 189.25 734.764 189.35 736.081 189.55L736.681 189.625L736.606 191.15C735.272 191 734.289 190.925 733.656 190.925C732.239 190.925 731.272 191.267 730.756 191.95C730.256 192.617 730.006 193.867 730.006 195.7C730.006 197.517 730.239 198.783 730.706 199.5C731.189 200.217 732.181 200.575 733.681 200.575L736.631 200.35L736.706 201.9C735.156 202.133 733.997 202.25 733.231 202.25C731.281 202.25 729.931 201.75 729.181 200.75C728.447 199.75 728.081 198.067 728.081 195.7C728.081 193.317 728.481 191.65 729.281 190.7C730.081 189.733 731.414 189.25 733.281 189.25ZM745.969 191.125H741.994V197.1C741.994 198.533 742.094 199.475 742.294 199.925C742.511 200.375 743.011 200.6 743.794 200.6L746.019 200.45L746.144 202C745.028 202.183 744.178 202.275 743.594 202.275C742.294 202.275 741.394 201.958 740.894 201.325C740.394 200.692 740.144 199.483 740.144 197.7V191.125H738.369V189.5H740.144V185.675H741.994V189.5H745.969V191.125ZM747.709 195.725C747.709 193.442 748.117 191.792 748.934 190.775C749.751 189.758 751.126 189.25 753.059 189.25C755.009 189.25 756.384 189.758 757.184 190.775C758.001 191.792 758.409 193.442 758.409 195.725C758.409 198.008 758.026 199.667 757.259 200.7C756.492 201.733 755.092 202.25 753.059 202.25C751.026 202.25 749.626 201.733 748.859 200.7C748.092 199.667 747.709 198.008 747.709 195.725ZM749.634 195.7C749.634 197.517 749.851 198.792 750.284 199.525C750.734 200.258 751.659 200.625 753.059 200.625C754.476 200.625 755.401 200.267 755.834 199.55C756.267 198.817 756.484 197.533 756.484 195.7C756.484 193.867 756.242 192.608 755.759 191.925C755.276 191.225 754.376 190.875 753.059 190.875C751.759 190.875 750.859 191.225 750.359 191.925C749.876 192.608 749.634 193.867 749.634 195.7ZM761.467 202V189.5H763.317V191.2C764.767 190.2 766.292 189.542 767.892 189.225V191.125C767.192 191.258 766.459 191.467 765.692 191.75C764.942 192.033 764.367 192.283 763.967 192.5L763.342 192.825V202H761.467ZM774.035 190.925C772.218 190.925 771.31 191.558 771.31 192.825C771.31 193.408 771.518 193.825 771.935 194.075C772.351 194.308 773.301 194.558 774.785 194.825C776.268 195.075 777.318 195.433 777.935 195.9C778.551 196.367 778.86 197.242 778.86 198.525C778.86 199.808 778.443 200.75 777.61 201.35C776.793 201.95 775.593 202.25 774.01 202.25C772.976 202.25 771.76 202.133 770.36 201.9L769.61 201.775L769.71 200.15C771.61 200.433 773.043 200.575 774.01 200.575C774.976 200.575 775.71 200.425 776.21 200.125C776.726 199.808 776.985 199.292 776.985 198.575C776.985 197.842 776.768 197.35 776.335 197.1C775.901 196.833 774.951 196.583 773.485 196.35C772.018 196.117 770.976 195.775 770.36 195.325C769.743 194.875 769.435 194.042 769.435 192.825C769.435 191.608 769.86 190.708 770.71 190.125C771.576 189.542 772.651 189.25 773.935 189.25C774.951 189.25 776.226 189.367 777.76 189.6L778.46 189.725L778.41 191.325C776.56 191.058 775.101 190.925 774.035 190.925ZM781.606 202V199.15H783.656V202H781.606ZM66.6168 237.35V230.2H72.8668V237.35H66.6168ZM89.1 240L93.85 222.7H98.05L102.8 240H100.9L99.65 235.55H92.25L91 240H89.1ZM95.3 224.35L92.675 233.825H99.225L96.6 224.35H95.3ZM105.193 245.55V227.5H107.043V228.4C108.309 227.633 109.559 227.25 110.793 227.25C112.376 227.25 113.526 227.758 114.243 228.775C114.959 229.775 115.318 231.433 115.318 233.75C115.318 236.067 114.893 237.733 114.043 238.75C113.209 239.75 111.818 240.25 109.868 240.25C108.851 240.25 107.918 240.158 107.068 239.975V245.55H105.193ZM110.518 228.925C110.018 228.925 109.476 229.008 108.893 229.175C108.326 229.342 107.876 229.508 107.543 229.675L107.068 229.925V238.35C108.251 238.533 109.151 238.625 109.768 238.625C111.118 238.625 112.059 238.242 112.593 237.475C113.143 236.708 113.418 235.458 113.418 233.725C113.418 231.992 113.168 230.758 112.668 230.025C112.184 229.292 111.468 228.925 110.518 228.925ZM118.376 245.55V227.5H120.226V228.4C121.493 227.633 122.743 227.25 123.976 227.25C125.56 227.25 126.71 227.758 127.426 228.775C128.143 229.775 128.501 231.433 128.501 233.75C128.501 236.067 128.076 237.733 127.226 238.75C126.393 239.75 125.001 240.25 123.051 240.25C122.035 240.25 121.101 240.158 120.251 239.975V245.55H118.376ZM123.701 228.925C123.201 228.925 122.66 229.008 122.076 229.175C121.51 229.342 121.06 229.508 120.726 229.675L120.251 229.925V238.35C121.435 238.533 122.335 238.625 122.951 238.625C124.301 238.625 125.243 238.242 125.776 237.475C126.326 236.708 126.601 235.458 126.601 233.725C126.601 231.992 126.351 230.758 125.851 230.025C125.368 229.292 124.651 228.925 123.701 228.925ZM131.56 240V227.5H133.41V229.2C134.86 228.2 136.385 227.542 137.985 227.225V229.125C137.285 229.258 136.551 229.467 135.785 229.75C135.035 230.033 134.46 230.283 134.06 230.5L133.435 230.825V240H131.56ZM139.408 233.725C139.408 231.442 139.817 229.792 140.633 228.775C141.45 227.758 142.825 227.25 144.758 227.25C146.708 227.25 148.083 227.758 148.883 228.775C149.7 229.792 150.108 231.442 150.108 233.725C150.108 236.008 149.725 237.667 148.958 238.7C148.192 239.733 146.792 240.25 144.758 240.25C142.725 240.25 141.325 239.733 140.558 238.7C139.792 237.667 139.408 236.008 139.408 233.725ZM141.333 233.7C141.333 235.517 141.55 236.792 141.983 237.525C142.433 238.258 143.358 238.625 144.758 238.625C146.175 238.625 147.1 238.267 147.533 237.55C147.967 236.817 148.183 235.533 148.183 233.7C148.183 231.867 147.942 230.608 147.458 229.925C146.975 229.225 146.075 228.875 144.758 228.875C143.458 228.875 142.558 229.225 142.058 229.925C141.575 230.608 141.333 231.867 141.333 233.7ZM151.771 227.5H153.771L156.696 238.375H157.621L160.646 227.5H162.571L159.046 240H155.296L151.771 227.5ZM173.263 238.45L173.988 238.375L174.038 239.85C172.138 240.117 170.513 240.25 169.163 240.25C167.363 240.25 166.088 239.733 165.338 238.7C164.588 237.65 164.213 236.025 164.213 233.825C164.213 229.442 165.955 227.25 169.438 227.25C171.121 227.25 172.38 227.725 173.213 228.675C174.046 229.608 174.463 231.083 174.463 233.1L174.363 234.525H166.113C166.113 235.908 166.363 236.933 166.863 237.6C167.363 238.267 168.23 238.6 169.463 238.6C170.713 238.6 171.98 238.55 173.263 238.45ZM172.588 233.025C172.588 231.492 172.338 230.408 171.838 229.775C171.355 229.142 170.555 228.825 169.438 228.825C168.338 228.825 167.505 229.158 166.938 229.825C166.388 230.492 166.105 231.558 166.088 233.025H172.588ZM181.31 228.925C179.493 228.925 178.585 229.558 178.585 230.825C178.585 231.408 178.793 231.825 179.21 232.075C179.627 232.308 180.577 232.558 182.06 232.825C183.543 233.075 184.593 233.433 185.21 233.9C185.827 234.367 186.135 235.242 186.135 236.525C186.135 237.808 185.718 238.75 184.885 239.35C184.068 239.95 182.868 240.25 181.285 240.25C180.252 240.25 179.035 240.133 177.635 239.9L176.885 239.775L176.985 238.15C178.885 238.433 180.318 238.575 181.285 238.575C182.252 238.575 182.985 238.425 183.485 238.125C184.002 237.808 184.26 237.292 184.26 236.575C184.26 235.842 184.043 235.35 183.61 235.1C183.177 234.833 182.227 234.583 180.76 234.35C179.293 234.117 178.252 233.775 177.635 233.325C177.018 232.875 176.71 232.042 176.71 230.825C176.71 229.608 177.135 228.708 177.985 228.125C178.852 227.542 179.927 227.25 181.21 227.25C182.227 227.25 183.502 227.367 185.035 227.6L185.735 227.725L185.685 229.325C183.835 229.058 182.377 228.925 181.31 228.925ZM202.299 227.5H204.174V240H202.299V239.125C201.049 239.875 199.816 240.25 198.599 240.25C196.899 240.25 195.766 239.808 195.199 238.925C194.649 238.042 194.374 236.408 194.374 234.025V227.5H196.249V234C196.249 235.817 196.408 237.033 196.724 237.65C197.041 238.267 197.758 238.575 198.874 238.575C199.424 238.575 199.983 238.5 200.549 238.35C201.116 238.183 201.549 238.025 201.849 237.875L202.299 237.65V227.5ZM209.655 240H207.78V227.5H209.63V228.375C210.98 227.625 212.272 227.25 213.505 227.25C215.172 227.25 216.289 227.7 216.855 228.6C217.439 229.5 217.73 231.1 217.73 233.4V240H215.88V233.45C215.88 231.717 215.705 230.533 215.355 229.9C215.022 229.25 214.297 228.925 213.18 228.925C212.647 228.925 212.08 229.008 211.48 229.175C210.897 229.325 210.447 229.475 210.13 229.625L209.655 229.85V240ZM225.883 227.25C226.433 227.25 227.367 227.35 228.683 227.55L229.283 227.625L229.208 229.15C227.875 229 226.892 228.925 226.258 228.925C224.842 228.925 223.875 229.267 223.358 229.95C222.858 230.617 222.608 231.867 222.608 233.7C222.608 235.517 222.842 236.783 223.308 237.5C223.792 238.217 224.783 238.575 226.283 238.575L229.233 238.35L229.308 239.9C227.758 240.133 226.6 240.25 225.833 240.25C223.883 240.25 222.533 239.75 221.783 238.75C221.05 237.75 220.683 236.067 220.683 233.7C220.683 231.317 221.083 229.65 221.883 228.7C222.683 227.733 224.017 227.25 225.883 227.25ZM240.45 238.45L241.175 238.375L241.225 239.85C239.325 240.117 237.7 240.25 236.35 240.25C234.55 240.25 233.275 239.733 232.525 238.7C231.775 237.65 231.4 236.025 231.4 233.825C231.4 229.442 233.142 227.25 236.625 227.25C238.309 227.25 239.567 227.725 240.4 228.675C241.234 229.608 241.65 231.083 241.65 233.1L241.55 234.525H233.3C233.3 235.908 233.55 236.933 234.05 237.6C234.55 238.267 235.417 238.6 236.65 238.6C237.9 238.6 239.167 238.55 240.45 238.45ZM239.775 233.025C239.775 231.492 239.525 230.408 239.025 229.775C238.542 229.142 237.742 228.825 236.625 228.825C235.525 228.825 234.692 229.158 234.125 229.825C233.575 230.492 233.292 231.558 233.275 233.025H239.775ZM244.572 240V227.5H246.422V229.2C247.872 228.2 249.397 227.542 250.997 227.225V229.125C250.297 229.258 249.564 229.467 248.797 229.75C248.047 230.033 247.472 230.283 247.072 230.5L246.447 230.825V240H244.572ZM259.69 229.125H255.715V235.1C255.715 236.533 255.815 237.475 256.015 237.925C256.232 238.375 256.732 238.6 257.515 238.6L259.74 238.45L259.865 240C258.748 240.183 257.898 240.275 257.315 240.275C256.015 240.275 255.115 239.958 254.615 239.325C254.115 238.692 253.865 237.483 253.865 235.7V229.125H252.09V227.5H253.865V223.675H255.715V227.5H259.69V229.125ZM270.805 231.275V237.675C270.855 238.292 271.338 238.658 272.255 238.775L272.18 240.25C270.863 240.25 269.871 239.917 269.205 239.25C267.705 239.917 266.205 240.25 264.705 240.25C263.555 240.25 262.68 239.925 262.08 239.275C261.48 238.625 261.18 237.692 261.18 236.475C261.18 235.258 261.488 234.367 262.105 233.8C262.721 233.217 263.688 232.858 265.005 232.725L268.93 232.35V231.275C268.93 230.425 268.746 229.817 268.38 229.45C268.013 229.083 267.513 228.9 266.88 228.9C265.546 228.9 264.163 228.983 262.73 229.15L261.955 229.225L261.88 227.8C263.713 227.433 265.338 227.25 266.755 227.25C268.171 227.25 269.196 227.575 269.83 228.225C270.48 228.875 270.805 229.892 270.805 231.275ZM263.105 236.375C263.105 237.908 263.738 238.675 265.005 238.675C266.138 238.675 267.255 238.483 268.355 238.1L268.93 237.9V233.775L265.23 234.125C264.48 234.192 263.938 234.408 263.605 234.775C263.271 235.142 263.105 235.675 263.105 236.375ZM274.504 240V227.5H276.379V240H274.504ZM274.504 224.675V222.5H276.379V224.675H274.504ZM281.848 240H279.973V227.5H281.823V228.375C283.173 227.625 284.465 227.25 285.698 227.25C287.365 227.25 288.481 227.7 289.048 228.6C289.631 229.5 289.923 231.1 289.923 233.4V240H288.073V233.45C288.073 231.717 287.898 230.533 287.548 229.9C287.215 229.25 286.49 228.925 285.373 228.925C284.84 228.925 284.273 229.008 283.673 229.175C283.09 229.325 282.64 229.475 282.323 229.625L281.848 229.85V240ZM299.802 229.125H295.827V235.1C295.827 236.533 295.927 237.475 296.127 237.925C296.344 238.375 296.844 238.6 297.627 238.6L299.852 238.45L299.977 240C298.861 240.183 298.011 240.275 297.427 240.275C296.127 240.275 295.227 239.958 294.727 239.325C294.227 238.692 293.977 237.483 293.977 235.7V229.125H292.202V227.5H293.977V223.675H295.827V227.5H299.802V229.125ZM302.092 240V227.5H303.967V240H302.092ZM302.092 224.675V222.5H303.967V224.675H302.092ZM316.061 238.45L316.786 238.375L316.836 239.85C314.936 240.117 313.311 240.25 311.961 240.25C310.161 240.25 308.886 239.733 308.136 238.7C307.386 237.65 307.011 236.025 307.011 233.825C307.011 229.442 308.752 227.25 312.236 227.25C313.919 227.25 315.177 227.725 316.011 228.675C316.844 229.608 317.261 231.083 317.261 233.1L317.161 234.525H308.911C308.911 235.908 309.161 236.933 309.661 237.6C310.161 238.267 311.027 238.6 312.261 238.6C313.511 238.6 314.777 238.55 316.061 238.45ZM315.386 233.025C315.386 231.492 315.136 230.408 314.636 229.775C314.152 229.142 313.352 228.825 312.236 228.825C311.136 228.825 310.302 229.158 309.736 229.825C309.186 230.492 308.902 231.558 308.886 233.025H315.386ZM324.108 228.925C322.291 228.925 321.383 229.558 321.383 230.825C321.383 231.408 321.591 231.825 322.008 232.075C322.424 232.308 323.374 232.558 324.858 232.825C326.341 233.075 327.391 233.433 328.008 233.9C328.624 234.367 328.933 235.242 328.933 236.525C328.933 237.808 328.516 238.75 327.683 239.35C326.866 239.95 325.666 240.25 324.083 240.25C323.049 240.25 321.833 240.133 320.433 239.9L319.683 239.775L319.783 238.15C321.683 238.433 323.116 238.575 324.083 238.575C325.049 238.575 325.783 238.425 326.283 238.125C326.799 237.808 327.058 237.292 327.058 236.575C327.058 235.842 326.841 235.35 326.408 235.1C325.974 234.833 325.024 234.583 323.558 234.35C322.091 234.117 321.049 233.775 320.433 233.325C319.816 232.875 319.508 232.042 319.508 230.825C319.508 229.608 319.933 228.708 320.783 228.125C321.649 227.542 322.724 227.25 324.008 227.25C325.024 227.25 326.299 227.367 327.833 227.6L328.533 227.725L328.483 229.325C326.633 229.058 325.174 228.925 324.108 228.925ZM346.122 231.275V237.675C346.172 238.292 346.655 238.658 347.572 238.775L347.497 240.25C346.18 240.25 345.189 239.917 344.522 239.25C343.022 239.917 341.522 240.25 340.022 240.25C338.872 240.25 337.997 239.925 337.397 239.275C336.797 238.625 336.497 237.692 336.497 236.475C336.497 235.258 336.805 234.367 337.422 233.8C338.039 233.217 339.005 232.858 340.322 232.725L344.247 232.35V231.275C344.247 230.425 344.064 229.817 343.697 229.45C343.33 229.083 342.83 228.9 342.197 228.9C340.864 228.9 339.48 228.983 338.047 229.15L337.272 229.225L337.197 227.8C339.03 227.433 340.655 227.25 342.072 227.25C343.489 227.25 344.514 227.575 345.147 228.225C345.797 228.875 346.122 229.892 346.122 231.275ZM338.422 236.375C338.422 237.908 339.055 238.675 340.322 238.675C341.455 238.675 342.572 238.483 343.672 238.1L344.247 237.9V233.775L340.547 234.125C339.797 234.192 339.255 234.408 338.922 234.775C338.589 235.142 338.422 235.675 338.422 236.375ZM351.696 240H349.821V227.5H351.671V228.375C353.021 227.625 354.313 227.25 355.546 227.25C357.213 227.25 358.33 227.7 358.896 228.6C359.48 229.5 359.771 231.1 359.771 233.4V240H357.921V233.45C357.921 231.717 357.746 230.533 357.396 229.9C357.063 229.25 356.338 228.925 355.221 228.925C354.688 228.925 354.121 229.008 353.521 229.175C352.938 229.325 352.488 229.475 352.171 229.625L351.696 229.85V240ZM372.849 222.05V240H370.999V239.15C369.716 239.883 368.449 240.25 367.199 240.25C366.533 240.25 365.949 240.167 365.449 240C364.949 239.833 364.483 239.533 364.049 239.1C363.149 238.2 362.699 236.542 362.699 234.125C362.699 231.692 363.099 229.942 363.899 228.875C364.716 227.792 366.058 227.25 367.924 227.25C368.891 227.25 369.916 227.358 370.999 227.575V222.05H372.849ZM365.499 237.75C365.766 238.067 366.049 238.283 366.349 238.4C366.649 238.517 367.033 238.575 367.499 238.575C367.983 238.575 368.516 238.5 369.099 238.35C369.699 238.183 370.166 238.025 370.499 237.875L370.999 237.65V229.175C369.933 228.975 368.941 228.875 368.024 228.875C366.758 228.875 365.874 229.283 365.374 230.1C364.874 230.9 364.624 232.15 364.624 233.85C364.624 235.783 364.916 237.083 365.499 237.75ZM390.475 238.45L391.2 238.375L391.25 239.85C389.35 240.117 387.725 240.25 386.375 240.25C384.575 240.25 383.3 239.733 382.55 238.7C381.8 237.65 381.425 236.025 381.425 233.825C381.425 229.442 383.166 227.25 386.65 227.25C388.333 227.25 389.591 227.725 390.425 228.675C391.258 229.608 391.675 231.083 391.675 233.1L391.575 234.525H383.325C383.325 235.908 383.575 236.933 384.075 237.6C384.575 238.267 385.441 238.6 386.675 238.6C387.925 238.6 389.191 238.55 390.475 238.45ZM389.8 233.025C389.8 231.492 389.55 230.408 389.05 229.775C388.566 229.142 387.766 228.825 386.65 228.825C385.55 228.825 384.716 229.158 384.15 229.825C383.6 230.492 383.316 231.558 383.3 233.025H389.8ZM393.249 227.5H395.299L398.349 232.4L401.399 227.5H403.449L399.474 233.7L403.424 240H401.374L398.349 235.125L395.299 240H393.249L397.174 233.75L393.249 227.5ZM412.278 229.125H408.303V235.1C408.303 236.533 408.403 237.475 408.603 237.925C408.82 238.375 409.32 238.6 410.103 238.6L412.328 238.45L412.453 240C411.336 240.183 410.486 240.275 409.903 240.275C408.603 240.275 407.703 239.958 407.203 239.325C406.703 238.692 406.453 237.483 406.453 235.7V229.125H404.678V227.5H406.453V223.675H408.303V227.5H412.278V229.125ZM414.568 240V227.5H416.418V229.2C417.868 228.2 419.393 227.542 420.993 227.225V229.125C420.293 229.258 419.559 229.467 418.793 229.75C418.043 230.033 417.468 230.283 417.068 230.5L416.443 230.825V240H414.568ZM431.466 238.45L432.191 238.375L432.241 239.85C430.341 240.117 428.716 240.25 427.366 240.25C425.566 240.25 424.291 239.733 423.541 238.7C422.791 237.65 422.416 236.025 422.416 233.825C422.416 229.442 424.158 227.25 427.641 227.25C429.324 227.25 430.583 227.725 431.416 228.675C432.249 229.608 432.666 231.083 432.666 233.1L432.566 234.525H424.316C424.316 235.908 424.566 236.933 425.066 237.6C425.566 238.267 426.433 238.6 427.666 238.6C428.916 238.6 430.183 238.55 431.466 238.45ZM430.791 233.025C430.791 231.492 430.541 230.408 430.041 229.775C429.558 229.142 428.758 228.825 427.641 228.825C426.541 228.825 425.708 229.158 425.141 229.825C424.591 230.492 424.308 231.558 424.291 233.025H430.791ZM437.463 240H435.588V227.5H437.438V228.375C438.688 227.625 439.905 227.25 441.088 227.25C442.638 227.25 443.721 227.675 444.338 228.525C444.888 228.192 445.596 227.9 446.463 227.65C447.346 227.383 448.121 227.25 448.788 227.25C450.455 227.25 451.571 227.7 452.138 228.6C452.721 229.483 453.013 231.083 453.013 233.4V240H451.138V233.45C451.138 231.717 450.971 230.533 450.638 229.9C450.305 229.25 449.596 228.925 448.513 228.925C447.963 228.925 447.396 229.008 446.813 229.175C446.23 229.325 445.78 229.475 445.463 229.625L444.988 229.85C445.205 230.4 445.313 231.617 445.313 233.5V240H443.438V233.55C443.438 231.75 443.271 230.533 442.938 229.9C442.621 229.25 441.913 228.925 440.813 228.925C440.28 228.925 439.73 229.008 439.163 229.175C438.613 229.325 438.188 229.475 437.888 229.625L437.463 229.85V240ZM464.987 238.45L465.712 238.375L465.762 239.85C463.862 240.117 462.237 240.25 460.887 240.25C459.087 240.25 457.812 239.733 457.062 238.7C456.312 237.65 455.937 236.025 455.937 233.825C455.937 229.442 457.678 227.25 461.162 227.25C462.845 227.25 464.103 227.725 464.937 228.675C465.77 229.608 466.187 231.083 466.187 233.1L466.087 234.525H457.837C457.837 235.908 458.087 236.933 458.587 237.6C459.087 238.267 459.953 238.6 461.187 238.6C462.437 238.6 463.703 238.55 464.987 238.45ZM464.312 233.025C464.312 231.492 464.062 230.408 463.562 229.775C463.078 229.142 462.278 228.825 461.162 228.825C460.062 228.825 459.228 229.158 458.662 229.825C458.112 230.492 457.828 231.558 457.812 233.025H464.312ZM479.277 227.25C479.827 227.25 480.76 227.35 482.077 227.55L482.677 227.625L482.602 229.15C481.268 229 480.285 228.925 479.652 228.925C478.235 228.925 477.268 229.267 476.752 229.95C476.252 230.617 476.002 231.867 476.002 233.7C476.002 235.517 476.235 236.783 476.702 237.5C477.185 238.217 478.177 238.575 479.677 238.575L482.627 238.35L482.702 239.9C481.152 240.133 479.993 240.25 479.227 240.25C477.277 240.25 475.927 239.75 475.177 238.75C474.443 237.75 474.077 236.067 474.077 233.7C474.077 231.317 474.477 229.65 475.277 228.7C476.077 227.733 477.41 227.25 479.277 227.25ZM494.315 231.275V237.675C494.365 238.292 494.849 238.658 495.765 238.775L495.69 240.25C494.374 240.25 493.382 239.917 492.715 239.25C491.215 239.917 489.715 240.25 488.215 240.25C487.065 240.25 486.19 239.925 485.59 239.275C484.99 238.625 484.69 237.692 484.69 236.475C484.69 235.258 484.999 234.367 485.615 233.8C486.232 233.217 487.199 232.858 488.515 232.725L492.44 232.35V231.275C492.44 230.425 492.257 229.817 491.89 229.45C491.524 229.083 491.024 228.9 490.39 228.9C489.057 228.9 487.674 228.983 486.24 229.15L485.465 229.225L485.39 227.8C487.224 227.433 488.849 227.25 490.265 227.25C491.682 227.25 492.707 227.575 493.34 228.225C493.99 228.875 494.315 229.892 494.315 231.275ZM486.615 236.375C486.615 237.908 487.249 238.675 488.515 238.675C489.649 238.675 490.765 238.483 491.865 238.1L492.44 237.9V233.775L488.74 234.125C487.99 234.192 487.449 234.408 487.115 234.775C486.782 235.142 486.615 235.675 486.615 236.375ZM501.94 228.925C500.123 228.925 499.215 229.558 499.215 230.825C499.215 231.408 499.423 231.825 499.84 232.075C500.257 232.308 501.207 232.558 502.69 232.825C504.173 233.075 505.223 233.433 505.84 233.9C506.457 234.367 506.765 235.242 506.765 236.525C506.765 237.808 506.348 238.75 505.515 239.35C504.698 239.95 503.498 240.25 501.915 240.25C500.882 240.25 499.665 240.133 498.265 239.9L497.515 239.775L497.615 238.15C499.515 238.433 500.948 238.575 501.915 238.575C502.882 238.575 503.615 238.425 504.115 238.125C504.632 237.808 504.89 237.292 504.89 236.575C504.89 235.842 504.673 235.35 504.24 235.1C503.807 234.833 502.857 234.583 501.39 234.35C499.923 234.117 498.882 233.775 498.265 233.325C497.648 232.875 497.34 232.042 497.34 230.825C497.34 229.608 497.765 228.708 498.615 228.125C499.482 227.542 500.557 227.25 501.84 227.25C502.857 227.25 504.132 227.367 505.665 227.6L506.365 227.725L506.315 229.325C504.465 229.058 503.007 228.925 501.94 228.925ZM518.136 238.45L518.861 238.375L518.911 239.85C517.011 240.117 515.386 240.25 514.036 240.25C512.236 240.25 510.961 239.733 510.211 238.7C509.461 237.65 509.086 236.025 509.086 233.825C509.086 229.442 510.828 227.25 514.311 227.25C515.994 227.25 517.253 227.725 518.086 228.675C518.919 229.608 519.336 231.083 519.336 233.1L519.236 234.525H510.986C510.986 235.908 511.236 236.933 511.736 237.6C512.236 238.267 513.103 238.6 514.336 238.6C515.586 238.6 516.853 238.55 518.136 238.45ZM517.461 233.025C517.461 231.492 517.211 230.408 516.711 229.775C516.228 229.142 515.428 228.825 514.311 228.825C513.211 228.825 512.378 229.158 511.811 229.825C511.261 230.492 510.978 231.558 510.961 233.025H517.461ZM526.183 228.925C524.366 228.925 523.458 229.558 523.458 230.825C523.458 231.408 523.666 231.825 524.083 232.075C524.5 232.308 525.45 232.558 526.933 232.825C528.416 233.075 529.466 233.433 530.083 233.9C530.7 234.367 531.008 235.242 531.008 236.525C531.008 237.808 530.591 238.75 529.758 239.35C528.941 239.95 527.741 240.25 526.158 240.25C525.125 240.25 523.908 240.133 522.508 239.9L521.758 239.775L521.858 238.15C523.758 238.433 525.191 238.575 526.158 238.575C527.125 238.575 527.858 238.425 528.358 238.125C528.875 237.808 529.133 237.292 529.133 236.575C529.133 235.842 528.916 235.35 528.483 235.1C528.05 234.833 527.1 234.583 525.633 234.35C524.166 234.117 523.125 233.775 522.508 233.325C521.891 232.875 521.583 232.042 521.583 230.825C521.583 229.608 522.008 228.708 522.858 228.125C523.725 227.542 524.8 227.25 526.083 227.25C527.1 227.25 528.375 227.367 529.908 227.6L530.608 227.725L530.558 229.325C528.708 229.058 527.25 228.925 526.183 228.925ZM533.754 240V237.15H535.804V240H533.754ZM66.6168 275.35V268.2H72.8668V275.35H66.6168ZM88.825 262.425V260.7H101.325V262.425H96.05V278H94.15V262.425H88.825ZM105.334 278H103.459V260.05H105.334V266.2C106.668 265.567 107.951 265.25 109.184 265.25C110.851 265.25 111.968 265.7 112.534 266.6C113.118 267.5 113.409 269.1 113.409 271.4V278H111.534V271.45C111.534 269.717 111.359 268.533 111.009 267.9C110.676 267.25 109.959 266.925 108.859 266.925C107.809 266.925 106.793 267.117 105.809 267.5L105.334 267.675V278ZM125.387 276.45L126.112 276.375L126.162 277.85C124.262 278.117 122.637 278.25 121.287 278.25C119.487 278.25 118.212 277.733 117.462 276.7C116.712 275.65 116.337 274.025 116.337 271.825C116.337 267.442 118.079 265.25 121.562 265.25C123.245 265.25 124.504 265.725 125.337 266.675C126.17 267.608 126.587 269.083 126.587 271.1L126.487 272.525H118.237C118.237 273.908 118.487 274.933 118.987 275.6C119.487 276.267 120.354 276.6 121.587 276.6C122.837 276.6 124.104 276.55 125.387 276.45ZM124.712 271.025C124.712 269.492 124.462 268.408 123.962 267.775C123.479 267.142 122.679 266.825 121.562 266.825C120.462 266.825 119.629 267.158 119.062 267.825C118.512 268.492 118.229 269.558 118.212 271.025H124.712ZM143.502 276.45L144.227 276.375L144.277 277.85C142.377 278.117 140.752 278.25 139.402 278.25C137.602 278.25 136.327 277.733 135.577 276.7C134.827 275.65 134.452 274.025 134.452 271.825C134.452 267.442 136.194 265.25 139.677 265.25C141.36 265.25 142.619 265.725 143.452 266.675C144.285 267.608 144.702 269.083 144.702 271.1L144.602 272.525H136.352C136.352 273.908 136.602 274.933 137.102 275.6C137.602 276.267 138.469 276.6 139.702 276.6C140.952 276.6 142.219 276.55 143.502 276.45ZM142.827 271.025C142.827 269.492 142.577 268.408 142.077 267.775C141.594 267.142 140.794 266.825 139.677 266.825C138.577 266.825 137.744 267.158 137.177 267.825C136.627 268.492 136.344 269.558 136.327 271.025H142.827ZM149.499 278H147.624V265.5H149.474V266.375C150.824 265.625 152.116 265.25 153.349 265.25C155.016 265.25 156.133 265.7 156.699 266.6C157.283 267.5 157.574 269.1 157.574 271.4V278H155.724V271.45C155.724 269.717 155.549 268.533 155.199 267.9C154.866 267.25 154.141 266.925 153.024 266.925C152.491 266.925 151.924 267.008 151.324 267.175C150.741 267.325 150.291 267.475 149.974 267.625L149.499 267.85V278ZM170.652 260.05V278H168.802V277.15C167.519 277.883 166.252 278.25 165.002 278.25C164.335 278.25 163.752 278.167 163.252 278C162.752 277.833 162.285 277.533 161.852 277.1C160.952 276.2 160.502 274.542 160.502 272.125C160.502 269.692 160.902 267.942 161.702 266.875C162.519 265.792 163.86 265.25 165.727 265.25C166.694 265.25 167.719 265.358 168.802 265.575V260.05H170.652ZM163.302 275.75C163.569 276.067 163.852 276.283 164.152 276.4C164.452 276.517 164.835 276.575 165.302 276.575C165.785 276.575 166.319 276.5 166.902 276.35C167.502 276.183 167.969 276.025 168.302 275.875L168.802 275.65V267.175C167.735 266.975 166.744 266.875 165.827 266.875C164.56 266.875 163.677 267.283 163.177 268.1C162.677 268.9 162.427 270.15 162.427 271.85C162.427 273.783 162.719 275.083 163.302 275.75ZM179.778 283.55V265.5H181.628V266.4C182.894 265.633 184.144 265.25 185.378 265.25C186.961 265.25 188.111 265.758 188.828 266.775C189.544 267.775 189.903 269.433 189.903 271.75C189.903 274.067 189.478 275.733 188.628 276.75C187.794 277.75 186.403 278.25 184.453 278.25C183.436 278.25 182.503 278.158 181.653 277.975V283.55H179.778ZM185.103 266.925C184.603 266.925 184.061 267.008 183.478 267.175C182.911 267.342 182.461 267.508 182.128 267.675L181.653 267.925V276.35C182.836 276.533 183.736 276.625 184.353 276.625C185.703 276.625 186.644 276.242 187.178 275.475C187.728 274.708 188.003 273.458 188.003 271.725C188.003 269.992 187.753 268.758 187.253 268.025C186.769 267.292 186.053 266.925 185.103 266.925ZM192.411 271.725C192.411 269.442 192.819 267.792 193.636 266.775C194.453 265.758 195.828 265.25 197.761 265.25C199.711 265.25 201.086 265.758 201.886 266.775C202.703 267.792 203.111 269.442 203.111 271.725C203.111 274.008 202.728 275.667 201.961 276.7C201.194 277.733 199.794 278.25 197.761 278.25C195.728 278.25 194.328 277.733 193.561 276.7C192.794 275.667 192.411 274.008 192.411 271.725ZM194.336 271.7C194.336 273.517 194.553 274.792 194.986 275.525C195.436 276.258 196.361 276.625 197.761 276.625C199.178 276.625 200.103 276.267 200.536 275.55C200.969 274.817 201.186 273.533 201.186 271.7C201.186 269.867 200.944 268.608 200.461 267.925C199.978 267.225 199.078 266.875 197.761 266.875C196.461 266.875 195.561 267.225 195.061 267.925C194.578 268.608 194.336 269.867 194.336 271.7ZM206.169 278V265.5H208.044V278H206.169ZM206.169 262.675V260.5H208.044V262.675H206.169ZM213.513 278H211.638V265.5H213.488V266.375C214.838 265.625 216.13 265.25 217.363 265.25C219.03 265.25 220.146 265.7 220.713 266.6C221.296 267.5 221.588 269.1 221.588 271.4V278H219.738V271.45C219.738 269.717 219.563 268.533 219.213 267.9C218.88 267.25 218.155 266.925 217.038 266.925C216.505 266.925 215.938 267.008 215.338 267.175C214.755 267.325 214.305 267.475 213.988 267.625L213.513 267.85V278ZM231.467 267.125H227.492V273.1C227.492 274.533 227.592 275.475 227.792 275.925C228.009 276.375 228.509 276.6 229.292 276.6L231.517 276.45L231.642 278C230.526 278.183 229.676 278.275 229.092 278.275C227.792 278.275 226.892 277.958 226.392 277.325C225.892 276.692 225.642 275.483 225.642 273.7V267.125H223.867V265.5H225.642V261.675H227.492V265.5H231.467V267.125ZM238.7 271.725C238.7 269.442 239.109 267.792 239.925 266.775C240.742 265.758 242.117 265.25 244.05 265.25C246 265.25 247.375 265.758 248.175 266.775C248.992 267.792 249.4 269.442 249.4 271.725C249.4 274.008 249.017 275.667 248.25 276.7C247.484 277.733 246.084 278.25 244.05 278.25C242.017 278.25 240.617 277.733 239.85 276.7C239.084 275.667 238.7 274.008 238.7 271.725ZM240.625 271.7C240.625 273.517 240.842 274.792 241.275 275.525C241.725 276.258 242.65 276.625 244.05 276.625C245.467 276.625 246.392 276.267 246.825 275.55C247.259 274.817 247.475 273.533 247.475 271.7C247.475 269.867 247.234 268.608 246.75 267.925C246.267 267.225 245.367 266.875 244.05 266.875C242.75 266.875 241.85 267.225 241.35 267.925C240.867 268.608 240.625 269.867 240.625 271.7ZM254.858 267.125V278H252.983V267.125H251.408V265.5H252.983V264.375C252.983 262.608 253.233 261.408 253.733 260.775C254.233 260.125 255.108 259.8 256.358 259.8L258.883 259.975L258.858 261.525C257.925 261.492 257.15 261.475 256.533 261.475C255.933 261.475 255.5 261.675 255.233 262.075C254.983 262.475 254.858 263.25 254.858 264.4V265.5H258.483V267.125H254.858ZM272.703 267.125H268.728V273.1C268.728 274.533 268.828 275.475 269.028 275.925C269.244 276.375 269.744 276.6 270.528 276.6L272.753 276.45L272.878 278C271.761 278.183 270.911 278.275 270.328 278.275C269.028 278.275 268.128 277.958 267.628 277.325C267.128 276.692 266.878 275.483 266.878 273.7V267.125H265.103V265.5H266.878V261.675H268.728V265.5H272.703V267.125ZM276.867 278H274.992V260.05H276.867V266.2C278.201 265.567 279.484 265.25 280.717 265.25C282.384 265.25 283.501 265.7 284.067 266.6C284.651 267.5 284.942 269.1 284.942 271.4V278H283.067V271.45C283.067 269.717 282.892 268.533 282.542 267.9C282.209 267.25 281.492 266.925 280.392 266.925C279.342 266.925 278.326 267.117 277.342 267.5L276.867 267.675V278ZM296.92 276.45L297.645 276.375L297.695 277.85C295.795 278.117 294.17 278.25 292.82 278.25C291.02 278.25 289.745 277.733 288.995 276.7C288.245 275.65 287.87 274.025 287.87 271.825C287.87 267.442 289.612 265.25 293.095 265.25C294.778 265.25 296.037 265.725 296.87 266.675C297.703 267.608 298.12 269.083 298.12 271.1L298.02 272.525H289.77C289.77 273.908 290.02 274.933 290.52 275.6C291.02 276.267 291.887 276.6 293.12 276.6C294.37 276.6 295.637 276.55 296.92 276.45ZM296.245 271.025C296.245 269.492 295.995 268.408 295.495 267.775C295.012 267.142 294.212 266.825 293.095 266.825C291.995 266.825 291.162 267.158 290.595 267.825C290.045 268.492 289.762 269.558 289.745 271.025H296.245ZM316.135 260.05V278H314.285V277.15C313.002 277.883 311.735 278.25 310.485 278.25C309.819 278.25 309.235 278.167 308.735 278C308.235 277.833 307.769 277.533 307.335 277.1C306.435 276.2 305.985 274.542 305.985 272.125C305.985 269.692 306.385 267.942 307.185 266.875C308.002 265.792 309.344 265.25 311.21 265.25C312.177 265.25 313.202 265.358 314.285 265.575V260.05H316.135ZM308.785 275.75C309.052 276.067 309.335 276.283 309.635 276.4C309.935 276.517 310.319 276.575 310.785 276.575C311.269 276.575 311.802 276.5 312.385 276.35C312.985 276.183 313.452 276.025 313.785 275.875L314.285 275.65V267.175C313.219 266.975 312.227 266.875 311.31 266.875C310.044 266.875 309.16 267.283 308.66 268.1C308.16 268.9 307.91 270.15 307.91 271.85C307.91 273.783 308.202 275.083 308.785 275.75ZM328.593 269.275V275.675C328.643 276.292 329.126 276.658 330.043 276.775L329.968 278.25C328.651 278.25 327.659 277.917 326.993 277.25C325.493 277.917 323.993 278.25 322.493 278.25C321.343 278.25 320.468 277.925 319.868 277.275C319.268 276.625 318.968 275.692 318.968 274.475C318.968 273.258 319.276 272.367 319.893 271.8C320.509 271.217 321.476 270.858 322.793 270.725L326.718 270.35V269.275C326.718 268.425 326.534 267.817 326.168 267.45C325.801 267.083 325.301 266.9 324.668 266.9C323.334 266.9 321.951 266.983 320.518 267.15L319.743 267.225L319.668 265.8C321.501 265.433 323.126 265.25 324.543 265.25C325.959 265.25 326.984 265.575 327.618 266.225C328.268 266.875 328.593 267.892 328.593 269.275ZM320.893 274.375C320.893 275.908 321.526 276.675 322.793 276.675C323.926 276.675 325.043 276.483 326.143 276.1L326.718 275.9V271.775L323.018 272.125C322.268 272.192 321.726 272.408 321.393 272.775C321.059 273.142 320.893 273.675 320.893 274.375ZM338.767 267.125H334.792V273.1C334.792 274.533 334.892 275.475 335.092 275.925C335.309 276.375 335.809 276.6 336.592 276.6L338.817 276.45L338.942 278C337.826 278.183 336.976 278.275 336.392 278.275C335.092 278.275 334.192 277.958 333.692 277.325C333.192 276.692 332.942 275.483 332.942 273.7V267.125H331.167V265.5H332.942V261.675H334.792V265.5H338.767V267.125ZM349.882 269.275V275.675C349.932 276.292 350.415 276.658 351.332 276.775L351.257 278.25C349.94 278.25 348.949 277.917 348.282 277.25C346.782 277.917 345.282 278.25 343.782 278.25C342.632 278.25 341.757 277.925 341.157 277.275C340.557 276.625 340.257 275.692 340.257 274.475C340.257 273.258 340.565 272.367 341.182 271.8C341.799 271.217 342.765 270.858 344.082 270.725L348.007 270.35V269.275C348.007 268.425 347.824 267.817 347.457 267.45C347.09 267.083 346.59 266.9 345.957 266.9C344.624 266.9 343.24 266.983 341.807 267.15L341.032 267.225L340.957 265.8C342.79 265.433 344.415 265.25 345.832 265.25C347.249 265.25 348.274 265.575 348.907 266.225C349.557 266.875 349.882 267.892 349.882 269.275ZM342.182 274.375C342.182 275.908 342.815 276.675 344.082 276.675C345.215 276.675 346.332 276.483 347.432 276.1L348.007 275.9V271.775L344.307 272.125C343.557 272.192 343.015 272.408 342.682 272.775C342.349 273.142 342.182 273.675 342.182 274.375ZM366.874 265.5H368.749V278H366.874V277.125C365.624 277.875 364.391 278.25 363.174 278.25C361.474 278.25 360.341 277.808 359.774 276.925C359.224 276.042 358.949 274.408 358.949 272.025V265.5H360.824V272C360.824 273.817 360.983 275.033 361.299 275.65C361.616 276.267 362.333 276.575 363.449 276.575C363.999 276.575 364.558 276.5 365.124 276.35C365.691 276.183 366.124 276.025 366.424 275.875L366.874 275.65V265.5ZM378.831 267.125H374.856V273.1C374.856 274.533 374.956 275.475 375.156 275.925C375.372 276.375 375.872 276.6 376.656 276.6L378.881 276.45L379.006 278C377.889 278.183 377.039 278.275 376.456 278.275C375.156 278.275 374.256 277.958 373.756 277.325C373.256 276.692 373.006 275.483 373.006 273.7V267.125H371.231V265.5H373.006V261.675H374.856V265.5H378.831V267.125ZM381.12 278V265.5H382.995V278H381.12ZM381.12 262.675V260.5H382.995V262.675H381.12ZM386.739 278V260.05H388.614V278H386.739ZM392.375 278V265.5H394.25V278H392.375ZM392.375 262.675V260.5H394.25V262.675H392.375ZM397.094 267.175V265.5H406.369V267.175L399.369 276.325H406.369V278H397.094V276.325L404.094 267.175H397.094ZM418.046 269.275V275.675C418.096 276.292 418.579 276.658 419.496 276.775L419.421 278.25C418.104 278.25 417.113 277.917 416.446 277.25C414.946 277.917 413.446 278.25 411.946 278.25C410.796 278.25 409.921 277.925 409.321 277.275C408.721 276.625 408.421 275.692 408.421 274.475C408.421 273.258 408.729 272.367 409.346 271.8C409.963 271.217 410.929 270.858 412.246 270.725L416.171 270.35V269.275C416.171 268.425 415.988 267.817 415.621 267.45C415.254 267.083 414.754 266.9 414.121 266.9C412.788 266.9 411.404 266.983 409.971 267.15L409.196 267.225L409.121 265.8C410.954 265.433 412.579 265.25 413.996 265.25C415.413 265.25 416.438 265.575 417.071 266.225C417.721 266.875 418.046 267.892 418.046 269.275ZM410.346 274.375C410.346 275.908 410.979 276.675 412.246 276.675C413.379 276.675 414.496 276.483 415.596 276.1L416.171 275.9V271.775L412.471 272.125C411.721 272.192 411.179 272.408 410.846 272.775C410.513 273.142 410.346 273.675 410.346 274.375ZM428.22 267.125H424.245V273.1C424.245 274.533 424.345 275.475 424.545 275.925C424.762 276.375 425.262 276.6 426.045 276.6L428.27 276.45L428.395 278C427.279 278.183 426.429 278.275 425.845 278.275C424.545 278.275 423.645 277.958 423.145 277.325C422.645 276.692 422.395 275.483 422.395 273.7V267.125H420.62V265.5H422.395V261.675H424.245V265.5H428.22V267.125ZM430.51 278V265.5H432.385V278H430.51ZM430.51 262.675V260.5H432.385V262.675H430.51ZM435.429 271.725C435.429 269.442 435.837 267.792 436.654 266.775C437.47 265.758 438.845 265.25 440.779 265.25C442.729 265.25 444.104 265.758 444.904 266.775C445.72 267.792 446.129 269.442 446.129 271.725C446.129 274.008 445.745 275.667 444.979 276.7C444.212 277.733 442.812 278.25 440.779 278.25C438.745 278.25 437.345 277.733 436.579 276.7C435.812 275.667 435.429 274.008 435.429 271.725ZM437.354 271.7C437.354 273.517 437.57 274.792 438.004 275.525C438.454 276.258 439.379 276.625 440.779 276.625C442.195 276.625 443.12 276.267 443.554 275.55C443.987 274.817 444.204 273.533 444.204 271.7C444.204 269.867 443.962 268.608 443.479 267.925C442.995 267.225 442.095 266.875 440.779 266.875C439.479 266.875 438.579 267.225 438.079 267.925C437.595 268.608 437.354 269.867 437.354 271.7ZM451.062 278H449.187V265.5H451.037V266.375C452.387 265.625 453.678 265.25 454.912 265.25C456.578 265.25 457.695 265.7 458.262 266.6C458.845 267.5 459.137 269.1 459.137 271.4V278H457.287V271.45C457.287 269.717 457.112 268.533 456.762 267.9C456.428 267.25 455.703 266.925 454.587 266.925C454.053 266.925 453.487 267.008 452.887 267.175C452.303 267.325 451.853 267.475 451.537 267.625L451.062 267.85V278ZM462.489 278V275.15H464.539V278H462.489Z" fill="#3F3939"/>
<rect x="51" y="56" width="207" height="51" rx="25.5" fill="#F69193"/>
<path d="M117.007 86.65C117.687 87.83 118.987 88.42 120.907 88.42C122.827 88.42 124.117 87.84 124.777 86.68C125.457 85.52 125.797 83.58 125.797 80.86C125.797 78.12 125.447 76.13 124.747 74.89C124.067 73.65 122.787 73.03 120.907 73.03C119.027 73.03 117.737 73.65 117.037 74.89C116.337 76.13 115.987 78.11 115.987 80.83C115.987 83.53 116.327 85.47 117.007 86.65ZM127.387 88.81C126.167 90.49 124.007 91.33 120.907 91.33C117.807 91.33 115.637 90.49 114.397 88.81C113.157 87.11 112.537 84.45 112.537 80.83C112.537 77.21 113.157 74.52 114.397 72.76C115.657 71 117.827 70.12 120.907 70.12C123.987 70.12 126.147 71 127.387 72.76C128.627 74.5 129.247 77.19 129.247 80.83C129.247 84.47 128.627 87.13 127.387 88.81ZM136.665 78.79V91H133.425V78.79H131.685V76H133.425V75.04C133.425 72.9 133.735 71.43 134.355 70.63C134.975 69.83 136.075 69.43 137.655 69.43L140.895 69.73L140.865 72.4C139.885 72.36 139.065 72.34 138.405 72.34C137.765 72.34 137.315 72.54 137.055 72.94C136.795 73.32 136.665 74.03 136.665 75.07V76H140.625V78.79H136.665ZM147.036 78.79V91H143.796V78.79H142.056V76H143.796V75.04C143.796 72.9 144.106 71.43 144.726 70.63C145.346 69.83 146.446 69.43 148.026 69.43L151.266 69.73L151.236 72.4C150.256 72.36 149.436 72.34 148.776 72.34C148.136 72.34 147.686 72.54 147.426 72.94C147.166 73.32 147.036 74.03 147.036 75.07V76H150.996V78.79H147.036ZM153.477 91V76H156.747V91H153.477ZM153.477 73.45V70H156.747V73.45H153.477ZM166.323 75.67C167.383 75.67 168.633 75.81 170.073 76.09L170.823 76.24L170.703 78.82C169.123 78.66 167.953 78.58 167.193 78.58C165.673 78.58 164.653 78.92 164.133 79.6C163.613 80.28 163.353 81.56 163.353 83.44C163.353 85.32 163.603 86.62 164.103 87.34C164.603 88.06 165.643 88.42 167.223 88.42L170.733 88.18L170.823 90.79C168.803 91.15 167.283 91.33 166.263 91.33C163.983 91.33 162.373 90.72 161.433 89.5C160.513 88.26 160.053 86.24 160.053 83.44C160.053 80.64 160.543 78.65 161.523 77.47C162.503 76.27 164.103 75.67 166.323 75.67ZM184.518 88.3L185.358 88.21L185.418 90.64C183.138 91.1 181.118 91.33 179.358 91.33C177.138 91.33 175.538 90.72 174.558 89.5C173.598 88.28 173.118 86.33 173.118 83.65C173.118 78.33 175.288 75.67 179.628 75.67C183.828 75.67 185.928 77.96 185.928 82.54L185.718 84.88H176.418C176.438 86.12 176.708 87.03 177.228 87.61C177.748 88.19 178.718 88.48 180.138 88.48C181.558 88.48 183.018 88.42 184.518 88.3ZM182.718 82.36C182.718 80.88 182.478 79.85 181.998 79.27C181.538 78.67 180.748 78.37 179.628 78.37C178.508 78.37 177.688 78.68 177.168 79.3C176.668 79.92 176.408 80.94 176.388 82.36H182.718ZM189.073 91V76H192.313V77.8C194.013 76.7 195.713 75.99 197.413 75.67V78.94C195.693 79.28 194.223 79.72 193.003 80.26L192.343 80.53V91H189.073Z" fill="#3F3939"/>
</svg>
