<svg width="328" height="403" viewBox="0 0 328 403" fill="none" xmlns="http://www.w3.org/2000/svg">
<g filter="url(#filter0_d)">
<rect x="4" width="320" height="395" rx="22" fill="#FCFCFC"/>
</g>
<path d="M64.5358 132L67.4088 120.355H71.1658L74.0558 132H72.1518L71.5228 129.501H67.0518L66.4228 132H64.5358ZM68.8708 121.936L67.4258 127.835H71.1488L69.7208 121.936H68.8708ZM82.7907 133.156C82.7907 135.015 81.4477 135.944 78.7617 135.944C77.4697 135.944 76.5121 135.768 75.8887 135.417C75.2654 135.066 74.9537 134.425 74.9537 133.496C74.9537 133.077 75.0557 132.714 75.2597 132.408C75.4637 132.113 75.7924 131.79 76.2457 131.439C75.8717 131.19 75.6847 130.776 75.6847 130.198C75.6847 129.971 75.8377 129.603 76.1437 129.093L76.2967 128.838C75.4807 128.351 75.0727 127.501 75.0727 126.288C75.0727 125.268 75.3787 124.52 75.9907 124.044C76.6027 123.568 77.4301 123.33 78.4727 123.33C78.9714 123.33 79.4644 123.387 79.9517 123.5L80.2067 123.551L82.8417 123.483V124.979L81.4307 124.894C81.7367 125.291 81.8897 125.755 81.8897 126.288C81.8897 127.399 81.6064 128.169 81.0397 128.6C80.4844 129.019 79.6117 129.229 78.4217 129.229C78.1271 129.229 77.8777 129.206 77.6737 129.161C77.5151 129.546 77.4357 129.847 77.4357 130.062C77.4357 130.266 77.5377 130.408 77.7417 130.487C77.9571 130.566 78.4671 130.612 79.2717 130.623C80.6204 130.634 81.5441 130.816 82.0427 131.167C82.5414 131.518 82.7907 132.181 82.7907 133.156ZM76.7727 133.326C76.7727 133.723 76.9314 134.006 77.2487 134.176C77.5661 134.346 78.1101 134.431 78.8807 134.431C80.2521 134.431 80.9377 134.04 80.9377 133.258C80.9377 132.816 80.8131 132.533 80.5637 132.408C80.3257 132.295 79.8441 132.232 79.1187 132.221L77.4527 132.119C77.2034 132.323 77.0277 132.51 76.9257 132.68C76.8237 132.861 76.7727 133.077 76.7727 133.326ZM76.9087 126.288C76.9087 126.809 77.0334 127.195 77.2827 127.444C77.5321 127.682 77.9344 127.801 78.4897 127.801C79.0451 127.801 79.4417 127.682 79.6797 127.444C79.9291 127.195 80.0537 126.809 80.0537 126.288C80.0537 125.767 79.9291 125.387 79.6797 125.149C79.4304 124.9 79.0281 124.775 78.4727 124.775C77.4301 124.775 76.9087 125.279 76.9087 126.288ZM90.3454 130.47L90.8214 130.419L90.8554 131.796C89.5634 132.057 88.4187 132.187 87.4214 132.187C86.1634 132.187 85.2567 131.841 84.7014 131.15C84.1574 130.459 83.8854 129.354 83.8854 127.835C83.8854 124.82 85.1151 123.313 87.5744 123.313C89.9544 123.313 91.1444 124.611 91.1444 127.206L91.0254 128.532H85.7554C85.7667 129.235 85.9197 129.75 86.2144 130.079C86.5091 130.408 87.0587 130.572 87.8634 130.572C88.6681 130.572 89.4954 130.538 90.3454 130.47ZM89.3254 127.104C89.3254 126.265 89.1894 125.682 88.9174 125.353C88.6567 125.013 88.2091 124.843 87.5744 124.843C86.9397 124.843 86.4751 125.019 86.1804 125.37C85.8971 125.721 85.7497 126.299 85.7384 127.104H89.3254Z" fill="#3F3939"/>
<path d="M58.8382 161H51.6642V159.895L54.9452 156.444C55.5119 155.855 55.9255 155.407 56.1862 155.101C56.4469 154.795 56.6792 154.432 56.8832 154.013C57.0985 153.594 57.2062 153.174 57.2062 152.755C57.2062 152.03 57.0079 151.52 56.6112 151.225C56.2145 150.93 55.5969 150.783 54.7582 150.783C54.0215 150.783 53.1999 150.879 52.2932 151.072L51.8512 151.157L51.7492 150.069C52.8259 149.763 53.9365 149.61 55.0812 149.61C56.2259 149.61 57.0872 149.854 57.6652 150.341C58.2545 150.817 58.5492 151.576 58.5492 152.619C58.5492 153.412 58.3735 154.104 58.0222 154.693C57.6709 155.282 57.0645 155.991 56.2032 156.818L53.2112 159.861H58.8382V161ZM68.3509 161H61.1769V159.895L64.4579 156.444C65.0246 155.855 65.4382 155.407 65.6989 155.101C65.9596 154.795 66.1919 154.432 66.3959 154.013C66.6112 153.594 66.7189 153.174 66.7189 152.755C66.7189 152.03 66.5206 151.52 66.1239 151.225C65.7272 150.93 65.1096 150.783 64.2709 150.783C63.5342 150.783 62.7126 150.879 61.8059 151.072L61.3639 151.157L61.2619 150.069C62.3386 149.763 63.4492 149.61 64.5939 149.61C65.7386 149.61 66.5999 149.854 67.1779 150.341C67.7672 150.817 68.0619 151.576 68.0619 152.619C68.0619 153.412 67.8862 154.104 67.5349 154.693C67.1836 155.282 66.5772 155.991 65.7159 156.818L62.7239 159.861H68.3509V161ZM70.6726 156.92V155.73H75.8236V156.92H70.6726ZM85.0797 149.78V150.97H79.6227L79.3167 154.625C80.1894 154.16 81.0677 153.928 81.9517 153.928C84.3317 153.928 85.5217 155.033 85.5217 157.243C85.5217 158.512 85.193 159.481 84.5357 160.15C83.8784 160.819 82.9547 161.153 81.7647 161.153C80.8127 161.153 79.7587 161.028 78.6027 160.779L78.0417 160.66L78.1947 159.623C79.498 159.872 80.5917 159.997 81.4757 159.997C82.371 159.997 83.0454 159.77 83.4987 159.317C83.952 158.852 84.1787 158.206 84.1787 157.379C84.1787 156.552 83.969 155.968 83.5497 155.628C83.1417 155.277 82.558 155.101 81.7987 155.101C81.3907 155.101 80.96 155.158 80.5067 155.271C80.0647 155.384 79.7247 155.498 79.4867 155.611L79.1297 155.781L78.2287 155.611L78.5347 149.78H85.0797ZM91.2264 149.593C92.1557 149.593 92.9094 149.769 93.4874 150.12C94.7114 150.845 95.3234 152.659 95.3234 155.56C95.3234 157.611 94.9834 159.062 94.3034 159.912C93.6234 160.751 92.6034 161.17 91.2434 161.17C89.8834 161.17 88.8577 160.756 88.1664 159.929C87.4864 159.09 87.1464 157.606 87.1464 155.475C87.1464 153.333 87.4807 151.82 88.1494 150.936C88.8294 150.041 89.8551 149.593 91.2264 149.593ZM91.2434 150.766C90.5974 150.766 90.0874 150.902 89.7134 151.174C88.9087 151.729 88.5064 153.197 88.5064 155.577C88.5064 157.254 88.7274 158.416 89.1694 159.062C89.6114 159.697 90.3027 160.014 91.2434 160.014C92.1841 160.014 92.8754 159.691 93.3174 159.045C93.7594 158.399 93.9804 157.203 93.9804 155.458C93.9804 153.701 93.7651 152.483 93.3344 151.803C92.9151 151.112 92.2181 150.766 91.2434 150.766ZM96.9311 157.311V156.155H100.144V152.84H101.334V156.155H104.581V157.311H101.334V160.66H100.144V157.311H96.9311Z" fill="#3F3939"/>
<path d="M162.33 131H155.802V119.355H157.689V129.317H162.33V131ZM169.702 129.47L170.178 129.419L170.212 130.796C168.92 131.057 167.775 131.187 166.778 131.187C165.52 131.187 164.613 130.841 164.058 130.15C163.514 129.459 163.242 128.354 163.242 126.835C163.242 123.82 164.471 122.313 166.931 122.313C169.311 122.313 170.501 123.611 170.501 126.206L170.382 127.532H165.112C165.123 128.235 165.276 128.75 165.571 129.079C165.865 129.408 166.415 129.572 167.22 129.572C168.024 129.572 168.852 129.538 169.702 129.47ZM168.682 126.104C168.682 125.265 168.546 124.682 168.274 124.353C168.013 124.013 167.565 123.843 166.931 123.843C166.296 123.843 165.831 124.019 165.537 124.37C165.253 124.721 165.106 125.299 165.095 126.104H168.682ZM171.367 122.5H173.305L174.937 129.419H175.481L177.181 122.5H179.068L176.858 131H173.56L171.367 122.5ZM186.436 129.47L186.912 129.419L186.946 130.796C185.654 131.057 184.51 131.187 183.512 131.187C182.254 131.187 181.348 130.841 180.792 130.15C180.248 129.459 179.976 128.354 179.976 126.835C179.976 123.82 181.206 122.313 183.665 122.313C186.045 122.313 187.235 123.611 187.235 126.206L187.116 127.532H181.846C181.858 128.235 182.011 128.75 182.305 129.079C182.6 129.408 183.15 129.572 183.954 129.572C184.759 129.572 185.586 129.538 186.436 129.47ZM185.416 126.104C185.416 125.265 185.28 124.682 185.008 124.353C184.748 124.013 184.3 123.843 183.665 123.843C183.031 123.843 182.566 124.019 182.271 124.37C181.988 124.721 181.841 125.299 181.829 126.104H185.416ZM189.119 131V118.964H190.972V131H189.119ZM197.511 123.418C198.101 122.681 199.075 122.313 200.435 122.313C201.795 122.313 202.764 122.681 203.342 123.418C203.932 124.155 204.226 125.26 204.226 126.733C204.226 128.206 203.943 129.317 203.376 130.065C202.81 130.813 201.829 131.187 200.435 131.187C199.041 131.187 198.061 130.813 197.494 130.065C196.928 129.317 196.644 128.206 196.644 126.733C196.644 125.26 196.933 124.155 197.511 123.418ZM198.905 128.943C199.166 129.396 199.676 129.623 200.435 129.623C201.195 129.623 201.705 129.396 201.965 128.943C202.226 128.49 202.356 127.747 202.356 126.716C202.356 125.685 202.215 124.954 201.931 124.523C201.659 124.092 201.161 123.877 200.435 123.877C199.71 123.877 199.206 124.092 198.922 124.523C198.65 124.954 198.514 125.685 198.514 126.716C198.514 127.747 198.645 128.49 198.905 128.943ZM208.294 124.081V131H206.458V124.081H205.472V122.5H206.458V121.956C206.458 120.743 206.633 119.91 206.985 119.457C207.336 119.004 207.959 118.777 208.855 118.777L210.691 118.947L210.674 120.46C210.118 120.437 209.654 120.426 209.28 120.426C208.917 120.426 208.662 120.539 208.515 120.766C208.367 120.981 208.294 121.384 208.294 121.973V122.5H210.538V124.081H208.294ZM215.9 131V119.355H223.244V121.004H217.787V124.302H222.224V125.934H217.787V129.334H223.244V131H215.9ZM224.26 122.5H226.232L227.898 125.441L229.581 122.5H231.553L229.02 126.682L231.553 131H229.581L227.898 128.093L226.232 131H224.26L226.725 126.733L224.26 122.5ZM232.961 134.655V122.5H234.797V123.027C235.579 122.551 236.31 122.313 236.99 122.313C238.112 122.313 238.934 122.659 239.455 123.35C239.977 124.03 240.237 125.18 240.237 126.801C240.237 128.41 239.937 129.544 239.336 130.201C238.747 130.858 237.778 131.187 236.429 131.187C235.965 131.187 235.426 131.136 234.814 131.034V134.655H232.961ZM236.667 123.962C236.135 123.962 235.602 124.081 235.069 124.319L234.814 124.438V129.453C235.268 129.544 235.766 129.589 236.31 129.589C237.081 129.589 237.614 129.368 237.908 128.926C238.203 128.484 238.35 127.73 238.35 126.665C238.35 124.863 237.789 123.962 236.667 123.962ZM248.144 129.47L248.62 129.419L248.654 130.796C247.362 131.057 246.218 131.187 245.22 131.187C243.962 131.187 243.056 130.841 242.5 130.15C241.956 129.459 241.684 128.354 241.684 126.835C241.684 123.82 242.914 122.313 245.373 122.313C247.753 122.313 248.943 123.611 248.943 126.206L248.824 127.532H243.554C243.566 128.235 243.719 128.75 244.013 129.079C244.308 129.408 244.858 129.572 245.662 129.572C246.467 129.572 247.294 129.538 248.144 129.47ZM247.124 126.104C247.124 125.265 246.988 124.682 246.716 124.353C246.456 124.013 246.008 123.843 245.373 123.843C244.739 123.843 244.274 124.019 243.979 124.37C243.696 124.721 243.549 125.299 243.537 126.104H247.124ZM250.725 131V122.5H252.561V123.52C253.524 122.897 254.488 122.494 255.451 122.313V124.166C254.476 124.359 253.643 124.608 252.952 124.914L252.578 125.067V131H250.725ZM261.441 124.081H259.095V127.821C259.095 128.512 259.146 128.971 259.248 129.198C259.35 129.425 259.61 129.538 260.03 129.538L261.424 129.487L261.509 130.966C260.749 131.113 260.171 131.187 259.775 131.187C258.811 131.187 258.148 130.966 257.786 130.524C257.434 130.082 257.259 129.249 257.259 128.025V124.081H256.171V122.5H257.259V120.035H259.095V122.5H261.441V124.081ZM262.96 131V122.5H264.813V131H262.96ZM262.96 121.055V119.1H264.813V121.055H262.96ZM272.96 124.251C271.623 124.07 270.654 123.979 270.053 123.979C269.452 123.979 269.033 124.053 268.795 124.2C268.568 124.336 268.455 124.557 268.455 124.863C268.455 125.169 268.58 125.384 268.829 125.509C269.09 125.634 269.69 125.781 270.631 125.951C271.583 126.11 272.257 126.365 272.654 126.716C273.051 127.067 273.249 127.691 273.249 128.586C273.249 129.481 272.96 130.139 272.382 130.558C271.815 130.977 270.982 131.187 269.883 131.187C269.192 131.187 268.319 131.091 267.265 130.898L266.738 130.813L266.806 129.266C268.166 129.447 269.146 129.538 269.747 129.538C270.348 129.538 270.773 129.464 271.022 129.317C271.283 129.17 271.413 128.926 271.413 128.586C271.413 128.246 271.288 128.014 271.039 127.889C270.801 127.753 270.217 127.611 269.288 127.464C268.37 127.305 267.696 127.062 267.265 126.733C266.834 126.404 266.619 125.804 266.619 124.931C266.619 124.058 266.914 123.407 267.503 122.976C268.104 122.545 268.869 122.33 269.798 122.33C270.523 122.33 271.413 122.421 272.467 122.602L272.994 122.704L272.96 124.251ZM281.082 129.47L281.558 129.419L281.592 130.796C280.3 131.057 279.155 131.187 278.158 131.187C276.9 131.187 275.993 130.841 275.438 130.15C274.894 129.459 274.622 128.354 274.622 126.835C274.622 123.82 275.851 122.313 278.311 122.313C280.691 122.313 281.881 123.611 281.881 126.206L281.762 127.532H276.492C276.503 128.235 276.656 128.75 276.951 129.079C277.245 129.408 277.795 129.572 278.6 129.572C279.404 129.572 280.232 129.538 281.082 129.47ZM280.062 126.104C280.062 125.265 279.926 124.682 279.654 124.353C279.393 124.013 278.945 123.843 278.311 123.843C277.676 123.843 277.211 124.019 276.917 124.37C276.633 124.721 276.486 125.299 276.475 126.104H280.062Z" fill="#3F3939"/>
<path d="M204.612 148.236H205.972L202.895 160H199.971L196.894 148.236H198.254L200.957 158.844H201.909L204.612 148.236ZM213.141 154.067V158.419C213.175 158.838 213.504 159.088 214.127 159.167L214.076 160.17C213.181 160.17 212.506 159.943 212.053 159.49C211.033 159.943 210.013 160.17 208.993 160.17C208.211 160.17 207.616 159.949 207.208 159.507C206.8 159.065 206.596 158.43 206.596 157.603C206.596 156.776 206.806 156.169 207.225 155.784C207.644 155.387 208.302 155.144 209.197 155.053L211.866 154.798V154.067C211.866 153.489 211.741 153.075 211.492 152.826C211.243 152.577 210.903 152.452 210.472 152.452C209.565 152.452 208.625 152.509 207.65 152.622L207.123 152.673L207.072 151.704C208.319 151.455 209.424 151.33 210.387 151.33C211.35 151.33 212.047 151.551 212.478 151.993C212.92 152.435 213.141 153.126 213.141 154.067ZM207.905 157.535C207.905 158.578 208.336 159.099 209.197 159.099C209.968 159.099 210.727 158.969 211.475 158.708L211.866 158.572V155.767L209.35 156.005C208.84 156.05 208.472 156.198 208.245 156.447C208.018 156.696 207.905 157.059 207.905 157.535ZM215.657 160V151.5H216.915V152.656C217.901 151.976 218.938 151.528 220.026 151.313V152.605C219.55 152.696 219.051 152.837 218.53 153.03C218.02 153.223 217.629 153.393 217.357 153.54L216.932 153.761V160H215.657ZM221.534 160V151.5H222.809V160H221.534ZM221.534 149.579V148.1H222.809V149.579H221.534ZM231.032 158.946L231.525 158.895L231.559 159.898C230.267 160.079 229.162 160.17 228.244 160.17C227.02 160.17 226.153 159.819 225.643 159.116C225.133 158.402 224.878 157.297 224.878 155.801C224.878 152.82 226.063 151.33 228.431 151.33C229.576 151.33 230.432 151.653 230.998 152.299C231.565 152.934 231.848 153.937 231.848 155.308L231.78 156.277H226.17C226.17 157.218 226.34 157.915 226.68 158.368C227.02 158.821 227.61 159.048 228.448 159.048C229.298 159.048 230.16 159.014 231.032 158.946ZM230.573 155.257C230.573 154.214 230.403 153.478 230.063 153.047C229.735 152.616 229.191 152.401 228.431 152.401C227.683 152.401 227.117 152.628 226.731 153.081C226.357 153.534 226.165 154.26 226.153 155.257H230.573ZM236.504 152.469C235.269 152.469 234.651 152.9 234.651 153.761C234.651 154.158 234.793 154.441 235.076 154.611C235.36 154.77 236.006 154.94 237.014 155.121C238.023 155.291 238.737 155.535 239.156 155.852C239.576 156.169 239.785 156.764 239.785 157.637C239.785 158.51 239.502 159.15 238.935 159.558C238.38 159.966 237.564 160.17 236.487 160.17C235.785 160.17 234.957 160.091 234.005 159.932L233.495 159.847L233.563 158.742C234.855 158.935 235.83 159.031 236.487 159.031C237.145 159.031 237.643 158.929 237.983 158.725C238.335 158.51 238.51 158.158 238.51 157.671C238.51 157.172 238.363 156.838 238.068 156.668C237.774 156.487 237.128 156.317 236.13 156.158C235.133 155.999 234.425 155.767 234.005 155.461C233.586 155.155 233.376 154.588 233.376 153.761C233.376 152.934 233.665 152.322 234.243 151.925C234.833 151.528 235.564 151.33 236.436 151.33C237.128 151.33 237.995 151.409 239.037 151.568L239.513 151.653L239.479 152.741C238.221 152.56 237.23 152.469 236.504 152.469Z" fill="#F69193"/>
<path d="M33.6194 210.198V205.336H37.8694V210.198H33.6194ZM54.144 212H49.945V200.236H54.144C56.0593 200.236 57.3287 200.995 57.952 202.514C58.3147 203.387 58.496 204.531 58.496 205.948C58.496 208.906 57.7593 210.77 56.286 211.541C55.6967 211.847 54.9827 212 54.144 212ZM57.153 205.948C57.153 203.693 56.6487 202.287 55.64 201.732C55.232 201.505 54.7333 201.392 54.144 201.392H51.254V210.844H54.144C56.15 210.844 57.153 209.212 57.153 205.948ZM66.461 210.946L66.954 210.895L66.988 211.898C65.696 212.079 64.591 212.17 63.673 212.17C62.449 212.17 61.582 211.819 61.072 211.116C60.562 210.402 60.307 209.297 60.307 207.801C60.307 204.82 61.4914 203.33 63.86 203.33C65.0047 203.33 65.8604 203.653 66.427 204.299C66.9937 204.934 67.277 205.937 67.277 207.308L67.209 208.277H61.599C61.599 209.218 61.769 209.915 62.109 210.368C62.449 210.821 63.0384 211.048 63.877 211.048C64.727 211.048 65.5884 211.014 66.461 210.946ZM66.002 207.257C66.002 206.214 65.832 205.478 65.492 205.047C65.1634 204.616 64.6194 204.401 63.86 204.401C63.112 204.401 62.5454 204.628 62.16 205.081C61.786 205.534 61.5934 206.26 61.582 207.257H66.002ZM72.443 203.33C72.817 203.33 73.4517 203.398 74.347 203.534L74.755 203.585L74.704 204.622C73.7974 204.52 73.1287 204.469 72.698 204.469C71.7347 204.469 71.0774 204.701 70.726 205.166C70.386 205.619 70.216 206.469 70.216 207.716C70.216 208.951 70.3747 209.813 70.692 210.3C71.0207 210.787 71.695 211.031 72.715 211.031L74.721 210.878L74.772 211.932C73.718 212.091 72.9304 212.17 72.409 212.17C71.083 212.17 70.165 211.83 69.655 211.15C69.1564 210.47 68.907 209.325 68.907 207.716C68.907 206.095 69.179 204.962 69.723 204.316C70.267 203.659 71.1737 203.33 72.443 203.33ZM76.6683 212V203.5H77.9433V212H76.6683ZM76.6683 201.579V200.1H77.9433V201.579H76.6683ZM86.9151 199.794V212H85.6571V211.422C84.7844 211.921 83.9231 212.17 83.0731 212.17C82.6198 212.17 82.2231 212.113 81.8831 212C81.5431 211.887 81.2258 211.683 80.9311 211.388C80.3191 210.776 80.0131 209.648 80.0131 208.005C80.0131 206.35 80.2851 205.16 80.8291 204.435C81.3844 203.698 82.2968 203.33 83.5661 203.33C84.2234 203.33 84.9204 203.404 85.6571 203.551V199.794H86.9151ZM81.9171 210.47C82.0984 210.685 82.2911 210.833 82.4951 210.912C82.6991 210.991 82.9598 211.031 83.2771 211.031C83.6058 211.031 83.9684 210.98 84.3651 210.878C84.7731 210.765 85.0904 210.657 85.3171 210.555L85.6571 210.402V204.639C84.9318 204.503 84.2574 204.435 83.6341 204.435C82.7728 204.435 82.1721 204.713 81.8321 205.268C81.4921 205.812 81.3221 206.662 81.3221 207.818C81.3221 209.133 81.5204 210.017 81.9171 210.47ZM95.1651 210.946L95.6581 210.895L95.6921 211.898C94.4001 212.079 93.2951 212.17 92.3771 212.17C91.1531 212.17 90.2861 211.819 89.7761 211.116C89.2661 210.402 89.0111 209.297 89.0111 207.801C89.0111 204.82 90.1955 203.33 92.5641 203.33C93.7088 203.33 94.5645 203.653 95.1311 204.299C95.6978 204.934 95.9811 205.937 95.9811 207.308L95.9131 208.277H90.3031C90.3031 209.218 90.4731 209.915 90.8131 210.368C91.1531 210.821 91.7425 211.048 92.5811 211.048C93.4311 211.048 94.2925 211.014 95.1651 210.946ZM94.7061 207.257C94.7061 206.214 94.5361 205.478 94.1961 205.047C93.8675 204.616 93.3235 204.401 92.5641 204.401C91.8161 204.401 91.2495 204.628 90.8641 205.081C90.4901 205.534 90.2975 206.26 90.2861 207.257H94.7061ZM100.637 204.469C99.4018 204.469 98.7841 204.9 98.7841 205.761C98.7841 206.158 98.9258 206.441 99.2091 206.611C99.4925 206.77 100.138 206.94 101.147 207.121C102.156 207.291 102.87 207.535 103.289 207.852C103.708 208.169 103.918 208.764 103.918 209.637C103.918 210.51 103.635 211.15 103.068 211.558C102.513 211.966 101.697 212.17 100.62 212.17C99.9175 212.17 99.0901 212.091 98.1381 211.932L97.6281 211.847L97.6961 210.742C98.9881 210.935 99.9628 211.031 100.62 211.031C101.277 211.031 101.776 210.929 102.116 210.725C102.467 210.51 102.643 210.158 102.643 209.671C102.643 209.172 102.496 208.838 102.201 208.668C101.906 208.487 101.26 208.317 100.263 208.158C99.2658 207.999 98.5575 207.767 98.1381 207.461C97.7188 207.155 97.5091 206.588 97.5091 205.761C97.5091 204.934 97.7981 204.322 98.3761 203.925C98.9655 203.528 99.6965 203.33 100.569 203.33C101.26 203.33 102.127 203.409 103.17 203.568L103.646 203.653L103.612 204.741C102.354 204.56 101.362 204.469 100.637 204.469ZM112.785 203.33C113.159 203.33 113.794 203.398 114.689 203.534L115.097 203.585L115.046 204.622C114.139 204.52 113.471 204.469 113.04 204.469C112.077 204.469 111.419 204.701 111.068 205.166C110.728 205.619 110.558 206.469 110.558 207.716C110.558 208.951 110.717 209.813 111.034 210.3C111.363 210.787 112.037 211.031 113.057 211.031L115.063 210.878L115.114 211.932C114.06 212.091 113.272 212.17 112.751 212.17C111.425 212.17 110.507 211.83 109.997 211.15C109.498 210.47 109.249 209.325 109.249 207.716C109.249 206.095 109.521 204.962 110.065 204.316C110.609 203.659 111.516 203.33 112.785 203.33ZM116.537 207.733C116.537 206.18 116.814 205.058 117.37 204.367C117.925 203.676 118.86 203.33 120.175 203.33C121.501 203.33 122.436 203.676 122.98 204.367C123.535 205.058 123.813 206.18 123.813 207.733C123.813 209.286 123.552 210.413 123.031 211.116C122.509 211.819 121.557 212.17 120.175 212.17C118.792 212.17 117.84 211.819 117.319 211.116C116.797 210.413 116.537 209.286 116.537 207.733ZM117.846 207.716C117.846 208.951 117.993 209.818 118.288 210.317C118.594 210.816 119.223 211.065 120.175 211.065C121.138 211.065 121.767 210.821 122.062 210.334C122.356 209.835 122.504 208.963 122.504 207.716C122.504 206.469 122.339 205.614 122.011 205.149C121.682 204.673 121.07 204.435 120.175 204.435C119.291 204.435 118.679 204.673 118.339 205.149C118.01 205.614 117.846 206.469 117.846 207.716ZM131.196 203.5H132.471V212H131.196V211.405C130.346 211.915 129.507 212.17 128.68 212.17C127.524 212.17 126.753 211.87 126.368 211.269C125.994 210.668 125.807 209.558 125.807 207.937V203.5H127.082V207.92C127.082 209.155 127.19 209.983 127.405 210.402C127.62 210.821 128.108 211.031 128.867 211.031C129.241 211.031 129.621 210.98 130.006 210.878C130.391 210.765 130.686 210.657 130.89 210.555L131.196 210.402V203.5ZM134.923 212V203.5H136.181V204.656C137.167 203.976 138.204 203.528 139.292 203.313V204.605C138.816 204.696 138.318 204.837 137.796 205.03C137.286 205.223 136.895 205.393 136.623 205.54L136.198 205.761V212H134.923ZM143.469 204.469C142.234 204.469 141.616 204.9 141.616 205.761C141.616 206.158 141.758 206.441 142.041 206.611C142.325 206.77 142.971 206.94 143.979 207.121C144.988 207.291 145.702 207.535 146.121 207.852C146.541 208.169 146.75 208.764 146.75 209.637C146.75 210.51 146.467 211.15 145.9 211.558C145.345 211.966 144.529 212.17 143.452 212.17C142.75 212.17 141.922 212.091 140.97 211.932L140.46 211.847L140.528 210.742C141.82 210.935 142.795 211.031 143.452 211.031C144.11 211.031 144.608 210.929 144.948 210.725C145.3 210.51 145.475 210.158 145.475 209.671C145.475 209.172 145.328 208.838 145.033 208.668C144.739 208.487 144.093 208.317 143.095 208.158C142.098 207.999 141.39 207.767 140.97 207.461C140.551 207.155 140.341 206.588 140.341 205.761C140.341 204.934 140.63 204.322 141.208 203.925C141.798 203.528 142.529 203.33 143.401 203.33C144.093 203.33 144.96 203.409 146.002 203.568L146.478 203.653L146.444 204.741C145.186 204.56 144.195 204.469 143.469 204.469ZM154.483 210.946L154.976 210.895L155.01 211.898C153.718 212.079 152.613 212.17 151.695 212.17C150.471 212.17 149.604 211.819 149.094 211.116C148.584 210.402 148.329 209.297 148.329 207.801C148.329 204.82 149.513 203.33 151.882 203.33C153.026 203.33 153.882 203.653 154.449 204.299C155.015 204.934 155.299 205.937 155.299 207.308L155.231 208.277H149.621C149.621 209.218 149.791 209.915 150.131 210.368C150.471 210.821 151.06 211.048 151.899 211.048C152.749 211.048 153.61 211.014 154.483 210.946ZM154.024 207.257C154.024 206.214 153.854 205.478 153.514 205.047C153.185 204.616 152.641 204.401 151.882 204.401C151.134 204.401 150.567 204.628 150.182 205.081C149.808 205.534 149.615 206.26 149.604 207.257H154.024ZM160.647 207.733C160.647 206.18 160.925 205.058 161.48 204.367C162.035 203.676 162.97 203.33 164.285 203.33C165.611 203.33 166.546 203.676 167.09 204.367C167.645 205.058 167.923 206.18 167.923 207.733C167.923 209.286 167.662 210.413 167.141 211.116C166.62 211.819 165.668 212.17 164.285 212.17C162.902 212.17 161.95 211.819 161.429 211.116C160.908 210.413 160.647 209.286 160.647 207.733ZM161.956 207.716C161.956 208.951 162.103 209.818 162.398 210.317C162.704 210.816 163.333 211.065 164.285 211.065C165.248 211.065 165.877 210.821 166.172 210.334C166.467 209.835 166.614 208.963 166.614 207.716C166.614 206.469 166.45 205.614 166.121 205.149C165.792 204.673 165.18 204.435 164.285 204.435C163.401 204.435 162.789 204.673 162.449 205.149C162.12 205.614 161.956 206.469 161.956 207.716ZM171.634 204.605V212H170.359V204.605H169.288V203.5H170.359V202.735C170.359 201.534 170.529 200.718 170.869 200.287C171.209 199.845 171.804 199.624 172.654 199.624L174.371 199.743L174.354 200.797C173.72 200.774 173.193 200.763 172.773 200.763C172.365 200.763 172.071 200.899 171.889 201.171C171.719 201.443 171.634 201.97 171.634 202.752V203.5H174.099V204.605H171.634ZM185.367 206.067V210.419C185.401 210.838 185.729 211.088 186.353 211.167L186.302 212.17C185.406 212.17 184.732 211.943 184.279 211.49C183.259 211.943 182.239 212.17 181.219 212.17C180.437 212.17 179.842 211.949 179.434 211.507C179.026 211.065 178.822 210.43 178.822 209.603C178.822 208.776 179.031 208.169 179.451 207.784C179.87 207.387 180.527 207.144 181.423 207.053L184.092 206.798V206.067C184.092 205.489 183.967 205.075 183.718 204.826C183.468 204.577 183.128 204.452 182.698 204.452C181.791 204.452 180.85 204.509 179.876 204.622L179.349 204.673L179.298 203.704C180.544 203.455 181.649 203.33 182.613 203.33C183.576 203.33 184.273 203.551 184.704 203.993C185.146 204.435 185.367 205.126 185.367 206.067ZM180.131 209.535C180.131 210.578 180.561 211.099 181.423 211.099C182.193 211.099 182.953 210.969 183.701 210.708L184.092 210.572V207.767L181.576 208.005C181.066 208.05 180.697 208.198 180.471 208.447C180.244 208.696 180.131 209.059 180.131 209.535ZM191.061 203.33C191.435 203.33 192.07 203.398 192.965 203.534L193.373 203.585L193.322 204.622C192.416 204.52 191.747 204.469 191.316 204.469C190.353 204.469 189.696 204.701 189.344 205.166C189.004 205.619 188.834 206.469 188.834 207.716C188.834 208.951 188.993 209.813 189.31 210.3C189.639 210.787 190.313 211.031 191.333 211.031L193.339 210.878L193.39 211.932C192.336 212.091 191.549 212.17 191.027 212.17C189.701 212.17 188.783 211.83 188.273 211.15C187.775 210.47 187.525 209.325 187.525 207.716C187.525 206.095 187.797 204.962 188.341 204.316C188.885 203.659 189.792 203.33 191.061 203.33ZM199.69 204.605H196.987V208.668C196.987 209.643 197.055 210.283 197.191 210.589C197.338 210.895 197.678 211.048 198.211 211.048L199.724 210.946L199.809 212C199.049 212.125 198.471 212.187 198.075 212.187C197.191 212.187 196.579 211.972 196.239 211.541C195.899 211.11 195.729 210.289 195.729 209.076V204.605H194.522V203.5H195.729V200.899H196.987V203.5H199.69V204.605ZM201.246 212V203.5H202.521V212H201.246ZM201.246 201.579V200.1H202.521V201.579H201.246ZM204.591 207.733C204.591 206.18 204.869 205.058 205.424 204.367C205.98 203.676 206.915 203.33 208.229 203.33C209.555 203.33 210.49 203.676 211.034 204.367C211.59 205.058 211.867 206.18 211.867 207.733C211.867 209.286 211.607 210.413 211.085 211.116C210.564 211.819 209.612 212.17 208.229 212.17C206.847 212.17 205.895 211.819 205.373 211.116C204.852 210.413 204.591 209.286 204.591 207.733ZM205.9 207.716C205.9 208.951 206.048 209.818 206.342 210.317C206.648 210.816 207.277 211.065 208.229 211.065C209.193 211.065 209.822 210.821 210.116 210.334C210.411 209.835 210.558 208.963 210.558 207.716C210.558 206.469 210.394 205.614 210.065 205.149C209.737 204.673 209.125 204.435 208.229 204.435C207.345 204.435 206.733 204.673 206.393 205.149C206.065 205.614 205.9 206.469 205.9 207.716ZM215.222 212H213.947V203.5H215.205V204.095C216.123 203.585 217.001 203.33 217.84 203.33C218.973 203.33 219.732 203.636 220.118 204.248C220.514 204.86 220.713 205.948 220.713 207.512V212H219.455V207.546C219.455 206.367 219.336 205.563 219.098 205.132C218.871 204.69 218.378 204.469 217.619 204.469C217.256 204.469 216.871 204.526 216.463 204.639C216.066 204.741 215.76 204.843 215.545 204.945L215.222 205.098V212ZM230.57 203.33C231.715 203.33 232.514 203.659 232.967 204.316C233.432 204.962 233.664 206.101 233.664 207.733C233.664 209.365 233.375 210.515 232.797 211.184C232.23 211.841 231.182 212.17 229.652 212.17C229.176 212.17 228.388 212.125 227.289 212.034L226.813 211.983V199.794H228.071V203.925C228.932 203.528 229.765 203.33 230.57 203.33ZM229.635 211.031C230.746 211.031 231.477 210.782 231.828 210.283C232.191 209.773 232.372 208.917 232.372 207.716C232.372 206.515 232.23 205.676 231.947 205.2C231.664 204.713 231.159 204.469 230.434 204.469C229.777 204.469 229.102 204.594 228.411 204.843L228.071 204.962V210.946C228.808 211.003 229.329 211.031 229.635 211.031ZM241.762 206.067V210.419C241.796 210.838 242.125 211.088 242.748 211.167L242.697 212.17C241.802 212.17 241.127 211.943 240.674 211.49C239.654 211.943 238.634 212.17 237.614 212.17C236.832 212.17 236.237 211.949 235.829 211.507C235.421 211.065 235.217 210.43 235.217 209.603C235.217 208.776 235.427 208.169 235.846 207.784C236.265 207.387 236.923 207.144 237.818 207.053L240.487 206.798V206.067C240.487 205.489 240.362 205.075 240.113 204.826C239.864 204.577 239.524 204.452 239.093 204.452C238.186 204.452 237.246 204.509 236.271 204.622L235.744 204.673L235.693 203.704C236.94 203.455 238.045 203.33 239.008 203.33C239.971 203.33 240.668 203.551 241.099 203.993C241.541 204.435 241.762 205.126 241.762 206.067ZM236.526 209.535C236.526 210.578 236.957 211.099 237.818 211.099C238.589 211.099 239.348 210.969 240.096 210.708L240.487 210.572V207.767L237.971 208.005C237.461 208.05 237.093 208.198 236.866 208.447C236.639 208.696 236.526 209.059 236.526 209.535ZM246.947 204.469C245.711 204.469 245.094 204.9 245.094 205.761C245.094 206.158 245.235 206.441 245.519 206.611C245.802 206.77 246.448 206.94 247.457 207.121C248.465 207.291 249.179 207.535 249.599 207.852C250.018 208.169 250.228 208.764 250.228 209.637C250.228 210.51 249.944 211.15 249.378 211.558C248.822 211.966 248.006 212.17 246.93 212.17C246.227 212.17 245.4 212.091 244.448 211.932L243.938 211.847L244.006 210.742C245.298 210.935 246.272 211.031 246.93 211.031C247.587 211.031 248.086 210.929 248.426 210.725C248.777 210.51 248.953 210.158 248.953 209.671C248.953 209.172 248.805 208.838 248.511 208.668C248.216 208.487 247.57 208.317 246.573 208.158C245.575 207.999 244.867 207.767 244.448 207.461C244.028 207.155 243.819 206.588 243.819 205.761C243.819 204.934 244.108 204.322 244.686 203.925C245.275 203.528 246.006 203.33 246.879 203.33C247.57 203.33 248.437 203.409 249.48 203.568L249.956 203.653L249.922 204.741C248.664 204.56 247.672 204.469 246.947 204.469ZM257.96 210.946L258.453 210.895L258.487 211.898C257.195 212.079 256.09 212.17 255.172 212.17C253.948 212.17 253.081 211.819 252.571 211.116C252.061 210.402 251.806 209.297 251.806 207.801C251.806 204.82 252.99 203.33 255.359 203.33C256.504 203.33 257.359 203.653 257.926 204.299C258.493 204.934 258.776 205.937 258.776 207.308L258.708 208.277H253.098C253.098 209.218 253.268 209.915 253.608 210.368C253.948 210.821 254.537 211.048 255.376 211.048C256.226 211.048 257.087 211.014 257.96 210.946ZM257.501 207.257C257.501 206.214 257.331 205.478 256.991 205.047C256.662 204.616 256.118 204.401 255.359 204.401C254.611 204.401 254.044 204.628 253.659 205.081C253.285 205.534 253.092 206.26 253.081 207.257H257.501ZM267.291 199.794V212H266.033V211.422C265.16 211.921 264.299 212.17 263.449 212.17C262.996 212.17 262.599 212.113 262.259 212C261.919 211.887 261.602 211.683 261.307 211.388C260.695 210.776 260.389 209.648 260.389 208.005C260.389 206.35 260.661 205.16 261.205 204.435C261.76 203.698 262.673 203.33 263.942 203.33C264.599 203.33 265.296 203.404 266.033 203.551V199.794H267.291ZM262.293 210.47C262.474 210.685 262.667 210.833 262.871 210.912C263.075 210.991 263.336 211.031 263.653 211.031C263.982 211.031 264.344 210.98 264.741 210.878C265.149 210.765 265.466 210.657 265.693 210.555L266.033 210.402V204.639C265.308 204.503 264.633 204.435 264.01 204.435C263.149 204.435 262.548 204.713 262.208 205.268C261.868 205.812 261.698 206.662 261.698 207.818C261.698 209.133 261.896 210.017 262.293 210.47ZM273.122 207.733C273.122 206.18 273.4 205.058 273.955 204.367C274.511 203.676 275.446 203.33 276.76 203.33C278.086 203.33 279.021 203.676 279.565 204.367C280.121 205.058 280.398 206.18 280.398 207.733C280.398 209.286 280.138 210.413 279.616 211.116C279.095 211.819 278.143 212.17 276.76 212.17C275.378 212.17 274.426 211.819 273.904 211.116C273.383 210.413 273.122 209.286 273.122 207.733ZM274.431 207.716C274.431 208.951 274.579 209.818 274.873 210.317C275.179 210.816 275.808 211.065 276.76 211.065C277.724 211.065 278.353 210.821 278.647 210.334C278.942 209.835 279.089 208.963 279.089 207.716C279.089 206.469 278.925 205.614 278.596 205.149C278.268 204.673 277.656 204.435 276.76 204.435C275.876 204.435 275.264 204.673 274.924 205.149C274.596 205.614 274.431 206.469 274.431 207.716ZM283.753 212H282.478V203.5H283.736V204.095C284.654 203.585 285.532 203.33 286.371 203.33C287.504 203.33 288.264 203.636 288.649 204.248C289.046 204.86 289.244 205.948 289.244 207.512V212H287.986V207.546C287.986 206.367 287.867 205.563 287.629 205.132C287.402 204.69 286.909 204.469 286.15 204.469C285.787 204.469 285.402 204.526 284.994 204.639C284.597 204.741 284.291 204.843 284.076 204.945L283.753 205.098V212ZM49.724 238V229.5H50.982V230.656C51.968 229.976 53.005 229.528 54.093 229.313V230.605C53.617 230.696 53.1183 230.837 52.597 231.03C52.087 231.223 51.696 231.393 51.424 231.54L50.999 231.761V238H49.724ZM61.2149 236.946L61.7079 236.895L61.7419 237.898C60.4499 238.079 59.3449 238.17 58.4269 238.17C57.2029 238.17 56.3359 237.819 55.8259 237.116C55.3159 236.402 55.0609 235.297 55.0609 233.801C55.0609 230.82 56.2453 229.33 58.6139 229.33C59.7586 229.33 60.6143 229.653 61.1809 230.299C61.7476 230.934 62.0309 231.937 62.0309 233.308L61.9629 234.277H56.3529C56.3529 235.218 56.5229 235.915 56.8629 236.368C57.2029 236.821 57.7923 237.048 58.6309 237.048C59.4809 237.048 60.3423 237.014 61.2149 236.946ZM60.7559 233.257C60.7559 232.214 60.5859 231.478 60.2459 231.047C59.9173 230.616 59.3733 230.401 58.6139 230.401C57.8659 230.401 57.2993 230.628 56.9139 231.081C56.5399 231.534 56.3473 232.26 56.3359 233.257H60.7559ZM66.6869 230.469C65.4516 230.469 64.8339 230.9 64.8339 231.761C64.8339 232.158 64.9756 232.441 65.2589 232.611C65.5423 232.77 66.1883 232.94 67.1969 233.121C68.2056 233.291 68.9196 233.535 69.3389 233.852C69.7583 234.169 69.9679 234.764 69.9679 235.637C69.9679 236.51 69.6846 237.15 69.1179 237.558C68.5626 237.966 67.7466 238.17 66.6699 238.17C65.9673 238.17 65.1399 238.091 64.1879 237.932L63.6779 237.847L63.7459 236.742C65.0379 236.935 66.0126 237.031 66.6699 237.031C67.3273 237.031 67.8259 236.929 68.1659 236.725C68.5173 236.51 68.6929 236.158 68.6929 235.671C68.6929 235.172 68.5456 234.838 68.2509 234.668C67.9563 234.487 67.3103 234.317 66.3129 234.158C65.3156 233.999 64.6073 233.767 64.1879 233.461C63.7686 233.155 63.5589 232.588 63.5589 231.761C63.5589 230.934 63.8479 230.322 64.4259 229.925C65.0153 229.528 65.7463 229.33 66.6189 229.33C67.3103 229.33 68.1773 229.409 69.2199 229.568L69.6959 229.653L69.6619 230.741C68.4039 230.56 67.4123 230.469 66.6869 230.469ZM77.7003 236.946L78.1933 236.895L78.2273 237.898C76.9353 238.079 75.8303 238.17 74.9123 238.17C73.6883 238.17 72.8213 237.819 72.3113 237.116C71.8013 236.402 71.5463 235.297 71.5463 233.801C71.5463 230.82 72.7306 229.33 75.0993 229.33C76.244 229.33 77.0996 229.653 77.6663 230.299C78.233 230.934 78.5163 231.937 78.5163 233.308L78.4483 234.277H72.8383C72.8383 235.218 73.0083 235.915 73.3483 236.368C73.6883 236.821 74.2776 237.048 75.1163 237.048C75.9663 237.048 76.8276 237.014 77.7003 236.946ZM77.2413 233.257C77.2413 232.214 77.0713 231.478 76.7313 231.047C76.4026 230.616 75.8586 230.401 75.0993 230.401C74.3513 230.401 73.7846 230.628 73.3993 231.081C73.0253 231.534 72.8326 232.26 72.8213 233.257H77.2413ZM86.5043 232.067V236.419C86.5383 236.838 86.867 237.088 87.4903 237.167L87.4393 238.17C86.544 238.17 85.8696 237.943 85.4163 237.49C84.3963 237.943 83.3763 238.17 82.3563 238.17C81.5743 238.17 80.9793 237.949 80.5713 237.507C80.1633 237.065 79.9593 236.43 79.9593 235.603C79.9593 234.776 80.169 234.169 80.5883 233.784C81.0076 233.387 81.665 233.144 82.5603 233.053L85.2293 232.798V232.067C85.2293 231.489 85.1046 231.075 84.8553 230.826C84.606 230.577 84.266 230.452 83.8353 230.452C82.9286 230.452 81.988 230.509 81.0133 230.622L80.4863 230.673L80.4353 229.704C81.682 229.455 82.787 229.33 83.7503 229.33C84.7136 229.33 85.4106 229.551 85.8413 229.993C86.2833 230.435 86.5043 231.126 86.5043 232.067ZM81.2683 235.535C81.2683 236.578 81.699 237.099 82.5603 237.099C83.331 237.099 84.0903 236.969 84.8383 236.708L85.2293 236.572V233.767L82.7133 234.005C82.2033 234.05 81.835 234.198 81.6083 234.447C81.3816 234.696 81.2683 235.059 81.2683 235.535ZM89.0199 238V229.5H90.2779V230.656C91.2639 229.976 92.3009 229.528 93.3889 229.313V230.605C92.9129 230.696 92.4142 230.837 91.8929 231.03C91.3829 231.223 90.9919 231.393 90.7199 231.54L90.2949 231.761V238H89.0199ZM97.9098 229.33C98.2838 229.33 98.9185 229.398 99.8138 229.534L100.222 229.585L100.171 230.622C99.2642 230.52 98.5955 230.469 98.1648 230.469C97.2015 230.469 96.5442 230.701 96.1928 231.166C95.8528 231.619 95.6828 232.469 95.6828 233.716C95.6828 234.951 95.8415 235.813 96.1588 236.3C96.4875 236.787 97.1618 237.031 98.1818 237.031L100.188 236.878L100.239 237.932C99.1848 238.091 98.3972 238.17 97.8758 238.17C96.5498 238.17 95.6318 237.83 95.1218 237.15C94.6232 236.47 94.3738 235.325 94.3738 233.716C94.3738 232.095 94.6458 230.962 95.1898 230.316C95.7338 229.659 96.6405 229.33 97.9098 229.33ZM103.41 238H102.135V225.794H103.41V229.976C104.317 229.545 105.189 229.33 106.028 229.33C107.161 229.33 107.921 229.636 108.306 230.248C108.703 230.86 108.901 231.948 108.901 233.512V238H107.626V233.546C107.626 232.367 107.507 231.563 107.269 231.132C107.042 230.69 106.555 230.469 105.807 230.469C105.093 230.469 104.402 230.599 103.733 230.86L103.41 230.979V238ZM121.529 225.794V238H120.271V237.422C119.399 237.921 118.537 238.17 117.687 238.17C117.234 238.17 116.837 238.113 116.497 238C116.157 237.887 115.84 237.683 115.545 237.388C114.933 236.776 114.627 235.648 114.627 234.005C114.627 232.35 114.899 231.16 115.443 230.435C115.999 229.698 116.911 229.33 118.18 229.33C118.838 229.33 119.535 229.404 120.271 229.551V225.794H121.529ZM116.531 236.47C116.713 236.685 116.905 236.833 117.109 236.912C117.313 236.991 117.574 237.031 117.891 237.031C118.22 237.031 118.583 236.98 118.979 236.878C119.387 236.765 119.705 236.657 119.931 236.555L120.271 236.402V230.639C119.546 230.503 118.872 230.435 118.248 230.435C117.387 230.435 116.786 230.713 116.446 231.268C116.106 231.812 115.936 232.662 115.936 233.818C115.936 235.133 116.135 236.017 116.531 236.47ZM123.625 233.733C123.625 232.18 123.903 231.058 124.458 230.367C125.014 229.676 125.949 229.33 127.263 229.33C128.589 229.33 129.524 229.676 130.068 230.367C130.624 231.058 130.901 232.18 130.901 233.733C130.901 235.286 130.641 236.413 130.119 237.116C129.598 237.819 128.646 238.17 127.263 238.17C125.881 238.17 124.929 237.819 124.407 237.116C123.886 236.413 123.625 235.286 123.625 233.733ZM124.934 233.716C124.934 234.951 125.082 235.818 125.376 236.317C125.682 236.816 126.311 237.065 127.263 237.065C128.227 237.065 128.856 236.821 129.15 236.334C129.445 235.835 129.592 234.963 129.592 233.716C129.592 232.469 129.428 231.614 129.099 231.149C128.771 230.673 128.159 230.435 127.263 230.435C126.379 230.435 125.767 230.673 125.427 231.149C125.099 231.614 124.934 232.469 124.934 233.716ZM134.256 238H132.981V229.5H134.239V230.095C135.157 229.585 136.035 229.33 136.874 229.33C138.007 229.33 138.767 229.636 139.152 230.248C139.549 230.86 139.747 231.948 139.747 233.512V238H138.489V233.546C138.489 232.367 138.37 231.563 138.132 231.132C137.905 230.69 137.412 230.469 136.653 230.469C136.29 230.469 135.905 230.526 135.497 230.639C135.1 230.741 134.794 230.843 134.579 230.945L134.256 231.098V238ZM147.892 236.946L148.385 236.895L148.419 237.898C147.127 238.079 146.022 238.17 145.104 238.17C143.88 238.17 143.013 237.819 142.503 237.116C141.993 236.402 141.738 235.297 141.738 233.801C141.738 230.82 142.922 229.33 145.291 229.33C146.435 229.33 147.291 229.653 147.858 230.299C148.424 230.934 148.708 231.937 148.708 233.308L148.64 234.277H143.03C143.03 235.218 143.2 235.915 143.54 236.368C143.88 236.821 144.469 237.048 145.308 237.048C146.158 237.048 147.019 237.014 147.892 236.946ZM147.433 233.257C147.433 232.214 147.263 231.478 146.923 231.047C146.594 230.616 146.05 230.401 145.291 230.401C144.543 230.401 143.976 230.628 143.591 231.081C143.217 231.534 143.024 232.26 143.013 233.257H147.433ZM158.187 229.33C159.332 229.33 160.131 229.659 160.584 230.316C161.049 230.962 161.281 232.101 161.281 233.733C161.281 235.365 160.992 236.515 160.414 237.184C159.847 237.841 158.799 238.17 157.269 238.17C156.793 238.17 156.005 238.125 154.906 238.034L154.43 237.983V225.794H155.688V229.925C156.549 229.528 157.382 229.33 158.187 229.33ZM157.252 237.031C158.363 237.031 159.094 236.782 159.445 236.283C159.808 235.773 159.989 234.917 159.989 233.716C159.989 232.515 159.847 231.676 159.564 231.2C159.281 230.713 158.776 230.469 158.051 230.469C157.394 230.469 156.719 230.594 156.028 230.843L155.688 230.962V236.946C156.425 237.003 156.946 237.031 157.252 237.031ZM162.43 229.5H163.705L165.83 236.895H166.391L168.533 229.5H169.808L166.272 241.774H164.997L166.102 238H164.844L162.43 229.5ZM180.962 236.946L181.455 236.895L181.489 237.898C180.197 238.079 179.092 238.17 178.174 238.17C176.95 238.17 176.083 237.819 175.573 237.116C175.063 236.402 174.808 235.297 174.808 233.801C174.808 230.82 175.992 229.33 178.361 229.33C179.506 229.33 180.361 229.653 180.928 230.299C181.495 230.934 181.778 231.937 181.778 233.308L181.71 234.277H176.1C176.1 235.218 176.27 235.915 176.61 236.368C176.95 236.821 177.539 237.048 178.378 237.048C179.228 237.048 180.089 237.014 180.962 236.946ZM180.503 233.257C180.503 232.214 180.333 231.478 179.993 231.047C179.664 230.616 179.12 230.401 178.361 230.401C177.613 230.401 177.046 230.628 176.661 231.081C176.287 231.534 176.094 232.26 176.083 233.257H180.503ZM189.766 232.067V236.419C189.8 236.838 190.129 237.088 190.752 237.167L190.701 238.17C189.806 238.17 189.131 237.943 188.678 237.49C187.658 237.943 186.638 238.17 185.618 238.17C184.836 238.17 184.241 237.949 183.833 237.507C183.425 237.065 183.221 236.43 183.221 235.603C183.221 234.776 183.431 234.169 183.85 233.784C184.269 233.387 184.927 233.144 185.822 233.053L188.491 232.798V232.067C188.491 231.489 188.366 231.075 188.117 230.826C187.868 230.577 187.528 230.452 187.097 230.452C186.19 230.452 185.25 230.509 184.275 230.622L183.748 230.673L183.697 229.704C184.944 229.455 186.049 229.33 187.012 229.33C187.975 229.33 188.672 229.551 189.103 229.993C189.545 230.435 189.766 231.126 189.766 232.067ZM184.53 235.535C184.53 236.578 184.961 237.099 185.822 237.099C186.593 237.099 187.352 236.969 188.1 236.708L188.491 236.572V233.767L185.975 234.005C185.465 234.05 185.097 234.198 184.87 234.447C184.643 234.696 184.53 235.059 184.53 235.535ZM192.282 238V229.5H193.54V230.656C194.526 229.976 195.563 229.528 196.651 229.313V230.605C196.175 230.696 195.676 230.837 195.155 231.03C194.645 231.223 194.254 231.393 193.982 231.54L193.557 231.761V238H192.282ZM198.261 238V225.794H199.536V238H198.261ZM202.093 238V229.5H203.368V238H202.093ZM202.093 227.579V226.1H203.368V227.579H202.093ZM211.592 236.946L212.085 236.895L212.119 237.898C210.827 238.079 209.722 238.17 208.804 238.17C207.58 238.17 206.713 237.819 206.203 237.116C205.693 236.402 205.438 235.297 205.438 233.801C205.438 230.82 206.622 229.33 208.991 229.33C210.136 229.33 210.991 229.653 211.558 230.299C212.125 230.934 212.408 231.937 212.408 233.308L212.34 234.277H206.73C206.73 235.218 206.9 235.915 207.24 236.368C207.58 236.821 208.169 237.048 209.008 237.048C209.858 237.048 210.719 237.014 211.592 236.946ZM211.133 233.257C211.133 232.214 210.963 231.478 210.623 231.047C210.294 230.616 209.75 230.401 208.991 230.401C208.243 230.401 207.676 230.628 207.291 231.081C206.917 231.534 206.724 232.26 206.713 233.257H211.133ZM214.395 238V229.5H215.653V230.656C216.639 229.976 217.676 229.528 218.764 229.313V230.605C218.288 230.696 217.789 230.837 217.268 231.03C216.758 231.223 216.367 231.393 216.095 231.54L215.67 231.761V238H214.395ZM225.639 230.605V238H224.364V230.605H223.293V229.5H224.364V228.735C224.364 227.534 224.534 226.718 224.874 226.287C225.214 225.845 225.809 225.624 226.659 225.624L228.376 225.743L228.359 226.797C227.725 226.774 227.198 226.763 226.778 226.763C226.37 226.763 226.076 226.899 225.894 227.171C225.724 227.443 225.639 227.97 225.639 228.752V229.5H228.104V230.605H225.639ZM235.636 232.067V236.419C235.67 236.838 235.999 237.088 236.622 237.167L236.571 238.17C235.676 238.17 235.001 237.943 234.548 237.49C233.528 237.943 232.508 238.17 231.488 238.17C230.706 238.17 230.111 237.949 229.703 237.507C229.295 237.065 229.091 236.43 229.091 235.603C229.091 234.776 229.301 234.169 229.72 233.784C230.139 233.387 230.797 233.144 231.692 233.053L234.361 232.798V232.067C234.361 231.489 234.236 231.075 233.987 230.826C233.738 230.577 233.398 230.452 232.967 230.452C232.06 230.452 231.12 230.509 230.145 230.622L229.618 230.673L229.567 229.704C230.814 229.455 231.919 229.33 232.882 229.33C233.845 229.33 234.542 229.551 234.973 229.993C235.415 230.435 235.636 231.126 235.636 232.067ZM230.4 235.535C230.4 236.578 230.831 237.099 231.692 237.099C232.463 237.099 233.222 236.969 233.97 236.708L234.361 236.572V233.767L231.845 234.005C231.335 234.05 230.967 234.198 230.74 234.447C230.513 234.696 230.4 235.059 230.4 235.535ZM241.331 229.33C241.705 229.33 242.339 229.398 243.235 229.534L243.643 229.585L243.592 230.622C242.685 230.52 242.016 230.469 241.586 230.469C240.622 230.469 239.965 230.701 239.614 231.166C239.274 231.619 239.104 232.469 239.104 233.716C239.104 234.951 239.262 235.813 239.58 236.3C239.908 236.787 240.583 237.031 241.603 237.031L243.609 236.878L243.66 237.932C242.606 238.091 241.818 238.17 241.297 238.17C239.971 238.17 239.053 237.83 238.543 237.15C238.044 236.47 237.795 235.325 237.795 233.716C237.795 232.095 238.067 230.962 238.611 230.316C239.155 229.659 240.061 229.33 241.331 229.33ZM249.959 230.605H247.256V234.668C247.256 235.643 247.324 236.283 247.46 236.589C247.607 236.895 247.947 237.048 248.48 237.048L249.993 236.946L250.078 238C249.319 238.125 248.741 238.187 248.344 238.187C247.46 238.187 246.848 237.972 246.508 237.541C246.168 237.11 245.998 236.289 245.998 235.076V230.605H244.791V229.5H245.998V226.899H247.256V229.5H249.959V230.605ZM251.142 233.733C251.142 232.18 251.42 231.058 251.975 230.367C252.53 229.676 253.465 229.33 254.78 229.33C256.106 229.33 257.041 229.676 257.585 230.367C258.14 231.058 258.418 232.18 258.418 233.733C258.418 235.286 258.157 236.413 257.636 237.116C257.115 237.819 256.163 238.17 254.78 238.17C253.397 238.17 252.445 237.819 251.924 237.116C251.403 236.413 251.142 235.286 251.142 233.733ZM252.451 233.716C252.451 234.951 252.598 235.818 252.893 236.317C253.199 236.816 253.828 237.065 254.78 237.065C255.743 237.065 256.372 236.821 256.667 236.334C256.962 235.835 257.109 234.963 257.109 233.716C257.109 232.469 256.945 231.614 256.616 231.149C256.287 230.673 255.675 230.435 254.78 230.435C253.896 230.435 253.284 230.673 252.944 231.149C252.615 231.614 252.451 232.469 252.451 233.716ZM260.497 238V229.5H261.755V230.656C262.741 229.976 263.778 229.528 264.866 229.313V230.605C264.39 230.696 263.892 230.837 263.37 231.03C262.86 231.223 262.469 231.393 262.197 231.54L261.772 231.761V238H260.497ZM269.043 230.469C267.808 230.469 267.19 230.9 267.19 231.761C267.19 232.158 267.332 232.441 267.615 232.611C267.899 232.77 268.545 232.94 269.553 233.121C270.562 233.291 271.276 233.535 271.695 233.852C272.115 234.169 272.324 234.764 272.324 235.637C272.324 236.51 272.041 237.15 271.474 237.558C270.919 237.966 270.103 238.17 269.026 238.17C268.324 238.17 267.496 238.091 266.544 237.932L266.034 237.847L266.102 236.742C267.394 236.935 268.369 237.031 269.026 237.031C269.684 237.031 270.182 236.929 270.522 236.725C270.874 236.51 271.049 236.158 271.049 235.671C271.049 235.172 270.902 234.838 270.607 234.668C270.313 234.487 269.667 234.317 268.669 234.158C267.672 233.999 266.964 233.767 266.544 233.461C266.125 233.155 265.915 232.588 265.915 231.761C265.915 230.934 266.204 230.322 266.782 229.925C267.372 229.528 268.103 229.33 268.975 229.33C269.667 229.33 270.534 229.409 271.576 229.568L272.052 229.653L272.018 230.741C270.76 230.56 269.769 230.469 269.043 230.469ZM274.192 238V236.062H275.586V238H274.192ZM33.6194 262.198V257.336H37.8694V262.198H33.6194ZM48.908 264L52.138 252.236H54.994L58.224 264H56.932L56.082 260.974H51.05L50.2 264H48.908ZM53.124 253.358L51.339 259.801H55.793L54.008 253.358H53.124ZM59.851 267.774V255.5H61.109V256.112C61.9703 255.591 62.8203 255.33 63.659 255.33C64.7356 255.33 65.5176 255.676 66.005 256.367C66.4923 257.047 66.736 258.175 66.736 259.75C66.736 261.325 66.447 262.459 65.869 263.15C65.3023 263.83 64.356 264.17 63.03 264.17C62.3386 264.17 61.704 264.108 61.126 263.983V267.774H59.851ZM63.472 256.469C63.132 256.469 62.7636 256.526 62.367 256.639C61.9816 256.752 61.6756 256.866 61.449 256.979L61.126 257.149V262.878C61.9306 263.003 62.5426 263.065 62.962 263.065C63.88 263.065 64.5203 262.804 64.883 262.283C65.257 261.762 65.444 260.912 65.444 259.733C65.444 258.554 65.274 257.716 64.934 257.217C64.6053 256.718 64.118 256.469 63.472 256.469ZM68.8158 267.774V255.5H70.0738V256.112C70.9351 255.591 71.7851 255.33 72.6238 255.33C73.7005 255.33 74.4825 255.676 74.9698 256.367C75.4571 257.047 75.7008 258.175 75.7008 259.75C75.7008 261.325 75.4118 262.459 74.8338 263.15C74.2671 263.83 73.3208 264.17 71.9948 264.17C71.3035 264.17 70.6688 264.108 70.0908 263.983V267.774H68.8158ZM72.4368 256.469C72.0968 256.469 71.7285 256.526 71.3318 256.639C70.9465 256.752 70.6405 256.866 70.4138 256.979L70.0908 257.149V262.878C70.8955 263.003 71.5075 263.065 71.9268 263.065C72.8448 263.065 73.4851 262.804 73.8478 262.283C74.2218 261.762 74.4088 260.912 74.4088 259.733C74.4088 258.554 74.2388 257.716 73.8988 257.217C73.5701 256.718 73.0828 256.469 72.4368 256.469ZM77.7806 264V255.5H79.0386V256.656C80.0246 255.976 81.0616 255.528 82.1496 255.313V256.605C81.6736 256.696 81.175 256.837 80.6536 257.03C80.1436 257.223 79.7526 257.393 79.4806 257.54L79.0556 257.761V264H77.7806ZM83.1176 259.733C83.1176 258.18 83.3952 257.058 83.9506 256.367C84.5059 255.676 85.4409 255.33 86.7556 255.33C88.0816 255.33 89.0166 255.676 89.5606 256.367C90.1159 257.058 90.3936 258.18 90.3936 259.733C90.3936 261.286 90.1329 262.413 89.6116 263.116C89.0902 263.819 88.1382 264.17 86.7556 264.17C85.3729 264.17 84.4209 263.819 83.8996 263.116C83.3782 262.413 83.1176 261.286 83.1176 259.733ZM84.4266 259.716C84.4266 260.951 84.5739 261.818 84.8686 262.317C85.1746 262.816 85.8036 263.065 86.7556 263.065C87.7189 263.065 88.3479 262.821 88.6426 262.334C88.9372 261.835 89.0846 260.963 89.0846 259.716C89.0846 258.469 88.9202 257.614 88.5916 257.149C88.2629 256.673 87.6509 256.435 86.7556 256.435C85.8716 256.435 85.2596 256.673 84.9196 257.149C84.5909 257.614 84.4266 258.469 84.4266 259.716ZM91.5246 255.5H92.8846L94.8736 262.895H95.5026L97.5596 255.5H98.8686L96.4716 264H93.9216L91.5246 255.5ZM106.139 262.946L106.632 262.895L106.666 263.898C105.374 264.079 104.269 264.17 103.351 264.17C102.127 264.17 101.26 263.819 100.75 263.116C100.24 262.402 99.9848 261.297 99.9848 259.801C99.9848 256.82 101.169 255.33 103.538 255.33C104.682 255.33 105.538 255.653 106.105 256.299C106.671 256.934 106.955 257.937 106.955 259.308L106.887 260.277H101.277C101.277 261.218 101.447 261.915 101.787 262.368C102.127 262.821 102.716 263.048 103.555 263.048C104.405 263.048 105.266 263.014 106.139 262.946ZM105.68 259.257C105.68 258.214 105.51 257.478 105.17 257.047C104.841 256.616 104.297 256.401 103.538 256.401C102.79 256.401 102.223 256.628 101.838 257.081C101.464 257.534 101.271 258.26 101.26 259.257H105.68ZM111.611 256.469C110.375 256.469 109.758 256.9 109.758 257.761C109.758 258.158 109.899 258.441 110.183 258.611C110.466 258.77 111.112 258.94 112.121 259.121C113.129 259.291 113.843 259.535 114.263 259.852C114.682 260.169 114.892 260.764 114.892 261.637C114.892 262.51 114.608 263.15 114.042 263.558C113.486 263.966 112.67 264.17 111.594 264.17C110.891 264.17 110.064 264.091 109.112 263.932L108.602 263.847L108.67 262.742C109.962 262.935 110.936 263.031 111.594 263.031C112.251 263.031 112.75 262.929 113.09 262.725C113.441 262.51 113.617 262.158 113.617 261.671C113.617 261.172 113.469 260.838 113.175 260.668C112.88 260.487 112.234 260.317 111.237 260.158C110.239 259.999 109.531 259.767 109.112 259.461C108.692 259.155 108.483 258.588 108.483 257.761C108.483 256.934 108.772 256.322 109.35 255.925C109.939 255.528 110.67 255.33 111.543 255.33C112.234 255.33 113.101 255.409 114.144 255.568L114.62 255.653L114.586 256.741C113.328 256.56 112.336 256.469 111.611 256.469ZM125.883 255.5H127.158V264H125.883V263.405C125.033 263.915 124.195 264.17 123.367 264.17C122.211 264.17 121.441 263.87 121.055 263.269C120.681 262.668 120.494 261.558 120.494 259.937V255.5H121.769V259.92C121.769 261.155 121.877 261.983 122.092 262.402C122.308 262.821 122.795 263.031 123.554 263.031C123.928 263.031 124.308 262.98 124.693 262.878C125.079 262.765 125.373 262.657 125.577 262.555L125.883 262.402V255.5ZM130.886 264H129.611V255.5H130.869V256.095C131.787 255.585 132.665 255.33 133.504 255.33C134.637 255.33 135.396 255.636 135.782 256.248C136.178 256.86 136.377 257.948 136.377 259.512V264H135.119V259.546C135.119 258.367 135 257.563 134.762 257.132C134.535 256.69 134.042 256.469 133.283 256.469C132.92 256.469 132.535 256.526 132.127 256.639C131.73 256.741 131.424 256.843 131.209 256.945L130.886 257.098V264ZM141.921 255.33C142.295 255.33 142.929 255.398 143.825 255.534L144.233 255.585L144.182 256.622C143.275 256.52 142.606 256.469 142.176 256.469C141.212 256.469 140.555 256.701 140.204 257.166C139.864 257.619 139.694 258.469 139.694 259.716C139.694 260.951 139.852 261.813 140.17 262.3C140.498 262.787 141.173 263.031 142.193 263.031L144.199 262.878L144.25 263.932C143.196 264.091 142.408 264.17 141.887 264.17C140.561 264.17 139.643 263.83 139.133 263.15C138.634 262.47 138.385 261.325 138.385 259.716C138.385 258.095 138.657 256.962 139.201 256.316C139.745 255.659 140.651 255.33 141.921 255.33ZM151.826 262.946L152.319 262.895L152.353 263.898C151.061 264.079 149.956 264.17 149.038 264.17C147.814 264.17 146.947 263.819 146.437 263.116C145.927 262.402 145.672 261.297 145.672 259.801C145.672 256.82 146.857 255.33 149.225 255.33C150.37 255.33 151.226 255.653 151.792 256.299C152.359 256.934 152.642 257.937 152.642 259.308L152.574 260.277H146.964C146.964 261.218 147.134 261.915 147.474 262.368C147.814 262.821 148.404 263.048 149.242 263.048C150.092 263.048 150.954 263.014 151.826 262.946ZM151.367 259.257C151.367 258.214 151.197 257.478 150.857 257.047C150.529 256.616 149.985 256.401 149.225 256.401C148.477 256.401 147.911 256.628 147.525 257.081C147.151 257.534 146.959 258.26 146.947 259.257H151.367ZM154.629 264V255.5H155.887V256.656C156.873 255.976 157.91 255.528 158.998 255.313V256.605C158.522 256.696 158.024 256.837 157.502 257.03C156.992 257.223 156.601 257.393 156.329 257.54L155.904 257.761V264H154.629ZM164.909 256.605H162.206V260.668C162.206 261.643 162.274 262.283 162.41 262.589C162.558 262.895 162.898 263.048 163.43 263.048L164.943 262.946L165.028 264C164.269 264.125 163.691 264.187 163.294 264.187C162.41 264.187 161.798 263.972 161.458 263.541C161.118 263.11 160.948 262.289 160.948 261.076V256.605H159.741V255.5H160.948V252.899H162.206V255.5H164.909V256.605ZM172.467 258.067V262.419C172.501 262.838 172.83 263.088 173.453 263.167L173.402 264.17C172.507 264.17 171.833 263.943 171.379 263.49C170.359 263.943 169.339 264.17 168.319 264.17C167.537 264.17 166.942 263.949 166.534 263.507C166.126 263.065 165.922 262.43 165.922 261.603C165.922 260.776 166.132 260.169 166.551 259.784C166.971 259.387 167.628 259.144 168.523 259.053L171.192 258.798V258.067C171.192 257.489 171.068 257.075 170.818 256.826C170.569 256.577 170.229 256.452 169.798 256.452C168.892 256.452 167.951 256.509 166.976 256.622L166.449 256.673L166.398 255.704C167.645 255.455 168.75 255.33 169.713 255.33C170.677 255.33 171.374 255.551 171.804 255.993C172.246 256.435 172.467 257.126 172.467 258.067ZM167.231 261.535C167.231 262.578 167.662 263.099 168.523 263.099C169.294 263.099 170.053 262.969 170.801 262.708L171.192 262.572V259.767L168.676 260.005C168.166 260.05 167.798 260.198 167.571 260.447C167.345 260.696 167.231 261.059 167.231 261.535ZM174.983 264V255.5H176.258V264H174.983ZM174.983 253.579V252.1H176.258V253.579H174.983ZM179.977 264H178.702V255.5H179.96V256.095C180.878 255.585 181.756 255.33 182.595 255.33C183.728 255.33 184.487 255.636 184.873 256.248C185.269 256.86 185.468 257.948 185.468 259.512V264H184.21V259.546C184.21 258.367 184.091 257.563 183.853 257.132C183.626 256.69 183.133 256.469 182.374 256.469C182.011 256.469 181.626 256.526 181.218 256.639C180.821 256.741 180.515 256.843 180.3 256.945L179.977 257.098V264ZM192.186 256.605H189.483V260.668C189.483 261.643 189.551 262.283 189.687 262.589C189.834 262.895 190.174 263.048 190.707 263.048L192.22 262.946L192.305 264C191.545 264.125 190.967 264.187 190.571 264.187C189.687 264.187 189.075 263.972 188.735 263.541C188.395 263.11 188.225 262.289 188.225 261.076V256.605H187.018V255.5H188.225V252.899H189.483V255.5H192.186V256.605ZM193.743 264V255.5H195.018V264H193.743ZM193.743 253.579V252.1H195.018V253.579H193.743ZM203.241 262.946L203.734 262.895L203.768 263.898C202.476 264.079 201.371 264.17 200.453 264.17C199.229 264.17 198.362 263.819 197.852 263.116C197.342 262.402 197.087 261.297 197.087 259.801C197.087 256.82 198.272 255.33 200.64 255.33C201.785 255.33 202.641 255.653 203.207 256.299C203.774 256.934 204.057 257.937 204.057 259.308L203.989 260.277H198.379C198.379 261.218 198.549 261.915 198.889 262.368C199.229 262.821 199.819 263.048 200.657 263.048C201.507 263.048 202.369 263.014 203.241 262.946ZM202.782 259.257C202.782 258.214 202.612 257.478 202.272 257.047C201.944 256.616 201.4 256.401 200.64 256.401C199.892 256.401 199.326 256.628 198.94 257.081C198.566 257.534 198.374 258.26 198.362 259.257H202.782ZM208.713 256.469C207.478 256.469 206.86 256.9 206.86 257.761C206.86 258.158 207.002 258.441 207.285 258.611C207.569 258.77 208.215 258.94 209.223 259.121C210.232 259.291 210.946 259.535 211.365 259.852C211.785 260.169 211.994 260.764 211.994 261.637C211.994 262.51 211.711 263.15 211.144 263.558C210.589 263.966 209.773 264.17 208.696 264.17C207.994 264.17 207.166 264.091 206.214 263.932L205.704 263.847L205.772 262.742C207.064 262.935 208.039 263.031 208.696 263.031C209.354 263.031 209.852 262.929 210.192 262.725C210.544 262.51 210.719 262.158 210.719 261.671C210.719 261.172 210.572 260.838 210.277 260.668C209.983 260.487 209.337 260.317 208.339 260.158C207.342 259.999 206.634 259.767 206.214 259.461C205.795 259.155 205.585 258.588 205.585 257.761C205.585 256.934 205.874 256.322 206.452 255.925C207.042 255.528 207.773 255.33 208.645 255.33C209.337 255.33 210.204 255.409 211.246 255.568L211.722 255.653L211.688 256.741C210.43 256.56 209.439 256.469 208.713 256.469ZM223.683 258.067V262.419C223.717 262.838 224.046 263.088 224.669 263.167L224.618 264.17C223.723 264.17 223.048 263.943 222.595 263.49C221.575 263.943 220.555 264.17 219.535 264.17C218.753 264.17 218.158 263.949 217.75 263.507C217.342 263.065 217.138 262.43 217.138 261.603C217.138 260.776 217.348 260.169 217.767 259.784C218.186 259.387 218.844 259.144 219.739 259.053L222.408 258.798V258.067C222.408 257.489 222.283 257.075 222.034 256.826C221.785 256.577 221.445 256.452 221.014 256.452C220.107 256.452 219.167 256.509 218.192 256.622L217.665 256.673L217.614 255.704C218.861 255.455 219.966 255.33 220.929 255.33C221.892 255.33 222.589 255.551 223.02 255.993C223.462 256.435 223.683 257.126 223.683 258.067ZM218.447 261.535C218.447 262.578 218.878 263.099 219.739 263.099C220.51 263.099 221.269 262.969 222.017 262.708L222.408 262.572V259.767L219.892 260.005C219.382 260.05 219.014 260.198 218.787 260.447C218.56 260.696 218.447 261.059 218.447 261.535ZM227.474 264H226.199V255.5H227.457V256.095C228.375 255.585 229.253 255.33 230.092 255.33C231.225 255.33 231.984 255.636 232.37 256.248C232.766 256.86 232.965 257.948 232.965 259.512V264H231.707V259.546C231.707 258.367 231.588 257.563 231.35 257.132C231.123 256.69 230.63 256.469 229.871 256.469C229.508 256.469 229.123 256.526 228.715 256.639C228.318 256.741 228.012 256.843 227.797 256.945L227.474 257.098V264ZM241.857 251.794V264H240.599V263.422C239.727 263.921 238.865 264.17 238.015 264.17C237.562 264.17 237.165 264.113 236.825 264C236.485 263.887 236.168 263.683 235.873 263.388C235.261 262.776 234.955 261.648 234.955 260.005C234.955 258.35 235.227 257.16 235.771 256.435C236.327 255.698 237.239 255.33 238.508 255.33C239.166 255.33 239.863 255.404 240.599 255.551V251.794H241.857ZM236.859 262.47C237.041 262.685 237.233 262.833 237.437 262.912C237.641 262.991 237.902 263.031 238.219 263.031C238.548 263.031 238.911 262.98 239.307 262.878C239.715 262.765 240.033 262.657 240.259 262.555L240.599 262.402V256.639C239.874 256.503 239.2 256.435 238.576 256.435C237.715 256.435 237.114 256.713 236.774 257.268C236.434 257.812 236.264 258.662 236.264 259.818C236.264 261.133 236.463 262.017 236.859 262.47ZM55.504 288.946L55.997 288.895L56.031 289.898C54.739 290.079 53.634 290.17 52.716 290.17C51.492 290.17 50.625 289.819 50.115 289.116C49.605 288.402 49.35 287.297 49.35 285.801C49.35 282.82 50.5343 281.33 52.903 281.33C54.0477 281.33 54.9033 281.653 55.47 282.299C56.0367 282.934 56.32 283.937 56.32 285.308L56.252 286.277H50.642C50.642 287.218 50.812 287.915 51.152 288.368C51.492 288.821 52.0813 289.048 52.92 289.048C53.77 289.048 54.6313 289.014 55.504 288.946ZM55.045 285.257C55.045 284.214 54.875 283.478 54.535 283.047C54.2063 282.616 53.6623 282.401 52.903 282.401C52.155 282.401 51.5883 282.628 51.203 283.081C50.829 283.534 50.6363 284.26 50.625 285.257H55.045ZM57.3906 281.5H58.7846L60.8586 284.832L62.9326 281.5H64.3266L61.6236 285.716L64.3096 290H62.9156L60.8586 286.685L58.7846 290H57.3906L60.0596 285.75L57.3906 281.5ZM70.3301 282.605H67.6271V286.668C67.6271 287.643 67.6951 288.283 67.8311 288.589C67.9785 288.895 68.3185 289.048 68.8511 289.048L70.3641 288.946L70.4491 290C69.6898 290.125 69.1118 290.187 68.7151 290.187C67.8311 290.187 67.2191 289.972 66.8791 289.541C66.5391 289.11 66.3691 288.289 66.3691 287.076V282.605H65.1621V281.5H66.3691V278.899H67.6271V281.5H70.3301V282.605ZM71.8871 290V281.5H73.1451V282.656C74.1311 281.976 75.1681 281.528 76.2561 281.313V282.605C75.7801 282.696 75.2814 282.837 74.7601 283.03C74.2501 283.223 73.8591 283.393 73.5871 283.54L73.1621 283.761V290H71.8871ZM83.378 288.946L83.871 288.895L83.905 289.898C82.613 290.079 81.508 290.17 80.59 290.17C79.366 290.17 78.499 289.819 77.989 289.116C77.479 288.402 77.224 287.297 77.224 285.801C77.224 282.82 78.4084 281.33 80.777 281.33C81.9217 281.33 82.7774 281.653 83.344 282.299C83.9107 282.934 84.194 283.937 84.194 285.308L84.126 286.277H78.516C78.516 287.218 78.686 287.915 79.026 288.368C79.366 288.821 79.9554 289.048 80.794 289.048C81.644 289.048 82.5054 289.014 83.378 288.946ZM82.919 285.257C82.919 284.214 82.749 283.478 82.409 283.047C82.0804 282.616 81.5364 282.401 80.777 282.401C80.029 282.401 79.4624 282.628 79.077 283.081C78.703 283.534 78.5104 284.26 78.499 285.257H82.919ZM87.456 290H86.181V281.5H87.439V282.095C88.289 281.585 89.1164 281.33 89.921 281.33C90.975 281.33 91.7117 281.619 92.131 282.197C92.505 281.97 92.9867 281.772 93.576 281.602C94.1767 281.421 94.7037 281.33 95.157 281.33C96.2904 281.33 97.0497 281.636 97.435 282.248C97.8317 282.849 98.03 283.937 98.03 285.512V290H96.755V285.546C96.755 284.367 96.6417 283.563 96.415 283.132C96.1884 282.69 95.7067 282.469 94.97 282.469C94.596 282.469 94.2107 282.526 93.814 282.639C93.4174 282.741 93.1114 282.843 92.896 282.945L92.573 283.098C92.7204 283.472 92.794 284.299 92.794 285.58V290H91.519V285.614C91.519 284.39 91.4057 283.563 91.179 283.132C90.9637 282.69 90.482 282.469 89.734 282.469C89.3714 282.469 88.9974 282.526 88.612 282.639C88.238 282.741 87.949 282.843 87.745 282.945L87.456 283.098V290ZM106.172 288.946L106.665 288.895L106.699 289.898C105.407 290.079 104.302 290.17 103.384 290.17C102.16 290.17 101.293 289.819 100.783 289.116C100.273 288.402 100.018 287.297 100.018 285.801C100.018 282.82 101.202 281.33 103.571 281.33C104.716 281.33 105.571 281.653 106.138 282.299C106.705 282.934 106.988 283.937 106.988 285.308L106.92 286.277H101.31C101.31 287.218 101.48 287.915 101.82 288.368C102.16 288.821 102.749 289.048 103.588 289.048C104.438 289.048 105.299 289.014 106.172 288.946ZM105.713 285.257C105.713 284.214 105.543 283.478 105.203 283.047C104.874 282.616 104.33 282.401 103.571 282.401C102.823 282.401 102.256 282.628 101.871 283.081C101.497 283.534 101.304 284.26 101.293 285.257H105.713ZM115.889 281.33C116.263 281.33 116.898 281.398 117.793 281.534L118.201 281.585L118.15 282.622C117.244 282.52 116.575 282.469 116.144 282.469C115.181 282.469 114.524 282.701 114.172 283.166C113.832 283.619 113.662 284.469 113.662 285.716C113.662 286.951 113.821 287.813 114.138 288.3C114.467 288.787 115.141 289.031 116.161 289.031L118.167 288.878L118.218 289.932C117.164 290.091 116.377 290.17 115.855 290.17C114.529 290.17 113.611 289.83 113.101 289.15C112.603 288.47 112.353 287.325 112.353 285.716C112.353 284.095 112.625 282.962 113.169 282.316C113.713 281.659 114.62 281.33 115.889 281.33ZM126.116 284.067V288.419C126.15 288.838 126.478 289.088 127.102 289.167L127.051 290.17C126.155 290.17 125.481 289.943 125.028 289.49C124.008 289.943 122.988 290.17 121.968 290.17C121.186 290.17 120.591 289.949 120.183 289.507C119.775 289.065 119.571 288.43 119.571 287.603C119.571 286.776 119.78 286.169 120.2 285.784C120.619 285.387 121.276 285.144 122.172 285.053L124.841 284.798V284.067C124.841 283.489 124.716 283.075 124.467 282.826C124.217 282.577 123.877 282.452 123.447 282.452C122.54 282.452 121.599 282.509 120.625 282.622L120.098 282.673L120.047 281.704C121.293 281.455 122.398 281.33 123.362 281.33C124.325 281.33 125.022 281.551 125.453 281.993C125.895 282.435 126.116 283.126 126.116 284.067ZM120.88 287.535C120.88 288.578 121.31 289.099 122.172 289.099C122.942 289.099 123.702 288.969 124.45 288.708L124.841 288.572V285.767L122.325 286.005C121.815 286.05 121.446 286.198 121.22 286.447C120.993 286.696 120.88 287.059 120.88 287.535ZM131.3 282.469C130.065 282.469 129.447 282.9 129.447 283.761C129.447 284.158 129.589 284.441 129.872 284.611C130.156 284.77 130.802 284.94 131.81 285.121C132.819 285.291 133.533 285.535 133.952 285.852C134.372 286.169 134.581 286.764 134.581 287.637C134.581 288.51 134.298 289.15 133.731 289.558C133.176 289.966 132.36 290.17 131.283 290.17C130.581 290.17 129.753 290.091 128.801 289.932L128.291 289.847L128.359 288.742C129.651 288.935 130.626 289.031 131.283 289.031C131.941 289.031 132.439 288.929 132.779 288.725C133.131 288.51 133.306 288.158 133.306 287.671C133.306 287.172 133.159 286.838 132.864 286.668C132.57 286.487 131.924 286.317 130.926 286.158C129.929 285.999 129.221 285.767 128.801 285.461C128.382 285.155 128.172 284.588 128.172 283.761C128.172 282.934 128.461 282.322 129.039 281.925C129.629 281.528 130.36 281.33 131.232 281.33C131.924 281.33 132.791 281.409 133.833 281.568L134.309 281.653L134.275 282.741C133.017 282.56 132.026 282.469 131.3 282.469ZM142.314 288.946L142.807 288.895L142.841 289.898C141.549 290.079 140.444 290.17 139.526 290.17C138.302 290.17 137.435 289.819 136.925 289.116C136.415 288.402 136.16 287.297 136.16 285.801C136.16 282.82 137.344 281.33 139.713 281.33C140.857 281.33 141.713 281.653 142.28 282.299C142.846 282.934 143.13 283.937 143.13 285.308L143.062 286.277H137.452C137.452 287.218 137.622 287.915 137.962 288.368C138.302 288.821 138.891 289.048 139.73 289.048C140.58 289.048 141.441 289.014 142.314 288.946ZM141.855 285.257C141.855 284.214 141.685 283.478 141.345 283.047C141.016 282.616 140.472 282.401 139.713 282.401C138.965 282.401 138.398 282.628 138.013 283.081C137.639 283.534 137.446 284.26 137.435 285.257H141.855ZM147.786 282.469C146.55 282.469 145.933 282.9 145.933 283.761C145.933 284.158 146.074 284.441 146.358 284.611C146.641 284.77 147.287 284.94 148.296 285.121C149.304 285.291 150.018 285.535 150.438 285.852C150.857 286.169 151.067 286.764 151.067 287.637C151.067 288.51 150.783 289.15 150.217 289.558C149.661 289.966 148.845 290.17 147.769 290.17C147.066 290.17 146.239 290.091 145.287 289.932L144.777 289.847L144.845 288.742C146.137 288.935 147.111 289.031 147.769 289.031C148.426 289.031 148.925 288.929 149.265 288.725C149.616 288.51 149.792 288.158 149.792 287.671C149.792 287.172 149.644 286.838 149.35 286.668C149.055 286.487 148.409 286.317 147.412 286.158C146.414 285.999 145.706 285.767 145.287 285.461C144.867 285.155 144.658 284.588 144.658 283.761C144.658 282.934 144.947 282.322 145.525 281.925C146.114 281.528 146.845 281.33 147.718 281.33C148.409 281.33 149.276 281.409 150.319 281.568L150.795 281.653L150.761 282.741C149.503 282.56 148.511 282.469 147.786 282.469ZM152.934 290V288.062H154.328V290H152.934ZM33.6194 314.198V309.336H37.8694V314.198H33.6194ZM48.721 305.409V304.236H57.221V305.409H53.634V316H52.342V305.409H48.721ZM59.9472 316H58.6722V303.794H59.9472V307.976C60.8539 307.545 61.7266 307.33 62.5652 307.33C63.6986 307.33 64.4579 307.636 64.8432 308.248C65.2399 308.86 65.4382 309.948 65.4382 311.512V316H64.1632V311.546C64.1632 310.367 64.0442 309.563 63.8062 309.132C63.5796 308.69 63.0922 308.469 62.3442 308.469C61.6302 308.469 60.9389 308.599 60.2702 308.86L59.9472 308.979V316ZM73.5831 314.946L74.0761 314.895L74.1101 315.898C72.8181 316.079 71.7131 316.17 70.7951 316.17C69.5711 316.17 68.7041 315.819 68.1941 315.116C67.6841 314.402 67.4291 313.297 67.4291 311.801C67.4291 308.82 68.6134 307.33 70.9821 307.33C72.1268 307.33 72.9824 307.653 73.5491 308.299C74.1158 308.934 74.3991 309.937 74.3991 311.308L74.3311 312.277H68.7211C68.7211 313.218 68.8911 313.915 69.2311 314.368C69.5711 314.821 70.1604 315.048 70.9991 315.048C71.8491 315.048 72.7104 315.014 73.5831 314.946ZM73.1241 311.257C73.1241 310.214 72.9541 309.478 72.6141 309.047C72.2854 308.616 71.7414 308.401 70.9821 308.401C70.2341 308.401 69.6674 308.628 69.2821 309.081C68.9081 309.534 68.7154 310.26 68.7041 311.257H73.1241ZM85.9015 314.946L86.3945 314.895L86.4285 315.898C85.1365 316.079 84.0315 316.17 83.1135 316.17C81.8895 316.17 81.0225 315.819 80.5125 315.116C80.0025 314.402 79.7475 313.297 79.7475 311.801C79.7475 308.82 80.9318 307.33 83.3005 307.33C84.4451 307.33 85.3008 307.653 85.8675 308.299C86.4341 308.934 86.7175 309.937 86.7175 311.308L86.6495 312.277H81.0395C81.0395 313.218 81.2095 313.915 81.5495 314.368C81.8895 314.821 82.4788 315.048 83.3175 315.048C84.1675 315.048 85.0288 315.014 85.9015 314.946ZM85.4425 311.257C85.4425 310.214 85.2725 309.478 84.9325 309.047C84.6038 308.616 84.0598 308.401 83.3005 308.401C82.5525 308.401 81.9858 308.628 81.6005 309.081C81.2265 309.534 81.0338 310.26 81.0225 311.257H85.4425ZM89.9795 316H88.7045V307.5H89.9625V308.095C90.8805 307.585 91.7588 307.33 92.5975 307.33C93.7308 307.33 94.4901 307.636 94.8755 308.248C95.2721 308.86 95.4705 309.948 95.4705 311.512V316H94.2125V311.546C94.2125 310.367 94.0935 309.563 93.8555 309.132C93.6288 308.69 93.1358 308.469 92.3765 308.469C92.0138 308.469 91.6285 308.526 91.2205 308.639C90.8238 308.741 90.5178 308.843 90.3025 308.945L89.9795 309.098V316ZM104.363 303.794V316H103.105V315.422C102.233 315.921 101.371 316.17 100.521 316.17C100.068 316.17 99.6713 316.113 99.3313 316C98.9913 315.887 98.674 315.683 98.3793 315.388C97.7673 314.776 97.4613 313.648 97.4613 312.005C97.4613 310.35 97.7333 309.16 98.2773 308.435C98.8327 307.698 99.745 307.33 101.014 307.33C101.672 307.33 102.369 307.404 103.105 307.551V303.794H104.363ZM99.3653 314.47C99.5467 314.685 99.7393 314.833 99.9433 314.912C100.147 314.991 100.408 315.031 100.725 315.031C101.054 315.031 101.417 314.98 101.813 314.878C102.221 314.765 102.539 314.657 102.765 314.555L103.105 314.402V308.639C102.38 308.503 101.706 308.435 101.082 308.435C100.221 308.435 99.6203 308.713 99.2803 309.268C98.9403 309.812 98.7703 310.662 98.7703 311.818C98.7703 313.133 98.9687 314.017 99.3653 314.47ZM110.569 319.774V307.5H111.827V308.112C112.688 307.591 113.538 307.33 114.377 307.33C115.453 307.33 116.235 307.676 116.723 308.367C117.21 309.047 117.454 310.175 117.454 311.75C117.454 313.325 117.165 314.459 116.587 315.15C116.02 315.83 115.074 316.17 113.748 316.17C113.056 316.17 112.422 316.108 111.844 315.983V319.774H110.569ZM114.19 308.469C113.85 308.469 113.481 308.526 113.085 308.639C112.699 308.752 112.393 308.866 112.167 308.979L111.844 309.149V314.878C112.648 315.003 113.26 315.065 113.68 315.065C114.598 315.065 115.238 314.804 115.601 314.283C115.975 313.762 116.162 312.912 116.162 311.733C116.162 310.554 115.992 309.716 115.652 309.217C115.323 308.718 114.836 308.469 114.19 308.469ZM119.16 311.733C119.16 310.18 119.437 309.058 119.993 308.367C120.548 307.676 121.483 307.33 122.798 307.33C124.124 307.33 125.059 307.676 125.603 308.367C126.158 309.058 126.436 310.18 126.436 311.733C126.436 313.286 126.175 314.413 125.654 315.116C125.132 315.819 124.18 316.17 122.798 316.17C121.415 316.17 120.463 315.819 119.942 315.116C119.42 314.413 119.16 313.286 119.16 311.733ZM120.469 311.716C120.469 312.951 120.616 313.818 120.911 314.317C121.217 314.816 121.846 315.065 122.798 315.065C123.761 315.065 124.39 314.821 124.685 314.334C124.979 313.835 125.127 312.963 125.127 311.716C125.127 310.469 124.962 309.614 124.634 309.149C124.305 308.673 123.693 308.435 122.798 308.435C121.914 308.435 121.302 308.673 120.962 309.149C120.633 309.614 120.469 310.469 120.469 311.716ZM128.515 316V307.5H129.79V316H128.515ZM128.515 305.579V304.1H129.79V305.579H128.515ZM133.509 316H132.234V307.5H133.492V308.095C134.41 307.585 135.288 307.33 136.127 307.33C137.26 307.33 138.019 307.636 138.405 308.248C138.801 308.86 139 309.948 139 311.512V316H137.742V311.546C137.742 310.367 137.623 309.563 137.385 309.132C137.158 308.69 136.665 308.469 135.906 308.469C135.543 308.469 135.158 308.526 134.75 308.639C134.353 308.741 134.047 308.843 133.832 308.945L133.509 309.098V316ZM145.718 308.605H143.015V312.668C143.015 313.643 143.083 314.283 143.219 314.589C143.366 314.895 143.706 315.048 144.239 315.048L145.752 314.946L145.837 316C145.077 316.125 144.499 316.187 144.103 316.187C143.219 316.187 142.607 315.972 142.267 315.541C141.927 315.11 141.757 314.289 141.757 313.076V308.605H140.55V307.5H141.757V304.899H143.015V307.5H145.718V308.605ZM150.636 311.733C150.636 310.18 150.914 309.058 151.469 308.367C152.024 307.676 152.959 307.33 154.274 307.33C155.6 307.33 156.535 307.676 157.079 308.367C157.634 309.058 157.912 310.18 157.912 311.733C157.912 313.286 157.651 314.413 157.13 315.116C156.609 315.819 155.657 316.17 154.274 316.17C152.891 316.17 151.939 315.819 151.418 315.116C150.897 314.413 150.636 313.286 150.636 311.733ZM151.945 311.716C151.945 312.951 152.092 313.818 152.387 314.317C152.693 314.816 153.322 315.065 154.274 315.065C155.237 315.065 155.866 314.821 156.161 314.334C156.456 313.835 156.603 312.963 156.603 311.716C156.603 310.469 156.439 309.614 156.11 309.149C155.781 308.673 155.169 308.435 154.274 308.435C153.39 308.435 152.778 308.673 152.438 309.149C152.109 309.614 151.945 310.469 151.945 311.716ZM161.624 308.605V316H160.349V308.605H159.278V307.5H160.349V306.735C160.349 305.534 160.519 304.718 160.859 304.287C161.199 303.845 161.794 303.624 162.644 303.624L164.361 303.743L164.344 304.797C163.709 304.774 163.182 304.763 162.763 304.763C162.355 304.763 162.06 304.899 161.879 305.171C161.709 305.443 161.624 305.97 161.624 306.752V307.5H164.089V308.605H161.624ZM173.758 308.605H171.055V312.668C171.055 313.643 171.123 314.283 171.259 314.589C171.406 314.895 171.746 315.048 172.279 315.048L173.792 314.946L173.877 316C173.118 316.125 172.54 316.187 172.143 316.187C171.259 316.187 170.647 315.972 170.307 315.541C169.967 315.11 169.797 314.289 169.797 313.076V308.605H168.59V307.5H169.797V304.899H171.055V307.5H173.758V308.605ZM176.59 316H175.315V303.794H176.59V307.976C177.496 307.545 178.369 307.33 179.208 307.33C180.341 307.33 181.1 307.636 181.486 308.248C181.882 308.86 182.081 309.948 182.081 311.512V316H180.806V311.546C180.806 310.367 180.687 309.563 180.449 309.132C180.222 308.69 179.735 308.469 178.987 308.469C178.273 308.469 177.581 308.599 176.913 308.86L176.59 308.979V316ZM190.226 314.946L190.719 314.895L190.753 315.898C189.461 316.079 188.356 316.17 187.438 316.17C186.214 316.17 185.347 315.819 184.837 315.116C184.327 314.402 184.072 313.297 184.072 311.801C184.072 308.82 185.256 307.33 187.625 307.33C188.769 307.33 189.625 307.653 190.192 308.299C190.758 308.934 191.042 309.937 191.042 311.308L190.974 312.277H185.364C185.364 313.218 185.534 313.915 185.874 314.368C186.214 314.821 186.803 315.048 187.642 315.048C188.492 315.048 189.353 315.014 190.226 314.946ZM189.767 311.257C189.767 310.214 189.597 309.478 189.257 309.047C188.928 308.616 188.384 308.401 187.625 308.401C186.877 308.401 186.31 308.628 185.925 309.081C185.551 309.534 185.358 310.26 185.347 311.257H189.767ZM203.292 303.794V316H202.034V315.422C201.161 315.921 200.3 316.17 199.45 316.17C198.997 316.17 198.6 316.113 198.26 316C197.92 315.887 197.603 315.683 197.308 315.388C196.696 314.776 196.39 313.648 196.39 312.005C196.39 310.35 196.662 309.16 197.206 308.435C197.761 307.698 198.674 307.33 199.943 307.33C200.6 307.33 201.297 307.404 202.034 307.551V303.794H203.292ZM198.294 314.47C198.475 314.685 198.668 314.833 198.872 314.912C199.076 314.991 199.337 315.031 199.654 315.031C199.983 315.031 200.345 314.98 200.742 314.878C201.15 314.765 201.467 314.657 201.694 314.555L202.034 314.402V308.639C201.309 308.503 200.634 308.435 200.011 308.435C199.15 308.435 198.549 308.713 198.209 309.268C197.869 309.812 197.699 310.662 197.699 311.818C197.699 313.133 197.897 314.017 198.294 314.47ZM211.763 310.067V314.419C211.797 314.838 212.126 315.088 212.749 315.167L212.698 316.17C211.803 316.17 211.128 315.943 210.675 315.49C209.655 315.943 208.635 316.17 207.615 316.17C206.833 316.17 206.238 315.949 205.83 315.507C205.422 315.065 205.218 314.43 205.218 313.603C205.218 312.776 205.428 312.169 205.847 311.784C206.266 311.387 206.924 311.144 207.819 311.053L210.488 310.798V310.067C210.488 309.489 210.363 309.075 210.114 308.826C209.865 308.577 209.525 308.452 209.094 308.452C208.187 308.452 207.247 308.509 206.272 308.622L205.745 308.673L205.694 307.704C206.941 307.455 208.046 307.33 209.009 307.33C209.972 307.33 210.669 307.551 211.1 307.993C211.542 308.435 211.763 309.126 211.763 310.067ZM206.527 313.535C206.527 314.578 206.958 315.099 207.819 315.099C208.59 315.099 209.349 314.969 210.097 314.708L210.488 314.572V311.767L207.972 312.005C207.462 312.05 207.094 312.198 206.867 312.447C206.64 312.696 206.527 313.059 206.527 313.535ZM218.682 308.605H215.979V312.668C215.979 313.643 216.047 314.283 216.183 314.589C216.33 314.895 216.67 315.048 217.203 315.048L218.716 314.946L218.801 316C218.041 316.125 217.463 316.187 217.067 316.187C216.183 316.187 215.571 315.972 215.231 315.541C214.891 315.11 214.721 314.289 214.721 313.076V308.605H213.514V307.5H214.721V304.899H215.979V307.5H218.682V308.605ZM226.24 310.067V314.419C226.274 314.838 226.602 315.088 227.226 315.167L227.175 316.17C226.279 316.17 225.605 315.943 225.152 315.49C224.132 315.943 223.112 316.17 222.092 316.17C221.31 316.17 220.715 315.949 220.307 315.507C219.899 315.065 219.695 314.43 219.695 313.603C219.695 312.776 219.904 312.169 220.324 311.784C220.743 311.387 221.4 311.144 222.296 311.053L224.965 310.798V310.067C224.965 309.489 224.84 309.075 224.591 308.826C224.341 308.577 224.001 308.452 223.571 308.452C222.664 308.452 221.723 308.509 220.749 308.622L220.222 308.673L220.171 307.704C221.417 307.455 222.522 307.33 223.486 307.33C224.449 307.33 225.146 307.551 225.577 307.993C226.019 308.435 226.24 309.126 226.24 310.067ZM221.004 313.535C221.004 314.578 221.434 315.099 222.296 315.099C223.066 315.099 223.826 314.969 224.574 314.708L224.965 314.572V311.767L222.449 312.005C221.939 312.05 221.57 312.198 221.344 312.447C221.117 312.696 221.004 313.059 221.004 313.535ZM55.028 333.5H56.303V342H55.028V341.405C54.178 341.915 53.3393 342.17 52.512 342.17C51.356 342.17 50.5853 341.87 50.2 341.269C49.826 340.668 49.639 339.558 49.639 337.937V333.5H50.914V337.92C50.914 339.155 51.0217 339.983 51.237 340.402C51.4523 340.821 51.9397 341.031 52.699 341.031C53.073 341.031 53.4527 340.98 53.838 340.878C54.2233 340.765 54.518 340.657 54.722 340.555L55.028 340.402V333.5ZM63.1583 334.605H60.4553V338.668C60.4553 339.643 60.5233 340.283 60.6593 340.589C60.8066 340.895 61.1466 341.048 61.6793 341.048L63.1923 340.946L63.2773 342C62.5179 342.125 61.9399 342.187 61.5433 342.187C60.6593 342.187 60.0473 341.972 59.7073 341.541C59.3673 341.11 59.1973 340.289 59.1973 339.076V334.605H57.9903V333.5H59.1973V330.899H60.4553V333.5H63.1583V334.605ZM64.7152 342V333.5H65.9902V342H64.7152ZM64.7152 331.579V330.1H65.9902V331.579H64.7152ZM68.536 342V329.794H69.811V342H68.536ZM72.3685 342V333.5H73.6435V342H72.3685ZM72.3685 331.579V330.1H73.6435V331.579H72.3685ZM75.5773 334.639V333.5H81.8843V334.639L77.1243 340.861H81.8843V342H75.5773V340.861L80.3373 334.639H75.5773ZM89.8246 336.067V340.419C89.8586 340.838 90.1873 341.088 90.8106 341.167L90.7596 342.17C89.8643 342.17 89.1899 341.943 88.7366 341.49C87.7166 341.943 86.6966 342.17 85.6766 342.17C84.8946 342.17 84.2996 341.949 83.8916 341.507C83.4836 341.065 83.2796 340.43 83.2796 339.603C83.2796 338.776 83.4893 338.169 83.9086 337.784C84.3279 337.387 84.9853 337.144 85.8806 337.053L88.5496 336.798V336.067C88.5496 335.489 88.4249 335.075 88.1756 334.826C87.9263 334.577 87.5863 334.452 87.1556 334.452C86.2489 334.452 85.3083 334.509 84.3336 334.622L83.8066 334.673L83.7556 333.704C85.0023 333.455 86.1073 333.33 87.0706 333.33C88.0339 333.33 88.7309 333.551 89.1616 333.993C89.6036 334.435 89.8246 335.126 89.8246 336.067ZM84.5886 339.535C84.5886 340.578 85.0193 341.099 85.8806 341.099C86.6513 341.099 87.4106 340.969 88.1586 340.708L88.5496 340.572V337.767L86.0336 338.005C85.5236 338.05 85.1553 338.198 84.9286 338.447C84.7019 338.696 84.5886 339.059 84.5886 339.535ZM96.7432 334.605H94.0402V338.668C94.0402 339.643 94.1082 340.283 94.2442 340.589C94.3915 340.895 94.7315 341.048 95.2642 341.048L96.7772 340.946L96.8622 342C96.1029 342.125 95.5249 342.187 95.1282 342.187C94.2442 342.187 93.6322 341.972 93.2922 341.541C92.9522 341.11 92.7822 340.289 92.7822 339.076V334.605H91.5752V333.5H92.7822V330.899H94.0402V333.5H96.7432V334.605ZM98.3002 342V333.5H99.5752V342H98.3002ZM98.3002 331.579V330.1H99.5752V331.579H98.3002ZM101.645 337.733C101.645 336.18 101.923 335.058 102.478 334.367C103.033 333.676 103.968 333.33 105.283 333.33C106.609 333.33 107.544 333.676 108.088 334.367C108.643 335.058 108.921 336.18 108.921 337.733C108.921 339.286 108.66 340.413 108.139 341.116C107.618 341.819 106.666 342.17 105.283 342.17C103.9 342.17 102.948 341.819 102.427 341.116C101.906 340.413 101.645 339.286 101.645 337.733ZM102.954 337.716C102.954 338.951 103.101 339.818 103.396 340.317C103.702 340.816 104.331 341.065 105.283 341.065C106.246 341.065 106.875 340.821 107.17 340.334C107.465 339.835 107.612 338.963 107.612 337.716C107.612 336.469 107.448 335.614 107.119 335.149C106.79 334.673 106.178 334.435 105.283 334.435C104.399 334.435 103.787 334.673 103.447 335.149C103.118 335.614 102.954 336.469 102.954 337.716ZM112.275 342H111V333.5H112.258V334.095C113.176 333.585 114.055 333.33 114.893 333.33C116.027 333.33 116.786 333.636 117.171 334.248C117.568 334.86 117.766 335.948 117.766 337.512V342H116.508V337.546C116.508 336.367 116.389 335.563 116.151 335.132C115.925 334.69 115.432 334.469 114.672 334.469C114.31 334.469 113.924 334.526 113.516 334.639C113.12 334.741 112.814 334.843 112.598 334.945L112.275 335.098V342ZM120.046 342V340.062H121.44V342H120.046Z" fill="#3F3939"/>
<rect x="91" y="46" width="147" height="42" rx="21" fill="#F69193"/>
<path d="M140.005 70.1C140.458 70.8867 141.325 71.28 142.605 71.28C143.885 71.28 144.745 70.8933 145.185 70.12C145.638 69.3467 145.865 68.0533 145.865 66.24C145.865 64.4133 145.632 63.0867 145.165 62.26C144.712 61.4333 143.858 61.02 142.605 61.02C141.352 61.02 140.492 61.4333 140.025 62.26C139.558 63.0867 139.325 64.4067 139.325 66.22C139.325 68.02 139.552 69.3133 140.005 70.1ZM146.925 71.54C146.112 72.66 144.672 73.22 142.605 73.22C140.538 73.22 139.092 72.66 138.265 71.54C137.438 70.4067 137.025 68.6333 137.025 66.22C137.025 63.8067 137.438 62.0133 138.265 60.84C139.105 59.6667 140.552 59.08 142.605 59.08C144.658 59.08 146.098 59.6667 146.925 60.84C147.752 62 148.165 63.7933 148.165 66.22C148.165 68.6467 147.752 70.42 146.925 71.54ZM153.11 64.86V73H150.95V64.86H149.79V63H150.95V62.36C150.95 60.9333 151.157 59.9533 151.57 59.42C151.983 58.8867 152.717 58.62 153.77 58.62L155.93 58.82L155.91 60.6C155.257 60.5733 154.71 60.56 154.27 60.56C153.843 60.56 153.543 60.6933 153.37 60.96C153.197 61.2133 153.11 61.6867 153.11 62.38V63H155.75V64.86H153.11ZM160.024 64.86V73H157.864V64.86H156.704V63H157.864V62.36C157.864 60.9333 158.071 59.9533 158.484 59.42C158.897 58.8867 159.631 58.62 160.684 58.62L162.844 58.82L162.824 60.6C162.171 60.5733 161.624 60.56 161.184 60.56C160.757 60.56 160.457 60.6933 160.284 60.96C160.111 61.2133 160.024 61.6867 160.024 62.38V63H162.664V64.86H160.024ZM164.318 73V63H166.498V73H164.318ZM164.318 61.3V59H166.498V61.3H164.318ZM172.882 62.78C173.589 62.78 174.422 62.8733 175.382 63.06L175.882 63.16L175.802 64.88C174.749 64.7733 173.969 64.72 173.462 64.72C172.449 64.72 171.769 64.9467 171.422 65.4C171.076 65.8533 170.902 66.7067 170.902 67.96C170.902 69.2133 171.069 70.08 171.402 70.56C171.736 71.04 172.429 71.28 173.482 71.28L175.822 71.12L175.882 72.86C174.536 73.1 173.522 73.22 172.842 73.22C171.322 73.22 170.249 72.8133 169.622 72C169.009 71.1733 168.702 69.8267 168.702 67.96C168.702 66.0933 169.029 64.7667 169.682 63.98C170.336 63.18 171.402 62.78 172.882 62.78ZM185.012 71.2L185.572 71.14L185.612 72.76C184.092 73.0667 182.746 73.22 181.572 73.22C180.092 73.22 179.026 72.8133 178.372 72C177.732 71.1867 177.412 69.8867 177.412 68.1C177.412 64.5533 178.859 62.78 181.752 62.78C184.552 62.78 185.952 64.3067 185.952 67.36L185.812 68.92H179.612C179.626 69.7467 179.806 70.3533 180.152 70.74C180.499 71.1267 181.146 71.32 182.092 71.32C183.039 71.32 184.012 71.28 185.012 71.2ZM183.812 67.24C183.812 66.2533 183.652 65.5667 183.332 65.18C183.026 64.78 182.499 64.58 181.752 64.58C181.006 64.58 180.459 64.7867 180.112 65.2C179.779 65.6133 179.606 66.2933 179.592 67.24H183.812ZM188.049 73V63H190.209V64.2C191.342 63.4667 192.475 62.9933 193.609 62.78V64.96C192.462 65.1867 191.482 65.48 190.669 65.84L190.229 66.02V73H188.049Z" fill="#3F3939"/>
<defs>
<filter id="filter0_d" x="0" y="0" width="328" height="403" filterUnits="userSpaceOnUse" color-interpolation-filters="sRGB">
<feFlood flood-opacity="0" result="BackgroundImageFix"/>
<feColorMatrix in="SourceAlpha" type="matrix" values="0 0 0 0 0 0 0 0 0 0 0 0 0 0 0 0 0 0 127 0" result="hardAlpha"/>
<feOffset dy="4"/>
<feGaussianBlur stdDeviation="2"/>
<feComposite in2="hardAlpha" operator="out"/>
<feColorMatrix type="matrix" values="0 0 0 0 0 0 0 0 0 0 0 0 0 0 0 0 0 0 0.25 0"/>
<feBlend mode="normal" in2="BackgroundImageFix" result="effect1_dropShadow"/>
<feBlend mode="normal" in="SourceGraphic" in2="effect1_dropShadow" result="shape"/>
</filter>
</defs>
</svg>
