<svg width="43" height="43" viewBox="0 0 43 43" fill="none" xmlns="http://www.w3.org/2000/svg">
<g clip-path="url(#clip0)">
<path d="M8.36499 24.0315C8.22391 24.0302 7.91441 24.0714 7.97559 24.0985L8.50535 24.068L8.36499 24.0315Z" fill="#FF7777"/>
<path d="M7.39787 24.3313C7.6534 24.3424 8.1209 24.3379 8.61611 24.2719C8.10434 24.2848 8.31668 24.2515 7.69874 24.2811C7.63756 24.2541 7.8589 24.212 8.07087 24.1964C7.9298 24.1951 8.18676 24.1357 7.85134 24.1502C7.44394 24.2347 7.42523 24.2874 7.77756 24.3083C7.63612 24.3246 7.50368 24.3322 7.39787 24.3313Z" fill="#FF7777"/>
<path d="M6.8222 27.4474L6.88446 27.4215C6.84883 27.4388 6.8312 27.4386 6.8222 27.4474Z" fill="#FF7777"/>
<path d="M6.68644 29.3596C6.66916 29.3418 6.61626 29.3414 6.57199 29.3498C6.6159 29.359 6.64217 29.3681 6.68644 29.3596Z" fill="#FF7777"/>
<path d="M6.12305 29.7335C6.13205 29.7248 6.14104 29.7161 6.15868 29.7162C6.11441 29.7246 6.08778 29.7332 6.12305 29.7335Z" fill="#FF7777"/>
<path d="M6.82248 27.4473L6.66233 27.5164C6.83004 27.5091 6.78649 27.4823 6.82248 27.4473Z" fill="#FF7777"/>
<path d="M8.72324 24.6344C8.69697 24.6253 8.64407 24.6248 8.58253 24.6155C8.6088 24.6245 8.62643 24.6247 8.63507 24.6336C8.67034 24.6339 8.68797 24.6341 8.72324 24.6344Z" fill="#FF7777"/>
<path d="M6.31834 26.658C6.24816 26.6397 6.16862 26.6478 6.09808 26.6472L6.31834 26.658Z" fill="#FF7777"/>
<path d="M6.18055 26.0307C6.16255 26.0481 6.61314 26.0082 6.81613 26.0012C6.63078 26.0083 6.5426 26.0075 6.4987 25.9983C6.41916 26.0064 6.31299 26.0231 6.18055 26.0307Z" fill="#FF7777"/>
<path d="M6.89978 24.9529L6.83824 24.9436C6.85588 24.9437 6.87351 24.9439 6.89978 24.9529Z" fill="#FF7777"/>
<path d="M6.26441 27.1249C6.20251 27.1331 6.14061 27.1414 6.10534 27.1411C6.15824 27.1415 6.21114 27.142 6.26441 27.1249Z" fill="#FF7777"/>
<path d="M18.0045 31.7646C18.0038 31.7999 18.0034 31.8175 18.0117 31.844C18.0128 31.7911 18.0135 31.7559 18.0045 31.7646Z" fill="#FF7777"/>
<path d="M18.9395 33.9337L18.9301 33.9601C18.9373 34.0395 18.9441 34.1366 18.9513 34.216L18.9395 33.9337Z" fill="#FF7777"/>
<path d="M5.59839 30.3813C5.55447 30.3721 5.56311 30.381 5.59839 30.3813V30.3813Z" fill="#FF7777"/>
<path d="M7.73366 36.776C7.80852 36.565 7.93485 36.4251 8.05253 36.2763C8.17022 36.1275 8.27927 35.9698 8.35449 35.7412C8.30842 35.8378 8.16338 36.0304 8.02698 36.232C7.89058 36.4335 7.74518 36.6438 7.73366 36.776Z" fill="#FF7777"/>
<path d="M8.66912 24.6517C8.67776 24.6606 8.6864 24.6695 8.67739 24.6782C8.6864 24.6695 8.68676 24.6518 8.66912 24.6517Z" fill="#FF7777"/>
<path d="M8.36409 35.7324L8.38281 35.6797C8.37345 35.7061 8.37309 35.7237 8.36409 35.7324Z" fill="#FF7777"/>
<path d="M5.97678 31.7074C6.05632 31.6993 6.11822 31.6911 6.17148 31.6739C6.12722 31.6824 6.08295 31.6908 5.97678 31.7074Z" fill="#FF7777"/>
<path d="M6.54559 30.6369L6.48333 30.6628C6.5276 30.6544 6.5366 30.6457 6.54559 30.6369Z" fill="#FF7777"/>
<path d="M6.67273 32.1722C6.63711 32.1895 6.57522 32.1977 6.63675 32.2071C6.66338 32.1985 6.68101 32.1987 6.69001 32.19C6.62811 32.1982 6.59285 32.1979 6.67273 32.1722Z" fill="#FF7777"/>
<path d="M6.72901 32.8956C6.76464 32.8783 6.79127 32.8697 6.8179 32.8612C6.80927 32.8523 6.80063 32.8434 6.79199 32.8345L6.72901 32.8956Z" fill="#FF7777"/>
<path d="M16.3653 32.1288C16.3891 32.2613 16.4129 32.3938 16.4276 32.535C16.3812 32.2172 16.4542 32.0944 16.3653 32.1288Z" fill="#FF7777"/>
<path d="M8.46646 24.6585C8.58126 24.6507 8.63417 24.6512 8.66044 24.6602C8.6518 24.6513 8.6518 24.6513 8.63417 24.6512C8.57262 24.6418 8.51072 24.6501 8.46646 24.6585Z" fill="#FF7777"/>
<path d="M10.2598 31.8525L10.1961 31.9489C10.2321 31.914 10.2504 31.8789 10.2598 31.8525Z" fill="#FF7777"/>
<path d="M12.4493 32.578L12.468 32.5252C12.4507 32.5075 12.4503 32.5251 12.4493 32.578Z" fill="#FF7777"/>
<path d="M10.2645 32.0378C10.105 32.0716 10.0165 32.0884 9.95461 32.0966C9.99887 32.0882 10.0341 32.0886 10.0698 32.0712C10.1317 32.063 10.2026 32.046 10.2645 32.0378Z" fill="#FF7777"/>
<path d="M16.9094 31.4108C16.8213 31.41 16.9238 32.0017 16.9346 32.3369C16.8515 32.5213 16.8465 31.904 16.791 31.5949C16.7435 31.762 16.741 32.3175 16.6975 32.2906C16.6906 32.1936 16.6737 32.1581 16.6762 32.0347C16.6489 32.5106 16.4902 32.0771 16.4603 32.6764C16.4437 32.6234 16.4448 32.5705 16.4369 32.5263C16.475 32.8176 16.4952 33.1264 16.5171 33.3471C16.4815 33.3644 16.4829 33.7259 16.429 33.3463C16.4552 33.3553 16.4408 33.1965 16.4434 33.0731L16.4221 33.2492C16.3365 32.6929 16.4614 33.0556 16.4257 32.6408C16.3689 32.8343 16.3152 33.3011 16.2389 33.1505C16.1796 32.6033 16.3577 32.9488 16.244 32.4716L16.3545 32.6755C16.2134 31.81 16.4149 32.7377 16.2663 31.8105C16.1371 31.6594 16.1634 32.1006 16.0252 31.9582C16.0277 32.2669 16.0777 32.4084 16.0716 32.7081C15.9543 33.2714 15.8262 31.3392 15.7668 32.0881C15.7592 32.4584 15.8157 33.1467 15.6995 32.7929L15.6768 32.1755C15.5544 32.1214 15.6851 33.0661 15.5256 32.6679C15.5307 32.421 15.6005 32.4569 15.5757 32.3773C15.4533 31.8912 15.5508 32.7298 15.4889 32.7381L15.4296 32.1908C15.313 32.2867 15.2165 32.6915 15.0905 32.8138C15.0851 32.6462 15.0974 32.4788 15.0391 32.3107C14.8919 32.6091 14.6695 32.272 14.4816 31.9705L14.4543 32.4464C14.4366 32.4462 14.4057 32.2343 14.4165 32.1374C14.3405 31.9692 14.4456 32.4375 14.424 32.6313C14.388 32.6662 14.3589 32.3662 14.3618 32.2251C14.2829 32.63 14.1141 33.1222 13.9479 32.6269L13.9598 32.4771C13.8489 32.291 13.931 33.4556 13.8075 33.0224L13.818 32.9432C13.6013 32.756 13.4156 33.2128 13.2008 32.5055C13.231 33.1847 12.9773 32.2212 13.046 33.1742C12.8966 32.7143 12.9089 32.5469 12.721 32.2453C12.6778 32.2009 12.7088 32.8448 12.6537 32.9501L12.6109 32.456L12.5825 32.9847L12.4975 32.3932L12.4507 32.525C12.4767 32.5517 12.508 32.746 12.5227 32.8872C12.4651 33.1159 12.3089 32.559 12.2787 32.3118L12.1286 32.7513C12.115 32.5572 12.143 32.4781 12.1546 32.346C12.0998 32.8657 12.0858 31.8251 12.0408 32.3008C12.0649 32.4157 12.0613 32.592 12.0592 32.6978C11.9858 32.4061 11.8886 32.4141 11.8242 32.5457L11.8047 32.2017C11.6651 32.1299 11.5363 32.3932 11.3686 32.4005C11.4359 32.5598 11.4679 33.1509 11.4402 33.2123L11.3804 32.6827C11.3826 33.009 11.447 32.8773 11.4211 33.2827C11.3516 33.2292 11.3362 32.6912 11.3574 32.515L11.3005 32.7085C11.2861 32.5496 11.2966 32.4704 11.2743 32.2673C11.2764 32.5936 11.1084 31.7544 11.1145 32.3188L11.1001 32.1599C10.95 32.1674 10.8931 32.3608 10.769 32.395C10.8039 32.845 10.7441 32.7474 10.7452 33.1266C10.7193 33.0999 10.6851 33.0467 10.6686 32.9936C10.652 32.9406 10.6444 32.8788 10.6365 32.8346C10.6121 32.7374 10.6049 32.658 10.5869 32.6755C10.5646 32.9045 10.5789 33.0634 10.5469 33.3364C10.5466 32.922 10.5192 32.9658 10.552 32.6575C10.5336 32.6926 10.5242 32.719 10.5055 32.7717C10.4868 32.8244 10.4584 32.9212 10.4019 33.097C10.3806 33.2732 10.3792 33.3437 10.3497 33.4933C10.313 33.5635 10.3443 33.3257 10.3839 33.1145L10.3936 33.0705C10.2899 33.3958 10.2874 33.0871 10.3547 32.8144C10.4044 32.5415 10.5066 32.2868 10.3033 32.7434L10.3306 32.6996C10.2568 32.8576 10.1654 33.0155 10.074 33.1734C10.0755 33.1028 10.2306 32.8485 10.3331 32.5761C10.1492 32.9448 10.1233 32.9181 10.142 32.8654C10.1521 32.8037 10.1978 32.7248 10.0164 32.97C10.3825 32.3209 10.3731 32.3473 10.3098 32.426C10.2464 32.5048 10.1021 32.6622 10.4195 32.2331L10.1838 32.5483C9.93942 32.8547 10.3108 32.3731 10.3652 32.3031C10.1752 32.5394 10.1478 32.5833 10.0121 32.7496C9.94914 32.8107 9.91315 32.8456 9.88652 32.8542C9.88724 32.8189 10.0056 32.6349 10.1593 32.4511C10.313 32.2673 10.4929 32.0926 10.5916 32.0142C10.6275 31.9793 10.2777 32.267 9.99989 32.4849C9.72205 32.7028 9.50755 32.8419 9.83038 32.5804C10.0002 32.4673 10.1705 32.3366 10.3407 32.2059C10.0366 32.4147 10.0373 32.3794 10.0557 32.3443C10.074 32.3092 10.101 32.283 9.8347 32.3688C9.90596 32.3342 9.95923 32.317 10.0215 32.2911C10.0748 32.274 10.1104 32.2567 10.1104 32.2567C10.2975 32.1614 10.2975 32.1614 10.2176 32.1871C10.1377 32.2128 9.96894 32.273 9.81779 32.3333C9.85342 32.316 10.0935 32.2212 10.2536 32.1522C10.3691 32.1091 10.245 32.1433 10.1385 32.1776C10.0319 32.2119 9.95239 32.22 10.1388 32.1599C10.2011 32.1341 10.263 32.1258 10.2896 32.1172C10.1032 32.1772 10.3342 32.0912 9.89085 32.2106C9.98874 32.1674 9.94447 32.1758 9.90057 32.1666C9.8653 32.1662 9.82139 32.157 9.94555 32.1229C9.69795 32.1559 9.75121 32.1387 9.78684 32.1214C9.82247 32.1041 9.83147 32.0954 9.46906 32.1362C9.65476 32.1114 9.77856 32.0949 9.8671 32.0781C9.91136 32.0697 9.938 32.0611 9.95563 32.0613C9.97327 32.0614 9.98226 32.0527 9.99126 32.044C10.001 32 9.86962 31.9547 9.70227 31.9443C9.92288 31.9375 9.93296 31.8759 10.2331 31.861C10.2256 31.7992 10.0766 31.7538 9.70515 31.8033C10.5736 31.5996 8.98537 31.6379 10.0913 31.4629C9.67997 31.3093 9.4007 31.1656 9.2186 31.014C9.94306 30.9501 9.30317 31.1912 10.0719 31.1189C9.75699 30.9925 9.12286 30.9514 9.28518 30.7766C9.37443 30.7245 9.60296 30.7619 9.73504 30.7719C9.42014 30.6456 9.7768 30.4548 9.36436 30.3541C9.42626 30.3458 9.50544 30.3554 9.56698 30.3647C9.54107 30.3381 9.66559 30.2863 9.33845 30.3274L9.42626 30.3458C8.94833 30.4296 8.41245 30.3277 8.15621 30.3518C9.10956 30.3076 8.38007 30.1863 9.58894 30.1533C9.5274 30.1439 9.36005 30.1336 9.13907 30.158C9.20134 30.1321 9.33414 30.1069 9.58102 30.1092C9.39748 30.0281 9.04335 30.0954 9.04515 30.0073C9.20422 29.9911 9.26576 30.0005 9.45974 30.0022C9.14268 29.9817 8.82561 29.9612 8.95949 29.883C9.05666 29.8751 9.18047 29.8586 9.18011 29.8762C9.12109 29.7434 8.32753 29.7362 8.62228 29.5537C9.31939 29.5336 8.85297 29.4853 9.45399 29.4202L9.27009 29.3568L8.97786 29.4159C8.9793 29.3453 8.53879 29.3237 8.72558 29.246L8.98074 29.2748L8.85082 29.159L8.62841 29.2539C8.3117 29.2158 7.86832 29.3352 8.02919 29.2308C8.09073 29.2402 8.03063 29.1603 8.38476 29.093C8.19114 29.0736 7.98853 29.0629 8.13104 28.9937C8.32574 28.9602 8.7936 28.938 8.9264 28.9128C8.41464 28.9257 8.77057 28.7703 8.23254 28.7742C8.35598 28.7753 8.67412 28.743 8.73602 28.7347L8.32143 28.7397C8.45459 28.6969 8.51649 28.6886 8.77273 28.6645C8.84543 28.5594 8.01228 28.7633 8.33259 28.6252C8.36786 28.6255 8.42976 28.6173 8.4913 28.6266C8.66153 28.4959 8.21311 28.4301 8.40961 28.3085C9.01999 28.2171 8.56688 28.3805 9.07109 28.3057C8.95053 28.1635 8.31748 28.0696 8.45317 27.9033L8.38191 27.9379C7.51637 28.0005 8.79938 27.7918 8.39451 27.7528C8.45605 27.7622 8.88 27.7308 8.77419 27.7299C8.90879 27.6165 8.53991 27.5425 8.26027 27.4165L8.48089 27.4097C8.66767 27.3321 8.5813 27.2431 8.67091 27.1734C8.4503 27.1802 8.47765 27.1364 8.15915 27.1864C9.39142 26.8714 7.45125 26.8712 8.47982 26.5985C8.47946 26.6162 8.68208 26.6268 8.67344 26.6179L8.45571 26.4837C8.0843 26.5332 8.23438 26.5257 7.94214 26.5848C7.72153 26.5916 7.54591 26.5547 7.53763 26.5282C7.79243 26.5746 8.13865 26.4631 8.34235 26.4209C8.23618 26.4376 8.10374 26.4452 7.98893 26.4529C8.6443 26.3179 7.2382 26.5078 7.67331 26.3619L7.86765 26.346C7.76256 26.3098 7.49805 26.3074 7.55203 26.2549C7.98534 26.1972 7.75429 26.2833 8.1167 26.2425C8.08251 26.1893 7.28859 26.1996 7.72262 26.1066C7.8457 26.1254 7.84498 26.1606 7.97706 26.1707C8.48199 26.0607 8.34955 26.0683 8.42117 26.016L8.41217 26.0248L8.63531 25.8945L8.50215 25.9374C7.36381 25.9711 8.28442 25.8032 7.53548 25.7698C8.24915 25.8028 7.9328 25.747 8.43629 25.7076C8.56945 25.6647 8.72025 25.622 8.85269 25.6144C8.45609 25.6019 9.16363 25.5026 8.57305 25.4884C8.73213 25.4722 8.59177 25.4356 8.98045 25.4039C8.84909 25.3586 8.70621 25.4455 8.51187 25.4614C7.96592 25.4211 9.14385 25.1762 8.39564 25.1076C8.08001 25.0165 7.55025 25.0469 7.27854 24.9651C7.52686 24.8968 7.8522 24.9439 7.8522 24.9439C8.08325 24.8578 8.03107 24.8221 7.84681 24.7763C7.98788 24.7776 8.10305 24.7522 8.28012 24.7186C8.23693 24.6741 7.70645 24.7398 7.92851 24.6624C8.10485 24.664 8.38737 24.649 8.56371 24.6506C8.41472 24.6052 8.11529 24.5848 7.9663 24.5393C8.24053 24.4978 8.38089 24.5343 8.57487 24.5361C8.44351 24.4908 8.31323 24.3926 7.87165 24.4238L7.72049 24.4842C7.70322 24.4664 8.0919 24.4347 8.17108 24.4442C8.52341 24.4651 8.0282 24.5311 7.86912 24.5473L7.76404 24.511C6.84416 24.6437 7.91987 24.6535 7.8828 24.7414L7.21196 24.7705L7.77591 24.7933C7.59884 24.8269 7.22743 24.8764 7.12235 24.8402C6.79413 24.9342 7.35988 24.8688 7.00538 24.9538C6.94348 24.962 6.91685 24.9706 6.89058 24.9615L7.10147 24.9987C6.96039 24.9974 6.63289 25.0562 6.72215 25.0041C6.34894 25.1417 7.24003 25.1234 6.73582 25.1982L6.69191 25.189C6.92764 25.3057 7.1864 25.1582 7.77626 25.2077L6.56415 25.3994L7.05864 25.3687C7.04064 25.3861 7.00465 25.4211 6.81031 25.4369C7.14501 25.4576 7.02265 25.4036 7.34007 25.4065C6.89668 25.5259 7.57472 25.5762 6.78799 25.666C7.16732 25.6606 7.07195 25.5804 7.33575 25.6181C6.49576 25.725 7.49302 25.6901 7.1029 25.7923C6.67031 25.8148 6.89236 25.7375 6.51123 25.831C7.25261 25.8025 6.35864 25.9618 6.50763 26.0073C7.09965 25.951 6.76135 26.1066 6.96289 26.1702C6.76855 26.186 6.65014 26.3701 6.454 26.4741L6.35683 26.4821C6.94849 26.4434 6.84952 26.5395 6.97188 26.5935C6.61847 26.6255 6.47739 26.6242 6.31004 26.6139L6.3176 26.6757C6.50294 26.6686 6.61739 26.6784 6.6872 26.7143L6.24562 26.7456C6.27945 26.8164 6.78149 26.8475 6.49646 26.9859C6.91177 26.9457 7.63804 26.7936 7.92739 26.8756C7.70641 26.9 7.32637 26.9406 7.22092 26.922C7.24719 26.9311 7.4059 26.9326 7.31701 26.967L6.93804 26.9547C6.76925 27.0149 7.24683 26.9487 7.21948 26.9926C6.90133 27.0249 6.98915 27.0434 6.7419 27.0587C6.71563 27.0497 6.87506 27.0159 6.74298 27.0058C6.689 27.0582 6.50257 27.1183 6.26361 27.1601C6.44931 27.1354 6.69655 27.12 6.7401 27.1469C6.77393 27.2177 6.3597 27.2051 6.19954 27.2742C6.42016 27.2674 6.1981 27.3447 6.67532 27.2962C6.67496 27.3138 6.45398 27.3382 6.32118 27.3635C6.53244 27.3831 6.39676 27.5493 6.90133 27.457L6.93695 27.4397C6.95459 27.4398 6.94559 27.4486 6.95459 27.4398C7.43792 27.5236 6.71022 27.7462 6.91967 27.8539L6.7606 27.8701C6.9445 27.9335 6.8808 28.0299 7.23313 28.0508C7.23277 28.0684 6.94918 28.1364 6.7552 28.1346C6.87756 28.1886 7.05427 28.1726 6.79622 28.2849C6.51479 28.247 6.55725 28.3268 6.58533 28.2477C6.45109 28.3434 6.20348 28.3764 6.64363 28.4157C6.23767 28.4296 6.1387 28.5257 6.26178 28.5445L6.54574 28.4589C6.61555 28.4948 6.57956 28.5298 6.54321 28.5823L6.00446 28.6215C5.36493 28.8449 7.13847 28.7994 6.04908 29.0275C6.42804 29.0398 6.30712 28.9152 6.75698 28.9105C6.69364 28.9893 5.93211 29.141 5.92275 29.1674C5.62908 29.297 6.71595 29.1923 6.51945 29.314C6.71415 29.2805 7.218 29.2234 7.4109 29.2781C7.34755 29.3568 6.61374 29.4471 6.45575 29.4104C6.43847 29.3926 6.50037 29.3843 6.56227 29.3761C6.4921 29.3578 6.40428 29.3394 6.20058 29.3816L6.39493 29.3657C6.19986 29.4168 6.23297 29.523 5.91555 29.52C6.10881 29.5571 6.22433 29.5141 6.33122 29.4621C6.06418 29.5831 6.33698 29.6121 6.14947 29.725C6.247 29.6994 6.47697 29.6663 6.47661 29.6839C6.25276 29.8494 6.84658 29.7049 6.94159 29.8028C6.65763 29.8884 6.23512 29.8492 6.4982 29.9222C6.31142 29.9998 5.99435 29.9793 5.83564 29.9778C6.21389 30.0254 5.60243 30.1697 5.54845 30.2221L5.39045 30.1854C5.47827 30.2038 5.48654 30.2303 5.48618 30.248L5.86659 30.1897C5.79533 30.2243 5.80361 30.2509 5.64454 30.2671C5.89142 30.2693 6.28118 30.1847 6.63352 30.2056C6.43845 30.2567 6.85197 30.3046 6.34812 30.3617C6.51835 30.231 5.83528 30.4275 5.7489 30.3385C5.81044 30.3479 5.81872 30.3745 5.74746 30.4091C5.68556 30.4173 5.64165 30.4081 5.60638 30.4078C5.16228 30.5624 6.17969 30.4042 6.18617 30.5189C5.90365 30.534 5.64669 30.5933 5.70823 30.6027C5.70931 30.5498 6.18581 30.5365 6.4147 30.5563C6.19228 30.6512 6.58096 30.6195 6.56261 30.6546L6.6695 30.6027C6.95201 30.5877 6.92466 30.6315 7.02075 30.6765C6.79978 30.7009 6.86276 30.6397 6.76523 30.6653C7.27663 30.67 6.25886 30.8458 6.60183 30.8931C6.40677 30.9442 6.06272 30.9498 5.92956 30.9927C6.3078 31.0403 5.54771 31.1215 5.85505 31.186C6.23546 31.1278 6.14729 31.127 6.52589 31.1569L6.24626 31.0309L6.80985 31.0713C6.81093 31.0184 6.5644 30.9985 6.61803 30.9637C6.93509 30.9843 6.84692 30.9835 7.16542 30.9335C6.59859 31.0517 7.51631 31.0249 7.13483 31.136L6.1804 31.2331C5.76292 31.3791 6.68892 31.3788 6.46506 31.5443L6.63385 31.4841C7.01354 31.4611 6.69395 31.564 6.85194 31.6007C6.5338 31.6331 6.42727 31.6674 6.22357 31.7096C6.46218 31.6853 6.20378 31.8152 6.8487 31.7594L6.44094 31.8615C6.27071 31.9922 7.35722 31.9052 7.26653 32.0278C6.91384 32.0246 6.69178 32.1019 6.44598 32.0467C6.44526 32.082 6.39164 32.1168 6.60361 32.1011C6.39991 32.1433 7.0434 32.158 6.74217 32.2258C6.88324 32.2271 7.21902 32.1949 7.20031 32.2476C7.13841 32.2559 7.04123 32.2638 7.04123 32.2638C7.20031 32.2476 7.26077 32.3099 7.6149 32.2426C7.12797 32.3351 7.15208 32.45 7.19418 32.5474C7.23629 32.6447 7.29639 32.7246 6.88719 32.8972C6.99983 32.9953 7.11248 33.0933 7.14595 33.1818C7.04842 33.2073 6.98615 33.2332 7.02214 33.1983C6.74358 33.4514 7.92655 32.9597 7.62136 33.2214C7.12183 33.499 7.33849 33.2541 7.15962 33.3759C6.64389 33.5828 6.68708 33.6273 6.78353 33.6546C6.87998 33.6819 7.02105 33.6832 6.72594 33.8833L6.6644 33.8739C6.49417 34.0046 6.59962 34.0232 6.73206 34.0156C6.8645 34.008 7.0412 33.992 7.00413 34.0799C7.00413 34.0799 6.90624 34.123 6.85262 34.1578C7.37698 33.9598 7.56124 34.0056 7.70196 34.0245C7.30932 34.2502 7.48854 34.1108 7.09446 34.4069C7.156 34.4163 7.72967 33.9631 7.85275 33.9818C7.64617 34.1651 7.46551 34.3751 7.04443 34.6975L7.01996 34.6002C6.75076 34.827 6.75003 34.8623 6.82057 34.8629C6.88247 34.8547 7.007 34.8029 6.95265 34.873L6.7198 35.0472C6.81409 35.1803 7.41512 34.6832 7.38452 34.8857L7.56447 34.711C7.85994 34.4933 7.77861 34.5896 7.68827 34.6945C7.58894 34.8083 7.47161 34.9394 7.69547 34.774L7.11027 35.3594C7.18153 35.3248 7.33305 35.2468 7.48457 35.1688C7.63608 35.0908 7.76996 35.0127 7.83186 35.0045C7.39135 35.4149 7.15166 35.492 6.8839 35.6483C6.88246 35.7188 6.94148 35.8516 7.23803 35.581C7.18441 35.6158 7.03217 35.729 7.12287 35.6064C7.58929 35.2227 7.83078 35.0574 7.82826 35.1808C7.07967 35.9939 7.20239 36.0303 7.12717 36.2589C7.15272 36.3032 7.12393 36.4176 6.87848 36.7769C7.21894 36.5155 7.28876 36.5514 7.3485 36.6489C7.40824 36.7464 7.45826 36.888 7.64468 36.828C8.18598 35.8013 7.75121 36.7937 8.39004 35.7414C8.48865 35.663 8.50592 35.6808 8.46921 35.751C8.40335 35.9532 8.34613 36.1643 8.30689 36.3579C8.19496 36.6567 8.11687 36.5942 7.97974 36.831C8.11074 36.894 7.81203 37.2704 7.77999 37.5434C7.95526 37.1659 8.12622 36.9999 8.14997 37.1324C8.17948 36.9828 8.21799 36.8244 8.2565 36.6661C8.51815 36.3775 8.44329 36.5884 8.3947 36.8084C8.33747 37.0195 8.29788 37.2308 8.55053 36.9509L8.33207 37.284C8.44004 37.1792 8.55484 37.1714 8.71535 37.0847C8.86723 36.9891 9.03818 36.8231 9.23181 36.4105C9.21165 36.5337 9.14435 36.8065 9.06337 36.8851C9.19473 36.9304 9.42866 36.7033 9.60897 36.5109C9.79792 36.3275 9.94188 36.1877 10.0074 36.4352L9.94943 36.6816C10.0128 36.6028 10.1089 36.2157 10.1395 36.4452C10.1197 36.5509 10.0815 36.6916 10.1078 36.7007C10.1448 36.6128 10.2931 36.2615 10.3522 36.3943L10.2758 36.6758C10.405 36.8268 10.5411 36.6429 10.6429 36.4058C10.7448 36.1686 10.8215 35.8696 10.9114 35.7822C10.9305 36.1439 10.9964 36.3738 11.0726 36.5243C11.0982 36.5687 11.1065 36.5952 11.1234 36.6306C11.1403 36.6661 11.1486 36.6926 11.1659 36.7104C11.1914 36.7547 11.2083 36.7901 11.2342 36.8168L11.2411 36.9139C11.4336 36.9862 11.5096 36.2903 11.6654 36.0007C11.8439 36.7607 12.0652 36.2866 12.2772 36.7029C12.2444 36.5792 12.2355 36.1559 12.2635 36.0768C12.3136 36.2183 12.3355 35.5748 12.3841 36.2189L12.3668 36.2012C12.4597 36.8369 12.5162 36.661 12.5953 36.6706L12.5335 35.8147C12.8084 37.034 12.9405 35.3158 13.1384 36.4198C13.1604 36.2084 13.2133 36.2089 13.2356 35.9799L13.2705 36.4299C13.3918 36.5368 13.4612 36.5903 13.5872 36.4681L13.5894 36.7943C13.6772 36.8128 13.5811 35.4716 13.6524 35.437L13.7355 36.1167C13.8683 36.0915 14.068 36.6753 14.1515 36.0412C14.1584 36.1382 14.172 36.3323 14.1537 36.3674C14.2152 36.3768 14.4445 36.811 14.3401 35.8754C14.3894 36.4842 14.4891 35.9208 14.5388 35.6479L14.5647 36.1067C14.5766 35.5248 14.5708 35.3749 14.6449 35.1992C14.6701 35.2612 14.6906 35.5523 14.6575 35.4462C14.741 35.6762 14.6752 35.0143 14.7763 35.2445L14.7615 35.5353C14.8404 35.5625 14.817 35.4124 14.8328 35.0687C14.863 34.8838 14.9807 35.167 15.0253 35.573C15.0128 35.326 15.0196 34.991 15.079 35.1062C15.1024 35.2563 15.0916 35.3532 15.0905 35.4061C15.2344 35.6984 15.2251 34.8607 15.3485 35.2938C15.3633 35.4351 15.3705 35.5145 15.387 35.5675C15.2902 35.5578 15.211 35.5483 15.2118 35.513C15.2474 35.9278 15.3255 35.9902 15.3136 36.5721C15.3553 36.255 15.396 35.5588 15.4892 35.7448C15.4972 35.789 15.4964 35.8242 15.504 35.886L15.5029 35.9389C15.5198 35.9744 15.5382 35.9393 15.5396 35.8687C15.5648 35.9307 15.5814 35.9837 15.6166 35.9841C15.6537 36.3283 15.7188 36.1614 15.7627 36.1706C15.7192 35.7117 15.7793 35.7916 15.6987 35.4205C15.707 35.447 15.6976 35.4734 15.6706 35.4996C15.6703 35.5172 15.6613 35.526 15.6609 35.5436C15.6613 35.526 15.6526 35.5171 15.6616 35.5083C15.6436 35.5258 15.5994 35.5342 15.5637 35.5515C15.5774 35.3136 15.59 35.1285 15.6555 35.376C15.6526 35.085 15.6498 34.794 15.644 34.6441C15.7458 35.271 15.8801 35.6073 15.9251 35.9957C16.0186 35.732 16.1935 35.8042 16.1936 34.9401C16.2224 34.8257 16.2504 35.1787 16.2742 35.3111C16.2547 35.3991 16.2375 35.3814 16.2436 35.5137C16.2922 35.2937 16.4397 35.4097 16.3991 34.8097C16.5085 35.0664 16.3965 35.3652 16.5045 35.2604L16.5095 35.4456C16.8169 36.3742 16.7528 33.8959 17.1077 35.0895C17.0828 35.01 17.0746 34.9834 17.0591 34.8775C17.3927 35.3831 17.6087 34.3094 17.9621 35.1415C18.0556 35.3099 18.0369 34.9305 18.0607 34.6309L18.1125 35.1164L18.1507 34.5436C18.2298 34.1211 18.4529 35.7191 18.5397 34.9263L18.4846 34.5996C18.5451 34.6618 18.6477 34.3894 18.6664 34.7688C18.6674 34.7159 18.6556 34.4336 18.6876 34.5926L18.7088 34.8485L18.8064 34.3909C18.9262 34.5683 18.8827 35.4056 19.032 35.4334C19.0781 35.3369 19.1357 34.6761 19.095 34.5082C19.0687 34.4991 19.0187 34.3576 18.9975 34.1017L19.0356 33.9609C18.9806 33.2021 18.9522 32.4348 18.7863 31.9218L18.7326 32.3887L18.6783 32.0266L18.7496 31.992C18.6772 31.6475 18.6797 31.9561 18.6664 32.1764C18.6437 31.991 18.6114 31.8497 18.5952 31.779L18.5714 32.5106C18.5333 32.2193 18.557 31.9197 18.4897 31.7604C18.4829 32.0954 18.5822 32.4137 18.5422 32.6426C18.4786 32.307 18.4667 32.0247 18.4343 32.3154C18.4116 32.13 18.4055 31.9977 18.4249 31.9097C18.3936 32.1475 18.317 32.0145 18.3263 32.4202C18.2468 31.9962 18.1827 32.5423 18.1266 31.8364C18.132 32.004 18.0974 32.4005 18.0614 32.4354C18.0615 31.5713 17.9034 32.3987 17.8516 31.4812C17.8624 32.2484 17.6767 31.8411 17.6238 32.2727C17.6163 32.2109 17.6188 32.0875 17.6357 32.1229C17.5752 32.0606 17.5446 31.8311 17.4946 31.6895C17.5436 32.316 17.4698 32.4741 17.4529 32.8707C17.333 32.2612 17.4327 32.1298 17.3654 31.5384C17.4079 32.0503 17.2931 32.058 17.355 32.4818C17.2744 32.1108 17.297 32.2961 17.2193 31.784C17.2736 32.5781 17.1812 31.9247 17.1801 32.4097C17.0732 32.0296 17.098 31.6771 17.0401 31.9234C16.8594 31.7013 16.9094 31.4108 16.9094 31.4108ZM15.0963 32.9637C15.0877 32.9548 15.0877 32.9548 15.0963 32.9637C15.1143 32.9462 15.1233 32.9375 15.1323 32.9288C15.1146 32.9286 15.1056 32.9373 15.0963 32.9637ZM14.9282 32.9886C14.9455 33.0064 14.9808 33.0067 15.0074 32.9982C15.0218 33.157 15.0362 33.3159 15.0185 33.3157C15.0121 33.201 14.961 33.1124 14.9282 32.9886ZM15.5349 36.0979C15.5159 36.1683 15.5 36.08 15.4932 35.9829C15.5022 35.9742 15.5202 35.9567 15.5385 35.9216C15.5389 35.904 15.5393 35.8864 15.5396 35.8687C15.5378 35.9569 15.5364 36.0274 15.5349 36.0979Z" fill="#FF7777"/>
<path d="M15.5296 35.4983C15.5386 35.4896 15.5303 35.4631 15.5303 35.4631C15.5224 35.4189 15.5141 35.3924 15.5059 35.3658C15.5048 35.4187 15.5127 35.4629 15.503 35.5069C15.5206 35.5071 15.5296 35.4983 15.5296 35.4983Z" fill="#FF7777"/>
<path d="M6.90248 27.4217C6.90248 27.4217 6.92912 27.4131 6.96439 27.4134C6.92012 27.4218 6.91148 27.4129 6.90248 27.4217Z" fill="#FF7777"/>
<path d="M12.6133 32.3325L12.6198 32.4472L12.6306 32.3503L12.6133 32.3325Z" fill="#FF7777"/>
<path d="M8.37822 26.386C8.42248 26.3776 8.45775 26.378 8.49338 26.3606C8.45811 26.3603 8.42248 26.3776 8.37822 26.386Z" fill="#FF7777"/>
<path d="M8.44847 25.9899L8.60862 25.9208C8.51109 25.9464 8.47546 25.9637 8.44847 25.9899Z" fill="#FF7777"/>
<path d="M8.64008 25.6655C8.55191 25.6647 8.49864 25.6818 8.44574 25.6814L8.64008 25.6655Z" fill="#FF7777"/>
<path d="M9.58511 30.3296C9.58511 30.3296 9.59374 30.3385 9.61138 30.3386C9.69056 30.3482 9.65529 30.3479 9.58511 30.3296Z" fill="#FF7777"/>
<path d="M8.404 29.0226C8.48317 29.0322 8.57134 29.033 8.62388 29.0511C8.65087 29.0249 8.66023 28.9985 8.404 29.0226Z" fill="#FF7777"/>
<path d="M8.61425 29.1127C8.70313 29.0782 8.68586 29.0604 8.61568 29.0421C8.58869 29.0683 8.55271 29.1033 8.61425 29.1127Z" fill="#FF7777"/>
<path d="M8.74605 24.3702L8.76404 24.3527C8.72877 24.3524 8.71114 24.3522 8.69351 24.3521L8.74605 24.3702Z" fill="#FF7777"/>
<path d="M8.69373 24.3519L8.63219 24.3425C8.63219 24.3425 8.64083 24.3514 8.69373 24.3519Z" fill="#FF7777"/>
<path d="M8.51751 24.3151L8.6316 24.3426C8.63196 24.325 8.64996 24.3075 8.51751 24.3151Z" fill="#FF7777"/>
<path d="M8.56139 24.7741L8.7291 24.7668C8.69383 24.7665 8.64093 24.766 8.56139 24.7741Z" fill="#FF7777"/>
<path d="M8.62022 24.8894C8.65621 24.8544 8.96643 24.7779 8.86099 24.7593L8.72855 24.7669C8.98443 24.7605 8.34671 24.8957 8.62022 24.8894Z" fill="#FF7777"/>
<path d="M6.63093 25.5763L6.74789 25.4628C6.57082 25.4964 6.3405 25.5472 6.29731 25.5027C5.79095 25.6832 6.69535 25.4447 6.63093 25.5763Z" fill="#FF7777"/>
<path d="M6.40352 25.9182C6.32506 25.8734 6.14727 25.9423 6.0501 25.9502C6.20846 25.9693 6.26136 25.9698 6.40352 25.9182Z" fill="#FF7777"/>
<path d="M6.58665 28.1596L6.17134 28.1999C6.24152 28.2182 6.33941 28.175 6.58665 28.1596Z" fill="#FF7777"/>
<path d="M8.76036 28.3823L9.00868 28.314L8.638 28.3283L8.76036 28.3823Z" fill="#FF7777"/>
<path d="M5.83938 28.9198L5.78684 28.9017L5.94447 28.956L5.83938 28.9198Z" fill="#FF7777"/>
<path d="M6.31568 32.8303L6.81197 32.7114C6.72416 32.693 6.16669 32.7849 6.31568 32.8303Z" fill="#FF7777"/>
<path d="M7.03662 35.0854C6.80268 35.3125 6.64828 35.5315 6.88977 35.3662C6.90921 35.2782 7.09888 35.0595 7.03662 35.0854Z" fill="#FF7777"/>
<path d="M12.5203 36.4495L12.5081 36.617L12.5638 36.4764L12.5203 36.4495Z" fill="#FF7777"/>
<path d="M7.28686 33.6328C7.35488 33.7569 7.55282 33.9968 7.56325 33.9175L7.27246 33.474L7.28686 33.6328Z" fill="#FF7777"/>
<path d="M8.19338 34.1703C8.09261 33.9225 7.87165 33.5149 7.53516 33.1503C7.79931 33.6024 7.65283 33.4335 7.97709 33.9655C7.97528 34.0537 7.79318 33.9021 7.68198 33.7336C7.75 33.8576 7.54162 33.697 7.72084 33.9896C8.0325 34.2747 8.12176 34.2226 7.98752 33.8863C8.06526 33.9663 8.13328 34.0904 8.19338 34.1703Z" fill="#FF7777"/>
<path d="M13.1487 31.1915L13.0785 31.1732C13.1134 31.1911 13.131 31.1913 13.1487 31.1915Z" fill="#FF7777"/>
<path d="M16.0309 29.0841C16.0215 29.1104 16.047 29.1548 16.0726 29.1991C16.0737 29.1462 16.0658 29.102 16.0309 29.0841Z" fill="#FF7777"/>
<path d="M16.8687 29.1004C16.8511 29.1003 16.8334 29.1001 16.8158 29.0999C16.8593 29.1268 16.8856 29.1358 16.8687 29.1004Z" fill="#FF7777"/>
<path d="M13.1487 31.1913L13.3326 31.2547C13.2207 31.1214 13.2016 31.1918 13.1487 31.1913Z" fill="#FF7777"/>
<path d="M8.01172 32.6697C8.011 32.7049 8.03655 32.7493 8.06174 32.8112C8.05346 32.7847 8.06282 32.7583 8.06318 32.7407C8.03727 32.714 8.02899 32.6875 8.01172 32.6697Z" fill="#FF7777"/>
<path d="M12.2305 32.5496L12.2125 32.567C12.2467 32.6202 12.2895 32.6824 12.3323 32.7445L12.2305 32.5496Z" fill="#FF7777"/>
<path d="M11.3404 33.3615C11.3756 33.3618 11.092 32.9977 10.9805 32.8468C11.083 33.0065 11.1255 33.0862 11.1334 33.1304C11.1762 33.1925 11.254 33.2725 11.3404 33.3615Z" fill="#FF7777"/>
<path d="M9.35352 33.943L9.36971 34.0137C9.36143 33.9872 9.36179 33.9695 9.35352 33.943Z" fill="#FF7777"/>
<path d="M12.9542 32.0712C12.9974 32.1157 13.0406 32.1602 13.0665 32.1869C13.0323 32.1337 12.9977 32.0981 12.9542 32.0712Z" fill="#FF7777"/>
<path d="M31.7213 4.84743C31.7562 4.86538 31.7648 4.87428 31.7911 4.88334C31.7652 4.85665 31.7303 4.83869 31.7213 4.84743Z" fill="#FF7777"/>
<path d="M34.3206 4.51873L34.3289 4.54526C34.4077 4.57244 34.4951 4.60851 34.574 4.63568L34.3206 4.51873Z" fill="#FF7777"/>
<path d="M18.0836 28.7675C18.075 28.7586 18.075 28.7586 18.0836 28.7675C18.0915 28.8117 18.1005 28.803 18.0836 28.7675Z" fill="#FF7777"/>
<path d="M25.1178 21.1784C24.7335 20.9986 24.8544 20.6911 24.3991 20.5282C24.547 20.6265 24.8195 21.1052 25.1178 21.1784Z" fill="#FF7777"/>
<path d="M8.07365 32.6967C8.08264 32.688 8.10064 32.6705 8.10963 32.6618C8.07437 32.6615 8.06537 32.6702 8.07365 32.6967Z" fill="#FF7777"/>
<path d="M24.3998 20.5106L24.3472 20.4924C24.3735 20.5015 24.3821 20.5104 24.3998 20.5106Z" fill="#FF7777"/>
<path d="M19.7905 26.7995C19.7387 26.7461 19.6865 26.7103 19.6343 26.6746C19.6689 26.7102 19.7124 26.737 19.7905 26.7995Z" fill="#FF7777"/>
<path d="M17.9484 27.638L18.0276 27.6475C17.9837 27.6383 17.966 27.6381 17.9484 27.638Z" fill="#FF7777"/>
<path d="M20.0533 25.6292C20.0972 25.6384 20.1494 25.6741 20.1332 25.6035C20.1159 25.5857 20.0983 25.5855 20.0896 25.5766C20.1238 25.6298 20.1231 25.6651 20.0533 25.6292Z" fill="#FF7777"/>
<path d="M20.7909 24.895C20.765 24.8684 20.7387 24.8593 20.7125 24.8502C20.7121 24.8679 20.7031 24.8766 20.7028 24.8942L20.7909 24.895Z" fill="#FF7777"/>
<path d="M30.529 7.54362C30.6427 7.58875 30.7827 7.64294 30.9137 7.70586C30.6168 7.56206 30.5942 7.37668 30.529 7.54362Z" fill="#FF7777"/>
<path d="M8.16681 32.8652C8.09807 32.7764 8.07288 32.7144 8.07324 32.6968C8.06424 32.7055 8.06388 32.7231 8.06352 32.7408C8.09771 32.794 8.14089 32.8385 8.16681 32.8652Z" fill="#FF7777"/>
<path d="M17.5744 23.058L17.7346 22.9889C17.6727 22.9972 17.6194 23.0143 17.5744 23.058Z" fill="#FF7777"/>
<path d="M26.6154 13.486L26.5988 13.4329C26.5812 13.4327 26.5808 13.4504 26.6154 13.486Z" fill="#FF7777"/>
<path d="M18.0245 22.6038C18.1548 22.7019 18.2422 22.738 18.3124 22.7563C18.2865 22.7296 18.2782 22.7031 18.2437 22.6675L18.0245 22.6038Z" fill="#FF7777"/>
<path d="M30.4749 6.29971C30.3932 6.41359 30.9619 6.63924 31.2491 6.82704C31.3059 7.06563 30.8197 6.69084 30.5307 6.5912C30.6153 6.76832 31.0583 7.09863 30.9953 7.15978C30.9079 7.12371 30.864 7.11449 30.7686 7.03425C31.1321 7.37265 30.6124 7.34143 31.0626 7.75117C31.0101 7.73305 30.9665 7.7062 30.9226 7.69698C31.1933 7.83172 31.4549 7.9752 31.6467 8.08277C31.619 8.14424 31.9051 8.38494 31.556 8.20538C31.583 8.17918 31.4524 8.09862 31.357 8.01839L31.4686 8.16931C30.9528 7.94415 31.3487 7.99186 30.9914 7.78578C31.0752 7.99817 31.3941 8.36261 31.1997 8.37847C30.72 8.11836 31.1619 8.06951 30.6793 7.95046L30.9446 7.91762C30.1399 7.59281 31.0515 7.86569 30.1859 7.49624C29.9369 7.59976 30.3112 7.84127 30.0621 7.9448C30.305 8.14101 30.4634 8.1601 30.6887 8.35615C31.0039 8.8969 29.3848 7.85923 29.8937 8.4194C30.1798 8.66009 30.7628 9.04459 30.3583 8.98798L29.8631 8.62192C29.7015 8.76152 30.5569 9.1926 30.0815 9.15297C29.8908 8.99251 29.9984 8.90532 29.9192 8.89578C29.4193 8.75893 30.1607 9.16251 30.106 9.25019L29.6353 8.98135C29.5953 9.21024 29.7896 9.62644 29.749 9.89059C29.6187 9.7924 29.4978 9.66785 29.3311 9.62224C29.3934 10.0284 28.9237 10.1387 28.4814 10.2052L28.8093 10.5609C28.7913 10.5784 28.6081 10.4797 28.539 10.4085C28.3274 10.4066 28.7913 10.5784 28.9029 10.7293C28.8924 10.8086 28.6311 10.6475 28.5275 10.5407C28.7488 10.9307 28.9046 11.5053 28.3688 11.4034L28.2741 11.2879C28.0179 11.312 28.9651 11.9996 28.5091 11.872L28.4576 11.801C28.0747 11.9826 28.2125 12.5747 27.4492 12.3825C27.9693 12.8281 26.9796 12.4928 27.735 13.0729C27.2257 12.9624 27.1228 12.8204 26.6985 12.8694C26.6182 12.9127 27.1127 13.3141 27.1275 13.4553L26.719 13.1606L27.0544 13.5781L26.5401 13.2824L26.5811 13.4326C26.6254 13.4242 26.809 13.5053 26.913 13.5944C27.0047 13.8509 26.4264 13.6693 26.2267 13.5176L26.3569 14.0478C26.2007 13.9229 26.1849 13.8346 26.1079 13.7193C26.4073 14.1717 25.6728 13.4331 25.9467 13.8412C26.0514 13.8951 26.1809 14.0286 26.25 14.0997C25.9614 13.9825 25.8437 14.1313 25.8664 14.3166L25.6066 14.085C25.3831 14.2329 25.4021 14.5945 25.2301 14.8134C25.4237 14.8328 25.8656 15.216 25.8635 15.3218L25.4287 15.018C25.6443 15.2581 25.6393 15.0729 25.8793 15.4101C25.7638 15.4532 25.3654 15.0968 25.2715 14.9461L25.3377 15.1583C25.216 15.069 25.1646 14.998 25.0174 14.8644C25.2416 15.1133 24.465 14.7094 24.8623 15.1186L24.7406 15.0294C24.56 15.2393 24.6172 15.4603 24.5074 15.6533C24.8543 15.9386 24.7219 15.9462 24.963 16.2306C24.7417 16.2726 24.3465 16.1897 24.2458 16.3739C24.3375 16.6304 24.5135 16.6497 24.6765 16.8716C24.3555 16.613 24.2547 16.7972 24.0928 16.5224C23.9823 16.7506 23.9546 16.8121 24.0071 17.2623C24.1554 17.343 24.2432 17.3614 24.3292 17.468C24.3451 17.5564 24.109 17.4572 23.9618 17.3236L23.9362 17.2793C24.1784 17.9428 22.4934 17.1073 22.9717 17.87L22.9462 17.8257L23.0944 18.3385C22.9523 18.3901 22.9145 18.0811 22.6608 17.9818C22.9818 18.6725 22.2667 18.278 22.4416 18.7822C21.4055 18.129 22.0417 19.3605 21.2723 19.036L21.4979 19.2144C21.6606 19.454 21.3227 19.1599 21.2345 19.1591C21.408 19.3017 21.4702 19.2759 21.5645 19.409C21.4187 20.069 20.4323 20.007 19.8449 20.2661C19.6398 20.3789 20.8364 21.3774 20.1541 21.1066L19.8277 20.6804C19.9079 21.0691 19.746 21.2263 19.593 21.3748C19.4224 21.5232 19.2432 21.6626 19.2802 22.0068C19.2119 21.9004 19.0996 21.7847 19.1266 21.7585C18.7868 21.5526 18.875 21.9855 19.0909 22.2079C19.02 22.2249 18.8743 22.0207 18.735 21.9313C18.5076 21.841 18.9275 22.4357 18.6148 22.2035C18.5626 22.1678 18.5464 22.0971 18.5295 22.0617C18.6231 22.2301 18.297 22.2183 18.6529 22.4949C18.3891 22.4572 18.5662 22.8556 18.2948 22.7561C18.5863 23.1644 17.9328 22.7792 18.4071 23.3038C17.8975 22.7789 17.7942 23.0866 17.9641 23.4056C17.8356 23.2192 17.7456 23.3066 17.5567 23.058C17.4844 23.1455 17.4984 23.3219 17.7755 23.5714C17.0179 23.0971 17.9529 24.3842 17.0946 23.6621C17.1068 23.9268 17.1108 24.1649 17.0802 24.3674C17.0582 24.5788 17.0104 24.7635 16.9538 24.9394C16.4532 24.4057 17.1626 24.6503 16.6181 24.1074C16.6094 24.5306 16.9153 25.0977 16.5698 25.1739C16.4468 25.1552 16.3899 24.9166 16.3215 24.8101C16.3129 25.2333 15.8558 25.1586 15.9256 25.6265C15.8824 25.582 15.8576 25.5025 15.8324 25.4405C15.8137 25.4932 15.6647 25.4478 15.8979 25.688L15.8734 25.5908C16.2643 25.8853 16.4025 26.4597 16.5748 26.6553C15.9994 25.9005 16.2132 26.6608 15.5099 25.6844C15.5261 25.7551 15.6024 25.9057 15.7583 26.0482C15.6791 26.0387 15.5751 25.9496 15.4473 25.7279C15.4333 25.9835 15.7198 26.2066 15.5942 26.3112C15.4819 26.1956 15.4657 26.1249 15.3541 25.974C15.5071 26.2575 15.651 26.5498 15.457 26.5481C15.3969 26.4682 15.3016 26.3879 15.3286 26.3617C15.1745 26.5631 15.5747 27.2634 15.1698 27.2244C14.7581 26.6563 14.9427 27.1165 14.5371 26.6807L14.5501 26.9101L14.7934 27.0887C14.6948 27.1671 14.9071 27.5659 14.6879 27.5021L14.5872 27.2543L14.4939 27.5003L14.748 27.582C14.865 27.9005 15.2659 28.1335 15.0366 28.1314C15.0205 28.0607 14.938 28.2098 14.6516 27.9867C14.7271 28.1726 14.8114 28.3674 14.6447 28.3217C14.4975 28.1881 14.2143 27.8064 14.1189 27.7262C14.4014 28.1432 13.9894 28.0248 14.2798 28.4859C14.2204 28.3708 14.0135 28.1396 13.9527 28.095L14.1837 28.441C14.0527 28.378 14.0005 28.3423 13.8458 28.1469C13.6593 28.2069 14.3993 28.681 14.0135 28.5717C13.9966 28.5362 13.9534 28.4918 13.9458 28.43C13.6723 28.4363 13.804 28.896 13.5222 28.8758C13.081 28.4573 13.5532 28.6556 13.1634 28.3082C13.0256 28.5802 13.1972 29.2431 12.896 29.3109L12.9838 29.3293C13.5168 30.0044 12.5555 29.1403 12.715 29.5385C12.6988 29.4678 12.4407 29.148 12.5008 29.2279C12.2712 29.2435 12.3515 29.6322 12.3083 30.0197L12.1888 29.8247C11.9786 29.7522 11.8955 29.9366 11.7458 29.9264C11.8566 30.1126 11.7857 30.1296 12.0193 30.3522C10.9317 29.628 11.9199 31.33 10.9972 30.7396C11.0242 30.7134 10.9486 30.5275 10.9216 30.5537L10.8356 30.8792C11.0857 31.1548 11.0001 31.0306 11.2343 31.2179C11.3452 31.4041 11.3941 31.5985 11.3405 31.6333C11.2844 31.3594 10.9619 31.1713 10.7881 31.0463C10.8658 31.1263 10.9342 31.2328 11.0116 31.3305C10.4822 30.9112 11.4668 31.9254 11.0303 31.7098L10.9101 31.55C10.9075 31.6734 11.0259 31.9214 10.9288 31.9293C10.6265 31.6179 10.8626 31.7171 10.6387 31.4505C10.5664 31.538 10.9846 32.2208 10.6373 31.9531C10.6045 31.8293 10.6495 31.7857 10.6168 31.6619C10.2176 31.3408 10.286 31.4473 10.1716 31.4374L10.1892 31.4376L9.8995 31.3732L10.0215 31.4448C10.6193 32.4026 9.92649 31.779 10.2475 32.4697C9.9524 31.8057 10.0161 32.1414 9.72423 31.7507C9.60223 31.6791 9.44496 31.6071 9.37694 31.483C9.55472 31.8462 9.0624 31.3391 9.32511 31.8617C9.22182 31.7373 9.24485 31.905 9.01309 31.5943C9.00085 31.7617 9.20311 31.79 9.32331 31.9499C9.52411 32.4807 8.59633 31.7051 8.84572 32.4481C8.86443 32.8274 9.15521 33.2709 9.166 33.6061C8.94863 33.4542 8.84967 33.1182 8.84967 33.1182C8.62258 33.0103 8.57687 33.0893 8.60782 33.3012C8.5398 33.1771 8.45307 33.1058 8.31451 32.9811C8.27744 33.0689 8.62221 33.46 8.39512 33.3521C8.30119 33.2014 8.14716 32.9707 8.07123 32.8025C8.08526 32.979 8.19394 33.2709 8.19034 33.4473C8.00032 33.2515 7.97729 33.0838 7.90136 32.9156C7.88912 33.083 7.8229 33.3028 8.05358 33.6664L8.21085 33.7384C8.1835 33.7823 7.96073 33.4628 7.9449 33.3745C7.81066 33.0382 8.14716 33.4028 8.25044 33.5272L8.25656 33.6595C8.88635 34.3442 8.39512 33.3521 8.54592 33.3094L8.91371 33.8683L8.69527 33.3373C8.82519 33.4531 9.07531 33.7287 9.08142 33.861C9.36861 34.0488 9.00693 33.6223 9.31103 33.8455C9.35422 33.89 9.37149 33.9078 9.37977 33.9343L9.34019 33.7135C9.4082 33.8376 9.65041 34.0691 9.53632 34.0416C9.92068 34.2214 9.46004 33.4589 9.83216 33.8062L9.84007 33.8504C9.90882 33.5071 9.55721 33.451 9.34848 32.8759L10.2039 33.7391L9.92106 33.3397C9.95633 33.34 10.0182 33.3318 10.1384 33.4916C10.0128 33.1642 9.9916 33.3403 9.83865 33.0568C10.2212 33.3248 9.98765 32.6702 10.4958 33.2656C10.2907 32.9463 10.2165 33.122 10.1608 32.8305C10.7211 33.4616 10.2003 32.6192 10.5307 32.8515C10.779 33.2153 10.5433 33.0985 10.8737 33.3308C10.4631 32.7098 11.1562 33.3157 11.1422 33.1393C10.7722 32.6862 11.1577 32.8132 11.1717 32.5576C11.2919 32.7174 11.6205 32.6058 11.8749 32.6698L11.935 32.7497C11.5831 32.2792 11.7774 32.2633 11.7896 32.0959C12.0045 32.3712 12.0901 32.4955 12.1398 32.6546L12.2294 32.5849C12.1268 32.4253 12.0937 32.3191 12.1045 32.2222L12.3619 32.5773C12.4612 32.4636 12.2679 31.9945 12.5922 32.0945C12.3342 31.7747 11.7439 31.3107 11.7155 30.9754C11.862 31.1443 12.1207 31.4288 12.1362 31.5348C12.1369 31.4995 12.0606 31.3489 12.1477 31.4026L12.3259 31.7481C12.5008 31.8203 12.1549 31.482 12.2348 31.4563C12.4414 31.7051 12.4259 31.5992 12.5717 31.8033C12.571 31.8386 12.4407 31.7404 12.5001 31.8555C12.5972 31.8476 12.7894 31.9375 12.9625 32.0979C12.842 31.9557 12.6868 31.7779 12.6973 31.6986C12.7966 31.5849 12.983 31.957 13.1579 32.0291C13.0385 31.834 13.2566 31.9507 12.9553 31.5864C12.9823 31.5602 13.1378 31.7203 13.2328 31.8182C13.149 31.6058 13.4678 31.5382 13.0777 31.2083L13.0428 31.1904C13.0342 31.1815 13.0432 31.1728 13.0345 31.1639C12.9129 30.6425 13.6017 31.028 13.6611 30.7111L13.7644 30.8355C13.7604 30.5974 13.9468 30.5374 13.8036 30.2098C13.8306 30.1836 14.0739 30.3622 14.1855 30.5131C14.1977 30.3457 14.0858 30.2124 14.3751 30.2944C14.4752 30.5775 14.5659 30.4549 14.4233 30.5241C14.626 30.5348 14.8167 30.6952 14.649 30.2705C14.88 30.6165 15.0747 30.583 15.0424 30.4416L14.7721 30.2892C14.8005 30.1925 14.8714 30.1755 14.9423 30.1585L15.2687 30.5848C15.9331 30.873 14.9492 29.3915 15.8438 30.061C15.6567 29.7242 15.5459 29.9701 15.3065 29.5975C15.4573 29.5548 16.0825 30.0367 16.1094 30.0105C16.4513 30.1106 15.7269 29.3104 16.0087 29.3306C15.8615 29.197 15.4984 28.841 15.4944 28.6029C15.6452 28.5602 16.1548 29.0851 16.1955 29.253C16.1771 29.2881 16.1249 29.2523 16.0907 29.1991C16.1066 29.2874 16.1134 29.3845 16.2962 29.5008L16.1847 29.3499C16.3679 29.4486 16.4942 29.3086 16.6741 29.566C16.6342 29.3628 16.5032 29.2999 16.3801 29.2811C16.6957 29.3722 16.5867 29.0979 16.8422 29.109C16.7465 29.0464 16.573 28.9038 16.6 28.8775C16.9617 28.872 16.4395 28.5322 16.5226 28.3478C16.8019 28.4914 16.9613 28.8897 16.9412 28.5809C17.1514 28.6533 17.3043 28.9369 17.372 29.0786C17.2474 28.6983 17.7696 29.0382 17.8844 29.0304L17.9251 29.1983C17.9006 29.1011 17.9366 29.0662 17.9636 29.0399L17.6689 28.7904C17.748 28.7999 17.7927 28.7739 17.896 28.8982C17.7682 28.6766 17.4375 28.462 17.2766 28.1343C17.4598 28.2329 17.2914 27.8434 17.6545 28.1995C17.3806 28.2234 18.0176 28.5555 17.9345 28.7399C17.9183 28.6692 17.9453 28.643 18.0331 28.6614C18.0853 28.6972 18.0932 28.7413 18.1101 28.7768C18.5736 28.9662 17.7938 28.2889 17.9554 28.1493C18.127 28.3801 18.3624 28.5146 18.3462 28.4439C18.2746 28.4961 17.9824 28.1231 17.8985 27.9107C18.1529 27.9748 17.8942 27.6902 17.9654 27.6556L17.8337 27.628C17.6621 27.3971 17.733 27.3801 17.7445 27.248C17.9 27.4081 17.7851 27.4159 17.8722 27.4696C17.6077 27.0351 18.406 27.6773 18.2807 27.3323C18.4639 27.4309 18.6521 27.7148 18.7921 27.769C18.659 27.3798 19.1945 27.9314 19.1221 27.5869C18.8184 27.346 18.8789 27.4083 18.7097 27.054L18.6842 27.4418L18.4304 26.9104C18.3588 26.9626 18.4596 27.2105 18.3804 27.2009C18.2275 26.9174 18.2966 26.9885 18.045 26.7834C18.5319 27.1229 17.9827 26.3772 18.3581 26.5658L19.0142 27.2596C19.4604 27.4313 18.9472 26.6506 19.3089 26.6451L19.125 26.5817C18.8843 26.2797 19.2075 26.4326 19.1668 26.2647C19.3824 26.5047 19.5051 26.5411 19.6703 26.6572C19.5062 26.4882 19.8315 26.5353 19.4004 26.0552L19.784 26.2703C20.0579 26.2464 19.3334 25.4462 19.5465 25.3776C19.7433 25.6703 19.9708 25.7606 20.0446 26.0346C20.0986 25.9822 20.1867 25.983 20.0313 25.8229C20.1964 25.939 19.8639 25.3805 20.1248 25.5592C20.0478 25.4439 19.8236 25.1949 19.8949 25.1603C19.9471 25.1961 20.0072 25.276 20.0072 25.276C19.8949 25.1603 19.9503 25.0374 19.6458 24.8318C20.4988 25.3863 20.0082 24.359 20.7482 24.8331C20.7784 24.6482 20.8353 24.4547 20.917 24.3408C20.9771 24.4208 21.0293 24.4565 20.9854 24.4473C21.3366 24.521 20.4182 23.7191 20.8043 23.8108C21.2484 24.0882 20.922 24.094 21.1056 24.175C21.8671 24.8874 21.1909 23.8849 21.7221 24.216L21.7382 24.2867C22.0787 24.4573 21.6508 23.8185 21.8376 23.7409C21.8376 23.7409 21.898 23.8032 21.9499 23.8565C21.6594 23.3954 21.6918 23.1047 21.6965 22.8755C21.9546 23.1953 21.798 23.088 22.119 23.3467C22.1298 23.2498 21.6166 22.9012 21.6382 22.7074C21.8387 22.8239 22.0492 22.8787 22.3872 23.1728L22.3051 23.3043C22.7744 23.6437 22.4228 23.1555 22.5462 23.1566L22.719 23.3345C22.8205 23.115 22.3533 22.6699 22.5502 22.5306L22.3936 22.4234C22.0251 21.8997 22.7255 22.5851 22.4782 22.1684L22.9727 22.5697C22.9144 22.4017 22.7302 21.9238 22.7517 21.7301C23.035 22.1118 23.0904 22.4209 23.2171 22.6954C23.28 22.6343 23.3898 22.4413 23.1919 22.2014C23.2081 22.2721 23.3024 22.4052 23.1973 22.369C22.8971 21.9518 22.8234 21.6778 22.9403 21.5643C23.8224 22.4188 23.4719 21.4457 24.2719 21.9997C24.1417 21.4695 24.8341 21.6786 25.0169 21.3629C24.2165 20.8265 25.063 21.2663 24.3177 20.6246C24.3198 20.5188 24.3554 20.5015 24.4163 20.5461L25.0295 20.7457C25.2912 20.8892 25.14 20.9496 25.3135 21.0922C25.4916 21.0057 25.6795 21.3072 25.9512 21.3891C25.6734 21.1749 25.6151 21.0068 25.7824 21.0172L25.3365 20.8279C25.1094 20.288 26.1049 21.2053 25.8778 20.6654L26.0664 20.9316C26.0091 20.7106 26.3913 20.5643 25.8836 19.9512C25.9883 20.0051 26.2057 20.1569 26.2301 20.2542C26.5245 20.0893 26.0495 19.168 26.5846 19.3051L26.7487 19.4742C26.7329 19.3858 26.4741 19.1013 26.7012 19.2092C26.7793 19.2716 26.8653 19.3782 26.892 19.3697C26.8495 19.2899 26.6707 18.9797 26.8286 19.0164L26.9917 19.2383C27.4333 19.2071 26.7873 18.4517 26.82 18.1434C27.3663 18.5981 27.7025 18.5483 27.8705 18.5233L27.9486 18.5858C28.2445 18.3504 27.8777 17.7386 27.8691 17.2977C28.6033 17.6219 28.5641 16.9514 29.1108 16.9564C28.9704 16.9198 28.6767 16.6173 28.6523 16.5201C28.8192 16.5481 28.3971 16.0593 28.9092 16.4608L28.8826 16.4693C29.4224 16.8093 29.3918 16.5798 29.4732 16.4836L28.8139 15.9485C29.3998 16.1919 29.4401 15.9454 29.4624 15.7163C29.4761 15.4784 29.4631 15.249 29.9605 15.5093C29.841 15.3142 29.8953 15.2442 29.7759 15.0491L30.1408 15.317C30.3636 15.2044 30.4881 15.1526 30.5558 14.8622L30.789 15.1025C30.9059 14.9889 29.8378 14.1767 29.9022 14.045L30.4856 14.4119C30.64 14.1929 31.2727 14.3045 30.9229 13.7282C31.001 13.7906 31.1661 13.9067 31.1651 13.9596C31.2464 13.8634 31.8294 13.8158 31.028 13.3323C31.5325 13.672 31.2349 13.1314 31.0992 12.8657L31.4552 13.1423C31.0492 12.7241 30.9189 12.6259 30.8883 12.3964C30.9589 12.397 31.2112 12.5669 31.0881 12.5481C31.3522 12.5682 30.7948 12.228 31.0859 12.2219L31.2932 12.4354C31.4008 12.3482 31.2702 12.2676 31.0283 12.0185C30.9261 11.8412 31.2695 11.8708 31.6182 12.068C31.4185 11.9163 31.1853 11.6761 31.3267 11.6597C31.4663 11.7316 31.5264 11.8115 31.561 11.8471C31.9407 11.8241 31.308 11.2804 31.7647 11.3728C31.8953 11.4533 31.9565 11.4804 32.0091 11.4985C31.9 11.6562 31.801 11.7523 31.7838 11.7345C32.1318 11.9669 32.2746 11.8801 32.6896 12.2895C32.4924 12.0143 32.036 11.4723 32.2743 11.4656C32.3092 11.4836 32.3531 11.4928 32.4053 11.5286L32.4398 11.5641C32.4927 11.5646 32.4762 11.5116 32.4334 11.4495C32.5129 11.4414 32.5744 11.4507 32.6104 11.4158C32.9156 11.5861 32.8584 11.3652 32.9124 11.3128C32.5291 11.08 32.636 11.0281 32.2768 10.9102C32.3121 10.9105 32.32 10.9546 32.3013 11.0074C32.3009 11.025 32.3006 11.0426 32.3179 11.0604C32.3092 11.0515 32.3006 11.0426 32.2919 11.0337C32.2732 11.0865 32.2545 11.1392 32.2178 11.2094C32.0537 11.0404 31.9245 10.8893 32.1789 10.9533C31.9447 10.766 31.7194 10.57 31.6154 10.4808C32.2099 10.7332 32.6065 10.7456 32.9466 10.9339C32.8969 10.7748 32.9351 10.634 32.903 10.475C32.8624 10.3071 32.7605 10.1122 32.4312 9.82701C32.3719 9.71184 32.677 9.88217 32.7994 9.9362C32.8509 10.0072 32.8149 10.0422 32.9103 10.1224C32.7825 9.90078 33.0326 9.74435 32.5367 9.41356C32.8455 9.40757 32.9704 9.77024 32.993 9.52355L33.1406 9.63953C33.6599 9.68838 33.4289 9.34238 33.2151 9.01417C33.0103 8.67723 32.8401 8.37587 33.4821 8.46112C33.403 8.45158 33.3677 8.45125 33.2716 8.40628C33.6355 8.29499 33.6682 7.98668 33.7272 7.68743C33.7568 7.5378 33.7949 7.39707 33.8852 7.29209C33.9756 7.18711 34.1185 7.10024 34.3747 7.07614C34.5964 7.01645 34.2739 6.82832 34.049 6.61464L34.5039 6.79516L34.0361 6.38527C33.8989 6.19003 34.2156 6.2282 34.4974 6.24842C34.7706 6.25974 35.0092 6.23548 34.7242 5.94189L34.4089 5.83318C34.5162 5.76363 34.3726 5.4537 34.713 5.62435C34.6608 5.5886 34.4078 5.45402 34.5925 5.48217L34.8286 5.58133C34.7343 5.4482 34.6313 5.30617 34.5371 5.17305C34.7865 5.05189 35.4544 5.59588 35.6275 5.32413C35.593 5.28854 35.5501 5.22642 35.4983 5.17304C35.4379 5.11077 35.3688 5.03959 35.282 4.96826C35.1172 4.83448 34.943 4.72708 34.8638 4.71753C34.8365 4.76137 34.6774 4.77755 34.4323 4.68712L34.347 4.54526C33.9882 4.40971 33.6384 4.26542 33.3055 4.15656C32.9726 4.0477 32.648 3.96536 32.3838 3.9453C32.5141 4.04349 32.6354 4.15041 32.7481 4.24844L32.3972 4.15705L32.4173 4.03379C32.0747 3.96892 32.345 4.1213 32.5098 4.25507C32.3259 4.19166 32.1942 4.164 32.115 4.15446C32.3151 4.28856 32.5152 4.42265 32.7239 4.56565C32.4526 4.46617 32.2183 4.27885 32.024 4.2947C32.3021 4.49124 32.6548 4.49447 32.8096 4.68988C32.467 4.62501 32.214 4.49043 32.4569 4.68664C32.273 4.62323 32.1686 4.55174 32.1082 4.48946C32.2899 4.65866 32.1125 4.70994 32.4612 4.90712C32.0488 4.80635 32.4554 5.18923 31.8091 4.88351C31.957 4.98185 32.2604 5.24034 32.2499 5.31961C31.5366 4.83692 32.0779 5.53847 31.2754 5.10787C31.9282 5.52828 31.4247 5.56775 31.7263 5.91439C31.6741 5.87865 31.5697 5.80715 31.6226 5.80763C31.5244 5.86846 31.3056 5.78709 31.1472 5.768C31.7054 6.07292 31.7544 6.26735 32.0667 6.51711C31.4708 6.33529 31.4402 6.10576 30.8982 5.87153C31.352 6.10495 31.2512 6.28919 31.6536 6.4516C31.2764 6.35114 31.451 6.44092 30.9702 6.23371C31.659 6.61918 31.0468 6.36667 31.4376 6.66124C31.0245 6.59572 30.774 6.33772 30.91 6.58586C30.6639 6.54833 30.4749 6.29971 30.4749 6.29971ZM29.862 9.97099C29.8627 9.93572 29.8721 9.90936 29.8724 9.89172C29.8721 9.90936 29.8627 9.93572 29.862 9.97099ZM29.7069 10.2253C29.7425 10.208 29.7698 10.1641 29.7882 10.129C29.9278 10.2008 30.0581 10.299 30.0311 10.3252C29.962 10.2541 29.8472 10.2618 29.7069 10.2253ZM32.7083 11.3726C32.7332 11.4522 32.6457 11.4161 32.5672 11.3713C32.5766 11.345 32.5773 11.3097 32.5694 11.2655C32.5608 11.2566 32.5435 11.2388 32.5259 11.2387C32.5953 11.2922 32.6561 11.3369 32.7083 11.3726Z" fill="#FF7777"/>
<path d="M32.258 10.9804C32.2494 10.9715 32.2408 10.9626 32.2411 10.945C32.1972 10.9357 32.1709 10.9267 32.1447 10.9176C32.1792 10.9532 32.2228 10.9801 32.2487 11.0068C32.24 10.9979 32.249 10.9891 32.258 10.9804Z" fill="#FF7777"/>
<path d="M26.6324 13.0892L26.7368 13.1607L26.659 13.0807L26.6324 13.0892Z" fill="#FF7777"/>
<path d="M10.7877 31.0638C10.7618 31.0371 10.7272 31.0016 10.701 30.9925C10.7182 31.0103 10.7531 31.0282 10.7877 31.0638Z" fill="#FF7777"/>
<path d="M10.1629 31.4286L9.97901 31.3652C10.0751 31.4102 10.1276 31.4283 10.1629 31.4286Z" fill="#FF7777"/>
<path d="M9.59473 31.5996C9.63755 31.6617 9.67174 31.7149 9.71493 31.7594L9.59473 31.5996Z" fill="#FF7777"/>
<path d="M15.8499 25.4584C15.8589 25.4496 15.8503 25.4407 15.8506 25.4231C15.8262 25.3259 15.8251 25.3788 15.8499 25.4584Z" fill="#FF7777"/>
<path d="M14.6418 28.0131C14.608 27.9422 14.5745 27.8537 14.5579 27.8007C14.505 27.8002 14.4694 27.8175 14.6418 28.0131Z" fill="#FF7777"/>
<path d="M17.5564 23.0581C17.5651 23.0669 17.5564 23.0581 17.5564 23.0581C17.5651 23.0669 17.5741 23.0582 17.5741 23.0582L17.5564 23.0581Z" fill="#FF7777"/>
<path d="M14.6662 27.7136C14.5788 27.6775 14.5514 27.7213 14.5676 27.792C14.6205 27.7925 14.6821 27.8019 14.6662 27.7136Z" fill="#FF7777"/>
<path d="M7.60126 32.9481L7.56599 32.9478C7.58326 32.9656 7.59154 32.9921 7.60881 33.0099L7.60126 32.9481Z" fill="#FF7777"/>
<path d="M7.61719 33.0011L7.62474 33.0629C7.63374 33.0542 7.64274 33.0454 7.61719 33.0011Z" fill="#FF7777"/>
<path d="M7.63996 33.1866L7.61621 33.0541C7.60685 33.0804 7.57158 33.0801 7.63996 33.1866Z" fill="#FF7777"/>
<path d="M8.30327 32.6459L8.20898 32.5128C8.21726 32.5393 8.25145 32.5926 8.30327 32.6459Z" fill="#FF7777"/>
<path d="M8.44843 32.4709C8.38653 32.4791 8.12597 32.2828 8.14109 32.4063L8.20946 32.5128C8.07271 32.2999 8.57547 32.7278 8.44843 32.4709Z" fill="#FF7777"/>
<path d="M10.4386 33.4766L10.209 33.4922C10.3389 33.608 10.521 33.7595 10.4839 33.8474C10.9989 34.1078 10.1986 33.5714 10.4386 33.4766Z" fill="#FF7777"/>
<path d="M11.0507 33.2972C11.0215 33.4292 11.2054 33.4926 11.2655 33.5725C11.2159 33.4134 11.2079 33.3692 11.0507 33.2972Z" fill="#FF7777"/>
<path d="M14.2992 30.5758L14.5572 30.8956C14.5856 30.7989 14.4539 30.7712 14.2992 30.5758Z" fill="#FF7777"/>
<path d="M13.5046 28.4435L13.2873 28.2917L13.51 28.6111L13.5046 28.4435Z" fill="#FF7777"/>
<path d="M15.8117 30.3339L15.8279 30.4046L15.8232 30.2018L15.8117 30.3339Z" fill="#FF7777"/>
<path d="M20.941 25.3021L20.5599 24.9636C20.593 25.0697 20.9903 25.4789 20.941 25.3021Z" fill="#FF7777"/>
<path d="M22.7313 22.735C22.94 22.878 23.1153 22.9325 22.9695 22.7284C22.8986 22.7453 22.7064 22.6554 22.7313 22.735Z" fill="#FF7777"/>
<path d="M29.4091 16.1832L29.5117 16.3429L29.4714 16.1573L29.4091 16.1832Z" fill="#FF7777"/>
</g>
<defs>
<clipPath id="clip0">
<rect width="17" height="43" fill="white" transform="translate(31) rotate(45.8479)"/>
</clipPath>
</defs>
</svg>
