<svg width="43" height="43" viewBox="0 0 43 43" fill="none" xmlns="http://www.w3.org/2000/svg">
<g clip-path="url(#clip0)">
<path d="M34.4768 24.0315C34.6179 24.0302 34.9274 24.0714 34.8662 24.0985L34.3364 24.068L34.4768 24.0315Z" fill="#FF7777"/>
<path d="M35.4439 24.3313C35.1884 24.3424 34.7209 24.3379 34.2257 24.2719C34.7375 24.2848 34.5251 24.2515 35.1431 24.2811C35.2042 24.2541 34.9829 24.212 34.7709 24.1964C34.912 24.1951 34.655 24.1357 34.9905 24.1502C35.3979 24.2347 35.4166 24.2874 35.0642 24.3083C35.2057 24.3246 35.3381 24.3322 35.4439 24.3313Z" fill="#FF7777"/>
<path d="M36.0196 27.4474L35.9573 27.4215C35.993 27.4388 36.0106 27.4386 36.0196 27.4474Z" fill="#FF7777"/>
<path d="M36.1554 29.3596C36.1726 29.3418 36.2255 29.3414 36.2698 29.3498C36.2259 29.359 36.1996 29.3681 36.1554 29.3596Z" fill="#FF7777"/>
<path d="M36.7187 29.7335C36.7097 29.7248 36.7008 29.7161 36.6831 29.7162C36.7274 29.7246 36.754 29.7332 36.7187 29.7335Z" fill="#FF7777"/>
<path d="M36.0193 27.4473L36.1795 27.5164C36.0118 27.5091 36.0553 27.4823 36.0193 27.4473Z" fill="#FF7777"/>
<path d="M34.1186 24.6344C34.1448 24.6253 34.1977 24.6248 34.2593 24.6155C34.233 24.6245 34.2154 24.6247 34.2067 24.6336C34.1715 24.6339 34.1538 24.6341 34.1186 24.6344Z" fill="#FF7777"/>
<path d="M36.5235 26.658C36.5936 26.6397 36.6732 26.6478 36.7437 26.6472L36.5235 26.658Z" fill="#FF7777"/>
<path d="M36.6613 26.0307C36.6792 26.0481 36.2287 26.0082 36.0257 26.0012C36.211 26.0083 36.2992 26.0075 36.3431 25.9983C36.4226 26.0064 36.5288 26.0231 36.6613 26.0307Z" fill="#FF7777"/>
<path d="M35.942 24.9529L36.0036 24.9436C35.9859 24.9437 35.9683 24.9439 35.942 24.9529Z" fill="#FF7777"/>
<path d="M36.5774 27.1249C36.6393 27.1331 36.7012 27.1414 36.7365 27.1411C36.6836 27.1415 36.6307 27.142 36.5774 27.1249Z" fill="#FF7777"/>
<path d="M24.8373 31.7646C24.838 31.7999 24.8384 31.8175 24.8301 31.844C24.829 31.7911 24.8283 31.7559 24.8373 31.7646Z" fill="#FF7777"/>
<path d="M23.9023 33.9337L23.9117 33.9601C23.9045 34.0395 23.8977 34.1366 23.8905 34.216L23.9023 33.9337Z" fill="#FF7777"/>
<path d="M37.2434 30.3813C37.2873 30.3721 37.2787 30.381 37.2434 30.3813V30.3813Z" fill="#FF7777"/>
<path d="M35.1081 36.776C35.0333 36.565 34.9069 36.4251 34.7893 36.2763C34.6716 36.1275 34.5625 35.9698 34.4873 35.7412C34.5334 35.8378 34.6784 36.0304 34.8148 36.232C34.9512 36.4335 35.0966 36.6438 35.1081 36.776Z" fill="#FF7777"/>
<path d="M34.1727 24.6517C34.164 24.6606 34.1554 24.6695 34.1644 24.6782C34.1554 24.6695 34.155 24.6518 34.1727 24.6517Z" fill="#FF7777"/>
<path d="M34.4777 35.7324L34.459 35.6797C34.4683 35.7061 34.4687 35.7237 34.4777 35.7324Z" fill="#FF7777"/>
<path d="M36.865 31.7074C36.7855 31.6993 36.7236 31.6911 36.6703 31.6739C36.7146 31.6824 36.7588 31.6908 36.865 31.7074Z" fill="#FF7777"/>
<path d="M36.2962 30.6369L36.3585 30.6628C36.3142 30.6544 36.3052 30.6457 36.2962 30.6369Z" fill="#FF7777"/>
<path d="M36.1691 32.1722C36.2047 32.1895 36.2666 32.1977 36.205 32.2071C36.1784 32.1985 36.1608 32.1987 36.1518 32.19C36.2137 32.1982 36.2489 32.1979 36.1691 32.1722Z" fill="#FF7777"/>
<path d="M36.1128 32.8956C36.0772 32.8783 36.0505 32.8697 36.0239 32.8612C36.0325 32.8523 36.0412 32.8434 36.0498 32.8345L36.1128 32.8956Z" fill="#FF7777"/>
<path d="M26.4765 32.1288C26.4527 32.2613 26.4289 32.3938 26.4142 32.535C26.4606 32.2172 26.3876 32.0944 26.4765 32.1288Z" fill="#FF7777"/>
<path d="M34.3753 24.6585C34.2605 24.6507 34.2076 24.6512 34.1814 24.6602C34.19 24.6513 34.19 24.6513 34.2076 24.6512C34.2692 24.6418 34.3311 24.6501 34.3753 24.6585Z" fill="#FF7777"/>
<path d="M32.582 31.8525L32.6457 31.9489C32.6097 31.914 32.5914 31.8789 32.582 31.8525Z" fill="#FF7777"/>
<path d="M30.3925 32.578L30.3738 32.5252C30.3911 32.5075 30.3915 32.5251 30.3925 32.578Z" fill="#FF7777"/>
<path d="M32.5773 32.0378C32.7368 32.0716 32.8253 32.0884 32.8872 32.0966C32.8429 32.0882 32.8077 32.0886 32.772 32.0712C32.7101 32.063 32.6392 32.046 32.5773 32.0378Z" fill="#FF7777"/>
<path d="M25.9324 31.4108C26.0205 31.41 25.918 32.0017 25.9072 32.3369C25.9903 32.5213 25.9953 31.904 26.0508 31.5949C26.0983 31.762 26.1008 32.3175 26.1443 32.2906C26.1512 32.1936 26.1681 32.1581 26.1656 32.0347C26.1929 32.5106 26.3516 32.0771 26.3815 32.6764C26.3981 32.6234 26.397 32.5705 26.4049 32.5263C26.3668 32.8176 26.3466 33.1264 26.3247 33.3471C26.3603 33.3644 26.3589 33.7259 26.4128 33.3463C26.3866 33.3553 26.401 33.1965 26.3984 33.0731L26.4197 33.2492C26.5053 32.6929 26.3804 33.0556 26.4161 32.6408C26.4729 32.8343 26.5266 33.3011 26.6029 33.1505C26.6622 32.6033 26.4841 32.9488 26.5978 32.4716L26.4873 32.6755C26.6284 31.81 26.4269 32.7377 26.5755 31.8105C26.7047 31.6594 26.6784 32.1006 26.8166 31.9582C26.8141 32.2669 26.7641 32.4084 26.7702 32.7081C26.8875 33.2714 27.0156 31.3392 27.075 32.0881C27.0826 32.4584 27.0261 33.1467 27.1423 32.7929L27.165 32.1755C27.2874 32.1214 27.1567 33.0661 27.3162 32.6679C27.3111 32.421 27.2413 32.4569 27.2661 32.3773C27.3885 31.8912 27.291 32.7298 27.3529 32.7381L27.4122 32.1908C27.5288 32.2867 27.6253 32.6915 27.7513 32.8138C27.7567 32.6462 27.7444 32.4788 27.8027 32.3107C27.9499 32.6091 28.1723 32.272 28.3602 31.9705L28.3875 32.4464C28.4052 32.4462 28.4361 32.2343 28.4253 32.1374C28.5013 31.9692 28.3962 32.4375 28.4178 32.6313C28.4538 32.6662 28.4829 32.3662 28.48 32.2251C28.5589 32.63 28.7277 33.1222 28.8939 32.6269L28.882 32.4771C28.9929 32.291 28.9108 33.4556 29.0343 33.0224L29.0238 32.9432C29.2405 32.756 29.4262 33.2128 29.641 32.5055C29.6108 33.1847 29.8645 32.2212 29.7958 33.1742C29.9452 32.7143 29.9329 32.5469 30.1208 32.2453C30.164 32.2009 30.133 32.8448 30.1881 32.9501L30.2309 32.456L30.2593 32.9847L30.3443 32.3932L30.3911 32.525C30.3651 32.5517 30.3338 32.746 30.3191 32.8872C30.3767 33.1159 30.5329 32.559 30.5631 32.3118L30.7132 32.7513C30.7268 32.5572 30.6988 32.4781 30.6872 32.346C30.742 32.8657 30.756 31.8251 30.801 32.3008C30.7769 32.4157 30.7805 32.592 30.7826 32.6978C30.856 32.4061 30.9532 32.4141 31.0176 32.5457L31.0371 32.2017C31.1767 32.1299 31.3055 32.3932 31.4732 32.4005C31.4059 32.5598 31.3739 33.1509 31.4016 33.2123L31.4614 32.6827C31.4592 33.009 31.3948 32.8773 31.4207 33.2827C31.4902 33.2292 31.5056 32.6912 31.4844 32.515L31.5413 32.7085C31.5557 32.5496 31.5452 32.4704 31.5675 32.2673C31.5654 32.5936 31.7334 31.7544 31.7273 32.3188L31.7417 32.1599C31.8918 32.1674 31.9487 32.3608 32.0728 32.395C32.0379 32.845 32.0977 32.7474 32.0966 33.1266C32.1225 33.0999 32.1567 33.0467 32.1732 32.9936C32.1898 32.9406 32.1974 32.8788 32.2053 32.8346C32.2297 32.7374 32.2369 32.658 32.2549 32.6755C32.2772 32.9045 32.2629 33.0634 32.2949 33.3364C32.2952 32.922 32.3226 32.9658 32.2898 32.6575C32.3082 32.6926 32.3176 32.719 32.3363 32.7717C32.355 32.8244 32.3834 32.9212 32.4399 33.097C32.4612 33.2732 32.4626 33.3437 32.4921 33.4933C32.5288 33.5635 32.4975 33.3257 32.4579 33.1145L32.4482 33.0705C32.5519 33.3958 32.5544 33.0871 32.4871 32.8144C32.4374 32.5415 32.3352 32.2868 32.5385 32.7434L32.5112 32.6996C32.585 32.8576 32.6764 33.0155 32.7678 33.1734C32.7663 33.1028 32.6112 32.8485 32.5087 32.5761C32.6926 32.9448 32.7185 32.9181 32.6998 32.8654C32.6897 32.8037 32.644 32.7248 32.8254 32.97C32.4593 32.3209 32.4687 32.3473 32.532 32.426C32.5954 32.5048 32.7397 32.6622 32.4223 32.2331L32.658 32.5483C32.9024 32.8547 32.531 32.3731 32.4766 32.3031C32.6666 32.5394 32.694 32.5833 32.8297 32.7496C32.8927 32.8107 32.9286 32.8456 32.9553 32.8542C32.9546 32.8189 32.8362 32.6349 32.6825 32.4511C32.5288 32.2673 32.3489 32.0926 32.2502 32.0142C32.2142 31.9793 32.5641 32.267 32.8419 32.4849C33.1197 32.7028 33.3342 32.8419 33.0114 32.5804C32.8415 32.4673 32.6713 32.3366 32.5011 32.2059C32.8052 32.4147 32.8045 32.3794 32.7861 32.3443C32.7678 32.3092 32.7408 32.283 33.0071 32.3688C32.9358 32.3342 32.8826 32.317 32.8203 32.2911C32.767 32.274 32.7314 32.2567 32.7314 32.2567C32.5443 32.1614 32.5443 32.1614 32.6242 32.1871C32.7041 32.2128 32.8729 32.273 33.024 32.3333C32.9884 32.316 32.7483 32.2212 32.5882 32.1522C32.4727 32.1091 32.5968 32.1433 32.7033 32.1776C32.8099 32.2119 32.8894 32.22 32.703 32.1599C32.6407 32.1341 32.5788 32.1258 32.5522 32.1172C32.7386 32.1772 32.5076 32.0912 32.9509 32.2106C32.8531 32.1674 32.8973 32.1758 32.9412 32.1666C32.9765 32.1662 33.0204 32.157 32.8962 32.1229C33.1438 32.1559 33.0906 32.1387 33.055 32.1214C33.0193 32.1041 33.0103 32.0954 33.3727 32.1362C33.187 32.1114 33.0632 32.0949 32.9747 32.0781C32.9304 32.0697 32.9038 32.0611 32.8862 32.0613C32.8685 32.0614 32.8595 32.0527 32.8505 32.044C32.8408 32 32.9722 31.9547 33.1395 31.9443C32.9189 31.9375 32.9088 31.8759 32.6087 31.861C32.6162 31.7992 32.7652 31.7538 33.1366 31.8033C32.2682 31.5996 33.8564 31.6379 32.7505 31.4629C33.1618 31.3093 33.4411 31.1656 33.6232 31.014C32.8987 30.9501 33.5386 31.1912 32.7699 31.1189C33.0848 30.9925 33.7189 30.9514 33.5566 30.7766C33.4674 30.7245 33.2388 30.7619 33.1068 30.7719C33.4217 30.6456 33.065 30.4548 33.4774 30.3541C33.4155 30.3458 33.3364 30.3554 33.2748 30.3647C33.3007 30.3381 33.1762 30.2863 33.5033 30.3274L33.4155 30.3458C33.8935 30.4296 34.4293 30.3277 34.6856 30.3518C33.7322 30.3076 34.4617 30.1863 33.2529 30.1533C33.3144 30.1439 33.4817 30.1336 33.7027 30.158C33.6405 30.1321 33.5077 30.1069 33.2608 30.1092C33.4443 30.0281 33.7985 30.0954 33.7966 30.0073C33.6376 29.9911 33.576 30.0005 33.3821 30.0022C33.6991 29.9817 34.0162 29.9612 33.8823 29.883C33.7851 29.8751 33.6613 29.8586 33.6617 29.8762C33.7207 29.7434 34.5143 29.7362 34.2195 29.5537C33.5224 29.5336 33.9888 29.4853 33.3878 29.4202L33.5717 29.3568L33.8639 29.4159C33.8625 29.3453 34.303 29.3237 34.1162 29.246L33.8611 29.2748L33.991 29.159L34.2134 29.2539C34.5301 29.2158 34.9735 29.3352 34.8126 29.2308C34.7511 29.2402 34.8112 29.1603 34.457 29.093C34.6507 29.0736 34.8533 29.0629 34.7108 28.9937C34.5161 28.9602 34.0482 28.938 33.9154 28.9128C34.4272 28.9257 34.0712 28.7703 34.6093 28.7742C34.4858 28.7753 34.1677 28.743 34.1058 28.7347L34.5204 28.7397C34.3872 28.6969 34.3253 28.6886 34.0691 28.6645C33.9964 28.5594 34.8295 28.7633 34.5092 28.6252C34.4739 28.6255 34.412 28.6173 34.3505 28.6266C34.1803 28.4959 34.6287 28.4301 34.4322 28.3085C33.8218 28.2171 34.2749 28.3805 33.7707 28.3057C33.8913 28.1635 34.5243 28.0696 34.3886 27.9033L34.4599 27.9379C35.3254 28.0005 34.0424 27.7918 34.4473 27.7528C34.3857 27.7622 33.9618 27.7308 34.0676 27.7299C33.933 27.6165 34.3019 27.5425 34.5815 27.4165L34.3609 27.4097C34.1741 27.3321 34.2605 27.2431 34.1709 27.1734C34.3915 27.1802 34.3641 27.1364 34.6826 27.1864C33.4504 26.8714 35.3905 26.8712 34.362 26.5985C34.3623 26.6162 34.1597 26.6268 34.1684 26.6179L34.3861 26.4837C34.7575 26.5332 34.6074 26.5257 34.8997 26.5848C35.1203 26.5916 35.2959 26.5547 35.3042 26.5282C35.0494 26.5746 34.7031 26.4631 34.4994 26.4209C34.6056 26.4376 34.7381 26.4452 34.8529 26.4529C34.1975 26.3179 35.6036 26.5078 35.1685 26.3619L34.9741 26.346C35.0792 26.3098 35.3438 26.3074 35.2898 26.2549C34.8565 26.1972 35.0875 26.2833 34.7251 26.2425C34.7593 26.1893 35.5532 26.1996 35.1192 26.1066C34.9961 26.1254 34.9968 26.1606 34.8647 26.1707C34.3598 26.0607 34.4922 26.0683 34.4206 26.016L34.4296 26.0248L34.2065 25.8945L34.3396 25.9374C35.478 25.9711 34.5574 25.8032 35.3063 25.7698C34.5926 25.8028 34.909 25.747 34.4055 25.7076C34.2723 25.6647 34.1216 25.622 33.9891 25.6144C34.3857 25.6019 33.6782 25.5026 34.2687 25.4884C34.1097 25.4722 34.25 25.4356 33.8613 25.4039C33.9927 25.3586 34.1356 25.4455 34.3299 25.4614C34.8759 25.4211 33.6979 25.1762 34.4462 25.1076C34.7618 25.0165 35.2915 25.0469 35.5633 24.9651C35.3149 24.8968 34.9896 24.9439 34.9896 24.9439C34.7585 24.8578 34.8107 24.8221 34.995 24.7763C34.8539 24.7776 34.7387 24.7522 34.5617 24.7186C34.6049 24.6741 35.1353 24.7398 34.9133 24.6624C34.7369 24.664 34.4544 24.649 34.2781 24.6506C34.4271 24.6052 34.7265 24.5848 34.8755 24.5393C34.6013 24.4978 34.4609 24.5343 34.2669 24.5361C34.3983 24.4908 34.5286 24.3926 34.9701 24.4238L35.1213 24.4842C35.1386 24.4664 34.7499 24.4347 34.6707 24.4442C34.3184 24.4651 34.8136 24.5311 34.9727 24.5473L35.0778 24.511C35.9976 24.6437 34.9219 24.6535 34.959 24.7414L35.6298 24.7705L35.0659 24.7933C35.243 24.8269 35.6144 24.8764 35.7194 24.8402C36.0477 24.9342 35.4819 24.8688 35.8364 24.9538C35.8983 24.962 35.9249 24.9706 35.9512 24.9615L35.7403 24.9987C35.8814 24.9974 36.2089 25.0562 36.1196 25.0041C36.4929 25.1417 35.6018 25.1234 36.106 25.1982L36.1499 25.189C35.9142 25.3057 35.6554 25.1582 35.0655 25.2077L36.2776 25.3994L35.7832 25.3687C35.8012 25.3861 35.8371 25.4211 36.0315 25.4369C35.6968 25.4576 35.8191 25.4036 35.5017 25.4065C35.9451 25.5259 35.2671 25.5762 36.0538 25.666C35.6745 25.6606 35.7698 25.5804 35.506 25.6181C36.346 25.725 35.3488 25.6901 35.7389 25.7923C36.1715 25.8148 35.9494 25.7375 36.3306 25.831C35.5892 25.8025 36.4832 25.9618 36.3342 26.0073C35.7421 25.951 36.0804 26.1066 35.8789 26.1702C36.0732 26.186 36.1917 26.3701 36.3878 26.4741L36.485 26.4821C35.8933 26.4434 35.9923 26.5395 35.8699 26.5935C36.2233 26.6255 36.3644 26.6242 36.5318 26.6139L36.5242 26.6757C36.3389 26.6686 36.2244 26.6784 36.1546 26.7143L36.5962 26.7456C36.5624 26.8164 36.0603 26.8475 36.3453 26.9859C35.93 26.9457 35.2038 26.7936 34.9144 26.8756C35.1354 26.9 35.5154 26.9406 35.6209 26.922C35.5946 26.9311 35.4359 26.9326 35.5248 26.967L35.9038 26.9547C36.0725 27.0149 35.595 26.9487 35.6223 26.9926C35.9405 27.0249 35.8527 27.0434 36.0999 27.0587C36.1262 27.0497 35.9667 27.0159 36.0988 27.0058C36.1528 27.0582 36.3392 27.1183 36.5782 27.1601C36.3925 27.1354 36.1452 27.12 36.1017 27.1469C36.0679 27.2177 36.4821 27.2051 36.6423 27.2742C36.4216 27.2674 36.6437 27.3447 36.1665 27.2962C36.1668 27.3138 36.3878 27.3382 36.5206 27.3635C36.3094 27.3831 36.445 27.5493 35.9405 27.457L35.9048 27.4397C35.8872 27.4398 35.8962 27.4486 35.8872 27.4398C35.4039 27.5236 36.1316 27.7462 35.9221 27.8539L36.0812 27.8701C35.8973 27.9335 35.961 28.0299 35.6087 28.0508C35.609 28.0684 35.8926 28.1364 36.0866 28.1346C35.9642 28.1886 35.7875 28.1726 36.0456 28.2849C36.327 28.247 36.2845 28.3268 36.2565 28.2477C36.3907 28.3434 36.6383 28.3764 36.1982 28.4157C36.6041 28.4296 36.7031 28.5257 36.58 28.5445L36.2961 28.4589C36.2262 28.4948 36.2622 28.5298 36.2986 28.5823L36.8373 28.6215C37.4769 28.8449 35.7033 28.7994 36.7927 29.0275C36.4138 29.0398 36.5347 28.9152 36.0848 28.9105C36.1482 28.9893 36.9097 29.141 36.919 29.1674C37.2127 29.297 36.1258 29.1923 36.3223 29.314C36.1276 29.2805 35.6238 29.2234 35.4309 29.2781C35.4942 29.3568 36.2281 29.4471 36.3861 29.4104C36.4033 29.3926 36.3414 29.3843 36.2795 29.3761C36.3497 29.3578 36.4375 29.3394 36.6412 29.3816L36.4469 29.3657C36.6419 29.4168 36.6088 29.523 36.9262 29.52C36.733 29.5571 36.6175 29.5141 36.5106 29.4621C36.7776 29.5831 36.5048 29.6121 36.6923 29.725C36.5948 29.6994 36.3648 29.6663 36.3652 29.6839C36.589 29.8494 35.9952 29.7049 35.9002 29.8028C36.1842 29.8884 36.6067 29.8492 36.3436 29.9222C36.5304 29.9998 36.8474 29.9793 37.0062 29.9778C36.6279 30.0254 37.2394 30.1697 37.2934 30.2221L37.4513 30.1854C37.3635 30.2038 37.3553 30.2303 37.3556 30.248L36.9752 30.1897C37.0465 30.2243 37.0382 30.2509 37.1973 30.2671C36.9504 30.2693 36.5606 30.1847 36.2083 30.2056C36.4033 30.2567 35.9898 30.3046 36.4937 30.3617C36.3234 30.231 37.0065 30.4275 37.0929 30.3385C37.0314 30.3479 37.0231 30.3745 37.0943 30.4091C37.1562 30.4173 37.2001 30.4081 37.2354 30.4078C37.6795 30.5624 36.6621 30.4042 36.6556 30.5189C36.9381 30.534 37.1951 30.5933 37.1336 30.6027C37.1325 30.5498 36.656 30.5365 36.4271 30.5563C36.6495 30.6512 36.2608 30.6195 36.2792 30.6546L36.1723 30.6027C35.8898 30.5877 35.9171 30.6315 35.821 30.6765C36.042 30.7009 35.979 30.6397 36.0766 30.6653C35.5652 30.67 36.5829 30.8458 36.24 30.8931C36.435 30.9442 36.7791 30.9498 36.9122 30.9927C36.534 31.0403 37.2941 31.1215 36.9867 31.186C36.6063 31.1278 36.6945 31.127 36.3159 31.1569L36.5955 31.0309L36.032 31.0713C36.0309 31.0184 36.2774 30.9985 36.2238 30.9637C35.9067 30.9843 35.9949 30.9835 35.6764 30.9335C36.2432 31.0517 35.3255 31.0249 35.707 31.136L36.6614 31.2331C37.0789 31.3791 36.1529 31.3788 36.3767 31.5443L36.2079 31.4841C35.8283 31.4611 36.1478 31.564 35.9899 31.6007C36.308 31.6331 36.4145 31.6674 36.6182 31.7096C36.3796 31.6853 36.638 31.8152 35.9931 31.7594L36.4009 31.8615C36.5711 31.9922 35.4846 31.9052 35.5753 32.0278C35.928 32.0246 36.15 32.1019 36.3958 32.0467C36.3965 32.082 36.4502 32.1168 36.2382 32.1011C36.4419 32.1433 35.7984 32.158 36.0996 32.2258C35.9586 32.2271 35.6228 32.1949 35.6415 32.2476C35.7034 32.2559 35.8006 32.2638 35.8006 32.2638C35.6415 32.2476 35.581 32.3099 35.2269 32.2426C35.7138 32.3351 35.6897 32.45 35.6476 32.5474C35.6055 32.6447 35.5454 32.7246 35.9546 32.8972C35.842 32.9953 35.7293 33.0933 35.6959 33.1818C35.7934 33.2073 35.8556 33.2332 35.8197 33.1983C36.0982 33.4514 34.9152 32.9597 35.2204 33.2214C35.72 33.499 35.5033 33.2541 35.6822 33.3759C36.1979 33.5828 36.1547 33.6273 36.0583 33.6546C35.9618 33.6819 35.8207 33.6832 36.1159 33.8833L36.1774 33.8739C36.3476 34.0046 36.2422 34.0232 36.1097 34.0156C35.9773 34.008 35.8006 33.992 35.8377 34.0799C35.8377 34.0799 35.9356 34.123 35.9892 34.1578C35.4648 33.9598 35.2806 34.0056 35.1398 34.0245C35.5325 34.2502 35.3533 34.1108 35.7473 34.4069C35.6858 34.4163 35.1121 33.9631 34.989 33.9818C35.1956 34.1651 35.3763 34.3751 35.7974 34.6975L35.8218 34.6002C36.091 34.827 36.0918 34.8623 36.0212 34.8629C35.9593 34.8547 35.8348 34.8029 35.8891 34.873L36.122 35.0472C36.0277 35.1803 35.4267 34.6832 35.4573 34.8857L35.2773 34.711C34.9819 34.4933 35.0632 34.5896 35.1535 34.6945C35.2529 34.8083 35.3702 34.9394 35.1463 34.774L35.7315 35.3594C35.6603 35.3248 35.5087 35.2468 35.3572 35.1688C35.2057 35.0908 35.0718 35.0127 35.0099 35.0045C35.4504 35.4149 35.6901 35.492 35.9579 35.6483C35.9593 35.7188 35.9003 35.8516 35.6038 35.581C35.6574 35.6158 35.8096 35.729 35.7189 35.6064C35.2525 35.2227 35.011 35.0574 35.0135 35.1808C35.7621 35.9939 35.6394 36.0303 35.7146 36.2589C35.6891 36.3032 35.7179 36.4176 35.9633 36.7769C35.6229 36.5155 35.553 36.5514 35.4933 36.6489C35.4336 36.7464 35.3835 36.888 35.1971 36.828C34.6558 35.8013 35.0906 36.7937 34.4518 35.7414C34.3531 35.663 34.3359 35.6808 34.3726 35.751C34.4384 35.9532 34.4957 36.1643 34.5349 36.3579C34.6468 36.6567 34.7249 36.5942 34.8621 36.831C34.7311 36.894 35.0298 37.2704 35.0618 37.5434C34.8865 37.1659 34.7156 36.9999 34.6918 37.1324C34.6623 36.9828 34.6238 36.8244 34.5853 36.6661C34.3236 36.3775 34.3985 36.5884 34.4471 36.8084C34.5043 37.0195 34.5439 37.2308 34.2913 36.9509L34.5097 37.284C34.4018 37.1792 34.287 37.1714 34.1264 37.0847C33.9746 36.9891 33.8036 36.8231 33.61 36.4105C33.6301 36.5337 33.6974 36.8065 33.7784 36.8851C33.6471 36.9304 33.4131 36.7033 33.2328 36.5109C33.0439 36.3275 32.8999 36.1877 32.8344 36.4352L32.8924 36.6816C32.829 36.6028 32.7329 36.2157 32.7023 36.4452C32.7221 36.5509 32.7603 36.6916 32.734 36.7007C32.6969 36.6128 32.5487 36.2615 32.4896 36.3943L32.5659 36.6758C32.4368 36.8268 32.3007 36.6429 32.1989 36.4058C32.097 36.1686 32.0203 35.8696 31.9304 35.7822C31.9113 36.1439 31.8454 36.3738 31.7691 36.5243C31.7436 36.5687 31.7353 36.5952 31.7184 36.6306C31.7015 36.6661 31.6932 36.6926 31.6759 36.7104C31.6504 36.7547 31.6335 36.7901 31.6076 36.8168L31.6007 36.9139C31.4082 36.9862 31.3322 36.2903 31.1764 36.0007C30.9979 36.7607 30.7766 36.2866 30.5646 36.7029C30.5973 36.5792 30.6063 36.1559 30.5783 36.0768C30.5282 36.2183 30.5063 35.5748 30.4577 36.2189L30.475 36.2012C30.3821 36.8369 30.3256 36.661 30.2465 36.6706L30.3083 35.8147C30.0334 37.034 29.9013 35.3158 29.7034 36.4198C29.6814 36.2084 29.6285 36.2089 29.6062 35.9799L29.5713 36.4299C29.45 36.5368 29.3806 36.5903 29.2546 36.4681L29.2524 36.7943C29.1646 36.8128 29.2607 35.4716 29.1894 35.437L29.1063 36.1167C28.9735 36.0915 28.7738 36.6753 28.6903 36.0412C28.6834 36.1382 28.6698 36.3323 28.6881 36.3674C28.6266 36.3768 28.3973 36.811 28.5017 35.8754C28.4524 36.4842 28.3527 35.9208 28.303 35.6479L28.2771 36.1067C28.2652 35.5248 28.271 35.3749 28.1969 35.1992C28.1717 35.2612 28.1512 35.5523 28.1843 35.4462C28.1008 35.6762 28.1666 35.0143 28.0655 35.2445L28.0803 35.5353C28.0014 35.5625 28.0248 35.4124 28.009 35.0687C27.9788 34.8838 27.8611 35.167 27.8165 35.573C27.829 35.326 27.8222 34.991 27.7628 35.1062C27.7394 35.2563 27.7502 35.3532 27.7513 35.4061C27.6074 35.6984 27.6167 34.8607 27.4933 35.2938C27.4785 35.4351 27.4713 35.5145 27.4548 35.5675C27.5516 35.5578 27.6308 35.5483 27.63 35.513C27.5944 35.9278 27.5163 35.9902 27.5282 36.5721C27.4864 36.255 27.4458 35.5588 27.3526 35.7448C27.3446 35.789 27.3454 35.8242 27.3378 35.886L27.3389 35.9389C27.322 35.9744 27.3036 35.9393 27.3022 35.8687C27.277 35.9307 27.2604 35.9837 27.2252 35.9841C27.1881 36.3283 27.123 36.1614 27.0791 36.1706C27.1226 35.7117 27.0625 35.7916 27.1431 35.4205C27.1348 35.447 27.1442 35.4734 27.1712 35.4996C27.1715 35.5172 27.1805 35.526 27.1809 35.5436C27.1805 35.526 27.1892 35.5171 27.1802 35.5083C27.1982 35.5258 27.2424 35.5342 27.2781 35.5515C27.2644 35.3136 27.2518 35.1285 27.1863 35.376C27.1892 35.085 27.192 34.794 27.1978 34.6441C27.0959 35.271 26.9617 35.6073 26.9167 35.9957C26.8232 35.732 26.6483 35.8042 26.6482 34.9401C26.6194 34.8257 26.5914 35.1787 26.5676 35.3111C26.5871 35.3991 26.6043 35.3814 26.5982 35.5137C26.5496 35.2937 26.4021 35.4097 26.4427 34.8097C26.3333 35.0664 26.4453 35.3652 26.3373 35.2604L26.3323 35.4456C26.0249 36.3742 26.0889 33.8959 25.7341 35.0895C25.7589 35.01 25.7672 34.9834 25.7827 34.8775C25.4491 35.3831 25.2331 34.3094 24.8797 35.1415C24.7862 35.3099 24.8049 34.9305 24.7811 34.6309L24.7293 35.1164L24.6911 34.5436C24.612 34.1211 24.3889 35.7191 24.3021 34.9263L24.3572 34.5996C24.2967 34.6618 24.1941 34.3894 24.1754 34.7688C24.1743 34.7159 24.1862 34.4336 24.1542 34.5926L24.133 34.8485L24.0354 34.3909C23.9156 34.5683 23.9591 35.4056 23.8098 35.4334C23.7637 35.3369 23.7061 34.6761 23.7468 34.5082C23.7731 34.4991 23.8231 34.3576 23.8443 34.1017L23.8062 33.9609C23.8612 33.2021 23.8896 32.4348 24.0555 31.9218L24.1092 32.3887L24.1635 32.0266L24.0922 31.992C24.1646 31.6475 24.1621 31.9561 24.1754 32.1764C24.198 31.991 24.2304 31.8497 24.2466 31.779L24.2704 32.5106C24.3085 32.2193 24.2848 31.9197 24.3521 31.7604C24.3589 32.0954 24.2596 32.4137 24.2996 32.6426C24.3632 32.307 24.3751 32.0247 24.4075 32.3154C24.4302 32.13 24.4363 31.9977 24.4169 31.9097C24.4482 32.1475 24.5248 32.0145 24.5155 32.4202C24.595 31.9962 24.6591 32.5423 24.7152 31.8364C24.7098 32.004 24.7444 32.4005 24.7804 32.4354C24.7803 31.5713 24.9384 32.3987 24.9902 31.4812C24.9794 32.2484 25.1651 31.8411 25.218 32.2727C25.2255 32.2109 25.223 32.0875 25.2061 32.1229C25.2666 32.0606 25.2972 31.8311 25.3472 31.6895C25.2982 32.316 25.372 32.4741 25.3889 32.8707C25.5088 32.2612 25.4091 32.1298 25.4764 31.5384C25.4339 32.0503 25.5487 32.058 25.4868 32.4818C25.5674 32.1108 25.5448 32.2961 25.6225 31.784C25.5682 32.5781 25.6606 31.9247 25.6617 32.4097C25.7686 32.0296 25.7438 31.6771 25.8017 31.9234C25.9824 31.7013 25.9324 31.4108 25.9324 31.4108ZM27.7455 32.9637C27.7541 32.9548 27.7541 32.9548 27.7455 32.9637C27.7275 32.9462 27.7185 32.9375 27.7095 32.9288C27.7272 32.9286 27.7362 32.9373 27.7455 32.9637ZM27.9136 32.9886C27.8963 33.0064 27.861 33.0067 27.8344 32.9982C27.82 33.157 27.8056 33.3159 27.8233 33.3157C27.8297 33.201 27.8808 33.1124 27.9136 32.9886ZM27.3069 36.0979C27.3259 36.1683 27.3418 36.08 27.3486 35.9829C27.3396 35.9742 27.3216 35.9567 27.3033 35.9216C27.3029 35.904 27.3025 35.8864 27.3022 35.8687C27.304 35.9569 27.3054 36.0274 27.3069 36.0979Z" fill="#FF7777"/>
<path d="M27.3122 35.4983C27.3032 35.4896 27.3115 35.4631 27.3115 35.4631C27.3194 35.4189 27.3277 35.3924 27.3359 35.3658C27.337 35.4187 27.3291 35.4629 27.3388 35.5069C27.3212 35.5071 27.3122 35.4983 27.3122 35.4983Z" fill="#FF7777"/>
<path d="M35.9393 27.4217C35.9393 27.4217 35.9127 27.4131 35.8774 27.4134C35.9217 27.4218 35.9303 27.4129 35.9393 27.4217Z" fill="#FF7777"/>
<path d="M30.2285 32.3325L30.222 32.4472L30.2112 32.3503L30.2285 32.3325Z" fill="#FF7777"/>
<path d="M34.4636 26.386C34.4193 26.3776 34.384 26.378 34.3484 26.3606C34.3837 26.3603 34.4193 26.3776 34.4636 26.386Z" fill="#FF7777"/>
<path d="M34.3933 25.9899L34.2332 25.9208C34.3307 25.9464 34.3663 25.9637 34.3933 25.9899Z" fill="#FF7777"/>
<path d="M34.2017 25.6655C34.2899 25.6647 34.3432 25.6818 34.3961 25.6814L34.2017 25.6655Z" fill="#FF7777"/>
<path d="M33.2567 30.3296C33.2567 30.3296 33.2481 30.3385 33.2304 30.3386C33.1512 30.3482 33.1865 30.3479 33.2567 30.3296Z" fill="#FF7777"/>
<path d="M34.4378 29.0226C34.3586 29.0322 34.2705 29.033 34.2179 29.0511C34.1909 29.0249 34.1816 28.9985 34.4378 29.0226Z" fill="#FF7777"/>
<path d="M34.2276 29.1127C34.1387 29.0782 34.1559 29.0604 34.2261 29.0421C34.2531 29.0683 34.2891 29.1033 34.2276 29.1127Z" fill="#FF7777"/>
<path d="M34.0958 24.3702L34.0778 24.3527C34.113 24.3524 34.1307 24.3522 34.1483 24.3521L34.0958 24.3702Z" fill="#FF7777"/>
<path d="M34.1481 24.3519L34.2096 24.3425C34.2096 24.3425 34.201 24.3514 34.1481 24.3519Z" fill="#FF7777"/>
<path d="M34.3243 24.3151L34.2102 24.3426C34.2098 24.325 34.1918 24.3075 34.3243 24.3151Z" fill="#FF7777"/>
<path d="M34.2804 24.7741L34.1127 24.7668C34.148 24.7665 34.2009 24.766 34.2804 24.7741Z" fill="#FF7777"/>
<path d="M34.2216 24.8894C34.1856 24.8544 33.8754 24.7779 33.9808 24.7593L34.1132 24.7669C33.8574 24.7605 34.4951 24.8957 34.2216 24.8894Z" fill="#FF7777"/>
<path d="M36.2109 25.5763L36.0939 25.4628C36.271 25.4964 36.5013 25.5472 36.5445 25.5027C37.0508 25.6832 36.1465 25.4447 36.2109 25.5763Z" fill="#FF7777"/>
<path d="M36.4383 25.9182C36.5167 25.8734 36.6945 25.9423 36.7917 25.9502C36.6333 25.9693 36.5804 25.9698 36.4383 25.9182Z" fill="#FF7777"/>
<path d="M36.2551 28.1596L36.6705 28.1999C36.6003 28.2182 36.5024 28.175 36.2551 28.1596Z" fill="#FF7777"/>
<path d="M34.0814 28.3823L33.8331 28.314L34.2038 28.3283L34.0814 28.3823Z" fill="#FF7777"/>
<path d="M37.0024 28.9198L37.055 28.9017L36.8973 28.956L37.0024 28.9198Z" fill="#FF7777"/>
<path d="M36.5261 32.8303L36.0298 32.7114C36.1176 32.693 36.6751 32.7849 36.5261 32.8303Z" fill="#FF7777"/>
<path d="M35.8052 35.0854C36.0391 35.3125 36.1935 35.5315 35.952 35.3662C35.9326 35.2782 35.7429 35.0595 35.8052 35.0854Z" fill="#FF7777"/>
<path d="M30.3215 36.4495L30.3337 36.617L30.278 36.4764L30.3215 36.4495Z" fill="#FF7777"/>
<path d="M35.5549 33.6328C35.4869 33.7569 35.289 33.9968 35.2785 33.9175L35.5693 33.474L35.5549 33.6328Z" fill="#FF7777"/>
<path d="M34.6484 34.1703C34.7492 33.9225 34.9701 33.5149 35.3066 33.1503C35.0425 33.6024 35.189 33.4335 34.8647 33.9655C34.8665 34.0537 35.0486 33.9021 35.1598 33.7336C35.0918 33.8576 35.3002 33.697 35.121 33.9896C34.8093 34.2747 34.72 34.2226 34.8543 33.8863C34.7765 33.9663 34.7085 34.0904 34.6484 34.1703Z" fill="#FF7777"/>
<path d="M29.6931 31.1915L29.7633 31.1732C29.7284 31.1911 29.7108 31.1913 29.6931 31.1915Z" fill="#FF7777"/>
<path d="M26.8109 29.0841C26.8203 29.1104 26.7947 29.1548 26.7692 29.1991C26.7681 29.1462 26.776 29.102 26.8109 29.0841Z" fill="#FF7777"/>
<path d="M25.9731 29.1004C25.9907 29.1003 26.0084 29.1001 26.026 29.0999C25.9825 29.1268 25.9562 29.1358 25.9731 29.1004Z" fill="#FF7777"/>
<path d="M29.6931 31.1913L29.5092 31.2547C29.6211 31.1214 29.6402 31.1918 29.6931 31.1913Z" fill="#FF7777"/>
<path d="M34.8301 32.6697C34.8308 32.7049 34.8052 32.7493 34.7801 32.8112C34.7883 32.7847 34.779 32.7583 34.7786 32.7407C34.8045 32.714 34.8128 32.6875 34.8301 32.6697Z" fill="#FF7777"/>
<path d="M30.6113 32.5496L30.6293 32.567C30.5951 32.6202 30.5523 32.6824 30.5095 32.7445L30.6113 32.5496Z" fill="#FF7777"/>
<path d="M31.5014 33.3615C31.4662 33.3618 31.7498 32.9977 31.8613 32.8468C31.7588 33.0065 31.7163 33.0862 31.7084 33.1304C31.6656 33.1925 31.5878 33.2725 31.5014 33.3615Z" fill="#FF7777"/>
<path d="M33.4883 33.943L33.4721 34.0137C33.4804 33.9872 33.48 33.9695 33.4883 33.943Z" fill="#FF7777"/>
<path d="M29.8876 32.0712C29.8444 32.1157 29.8012 32.1602 29.7753 32.1869C29.8095 32.1337 29.8441 32.0981 29.8876 32.0712Z" fill="#FF7777"/>
<path d="M11.1205 4.84743C11.0856 4.86538 11.077 4.87428 11.0507 4.88334C11.0766 4.85665 11.1115 4.83869 11.1205 4.84743Z" fill="#FF7777"/>
<path d="M8.5212 4.51873L8.51292 4.54526C8.43411 4.57244 8.34665 4.60851 8.26784 4.63568L8.5212 4.51873Z" fill="#FF7777"/>
<path d="M24.7582 28.7675C24.7668 28.7586 24.7668 28.7586 24.7582 28.7675C24.7503 28.8117 24.7413 28.803 24.7582 28.7675Z" fill="#FF7777"/>
<path d="M17.724 21.1784C18.1083 20.9986 17.9874 20.6911 18.4427 20.5282C18.2948 20.6265 18.0223 21.1052 17.724 21.1784Z" fill="#FF7777"/>
<path d="M34.7682 32.6967C34.7592 32.688 34.7412 32.6705 34.7322 32.6618C34.7674 32.6615 34.7764 32.6702 34.7682 32.6967Z" fill="#FF7777"/>
<path d="M18.442 20.5106L18.4946 20.4924C18.4683 20.5015 18.4596 20.5104 18.442 20.5106Z" fill="#FF7777"/>
<path d="M23.0513 26.7995C23.1031 26.7461 23.1553 26.7103 23.2074 26.6746C23.1729 26.7102 23.1294 26.737 23.0513 26.7995Z" fill="#FF7777"/>
<path d="M24.8934 27.638L24.8142 27.6475C24.8581 27.6383 24.8758 27.6381 24.8934 27.638Z" fill="#FF7777"/>
<path d="M22.7885 25.6292C22.7446 25.6384 22.6924 25.6741 22.7086 25.6035C22.7259 25.5857 22.7435 25.5855 22.7522 25.5766C22.718 25.6298 22.7187 25.6651 22.7885 25.6292Z" fill="#FF7777"/>
<path d="M22.0509 24.895C22.0768 24.8684 22.1031 24.8593 22.1293 24.8502C22.1297 24.8679 22.1387 24.8766 22.139 24.8942L22.0509 24.895Z" fill="#FF7777"/>
<path d="M12.3128 7.54362C12.1991 7.58875 12.0591 7.64294 11.9281 7.70586C12.225 7.56206 12.2476 7.37668 12.3128 7.54362Z" fill="#FF7777"/>
<path d="M34.675 32.8652C34.7437 32.7764 34.7689 32.7144 34.7686 32.6968C34.7776 32.7055 34.7779 32.7231 34.7783 32.7408C34.7441 32.794 34.7009 32.8385 34.675 32.8652Z" fill="#FF7777"/>
<path d="M25.2674 23.058L25.1072 22.9889C25.1691 22.9972 25.2224 23.0143 25.2674 23.058Z" fill="#FF7777"/>
<path d="M16.2264 13.486L16.243 13.4329C16.2606 13.4327 16.261 13.4504 16.2264 13.486Z" fill="#FF7777"/>
<path d="M24.8173 22.6038C24.687 22.7019 24.5996 22.738 24.5294 22.7563C24.5553 22.7296 24.5636 22.7031 24.5981 22.6675L24.8173 22.6038Z" fill="#FF7777"/>
<path d="M12.3669 6.29971C12.4486 6.41359 11.8799 6.63924 11.5927 6.82704C11.5359 7.06563 12.0221 6.69084 12.3111 6.5912C12.2265 6.76832 11.7835 7.09863 11.8465 7.15978C11.9339 7.12371 11.9778 7.11449 12.0732 7.03425C11.7097 7.37265 12.2294 7.34143 11.7792 7.75117C11.8317 7.73305 11.8753 7.7062 11.9192 7.69698C11.6485 7.83172 11.3869 7.9752 11.1951 8.08277C11.2228 8.14424 10.9367 8.38494 11.2858 8.20538C11.2588 8.17918 11.3894 8.09862 11.4848 8.01839L11.3732 8.16931C11.889 7.94415 11.4931 7.99186 11.8504 7.78578C11.7666 7.99817 11.4477 8.36261 11.6421 8.37847C12.1218 8.11836 11.6799 8.06951 12.1625 7.95046L11.8972 7.91762C12.7019 7.59281 11.7903 7.86569 12.6559 7.49624C12.9049 7.59976 12.5306 7.84127 12.7797 7.9448C12.5368 8.14101 12.3784 8.1601 12.1531 8.35615C11.8379 8.8969 13.457 7.85923 12.9481 8.4194C12.662 8.66009 12.079 9.04459 12.4835 8.98798L12.9787 8.62192C13.1403 8.76152 12.2849 9.1926 12.7603 9.15297C12.951 8.99251 12.8434 8.90532 12.9226 8.89578C13.4225 8.75893 12.6811 9.16251 12.7358 9.25019L13.2065 8.98135C13.2465 9.21024 13.0521 9.62644 13.0928 9.89059C13.2231 9.7924 13.344 9.66785 13.5107 9.62224C13.4484 10.0284 13.9181 10.1387 14.3604 10.2052L14.0325 10.5609C14.0505 10.5784 14.2337 10.4797 14.3028 10.4085C14.5144 10.4066 14.0505 10.5784 13.9389 10.7293C13.9494 10.8086 14.2107 10.6475 14.3143 10.5407C14.093 10.9307 13.9372 11.5053 14.473 11.4034L14.5677 11.2879C14.8239 11.312 13.8767 11.9996 14.3327 11.872L14.3841 11.801C14.7671 11.9826 14.6292 12.5747 15.3926 12.3825C14.8725 12.8281 15.8622 12.4928 15.1068 13.0729C15.6161 12.9624 15.719 12.8204 16.1433 12.8694C16.2236 12.9127 15.7291 13.3141 15.7143 13.4553L16.1228 13.1606L15.7874 13.5781L16.3017 13.2824L16.2606 13.4326C16.2164 13.4242 16.0328 13.5053 15.9288 13.5944C15.8371 13.8509 16.4154 13.6693 16.6151 13.5176L16.4849 14.0478C16.6411 13.9229 16.6569 13.8346 16.7339 13.7193C16.4345 14.1717 17.169 13.4331 16.8951 13.8412C16.7904 13.8951 16.6609 14.0286 16.5918 14.0997C16.8804 13.9825 16.9981 14.1313 16.9754 14.3166L17.2352 14.085C17.4587 14.2329 17.4397 14.5945 17.6117 14.8134C17.4181 14.8328 16.9761 15.216 16.9783 15.3218L17.4131 15.018C17.1975 15.2581 17.2025 15.0729 16.9625 15.4101C17.078 15.4532 17.4764 15.0968 17.5703 14.9461L17.5041 15.1583C17.6257 15.069 17.6772 14.998 17.8244 14.8644C17.6002 15.1133 18.3768 14.7094 17.9795 15.1186L18.1012 15.0294C18.2818 15.2393 18.2246 15.4603 18.3344 15.6533C17.9875 15.9386 18.1199 15.9462 17.8788 16.2306C18.1001 16.2726 18.4953 16.1897 18.596 16.3739C18.5043 16.6304 18.3283 16.6497 18.1653 16.8716C18.4863 16.613 18.587 16.7972 18.749 16.5224C18.8595 16.7506 18.8872 16.8121 18.8347 17.2623C18.6864 17.343 18.5986 17.3614 18.5126 17.468C18.4967 17.5564 18.7328 17.4572 18.88 17.3236L18.9056 17.2793C18.6634 17.9428 20.3484 17.1073 19.8701 17.87L19.8956 17.8257L19.7474 18.3385C19.8895 18.3901 19.9273 18.0811 20.181 17.9818C19.86 18.6725 20.5751 18.278 20.4002 18.7822C21.4363 18.129 20.8001 19.3605 21.5695 19.036L21.3439 19.2144C21.1812 19.454 21.5191 19.1599 21.6073 19.1591C21.4338 19.3017 21.3716 19.2759 21.2773 19.409C21.4231 20.069 22.4095 20.007 22.9969 20.2661C23.202 20.3789 22.0054 21.3774 22.6877 21.1066L23.0141 20.6804C22.9339 21.0691 23.0958 21.2263 23.2488 21.3748C23.4194 21.5232 23.5986 21.6626 23.5616 22.0068C23.6299 21.9004 23.7422 21.7847 23.7152 21.7585C24.055 21.5526 23.9668 21.9855 23.7509 22.2079C23.8218 22.2249 23.9675 22.0207 24.1068 21.9313C24.3342 21.841 23.9143 22.4357 24.227 22.2035C24.2792 22.1678 24.2954 22.0971 24.3123 22.0617C24.2187 22.2301 24.5448 22.2183 24.1889 22.4949C24.4527 22.4572 24.2756 22.8556 24.547 22.7561C24.2555 23.1644 24.909 22.7792 24.4347 23.3038C24.9443 22.7789 25.0476 23.0866 24.8777 23.4056C25.0062 23.2192 25.0962 23.3066 25.2851 23.058C25.3574 23.1455 25.3434 23.3219 25.0663 23.5714C25.8239 23.0971 24.8889 24.3842 25.7472 23.6621C25.735 23.9268 25.731 24.1649 25.7616 24.3674C25.7836 24.5788 25.8314 24.7635 25.888 24.9394C26.3885 24.4057 25.6792 24.6503 26.2237 24.1074C26.2324 24.5306 25.9265 25.0977 26.272 25.1739C26.395 25.1552 26.4519 24.9166 26.5203 24.8101C26.5289 25.2333 26.986 25.1586 26.9162 25.6265C26.9594 25.582 26.9842 25.5025 27.0094 25.4405C27.0281 25.4932 27.1771 25.4478 26.9439 25.688L26.9684 25.5908C26.5775 25.8853 26.4393 26.4597 26.267 26.6553C26.8424 25.9005 26.6286 26.6608 27.3318 25.6844C27.3157 25.7551 27.2394 25.9057 27.0835 26.0482C27.1627 26.0387 27.2667 25.9496 27.3945 25.7279C27.4085 25.9835 27.122 26.2066 27.2476 26.3112C27.3599 26.1956 27.3761 26.1249 27.4877 25.974C27.3347 26.2575 27.1908 26.5498 27.3848 26.5481C27.4449 26.4682 27.5402 26.3879 27.5132 26.3617C27.6673 26.5631 27.2671 27.2634 27.672 27.2244C28.0837 26.6563 27.8991 27.1165 28.3047 26.6807L28.2917 26.9101L28.0484 27.0887C28.147 27.1671 27.9347 27.5659 28.1539 27.5021L28.2546 27.2543L28.3479 27.5003L28.0938 27.582C27.9768 27.9005 27.5759 28.1335 27.8052 28.1314C27.8213 28.0607 27.9038 28.2098 28.1902 27.9867C28.1147 28.1726 28.0304 28.3674 28.1971 28.3217C28.3443 28.1881 28.6275 27.8064 28.7229 27.7262C28.4404 28.1432 28.8524 28.0248 28.562 28.4859C28.6214 28.3708 28.8283 28.1396 28.8891 28.095L28.6581 28.441C28.7891 28.378 28.8413 28.3423 28.996 28.1469C29.1825 28.2069 28.4425 28.681 28.8283 28.5717C28.8452 28.5362 28.8884 28.4918 28.896 28.43C29.1695 28.4363 29.0378 28.896 29.3196 28.8758C29.7608 28.4573 29.2886 28.6556 29.6784 28.3082C29.8162 28.5802 29.6446 29.2431 29.9458 29.3109L29.858 29.3293C29.325 30.0044 30.2863 29.1403 30.1268 29.5385C30.143 29.4678 30.4011 29.148 30.341 29.2279C30.5706 29.2435 30.4903 29.6322 30.5335 30.0197L30.653 29.8247C30.8632 29.7522 30.9463 29.9366 31.096 29.9264C30.9852 30.1126 31.0561 30.1296 30.8225 30.3522C31.9101 29.628 30.9219 31.33 31.8446 30.7396C31.8176 30.7134 31.8932 30.5275 31.9202 30.5537L32.0062 30.8792C31.7561 31.1548 31.8417 31.0306 31.6075 31.2179C31.4966 31.4041 31.4477 31.5985 31.5013 31.6333C31.5574 31.3594 31.8799 31.1713 32.0537 31.0463C31.976 31.1263 31.9076 31.2328 31.8302 31.3305C32.3596 30.9112 31.375 31.9254 31.8115 31.7098L31.9317 31.55C31.9342 31.6734 31.8158 31.9214 31.913 31.9293C32.2153 31.6179 31.9792 31.7171 32.2031 31.4505C32.2754 31.538 31.8572 32.2208 32.2045 31.9531C32.2373 31.8293 32.1923 31.7857 32.225 31.6619C32.6242 31.3408 32.5558 31.4473 32.6702 31.4374L32.6526 31.4376L32.9423 31.3732L32.8203 31.4448C32.2225 32.4026 32.9153 31.779 32.5943 32.4697C32.8894 31.8057 32.8257 32.1414 33.1176 31.7507C33.2396 31.6791 33.3968 31.6071 33.4649 31.483C33.2871 31.8462 33.7794 31.3391 33.5167 31.8617C33.62 31.7373 33.5969 31.905 33.8287 31.5943C33.8409 31.7617 33.6387 31.79 33.5185 31.9499C33.3177 32.4807 34.2455 31.7051 33.9961 32.4481C33.9774 32.8274 33.6866 33.2709 33.6758 33.6061C33.8932 33.4542 33.9921 33.1182 33.9921 33.1182C34.2192 33.0103 34.2649 33.0893 34.234 33.3012C34.302 33.1771 34.3887 33.1058 34.5273 32.9811C34.5644 33.0689 34.2196 33.46 34.4467 33.3521C34.5406 33.2014 34.6946 32.9707 34.7706 32.8025C34.7565 32.979 34.6479 33.2709 34.6515 33.4473C34.8415 33.2515 34.8645 33.0838 34.9404 32.9156C34.9527 33.083 35.0189 33.3028 34.7882 33.6664L34.6309 33.7384C34.6583 33.7823 34.8811 33.4628 34.8969 33.3745C35.0311 33.0382 34.6946 33.4028 34.5914 33.5272L34.5852 33.6595C33.9554 34.3442 34.4467 33.3521 34.2959 33.3094L33.9281 33.8683L34.1465 33.3373C34.0166 33.4531 33.7665 33.7287 33.7604 33.861C33.4732 34.0488 33.8349 33.6223 33.5308 33.8455C33.4876 33.89 33.4703 33.9078 33.462 33.9343L33.5016 33.7135C33.4336 33.8376 33.1914 34.0691 33.3055 34.0416C32.9211 34.2214 33.3818 33.4589 33.0096 33.8062L33.0017 33.8504C32.933 33.5071 33.2846 33.451 33.4933 32.8759L32.6379 33.7391L32.9207 33.3397C32.8855 33.34 32.8236 33.3318 32.7034 33.4916C32.829 33.1642 32.8502 33.3403 33.0031 33.0568C32.6206 33.3248 32.8541 32.6702 32.346 33.2656C32.5511 32.9463 32.6253 33.122 32.681 32.8305C32.1207 33.4616 32.6415 32.6192 32.3111 32.8515C32.0628 33.2153 32.2985 33.0985 31.9681 33.3308C32.3787 32.7098 31.6856 33.3157 31.6996 33.1393C32.0696 32.6862 31.6841 32.8132 31.6701 32.5576C31.5499 32.7174 31.2213 32.6058 30.9669 32.6698L30.9068 32.7497C31.2587 32.2792 31.0644 32.2633 31.0522 32.0959C30.8373 32.3712 30.7517 32.4955 30.702 32.6546L30.6124 32.5849C30.715 32.4253 30.7481 32.3191 30.7373 32.2222L30.4799 32.5773C30.3806 32.4636 30.5739 31.9945 30.2496 32.0945C30.5076 31.7747 31.0979 31.3107 31.1263 30.9754C30.9798 31.1443 30.7211 31.4288 30.7056 31.5348C30.7049 31.4995 30.7811 31.3489 30.6941 31.4026L30.5159 31.7481C30.341 31.8203 30.6869 31.482 30.607 31.4563C30.4004 31.7051 30.4159 31.5992 30.2701 31.8033C30.2708 31.8386 30.4011 31.7404 30.3417 31.8555C30.2446 31.8476 30.0524 31.9375 29.8793 32.0979C29.9998 31.9557 30.1549 31.7779 30.1445 31.6986C30.0452 31.5849 29.8588 31.957 29.6839 32.0291C29.8033 31.834 29.5852 31.9507 29.8865 31.5864C29.8595 31.5602 29.704 31.7203 29.609 31.8182C29.6928 31.6058 29.374 31.5382 29.7641 31.2083L29.799 31.1904C29.8076 31.1815 29.7986 31.1728 29.8073 31.1639C29.9289 30.6425 29.2401 31.028 29.1807 30.7111L29.0774 30.8355C29.0814 30.5974 28.8949 30.5374 29.0382 30.2098C29.0112 30.1836 28.7679 30.3622 28.6563 30.5131C28.6441 30.3457 28.756 30.2124 28.4667 30.2944C28.3666 30.5775 28.2759 30.4549 28.4185 30.5241C28.2158 30.5348 28.0251 30.6952 28.1928 30.2705C27.9618 30.6165 27.767 30.583 27.7994 30.4416L28.0697 30.2892C28.0413 30.1925 27.9704 30.1755 27.8995 30.1585L27.5731 30.5848C26.9087 30.873 27.8926 29.3915 26.998 30.061C27.1851 29.7242 27.2959 29.9701 27.5353 29.5975C27.3845 29.5548 26.7593 30.0367 26.7324 30.0105C26.3905 30.1106 27.1149 29.3104 26.8331 29.3306C26.9803 29.197 27.3434 28.841 27.3474 28.6029C27.1966 28.5602 26.687 29.0851 26.6463 29.253C26.6647 29.2881 26.7169 29.2523 26.7511 29.1991C26.7352 29.2874 26.7284 29.3845 26.5456 29.5008L26.6571 29.3499C26.4739 29.4486 26.3476 29.3086 26.1677 29.566C26.2076 29.3628 26.3386 29.2999 26.4617 29.2811C26.1461 29.3722 26.2551 29.0979 25.9996 29.109C26.0953 29.0464 26.2688 28.9038 26.2418 28.8775C25.8801 28.872 26.4023 28.5322 26.3192 28.3478C26.0399 28.4914 25.8805 28.8897 25.9006 28.5809C25.6904 28.6533 25.5375 28.9369 25.4698 29.0786C25.5944 28.6983 25.0722 29.0382 24.9574 29.0304L24.9167 29.1983C24.9412 29.1011 24.9052 29.0662 24.8782 29.0399L25.1729 28.7904C25.0937 28.7999 25.0491 28.7739 24.9458 28.8982C25.0736 28.6766 25.4043 28.462 25.5652 28.1343C25.382 28.2329 25.5504 27.8434 25.1873 28.1995C25.4612 28.2234 24.8242 28.5555 24.9073 28.7399C24.9235 28.6692 24.8965 28.643 24.8087 28.6614C24.7565 28.6972 24.7486 28.7413 24.7317 28.7768C24.2682 28.9662 25.048 28.2889 24.8864 28.1493C24.7148 28.3801 24.4794 28.5146 24.4956 28.4439C24.5672 28.4961 24.8594 28.1231 24.9433 27.9107C24.6889 27.9748 24.9476 27.6902 24.8764 27.6556L25.0081 27.628C25.1797 27.3971 25.1088 27.3801 25.0973 27.248C24.9418 27.4081 25.0567 27.4159 24.9696 27.4696C25.2341 27.0351 24.4358 27.6773 24.5611 27.3323C24.3779 27.4309 24.1897 27.7148 24.0497 27.769C24.1828 27.3798 23.6473 27.9314 23.7197 27.5869C24.0234 27.346 23.9629 27.4083 24.1321 27.054L24.1576 27.4418L24.4114 26.9104C24.483 26.9626 24.3822 27.2105 24.4614 27.2009C24.6143 26.9174 24.5452 26.9885 24.7968 26.7834C24.3099 27.1229 24.8591 26.3772 24.4837 26.5658L23.8276 27.2596C23.3814 27.4313 23.8945 26.6506 23.5329 26.6451L23.7168 26.5817C23.9575 26.2797 23.6343 26.4326 23.675 26.2647C23.4594 26.5047 23.3367 26.5411 23.1715 26.6572C23.3356 26.4882 23.0103 26.5353 23.4414 26.0552L23.0578 26.2703C22.7839 26.2464 23.5084 25.4462 23.2953 25.3776C23.0985 25.6703 22.871 25.7606 22.7972 26.0346C22.7432 25.9822 22.6551 25.983 22.8105 25.8229C22.6454 25.939 22.9779 25.3805 22.717 25.5592C22.794 25.4439 23.0182 25.1949 22.9469 25.1603C22.8947 25.1961 22.8346 25.276 22.8346 25.276C22.9469 25.1603 22.8915 25.0374 23.196 24.8318C22.343 25.3863 22.8335 24.359 22.0936 24.8331C22.0634 24.6482 22.0065 24.4547 21.9248 24.3408C21.8647 24.4208 21.8125 24.4565 21.8564 24.4473C21.5052 24.521 22.4236 23.7191 22.0375 23.8108C21.5934 24.0882 21.9198 24.094 21.7362 24.175C20.9747 24.8874 21.6509 23.8849 21.1197 24.216L21.1035 24.2867C20.7631 24.4573 21.191 23.8185 21.0042 23.7409C21.0042 23.7409 20.9438 23.8032 20.8919 23.8565C21.1823 23.3954 21.15 23.1047 21.1453 22.8755C20.8872 23.1953 21.0438 23.088 20.7228 23.3467C20.712 23.2498 21.2252 22.9012 21.2036 22.7074C21.0031 22.8239 20.7926 22.8787 20.4546 23.1728L20.5367 23.3043C20.0674 23.6437 20.419 23.1555 20.2956 23.1566L20.1228 23.3345C20.0213 23.115 20.4885 22.6699 20.2916 22.5306L20.4482 22.4234C20.8167 21.8997 20.1163 22.5851 20.3636 22.1684L19.8691 22.5697C19.9274 22.4017 20.1116 21.9238 20.09 21.7301C19.8068 22.1118 19.7514 22.4209 19.6247 22.6954C19.5617 22.6343 19.452 22.4413 19.6499 22.2014C19.6337 22.2721 19.5394 22.4052 19.6445 22.369C19.9447 21.9518 20.0184 21.6778 19.9015 21.5643C19.0194 22.4188 19.3699 21.4457 18.5699 21.9997C18.7001 21.4695 18.0077 21.6786 17.8249 21.3629C18.6253 20.8265 17.7788 21.2663 18.5241 20.6246C18.522 20.5188 18.4864 20.5015 18.4255 20.5461L17.8123 20.7457C17.5506 20.8892 17.7018 20.9496 17.5283 21.0922C17.3502 21.0057 17.1623 21.3072 16.8906 21.3891C17.1684 21.1749 17.2267 21.0068 17.0594 21.0172L17.5053 20.8279C17.7324 20.288 16.7369 21.2053 16.964 20.6654L16.7754 20.9316C16.8327 20.7106 16.4505 20.5643 16.9582 19.9512C16.8535 20.0051 16.6361 20.1569 16.6117 20.2542C16.3173 20.0893 16.7923 19.168 16.2572 19.3051L16.0931 19.4742C16.1089 19.3858 16.3676 19.1013 16.1406 19.2092C16.0625 19.2716 15.9765 19.3782 15.9498 19.3697C15.9923 19.2899 16.1711 18.9797 16.0132 19.0164L15.8501 19.2383C15.4085 19.2071 16.0545 18.4517 16.0218 18.1434C15.4755 18.5981 15.1393 18.5483 14.9713 18.5233L14.8932 18.5858C14.5973 18.3504 14.964 17.7386 14.9727 17.2977C14.2385 17.6219 14.2777 16.9514 13.731 16.9564C13.8714 16.9198 14.1651 16.6173 14.1895 16.5201C14.0225 16.5481 14.4447 16.0593 13.9326 16.4608L13.9592 16.4693C13.4194 16.8093 13.45 16.5798 13.3686 16.4836L14.0279 15.9485C13.442 16.1919 13.4017 15.9454 13.3794 15.7163C13.3657 15.4784 13.3787 15.249 12.8813 15.5093C13.0008 15.3142 12.9465 15.2442 13.0659 15.0491L12.701 15.317C12.4782 15.2044 12.3537 15.1526 12.286 14.8622L12.0528 15.1025C11.9359 14.9889 13.004 14.1767 12.9396 14.045L12.3562 14.4119C12.2018 14.1929 11.5691 14.3045 11.9189 13.7282C11.8408 13.7906 11.6757 13.9067 11.6767 13.9596C11.5954 13.8634 11.0124 13.8158 11.8138 13.3323C11.3093 13.672 11.6069 13.1314 11.7426 12.8657L11.3866 13.1423C11.7926 12.7241 11.9229 12.6259 11.9535 12.3964C11.8829 12.397 11.6306 12.5669 11.7537 12.5481C11.4896 12.5682 12.047 12.228 11.7559 12.2219L11.5486 12.4354C11.441 12.3482 11.5716 12.2676 11.8135 12.0185C11.9157 11.8412 11.5723 11.8708 11.2236 12.068C11.4233 11.9163 11.6565 11.6761 11.5151 11.6597C11.3755 11.7316 11.3154 11.8115 11.2808 11.8471C10.9011 11.8241 11.5338 11.2804 11.0771 11.3728C10.9465 11.4533 10.8853 11.4804 10.8327 11.4985C10.9418 11.6562 11.0408 11.7523 11.058 11.7345C10.71 11.9669 10.5671 11.8801 10.1522 12.2895C10.3494 12.0143 10.8057 11.4723 10.5675 11.4656C10.5326 11.4836 10.4887 11.4928 10.4365 11.5286L10.402 11.5641C10.349 11.5646 10.3656 11.5116 10.4084 11.4495C10.3289 11.4414 10.2674 11.4507 10.2314 11.4158C9.92618 11.5861 9.9834 11.3652 9.92941 11.3128C10.3127 11.08 10.2058 11.0281 10.565 10.9102C10.5297 10.9105 10.5218 10.9546 10.5405 11.0074C10.5409 11.025 10.5412 11.0426 10.5239 11.0604C10.5326 11.0515 10.5412 11.0426 10.5499 11.0337C10.5686 11.0865 10.5873 11.1392 10.624 11.2094C10.7881 11.0404 10.9173 10.8893 10.6629 10.9533C10.8971 10.766 11.1224 10.57 11.2264 10.4808C10.6319 10.7332 10.2353 10.7456 9.89521 10.9339C9.94488 10.7748 9.90672 10.634 9.93875 10.475C9.97942 10.3071 10.0813 10.1122 10.4106 9.82701C10.4699 9.71184 10.1648 9.88217 10.0424 9.9362C9.99093 10.0072 10.0269 10.0422 9.93155 10.1224C10.0593 9.90078 9.80918 9.74435 10.3051 9.41356C9.99631 9.40757 9.87144 9.77024 9.84876 9.52355L9.70121 9.63953C9.18189 9.68838 9.41293 9.34238 9.6267 9.01417C9.83147 8.67723 10.0017 8.37587 9.35965 8.46112C9.43882 8.45158 9.47409 8.45125 9.57018 8.40628C9.20633 8.29499 9.17358 7.98668 9.11455 7.68743C9.08503 7.5378 9.04688 7.39707 8.95655 7.29209C8.86621 7.18711 8.72333 7.10024 8.46709 7.07614C8.2454 7.01645 8.56786 6.82832 8.79278 6.61464L8.33789 6.79516L8.80574 6.38527C8.94285 6.19003 8.62615 6.2282 8.34435 6.24842C8.0712 6.25974 7.83259 6.23548 8.11762 5.94189L8.43288 5.83318C8.32563 5.76363 8.46922 5.4537 8.12877 5.62435C8.18095 5.5886 8.43395 5.45402 8.24933 5.48217L8.01324 5.58133C8.10753 5.4482 8.21046 5.30617 8.30474 5.17305C8.05534 5.05189 7.38739 5.59588 7.21428 5.32413C7.24883 5.28854 7.29165 5.22642 7.34348 5.17304C7.40394 5.11077 7.47303 5.03959 7.55977 4.96826C7.72459 4.83448 7.89878 4.72708 7.97795 4.71753C8.00531 4.76137 8.16438 4.77755 8.40946 4.68712L8.49475 4.54526C8.85356 4.40971 9.20337 4.26542 9.53627 4.15656C9.86917 4.0477 10.1938 3.96536 10.4579 3.9453C10.3277 4.04349 10.2064 4.15041 10.0937 4.24844L10.4446 4.15705L10.4245 4.03379C10.7671 3.96892 10.4968 4.1213 10.332 4.25507C10.5159 4.19166 10.6476 4.164 10.7268 4.15446C10.5267 4.28856 10.3266 4.42265 10.1179 4.56565C10.3892 4.46617 10.6235 4.27885 10.8178 4.2947C10.5397 4.49124 10.187 4.49447 10.0322 4.68988C10.3748 4.62501 10.6278 4.49043 10.3849 4.68664C10.5688 4.62323 10.6732 4.55174 10.7336 4.48946C10.5519 4.65866 10.7293 4.70994 10.3806 4.90712C10.793 4.80635 10.3864 5.18923 11.0327 4.88351C10.8848 4.98185 10.5814 5.24034 10.5919 5.31961C11.3051 4.83692 10.7639 5.53847 11.5664 5.10787C10.9136 5.52828 11.4171 5.56775 11.1155 5.91439C11.1677 5.87865 11.2721 5.80715 11.2192 5.80763C11.3174 5.86846 11.5362 5.78709 11.6946 5.768C11.1364 6.07292 11.0874 6.26735 10.7751 6.51711C11.371 6.33529 11.4016 6.10576 11.9436 5.87153C11.4898 6.10495 11.5906 6.28919 11.1882 6.4516C11.5654 6.35114 11.3908 6.44092 11.8716 6.23371C11.1828 6.61918 11.795 6.36667 11.4042 6.66124C11.8173 6.59572 12.0678 6.33772 11.9318 6.58586C12.1779 6.54833 12.3669 6.29971 12.3669 6.29971ZM12.9798 9.97099C12.9791 9.93572 12.9697 9.90936 12.9694 9.89172C12.9697 9.90936 12.9791 9.93572 12.9798 9.97099ZM13.1349 10.2253C13.0993 10.208 13.072 10.1641 13.0536 10.129C12.914 10.2008 12.7837 10.299 12.8107 10.3252C12.8798 10.2541 12.9946 10.2618 13.1349 10.2253ZM10.1335 11.3726C10.1086 11.4522 10.1961 11.4161 10.2745 11.3713C10.2652 11.345 10.2645 11.3097 10.2724 11.2655C10.281 11.2566 10.2983 11.2388 10.3159 11.2387C10.2465 11.2922 10.1857 11.3369 10.1335 11.3726Z" fill="#FF7777"/>
<path d="M10.5838 10.9804C10.5924 10.9715 10.601 10.9626 10.6007 10.945C10.6446 10.9357 10.6709 10.9267 10.6971 10.9176C10.6626 10.9532 10.619 10.9801 10.5931 11.0068C10.6018 10.9979 10.5928 10.9891 10.5838 10.9804Z" fill="#FF7777"/>
<path d="M16.2094 13.0892L16.105 13.1607L16.1828 13.0807L16.2094 13.0892Z" fill="#FF7777"/>
<path d="M32.0541 31.0638C32.08 31.0371 32.1146 31.0016 32.1408 30.9925C32.1236 31.0103 32.0887 31.0282 32.0541 31.0638Z" fill="#FF7777"/>
<path d="M32.6789 31.4286L32.8628 31.3652C32.7667 31.4102 32.7142 31.4283 32.6789 31.4286Z" fill="#FF7777"/>
<path d="M33.2471 31.5996C33.2042 31.6617 33.1701 31.7149 33.1269 31.7594L33.2471 31.5996Z" fill="#FF7777"/>
<path d="M26.9919 25.4584C26.9829 25.4496 26.9915 25.4407 26.9912 25.4231C27.0156 25.3259 27.0167 25.3788 26.9919 25.4584Z" fill="#FF7777"/>
<path d="M28.2 28.0131C28.2338 27.9422 28.2673 27.8537 28.2839 27.8007C28.3368 27.8002 28.3724 27.8175 28.2 28.0131Z" fill="#FF7777"/>
<path d="M25.2854 23.0581C25.2767 23.0669 25.2854 23.0581 25.2854 23.0581C25.2767 23.0669 25.2677 23.0582 25.2677 23.0582L25.2854 23.0581Z" fill="#FF7777"/>
<path d="M28.1756 27.7136C28.263 27.6775 28.2904 27.7213 28.2742 27.792C28.2213 27.7925 28.1597 27.8019 28.1756 27.7136Z" fill="#FF7777"/>
<path d="M35.2405 32.9481L35.2758 32.9478C35.2585 32.9656 35.2503 32.9921 35.233 33.0099L35.2405 32.9481Z" fill="#FF7777"/>
<path d="M35.2246 33.0011L35.2171 33.0629C35.2081 33.0542 35.1991 33.0454 35.2246 33.0011Z" fill="#FF7777"/>
<path d="M35.2018 33.1866L35.2256 33.0541C35.2349 33.0804 35.2702 33.0801 35.2018 33.1866Z" fill="#FF7777"/>
<path d="M34.5385 32.6459L34.6328 32.5128C34.6245 32.5393 34.5903 32.5926 34.5385 32.6459Z" fill="#FF7777"/>
<path d="M34.3934 32.4709C34.4553 32.4791 34.7158 32.2828 34.7007 32.4063L34.6323 32.5128C34.7691 32.2999 34.2663 32.7278 34.3934 32.4709Z" fill="#FF7777"/>
<path d="M32.4032 33.4766L32.6328 33.4922C32.5029 33.608 32.3208 33.7595 32.3578 33.8474C31.8428 34.1078 32.6432 33.5714 32.4032 33.4766Z" fill="#FF7777"/>
<path d="M31.7911 33.2972C31.8203 33.4292 31.6364 33.4926 31.5763 33.5725C31.6259 33.4134 31.6338 33.3692 31.7911 33.2972Z" fill="#FF7777"/>
<path d="M28.5426 30.5758L28.2846 30.8956C28.2562 30.7989 28.3879 30.7712 28.5426 30.5758Z" fill="#FF7777"/>
<path d="M29.3372 28.4435L29.5545 28.2917L29.3318 28.6111L29.3372 28.4435Z" fill="#FF7777"/>
<path d="M27.0301 30.3339L27.0139 30.4046L27.0186 30.2018L27.0301 30.3339Z" fill="#FF7777"/>
<path d="M21.9008 25.3021L22.2819 24.9636C22.2488 25.0697 21.8515 25.4789 21.9008 25.3021Z" fill="#FF7777"/>
<path d="M20.1105 22.735C19.9018 22.878 19.7265 22.9325 19.8723 22.7284C19.9432 22.7453 20.1354 22.6554 20.1105 22.735Z" fill="#FF7777"/>
<path d="M13.4327 16.1832L13.3301 16.3429L13.3704 16.1573L13.4327 16.1832Z" fill="#FF7777"/>
</g>
<defs>
<clipPath id="clip0">
<rect width="17" height="43" fill="white" transform="matrix(-0.696565 0.717493 0.717493 0.696565 11.8418 0)"/>
</clipPath>
</defs>
</svg>
