<svg width="33" height="16" viewBox="0 0 33 16" fill="none" xmlns="http://www.w3.org/2000/svg">
<path d="M8.15994 15.2C7.70661 14.0933 7.25327 12.9933 6.79994 11.9C6.35994 10.8067 5.91327 9.71333 5.45994 8.62C5.35327 8.36667 5.21327 8.01333 5.03994 7.56C4.87994 7.09333 4.70661 6.56 4.51994 5.96C4.34661 5.36 4.18661 4.74 4.03994 4.1C4.06661 4.84667 4.08661 5.55333 4.09994 6.22C4.11328 6.87333 4.11328 7.5 4.09994 8.1C4.09994 8.7 4.09328 9.30667 4.07994 9.92C4.07994 10.52 4.07994 11.12 4.07994 11.72C4.07994 12.08 4.06661 12.4267 4.03994 12.76C4.02661 13.0933 4.00661 13.3467 3.97994 13.52C4.20661 13.4933 4.47994 13.48 4.79994 13.48C5.13328 13.4667 5.36661 13.46 5.49994 13.46V15H0.939941V13.68C1.24661 13.6667 1.49994 13.6267 1.69994 13.56C1.91327 13.4933 2.07327 13.34 2.17994 13.1C2.29994 12.86 2.35994 12.4733 2.35994 11.94L2.47994 4.28C2.49327 3.92 2.50661 3.57333 2.51994 3.24C2.53327 2.90667 2.54661 2.65333 2.55994 2.48C2.34661 2.49333 2.07994 2.50667 1.75994 2.52C1.43994 2.52 1.20661 2.52667 1.05994 2.54V1H5.47994L8.49994 8.74C8.61994 9.04667 8.75327 9.40667 8.89994 9.82C9.04661 10.22 9.18661 10.6133 9.31994 11C9.45328 11.3733 9.55328 11.6733 9.61994 11.9H9.63994C9.81328 11.4333 9.97328 10.98 10.1199 10.54C10.2666 10.1 10.4199 9.67333 10.5799 9.26C11.0999 7.87333 11.6133 6.49333 12.1199 5.12C12.6399 3.74667 13.1599 2.37333 13.6799 1H18.2999V2.32C18.0066 2.33333 17.7466 2.37333 17.5199 2.44C17.2933 2.50667 17.1199 2.66 16.9999 2.9C16.8933 3.12667 16.8466 3.51333 16.8599 4.06L17.1599 11.72C17.1866 12.08 17.1866 12.4267 17.1599 12.76C17.1333 13.0933 17.1066 13.3467 17.0799 13.52C17.3066 13.4933 17.5799 13.48 17.8999 13.48C18.2333 13.4667 18.4666 13.46 18.5999 13.46V15H13.0399V13.68C13.3466 13.6667 13.6066 13.6267 13.8199 13.56C14.0466 13.4933 14.2133 13.34 14.3199 13.1C14.4399 12.86 14.4866 12.4733 14.4599 11.94L14.2999 7.7C14.2999 7.54 14.2866 7.26667 14.2599 6.88C14.2333 6.48 14.2066 6.04667 14.1799 5.58C14.1666 5.1 14.1533 4.65333 14.1399 4.24C14.0999 4.33333 14.0599 4.42667 14.0199 4.52C13.9799 4.6 13.9466 4.68667 13.9199 4.78L10.0199 15.2H8.15994Z" fill="#DF80C5"/>
<path d="M20 15V13.6546C20.3394 13.6546 20.6121 13.5506 20.8182 13.3426C21.0242 13.1346 21.1939 12.8617 21.3273 12.5237C21.4727 12.1857 21.6121 11.8217 21.7455 11.4318L25.2909 1H26.5636L30.4364 11.6267C30.5091 11.8217 30.6061 12.1207 30.7273 12.5237C30.8485 12.9136 30.9212 13.2581 30.9455 13.5571C31.1515 13.5311 31.3455 13.5181 31.5273 13.5181C31.7212 13.5051 31.8788 13.4986 32 13.4986V15H27.1091V13.7131C27.6061 13.7131 27.8848 13.5506 27.9455 13.2256C28.0061 12.8877 27.9515 12.4782 27.7818 11.9972L27.4182 10.9248L23.4727 11.0028L23.1818 11.9192C23.1212 12.0882 23.0303 12.3417 22.9091 12.6797C22.8 13.0046 22.697 13.2776 22.6 13.4986C22.7939 13.4726 23.0242 13.4596 23.2909 13.4596C23.5697 13.4466 23.7697 13.4401 23.8909 13.4401V15H20ZM23.9273 9.54039H26.9636L26.1273 7.10306C25.9697 6.6351 25.8303 6.16713 25.7091 5.69916C25.5879 5.2182 25.497 4.79573 25.4364 4.43175H25.4182C25.3697 4.65274 25.297 4.98422 25.2 5.42618C25.103 5.86815 24.9515 6.39462 24.7455 7.00557L23.9273 9.54039Z" fill="#E8A95F"/>
</svg>
