<svg width="17" height="43" viewBox="0 0 17 43" fill="none" xmlns="http://www.w3.org/2000/svg">
<g clip-path="url(#clip0)">
<path d="M1.47483 32.9795C1.37563 33.0799 1.18964 33.3307 1.25164 33.3056L1.59883 32.9043L1.47483 32.9795Z" fill="#FF7777"/>
<path d="M1.0166 33.8827C1.2026 33.7072 1.52499 33.3686 1.82258 32.9673C1.47539 33.3435 1.59939 33.1679 1.1902 33.6319C1.1282 33.657 1.2522 33.4689 1.38859 33.3059C1.2894 33.4062 1.42579 33.1805 1.2026 33.4313C0.979402 33.7824 1.0042 33.8326 1.2646 33.5943C1.1778 33.7071 1.091 33.8075 1.0166 33.8827Z" fill="#FF7777"/>
<path d="M2.85156 36.466L2.87636 36.4033C2.86396 36.4409 2.85156 36.4535 2.85156 36.466Z" fill="#FF7777"/>
<path d="M4.12879 37.8955C4.10399 37.8955 4.06679 37.9331 4.04199 37.9707C4.07919 37.9457 4.10399 37.9331 4.12879 37.8955Z" fill="#FF7777"/>
<path d="M4.00473 38.5601C4.00473 38.5475 4.00473 38.535 4.01713 38.5225C3.99233 38.5601 3.97993 38.5852 4.00473 38.5601Z" fill="#FF7777"/>
<path d="M2.85106 36.4658L2.78906 36.6288C2.90066 36.5034 2.85106 36.516 2.85106 36.4658Z" fill="#FF7777"/>
<path d="M2.1575 33.1426C2.1327 33.1551 2.0955 33.1927 2.0459 33.2304C2.0707 33.2178 2.0831 33.2053 2.0955 33.2053C2.1203 33.1802 2.1327 33.1677 2.1575 33.1426Z" fill="#FF7777"/>
<path d="M1.93366 36.2778C1.87166 36.3155 1.82206 36.3782 1.77246 36.4283L1.93366 36.2778Z" fill="#FF7777"/>
<path d="M1.38867 35.9394C1.38867 35.9645 1.67387 35.6134 1.81026 35.4629C1.68626 35.6008 1.62427 35.6635 1.58707 35.6886C1.53747 35.7513 1.47547 35.8391 1.38867 35.9394Z" fill="#FF7777"/>
<path d="M1.11503 34.6729L1.06543 34.7105C1.07783 34.6979 1.09023 34.6854 1.11503 34.6729Z" fill="#FF7777"/>
<path d="M2.23103 36.6416C2.19383 36.6918 2.15663 36.7419 2.13184 36.767C2.16903 36.7294 2.20623 36.6918 2.23103 36.6416Z" fill="#FF7777"/>
<path d="M13.7383 31.4496C13.7631 31.4746 13.7755 31.4872 13.8003 31.4997C13.7631 31.4621 13.7383 31.437 13.7383 31.4496Z" fill="#FF7777"/>
<path d="M15.9453 32.2905L15.9577 32.3156C16.0197 32.3658 16.0941 32.4285 16.1561 32.4786L15.9453 32.2905Z" fill="#FF7777"/>
<path d="M4.10356 39.3882C4.06636 39.4133 4.07876 39.4133 4.10356 39.3882V39.3882Z" fill="#FF7777"/>
<path d="M10.1801 42.3098C10.0809 42.1091 10.0685 41.921 10.0437 41.7329C10.0189 41.5448 9.98171 41.3567 9.87012 41.1436C9.90732 41.2439 9.94452 41.4821 9.99411 41.7204C10.0437 41.9587 10.0933 42.2095 10.1801 42.3098Z" fill="#FF7777"/>
<path d="M2.13184 33.1932C2.14424 33.1932 2.15664 33.1932 2.15664 33.2057C2.15664 33.1932 2.14424 33.1806 2.13184 33.1932Z" fill="#FF7777"/>
<path d="M9.86952 41.1312L9.84473 41.0811C9.85713 41.1061 9.86952 41.1187 9.86952 41.1312Z" fill="#FF7777"/>
<path d="M5.31934 40.04C5.36893 39.9773 5.40613 39.9271 5.43093 39.877C5.40613 39.9146 5.38133 39.9522 5.31934 40.04Z" fill="#FF7777"/>
<path d="M4.94667 38.8862L4.92188 38.9489C4.94667 38.9113 4.94667 38.8988 4.94667 38.8862Z" fill="#FF7777"/>
<path d="M6.13737 39.8643C6.12497 39.9019 6.08777 39.952 6.13737 39.9144C6.14977 39.8893 6.16217 39.8768 6.16217 39.8643C6.12497 39.9144 6.10017 39.9395 6.13737 39.8643Z" fill="#FF7777"/>
<path d="M6.69531 40.328C6.70771 40.2904 6.72011 40.2653 6.73251 40.2402C6.72011 40.2402 6.70771 40.2402 6.69531 40.2402V40.328Z" fill="#FF7777"/>
<path d="M12.8584 32.8796C12.97 32.9548 13.0816 33.0301 13.1932 33.1179C12.9328 32.9298 12.8956 32.7918 12.8584 32.8796Z" fill="#FF7777"/>
<path d="M1.99609 33.3435C2.07049 33.2557 2.10769 33.2181 2.13249 33.2056C2.12009 33.2056 2.12009 33.2056 2.10769 33.2181C2.05809 33.2557 2.02089 33.3059 1.99609 33.3435Z" fill="#FF7777"/>
<path d="M8.40625 37.0679L8.43105 37.1807C8.43105 37.1306 8.41865 37.093 8.40625 37.0679Z" fill="#FF7777"/>
<path d="M10.4527 36.0018L10.4279 35.9517C10.4031 35.9517 10.4155 35.9642 10.4527 36.0018Z" fill="#FF7777"/>
<path d="M8.54274 37.1934C8.45594 37.3313 8.40634 37.4065 8.36914 37.4567C8.39394 37.4191 8.41874 37.394 8.43114 37.3564C8.46834 37.3062 8.50554 37.2435 8.54274 37.1934Z" fill="#FF7777"/>
<path d="M12.7216 31.9892C12.6596 32.0519 13.1556 32.3905 13.4036 32.6162C13.478 32.8043 13.0316 32.3779 12.7712 32.2024C12.858 32.3529 13.2548 32.7416 13.2052 32.7541C13.1308 32.6914 13.0936 32.6789 13.0068 32.5911C13.3292 32.9422 12.9076 32.7541 13.3168 33.1931C13.2672 33.168 13.23 33.1303 13.1928 33.1053C13.4284 33.2808 13.664 33.4815 13.8376 33.6194C13.8252 33.657 14.0856 33.9078 13.7756 33.6821C13.8004 33.6696 13.6764 33.5693 13.5896 33.4815L13.7012 33.6194C13.2424 33.2934 13.5896 33.4564 13.2672 33.1931C13.3664 33.3686 13.664 33.7323 13.5028 33.6821C13.0688 33.3435 13.4408 33.4564 13.0192 33.2056L13.2424 33.2683C12.5232 32.7667 13.3292 33.2683 12.5604 32.7291C12.362 32.7165 12.6968 33.0049 12.4984 33.0049C12.7216 33.2181 12.858 33.2808 13.0688 33.494C13.3912 33.9705 11.9156 32.7165 12.4116 33.2808C12.672 33.5442 13.2052 33.9831 12.8704 33.8201L12.4116 33.4062C12.2876 33.4564 13.0564 34.0207 12.6596 33.8577C12.486 33.6821 12.5604 33.657 12.486 33.6194C12.052 33.3686 12.7216 33.8828 12.6844 33.9329L12.2504 33.5943C12.238 33.7448 12.4612 34.0959 12.4612 34.2715C12.3372 34.1586 12.2256 34.0332 12.0644 33.958C12.176 34.2715 11.7792 34.1963 11.432 34.121L11.7544 34.4721C11.742 34.4847 11.5684 34.3593 11.5064 34.284C11.3328 34.2213 11.742 34.4721 11.866 34.6226C11.866 34.6728 11.6304 34.4847 11.5312 34.3844C11.7668 34.7229 12.0024 35.1869 11.5312 34.9612L11.432 34.8483C11.2212 34.7982 12.114 35.5506 11.7172 35.3374L11.6676 35.2747C11.3824 35.2998 11.5808 35.7512 10.9237 35.4126C11.432 35.8641 10.5641 35.375 11.2956 35.9895C10.8617 35.7763 10.7501 35.6509 10.4029 35.5757C10.3409 35.5757 10.8245 36.002 10.8617 36.1149L10.4773 35.8014L10.8369 36.1901L10.3533 35.839L10.4153 35.9644C10.4525 35.9644 10.6137 36.0773 10.7253 36.165C10.8493 36.3657 10.3409 36.0898 10.1425 35.9393L10.3533 36.3531C10.2045 36.2277 10.1673 36.1525 10.0805 36.0522C10.4153 36.4535 9.65889 35.7387 9.96888 36.1023C10.0681 36.165 10.1921 36.2904 10.2665 36.3657C10.0061 36.2152 9.94408 36.2904 9.99368 36.4284L9.73328 36.2027C9.58449 36.2528 9.68368 36.5287 9.57209 36.6541C9.73328 36.7168 10.1797 37.1056 10.2045 37.1683L9.78288 36.8422C10.0185 37.0679 9.96888 36.93 10.2417 37.231C10.1549 37.2435 9.75808 36.8798 9.64649 36.7419L9.74568 36.9175C9.62169 36.8171 9.57209 36.7544 9.41089 36.629C9.64649 36.8548 8.9273 36.3908 9.33649 36.7795L9.2125 36.6792C9.1133 36.7921 9.2125 36.9676 9.1505 37.0805C9.49769 37.3689 9.38609 37.3438 9.65889 37.6072C9.62169 37.6072 9.55969 37.5946 9.51009 37.5695C9.46049 37.5445 9.41089 37.5068 9.37369 37.4818C9.28689 37.4316 9.2249 37.3814 9.2249 37.4065C9.37369 37.5821 9.49769 37.6824 9.67129 37.8956C9.37369 37.6072 9.38609 37.6573 9.1877 37.4191C9.2001 37.4567 9.2125 37.4818 9.2373 37.5319C9.26209 37.5821 9.31169 37.6699 9.39849 37.8329C9.51009 37.9708 9.55969 38.021 9.64649 38.1464C9.67129 38.2216 9.52249 38.0335 9.39849 37.858L9.37369 37.8203C9.53489 38.1213 9.31169 37.9081 9.1629 37.6699C9.0017 37.4441 8.8901 37.1933 9.0761 37.6573L9.0637 37.6072C9.1257 37.7702 9.1753 37.9457 9.2249 38.1213C9.1753 38.0711 9.1009 37.7827 8.9769 37.5194C9.1133 37.9081 9.0761 37.9081 9.0513 37.858C9.0141 37.8078 8.9893 37.72 9.0389 38.021C8.82811 37.3062 8.84051 37.3313 8.85291 37.4316C8.8653 37.5319 8.8777 37.7451 8.79091 37.2184L8.85291 37.6072C8.9025 37.9959 8.81571 37.394 8.80331 37.3062C8.84051 37.6072 8.8529 37.6573 8.8777 37.8705C8.8777 37.9583 8.8777 38.0084 8.8653 38.0335C8.84051 38.0084 8.79091 37.7953 8.76611 37.557C8.74131 37.3187 8.74131 37.0679 8.75371 36.9425C8.75371 36.8924 8.71651 37.3438 8.67931 37.6949C8.64211 38.0461 8.59251 38.2969 8.62971 37.883C8.66691 37.6824 8.69171 37.4692 8.71651 37.256C8.65451 37.6197 8.62971 37.5946 8.61731 37.557C8.60491 37.5194 8.60491 37.4818 8.48091 37.7326C8.50571 37.6573 8.53051 37.6072 8.55531 37.5445C8.58011 37.4943 8.59251 37.4567 8.59251 37.4567C8.65451 37.256 8.65451 37.256 8.61731 37.3313C8.58011 37.4065 8.50571 37.5695 8.44371 37.72C8.45611 37.6824 8.55531 37.4441 8.61731 37.2811C8.66691 37.1683 8.60491 37.2811 8.55531 37.3814C8.50571 37.4818 8.45611 37.5445 8.54291 37.3689C8.56771 37.3062 8.60491 37.256 8.61731 37.231C8.53051 37.4065 8.62971 37.1808 8.40652 37.5821C8.44372 37.4818 8.41892 37.5194 8.38172 37.5445C8.35692 37.5695 8.31972 37.5946 8.38172 37.4818C8.23292 37.6824 8.25772 37.6322 8.27012 37.5946C8.28252 37.557 8.28252 37.5445 8.05932 37.8329C8.17092 37.6824 8.24532 37.5821 8.29492 37.5068C8.31972 37.4692 8.33212 37.4441 8.34452 37.4316C8.35692 37.4191 8.35692 37.4065 8.35692 37.394C8.33212 37.3564 8.20812 37.4191 8.08412 37.5319C8.23292 37.3689 8.19572 37.3187 8.39412 37.093C8.34452 37.0554 8.20812 37.1306 7.98493 37.4316C8.44372 36.6667 7.36494 37.8329 8.00972 36.9175C7.61293 37.1056 7.31534 37.2059 7.07975 37.231C7.53854 36.6667 7.26574 37.2937 7.74933 36.6917C7.43934 36.8297 6.96815 37.256 6.95575 37.0178C6.98055 36.9175 7.16654 36.7795 7.26574 36.6917C6.95575 36.8297 7.06735 36.4409 6.70776 36.6667C6.74495 36.6165 6.80695 36.5663 6.85655 36.5287C6.81935 36.5287 6.86895 36.4033 6.67056 36.6667L6.74496 36.6165C6.47216 37.0178 6.02577 37.3313 5.86458 37.5319C6.49696 36.8171 5.90177 37.256 6.72016 36.3657C6.67056 36.4033 6.54656 36.5162 6.41016 36.6917C6.43496 36.629 6.50936 36.5162 6.68296 36.3406C6.49696 36.4158 6.29856 36.7168 6.23657 36.6541C6.33576 36.5287 6.38536 36.4911 6.52176 36.3531C6.28617 36.5663 6.05057 36.7795 6.08777 36.629C6.14977 36.5538 6.22417 36.4535 6.23657 36.466C6.10017 36.4158 5.54218 36.9802 5.61658 36.6416C6.08777 36.1274 5.72818 36.4284 6.10017 35.9519L5.92657 36.0396L5.76538 36.2904C5.71578 36.2403 5.39339 36.5412 5.46778 36.3531L5.66618 36.1901L5.49258 36.2027L5.40579 36.4284C5.15779 36.629 4.9346 37.0303 4.9718 36.8422C5.0214 36.8046 4.9222 36.7921 5.12059 36.4911C4.9718 36.6165 4.823 36.7544 4.8726 36.604C4.9842 36.4409 5.29419 36.0898 5.36859 35.9769C5.0214 36.3531 5.15779 35.9895 4.7858 36.3782C4.8726 36.2905 5.07099 36.0396 5.10819 35.9895L4.823 36.2904C4.885 36.165 4.9222 36.1149 5.08339 35.9142C5.05859 35.7888 4.6246 36.5287 4.7486 36.2027C4.7734 36.1776 4.8106 36.1274 4.8602 36.0898C4.885 35.8766 4.52541 36.1525 4.57501 35.9268C4.9346 35.4252 4.7362 35.8641 5.03379 35.4503C4.8478 35.4377 4.33941 35.8265 4.31461 35.6133L4.28981 35.6885C3.73183 36.3532 4.47581 35.2872 4.16582 35.5506C4.21541 35.513 4.48821 35.1869 4.41381 35.2622C4.42621 35.0866 4.11622 35.2998 3.83102 35.4126L3.97982 35.2496C4.05422 35.0615 3.93022 35.0615 3.94262 34.9487C3.79382 35.1117 3.78142 35.0615 3.59543 35.3249C4.22781 34.2213 2.87625 35.6133 3.39703 34.6853C3.40943 34.6979 3.55823 34.5599 3.54583 34.5599L3.29784 34.6226C3.07464 34.9236 3.17384 34.8107 3.01264 35.0615C2.86385 35.2245 2.71505 35.3249 2.69025 35.3123C2.90105 35.1618 3.06224 34.8358 3.17384 34.6602C3.11184 34.748 3.02504 34.8483 2.95064 34.9361C3.31024 34.3718 2.46706 35.513 2.66545 35.0991L2.78945 34.9487C2.69025 34.9988 2.50425 35.1869 2.50425 35.1117C2.76465 34.7606 2.66545 34.9863 2.88865 34.6979C2.82665 34.6853 2.28106 35.2622 2.51665 34.886C2.61585 34.8107 2.64065 34.8358 2.73985 34.748C3.01264 34.3091 2.92584 34.4094 2.93824 34.3217V34.3342L3.00024 34.0834L2.93824 34.2088C2.16946 35.049 2.69025 34.2715 2.14466 34.7856C2.66545 34.2966 2.40506 34.4847 2.72745 34.0959C2.78945 33.9705 2.86385 33.8326 2.95064 33.7323C2.66545 34.0082 3.08704 33.4313 2.66545 33.8451C2.76465 33.7197 2.64065 33.795 2.88865 33.494C2.76465 33.5567 2.72745 33.7197 2.60345 33.8702C2.19426 34.2339 2.83905 33.2181 2.26866 33.7072C1.98347 33.8702 1.63627 34.2715 1.38828 34.4094C1.51228 34.1837 1.77267 33.9831 1.77267 33.9831C1.87187 33.7574 1.80987 33.7699 1.64867 33.8702C1.74787 33.7699 1.80987 33.6696 1.90907 33.5191C1.84707 33.5191 1.52468 33.9455 1.62388 33.7323C1.74787 33.6069 1.93387 33.3937 2.05787 33.2683C1.92147 33.3435 1.69827 33.5442 1.56188 33.6194C1.72307 33.3937 1.84707 33.3185 1.98347 33.1805C1.85947 33.2432 1.69827 33.2683 1.41308 33.6069L1.35108 33.7574C1.32628 33.7574 1.57428 33.4564 1.63627 33.4062C1.89667 33.168 1.59908 33.5693 1.49988 33.6947L1.40068 33.7448C0.855093 34.4972 1.61148 33.7323 1.64867 33.8201L1.20229 34.3217L1.61148 33.9329C1.51228 34.0834 1.28908 34.3844 1.18989 34.4345C1.02869 34.7355 1.37588 34.284 1.18989 34.5975C1.15269 34.6477 1.14029 34.6728 1.11549 34.6853L1.28908 34.5599C1.18989 34.6602 1.00389 34.9361 1.02869 34.8358C0.867493 35.1995 1.47508 34.5474 1.17749 34.9612L1.14029 34.9863C1.38828 34.8985 1.46268 34.6101 1.90907 34.2213L1.20229 35.2245L1.52468 34.8483C1.52468 34.8734 1.52468 34.9236 1.40068 35.0741C1.64867 34.8483 1.52468 34.8985 1.74787 34.6728C1.52468 35.0741 2.03307 34.6226 1.54948 35.2496C1.80987 34.9737 1.68587 34.9863 1.89667 34.8233C1.38828 35.5004 2.05786 34.7606 1.85947 35.1117C1.57428 35.4377 1.67347 35.2245 1.47508 35.5631C1.97107 35.0114 1.46268 35.7638 1.59908 35.6885C1.97107 35.2245 1.84707 35.5757 2.03307 35.4753C1.90907 35.6258 1.95867 35.839 1.89667 36.0522L1.83467 36.1274C2.21906 35.676 2.21906 35.8139 2.34306 35.7638C2.11986 36.0396 2.02067 36.14 1.89667 36.2528L1.94627 36.2904C2.07026 36.1525 2.15706 36.0773 2.23146 36.0522L1.94627 36.3908C2.02067 36.4159 2.39266 36.0773 2.29346 36.3782C2.55385 36.0522 2.95064 35.4252 3.21104 35.2747C3.07464 35.4503 2.83905 35.7512 2.75225 35.8139C2.77705 35.8014 2.88865 35.6885 2.85145 35.7763L2.57865 36.0396C2.50425 36.2027 2.78945 35.8139 2.80185 35.8641C2.60345 36.1149 2.67785 36.0647 2.51665 36.2528C2.49185 36.2654 2.57865 36.1274 2.47945 36.2152C2.47945 36.2904 2.39266 36.466 2.25626 36.6667C2.36786 36.5162 2.52905 36.3281 2.57865 36.3155C2.65305 36.3406 2.35546 36.629 2.29346 36.7921C2.44226 36.629 2.34306 36.8422 2.64065 36.466C2.65305 36.4785 2.51665 36.6541 2.44226 36.767C2.60345 36.629 2.62825 36.8422 2.91344 36.4158L2.92584 36.3782C2.93824 36.3657 2.93824 36.3782 2.93824 36.3657C3.33503 36.0773 2.98784 36.7544 3.21104 36.6792L3.11184 36.8046C3.28544 36.7168 3.31024 36.8297 3.57063 36.5914C3.58303 36.6039 3.43423 36.8548 3.29784 36.9927C3.42183 36.9425 3.53343 36.8046 3.43423 37.0679C3.21104 37.2435 3.29784 37.2686 3.26064 37.1933C3.23584 37.3564 3.08704 37.557 3.42183 37.2686C3.14904 37.5695 3.14904 37.7075 3.24824 37.6322L3.38463 37.3689C3.45903 37.3438 3.45903 37.394 3.47143 37.4567L3.12424 37.8705C2.83905 38.485 4.04182 37.1808 3.44663 38.1213C3.71943 37.858 3.54583 37.858 3.85582 37.5319C3.86822 37.6322 3.44663 38.2843 3.45903 38.3094C3.34743 38.6104 4.02942 37.7576 3.97982 37.9834C4.09142 37.8203 4.40141 37.4191 4.57501 37.3187C4.58741 37.4191 4.14102 38.0084 4.00462 38.0962C3.97982 38.0962 4.01702 38.0461 4.05422 37.9959C3.99222 38.0335 3.91782 38.0837 3.80622 38.2592L3.93022 38.1088C3.83102 38.2843 3.93022 38.3345 3.70703 38.5602C3.86822 38.4473 3.91782 38.3345 3.95502 38.2216C3.85582 38.4975 4.06662 38.3219 4.01702 38.5351C4.06662 38.4473 4.20301 38.2592 4.21541 38.2718C4.17822 38.5477 4.48821 38.021 4.6246 38.021C4.48821 38.2843 4.16582 38.5602 4.40141 38.4223C4.32701 38.6104 4.09142 38.8235 3.97982 38.9364C4.27741 38.6981 3.95502 39.2374 3.95502 39.3126L3.81862 39.4004C3.89302 39.3502 3.91782 39.3628 3.93022 39.3753L4.15342 39.0618C4.12862 39.137 4.15342 39.1496 4.05422 39.275C4.22781 39.0994 4.43861 38.7608 4.699 38.5226C4.59981 38.6981 4.9222 38.4348 4.6122 38.8361C4.637 38.6229 4.30221 39.2499 4.17822 39.2499C4.22781 39.2123 4.25261 39.2248 4.22781 39.3001C4.19061 39.3502 4.15342 39.3753 4.12862 39.4004C3.93022 39.8268 4.52541 38.9866 4.6122 39.0618C4.42621 39.275 4.28981 39.5007 4.33941 39.4631C4.30221 39.4255 4.6246 39.0743 4.7982 38.9239C4.7114 39.1496 4.9594 38.8486 4.9718 38.8862L5.009 38.7734C5.19499 38.5602 5.20739 38.6104 5.30659 38.5727C5.17019 38.7483 5.17019 38.6605 5.12059 38.7483C5.48018 38.3846 4.8974 39.2374 5.17019 39.0242C5.07099 39.1997 4.8354 39.4506 4.7734 39.576C5.07099 39.3377 4.59981 39.9396 4.8602 39.7641C5.08339 39.4506 5.0214 39.5133 5.30659 39.2624L5.0214 39.3753L5.44299 38.9991C5.40579 38.9615 5.21979 39.1245 5.23219 39.0618C5.46778 38.8486 5.40579 38.9113 5.59178 38.648C5.28179 39.137 5.90177 38.4599 5.71578 38.811L5.12059 39.5634C4.9346 39.9647 5.57938 39.3001 5.54218 39.576L5.61658 39.4129C5.86458 39.1245 5.71578 39.4255 5.85218 39.3377C5.65378 39.5885 5.60418 39.6888 5.49258 39.8644C5.64138 39.6763 5.55458 39.9522 5.96377 39.4506L5.75298 39.8142C5.72818 40.0274 6.42256 39.1872 6.44736 39.3377C6.19937 39.5885 6.10017 39.8017 5.88937 39.9396C5.91417 39.9647 5.90177 40.0274 6.03817 39.8644C5.92657 40.0399 6.38536 39.5885 6.22417 39.8518C6.32336 39.7515 6.53416 39.4882 6.55896 39.5383C6.52176 39.5885 6.45976 39.6637 6.45976 39.6637C6.55896 39.5383 6.64576 39.5383 6.84415 39.2374C6.57136 39.6512 6.67056 39.7139 6.76975 39.7515C6.86895 39.7891 6.96815 39.8017 6.80695 40.2155C6.95575 40.203 7.10455 40.1904 7.19134 40.228C7.14175 40.3158 7.11695 40.3785 7.11695 40.3284C7.10455 40.7046 7.57574 39.5132 7.55094 39.9145C7.40214 40.4663 7.37734 40.1403 7.34014 40.3534C7.12935 40.8676 7.19134 40.8676 7.27814 40.8174C7.36494 40.7673 7.46414 40.6669 7.40214 41.0181L7.35254 41.0557C7.32774 41.2689 7.41454 41.2062 7.50134 41.1058C7.58813 41.0055 7.69973 40.8676 7.73693 40.9554C7.73693 40.9554 7.69973 41.0557 7.68733 41.1184C7.91053 40.6042 8.07172 40.5039 8.18332 40.4161C8.07172 40.855 8.09652 40.6293 8.03452 41.1184C8.08412 41.0808 8.15852 40.3534 8.25772 40.2782C8.24532 40.5541 8.27012 40.83 8.20812 41.3566L8.12132 41.3065C8.09652 41.6576 8.12132 41.6827 8.17092 41.6325C8.20812 41.5824 8.25772 41.457 8.27012 41.5447L8.23292 41.8332C8.39412 41.8582 8.45611 41.0808 8.58011 41.2438V40.993C8.62971 40.6293 8.64211 40.7547 8.65451 40.8927C8.66691 41.0431 8.67931 41.2187 8.71651 40.9428L8.72891 41.7705C8.75371 41.6952 8.80331 41.5322 8.85291 41.3692C8.9025 41.2062 8.9397 41.0557 8.9769 41.0055C8.9645 41.6074 8.85291 41.8332 8.77851 42.1341C8.82811 42.1843 8.9645 42.2344 8.9769 41.8332C8.9645 41.8959 8.9397 42.084 8.9149 41.9335C8.9645 41.3316 9.0141 41.0431 9.1009 41.1309C9.1629 42.2344 9.27449 42.1717 9.38609 42.3849C9.43569 42.3975 9.49769 42.4978 9.58449 42.9241C9.63409 42.4978 9.70848 42.4727 9.82008 42.4978C9.93168 42.5229 10.0681 42.5856 10.1549 42.41C9.79528 41.3065 10.2045 42.3097 9.89448 41.1184C9.90688 40.993 9.93168 40.993 9.95648 41.0682C10.0557 41.2563 10.1673 41.4444 10.2789 41.6074C10.4153 41.8959 10.3161 41.9084 10.3905 42.1717C10.5269 42.1216 10.5889 42.5981 10.7625 42.8113C10.6137 42.4225 10.6137 42.1843 10.7253 42.2595C10.6385 42.1341 10.5517 41.9962 10.4649 41.8582C10.4401 41.4695 10.5393 41.6701 10.6633 41.8582C10.7749 42.0463 10.8989 42.2219 10.8741 41.8457L10.9609 42.2344C10.9609 42.084 11.0353 41.9962 11.0849 41.8206C11.1221 41.6451 11.1221 41.4068 10.9609 40.9804C11.0353 41.0808 11.184 41.319 11.184 41.4319C11.308 41.3692 11.308 41.0431 11.2956 40.7798C11.2956 40.5165 11.2956 40.3158 11.5188 40.4412L11.6552 40.6544C11.6428 40.5541 11.432 40.2155 11.618 40.3534C11.68 40.4412 11.7544 40.5666 11.7792 40.5541C11.742 40.4663 11.5932 40.1152 11.7296 40.1653L11.8784 40.4161C12.0768 40.4287 12.0396 40.203 11.9404 39.9647C11.8412 39.7264 11.68 39.4631 11.68 39.3377C11.9528 39.576 12.1636 39.6888 12.3248 39.739C12.3744 39.7515 12.3992 39.7641 12.4364 39.7766C12.4736 39.7891 12.4984 39.8017 12.5232 39.8017C12.5728 39.8142 12.61 39.8268 12.6472 39.8268L12.7216 39.8895C12.9076 39.8017 12.4612 39.2624 12.362 38.9489C13.0316 39.3502 12.8456 38.8612 13.292 38.9991C13.1804 38.9364 12.8704 38.648 12.8332 38.5727C12.9696 38.6354 12.5232 38.1715 13.0192 38.5853H12.9944C13.5152 38.9615 13.4284 38.7985 13.4904 38.7483L12.8332 38.1965C13.8996 38.8486 12.7588 37.557 13.6888 38.184C13.5524 38.021 13.5896 37.9834 13.4408 37.8078L13.788 38.0962C13.9492 38.0837 14.036 38.0711 14.036 37.8956L14.2716 38.1213C14.346 38.0711 13.3168 37.2059 13.3416 37.1306L13.8872 37.5445C13.9616 37.4316 14.5196 37.6949 14.1228 37.1933C14.1972 37.256 14.346 37.3814 14.3584 37.4191C14.408 37.3814 14.8792 37.5194 14.1352 36.9425C14.6064 37.3313 14.2716 36.8673 14.1104 36.6416L14.4576 36.9425C14.0484 36.5287 13.9368 36.4284 13.8624 36.2528C13.9244 36.2779 14.1476 36.466 14.0484 36.4158C14.2716 36.5162 13.7508 36.1023 13.9864 36.1901L14.1848 36.4033C14.2592 36.3657 14.1352 36.2779 13.8996 36.0271C13.788 35.8766 14.0732 35.9895 14.3956 36.2403C14.2096 36.0773 13.974 35.839 14.098 35.8766C14.222 35.9644 14.284 36.0396 14.3212 36.0773C14.6312 36.1776 14.0236 35.6007 14.4204 35.8139C14.532 35.9017 14.594 35.9519 14.6436 35.9769C14.5692 36.0396 14.5072 36.0898 14.4824 36.0647C14.8048 36.3281 14.904 36.3155 15.3132 36.7294C15.1148 36.4785 14.6436 35.9644 14.842 36.0271C14.8792 36.0522 14.904 36.0773 14.9536 36.1149L14.9908 36.1525C15.028 36.165 15.0156 36.1274 14.966 36.0773C15.028 36.1023 15.0776 36.1274 15.1024 36.1023C15.3752 36.3155 15.3008 36.1525 15.338 36.1274C14.9784 35.839 15.0776 35.8515 14.7552 35.6509C14.78 35.6634 14.7924 35.6885 14.7924 35.7261C14.8048 35.7387 14.8048 35.7512 14.8172 35.7638C14.8048 35.7512 14.7924 35.7512 14.7924 35.7387C14.7924 35.7638 14.7676 35.8014 14.7552 35.839C14.594 35.6634 14.47 35.5255 14.6932 35.6509C14.4824 35.4503 14.2716 35.2496 14.16 35.1493C14.6808 35.513 15.0156 35.6509 15.3256 35.8892C15.2016 35.6384 15.3752 35.5631 14.7552 34.9612C14.6932 34.8609 14.966 35.0866 15.0776 35.1618C15.1272 35.2371 15.1024 35.2371 15.2016 35.3249C15.0776 35.1368 15.2636 35.1117 14.8048 34.7229C15.0652 34.8233 15.2016 35.1117 15.2016 34.9612L15.338 35.0866C16.2183 35.513 14.3956 33.8326 15.4991 34.4094C15.4247 34.3718 15.4 34.3593 15.3132 34.2966C15.9083 34.4094 15.2884 33.5065 16.1315 33.8326C16.3175 33.8828 16.0323 33.632 15.8339 33.4062L16.2183 33.7072L15.8339 33.2808C15.5859 32.9297 16.8879 33.8828 16.3795 33.2683L16.1067 33.0802C16.1935 33.0802 16.0695 32.8168 16.3547 33.0677C16.3175 33.03 16.1067 32.8419 16.2431 32.9297L16.4415 33.0927L16.1811 32.704C16.3919 32.7416 16.9623 33.3561 17.0863 33.2683C17.0491 33.168 16.6151 32.6664 16.4663 32.5786C16.4415 32.5911 16.3051 32.5284 16.1067 32.3654L16.0323 32.24C15.4495 31.7509 14.8792 31.2368 14.3956 30.9985L14.6932 31.3622L14.3956 31.149L14.4204 31.0738C14.1228 30.8857 14.346 31.0989 14.4948 31.2619C14.346 31.149 14.222 31.0738 14.16 31.0362L14.6684 31.5628C14.4328 31.3873 14.2344 31.1616 14.0732 31.0989C14.3088 31.3371 14.6064 31.4876 14.7428 31.6757C14.4576 31.4876 14.2468 31.2995 14.4328 31.5252C14.284 31.4124 14.1848 31.3246 14.1352 31.2493C14.284 31.4374 14.1352 31.3998 14.4328 31.6757C14.0732 31.4374 14.4204 31.8638 13.8748 31.4124C13.9988 31.5252 14.2592 31.8262 14.2592 31.8763C13.6392 31.2744 14.1228 31.9641 13.4284 31.3622C13.9864 31.8889 13.5648 31.7384 13.8376 32.077C13.788 32.0394 13.7012 31.9516 13.7384 31.9641C13.6516 31.9641 13.4656 31.8262 13.3292 31.7635C13.8128 32.1648 13.8748 32.3278 14.1476 32.6162C13.6268 32.2776 13.602 32.1146 13.1308 31.7509C13.5276 32.077 13.4532 32.1648 13.8004 32.4156C13.478 32.2149 13.6268 32.3278 13.2052 32.0268C13.8128 32.541 13.2796 32.1522 13.6268 32.4908C13.2796 32.3027 13.044 32.0394 13.1804 32.2525C12.8952 32.2275 12.7216 31.9892 12.7216 31.9892ZM12.5728 34.3718C12.5604 34.3718 12.5604 34.3718 12.5728 34.3718C12.5728 34.3467 12.5728 34.3342 12.5728 34.3217C12.5604 34.3342 12.5604 34.3467 12.5728 34.3718ZM12.4736 34.5098C12.4984 34.5098 12.5232 34.4847 12.5356 34.4596C12.6596 34.5599 12.7836 34.6602 12.7712 34.6728C12.6844 34.5975 12.5852 34.5725 12.4736 34.5098ZM15.1272 36.2403C15.1644 36.303 15.09 36.2528 15.0156 36.1901C15.0156 36.1776 15.0156 36.1525 15.0032 36.1149C14.9908 36.1023 14.9784 36.0898 14.966 36.0773C15.028 36.14 15.0776 36.1901 15.1272 36.2403Z" fill="#FF7777"/>
<path d="M14.6936 35.8267C14.6936 35.8142 14.6688 35.8016 14.6688 35.8016C14.6316 35.7765 14.6068 35.764 14.582 35.7515C14.6192 35.7891 14.6564 35.8142 14.6812 35.8518C14.6936 35.8392 14.6936 35.8267 14.6936 35.8267Z" fill="#FF7777"/>
<path d="M2.88867 36.3905C2.88867 36.3905 2.90107 36.3654 2.92587 36.3403C2.90107 36.378 2.88867 36.378 2.88867 36.3905Z" fill="#FF7777"/>
<path d="M10.3906 35.7134L10.4774 35.7886L10.4154 35.7134H10.3906Z" fill="#FF7777"/>
<path d="M3.17383 34.6101C3.19863 34.5725 3.22343 34.5474 3.23583 34.5098C3.21103 34.5348 3.19863 34.5725 3.17383 34.6101Z" fill="#FF7777"/>
<path d="M2.93848 34.2841L3.00047 34.1211C2.95088 34.2089 2.93848 34.2465 2.93848 34.2841Z" fill="#FF7777"/>
<path d="M2.83884 33.9204C2.77684 33.9831 2.75204 34.0333 2.71484 34.0709L2.83884 33.9204Z" fill="#FF7777"/>
<path d="M6.84375 36.4908C6.84375 36.4908 6.85615 36.4908 6.86855 36.4783C6.93055 36.4281 6.90575 36.4532 6.84375 36.4908Z" fill="#FF7777"/>
<path d="M5.08301 36.4284C5.14501 36.3782 5.20701 36.3155 5.2566 36.2905C5.2566 36.2528 5.2442 36.2278 5.08301 36.4284Z" fill="#FF7777"/>
<path d="M5.29374 36.3406C5.33094 36.2529 5.30614 36.2529 5.24414 36.2905C5.24414 36.3281 5.24414 36.3782 5.29374 36.3406Z" fill="#FF7777"/>
<path d="M1.98319 32.9426V32.9175C1.95839 32.9426 1.94599 32.9551 1.93359 32.9676L1.98319 32.9426Z" fill="#FF7777"/>
<path d="M1.93339 32.9673L1.88379 33.0049C1.88379 33.0049 1.89619 33.0049 1.93339 32.9673Z" fill="#FF7777"/>
<path d="M1.78516 33.0676L1.88435 33.0049C1.87195 32.9924 1.87195 32.9673 1.78516 33.0676Z" fill="#FF7777"/>
<path d="M2.14453 33.3564L2.25613 33.231C2.23133 33.256 2.19413 33.2937 2.14453 33.3564Z" fill="#FF7777"/>
<path d="M2.26849 33.3936C2.26849 33.3435 2.42969 33.0676 2.34289 33.1303L2.25609 33.2306C2.42969 33.0425 2.08249 33.5943 2.26849 33.3936Z" fill="#FF7777"/>
<path d="M1.37633 35.2997V35.1367C1.27713 35.2872 1.15314 35.4878 1.09114 35.4878C0.867944 35.9769 1.32673 35.1618 1.37633 35.2997Z" fill="#FF7777"/>
<path d="M1.46245 35.7012C1.37565 35.7263 1.30126 35.9018 1.23926 35.9771C1.36325 35.8767 1.40045 35.8391 1.46245 35.7012Z" fill="#FF7777"/>
<path d="M3.19887 37.1309L2.93848 37.4569C3.00048 37.4193 3.03767 37.319 3.19887 37.1309Z" fill="#FF7777"/>
<path d="M4.87302 35.7262L4.99702 35.5005L4.74902 35.7764L4.87302 35.7262Z" fill="#FF7777"/>
<path d="M3.22343 38.1966L3.17383 38.2217L3.32262 38.1465L3.22343 38.1966Z" fill="#FF7777"/>
<path d="M6.36041 40.579L6.6208 40.1401C6.5464 40.1903 6.22401 40.6543 6.36041 40.579Z" fill="#FF7777"/>
<path d="M8.48047 41.6324C8.48047 41.9584 8.53007 42.2218 8.57967 41.9334C8.53007 41.8581 8.50527 41.5697 8.48047 41.6324Z" fill="#FF7777"/>
<path d="M13.2793 38.6483L13.3909 38.7737L13.3289 38.6357L13.2793 38.6483Z" fill="#FF7777"/>
<path d="M7.61326 40.4416C7.74965 40.4792 8.05965 40.5043 8.01005 40.4416L7.48926 40.3413L7.61326 40.4416Z" fill="#FF7777"/>
<path d="M8.62983 40.166C8.38183 40.0657 7.93544 39.9403 7.43945 39.9277C7.94784 40.0531 7.72465 40.0406 8.33223 40.1785C8.39423 40.2412 8.15864 40.2663 7.96024 40.2287C8.09664 40.2663 7.83624 40.3039 8.17104 40.3792C8.59263 40.3541 8.61743 40.2538 8.28263 40.1158C8.39423 40.1158 8.53063 40.1535 8.62983 40.166Z" fill="#FF7777"/>
<path d="M9.94383 34.5352L9.88184 34.5728C9.91903 34.5602 9.93143 34.5477 9.94383 34.5352Z" fill="#FF7777"/>
<path d="M10.4404 30.9989C10.4528 31.024 10.5024 31.0365 10.552 31.049C10.5148 31.0114 10.4776 30.9863 10.4404 30.9989Z" fill="#FF7777"/>
<path d="M11.0352 30.4097C11.0228 30.4222 11.0104 30.4347 10.998 30.4473C11.0476 30.4347 11.0724 30.4222 11.0352 30.4097Z" fill="#FF7777"/>
<path d="M9.94434 34.5352L10.1179 34.4474C9.94434 34.4349 9.98154 34.4976 9.94434 34.5352Z" fill="#FF7777"/>
<path d="M7.42676 39.2505C7.45156 39.2756 7.50116 39.2881 7.56315 39.3132C7.53835 39.3007 7.52595 39.2756 7.51356 39.263C7.47636 39.263 7.45156 39.2505 7.42676 39.2505Z" fill="#FF7777"/>
<path d="M10.2793 36.1401V36.1652C10.3413 36.1778 10.4157 36.1903 10.4901 36.2028L10.2793 36.1401Z" fill="#FF7777"/>
<path d="M10.2421 37.344C10.2669 37.3189 9.80807 37.2687 9.62207 37.2437C9.80807 37.2813 9.89486 37.3064 9.93206 37.3314C10.0065 37.344 10.1181 37.344 10.2421 37.344Z" fill="#FF7777"/>
<path d="M9.27441 39.1753L9.33641 39.2129C9.31161 39.2004 9.29921 39.1878 9.27441 39.1753Z" fill="#FF7777"/>
<path d="M10.4404 35.2872C10.5024 35.2872 10.5644 35.2872 10.6016 35.2872C10.5396 35.2747 10.49 35.2747 10.4404 35.2872Z" fill="#FF7777"/>
<path d="M3.98047 2.85906C4.01767 2.84652 4.03007 2.84652 4.05487 2.83398C4.01767 2.83398 3.98047 2.84652 3.98047 2.85906Z" fill="#FF7777"/>
<path d="M5.55469 0.764872L5.57949 0.777412C5.65388 0.739791 5.74068 0.702171 5.81508 0.664551L5.55469 0.764872Z" fill="#FF7777"/>
<path d="M11.6431 29.3057C11.6307 29.3057 11.6307 29.3057 11.6431 29.3057C11.6803 29.3308 11.6803 29.3182 11.6431 29.3057Z" fill="#FF7777"/>
<path d="M11.0971 18.9727C10.7003 19.1232 10.5639 18.8222 10.1299 19.0354C10.3035 18.9978 10.8367 19.1357 11.0971 18.9727Z" fill="#FF7777"/>
<path d="M7.4893 39.2255C7.4893 39.2129 7.4893 39.1878 7.4893 39.1753C7.4645 39.2004 7.4645 39.2129 7.4893 39.2255Z" fill="#FF7777"/>
<path d="M10.118 19.0229L10.0684 19.048C10.0932 19.0355 10.1056 19.0355 10.118 19.0229Z" fill="#FF7777"/>
<path d="M11.4201 26.71C11.3457 26.71 11.2837 26.7225 11.2217 26.735C11.2713 26.735 11.3209 26.7225 11.4201 26.71Z" fill="#FF7777"/>
<path d="M10.7383 28.6166L10.8003 28.5664C10.7631 28.5915 10.7507 28.604 10.7383 28.6166Z" fill="#FF7777"/>
<path d="M10.7624 25.7071C10.7996 25.682 10.8616 25.6695 10.7996 25.6318C10.7748 25.6318 10.7624 25.6444 10.75 25.6444C10.812 25.6569 10.8368 25.682 10.7624 25.7071Z" fill="#FF7777"/>
<path d="M10.7499 24.666C10.7127 24.666 10.6879 24.6786 10.6631 24.6911C10.6755 24.7036 10.6755 24.7162 10.6879 24.7287L10.7499 24.666Z" fill="#FF7777"/>
<path d="M5.08335 5.59271C5.19495 5.54255 5.33134 5.47985 5.46774 5.42969C5.15775 5.54255 5.00895 5.42969 5.08335 5.59271Z" fill="#FF7777"/>
<path d="M7.67525 39.2757C7.56365 39.2632 7.50166 39.2381 7.48926 39.2256C7.48926 39.2381 7.50166 39.2507 7.51406 39.2632C7.57605 39.2757 7.63805 39.2757 7.67525 39.2757Z" fill="#FF7777"/>
<path d="M7.19141 25.6943L7.2534 25.5312C7.21621 25.5814 7.19141 25.6316 7.19141 25.6943Z" fill="#FF7777"/>
<path d="M6.62146 12.5402L6.57186 12.5151C6.55945 12.5277 6.57186 12.5402 6.62146 12.5402Z" fill="#FF7777"/>
<path d="M7.17871 25.0547C7.33991 25.0297 7.42671 24.9921 7.4887 24.9544C7.4515 24.9544 7.4267 24.9419 7.37711 24.9419L7.17871 25.0547Z" fill="#FF7777"/>
<path d="M4.15363 4.76501C4.17843 4.90295 4.73641 4.65215 5.07121 4.57691C5.282 4.70231 4.67441 4.79009 4.40162 4.92803C4.58762 4.99073 5.1332 4.90295 5.1332 4.99073C5.04641 5.02835 5.00921 5.05343 4.88521 5.06597C5.3812 5.04089 4.99681 5.39202 5.60439 5.3544C5.55479 5.37948 5.50519 5.39202 5.468 5.4171C5.75319 5.31678 6.03838 5.22899 6.24918 5.16629C6.27398 5.22899 6.64597 5.19137 6.27398 5.31678C6.27398 5.27916 6.12518 5.31678 6.00118 5.32932L6.18718 5.3544C5.66639 5.56758 5.97638 5.31678 5.57959 5.42964C5.79039 5.51742 6.27398 5.5425 6.14998 5.69298C5.62919 5.856 5.90199 5.50488 5.4804 5.76822L5.64159 5.55504C4.84801 5.90616 5.67879 5.44218 4.81081 5.80584C4.71161 6.05664 5.1456 5.95632 5.04641 6.20712C5.3564 6.1695 5.4804 6.06918 5.77799 6.0441C6.38557 6.19458 4.51322 6.63349 5.2696 6.65857C5.64159 6.62095 6.32358 6.47046 6.00118 6.72127L5.3936 6.82159C5.3812 7.03477 6.28638 6.72127 5.92678 7.03477C5.67879 7.05985 5.69119 6.92191 5.62919 6.97207C5.1828 7.23541 5.98878 6.98461 6.01358 7.08493L5.49279 7.23541C5.62919 7.42351 6.06318 7.57399 6.22438 7.78717C6.06318 7.81225 5.88959 7.81226 5.74079 7.90004C6.07558 8.1383 5.82759 8.55212 5.56719 8.91578L6.05078 8.92832C6.05078 8.9534 5.85239 9.0161 5.75319 9.0161C5.60439 9.16659 6.05078 8.9534 6.23678 8.97848C6.28638 9.04118 5.98878 9.11643 5.83999 9.11643C6.27398 9.22929 6.79476 9.51771 6.34838 9.83121L6.19958 9.81867C6.03838 10.0193 7.19156 9.81867 6.78236 10.0569L6.69557 10.0444C6.55917 10.4457 7.07996 10.7592 6.41037 11.173C7.09236 11.1103 6.16238 11.5868 7.10476 11.4489C6.67077 11.7373 6.49717 11.7122 6.23678 12.0508C6.21198 12.1386 6.84436 12.0633 6.95596 12.1511L6.45997 12.2389L6.99316 12.2891L6.42277 12.4521L6.55917 12.5273C6.58397 12.4897 6.76997 12.4145 6.90636 12.4019C7.15436 12.5148 6.62117 12.8032 6.37317 12.8408L6.84436 13.1167C6.64597 13.1418 6.57157 13.0916 6.43517 13.0666C6.96836 13.1669 5.92678 13.1794 6.41037 13.2672C6.52197 13.2296 6.70797 13.2296 6.80716 13.2296C6.52197 13.355 6.54677 13.5431 6.69557 13.6559L6.34838 13.681C6.29878 13.9444 6.57157 14.1826 6.60877 14.4585C6.75757 14.3331 7.34035 14.2829 7.41475 14.3582L6.89396 14.4585C7.21635 14.471 7.07996 14.3456 7.48915 14.4083C7.43955 14.5212 6.90636 14.5588 6.73277 14.5212L6.93116 14.6215C6.78236 14.6466 6.69557 14.6341 6.49717 14.6466C6.83196 14.6592 6.00118 14.935 6.57157 14.935L6.42277 14.9601C6.44757 15.236 6.64597 15.3489 6.70797 15.562C7.15436 15.5119 7.06756 15.6122 7.43955 15.6373C7.31555 15.8254 6.98076 16.0511 7.04276 16.2517C7.29075 16.3646 7.42715 16.2517 7.69994 16.2894C7.29075 16.3395 7.35275 16.5402 7.04276 16.4649C7.12956 16.7032 7.15436 16.7659 7.51395 17.0418C7.67514 16.9916 7.74954 16.9414 7.88594 16.954C7.96034 17.0041 7.72474 17.1045 7.52635 17.117L7.47675 17.1045C8.12153 17.3929 6.34837 18.0199 7.22875 18.208L7.17916 18.1955L7.65034 18.4463C7.58835 18.5842 7.34035 18.3961 7.09236 18.509C7.81154 18.7598 7.03036 18.998 7.51395 19.2237C6.32358 19.5122 7.65034 19.9135 6.88156 20.2395L7.16676 20.2019C7.45195 20.252 7.00556 20.2897 6.94356 20.3524C7.16676 20.3273 7.19156 20.2646 7.35275 20.2897C7.72474 20.854 6.99316 21.5186 6.76996 22.1205C6.70797 22.3462 8.25793 22.1832 7.58835 22.4842L7.05516 22.4215C7.38995 22.6347 7.38995 22.8604 7.38995 23.0736C7.37755 23.2993 7.35275 23.525 7.62554 23.7382C7.50155 23.7131 7.34035 23.7131 7.34035 23.6755C6.95596 23.7758 7.32795 24.0141 7.63794 24.0141C7.60075 24.0768 7.35275 24.0391 7.19156 24.0768C6.96836 24.1771 7.68754 24.2899 7.30315 24.3526C7.24115 24.3652 7.17916 24.3276 7.14196 24.315C7.32795 24.3652 7.09236 24.5909 7.53875 24.5282C7.32795 24.6912 7.73714 24.8417 7.47675 24.9671C7.97274 25.0424 7.24115 25.243 7.94794 25.2681C7.21635 25.2681 7.36515 25.5565 7.71234 25.6568C7.48915 25.6192 7.48915 25.7446 7.17916 25.707C7.19156 25.8198 7.32795 25.9327 7.69994 25.9076C6.83196 26.1208 8.40673 26.3465 7.29075 26.4594C7.48915 26.6349 7.66274 26.798 7.78674 26.961C7.92314 27.124 8.02234 27.287 8.10913 27.4501C7.37755 27.4375 8.04713 27.0989 7.27835 27.1115C7.57595 27.4124 8.19593 27.588 8.00994 27.889C7.91074 27.9642 7.69994 27.8388 7.57595 27.8137C7.87354 28.1147 7.50155 28.3906 7.88594 28.6664C7.82394 28.6664 7.74954 28.6288 7.68754 28.6037C7.71234 28.6539 7.57595 28.7291 7.91074 28.7291L7.82394 28.679C8.30753 28.6037 8.81592 28.9047 9.07631 28.9172C8.13393 28.8044 8.82832 29.1806 7.63794 29.005C7.69994 29.0426 7.86114 29.0928 8.07193 29.0803C8.00994 29.1304 7.87354 29.143 7.62554 29.0803C7.79914 29.2684 8.15873 29.2182 8.14633 29.3812C7.98514 29.3812 7.92314 29.3436 7.73714 29.3185C8.04713 29.4063 8.35713 29.5066 8.22073 29.6446C8.12153 29.632 7.99754 29.6446 7.99754 29.6069C8.03474 29.8577 8.81592 30.0584 8.50592 30.3217C7.81154 30.2214 8.27033 30.4095 7.67514 30.397L7.84874 30.5475L8.14633 30.4973C8.13393 30.6227 8.56792 30.7481 8.36953 30.861L8.12153 30.7606L8.23313 30.9989L8.46873 30.8735C8.77872 31.0114 9.22511 30.886 9.06391 31.0491C9.00191 31.0114 9.05151 31.1745 8.69192 31.2246C8.87791 31.2999 9.07631 31.3751 8.92751 31.4629C8.72912 31.4754 8.25793 31.4127 8.13393 31.4253C8.62992 31.513 8.25793 31.7262 8.79112 31.8391C8.66712 31.8015 8.35713 31.7889 8.28273 31.8015L8.69192 31.8767C8.55552 31.9269 8.49352 31.9394 8.24553 31.9143C8.15873 32.0899 9.01431 31.8892 8.66712 32.0899C8.62992 32.0773 8.56792 32.0773 8.51832 32.0397C8.33233 32.2404 8.75392 32.4661 8.54312 32.6542C7.93554 32.6793 8.40673 32.4786 7.88594 32.5163C7.98514 32.8047 8.58032 33.1433 8.41913 33.4066L8.49352 33.3564C9.3491 33.4442 8.05953 33.532 8.45633 33.695C8.39433 33.6574 7.98514 33.6198 8.08433 33.6323C7.93554 33.8079 8.27033 34.0211 8.51832 34.322L8.29513 34.2719C8.09673 34.3722 8.17113 34.5603 8.05953 34.6606C8.27033 34.7108 8.23313 34.7735 8.55552 34.7609C7.27835 35.0368 9.18791 35.5133 8.12153 35.7641C8.12153 35.7265 7.93554 35.6513 7.93554 35.6889L8.10913 35.9773C8.48112 35.9899 8.33233 35.9648 8.62992 35.9272C8.84072 35.9773 9.01431 36.0776 9.00191 36.1403C8.76632 35.9899 8.40673 36.0902 8.19593 36.1278C8.30753 36.1278 8.43153 36.1529 8.55552 36.1654C7.88594 36.2532 9.29951 36.2532 8.84072 36.4162L8.64232 36.3911C8.72912 36.4789 8.98951 36.5667 8.92751 36.6419C8.49352 36.6419 8.72912 36.5416 8.38193 36.5165C8.39433 36.6294 9.17551 36.805 8.74152 36.8677C8.62992 36.805 8.62992 36.7423 8.51832 36.6796C8.00994 36.7423 8.13393 36.7673 8.04713 36.8426L8.05953 36.83L7.81154 36.9931L7.94794 36.9554C9.05151 37.1937 8.12153 37.2564 8.84072 37.5072C8.15873 37.2564 8.44393 37.4445 7.96034 37.3818C7.82394 37.4194 7.66274 37.4821 7.52635 37.4445C7.91074 37.5699 7.20395 37.5699 7.76194 37.7455C7.60075 37.7329 7.73714 37.8333 7.35275 37.7831C7.46435 37.9085 7.62554 37.7831 7.82394 37.8082C8.34473 38.0339 7.14196 38.1593 7.84874 38.4979C8.13393 38.7487 8.65472 38.849 8.90272 39.0747C8.64232 39.1249 8.33233 38.9619 8.33233 38.9619C8.09673 39.0496 8.12153 39.1374 8.29513 39.2628C8.15873 39.2252 8.04713 39.2377 7.86114 39.2503C7.89834 39.3381 8.41913 39.3631 8.18353 39.4509C8.00994 39.4133 7.73714 39.3631 7.56355 39.3004C7.69994 39.4133 7.98514 39.5387 8.10913 39.6641C7.83634 39.6641 7.69994 39.5638 7.52635 39.5011C7.63794 39.6265 7.74954 39.8271 8.17113 39.9149L8.33233 39.8522C8.34473 39.9024 7.96034 39.8397 7.88594 39.7895C7.55115 39.6516 8.04713 39.6641 8.20833 39.6766L8.30753 39.7644C9.23751 39.7895 8.18353 39.4509 8.25793 39.313L8.91511 39.4384L8.38193 39.2252C8.55552 39.2127 8.92751 39.2252 9.02671 39.313C9.3615 39.2377 8.80352 39.2001 9.17551 39.1374C9.23751 39.1374 9.26231 39.1374 9.28711 39.15L9.10111 39.0246C9.23751 39.0622 9.5723 39.0496 9.4731 39.1123C9.86989 38.9619 9.00191 38.7612 9.5103 38.7361L9.5475 38.7612C9.3491 38.4728 9.06391 38.686 8.50592 38.4352L9.7211 38.4226L9.23751 38.3474C9.26231 38.3223 9.29951 38.2722 9.4979 38.2972C9.17551 38.1593 9.28711 38.2972 8.97711 38.2095C9.4359 38.1217 8.80352 37.8333 9.5847 37.8834C9.21271 37.8082 9.28711 37.9837 9.03911 37.8207C9.88229 37.8583 8.91511 37.6452 9.3119 37.5699C9.74589 37.6452 9.4979 37.7329 9.89469 37.6577C9.16311 37.5197 10.0807 37.4445 9.94429 37.3316C9.3615 37.2815 9.7211 37.0934 9.5475 36.9053C9.74589 36.9304 9.89469 36.6169 10.1179 36.4789L10.2171 36.4915C9.6343 36.4162 9.7583 36.2657 9.6467 36.1403C9.99389 36.178 10.1427 36.203 10.2915 36.2783L10.3039 36.1654C10.1179 36.1278 10.0187 36.0776 9.95669 36.0024L10.3907 36.0651C10.3783 35.9146 9.90709 35.7265 10.2047 35.5635C9.79549 35.5259 9.05151 35.6262 8.79112 35.413C9.01431 35.4256 9.3987 35.4381 9.4855 35.5008C9.4607 35.4757 9.29951 35.4256 9.3987 35.4005L9.77069 35.5133C9.94429 35.4381 9.4607 35.4506 9.4979 35.3754C9.82029 35.4005 9.7335 35.3378 9.98149 35.3754C10.0063 35.4005 9.84509 35.4256 9.96909 35.4632C10.0311 35.3879 10.2295 35.3127 10.4651 35.3002C10.2791 35.2876 10.0435 35.2751 9.99389 35.2124C9.98149 35.0619 10.3783 35.1873 10.5519 35.112C10.3287 35.0619 10.5643 34.9867 10.0931 34.949C10.0931 34.9114 10.3163 34.9114 10.4527 34.9114C10.2419 34.8236 10.4155 34.5477 9.90709 34.5979L9.86989 34.6104C9.85749 34.6104 9.85749 34.5979 9.84509 34.5979C9.3863 34.322 10.1427 34.0963 9.95669 33.833L10.1179 33.8455C9.94429 33.6825 10.0311 33.5069 9.6963 33.3815C9.6963 33.3439 9.99389 33.2937 10.1799 33.3188C10.0683 33.1934 9.89469 33.1809 10.1551 33.0304C10.4279 33.1558 10.4031 33.0053 10.3535 33.1558C10.5023 33.0179 10.7503 32.9928 10.3287 32.8172C10.7379 32.8925 10.8495 32.7294 10.7255 32.6542L10.4279 32.742C10.3783 32.6542 10.4155 32.5915 10.4527 32.5288L10.9859 32.5915C11.6554 32.3156 9.90709 31.9896 11.0107 31.814C10.6387 31.7137 10.7379 31.9645 10.3039 31.8767C10.3783 31.7388 11.1595 31.6259 11.1595 31.5883C11.4695 31.4127 10.3907 31.3751 10.6015 31.187C10.4031 31.1995 9.89469 31.2121 9.7211 31.0491C9.79549 30.9111 10.5271 30.9111 10.6759 30.9989C10.6883 31.0365 10.6263 31.0491 10.5643 31.0365C10.6387 31.0867 10.7131 31.1494 10.9239 31.0992L10.7379 31.0741C10.9363 31.0114 10.9239 30.8233 11.2339 30.8735C11.0603 30.7606 10.9239 30.8108 10.8247 30.886C11.1099 30.723 10.8371 30.6102 11.0231 30.4346C10.9115 30.4597 10.6883 30.4848 10.6883 30.4471C10.9363 30.1838 10.3287 30.3217 10.2543 30.1336C10.5519 30.0333 10.9487 30.1963 10.7131 29.9957C10.9115 29.8954 11.2215 29.9832 11.3703 30.0333C11.0107 29.8577 11.6183 29.7198 11.6926 29.632L11.8414 29.7198C11.7546 29.6696 11.7546 29.6195 11.7546 29.5819L11.3703 29.6195C11.4323 29.5693 11.4447 29.5192 11.6059 29.5317C11.3579 29.469 10.9735 29.5568 10.6263 29.4439C10.8247 29.3812 10.4279 29.2307 10.9363 29.2182C10.7627 29.4314 11.4447 29.2057 11.5191 29.3938C11.4571 29.3561 11.4571 29.3185 11.5315 29.2684C11.5935 29.2558 11.6307 29.2809 11.6678 29.2934C12.1266 29.0928 11.0975 29.1806 11.1099 28.9674C11.3951 29.005 11.6554 28.9298 11.5935 28.8922C11.5811 28.9799 11.1099 28.9298 10.8991 28.842C11.1223 28.7041 10.7379 28.6915 10.7627 28.6163L10.6511 28.6915C10.3659 28.6539 10.4031 28.5912 10.3163 28.4909C10.5395 28.4909 10.4651 28.5787 10.5643 28.5536C10.0683 28.4407 11.0851 28.3153 10.7503 28.1648C10.9487 28.1021 11.2835 28.1648 11.4199 28.1021C11.0479 27.9266 11.8166 27.9266 11.5191 27.7385C11.1347 27.7886 11.2215 27.7886 10.8495 27.6632L11.1099 27.9517L10.5519 27.7636C10.5395 27.8513 10.7875 27.9517 10.7255 28.0018C10.4155 27.914 10.5147 27.914 10.1923 27.9517C10.7751 27.8388 9.85749 27.7134 10.2543 27.5755L11.2091 27.588C11.6431 27.3874 10.7255 27.2118 10.9735 26.9484L10.7999 27.0362C10.4155 26.9986 10.7503 26.8732 10.6015 26.7854C10.9239 26.798 11.0355 26.7353 11.2339 26.6976C10.9983 26.6976 11.2587 26.497 10.6139 26.4719L11.0355 26.3465C11.2091 26.1333 10.1303 26.0957 10.2295 25.8951C10.5767 25.9578 10.7999 25.8575 11.0479 25.9954C11.0479 25.9202 11.1099 25.8575 10.8867 25.8575C11.0851 25.8198 10.4527 25.6694 10.7627 25.6067C10.6263 25.5816 10.2915 25.569 10.3163 25.4938C10.3783 25.4813 10.4775 25.4938 10.4775 25.4938C10.3163 25.4938 10.2667 25.3684 9.90709 25.4436C10.8991 25.2179 9.82029 24.8542 10.6759 24.6536C10.5643 24.5031 10.4651 24.3276 10.4403 24.1896C10.5395 24.2022 10.6015 24.1896 10.5643 24.2147C10.8619 24.0141 9.6467 24.1144 9.98149 23.9012C10.4899 23.7758 10.2667 24.0141 10.4527 23.9388C11.4943 23.8887 10.3039 23.6755 10.9115 23.525L10.9735 23.5626C11.3331 23.4372 10.5767 23.2993 10.6511 23.1112C10.6511 23.1112 10.7379 23.1112 10.8123 23.1112C10.2791 22.9983 10.0931 22.7726 9.93189 22.6096C10.3411 22.6472 10.1551 22.6848 10.5643 22.6347C10.5023 22.5594 9.89469 22.6848 9.77069 22.5343C9.99389 22.4716 10.1799 22.3588 10.6263 22.3211L10.6635 22.4716C11.2339 22.3713 10.6387 22.2835 10.7255 22.1957H10.9735C10.8867 21.97 10.2419 21.9951 10.2791 21.7568L10.0931 21.7945C9.4607 21.6941 10.4403 21.6691 9.96909 21.5562L10.6015 21.481C10.4403 21.4057 9.96909 21.2051 9.84509 21.0546C10.3163 21.1173 10.5767 21.2929 10.8619 21.3932C10.8619 21.3054 10.7999 21.0922 10.4899 21.0671C10.5519 21.1048 10.7131 21.1298 10.6139 21.18C10.1055 21.1048 9.85749 20.9668 9.85749 20.8038C11.0851 20.7662 10.1427 20.3398 11.0975 20.1517C10.6263 19.8758 11.2587 19.5247 11.1595 19.1736C10.2171 19.3742 11.1223 19.0733 10.1427 19.161C10.0683 19.0858 10.0807 19.0482 10.1551 19.0356L10.7255 18.7347C11.0107 18.6469 10.9487 18.7974 11.1719 18.7723C11.2339 18.5842 11.5811 18.6594 11.829 18.5215C11.4819 18.5717 11.3207 18.4964 11.4447 18.3836L10.9983 18.5717C10.4527 18.3585 11.8042 18.2832 11.2587 18.0701L11.5811 18.1202C11.3827 18.0074 11.5439 17.6312 10.7503 17.5685C10.8619 17.5308 11.1223 17.4807 11.2091 17.5308C11.2959 17.2048 10.3039 16.9038 10.7751 16.6154H11.0107C10.9363 16.5652 10.5519 16.5527 10.7875 16.4649C10.8867 16.4524 11.0231 16.4649 11.0355 16.4398C10.9487 16.4148 10.6015 16.327 10.7379 16.2392L11.0107 16.2768C11.2959 15.9382 10.3039 15.8755 10.1055 15.6373C10.8123 15.562 11.0107 15.2862 11.1099 15.1482L11.2091 15.1357C11.2463 14.7595 10.5519 14.5964 10.2295 14.2955C10.9735 13.9945 10.4651 13.5556 10.8495 13.1669C10.7255 13.2421 10.3039 13.2421 10.2171 13.192C10.3535 13.0916 9.7087 13.054 10.3535 12.9662L10.3411 12.9913C10.9611 12.8408 10.7751 12.7029 10.7627 12.5775L9.91949 12.6778C10.5023 12.427 10.3535 12.2264 10.2047 12.0508C10.0435 11.8752 9.86989 11.7248 10.4031 11.5492C10.1799 11.499 10.1675 11.4113 9.94429 11.3611L10.3907 11.2859C10.4651 11.0476 10.5147 10.9222 10.3535 10.6714H10.6883C10.6883 10.5084 9.3615 10.709 9.3119 10.5711L9.98149 10.4081C9.93189 10.1447 10.4527 9.76851 9.79549 9.61803C9.89469 9.60549 10.0931 9.56787 10.1303 9.60549C10.1179 9.48009 10.4899 9.02865 9.5847 9.26691C10.1799 9.14151 9.5847 8.97849 9.29951 8.8907L9.74589 8.828C9.16311 8.828 9.00191 8.85308 8.81592 8.71514C8.86552 8.66498 9.16311 8.60228 9.06391 8.67752C9.26231 8.50196 8.62992 8.66498 8.82832 8.4518H9.12591C9.13831 8.31386 8.98951 8.35148 8.64232 8.35148C8.44393 8.30132 8.70432 8.0756 9.08871 7.96274C8.84072 8.00036 8.50592 8.00036 8.59272 7.8875C8.74152 7.83734 8.84072 7.84988 8.89031 7.84988C9.13831 7.56145 8.30753 7.63669 8.69192 7.37335C8.84072 7.33573 8.90271 7.31065 8.95231 7.28557C8.98951 7.47367 8.98951 7.61161 8.96471 7.61161C9.3739 7.52383 9.4111 7.36081 9.99389 7.34827C9.6591 7.29811 8.95231 7.24795 9.11351 7.07239C9.15071 7.05985 9.18791 7.03477 9.24991 7.02223H9.29951C9.3367 6.98461 9.28711 6.95953 9.21271 6.94699C9.26231 6.88429 9.3119 6.84667 9.3119 6.79651C9.6467 6.69619 9.4483 6.58333 9.4483 6.50809C9.01431 6.62095 9.05151 6.50808 8.71672 6.68365C8.74152 6.65857 8.77872 6.68365 8.80352 6.73381C8.81592 6.74635 8.82832 6.75889 8.85312 6.75889C8.84072 6.75889 8.82832 6.75889 8.81592 6.75889C8.84072 6.80905 8.86552 6.85921 8.89031 6.93445C8.65472 6.93445 8.45633 6.92191 8.67952 6.78397C8.38193 6.82159 8.08433 6.84667 7.94794 6.85921C8.54312 6.60841 8.82832 6.33252 9.20031 6.21966C9.05151 6.14442 8.97711 6.01902 8.84072 5.93124C8.69192 5.84346 8.48112 5.78076 8.04713 5.81838C7.92314 5.78076 8.25793 5.68044 8.38193 5.63028C8.46872 5.64282 8.46873 5.69298 8.59272 5.68044C8.34473 5.61774 8.40673 5.32932 7.82394 5.45472C8.03474 5.22899 8.38193 5.39202 8.22073 5.20391L8.40673 5.17883C8.80352 4.84025 8.39433 4.76501 8.00994 4.68977C7.62554 4.60199 7.29075 4.51421 7.79914 4.11293C7.73714 4.16309 7.71234 4.18817 7.61315 4.22579C7.78674 3.8872 7.58835 3.64894 7.41475 3.39814C7.32795 3.27274 7.25355 3.14734 7.24115 3.0094C7.22875 2.87146 7.26595 2.70844 7.42715 2.50779C7.53875 2.30715 7.17916 2.40747 6.86916 2.42001L7.31555 2.21937L6.69557 2.26953C6.45997 2.23191 6.70797 2.03127 6.91876 1.84317C7.11716 1.65507 7.26595 1.46697 6.85676 1.46697L6.55917 1.61745C6.58397 1.49205 6.26158 1.37918 6.62117 1.25378C6.55917 1.26632 6.28638 1.3541 6.43517 1.24124L6.67077 1.14092C6.50957 1.11584 6.33598 1.09076 6.17478 1.06568C6.26158 0.80234 7.11716 0.702019 7.04276 0.388517C6.99316 0.388517 6.91876 0.375977 6.84436 0.375977C6.75757 0.375977 6.65837 0.375977 6.54677 0.388517C6.33598 0.413597 6.13758 0.463757 6.07558 0.513918C6.08798 0.564078 5.98878 0.689479 5.75319 0.80234L5.59199 0.76472C5.2448 0.927741 4.89761 1.07822 4.58762 1.24124C4.27762 1.40426 3.99243 1.57983 3.79404 1.75539C3.95523 1.73031 4.11643 1.71777 4.26522 1.70523L3.95523 1.89333L3.88083 1.79301C3.59564 1.99365 3.89323 1.90587 4.10403 1.88079C3.93043 1.96857 3.81883 2.04381 3.75684 2.09397C3.99243 2.04381 4.22802 1.99365 4.47602 1.94349C4.21563 2.06889 3.91803 2.10651 3.79404 2.25699C4.12883 2.19429 4.37682 1.94349 4.62482 1.96857C4.33962 2.16921 4.06683 2.25699 4.37682 2.21937C4.20323 2.30715 4.07923 2.33223 3.99243 2.33223C4.24042 2.31969 4.15363 2.48271 4.53802 2.36985C4.17843 2.59557 4.73641 2.57049 4.06683 2.8213C4.24042 2.78368 4.63722 2.74606 4.68681 2.80876C3.84363 2.98432 4.72401 3.08464 3.85603 3.36052C4.61242 3.18496 4.29002 3.5737 4.74881 3.59878C4.68681 3.61132 4.56282 3.6364 4.60002 3.59878C4.57522 3.71164 4.36442 3.81196 4.24042 3.91228C4.84801 3.72418 5.02161 3.8245 5.4184 3.77434C4.87281 4.07531 4.68681 3.93736 4.14123 4.16309C4.62482 4.00007 4.68681 4.20071 5.0836 4.02515C4.74881 4.22579 4.93481 4.16309 4.45122 4.36373C5.2076 4.13801 4.60002 4.40135 5.0836 4.32611C4.74881 4.57691 4.38922 4.57691 4.66201 4.65215C4.46362 4.80263 4.15363 4.76501 4.15363 4.76501ZM6.36077 7.76209C6.33598 7.73701 6.32358 7.71193 6.31118 7.69939C6.32358 7.71193 6.33598 7.73701 6.36077 7.76209ZM6.43517 8.05052C6.44757 8.0129 6.43517 7.96274 6.42277 7.92512C6.57157 7.87496 6.73277 7.84988 6.73277 7.8875C6.63357 7.8875 6.55917 7.97528 6.43517 8.05052ZM9.3491 6.69619C9.4235 6.73381 9.3367 6.77143 9.24991 6.79651C9.23751 6.77143 9.21271 6.74635 9.17551 6.72127C9.16311 6.72127 9.13831 6.72127 9.12591 6.73381C9.21271 6.72127 9.28711 6.70873 9.3491 6.69619Z" fill="#FF7777"/>
<path d="M8.75388 6.74594C8.74148 6.74594 8.72908 6.74594 8.71668 6.7334C8.67948 6.75848 8.65468 6.77102 8.62988 6.78356C8.67948 6.78356 8.72908 6.77102 8.76628 6.77102C8.75388 6.77102 8.75388 6.75848 8.75388 6.74594Z" fill="#FF7777"/>
<path d="M6.34863 12.2516L6.47263 12.2266H6.36103L6.34863 12.2516Z" fill="#FF7777"/>
<path d="M8.20828 36.1401C8.17108 36.1401 8.12148 36.1401 8.09668 36.1527C8.12148 36.1527 8.15868 36.1401 8.20828 36.1401Z" fill="#FF7777"/>
<path d="M8.03492 36.8428L7.86133 36.9306C7.96053 36.8929 8.01013 36.8679 8.03492 36.8428Z" fill="#FF7777"/>
<path d="M7.76172 37.3691C7.83612 37.3817 7.89812 37.3942 7.96011 37.3942L7.76172 37.3691Z" fill="#FF7777"/>
<path d="M7.71271 28.6039C7.71271 28.5914 7.70031 28.5914 7.68791 28.5789C7.60111 28.5287 7.63831 28.5663 7.71271 28.6039Z" fill="#FF7777"/>
<path d="M8.70451 31.2499C8.63012 31.2248 8.54332 31.1872 8.49372 31.1621C8.45652 31.1997 8.44412 31.2373 8.70451 31.2499Z" fill="#FF7777"/>
<path d="M7.17871 25.7069C7.19111 25.7069 7.17871 25.7069 7.17871 25.7069C7.19111 25.7069 7.19111 25.6943 7.19111 25.6943L7.17871 25.7069Z" fill="#FF7777"/>
<path d="M8.50634 31.0239C8.41954 31.0615 8.43194 31.1117 8.49394 31.1493C8.53114 31.1117 8.58074 31.0741 8.50634 31.0239Z" fill="#FF7777"/>
<path d="M7.34023 39.7393L7.31543 39.7643C7.34023 39.7643 7.36503 39.7769 7.38983 39.7769L7.34023 39.7393Z" fill="#FF7777"/>
<path d="M7.38965 39.7642L7.43925 39.8018C7.43925 39.7892 7.43925 39.7767 7.38965 39.7642Z" fill="#FF7777"/>
<path d="M7.53835 39.8775L7.42676 39.8022C7.43916 39.8273 7.41436 39.8524 7.53835 39.8775Z" fill="#FF7777"/>
<path d="M7.61335 39.0246L7.45215 38.9995C7.47695 39.0121 7.53895 39.0246 7.61335 39.0246Z" fill="#FF7777"/>
<path d="M7.58786 38.7988C7.55066 38.849 7.22827 38.8991 7.32746 38.9744L7.45146 38.9995C7.20347 38.9493 7.86065 38.8866 7.58786 38.7988Z" fill="#FF7777"/>
<path d="M9.69665 38.0713L9.54785 38.2468C9.72145 38.2343 9.95704 38.2092 9.99424 38.297C10.5398 38.1089 9.59745 38.3096 9.69665 38.0713Z" fill="#FF7777"/>
<path d="M9.99414 37.5072C10.0685 37.6201 10.2421 37.5323 10.3413 37.5448C10.1925 37.4696 10.1553 37.4445 9.99414 37.5072Z" fill="#FF7777"/>
<path d="M10.3037 33.2812L10.7129 33.3188C10.6633 33.2311 10.5517 33.3063 10.3037 33.2812Z" fill="#FF7777"/>
<path d="M8.22036 32.3657L7.95996 32.4159L8.34435 32.4786L8.22036 32.3657Z" fill="#FF7777"/>
<path d="M11.1845 32.0271L11.2465 32.0647L11.0977 31.9268L11.1845 32.0271Z" fill="#FF7777"/>
<path d="M11.1471 24.8418L10.6387 24.8794C10.7379 24.9296 11.3083 24.9296 11.1471 24.8418Z" fill="#FF7777"/>
<path d="M10.5517 21.7693C10.7997 21.7192 10.9609 21.6314 10.7129 21.5938C10.6757 21.6565 10.4773 21.7317 10.5517 21.7693Z" fill="#FF7777"/>
<path d="M10.502 12.4143L10.6879 12.4519L10.5268 12.3516L10.502 12.4143Z" fill="#FF7777"/>
</g>
<defs>
<clipPath id="clip0">
<rect width="17" height="43" fill="white"/>
</clipPath>
</defs>
</svg>
