<svg width="35" height="35" viewBox="0 0 35 35" fill="none" xmlns="http://www.w3.org/2000/svg">
<rect width="35" height="35" rx="10" fill="#2E2E2E"/>
<path d="M10.7064 26.7195H7.52949C7.26475 26.7195 7 26.4627 7 26.2058V13.3647C7 13.1079 7.26475 12.8511 7.52949 12.8511H10.7064C11.2359 12.8511 11.5007 13.1079 11.5007 13.3647V26.2058C11.5007 26.4627 11.2359 26.7195 10.7064 26.7195Z" fill="#FAFAFA"/>
<path d="M18.3839 18.5016V26.2063C18.3839 26.4631 18.1192 26.72 17.8544 26.72H14.6774C14.4127 26.72 14.1479 26.4631 14.1479 26.2063V13.3652C14.1479 13.1084 14.4127 12.8515 14.6774 12.8515H17.8544C18.1192 12.8515 18.3839 13.1084 18.3839 13.3652V14.6493C18.3839 14.6493 19.7076 12.5947 23.1494 12.5947C26.5911 12.5947 28.1796 14.9061 28.1796 17.4744V26.2063C28.1796 26.4631 27.9148 26.72 27.6501 26.72H24.4731C24.2084 26.72 23.9436 26.72 23.9436 26.2063V18.5016C23.9436 18.5016 23.9436 15.9334 21.2961 15.9334C18.6487 15.9334 18.3839 18.5016 18.3839 18.5016Z" fill="#FAFAFA"/>
<path d="M9.38272 11.3105C10.6987 11.3105 11.7654 10.2758 11.7654 8.99927C11.7654 7.72278 10.6987 6.68799 9.38272 6.68799C8.06678 6.68799 7 7.72278 7 8.99927C7 10.2758 8.06678 11.3105 9.38272 11.3105Z" fill="#FAFAFA"/>
</svg>
