<svg width="206" height="30" viewBox="0 0 206 30" fill="none" xmlns="http://www.w3.org/2000/svg">
<path d="M63.74 22V8.1H66.06L70.36 20.26L74.64 8.1H76.96V22H75.72V9.38H75.44L71.08 21.54H69.62L65.26 9.38H64.98V22H63.74ZM81.1792 15.12C81.1792 17.24 81.4592 18.7667 82.0192 19.7C82.5792 20.62 83.6792 21.08 85.3192 21.08C86.9726 21.08 88.0792 20.6267 88.6392 19.72C89.1992 18.8133 89.4792 17.3 89.4792 15.18C89.4792 13.0467 89.1859 11.4867 88.5992 10.5C88.0126 9.51333 86.9192 9.02 85.3192 9.02C83.6659 9.02 82.5526 9.55333 81.9792 10.62C81.6726 11.1667 81.4592 11.7933 81.3392 12.5C81.2326 13.2067 81.1792 14.08 81.1792 15.12ZM90.7592 15.16C90.7592 17.64 90.3659 19.4333 89.5792 20.54C88.8059 21.6467 87.3859 22.2 85.3192 22.2C83.2659 22.2 81.8459 21.6333 81.0592 20.5C80.2859 19.3667 79.8992 17.58 79.8992 15.14C79.8992 12.6867 80.2926 10.8667 81.0792 9.68C81.8659 8.49333 83.2792 7.9 85.3192 7.9C87.3592 7.9 88.7726 8.49333 89.5592 9.68C90.3592 10.8533 90.7592 12.68 90.7592 15.16ZM94.9214 16.52V22H93.6814V8.1H98.7814C100.235 8.1 101.315 8.43333 102.021 9.1C102.741 9.75333 103.101 10.7933 103.101 12.22C103.101 14.4467 102.208 15.8 100.421 16.28L103.281 22H101.901L99.1614 16.52H94.9214ZM101.821 12.24C101.821 11.2 101.575 10.4333 101.081 9.94C100.588 9.44667 99.8214 9.2 98.7814 9.2H94.9214V15.42H98.7814C100.808 15.42 101.821 14.36 101.821 12.24ZM105.986 22V8.1H114.326V9.22H107.226V14.38H113.126V15.48H107.226V20.9H114.326V22H105.986ZM126.496 17.16H122.656V22H121.416V8.1H126.496C127.976 8.1 129.062 8.46 129.756 9.18C130.462 9.9 130.816 11.0067 130.816 12.5C130.816 15.6067 129.376 17.16 126.496 17.16ZM122.656 16.06H126.496C128.522 16.06 129.536 14.8733 129.536 12.5C129.536 11.3667 129.296 10.5333 128.816 10C128.336 9.46667 127.562 9.2 126.496 9.2H122.656V16.06ZM134.511 16.52V22H133.271V8.1H138.371C139.825 8.1 140.905 8.43333 141.611 9.1C142.331 9.75333 142.691 10.7933 142.691 12.22C142.691 14.4467 141.798 15.8 140.011 16.28L142.871 22H141.491L138.751 16.52H134.511ZM141.411 12.24C141.411 11.2 141.165 10.4333 140.671 9.94C140.178 9.44667 139.411 9.2 138.371 9.2H134.511V15.42H138.371C140.398 15.42 141.411 14.36 141.411 12.24ZM146.316 15.12C146.316 17.24 146.596 18.7667 147.156 19.7C147.716 20.62 148.816 21.08 150.456 21.08C152.109 21.08 153.216 20.6267 153.776 19.72C154.336 18.8133 154.616 17.3 154.616 15.18C154.616 13.0467 154.323 11.4867 153.736 10.5C153.149 9.51333 152.056 9.02 150.456 9.02C148.803 9.02 147.689 9.55333 147.116 10.62C146.809 11.1667 146.596 11.7933 146.476 12.5C146.369 13.2067 146.316 14.08 146.316 15.12ZM155.896 15.16C155.896 17.64 155.503 19.4333 154.716 20.54C153.943 21.6467 152.523 22.2 150.456 22.2C148.403 22.2 146.983 21.6333 146.196 20.5C145.423 19.3667 145.036 17.58 145.036 15.14C145.036 12.6867 145.429 10.8667 146.216 9.68C147.003 8.49333 148.416 7.9 150.456 7.9C152.496 7.9 153.909 8.49333 154.696 9.68C155.496 10.8533 155.896 12.68 155.896 15.16ZM160.649 8.1V20.22C160.649 20.9667 160.582 21.56 160.449 22C160.329 22.4267 160.096 22.7467 159.749 22.96C159.416 23.1733 159.056 23.3067 158.669 23.36C158.282 23.4133 157.722 23.44 156.989 23.44V22.34C157.562 22.34 157.976 22.32 158.229 22.28C158.482 22.2533 158.716 22.16 158.929 22C159.156 21.84 159.296 21.6067 159.349 21.3C159.402 20.9933 159.429 20.5467 159.429 19.96V8.1H160.649ZM164.072 22V8.1H172.412V9.22H165.312V14.38H171.212V15.48H165.312V20.9H172.412V22H164.072ZM183.231 21.78C181.858 22.06 180.685 22.2 179.711 22.2C178.738 22.2 177.951 22.1 177.351 21.9C176.765 21.6867 176.285 21.3933 175.911 21.02C175.538 20.6467 175.245 20.16 175.031 19.56C174.631 18.4667 174.431 16.98 174.431 15.1C174.431 12.0867 174.911 10.0933 175.871 9.12C176.658 8.30667 177.858 7.9 179.471 7.9C180.578 7.9 181.831 8.04 183.231 8.32L183.171 9.4C181.785 9.14667 180.671 9.02 179.831 9.02C178.991 9.02 178.338 9.11333 177.871 9.3C177.418 9.47333 177.045 9.71333 176.751 10.02C176.471 10.3133 176.258 10.7267 176.111 11.26C175.845 12.1667 175.711 13.3 175.711 14.66C175.711 16.02 175.758 17.04 175.851 17.72C175.945 18.3867 176.125 18.9933 176.391 19.54C176.658 20.0867 177.051 20.48 177.571 20.72C178.091 20.96 178.811 21.08 179.731 21.08C180.651 21.08 181.798 20.9533 183.171 20.7L183.231 21.78ZM184.33 9.22V8.1H194.33V9.22H189.97V22H188.73V9.22H184.33ZM200.098 8.98C197.951 8.98 196.878 9.8 196.878 11.44C196.878 12.4 197.118 13.0467 197.598 13.38C198.091 13.7133 199.044 14.02 200.458 14.3C201.884 14.58 202.898 14.9667 203.498 15.46C204.111 15.9533 204.418 16.78 204.418 17.94C204.418 19.4333 204.044 20.5133 203.298 21.18C202.564 21.8333 201.484 22.16 200.058 22.16C199.018 22.16 197.811 22.0667 196.438 21.88L195.718 21.78L195.858 20.72C197.684 20.9467 199.098 21.06 200.098 21.06C201.098 21.06 201.858 20.82 202.378 20.34C202.898 19.8467 203.158 19.1333 203.158 18.2C203.158 17.2533 202.924 16.6133 202.458 16.28C202.004 15.9333 201.271 15.6667 200.258 15.48C199.258 15.2933 198.524 15.1267 198.058 14.98C197.591 14.82 197.151 14.6 196.738 14.32C196.338 14.0267 196.051 13.66 195.878 13.22C195.704 12.7667 195.618 12.2 195.618 11.52C195.618 9.09333 197.084 7.88 200.018 7.88C200.898 7.88 202.044 7.97333 203.458 8.16L204.118 8.26L204.018 9.32C202.178 9.09333 200.871 8.98 200.098 8.98Z" fill="#2E2E2E"/>
<path d="M0 15H50" stroke="#2E2E2E"/>
</svg>
