<svg width="174" height="16" viewBox="0 0 174 16" fill="none" xmlns="http://www.w3.org/2000/svg">
<path d="M8.16 15.2C7.70667 14.0933 7.25333 12.9933 6.8 11.9C6.36 10.8067 5.91333 9.71333 5.46 8.62C5.35333 8.36667 5.21333 8.01333 5.04 7.56C4.88 7.09333 4.70667 6.56 4.52 5.96C4.34667 5.36 4.18667 4.74 4.04 4.1C4.06667 4.84667 4.08667 5.55333 4.1 6.22C4.11333 6.87333 4.11333 7.5 4.1 8.1C4.1 8.7 4.09333 9.30667 4.08 9.92C4.08 10.52 4.08 11.12 4.08 11.72C4.08 12.08 4.06667 12.4267 4.04 12.76C4.02667 13.0933 4.00667 13.3467 3.98 13.52C4.20667 13.4933 4.48 13.48 4.8 13.48C5.13333 13.4667 5.36667 13.46 5.5 13.46V15H0.94V13.68C1.24667 13.6667 1.5 13.6267 1.7 13.56C1.91333 13.4933 2.07333 13.34 2.18 13.1C2.3 12.86 2.36 12.4733 2.36 11.94L2.48 4.28C2.49333 3.92 2.50667 3.57333 2.52 3.24C2.53333 2.90667 2.54667 2.65333 2.56 2.48C2.34667 2.49333 2.08 2.50667 1.76 2.52C1.44 2.52 1.20667 2.52667 1.06 2.54V0.999999H5.48L8.5 8.74C8.62 9.04667 8.75333 9.40667 8.9 9.82C9.04667 10.22 9.18667 10.6133 9.32 11C9.45333 11.3733 9.55333 11.6733 9.62 11.9H9.64C9.81333 11.4333 9.97333 10.98 10.12 10.54C10.2667 10.1 10.42 9.67333 10.58 9.26C11.1 7.87333 11.6133 6.49333 12.12 5.12C12.64 3.74667 13.16 2.37333 13.68 0.999999H18.3V2.32C18.0067 2.33333 17.7467 2.37333 17.52 2.44C17.2933 2.50667 17.12 2.66 17 2.9C16.8933 3.12667 16.8467 3.51333 16.86 4.06L17.16 11.72C17.1867 12.08 17.1867 12.4267 17.16 12.76C17.1333 13.0933 17.1067 13.3467 17.08 13.52C17.3067 13.4933 17.58 13.48 17.9 13.48C18.2333 13.4667 18.4667 13.46 18.6 13.46V15H13.04V13.68C13.3467 13.6667 13.6067 13.6267 13.82 13.56C14.0467 13.4933 14.2133 13.34 14.32 13.1C14.44 12.86 14.4867 12.4733 14.46 11.94L14.3 7.7C14.3 7.54 14.2867 7.26667 14.26 6.88C14.2333 6.48 14.2067 6.04667 14.18 5.58C14.1667 5.1 14.1533 4.65333 14.14 4.24C14.1 4.33333 14.06 4.42667 14.02 4.52C13.98 4.6 13.9467 4.68667 13.92 4.78L10.02 15.2H8.16Z" fill="#393B3F"/>
<path d="M26.1736 2.32C25.8803 2.33333 25.6269 2.37333 25.4136 2.44C25.2003 2.50667 25.0336 2.66 24.9136 2.9C24.8069 3.12667 24.7536 3.51333 24.7536 4.06V11.72C24.7536 12.08 24.7469 12.4267 24.7336 12.76C24.7203 13.0933 24.7003 13.3467 24.6736 13.52C24.8869 13.4933 25.1536 13.48 25.4736 13.48C25.8069 13.4667 26.0403 13.46 26.1736 13.46V15H20.4336V13.68C20.7403 13.6667 20.9936 13.6267 21.1936 13.56C21.4069 13.4933 21.5669 13.34 21.6736 13.1C21.7936 12.86 21.8536 12.4733 21.8536 11.94V4.28C21.8536 3.92 21.8603 3.57333 21.8736 3.24C21.9003 2.90667 21.9203 2.65333 21.9336 2.48C21.7203 2.49333 21.4536 2.50667 21.1336 2.52C20.8136 2.52 20.5803 2.52667 20.4336 2.54V0.999999H26.1736V2.32ZM38.2536 5.48C37.8936 3.26667 36.7736 2.14667 34.8936 2.12C34.2003 2.12 33.5936 2.28 33.0736 2.6C32.5536 2.92 32.1203 3.34667 31.7736 3.88C31.4403 4.41333 31.1869 5.02 31.0136 5.7C30.8536 6.38 30.7736 7.08 30.7736 7.8C30.7736 8.94667 30.9336 9.96667 31.2536 10.86C31.5869 11.74 32.0669 12.4333 32.6936 12.94C33.3203 13.4467 34.0803 13.7 34.9736 13.7C35.8136 13.7 36.6469 13.4867 37.4736 13.06C38.3003 12.62 38.9936 12.0133 39.5536 11.24L40.5136 12.12C39.8603 13.0133 39.1736 13.6933 38.4536 14.16C37.7336 14.6133 37.0269 14.92 36.3336 15.08C35.6536 15.24 35.0403 15.32 34.4936 15.32C33.4669 15.32 32.5336 15.14 31.6936 14.78C30.8536 14.4067 30.1269 13.9 29.5136 13.26C28.9136 12.6067 28.4469 11.8533 28.1136 11C27.7936 10.1333 27.6336 9.2 27.6336 8.2C27.6336 7.29333 27.7803 6.39333 28.0736 5.5C28.3669 4.60667 28.8003 3.8 29.3736 3.08C29.9603 2.34667 30.6936 1.76667 31.5736 1.34C32.4536 0.9 33.4736 0.68 34.6336 0.68C35.1536 0.68 35.7203 0.766666 36.3336 0.94C36.9603 1.1 37.5469 1.34 38.0936 1.66L38.0136 0.819999H39.5536V5.48H38.2536ZM41.7031 15V13.68C42.0098 13.6667 42.2631 13.6267 42.4631 13.56C42.6765 13.4933 42.8365 13.34 42.9431 13.1C43.0631 12.86 43.1231 12.4733 43.1231 11.94V4.28C43.1231 3.92 43.1298 3.57333 43.1431 3.24C43.1698 2.90667 43.1898 2.65333 43.2031 2.48C42.9898 2.49333 42.7231 2.50667 42.4031 2.52C42.0831 2.52 41.8498 2.52667 41.7031 2.54V0.999999H47.4431V2.32C47.1498 2.33333 46.8965 2.37333 46.6831 2.44C46.4698 2.50667 46.3031 2.66 46.1831 2.9C46.0765 3.12667 46.0231 3.51333 46.0231 4.06V7.18H51.5231V4.28C51.5231 3.92 51.5298 3.57333 51.5431 3.24C51.5565 2.90667 51.5765 2.65333 51.6031 2.48C51.3898 2.49333 51.1231 2.50667 50.8031 2.52C50.4831 2.52 50.2498 2.52667 50.1031 2.54V0.999999H55.8431V2.32C55.5498 2.33333 55.2965 2.37333 55.0831 2.44C54.8698 2.50667 54.7031 2.66 54.5831 2.9C54.4765 3.12667 54.4231 3.51333 54.4231 4.06V11.72C54.4231 12.08 54.4165 12.4267 54.4031 12.76C54.3898 13.0933 54.3698 13.3467 54.3431 13.52C54.5565 13.4933 54.8231 13.48 55.1431 13.48C55.4765 13.4667 55.7098 13.46 55.8431 13.46V15H50.1031V13.68C50.4098 13.6667 50.6631 13.6267 50.8631 13.56C51.0765 13.4933 51.2365 13.34 51.3431 13.1C51.4631 12.86 51.5231 12.4733 51.5231 11.94V8.7L46.0231 8.76V11.72C46.0231 12.08 46.0165 12.4267 46.0031 12.76C45.9898 13.0933 45.9698 13.3467 45.9431 13.52C46.1565 13.4933 46.4231 13.48 46.7431 13.48C47.0765 13.4667 47.3098 13.46 47.4431 13.46V15H41.7031ZM56.9159 15V13.62C57.2893 13.62 57.5893 13.5133 57.8159 13.3C58.0426 13.0867 58.2293 12.8067 58.3759 12.46C58.5359 12.1133 58.6893 11.74 58.8359 11.34L62.7359 0.639999H64.1359L68.3959 11.54C68.4759 11.74 68.5826 12.0467 68.7159 12.46C68.8493 12.86 68.9293 13.2133 68.9559 13.52C69.1826 13.4933 69.3959 13.48 69.5959 13.48C69.8093 13.4667 69.9826 13.46 70.1159 13.46V15H64.7359V13.68C65.2826 13.68 65.5893 13.5133 65.6559 13.18C65.7226 12.8333 65.6626 12.4133 65.4759 11.92L65.0759 10.82L60.7359 10.9L60.4159 11.84C60.3493 12.0133 60.2493 12.2733 60.1159 12.62C59.9959 12.9533 59.8826 13.2333 59.7759 13.46C59.9893 13.4333 60.2426 13.42 60.5359 13.42C60.8426 13.4067 61.0626 13.4 61.1959 13.4V15H56.9159ZM61.2359 9.4H64.5759L63.6559 6.9C63.4826 6.42 63.3293 5.94 63.1959 5.46C63.0626 4.96667 62.9626 4.53333 62.8959 4.16H62.8759C62.8226 4.38667 62.7426 4.72667 62.6359 5.18C62.5293 5.63333 62.3626 6.17333 62.1359 6.8L61.2359 9.4ZM71.1953 15V13.68C71.502 13.6667 71.7553 13.6267 71.9553 13.56C72.1686 13.4933 72.3286 13.34 72.4353 13.1C72.5553 12.86 72.6153 12.4733 72.6153 11.94V4.28C72.6153 3.92 72.622 3.57333 72.6353 3.24C72.662 2.90667 72.682 2.65333 72.6953 2.48C72.482 2.49333 72.2153 2.50667 71.8953 2.52C71.5753 2.52 71.342 2.52667 71.1953 2.54V0.999999H76.9353V2.32C76.642 2.33333 76.3886 2.37333 76.1753 2.44C75.962 2.50667 75.7953 2.66 75.6753 2.9C75.5686 3.12667 75.5153 3.51333 75.5153 4.06V11.72C75.5153 12.08 75.5086 12.42 75.4953 12.74C75.482 13.06 75.462 13.3067 75.4353 13.48H78.1153C78.902 13.4667 79.5153 13.1933 79.9553 12.66C80.4086 12.1133 80.6353 11.2933 80.6353 10.2H81.9753L81.8553 15H71.1953ZM87.5995 15V13.62C87.9729 13.62 88.2729 13.5133 88.4995 13.3C88.7262 13.0867 88.9129 12.8067 89.0595 12.46C89.2195 12.1133 89.3729 11.74 89.5195 11.34L93.4195 0.639999H94.8195L99.0795 11.54C99.1595 11.74 99.2662 12.0467 99.3995 12.46C99.5329 12.86 99.6129 13.2133 99.6395 13.52C99.8662 13.4933 100.08 13.48 100.28 13.48C100.493 13.4667 100.666 13.46 100.8 13.46V15H95.4195V13.68C95.9662 13.68 96.2729 13.5133 96.3395 13.18C96.4062 12.8333 96.3462 12.4133 96.1595 11.92L95.7595 10.82L91.4195 10.9L91.0995 11.84C91.0329 12.0133 90.9329 12.2733 90.7995 12.62C90.6795 12.9533 90.5662 13.2333 90.4595 13.46C90.6729 13.4333 90.9262 13.42 91.2195 13.42C91.5262 13.4067 91.7462 13.4 91.8795 13.4V15H87.5995ZM91.9195 9.4H95.2595L94.3395 6.9C94.1662 6.42 94.0129 5.94 93.8795 5.46C93.7462 4.96667 93.6462 4.53333 93.5795 4.16H93.5595C93.5062 4.38667 93.4262 4.72667 93.3195 5.18C93.2129 5.63333 93.0462 6.17333 92.8195 6.8L91.9195 9.4ZM109.039 15.2C108.586 14.0933 108.132 12.9933 107.679 11.9C107.239 10.8067 106.792 9.71333 106.339 8.62C106.232 8.36667 106.092 8.01333 105.919 7.56C105.759 7.09333 105.586 6.56 105.399 5.96C105.226 5.36 105.066 4.74 104.919 4.1C104.946 4.84667 104.966 5.55333 104.979 6.22C104.992 6.87333 104.992 7.5 104.979 8.1C104.979 8.7 104.972 9.30667 104.959 9.92C104.959 10.52 104.959 11.12 104.959 11.72C104.959 12.08 104.946 12.4267 104.919 12.76C104.906 13.0933 104.886 13.3467 104.859 13.52C105.086 13.4933 105.359 13.48 105.679 13.48C106.012 13.4667 106.246 13.46 106.379 13.46V15H101.819V13.68C102.126 13.6667 102.379 13.6267 102.579 13.56C102.792 13.4933 102.952 13.34 103.059 13.1C103.179 12.86 103.239 12.4733 103.239 11.94L103.359 4.28C103.372 3.92 103.386 3.57333 103.399 3.24C103.412 2.90667 103.426 2.65333 103.439 2.48C103.226 2.49333 102.959 2.50667 102.639 2.52C102.319 2.52 102.086 2.52667 101.939 2.54V0.999999H106.359L109.379 8.74C109.499 9.04667 109.632 9.40667 109.779 9.82C109.926 10.22 110.066 10.6133 110.199 11C110.332 11.3733 110.432 11.6733 110.499 11.9H110.519C110.692 11.4333 110.852 10.98 110.999 10.54C111.146 10.1 111.299 9.67333 111.459 9.26C111.979 7.87333 112.492 6.49333 112.999 5.12C113.519 3.74667 114.039 2.37333 114.559 0.999999H119.179V2.32C118.886 2.33333 118.626 2.37333 118.399 2.44C118.172 2.50667 117.999 2.66 117.879 2.9C117.772 3.12667 117.726 3.51333 117.739 4.06L118.039 11.72C118.066 12.08 118.066 12.4267 118.039 12.76C118.012 13.0933 117.986 13.3467 117.959 13.52C118.186 13.4933 118.459 13.48 118.779 13.48C119.112 13.4667 119.346 13.46 119.479 13.46V15H113.919V13.68C114.226 13.6667 114.486 13.6267 114.699 13.56C114.926 13.4933 115.092 13.34 115.199 13.1C115.319 12.86 115.366 12.4733 115.339 11.94L115.179 7.7C115.179 7.54 115.166 7.26667 115.139 6.88C115.112 6.48 115.086 6.04667 115.059 5.58C115.046 5.1 115.032 4.65333 115.019 4.24C114.979 4.33333 114.939 4.42667 114.899 4.52C114.859 4.6 114.826 4.68667 114.799 4.78L110.899 15.2H109.039ZM121.313 15V13.68C121.619 13.6667 121.873 13.6267 122.073 13.56C122.286 13.4933 122.446 13.34 122.553 13.1C122.673 12.86 122.733 12.4733 122.733 11.94V4.28C122.733 3.92 122.739 3.57333 122.753 3.24C122.779 2.90667 122.799 2.65333 122.812 2.48C122.599 2.49333 122.333 2.50667 122.013 2.52C121.693 2.52 121.459 2.52667 121.313 2.54V0.999999C122.259 0.986666 123.206 0.979999 124.153 0.979999C125.099 0.979999 126.046 0.973333 126.993 0.96C128.166 0.946666 129.186 1.08 130.053 1.36C130.919 1.64 131.586 2.09333 132.053 2.72C132.519 3.34667 132.739 4.19333 132.713 5.26C132.686 6.11333 132.386 6.88667 131.813 7.58C131.239 8.27333 130.366 8.78667 129.193 9.12C129.446 9.22667 129.693 9.4 129.933 9.64C130.186 9.88 130.399 10.1333 130.573 10.4L131.513 11.8C131.953 12.48 132.319 12.96 132.613 13.24C132.919 13.5067 133.299 13.6533 133.753 13.68V15H130.453C130.213 14.8267 129.973 14.58 129.733 14.26C129.506 13.9267 129.259 13.5467 128.993 13.12L127.513 10.72C127.179 10.1867 126.899 9.8 126.673 9.56H125.633V11.7C125.633 12.0733 125.626 12.4267 125.613 12.76C125.599 13.0933 125.579 13.3467 125.553 13.52C125.699 13.5067 125.886 13.5 126.113 13.5C126.339 13.4867 126.559 13.48 126.773 13.48C126.999 13.4667 127.159 13.46 127.253 13.46V15H121.313ZM126.593 8.12C127.699 8.12 128.493 7.87333 128.973 7.38C129.453 6.87333 129.693 6.11333 129.693 5.1C129.693 4.46 129.593 3.96 129.393 3.6C129.193 3.22667 128.939 2.95333 128.633 2.78C128.339 2.59333 128.039 2.48 127.733 2.44C127.426 2.38667 127.173 2.36 126.973 2.36C126.559 2.36 126.233 2.44667 125.993 2.62C125.753 2.79333 125.633 3.23333 125.633 3.94V8.04C125.779 8.05333 125.933 8.07333 126.093 8.1C126.253 8.11333 126.419 8.12 126.593 8.12ZM134.103 15V13.62C134.477 13.62 134.777 13.5133 135.003 13.3C135.23 13.0867 135.417 12.8067 135.563 12.46C135.723 12.1133 135.877 11.74 136.023 11.34L139.923 0.639999H141.323L145.583 11.54C145.663 11.74 145.77 12.0467 145.903 12.46C146.037 12.86 146.117 13.2133 146.143 13.52C146.37 13.4933 146.583 13.48 146.783 13.48C146.997 13.4667 147.17 13.46 147.303 13.46V15H141.923V13.68C142.47 13.68 142.777 13.5133 142.843 13.18C142.91 12.8333 142.85 12.4133 142.663 11.92L142.263 10.82L137.923 10.9L137.603 11.84C137.537 12.0133 137.437 12.2733 137.303 12.62C137.183 12.9533 137.07 13.2333 136.963 13.46C137.177 13.4333 137.43 13.42 137.723 13.42C138.03 13.4067 138.25 13.4 138.383 13.4V15H134.103ZM138.423 9.4H141.763L140.843 6.9C140.67 6.42 140.517 5.94 140.383 5.46C140.25 4.96667 140.15 4.53333 140.083 4.16H140.063C140.01 4.38667 139.93 4.72667 139.823 5.18C139.717 5.63333 139.55 6.17333 139.323 6.8L138.423 9.4ZM155.543 15.2C155.089 14.0933 154.636 12.9933 154.183 11.9C153.743 10.8067 153.296 9.71333 152.843 8.62C152.736 8.36667 152.596 8.01333 152.423 7.56C152.263 7.09333 152.089 6.56 151.903 5.96C151.729 5.36 151.569 4.74 151.423 4.1C151.449 4.84667 151.469 5.55333 151.483 6.22C151.496 6.87333 151.496 7.5 151.483 8.1C151.483 8.7 151.476 9.30667 151.463 9.92C151.463 10.52 151.463 11.12 151.463 11.72C151.463 12.08 151.449 12.4267 151.423 12.76C151.409 13.0933 151.389 13.3467 151.363 13.52C151.589 13.4933 151.863 13.48 152.183 13.48C152.516 13.4667 152.749 13.46 152.883 13.46V15H148.323V13.68C148.629 13.6667 148.883 13.6267 149.083 13.56C149.296 13.4933 149.456 13.34 149.563 13.1C149.683 12.86 149.743 12.4733 149.743 11.94L149.863 4.28C149.876 3.92 149.889 3.57333 149.903 3.24C149.916 2.90667 149.929 2.65333 149.943 2.48C149.729 2.49333 149.463 2.50667 149.143 2.52C148.823 2.52 148.589 2.52667 148.443 2.54V0.999999H152.863L155.883 8.74C156.003 9.04667 156.136 9.40667 156.283 9.82C156.429 10.22 156.569 10.6133 156.703 11C156.836 11.3733 156.936 11.6733 157.003 11.9H157.023C157.196 11.4333 157.356 10.98 157.503 10.54C157.649 10.1 157.803 9.67333 157.963 9.26C158.483 7.87333 158.996 6.49333 159.503 5.12C160.023 3.74667 160.543 2.37333 161.063 0.999999H165.683V2.32C165.389 2.33333 165.129 2.37333 164.903 2.44C164.676 2.50667 164.503 2.66 164.383 2.9C164.276 3.12667 164.229 3.51333 164.243 4.06L164.543 11.72C164.569 12.08 164.569 12.4267 164.543 12.76C164.516 13.0933 164.489 13.3467 164.463 13.52C164.689 13.4933 164.963 13.48 165.283 13.48C165.616 13.4667 165.849 13.46 165.983 13.46V15H160.423V13.68C160.729 13.6667 160.989 13.6267 161.203 13.56C161.429 13.4933 161.596 13.34 161.703 13.1C161.823 12.86 161.869 12.4733 161.843 11.94L161.683 7.7C161.683 7.54 161.669 7.26667 161.643 6.88C161.616 6.48 161.589 6.04667 161.563 5.58C161.549 5.1 161.536 4.65333 161.523 4.24C161.483 4.33333 161.443 4.42667 161.403 4.52C161.363 4.6 161.329 4.68667 161.303 4.78L157.403 15.2H155.543ZM173.556 2.32C173.263 2.33333 173.01 2.37333 172.796 2.44C172.583 2.50667 172.416 2.66 172.296 2.9C172.19 3.12667 172.136 3.51333 172.136 4.06V11.72C172.136 12.08 172.13 12.4267 172.116 12.76C172.103 13.0933 172.083 13.3467 172.056 13.52C172.27 13.4933 172.536 13.48 172.856 13.48C173.19 13.4667 173.423 13.46 173.556 13.46V15H167.816V13.68C168.123 13.6667 168.376 13.6267 168.576 13.56C168.79 13.4933 168.95 13.34 169.056 13.1C169.176 12.86 169.236 12.4733 169.236 11.94V4.28C169.236 3.92 169.243 3.57333 169.256 3.24C169.283 2.90667 169.303 2.65333 169.316 2.48C169.103 2.49333 168.836 2.50667 168.516 2.52C168.196 2.52 167.963 2.52667 167.816 2.54V0.999999H173.556V2.32Z" fill="#2E2E2E"/>
</svg>
