<svg width="245" height="30" viewBox="0 0 245 30" fill="none" xmlns="http://www.w3.org/2000/svg">
<path d="M63.74 22V8.1H71.94V9.22H64.98V14.96H70.9V16.06H64.98V22H63.74ZM74.2478 22V8.1H82.5878V9.22H75.4878V14.38H81.3878V15.48H75.4878V20.9H82.5878V22H74.2478ZM84.043 22L88.043 8.1H90.943L94.923 22H93.703L92.583 18.16H86.383L85.283 22H84.043ZM88.943 9.18L86.683 17.06H92.283L90.023 9.18H88.943ZM94.7014 9.22V8.1H104.701V9.22H100.341V22H99.1014V9.22H94.7014ZM107.849 17.92C107.849 20.0267 109.002 21.08 111.309 21.08C112.509 21.08 113.409 20.8333 114.009 20.34C114.609 19.8467 114.909 19.04 114.909 17.92V8.1H116.149V17.92C116.149 19.4267 115.742 20.52 114.929 21.2C114.115 21.8667 112.922 22.2 111.349 22.2C109.789 22.2 108.609 21.8667 107.809 21.2C107.022 20.52 106.629 19.4267 106.629 17.92V8.1H107.849V17.92ZM120.781 16.52V22H119.541V8.1H124.641C126.094 8.1 127.174 8.43333 127.881 9.1C128.601 9.75333 128.961 10.7933 128.961 12.22C128.961 14.4467 128.067 15.8 126.281 16.28L129.141 22H127.761L125.021 16.52H120.781ZM127.681 12.24C127.681 11.2 127.434 10.4333 126.941 9.94C126.447 9.44667 125.681 9.2 124.641 9.2H120.781V15.42H124.641C126.667 15.42 127.681 14.36 127.681 12.24ZM131.845 22V8.1H140.185V9.22H133.085V14.38H138.985V15.48H133.085V20.9H140.185V22H131.845ZM147.941 22H142.881V8.1H147.941C151.234 8.1 152.881 10.3533 152.881 14.86C152.881 19.62 151.234 22 147.941 22ZM151.601 14.86C151.601 11.1 150.381 9.22 147.941 9.22H144.121V20.9H147.941C150.381 20.9 151.601 18.8867 151.601 14.86ZM165.285 17.16H161.445V22H160.205V8.1H165.285C166.765 8.1 167.852 8.46 168.545 9.18C169.252 9.9 169.605 11.0067 169.605 12.5C169.605 15.6067 168.165 17.16 165.285 17.16ZM161.445 16.06H165.285C167.312 16.06 168.325 14.8733 168.325 12.5C168.325 11.3667 168.085 10.5333 167.605 10C167.125 9.46667 166.352 9.2 165.285 9.2H161.445V16.06ZM173.3 16.52V22H172.06V8.1H177.16C178.614 8.1 179.694 8.43333 180.4 9.1C181.12 9.75333 181.48 10.7933 181.48 12.22C181.48 14.4467 180.587 15.8 178.8 16.28L181.66 22H180.28L177.54 16.52H173.3ZM180.2 12.24C180.2 11.2 179.954 10.4333 179.46 9.94C178.967 9.44667 178.2 9.2 177.16 9.2H173.3V15.42H177.16C179.187 15.42 180.2 14.36 180.2 12.24ZM185.105 15.12C185.105 17.24 185.385 18.7667 185.945 19.7C186.505 20.62 187.605 21.08 189.245 21.08C190.898 21.08 192.005 20.6267 192.565 19.72C193.125 18.8133 193.405 17.3 193.405 15.18C193.405 13.0467 193.112 11.4867 192.525 10.5C191.938 9.51333 190.845 9.02 189.245 9.02C187.592 9.02 186.478 9.55333 185.905 10.62C185.598 11.1667 185.385 11.7933 185.265 12.5C185.158 13.2067 185.105 14.08 185.105 15.12ZM194.685 15.16C194.685 17.64 194.292 19.4333 193.505 20.54C192.732 21.6467 191.312 22.2 189.245 22.2C187.192 22.2 185.772 21.6333 184.985 20.5C184.212 19.3667 183.825 17.58 183.825 15.14C183.825 12.6867 184.218 10.8667 185.005 9.68C185.792 8.49333 187.205 7.9 189.245 7.9C191.285 7.9 192.698 8.49333 193.485 9.68C194.285 10.8533 194.685 12.68 194.685 15.16ZM199.438 8.1V20.22C199.438 20.9667 199.371 21.56 199.238 22C199.118 22.4267 198.885 22.7467 198.538 22.96C198.205 23.1733 197.845 23.3067 197.458 23.36C197.071 23.4133 196.511 23.44 195.778 23.44V22.34C196.351 22.34 196.765 22.32 197.018 22.28C197.271 22.2533 197.505 22.16 197.718 22C197.945 21.84 198.085 21.6067 198.138 21.3C198.191 20.9933 198.218 20.5467 198.218 19.96V8.1H199.438ZM202.861 22V8.1H211.201V9.22H204.101V14.38H210.001V15.48H204.101V20.9H211.201V22H202.861ZM222.02 21.78C220.647 22.06 219.474 22.2 218.5 22.2C217.527 22.2 216.74 22.1 216.14 21.9C215.554 21.6867 215.074 21.3933 214.7 21.02C214.327 20.6467 214.034 20.16 213.82 19.56C213.42 18.4667 213.22 16.98 213.22 15.1C213.22 12.0867 213.7 10.0933 214.66 9.12C215.447 8.30667 216.647 7.9 218.26 7.9C219.367 7.9 220.62 8.04 222.02 8.32L221.96 9.4C220.574 9.14667 219.46 9.02 218.62 9.02C217.78 9.02 217.127 9.11333 216.66 9.3C216.207 9.47333 215.834 9.71333 215.54 10.02C215.26 10.3133 215.047 10.7267 214.9 11.26C214.634 12.1667 214.5 13.3 214.5 14.66C214.5 16.02 214.547 17.04 214.64 17.72C214.734 18.3867 214.914 18.9933 215.18 19.54C215.447 20.0867 215.84 20.48 216.36 20.72C216.88 20.96 217.6 21.08 218.52 21.08C219.44 21.08 220.587 20.9533 221.96 20.7L222.02 21.78ZM223.119 9.22V8.1H233.119V9.22H228.759V22H227.519V9.22H223.119ZM238.887 8.98C236.74 8.98 235.667 9.8 235.667 11.44C235.667 12.4 235.907 13.0467 236.387 13.38C236.88 13.7133 237.833 14.02 239.247 14.3C240.673 14.58 241.687 14.9667 242.287 15.46C242.9 15.9533 243.207 16.78 243.207 17.94C243.207 19.4333 242.833 20.5133 242.087 21.18C241.353 21.8333 240.273 22.16 238.847 22.16C237.807 22.16 236.6 22.0667 235.227 21.88L234.507 21.78L234.647 20.72C236.473 20.9467 237.887 21.06 238.887 21.06C239.887 21.06 240.647 20.82 241.167 20.34C241.687 19.8467 241.947 19.1333 241.947 18.2C241.947 17.2533 241.713 16.6133 241.247 16.28C240.793 15.9333 240.06 15.6667 239.047 15.48C238.047 15.2933 237.313 15.1267 236.847 14.98C236.38 14.82 235.94 14.6 235.527 14.32C235.127 14.0267 234.84 13.66 234.667 13.22C234.493 12.7667 234.407 12.2 234.407 11.52C234.407 9.09333 235.873 7.88 238.807 7.88C239.687 7.88 240.833 7.97333 242.247 8.16L242.907 8.26L242.807 9.32C240.967 9.09333 239.66 8.98 238.887 8.98Z" fill="#2E2E2E"/>
<path d="M0 15H50" stroke="#2E2E2E"/>
</svg>
